# Blender 3.4.0
# www.blender.org
mtllib asphalt_hr_2.mtl
o asphalt_hr_2
v -1.200000 -0.000000 -0.800000
v 1.200000 -0.000000 -0.800000
v -1.200000 0.000000 -1.600000
v 1.200000 0.000000 -1.600000
v -2.000000 -0.000000 2.000000
v 2.000000 -0.000000 2.000000
v 2.000000 0.000000 -2.000000
v -2.000000 0.000000 -2.000000
v -1.200000 -0.020000 -0.800000
v 1.200000 -0.020000 -0.800000
v 1.200000 -0.020000 -1.600000
v -1.200000 -0.020000 -1.600000
vn -0.7071 -0.0000 0.7071
vn 0.7071 -0.0000 0.7071
vn -0.0000 1.0000 -0.0000
vn 0.7071 -0.0000 -0.7071
vn -0.7071 -0.0000 -0.7071
vt 0.200000 0.525000
vt 0.200000 0.501250
vt 0.501250 0.525000
vt 0.800000 0.525000
vt 0.800000 0.501250
vt 0.501250 0.525000
vt 0.200000 0.501250
vt 0.200000 0.325000
vt 0.501250 0.325000
vt 0.800000 0.501250
vt 0.800000 0.325000
vt 0.501250 0.325000
vt 0.000000 1.225000
vt 1.000000 1.225000
vt 1.000000 0.225000
vt 0.000000 0.225000
vt 0.000000 1.000000
vt 0.200000 0.496250
vt 0.496250 0.525000
vt 1.000000 1.000000
vt 0.800000 0.496250
vt 0.496250 0.525000
vt 0.800000 0.496250
vt 1.000000 0.000000
vt 0.496250 0.325000
vt 0.200000 0.496250
vt 0.000000 0.000000
vt 0.496250 0.325000
s 1
usemtl asphalt_hr_1
f 4/10/1 3/7/2 12/26/2 11/23/1
f 2/4/3 1/1/3 5/13/3 6/14/3
f 4/11/3 2/4/3 6/14/3 7/15/3
f 3/8/3 4/11/3 7/15/3 8/16/3
f 1/1/3 3/8/3 8/16/3 5/13/3
f 1/2/4 2/5/5 10/21/5 9/18/4
f 3/9/2 1/3/4 9/19/4 12/28/2
f 2/6/5 4/12/1 11/25/1 10/22/5
usemtl hole_hr_1
f 9/17/3 10/20/3 11/24/3 12/27/3
