# Blender 3.4.0
# www.blender.org
mtllib asphalt_hr_3.mtl
o asphalt_hr_3
v -1.200000 -0.000000 -0.800000
v 1.200000 -0.000000 -0.800000
v -1.200000 0.000000 -1.600000
v 1.200000 0.000000 -1.600000
v 2.000000 0.000000 -2.000000
v -2.000000 0.000000 -2.000000
v -1.200000 -0.020000 -0.800000
v 1.200000 -0.020000 -0.800000
v 1.200000 -0.020000 -1.600000
v -1.200000 -0.020000 -1.600000
v 1.200000 -0.000000 0.800000
v -1.200000 -0.000000 0.800000
v 1.200000 0.000000 1.600000
v -1.200000 0.000000 1.600000
v -2.000000 0.000000 2.000000
v 2.000000 0.000000 2.000000
v 1.200000 -0.020000 0.800000
v -1.200000 -0.020000 0.800000
v -1.200000 -0.020000 1.600000
v 1.200000 -0.020000 1.600000
vn -0.7071 -0.0000 0.7071
vn 0.7071 -0.0000 0.7071
vn -0.0000 1.0000 -0.0000
vn 0.7071 -0.0000 -0.7071
vn -0.7071 -0.0000 -0.7071
vt 0.200000 0.501538
vt 0.501538 0.300000
vt 0.200000 0.300000
vt 0.800000 0.501538
vt 0.501538 0.300000
vt 0.800000 0.300000
vt 0.200000 0.501538
vt 0.501538 0.100000
vt 0.200000 0.100000
vt 0.800000 0.501538
vt 0.800000 0.100000
vt 0.501538 0.100000
vt 1.000000 0.000000
vt 0.000000 0.000000
vt 0.000000 1.000000
vt 0.200000 0.496538
vt 0.496538 0.300000
vt 1.000000 1.000000
vt 0.800000 0.496538
vt 0.496538 0.300000
vt 0.800000 0.496538
vt 1.000000 0.000000
vt 0.496538 0.100000
vt 0.200000 0.496538
vt 0.000000 0.000000
vt 0.496538 0.100000
vt 0.800000 0.700000
vt 0.800000 0.501538
vt 0.501538 0.700000
vt 0.200000 0.700000
vt 0.200000 0.501538
vt 0.501538 0.700000
vt 0.800000 0.501539
vt 0.800000 0.900000
vt 0.501539 0.900000
vt 0.200000 0.501539
vt 0.200000 0.900000
vt 0.501539 0.900000
vt -0.000000 1.000000
vt 1.000000 1.000000
vt 0.000000 1.000000
vt 0.800000 0.496538
vt 0.496538 0.700000
vt 1.000000 1.000000
vt 0.200000 0.496538
vt 0.496538 0.700000
vt 0.200000 0.496539
vt 1.000000 0.000000
vt 0.496539 0.900000
vt 0.800000 0.496539
vt 0.000000 0.000000
vt 0.496539 0.900000
s 1
usemtl asphalt_hr_1
f 4/10/1 3/7/2 10/24/2 9/21/1
f 3/9/3 4/11/3 5/13/3 6/14/3
f 11/27/3 13/34/3 16/40/3 5/13/3 4/11/3 2/6/3
f 1/1/4 2/4/5 8/19/5 7/16/4
f 3/8/2 1/2/4 7/17/4 10/26/2
f 2/5/5 4/12/1 9/23/1 8/20/5
f 14/36/4 13/33/5 20/50/5 19/47/4
f 14/37/3 12/30/3 1/3/3 3/9/3 6/14/3 15/39/3
f 13/34/3 14/37/3 15/39/3 16/40/3
f 12/30/3 11/27/3 2/6/3 1/3/3
f 11/28/1 12/31/2 18/45/2 17/42/1
f 13/35/5 11/29/1 17/43/1 20/52/5
f 12/32/2 14/38/4 19/49/4 18/46/2
usemtl hole_hr_1
f 7/15/3 8/18/3 9/22/3 10/25/3
f 17/41/3 18/44/3 19/48/3 20/51/3
