# Blender 3.4.0
# www.blender.org
mtllib beam_hl_1.mtl
o beam_hl_1
v 2.000000 0.000000 0.150001
v -2.000000 0.000000 0.150001
v 2.000000 -0.031000 0.150001
v -2.000000 -0.031000 0.150001
v 2.000000 -0.258000 0.100000
v -2.000000 -0.258000 0.100001
v 2.000000 -0.054500 0.135000
v -2.000000 -0.054500 0.135001
v 2.000000 -0.242250 0.120000
v -2.000000 -0.242250 0.120001
v -2.000000 0.000000 -0.150000
v 2.000000 0.000000 -0.150001
v -2.000000 -0.031000 -0.150000
v 2.000000 -0.031000 -0.150001
v -2.000000 -0.258000 -0.100000
v 2.000000 -0.258000 -0.100001
v -2.000000 -0.054500 -0.135000
v 2.000000 -0.054500 -0.135001
v -2.000000 -0.242250 -0.120000
v 2.000000 -0.242250 -0.120001
v 2.000000 0.000000 -0.000000
v -2.000000 0.000000 0.000000
v 2.000000 -0.258000 -0.100001
v -2.000000 -0.258000 -0.100000
v 2.000000 -0.258000 -0.000000
v -2.000000 -0.258000 0.000000
vn -0.0000 -0.0000 1.0000
vn -0.0000 -0.5380 0.8429
vn -0.0000 -0.0796 0.9968
vn -0.0000 -0.7856 0.6187
vn -0.0000 -0.0000 -1.0000
vn -0.0000 -0.5380 -0.8429
vn -0.0000 -0.0796 -0.9968
vn -0.0000 -0.7856 -0.6187
vn -0.0000 1.0000 -0.0000
vn -0.0000 -1.0000 -0.0000
vt 1.000000 1.000000
vt 0.000000 1.000000
vt 0.000000 1.000000
vt 1.000000 1.000000
vt 1.000000 0.989667
vt 0.000000 0.989667
vt 1.000000 0.914000
vt 0.000000 1.000000
vt 0.000000 0.914000
vt 1.000000 1.000000
vt 1.000000 0.981833
vt 0.000000 0.981834
vt 1.000000 0.919250
vt 1.000000 0.924479
vt 0.000000 0.919250
vt 0.000000 0.924479
vt 1.000000 1.000000
vt 0.000000 1.000000
vt 0.000000 1.000000
vt 1.000000 1.000000
vt 1.000000 0.989667
vt 0.000000 0.989667
vt 1.000000 0.914000
vt 0.000000 1.000000
vt 0.000000 0.914000
vt 1.000000 1.000000
vt 1.000000 0.981833
vt 0.000000 0.981834
vt 1.000000 0.919250
vt 1.000000 0.924479
vt 0.000000 0.919250
vt 0.000000 0.924479
vt 1.000000 0.953125
vt 0.000000 0.953125
vt 0.000000 0.953125
vt 1.000000 0.953125
vt 1.000000 1.000000
vt 0.000000 1.000000
vt 1.000000 0.966146
vt 0.000000 0.966146
vt 0.000000 0.966146
vt 1.000000 0.966146
s 1
usemtl wall_hr_2
f 4/6/1 3/5/1 1/1/1 2/3/1
f 8/12/2 7/11/2 3/5/2 4/6/2
f 10/15/3 9/13/3 7/11/3 8/12/3
f 6/9/4 5/7/4 9/14/4 10/16/4
f 14/22/5 13/21/5 11/17/5 12/19/5
f 18/28/6 17/27/6 13/21/6 14/22/6
f 20/31/7 19/29/7 17/27/7 18/28/7
f 16/25/8 15/23/8 19/30/8 20/32/8
f 21/33/9 12/20/9 11/18/9 22/35/9
f 1/2/9 21/34/9 22/36/9 2/4/9
f 23/37/9 24/38/9 15/24/9 16/26/9
f 25/39/10 26/41/10 24/38/10 23/37/10
f 5/8/10 6/10/10 26/42/10 25/40/10
