# Blender 3.4.0
# www.blender.org
mtllib doorway_rtx_1_wide.mtl
o doorway_rtx_1_wide
v 2.000000 -0.000000 0.200000
v 2.000000 3.000000 0.200001
v -2.000000 -0.000000 0.200001
v 0.800000 2.500000 0.200000
v -0.800000 2.500000 0.200000
v -0.800000 0.000000 0.200000
v 0.800000 0.000000 0.200000
v -0.800000 0.000000 -0.200000
v -2.000000 -0.000000 -0.200000
v -2.000000 3.000000 -0.200000
v 2.000000 -0.000000 -0.200001
v 0.800000 2.500000 -0.200000
v 0.800000 0.000000 -0.200000
v -0.800000 2.500000 -0.200000
v -2.000000 3.000000 0.200001
v 2.000000 3.000000 -0.200001
vn 1.0000 -0.0000 -0.0000
vn -0.0000 -0.0000 1.0000
vn -1.0000 -0.0000 -0.0000
vn -0.0000 -0.0000 -1.0000
vn -0.0000 -1.0000 -0.0000
vn -0.0000 1.0000 -0.0000
vt 0.992611 0.000000
vt 1.500000 0.450000
vt 0.992611 1.000000
vt 0.007389 0.000000
vt 0.692743 0.833333
vt 0.307363 0.833328
vt 0.307257 0.833333
vt 0.307363 0.000000
vt 0.307257 0.000000
vt 0.692743 0.000000
vt 0.427363 0.000000
vt 0.692743 0.000000
vt 0.992611 0.000000
vt 0.500000 0.550000
vt 0.992611 1.000000
vt 0.007389 0.000000
vt 0.572766 0.833328
vt 0.691265 0.700000
vt 0.307257 0.833333
vt 0.572765 0.000000
vt 0.307257 0.000000
vt 0.427363 0.833327
vt 0.308736 0.700000
vt 0.692743 0.833333
vt 0.500000 0.450000
vt 0.007389 1.000000
vt 1.500000 0.550000
vt 0.007389 1.000000
s 1
usemtl wall_rg_2
f 5/6/1 6/8/1 8/11/1 14/22/1
f 5/7/2 15/26/2 3/4/2 6/9/2
f 7/10/3 4/5/3 12/17/3 13/20/3
f 12/19/4 16/28/4 11/16/4 13/21/4
f 4/5/5 5/7/5 14/23/5 12/18/5
f 4/5/2 2/3/2 15/26/2 5/7/2
f 7/10/2 1/1/2 2/3/2 4/5/2
f 14/24/4 10/15/4 16/28/4 12/19/4
f 8/12/4 9/13/4 10/15/4 14/24/4
usemtl concrete_hr_3
f 2/2/6 16/27/6 10/14/6 15/25/6
o door_rtx_1_piece_2
v 0.800001 0.000000 0.000000
v 0.800001 2.500000 0.000001
v -0.199999 2.500000 0.000001
v -0.199999 0.000000 0.000000
v 0.800001 -0.000000 0.050000
v 0.800001 2.500000 0.050001
v -0.199999 2.500000 0.050001
v -0.199999 -0.000000 0.050000
vn -0.0000 -0.0000 -1.0000
vn -0.0000 -0.0000 1.0000
vn -0.0000 1.0000 -0.0000
vn 1.0000 -0.0000 -0.0000
vn -0.0000 -1.0000 -0.0000
vn -1.0000 -0.0000 -0.0000
vt 1.000000 0.000000
vt 0.031579 0.000000
vt 1.000000 1.000000
vt 1.000000 1.000000
vt 0.031579 1.000000
vt 0.368421 1.000000
vt 0.031579 1.000000
vt 0.368421 0.000000
vt 0.368421 1.000000
vt 0.031579 0.000000
vt 1.000000 0.000000
vt 0.000000 0.000000
vt 1.000000 0.980263
vt 1.000000 1.000000
vt 1.000000 0.980263
vt 0.000000 1.000000
vt 0.368421 1.000000
vt 0.368421 0.980263
vt 0.000000 1.000000
vt 0.368421 0.000000
vt 0.368421 0.980263
vt 0.000000 0.000000
s 0
usemtl door_hm_1_1
f 20/36/7 19/34/7 18/32/7 17/29/7
f 24/48/8 21/39/8 22/42/8 23/45/8
f 18/32/9 19/34/9 23/46/9 22/43/9
f 17/30/10 18/33/10 22/44/10 21/40/10
f 20/37/11 17/31/11 21/41/11 24/49/11
f 19/35/12 20/38/12 24/50/12 23/47/12
o door_rtx_1_piece_1
v -0.799999 0.000000 0.000000
v -0.799999 2.500000 0.000001
v -0.199999 2.500000 0.000001
v -0.199999 0.000000 0.000000
v -0.199999 2.500000 0.050001
v -0.799999 2.500000 0.050001
v -0.799999 -0.000000 0.050000
v -0.199999 -0.000000 0.050000
vn -0.0000 -0.0000 -1.0000
vn -0.0000 -0.0000 1.0000
vn -1.0000 -0.0000 -0.0000
vn -0.0000 -1.0000 -0.0000
vn -0.0000 1.0000 -0.0000
vn 1.0000 -0.0000 -0.0000
vt 0.000000 0.000000
vt 0.031579 0.000000
vt 0.000000 1.000000
vt 0.031579 1.000000
vt 0.000000 1.000000
vt 0.368421 1.000000
vt 0.031579 1.000000
vt 0.368421 0.000000
vt 0.368421 1.000000
vt 0.031579 0.000000
vt 0.368421 1.000000
vt 0.368421 0.980263
vt 0.000000 1.000000
vt 0.000000 1.000000
vt 0.000000 0.980263
vt 0.000000 0.000000
vt 0.000000 0.980263
vt 0.368421 0.000000
vt 0.368421 0.980263
vt 0.000000 0.000000
s 0
usemtl door_hm_1_1
f 25/51/13 26/55/13 27/56/13 28/58/13
f 31/66/14 32/68/14 29/61/14 30/64/14
f 26/54/15 25/52/15 31/66/15 30/64/15
f 25/53/16 28/59/16 32/69/16 31/67/16
f 27/56/17 26/55/17 30/65/17 29/62/17
f 27/57/18 29/63/18 32/70/18 28/60/18
