# Blender 3.4.0
# www.blender.org
mtllib doorway_hs_1_wide.mtl
o doorway_hs_1_wide
v 2.000000 -0.000000 0.200000
v -2.000000 -0.000000 0.200001
v -2.000000 3.000000 0.200001
v 0.782537 2.500000 0.200001
v -0.782537 2.500000 0.200001
v -0.782537 0.000000 0.200000
v 0.782537 0.000000 0.200000
v -0.782537 0.000000 -0.200000
v -0.782537 2.500000 -0.200000
v 0.782537 2.500000 -0.200000
v -2.000000 -0.000000 -0.200000
v -2.000000 3.000000 -0.200001
v 2.000000 -0.000000 -0.200000
v 0.782537 0.000000 -0.200000
v 2.000000 3.000000 0.200001
v 2.000000 3.000000 -0.200001
vn 1.0000 -0.0000 -0.0000
vn -0.0000 -0.0000 1.0000
vn -1.0000 -0.0000 -0.0000
vn -0.0000 -1.0000 -0.0000
vn -0.0000 -0.0000 -1.0000
vn -0.0000 1.0000 -0.0000
vt 0.992611 0.000000
vt 0.007389 0.000000
vt 0.500000 0.450000
vt 0.007389 1.000000
vt 0.692778 0.753947
vt 0.692743 0.833333
vt 0.307363 0.833328
vt 0.307255 0.753947
vt 0.307257 0.833333
vt 0.307363 0.000000
vt 0.307257 0.000000
vt 0.692743 0.000000
vt 0.427363 0.000000
vt 0.307257 0.000000
vt 0.427363 0.833327
vt 0.307255 0.912719
vt 0.307257 0.833333
vt 0.572766 0.833328
vt 0.692778 0.912720
vt 0.692743 0.833333
vt 0.007389 0.000000
vt 0.500000 0.550000
vt 0.007389 1.000000
vt 0.992611 0.000000
vt 0.572766 0.000000
vt 0.692743 0.000000
vt 1.500000 0.450000
vt 0.992611 1.000000
vt 1.500000 0.550000
vt 0.992611 1.000000
s 1
usemtl wall_hs_1
f 5/7/1 6/10/1 8/13/1 9/15/1
f 5/9/2 3/4/2 2/2/2 6/11/2
f 7/12/3 4/6/3 10/18/3 14/25/3
f 5/8/4 9/16/4 10/19/4 4/5/4
f 10/20/5 16/30/5 13/24/5 14/26/5
f 7/12/2 1/1/2 15/28/2 4/6/2
f 4/6/2 15/28/2 3/4/2 5/9/2
f 8/14/5 11/21/5 12/23/5 9/17/5
f 9/17/5 12/23/5 16/30/5 10/20/5
usemtl concrete_hr_3
f 15/27/6 16/29/6 12/22/6 3/3/6
