# Blender 3.4.0
# www.blender.org
mtllib floor_ceiling_hr_4.mtl
o floor_ceiling_hr_4
v -1.920000 0.320003 2.000000
v 1.920000 0.320003 2.000000
v -1.920000 0.320003 -2.000000
v 1.920000 0.320003 -2.000000
v -1.450000 0.300003 -1.450000
v 1.450000 0.300003 -1.450000
v -1.450000 0.300003 1.450000
v 1.450000 0.300003 1.450000
v -1.920000 0.080003 -2.000000
v 1.920000 0.080003 -2.000000
v 1.920000 0.080003 2.000000
v -1.920000 0.080003 2.000000
v -1.850000 0.000003 -1.850000
v 1.850000 0.000003 -1.850000
v 1.850000 0.000003 1.850000
v -1.850000 0.000003 1.850000
v -2.000000 0.320003 1.920000
v 2.000000 0.320003 1.920000
v 2.000000 0.320003 -1.920000
v -2.000000 0.320003 -1.920000
v -2.000000 0.080003 -1.920000
v 2.000000 0.080003 -1.920000
v 2.000000 0.080003 1.920000
v -2.000000 0.080003 1.920000
v 2.000000 0.400003 2.000000
v 2.000000 0.400003 -2.000000
v -2.000000 0.400003 -2.000000
v -2.000000 0.400003 2.000000
v 2.000000 0.000003 -2.000000
v 2.000000 0.000003 2.000000
v -2.000000 0.000003 2.000000
v -2.000000 0.000003 -2.000000
v 2.000000 0.320003 1.920000
v 1.950000 0.270003 1.870000
v 1.950000 0.270003 -1.870000
v 2.000000 0.320003 -1.920000
v 2.000000 0.080003 -1.920000
v 1.950000 0.130003 -1.870000
v 1.950000 0.130003 1.870000
v 2.000000 0.080003 1.920000
v 1.920000 0.320003 -2.000000
v 1.870000 0.270003 -1.950000
v -1.870000 0.270003 -1.950000
v -1.920000 0.320003 -2.000000
v -1.920000 0.080003 -2.000000
v -1.870000 0.130003 -1.950000
v 1.870000 0.130003 -1.950000
v 1.920000 0.080003 -2.000000
v -1.920000 0.320003 2.000000
v -1.870000 0.270003 1.950000
v 1.870000 0.270003 1.950000
v 1.920000 0.320003 2.000000
v 1.920000 0.080003 2.000000
v 1.870000 0.130003 1.950000
v -1.870000 0.130003 1.950000
v -1.920000 0.080003 2.000000
v -2.000000 0.320003 -1.920000
v -1.950000 0.270003 -1.870000
v -1.950000 0.270003 1.870000
v -2.000000 0.320003 1.920000
v -2.000000 0.080003 1.920000
v -1.950000 0.130003 1.870000
v -1.950000 0.130003 -1.870000
v -2.000000 0.080003 -1.920000
v 0.150001 0.300002 -1.900000
v 0.150001 0.300002 1.900000
v 0.150001 0.269002 -1.900000
v 0.150001 0.269002 1.900000
v 0.100001 0.042002 -1.900000
v 0.100001 0.042002 1.900000
v 0.135001 0.245502 -1.900000
v 0.135001 0.245502 1.900000
v 0.120001 0.057752 -1.900000
v 0.120001 0.057752 1.900000
v -0.150000 0.300002 1.900000
v -0.150001 0.300002 -1.900000
v -0.150000 0.269002 1.900000
v -0.150001 0.269002 -1.900000
v -0.100000 0.042002 1.900000
v -0.100001 0.042002 -1.900000
v -0.135000 0.245502 1.900000
v -0.135001 0.245502 -1.900000
v -0.120000 0.057752 1.900000
v -0.120001 0.057752 -1.900000
v -0.000000 0.300002 -1.900000
v 0.000000 0.300002 1.900000
v -0.100001 0.042002 -1.900000
v -0.100000 0.042002 1.900000
v -0.000000 0.042002 -1.900000
v 0.000000 0.042002 1.900000
v 1.900000 0.300002 0.150001
v -1.900000 0.300002 0.150001
v 1.900000 0.269002 0.150001
v -1.900000 0.269002 0.150001
v 1.900000 0.042002 0.100001
v -1.900000 0.042002 0.100001
v 1.900000 0.245502 0.135001
v -1.900000 0.245502 0.135001
v 1.900000 0.057752 0.120001
v -1.900000 0.057752 0.120001
v -1.900000 0.300002 -0.150000
v 1.900000 0.300002 -0.150001
v -1.900000 0.269002 -0.150000
v 1.900000 0.269002 -0.150001
v -1.900000 0.042002 -0.100000
v 1.900000 0.042002 -0.100001
v -1.900000 0.245502 -0.135000
v 1.900000 0.245502 -0.135001
v -1.900000 0.057752 -0.120000
v 1.900000 0.057752 -0.120001
v 1.900000 0.300002 -0.000000
v -1.900000 0.300002 0.000001
v 1.900000 0.042002 -0.000000
v -1.900000 0.042002 0.000001
v -0.150001 0.269002 0.150001
v 0.150001 0.269002 0.150001
v -0.150001 0.300002 0.150001
v 0.150001 0.300002 0.150001
v 0.135001 0.245502 0.135001
v -0.127024 0.145665 0.127025
v -0.120001 0.057752 0.120001
v 0.120001 0.057752 0.120001
v 0.127024 0.145665 0.127025
v -0.135001 0.245502 0.135001
v -0.100001 0.042002 0.100001
v 0.100001 0.042002 0.100001
v 0.150001 0.269002 -0.150001
v -0.150001 0.269002 -0.150000
v -0.150001 0.300002 -0.150001
v 0.150001 0.300002 -0.150001
v -0.135001 0.245502 -0.135000
v -0.127024 0.145665 -0.127024
v 0.127024 0.145665 -0.127024
v 0.120001 0.057752 -0.120001
v -0.120001 0.057752 -0.120000
v 0.135001 0.245502 -0.135001
v 0.100001 0.042002 -0.100001
v -0.100001 0.042002 0.000000
v 0.100001 0.042002 0.000000
v 0.150001 0.300002 0.000000
v -0.150001 0.300002 0.000000
v -0.100001 0.042002 -0.100000
vn -0.0000 1.0000 -0.0000
vn -0.0000 -1.0000 -0.0000
vn -0.0000 -0.0000 -0.0000
vn -0.0000 -0.8000 0.6000
vn -0.6000 -0.8000 -0.0000
vn -0.0000 -0.8000 -0.6000
vn 0.6000 -0.8000 -0.0000
vn -0.0000 -0.0000 1.0000
vn -0.0000 -0.0000 -1.0000
vn 1.0000 -0.0000 -0.0000
vn -1.0000 -0.0000 -0.0000
vn 0.7071 -0.7071 -0.0000
vn 0.7071 0.7071 -0.0000
vn 0.7071 -0.0000 0.7071
vn 0.7071 -0.0000 -0.7071
vn -0.0000 -0.7071 -0.7071
vn -0.0000 0.7071 -0.7071
vn -0.7071 -0.0000 -0.7071
vn -0.0000 -0.7071 0.7071
vn -0.0000 0.7071 0.7071
vn -0.7071 -0.0000 0.7071
vn -0.7071 -0.7071 -0.0000
vn -0.7071 0.7071 -0.0000
vn 0.8429 -0.5380 -0.0000
vn 0.9968 -0.0796 -0.0000
vn 0.6187 -0.7856 -0.0000
vn -0.8429 -0.5380 -0.0000
vn -0.9968 -0.0796 -0.0000
vn -0.6187 -0.7856 -0.0000
vn -0.0000 -0.5380 0.8429
vn -0.0000 -0.0796 0.9968
vn -0.0000 -0.7856 0.6187
vn -0.0000 -0.7856 -0.6187
vn -0.0000 -0.5380 -0.8429
vn -0.0000 -0.0796 -0.9968
vt 0.020000 0.542500
vt 0.980000 0.542500
vt 0.020000 0.542500
vt 0.980000 0.542500
vt 0.137500 0.137500
vt 0.137500 0.153970
vt 0.153971 0.137500
vt 0.862500 0.137500
vt 0.862500 0.153970
vt 0.846029 0.137500
vt 0.137500 0.862500
vt 0.137500 0.846029
vt 0.153971 0.862500
vt 0.862500 0.862500
vt 0.846030 0.862500
vt 0.862500 0.846029
vt 0.020000 0.482500
vt 0.980000 0.482500
vt 0.980000 0.482500
vt 0.020000 0.482500
vt 0.037500 0.037500
vt 0.962500 0.037500
vt 0.962500 0.962500
vt 0.037500 0.962500
vt 0.542500 0.980000
vt 0.542500 0.980000
vt 0.542500 0.020000
vt 0.542500 0.020000
vt 0.482500 0.020000
vt 0.482500 0.020000
vt 0.482500 0.980000
vt 0.482500 0.980000
vt 1.000000 1.000000
vt 1.000000 0.562500
vt 0.562500 1.000000
vt 1.000000 0.000000
vt 1.000000 0.562500
vt 0.562500 0.000000
vt 0.000000 0.000000
vt 0.000000 0.562500
vt 0.562500 0.000000
vt 0.000000 1.000000
vt 0.000000 0.562500
vt 0.562500 1.000000
vt 1.000000 0.000000
vt 1.000000 0.462500
vt 0.462500 0.000000
vt 1.000000 1.000000
vt 1.000000 0.462500
vt 0.462500 1.000000
vt 0.000000 1.000000
vt 0.000000 0.462500
vt 0.462500 1.000000
vt 0.000000 0.000000
vt 0.000000 0.462500
vt 0.462500 0.000000
vt 0.542500 0.980000
vt 0.033203 0.989583
vt 0.530000 0.967500
vt 0.966797 0.989583
vt 0.530000 0.032500
vt 0.542500 0.020000
vt 0.482500 0.020000
vt 0.966797 0.942708
vt 0.495000 0.032500
vt 0.033203 0.942708
vt 0.495000 0.967500
vt 0.482500 0.980000
vt 0.980000 0.542500
vt 0.966797 0.989583
vt 0.967500 0.530000
vt 0.033203 0.989583
vt 0.032500 0.530000
vt 0.020000 0.542500
vt 0.020000 0.482500
vt 0.033203 0.942708
vt 0.032500 0.495000
vt 0.966797 0.942708
vt 0.967500 0.495000
vt 0.980000 0.482500
vt 0.020000 0.542500
vt 0.033203 0.989583
vt 0.032500 0.530000
vt 0.966797 0.989583
vt 0.967500 0.530000
vt 0.980000 0.542500
vt 0.980000 0.482500
vt 0.966797 0.942708
vt 0.967500 0.495000
vt 0.033203 0.942708
vt 0.032500 0.495000
vt 0.020000 0.482500
vt 0.542500 0.020000
vt 0.966797 0.989583
vt 0.530000 0.032500
vt 0.033203 0.989583
vt 0.530000 0.967500
vt 0.542500 0.980000
vt 0.482500 0.980000
vt 0.033203 0.942708
vt 0.495000 0.967500
vt 0.966797 0.942708
vt 0.495000 0.032500
vt 0.482500 0.020000
vt 0.975000 1.000000
vt 0.025000 1.000000
vt 0.025000 1.000000
vt 0.975000 1.000000
vt 0.975000 0.989667
vt 0.025000 0.989667
vt 0.975000 0.914000
vt 0.025000 1.000000
vt 0.025000 0.914000
vt 0.975000 1.000000
vt 0.975000 0.981833
vt 0.025000 0.981834
vt 0.975000 0.919250
vt 0.975000 0.924479
vt 0.025000 0.919250
vt 0.025000 0.924479
vt 0.975000 1.000000
vt 0.025000 1.000000
vt 0.025000 1.000000
vt 0.975000 1.000000
vt 0.975000 0.989667
vt 0.025000 0.989667
vt 0.975000 0.914000
vt 0.025000 1.000000
vt 0.025000 0.914000
vt 0.975000 1.000000
vt 0.975000 0.981833
vt 0.025000 0.981834
vt 0.975000 0.919250
vt 0.975000 0.924479
vt 0.025000 0.919250
vt 0.025000 0.924479
vt 0.975000 0.953125
vt 0.025000 0.953125
vt 0.025000 0.953125
vt 0.975000 0.953125
vt 0.975000 1.000000
vt 0.025000 1.000000
vt 0.975000 0.966146
vt 0.025000 0.966146
vt 0.025000 0.966146
vt 0.975000 0.966146
vt 0.975000 1.000000
vt 0.025000 1.000000
vt 0.025000 1.000000
vt 0.975000 1.000000
vt 0.975000 0.989667
vt 0.025000 0.989667
vt 0.975000 0.914000
vt 0.025000 1.000000
vt 0.025000 0.914000
vt 0.975000 1.000000
vt 0.975000 0.981833
vt 0.025000 0.981834
vt 0.975000 0.919250
vt 0.975000 0.924479
vt 0.025000 0.919250
vt 0.025000 0.924479
vt 0.975000 1.000000
vt 0.025000 1.000000
vt 0.025000 1.000000
vt 0.975000 1.000000
vt 0.975000 0.989667
vt 0.025000 0.989667
vt 0.025000 1.000000
vt 0.975000 0.914000
vt 0.025000 0.914000
vt 0.975000 1.000000
vt 0.975000 0.981833
vt 0.025000 0.981834
vt 0.975000 0.919250
vt 0.975000 0.924479
vt 0.025000 0.924479
vt 0.025000 0.919250
vt 0.975000 0.953125
vt 0.025000 0.953125
vt 0.025000 0.953125
vt 0.975000 0.953125
vt 0.975000 0.966146
vt 0.025000 0.966146
vt 0.025000 0.966146
vt 0.975000 0.966146
vt 0.462500 0.989667
vt 0.537500 0.989667
vt 0.462500 1.000000
vt 0.537500 1.000000
vt 0.537500 1.000000
vt 0.462500 1.000000
vt 0.533750 0.981833
vt 0.468244 0.948554
vt 0.470000 0.919250
vt 0.470000 0.924479
vt 0.530000 0.919250
vt 0.530000 0.924479
vt 0.531756 0.948554
vt 0.466250 0.981833
vt 0.475000 0.914000
vt 0.525000 1.000000
vt 0.525000 0.914000
vt 0.475000 1.000000
vt 0.462500 0.989667
vt 0.537500 0.989667
vt 0.537500 1.000000
vt 0.462500 1.000000
vt 0.462500 1.000000
vt 0.537500 1.000000
vt 0.533750 0.981833
vt 0.531756 0.948554
vt 0.468244 0.948554
vt 0.470000 0.924479
vt 0.470000 0.919250
vt 0.530000 0.919250
vt 0.530000 0.924479
vt 0.466250 0.981833
vt 0.475000 0.914000
vt 0.525000 1.000000
vt 0.475000 0.966146
vt 0.525000 0.966146
vt 0.525000 0.966146
vt 0.475000 0.966146
vt 0.537500 0.953125
vt 0.462500 0.953125
vt 0.462500 0.953125
vt 0.537500 0.953125
vt 0.475000 1.000000
vt 0.525000 0.914000
s 1
usemtl concrete_hr_1
f 5/5/2 6/8/2 8/14/2 7/11/2
f 23/31/3 22/30/3 37/63/3 40/68/3
f 9/17/3 3/3/3 44/74/3 45/75/3
f 24/32/3 17/25/3 60/98/3 61/99/3
f 12/20/3 11/19/3 53/87/3 56/92/3
f 14/22/2 13/21/2 32/54/2 29/45/2
f 15/23/2 14/22/2 29/45/2 30/48/2
f 16/24/2 15/23/2 30/48/2 31/51/2
f 13/21/2 16/24/2 31/51/2 32/54/2
f 6/9/4 5/6/4 13/21/4 14/22/4
f 8/15/5 6/10/5 14/22/5 15/23/5
f 7/12/6 8/16/6 15/23/6 16/24/6
f 5/7/7 7/13/7 16/24/7 13/21/7
f 1/1/8 2/2/8 25/34/8 28/43/8
f 4/4/9 3/3/9 27/40/9 26/37/9
f 9/17/9 10/18/9 29/46/9 32/55/9
f 11/19/8 12/20/8 31/52/8 30/49/8
f 3/3/9 9/17/9 32/55/9 27/40/9
f 12/20/8 1/1/8 28/43/8 31/52/8
f 10/18/9 4/4/9 26/37/9 29/46/9
f 2/2/8 11/19/8 30/49/8 25/34/8
f 18/26/10 19/27/10 26/38/10 25/35/10
f 20/28/11 17/25/11 28/44/11 27/41/11
f 22/30/10 23/31/10 30/50/10 29/47/10
f 24/32/11 21/29/11 32/56/11 31/53/11
f 21/29/11 20/28/11 27/41/11 32/56/11
f 17/25/11 24/32/11 31/53/11 28/44/11
f 19/27/10 22/30/10 29/47/10 26/38/10
f 23/31/10 18/26/10 25/35/10 30/50/10
f 18/26/3 23/31/3 40/68/3 33/57/3
f 22/30/3 19/27/3 36/62/3 37/63/3
f 4/4/3 10/18/3 48/80/3 41/69/3
f 3/3/3 4/4/3 41/69/3 44/74/3
f 10/18/3 9/17/3 45/75/3 48/80/3
f 2/2/3 1/1/3 49/81/3 52/86/3
f 1/1/3 12/20/3 56/92/3 49/81/3
f 11/19/3 2/2/3 52/86/3 53/87/3
f 17/25/3 20/28/3 57/93/3 60/98/3
f 20/28/3 21/29/3 64/104/3 57/93/3
f 21/29/3 24/32/3 61/99/3 64/104/3
f 34/59/12 35/61/12 36/62/12 33/57/12
f 38/65/13 39/67/13 40/68/13 37/63/13
f 35/61/14 38/65/14 37/63/14 36/62/14
f 33/57/15 40/68/15 39/67/15 34/59/15
f 42/71/16 43/73/16 44/74/16 41/69/16
f 46/77/17 47/79/17 48/80/17 45/75/17
f 43/73/15 46/77/15 45/75/15 44/74/15
f 41/69/18 48/80/18 47/79/18 42/71/18
f 50/83/19 51/85/19 52/86/19 49/81/19
f 54/89/20 55/91/20 56/92/20 53/87/20
f 55/91/14 50/83/14 49/81/14 56/92/14
f 51/85/21 54/89/21 53/87/21 52/86/21
f 58/95/22 59/97/22 60/98/22 57/93/22
f 62/101/23 63/103/23 64/104/23 61/99/23
f 57/93/21 64/104/21 63/103/21 58/95/21
f 61/99/18 60/98/18 59/97/18 62/101/18
f 19/27/3 18/26/3 33/57/3 36/62/3
usemtl wall_hr_2
f 42/70/9 47/78/9 46/76/9 43/72/9
f 34/58/10 39/66/10 38/64/10 35/60/10
f 50/82/8 55/90/8 54/88/8 51/84/8
f 58/94/11 63/102/11 62/100/11 59/96/11
f 68/110/10 67/109/10 65/105/10 66/107/10
f 72/116/24 71/115/24 67/109/24 68/110/24
f 74/119/25 73/117/25 71/115/25 72/116/25
f 70/113/26 69/111/26 73/118/26 74/120/26
f 78/126/11 77/125/11 75/121/11 76/123/11
f 82/132/27 81/131/27 77/125/27 78/126/27
f 84/135/28 83/133/28 81/131/28 82/132/28
f 80/129/29 79/127/29 83/134/29 84/136/29
f 85/137/1 76/124/1 75/122/1 86/139/1
f 65/106/1 85/138/1 86/140/1 66/108/1
f 87/141/1 88/142/1 79/128/1 80/130/1
f 89/143/2 90/145/2 88/142/2 87/141/2
f 69/112/2 70/114/2 90/146/2 89/144/2
f 93/151/8 91/147/8 118/191/8 116/188/8
f 117/189/8 92/149/8 94/152/8 115/187/8
f 97/157/30 93/151/30 116/188/30 119/193/30
f 94/152/30 98/158/30 124/200/30 115/187/30
f 99/159/31 97/157/31 119/193/31 123/199/31 122/197/31
f 124/200/31 98/158/31 100/161/31 121/195/31 120/194/31
f 126/203/32 95/153/32 99/160/32 122/198/32
f 134/214/33 110/177/33 106/171/33 137/219/33
f 128/206/9 103/167/9 101/163/9 129/207/9
f 102/165/9 104/168/9 127/205/9 130/209/9
f 131/211/34 107/173/34 103/167/34 128/206/34
f 108/174/34 136/218/34 127/205/34 104/168/34
f 135/216/35 109/175/35 107/173/35 131/211/35 132/212/35
f 136/218/35 108/174/35 110/178/35 134/215/35 133/213/35
f 96/155/32 125/201/32 121/196/32 100/162/32
f 129/208/1 101/164/1 112/181/1 141/227/1
f 140/225/1 111/179/1 102/166/1 130/210/1
f 141/228/1 112/182/1 92/150/1 117/190/1
f 118/192/1 91/148/1 111/180/1 140/226/1
f 138/221/2 114/185/2 105/169/2 142/229/2
f 137/220/2 106/172/2 113/183/2 139/223/2
f 125/202/2 96/156/2 114/186/2 138/222/2
f 113/184/2 95/154/2 126/204/2 139/224/2
f 142/230/33 105/170/33 109/176/33 135/217/33
usemtl tiles_floor_hr_2
f 28/42/1 25/33/1 26/36/1 27/39/1
