# Blender 3.4.0
# www.blender.org
mtllib floor_ceiling_hr_1.mtl
o floor_ceiling_hr_1
v -2.000000 0.400001 2.000000
v 2.000000 0.400001 2.000000
v -2.000000 0.400002 -2.000000
v 2.000000 0.400002 -2.000000
v -2.000000 0.000002 -2.000000
v 2.000000 0.000002 -2.000000
v -2.000000 0.000002 2.000000
v 2.000000 0.000002 2.000000
vn -0.0000 1.0000 -0.0000
vn -0.0000 -1.0000 -0.0000
vn 1.0000 -0.0000 -0.0000
vn -0.0000 -0.0000 -1.0000
vn -1.0000 -0.0000 -0.0000
vn -0.0000 -0.0000 1.0000
vt 0.000000 1.000000
vt 0.562500 1.000000
vt 0.000000 0.562500
vt 1.000000 1.000000
vt 0.562500 1.000000
vt 1.000000 0.562500
vt 0.000000 0.000000
vt 0.000000 0.562500
vt 0.562500 0.000000
vt 1.000000 0.000000
vt 0.562500 0.000000
vt 1.000000 0.562500
vt 0.000000 0.000000
vt 0.000000 0.462500
vt 0.462500 0.000000
vt 1.000000 0.000000
vt 0.462500 0.000000
vt 1.000000 0.462500
vt 0.000000 1.000000
vt 0.462500 1.000000
vt 0.000000 0.462500
vt 1.000000 1.000000
vt 0.462500 1.000000
vt 1.000000 0.462500
s 1
usemtl concrete_hr_3
f 1/1/1 2/4/1 4/10/1 3/7/1
f 2/5/3 8/23/3 6/17/3 4/11/3
f 4/12/4 6/18/4 5/14/4 3/8/4
f 3/9/5 5/15/5 7/20/5 1/2/5
f 1/3/6 7/21/6 8/24/6 2/6/6
usemtl 
f 5/13/2 6/16/2 8/22/2 7/19/2
