# Blender 3.4.0
# www.blender.org
mtllib floor_ceiling_hr_5_m1a_1.mtl
o floor_ceiling_hr_5_m1a_1
v -2.000000 -0.000000 2.000000
v -2.000000 0.000000 -2.000000
v 2.000000 0.000000 -2.000000
v -2.000000 -0.400000 -2.000000
v 2.000000 -0.400000 -2.000000
v -2.000000 -0.400000 2.000000
v -0.850000 -0.000000 2.000000
v 2.000000 0.000000 -0.850000
v 2.000000 -0.400000 -0.850000
v -0.850000 -0.400000 2.000000
vn 1.0000 -0.0000 -0.0000
vn -0.0000 -1.0000 -0.0000
vn -0.0000 -0.0000 -1.0000
vn -1.0000 -0.0000 -0.0000
vn -0.0000 1.0000 -0.0000
vn 0.7071 -0.0000 0.7071
vn -0.0000 -0.0000 1.0000
vt 0.000000 2.000000
vt 0.550000 2.000000
vt 0.550000 2.000000
vt 0.550000 0.000000
vt 0.000000 0.000000
vt 0.550000 0.000000
vt 1.000000 0.000000
vt 0.000000 0.000000
vt 0.450000 2.000000
vt 0.450000 0.000000
vt 1.000000 0.000000
vt 0.450000 0.000000
vt 0.000000 2.000000
vt 0.450000 2.000000
vt 0.287500 2.000000
vt 0.550000 1.444301
vt 0.550000 0.575000
vt 1.000000 0.575000
vt 0.550000 -0.188311
vt 0.450000 0.575000
vt 1.000000 0.575000
vt 0.450000 -0.188311
vt 0.287500 2.000000
vt 0.450000 1.444301
s 1
usemtl concrete_hr_1
f 8/17/1 9/20/1 5/12/1 3/6/1
f 3/6/3 5/12/3 4/9/3 2/3/3
f 2/4/4 4/10/4 6/14/4 1/2/4
f 1/1/5 7/15/5 8/18/5 3/7/5 2/5/5
f 7/16/6 10/24/6 9/22/6 8/19/6
f 1/2/7 6/14/7 10/24/7 7/16/7
usemtl 
f 4/8/2 5/11/2 9/21/2 10/23/2 6/13/2
