# Blender 3.4.0
# www.blender.org
mtllib floor_ceiling_hr_6.mtl
o floor_ceiling_hr_6
v -1.800000 0.400001 1.800000
v 1.800000 0.400001 1.800000
v -1.800000 0.400002 -1.800000
v 1.800000 0.400002 -1.800000
v -2.000000 0.000002 -2.000000
v 2.000000 0.000002 -2.000000
v -2.000000 0.000002 2.000000
v 2.000000 0.000002 2.000000
v -2.000000 0.400001 2.000000
v 2.000000 0.400001 2.000000
v 2.000000 0.400002 -2.000000
v -2.000000 0.400002 -2.000000
v -1.800000 0.250001 1.800000
v 1.800000 0.250001 1.800000
v 1.800000 0.250002 -1.800000
v -1.800000 0.250002 -1.800000
vn 1.0000 -0.0000 -0.0000
vn -0.0000 -1.0000 -0.0000
vn -0.0000 -0.0000 -1.0000
vn -1.0000 -0.0000 -0.0000
vn -0.0000 -0.0000 1.0000
vn -0.0000 1.0000 -0.0000
vt 0.050000 -0.100000
vt 0.050000 0.000000
vt 0.950000 -0.100000
vt 0.050000 0.000000
vt 0.950000 0.000000
vt 0.950000 0.000000
vt 0.050000 1.100000
vt 0.050000 0.000000
vt 0.950000 1.100000
vt 0.950000 0.000000
vt -0.000000 1.166667
vt 0.000000 0.000000
vt 1.000000 0.000000
vt 1.000000 1.166667
vt 1.000000 0.000000
vt -0.000000 -0.166667
vt 0.000000 0.000000
vt 1.000000 -0.166667
vt 0.000000 0.000000
vt 1.000000 0.000000
vt 0.000000 0.135417
vt -0.000000 -0.166667
vt 0.000000 0.135417
vt 1.000000 0.135417
vt 1.000000 -0.166667
vt 1.000000 0.135417
vt 1.000000 1.166667
vt 0.000000 0.135417
vt 1.000000 0.135417
vt -0.000000 1.166667
vt 0.050000 -0.100000
vt 0.050000 0.050000
vt 0.950000 -0.100000
vt 0.050000 0.050000
vt 0.950000 0.050000
vt 0.950000 1.100000
vt 0.950000 0.050000
vt 0.950000 0.050000
vt 0.050000 1.100000
vt 0.050000 0.050000
s 1
usemtl wall_rg_1
f 3/6/1 1/2/1 13/32/1 16/38/1
f 10/23/1 8/19/1 6/15/1 11/26/1
f 11/26/3 6/15/3 5/12/3 12/28/3
f 12/29/4 5/13/4 7/17/4 9/21/4
f 9/21/5 7/17/5 8/20/5 10/24/5
f 2/3/6 1/1/6 9/22/6 10/25/6
f 4/9/6 2/3/6 10/25/6 11/27/6
f 3/7/6 4/9/6 11/27/6 12/30/6
f 1/1/6 3/7/6 12/30/6 9/22/6
f 2/4/4 4/10/4 15/37/4 14/34/4
f 4/10/5 3/8/5 16/40/5 15/37/5
f 1/2/3 2/5/3 14/35/3 13/32/3
usemtl concrete_hr_1
f 5/11/2 6/14/2 8/18/2 7/16/2
f 13/31/6 14/33/6 15/36/6 16/39/6
