# Blender 3.4.0
# www.blender.org
mtllib floor_ceiling_hr_2_hole.mtl
o floor_ceiling_hr_2_hole
v -2.000000 0.400003 2.000000
v 2.000000 0.400003 2.000000
v -2.000000 0.400003 -2.000000
v 2.000000 0.400003 -2.000000
v -2.000000 0.000003 -2.000000
v 2.000000 0.000003 -2.000000
v 2.000000 0.000003 2.000000
v -2.000000 0.000003 2.000000
v -0.009706 0.400003 -0.648012
v 0.272686 0.400003 -0.771237
v 0.580748 0.400003 -0.658281
v 0.662897 0.400003 -0.247532
v 1.073647 0.400003 0.353189
v 0.904213 0.400003 0.825550
v 0.216206 0.400003 1.036059
v -0.035378 0.400003 0.753669
v -0.461529 0.400003 0.825550
v -0.903084 0.400003 0.430204
v -0.769590 0.400003 -0.093501
v -0.769590 0.000003 -0.093501
v -0.322901 0.400003 -0.535056
v -0.578451 0.400003 -0.550088
v -0.009706 0.000003 -0.648012
v 0.272686 0.000003 -0.771237
v 0.580748 0.000003 -0.658281
v 0.662897 0.000003 -0.247532
v 1.073647 0.000003 0.353189
v 0.904213 0.000003 0.825550
v 0.216206 0.000003 1.036059
v -0.035378 0.000003 0.753669
v -0.461529 0.000003 0.825550
v -0.903084 0.000003 0.430204
v -0.578451 0.000003 -0.550088
v -0.322901 0.000003 -0.535056
v 1.027563 0.131823 0.524515
v 0.762294 0.110396 0.488113
v 1.030468 0.126091 0.495244
v 0.766692 0.104702 0.459009
v 1.026509 0.164874 0.535200
v 0.723801 0.137092 0.492101
v 1.032268 0.148638 0.477159
v 1.028852 0.185080 0.511637
v 0.724017 0.157042 0.468206
v 0.739642 0.122070 0.435631
v 0.731069 0.150026 0.443443
v 1.031379 0.177519 0.486169
v 0.878297 0.131853 0.509696
v 0.881202 0.126121 0.480425
v 0.879586 0.185110 0.496818
v 0.883002 0.148668 0.462340
v 0.877243 0.164904 0.520381
v 0.882113 0.177549 0.471350
v -0.236342 0.151049 0.800000
v -0.236342 0.151049 0.750000
v -0.215535 0.129483 0.800000
v -0.215535 0.129483 0.750000
v -0.226181 0.184282 0.800000
v -0.226181 0.184282 0.750000
v -0.187715 0.137528 0.800000
v -0.195194 0.187252 0.800000
v -0.195194 0.187252 0.750000
v -0.187715 0.137528 0.750000
v -0.178566 0.166379 0.750000
v -0.178566 0.166379 0.800000
v -0.241412 0.122296 0.654557
v -0.218865 0.110595 0.689043
v -0.231612 0.153480 0.642760
v -0.200712 0.155957 0.639919
v -0.190194 0.123471 0.703687
v -0.182267 0.145388 0.677794
v 0.663080 0.144874 -0.265902
v 0.543566 0.144874 -0.255107
v 0.660899 0.127249 -0.290040
v 0.564168 0.127249 -0.281303
v 0.662699 0.179366 -0.270122
v 0.543185 0.179366 -0.259326
v 0.658560 0.140003 -0.315935
v 0.660000 0.187672 -0.300000
v 0.540486 0.187672 -0.289204
v 0.561829 0.140003 -0.307197
v 0.538687 0.170004 -0.309123
v 0.658201 0.170004 -0.319919
v -0.790297 0.136528 -0.027491
v -0.639420 0.136528 0.025763
v -0.799608 0.125777 -0.001114
v -0.648731 0.125777 0.052141
v -0.788688 0.170942 -0.032051
v -0.637811 0.170942 0.021204
v -0.806868 0.144825 0.019455
v -0.797618 0.186729 -0.006753
v -0.646740 0.186729 0.046502
v -0.655991 0.144825 0.072710
v -0.654692 0.174840 0.069031
v -0.805569 0.174840 0.015776
v -0.606512 0.127065 0.040068
v -0.618685 0.116571 0.065361
v -0.588084 0.154800 0.041588
v -0.595665 0.170465 0.067398
v -0.623874 0.135433 0.086715
v -0.606487 0.158835 0.088840
vn -0.0000 1.0000 -0.0000
vn -0.0000 -1.0000 -0.0000
vn -0.9413 -0.0000 -0.3376
vn -0.3443 -0.0000 0.9389
vn -0.0587 -0.0000 0.9983
vn 0.3393 -0.0000 0.9407
vn -1.0000 -0.0000 -0.0000
vn 0.3999 -0.0000 0.9165
vn -0.0000 -0.0000 -1.0000
vn -0.9806 -0.0000 0.1961
vn 0.7467 -0.0000 -0.6652
vn -0.8255 -0.0000 0.5644
vn 1.0000 -0.0000 -0.0000
vn -0.0000 -0.0000 1.0000
vn 0.9224 -0.0000 0.3862
vn -0.1663 -0.0000 -0.9861
vn -0.2926 -0.0000 -0.9562
vn 0.9690 -0.0000 0.2470
vn 0.6670 -0.0000 -0.7450
vn -0.9504 -0.2344 -0.2043
vn 0.1414 -0.9680 0.2072
vn 0.1204 0.3001 -0.9463
vn -0.1180 -0.3098 0.9435
vn -0.0640 0.7607 0.6459
vn 0.2538 -0.6150 -0.7466
vn -0.1170 0.9476 -0.2973
vn 0.0282 0.9590 -0.2819
vn 0.0768 -0.6276 -0.7748
vn -0.2486 0.7460 0.6178
vn -0.0940 -0.3090 0.9464
vn 0.0943 0.2991 -0.9495
vn -0.0191 -0.9815 0.1903
vn -0.5697 -0.8194 0.0636
vn -0.7042 -0.6677 0.2412
vn -0.7196 -0.6943 -0.0000
vn 0.9532 -0.3023 -0.0000
vn -0.9563 0.2924 -0.0000
vn -0.0954 0.9954 -0.0000
vn 0.2778 -0.9606 -0.0000
vn 0.7821 0.6231 -0.0000
vn 0.5449 -0.7149 -0.4383
vn 0.7692 0.6029 -0.2118
vn -0.0967 0.9583 -0.2689
vn -0.9564 0.2899 -0.0356
vn 0.2724 -0.9238 0.2690
vn 0.9530 -0.3005 0.0392
vn -0.0594 -0.3368 -0.9397
vn 0.4777 -0.7263 -0.4942
vn -0.7714 -0.5992 -0.2144
vn 0.0529 -0.8088 0.5858
vn -0.0892 -0.1322 -0.9872
vn 0.0893 0.1219 0.9885
vn 0.0240 0.9637 0.2657
vn -0.0396 -0.8978 -0.4386
vn -0.0596 0.7494 -0.6594
vn -0.9959 -0.0000 0.0900
vn -0.3439 0.1473 0.9274
vn 0.1194 -0.9334 -0.3383
vn -0.3301 0.1289 0.9351
vn 0.3296 -0.1391 -0.9338
vn 0.1688 0.8618 -0.4783
vn -0.2189 -0.7532 0.6203
vn -0.1483 0.8953 0.4201
vn 0.9137 -0.1677 0.3702
vn 0.0778 0.8649 0.4959
vn 0.4191 0.8274 -0.3738
vn 0.3411 -0.1553 -0.9271
vn -0.4464 -0.7256 0.5236
vn -0.0897 -0.9075 -0.4104
vn 0.7521 -0.5524 0.3594
vt 0.035043 0.998289
vt 0.562500 0.998289
vt 0.035043 0.562500
vt 1.035043 0.998289
vt 0.562500 0.998289
vt 1.035043 0.562500
vt 0.035043 -0.001711
vt 0.562500 -0.001711
vt 0.035043 0.562500
vt 1.035043 -0.001711
vt 1.035043 0.562500
vt 0.562500 -0.001711
vt 0.035043 -0.001711
vt 0.462500 -0.001711
vt 0.035043 0.462500
vt 1.035043 -0.001711
vt 1.035043 0.462500
vt 0.462500 -0.001711
vt 1.035043 0.998289
vt 0.462500 0.998289
vt 1.035043 0.462500
vt 0.035043 0.998289
vt 0.462500 0.998289
vt 0.035043 0.462500
vt 0.532616 0.336286
vt 0.532616 0.562500
vt 0.603215 0.305480
vt 0.603215 0.562500
vt 0.680230 0.333719
vt 0.680230 0.562500
vt 0.562500 0.333719
vt 0.700767 0.436406
vt 0.562500 0.436406
vt 0.803455 0.586586
vt 0.562500 0.586586
vt 0.562500 0.704676
vt 0.761096 0.704676
vt 0.761096 0.562500
vt 0.589094 0.757303
vt 0.562500 0.757303
vt 0.589095 0.562500
vt 0.526199 0.686706
vt 0.562500 0.686706
vt 0.526199 0.562500
vt 0.419661 0.704676
vt 0.419661 0.562500
vt 0.309272 0.605840
vt 0.562500 0.605840
vt 0.309272 0.562500
vt 0.342645 0.474914
vt 0.562500 0.474914
vt 0.342645 0.474914
vt 0.462500 0.474914
vt 0.454318 0.364525
vt 0.454318 0.562500
vt 0.390430 0.360767
vt 0.390430 0.562500
vt 0.562500 0.360767
vt 0.532616 0.336286
vt 0.532616 0.462500
vt 0.603215 0.305480
vt 0.603215 0.462500
vt 0.680230 0.462500
vt 0.680230 0.333719
vt 0.462500 0.333719
vt 0.700767 0.436406
vt 0.462500 0.436406
vt 0.803455 0.586586
vt 0.462500 0.586586
vt 0.462500 0.704676
vt 0.761096 0.704676
vt 0.761096 0.462500
vt 0.589094 0.757303
vt 0.462500 0.757303
vt 0.589094 0.462500
vt 0.526199 0.686706
vt 0.462500 0.686706
vt 0.526199 0.462500
vt 0.419661 0.704676
vt 0.419661 0.462500
vt 0.309272 0.605840
vt 0.462500 0.605840
vt 0.309272 0.462500
vt 0.390430 0.360767
vt 0.390430 0.462500
vt 0.462500 0.360767
vt 0.454318 0.364525
vt 0.454318 0.462500
vt 0.167969 0.171429
vt 0.042969 0.171429
vt 0.050781 -2.971429
vt 0.167969 1.000000
vt 0.167969 0.000000
vt 0.042969 0.000000
vt 0.042969 1.000000
vt 0.046875 -2.828571
vt 0.167969 0.342857
vt 0.042969 0.342857
vt 0.066406 -2.971429
vt 0.167969 0.828571
vt 0.167969 0.514286
vt 0.072266 -2.828571
vt 0.042969 0.514286
vt 0.042969 0.828571
vt 0.056641 -2.685714
vt 0.068359 -2.685714
vt 0.042969 0.657143
vt 0.167969 0.657143
vt 0.103516 0.171429
vt 0.103516 1.000000
vt 0.103516 0.000000
vt 0.103516 0.514286
vt 0.103516 0.828571
vt 0.103516 0.342857
vt 0.103516 0.657143
vt 0.224609 0.171429
vt 0.208984 0.171429
vt 0.224609 0.000000
vt 0.224609 1.000000
vt 0.208984 0.000000
vt 0.208984 1.000000
vt 0.224609 0.342857
vt 0.208984 0.342857
vt 0.224609 0.828571
vt 0.224609 0.514286
vt 0.208984 0.514286
vt 0.208984 0.828571
vt 0.208984 0.685714
vt 0.224609 0.685714
vt 0.179688 0.171429
vt 0.052734 0.778571
vt 0.179688 0.000000
vt 0.179688 1.000000
vt 0.068359 0.750000
vt 0.179688 0.342857
vt 0.046875 0.635714
vt 0.179688 0.514286
vt 0.052734 0.521429
vt 0.074219 0.635714
vt 0.179688 0.828571
vt 0.179688 0.685714
vt 0.066406 0.521429
vt 0.236328 0.828571
vt 0.271484 0.828571
vt 0.060547 -3.257143
vt 0.236328 1.000000
vt 0.236328 0.000000
vt 0.070312 -3.371428
vt 0.271484 1.000000
vt 0.271484 0.000000
vt 0.236328 0.685714
vt 0.271484 0.685714
vt 0.048828 -3.257143
vt 0.236328 0.200000
vt 0.236328 0.514286
vt 0.271484 0.514286
vt 0.046875 -3.400000
vt 0.066406 -3.514286
vt 0.271484 0.200000
vt 0.271484 0.342857
vt 0.052734 -3.514286
vt 0.236328 0.342857
vt 0.291016 0.828571
vt 0.353516 0.828571
vt 0.291016 1.000000
vt 0.291016 0.000000
vt 0.353516 0.000000
vt 0.353516 1.000000
vt 0.291016 0.657143
vt 0.353516 0.657143
vt 0.291016 0.171429
vt 0.291016 0.485714
vt 0.353516 0.485714
vt 0.353516 0.171429
vt 0.353516 0.342857
vt 0.291016 0.342857
vt 0.373047 0.828571
vt 0.052734 -3.771429
vt 0.046875 -3.657143
vt 0.373047 0.000000
vt 0.373047 1.000000
vt 0.373047 0.657143
vt 0.064453 -3.771429
vt 0.373047 0.485714
vt 0.068359 -3.628572
vt 0.373047 0.171429
vt 0.052734 -3.514286
vt 0.373047 0.342857
vt 0.062500 -3.514286
s 1
usemtl concrete_hr_3
f 10/27/1 11/29/1 4/10/1
f 20/52/2 5/13/2 33/84/2
f 7/19/2 8/22/2 29/73/2
f 3/7/1 18/47/1 19/50/1
f 15/39/1 17/45/1 1/1/1
f 32/81/2 5/13/2 20/52/2
f 6/16/2 25/64/2 24/61/2
f 19/50/1 22/56/1 3/7/1
f 4/10/1 3/7/1 10/27/1
f 3/7/1 22/56/1 9/25/1
f 10/27/1 3/7/1 9/25/1
f 22/56/1 21/54/1 9/25/1
f 13/34/1 2/4/1 4/10/1
f 11/29/1 12/32/1 4/10/1
f 12/32/1 13/34/1 4/10/1
f 14/36/3 13/35/3 27/69/3 28/70/3
f 11/30/4 10/28/4 24/62/4 25/63/4
f 8/22/2 32/81/2 31/79/2
f 31/79/2 30/76/2 29/73/2
f 28/71/2 27/68/2 7/19/2
f 8/22/2 31/79/2 29/73/2
f 29/73/2 28/71/2 7/19/2
f 3/7/1 1/1/1 18/47/1
f 2/4/1 13/34/1 14/37/1
f 15/39/1 16/42/1 17/45/1
f 2/4/1 14/37/1 15/39/1
f 17/45/1 18/47/1 1/1/1
f 2/4/1 15/39/1 1/1/1
f 32/81/2 8/22/2 5/13/2
f 33/84/2 5/13/2 23/59/2
f 5/13/2 6/16/2 24/61/2
f 6/16/2 7/19/2 27/68/2
f 27/68/2 26/66/2 6/16/2
f 26/66/2 25/64/2 6/16/2
f 24/61/2 23/59/2 5/13/2
f 23/59/2 34/87/2 33/84/2
f 21/55/5 22/57/5 33/85/5 34/88/5
f 9/26/6 21/55/6 34/88/6 23/60/6
f 1/2/7 3/8/7 5/14/7 8/23/7
f 10/28/8 9/26/8 23/60/8 24/62/8
f 3/9/9 4/11/9 6/17/9 5/15/9
f 12/33/10 11/31/10 25/65/10 26/67/10
f 16/43/11 15/40/11 29/74/11 30/77/11
f 13/35/12 12/33/12 26/67/12 27/69/12
f 4/12/13 2/5/13 7/20/13 6/18/13
f 2/6/14 1/3/14 8/24/14 7/21/14
f 22/58/15 19/51/15 20/53/15 33/86/15
f 31/80/16 17/46/16 16/44/16 30/78/16
f 15/41/17 14/38/17 28/72/17 29/75/17
f 20/53/18 19/51/18 18/48/18 32/82/18
f 18/49/19 17/46/19 31/80/19 32/83/19
s 0
usemtl rebar_hr_1
f 43/102/20 45/106/20 44/105/20 40/99/20
f 47/109/21 36/90/21 38/94/21 48/111/21
f 52/115/22 50/113/22 44/104/22 45/107/22
f 47/109/23 51/114/23 40/98/23 36/90/23
f 51/114/24 39/97/24 42/101/24 49/112/24
f 50/113/25 48/110/25 38/95/25 44/104/25
f 49/112/26 52/115/26 45/107/26 43/103/26
f 42/101/27 46/108/27 52/115/27 49/112/27
f 41/100/28 37/92/28 48/110/28 50/113/28
f 40/98/29 51/114/29 49/112/29 43/103/29
f 35/89/30 39/97/30 51/114/30 47/109/30
f 46/108/31 41/100/31 50/113/31 52/115/31
f 35/89/32 47/109/32 48/111/32 37/93/32
f 40/99/33 44/105/33 38/96/33 36/91/33
f 56/120/34 54/117/34 65/130/34 66/132/34
f 53/116/35 54/117/35 56/120/35 55/118/35
f 64/129/36 59/124/36 62/127/36 63/128/36
f 53/116/37 57/122/37 58/123/37 54/117/37
f 58/123/38 57/122/38 60/125/38 61/126/38
f 59/124/39 55/119/39 56/121/39 62/127/39
f 60/125/40 64/129/40 63/128/40 61/126/40
f 70/142/41 69/139/41 66/134/41
f 61/126/42 63/128/42 70/141/42 68/137/42
f 58/123/43 61/126/43 68/137/43 67/135/43
f 54/117/44 58/123/44 67/135/44 65/130/44
f 62/127/45 56/121/45 66/133/45 69/140/45
f 69/140/46 70/141/46 63/128/46 62/127/46
f 67/136/47 68/138/47 65/131/47
f 68/138/48 70/142/48 66/134/48 65/131/48
f 81/161/49 80/158/49 74/148/49 72/145/49
f 71/143/50 72/144/50 74/149/50 73/146/50
f 82/162/51 77/154/51 80/159/51 81/160/51
f 71/143/52 75/151/52 76/152/52 72/144/52
f 76/152/53 75/151/53 78/155/53 79/156/53
f 77/154/54 73/147/54 74/150/54 80/159/54
f 78/155/55 82/162/55 81/160/55 79/156/55
f 79/157/56 81/161/56 72/145/56 76/153/56
f 93/175/57 92/174/57 99/186/57 100/188/57
f 83/163/58 84/164/58 86/168/58 85/165/58
f 94/176/59 89/171/59 92/174/59 93/175/59
f 83/163/60 87/169/60 88/170/60 84/164/60
f 88/170/61 87/169/61 90/172/61 91/173/61
f 89/171/62 85/166/62 86/167/62 92/174/62
f 90/172/63 94/176/63 93/175/63 91/173/63
f 95/178/64 99/187/64 96/179/64
f 91/173/65 93/175/65 100/188/65 98/184/65
f 88/170/66 91/173/66 98/184/66 97/182/66
f 84/164/67 88/170/67 97/182/67 95/177/67
f 92/174/68 86/167/68 96/180/68 99/186/68
f 86/168/69 84/164/69 95/177/69 96/181/69
f 100/189/70 99/187/70 95/178/70 97/183/70
f 98/185/64 100/189/64 97/183/64
