# Blender 3.4.0
# www.blender.org
mtllib garage_door_frame_hr_1.mtl
o garage_door_frame_hr_1
v 4.000000 -0.000000 0.200000
v -4.000000 -0.000000 0.200001
v -4.000000 6.000000 0.200001
v 1.970816 0.000000 0.200000
v -1.970816 0.000000 0.200001
v 1.970816 3.700000 0.200000
v -1.970816 3.700000 0.200001
v -4.000000 -0.000000 -0.200001
v 4.000000 -0.000000 -0.200000
v -4.000000 6.000000 -0.200001
v 4.000000 6.000000 -0.200000
v -1.970816 0.000000 -0.200001
v 1.970816 0.000000 -0.200000
v -1.970816 3.700000 -0.200000
v 1.970816 3.700000 -0.200000
v 4.000000 6.000000 0.200001
vn -1.0000 -0.0000 -0.0000
vn -0.0000 -0.0000 1.0000
vn 1.0000 -0.0000 -0.0000
vn -0.0000 -0.0000 -1.0000
vn -0.0000 -1.0000 -0.0000
vn -0.0000 1.0000 -0.0000
vt 2.000000 0.000000
vt -0.000000 0.000000
vt -0.000000 2.000000
vt 0.500000 0.450000
vt 1.492704 0.000000
vt 0.507296 0.000000
vt 1.492704 1.233333
vt 0.992704 0.433333
vt 0.507296 1.233333
vt 0.007296 0.433333
vt 0.000000 0.000000
vt 2.000000 0.000000
vt 0.000000 2.000000
vt 0.500000 0.550000
vt 2.000000 2.000000
vt 2.500000 0.550000
vt 0.607251 0.000000
vt 0.507296 0.000000
vt 1.392795 0.000000
vt 1.492704 0.000000
vt 0.607251 1.233333
vt 0.507296 1.233333
vt 0.007296 0.566667
vt 1.392795 1.233333
vt 1.492704 1.233333
vt 0.992704 0.566667
vt 2.000000 2.000000
vt 2.500000 0.450000
s 1
usemtl wall_hr_1
f 15/24/1 13/19/1 4/5/1 6/7/1
f 4/5/2 1/1/2 16/27/2 6/7/2
f 12/17/3 14/21/3 7/9/3 5/6/3
f 3/3/2 2/2/2 5/6/2 7/9/2
f 12/18/4 8/11/4 10/13/4 14/22/4
f 16/27/2 3/3/2 7/9/2 6/7/2
f 11/15/4 9/12/4 13/20/4 15/25/4
f 10/13/4 11/15/4 15/25/4 14/22/4
f 14/23/5 15/26/5 6/8/5 7/10/5
usemtl concrete_hr_3
f 16/28/6 11/16/6 10/14/6 3/4/6
o garage_door_hr_2_piece_2
v 1.970816 0.000000 -0.040000
v 1.970816 3.700000 -0.039999
v 1.970816 3.700000 0.040001
v 1.970816 0.000000 0.040000
v 0.000000 3.700000 -0.039999
v 0.000000 0.000000 -0.040000
v 0.000000 3.700000 0.040001
v 0.000000 0.000000 0.040000
vn -0.0000 -1.0000 -0.0000
vn 1.0000 -0.0000 -0.0000
vn -1.0000 -0.0000 -0.0000
vn -0.0000 1.0000 -0.0000
vn -0.0000 -0.0000 1.0000
vn -0.0000 -0.0000 -1.0000
vt 1.000000 0.021622
vt 0.979704 0.000000
vt 1.000000 0.000000
vt 0.979704 1.000000
vt 1.000000 1.000000
vt 1.000000 0.978378
vt 1.000000 1.000000
vt 1.000000 0.000000
vt 0.969349 0.000000
vt 0.500000 1.000000
vt 0.500000 0.021622
vt 0.030651 0.000000
vt 0.500000 0.000000
vt 0.969349 0.021622
vt 0.500000 0.978378
vt 0.500000 1.000000
vt 0.030651 0.021622
vt 0.500000 0.000000
s 1
usemtl garage_door_hr_2
f 22/39/7 17/29/7 20/36/7 24/46/7
f 17/30/8 18/32/8 19/35/8 20/36/8
f 23/42/9 21/37/9 22/40/9 24/45/9
f 18/33/10 21/38/10 23/43/10 19/34/10
f 19/35/11 23/44/11 24/46/11 20/36/11
f 18/33/12 17/31/12 22/41/12 21/38/12
o garage_door_hr_2_piece_1
v -1.970816 0.000000 -0.040000
v -1.970816 3.700000 -0.039999
v -1.970816 3.700000 0.040001
v -1.970816 0.000000 0.040000
v 0.000000 3.700000 -0.039999
v 0.000000 0.000000 -0.040000
v 0.000000 3.700000 0.040001
v 0.000000 0.000000 0.040000
vn -0.0000 -0.0000 -1.0000
vn -0.0000 -0.0000 1.0000
vn -1.0000 -0.0000 -0.0000
vn -0.0000 1.0000 -0.0000
vn 1.0000 -0.0000 -0.0000
vn -0.0000 -1.0000 -0.0000
vt 0.000000 0.000000
vt 0.020296 0.000000
vt 0.000000 0.021622
vt 0.020296 1.000000
vt 0.000000 1.000000
vt 0.000000 1.000000
vt 0.000000 0.978378
vt 0.000000 0.000000
vt 0.500000 1.000000
vt 0.969349 0.000663
vt 0.500000 0.000000
vt 0.030651 0.000663
vt 0.500000 0.021622
vt 0.500000 1.000000
vt 0.500000 0.978378
vt 0.969349 0.020959
vt 0.030651 0.020959
vt 0.500000 0.000000
s 1
usemtl garage_door_hr_2
f 29/55/13 30/57/13 25/47/13 26/51/13
f 31/60/14 27/52/14 28/54/14 32/64/14
f 26/50/15 25/48/15 28/54/15 27/52/15
f 29/55/16 26/51/16 27/53/16 31/61/16
f 30/58/17 29/56/17 31/62/17 32/63/17
f 25/49/18 30/59/18 32/64/18 28/54/18
