# Blender 3.4.0
# www.blender.org
mtllib garage_door_frame_rg_2.mtl
o garage_door_frame_rg_2
v 2.000000 -0.000000 0.200000
v 2.000000 3.000000 0.200001
v -2.000000 -0.000000 0.200001
v 1.500000 -0.000000 0.200000
v -1.500000 -0.000000 0.200000
v 1.500000 2.500000 0.200001
v -1.500000 2.500000 0.200001
v -1.500000 0.000000 -0.200000
v 1.500000 2.500000 -0.199999
v -1.500000 2.500000 -0.199999
v -2.000000 -0.000000 -0.200000
v 2.000000 -0.000000 -0.200000
v 2.000000 3.000000 -0.200001
v 1.500000 -0.000000 -0.200000
v -2.000000 3.000000 0.200001
v -2.000000 3.000000 -0.200000
vn -0.0000 -0.0000 1.0000
vn -0.0000 -1.0000 -0.0000
vn 1.0000 -0.0000 -0.0000
vn -1.0000 -0.0000 -0.0000
vn -0.0000 -0.0000 -1.0000
vn -0.0000 1.0000 -0.0000
vt 1.000000 0.000000
vt 1.500000 0.450000
vt 1.000000 1.000000
vt -0.000000 0.000000
vt 0.875000 0.000000
vt 0.450000 0.000000
vt 0.125000 0.000000
vt 0.450000 0.000000
vt 0.875000 0.606667
vt 0.450000 0.833577
vt 0.875000 0.833333
vt 0.125000 0.606667
vt 0.450000 0.833577
vt 0.125000 0.833333
vt 0.583333 -0.000000
vt 0.125000 0.000000
vt 0.875000 0.766667
vt 0.583333 0.833577
vt 0.875000 0.833333
vt 0.125000 0.766667
vt 0.583333 0.833577
vt 0.125000 0.833333
vt 0.000000 0.000000
vt 1.000000 0.000000
vt 1.000000 1.000000
vt 1.500000 0.550000
vt 0.583333 -0.000000
vt 0.875000 0.000000
vt 0.500000 0.450000
vt -0.000000 1.000000
vt 0.500000 0.550000
vt 0.000000 1.000000
s 1
usemtl wall_rg_1
f 7/14/1 15/30/1 3/4/1 5/7/1
f 4/5/1 1/1/1 2/3/1 6/11/1
f 6/9/2 7/12/2 10/20/2 9/17/2
f 7/13/3 5/8/3 8/15/3 10/21/3
f 4/6/4 6/10/4 9/18/4 14/27/4
f 10/22/5 16/32/5 13/25/5 9/19/5
f 12/24/5 14/28/5 9/19/5 13/25/5
f 7/14/1 6/11/1 2/3/1 15/30/1
f 11/23/5 16/32/5 10/22/5 8/16/5
usemtl concrete_hr_3
f 2/2/6 13/26/6 16/31/6 15/29/6
o garage_door_hm_3
v -1.500000 0.000000 0.020000
v 1.500000 0.000000 0.020000
v 1.500000 2.500000 0.020001
v -1.500000 2.500000 0.020001
v -1.500000 0.000000 -0.020000
v 1.500000 0.000000 -0.020000
v 1.500000 2.500000 -0.019999
v -1.500000 2.500000 -0.019999
vn -0.0000 -0.0000 1.0000
vn -0.0000 -0.0000 -1.0000
vn 0.7071 0.7071 -0.0000
vn -0.7071 0.7071 -0.0000
vn 0.7071 -0.7071 -0.0000
vn -0.7071 -0.7071 -0.0000
vt 0.000000 0.000000
vt 1.000000 0.000000
vt 1.000000 1.000000
vt 0.000000 1.000000
vt 0.000000 0.000000
vt 1.000000 0.000000
vt 1.000000 1.000000
vt 0.000000 1.000000
s 1
usemtl garage_door_hm_3
f 17/33/7 18/34/7 19/35/7 20/36/7
f 21/37/8 24/40/8 23/39/8 22/38/8
f 19/35/9 23/39/9 24/40/10 20/36/10
f 18/34/11 22/38/11 23/39/9 19/35/9
f 20/36/10 24/40/10 21/37/12 17/33/12
f 17/33/12 21/37/12 22/38/11 18/34/11
