# Blender 3.4.0
# www.blender.org
mtllib pillar_rx_8.mtl
o pillar_rx_8
v -0.200000 0.000000 0.200000
v -0.200000 0.000000 -0.200000
v 0.200000 0.000000 0.200000
v 0.200000 0.000000 -0.200000
v -0.200000 3.000000 0.200000
v -0.200000 3.000000 -0.200000
v 0.200000 3.000000 0.200000
v 0.200000 3.000000 -0.200000
vn -0.0000 -0.0000 -1.0000
vn 1.0000 -0.0000 -0.0000
vn -0.0000 -0.0000 1.0000
vn -1.0000 -0.0000 -0.0000
vn -0.0000 1.0000 -0.0000
vt 0.112110 0.000000
vt 0.397266 0.000000
vt 0.250781 0.000000
vt 0.497266 0.000000
vt 0.215625 0.000000
vt 0.212109 0.000000
vt 0.350781 0.000000
vt 0.315625 0.000000
vt 0.112110 1.000000
vt 0.397266 1.000000
vt 0.450000 0.450000
vt 0.250781 1.000000
vt 0.497266 1.000000
vt 0.450000 0.550000
vt 0.215625 1.000000
vt 0.212109 1.000000
vt 0.550000 0.450000
vt 0.350781 1.000000
vt 0.315625 1.000000
vt 0.550000 0.550000
s 0
usemtl wall_rx_1
f 2/3/1 6/12/1 8/18/1 4/7/1
f 4/8/2 8/19/2 7/15/2 3/5/2
f 3/6/3 7/16/3 5/9/3 1/1/3
f 1/2/4 5/10/4 6/13/4 2/4/4
usemtl concrete_hr_3
f 5/11/5 7/17/5 8/20/5 6/14/5
