# Blender 3.4.0
# www.blender.org
mtllib pillar_hs_6.mtl
o pillar_hs_6
v -0.499999 0.000000 0.500000
v 0.500001 0.000000 0.500000
v 0.500001 0.000000 -0.500000
v -0.499999 6.000000 0.500000
v 0.500001 6.000000 0.500000
v 0.500001 6.000000 -0.500000
v -0.499999 0.000000 -0.000000
v 0.000001 0.000000 -0.500000
v 0.000001 6.000000 -0.500000
v -0.499999 6.000000 -0.000000
vn 1.0000 -0.0000 -0.0000
vn -0.0000 -0.0000 1.0000
vn -0.0000 -0.0000 -1.0000
vn -0.7071 -0.0000 -0.7071
vn -1.0000 -0.0000 -0.0000
vn -0.0000 1.0000 -0.0000
vt 0.249646 0.000000
vt 0.625238 0.000000
vt 0.500070 0.000000
vt 0.499455 0.000000
vt 0.749879 0.000000
vt 1.000000 0.000000
vt 0.249646 2.000000
vt 0.625238 2.000000
vt 0.375000 0.375000
vt 0.500070 2.000000
vt 0.499455 2.000000
vt 0.625000 0.375000
vt 0.749879 2.000000
vt 1.000000 2.000000
vt 0.625000 0.625000
vt 0.750143 0.000000
vt 0.875095 0.000000
vt 0.875096 2.000000
vt 0.500000 0.625000
vt 0.750143 2.000000
vt 0.375000 0.500000
s 0
usemtl wall_hs_1
f 3/5/1 6/13/1 5/10/1 2/3/1
f 2/4/2 5/11/2 4/7/2 1/1/2
f 8/17/3 9/18/3 6/14/3 3/6/3
f 9/18/4 8/17/4 7/16/4 10/20/4
f 1/2/5 4/8/5 10/20/5 7/16/5
usemtl concrete_hr_3
f 6/15/6 9/19/6 10/21/6 4/9/6 5/12/6
