# Blender 3.4.0
# www.blender.org
mtllib pillar_hr_1_broken.mtl
o pillar_hr_1_broken
v -0.300000 0.000000 0.300000
v -0.300000 0.000000 -0.300000
v 0.300000 0.000000 0.300000
v 0.300000 0.000000 -0.300000
v 0.090887 1.444854 0.040135
v -0.128890 1.343808 -0.004395
v 0.097317 1.371489 -0.300000
v 0.300000 1.253498 0.300000
v -0.300000 1.384308 0.300000
v -0.153113 1.367528 0.300000
v 0.085974 1.409411 0.300000
v 0.300000 1.179617 -0.300000
v 0.300000 1.161955 -0.118727
v -0.300000 1.281489 -0.300000
v -0.105367 1.275590 -0.300000
v -0.300000 1.340237 0.108296
v -0.128284 1.299974 -0.075486
v -0.172749 1.562366 -0.111887
v -0.133741 1.296581 -0.104756
v -0.178038 1.557488 -0.140991
v -0.095450 1.303905 -0.064800
v -0.149509 1.603040 -0.107900
v -0.111123 1.296753 -0.122841
v -0.075117 1.303331 -0.088364
v -0.129616 1.604563 -0.131794
v -0.163094 1.585950 -0.164370
v -0.135991 1.596927 -0.156557
v -0.082429 1.300155 -0.113831
v -0.141263 1.448675 -0.090305
v -0.146720 1.445282 -0.119575
v -0.088096 1.452032 -0.103183
v -0.124102 1.445454 -0.137660
v -0.108429 1.452606 -0.079619
v -0.095408 1.448856 -0.128650
v 0.091046 1.400000 0.136343
v 0.091046 1.450000 0.136343
v 0.069480 1.400000 0.115536
v 0.069480 1.450000 0.115536
v 0.124279 1.400000 0.126182
v 0.124279 1.450000 0.126182
v 0.077526 1.400000 0.087716
v 0.127249 1.400000 0.095195
v 0.127249 1.450000 0.095195
v 0.077526 1.450000 0.087716
v 0.106377 1.450000 0.078567
v 0.106377 1.400000 0.078567
v 0.062293 1.545443 0.141413
v 0.050592 1.510957 0.118866
v 0.093478 1.557240 0.131613
v 0.095954 1.560081 0.100713
v 0.063469 1.496312 0.090195
v 0.085385 1.522206 0.082268
v -0.115129 1.326920 0.134097
v -0.115129 1.446433 0.144893
v -0.132755 1.329100 0.109959
v -0.132755 1.425832 0.118697
v -0.080637 1.327301 0.129878
v -0.080637 1.446814 0.140674
v -0.120000 1.331439 0.084065
v -0.072331 1.330000 0.100000
v -0.072331 1.449513 0.110795
v -0.120000 1.428171 0.092802
v -0.089999 1.451313 0.090877
v -0.089999 1.331799 0.080081
v 0.076526 1.302258 -0.070934
v 0.076526 1.461777 -0.083324
v 0.065774 1.300092 -0.098822
v 0.065774 1.459611 -0.111212
v 0.110939 1.302632 -0.066113
v 0.110939 1.462152 -0.078503
v 0.084823 1.298402 -0.120569
v 0.126727 1.300555 -0.092860
v 0.126727 1.460074 -0.105250
v 0.084823 1.457922 -0.132959
v 0.114837 1.458224 -0.129070
v 0.114837 1.298705 -0.116680
v 0.067062 1.497266 -0.088624
v 0.056569 1.492054 -0.116206
v 0.094797 1.515460 -0.085323
v 0.110463 1.514817 -0.112215
v 0.075431 1.492569 -0.138175
v 0.098832 1.509914 -0.135727
vn -0.3983 0.9115 -0.1027
vn -0.1137 0.9834 -0.1415
vn 0.7641 0.6334 -0.1222
vn -0.3658 0.9000 -0.2368
vn 0.0295 0.9745 -0.2225
vn 0.1107 0.9686 -0.2227
vn 0.5845 0.8024 0.1205
vn 0.6858 0.7244 0.0706
vn 0.7572 0.6381 -0.1395
vn -0.4191 0.8858 -0.1990
vn -0.1711 0.9766 0.1300
vn -0.0757 0.9936 -0.0835
vn -0.0000 -0.0000 1.0000
vn -0.0000 -0.0000 -1.0000
vn 1.0000 -0.0000 -0.0000
vn -1.0000 -0.0000 -0.0000
vn -0.3163 0.9264 -0.2043
vn -0.9520 -0.2253 0.2072
vn 0.3095 -0.0938 -0.9463
vn -0.3189 0.0905 0.9435
vn 0.7522 0.1300 0.6459
vn -0.5905 -0.3065 -0.7466
vn 0.9338 0.1991 -0.2973
vn 0.9578 0.0555 -0.2819
vn -0.6185 -0.1312 -0.7748
vn 0.7215 0.3127 0.6178
vn -0.3160 0.0667 0.9464
vn 0.3062 -0.0679 -0.9495
vn -0.9795 -0.0665 0.1903
vn -0.8659 0.4961 0.0636
vn -0.6677 -0.2412 0.7042
vn -0.6943 -0.0000 0.7196
vn -0.3023 -0.0000 -0.9532
vn 0.2924 -0.0000 0.9563
vn 0.9954 -0.0000 0.0954
vn -0.9606 -0.0000 -0.2778
vn 0.6231 -0.0000 -0.7821
vn -0.7149 0.4383 -0.5449
vn 0.6029 0.2118 -0.7692
vn 0.9583 0.2689 0.0967
vn 0.2899 0.0356 0.9564
vn -0.9238 -0.2690 -0.2724
vn -0.3005 -0.0392 -0.9530
vn -0.3368 0.9397 0.0594
vn -0.7263 0.4942 -0.4777
vn -0.5992 0.7714 -0.2144
vn -0.8088 -0.0529 0.5858
vn -0.1322 0.0892 -0.9872
vn 0.1219 -0.0893 0.9885
vn 0.9637 -0.0240 0.2657
vn -0.8978 0.0396 -0.4386
vn 0.7495 0.0596 -0.6594
vn -0.0000 0.9959 0.0900
vn 0.1473 -0.0921 -0.9848
vn -0.9334 0.0278 0.3577
vn 0.1289 -0.0768 -0.9887
vn -0.1391 0.0767 0.9873
vn 0.8618 0.0393 0.5056
vn -0.7532 -0.0509 -0.6558
vn 0.8953 -0.0345 -0.4442
vn -0.1677 0.9784 -0.1211
vn 0.8649 0.2035 -0.4588
vn 0.8274 0.3081 0.4696
vn -0.1553 0.0895 0.9838
vn -0.7256 -0.2957 -0.6213
vn -0.9075 -0.1928 0.3732
vn -0.5524 0.8195 -0.1525
vt 0.422287 0.000000
vt 0.422287 0.000000
vt 0.577713 0.000000
vt 0.577713 0.000000
vt 0.422287 0.000000
vt 0.577713 0.000000
vt 0.488270 0.499033
vt 0.523460 0.357834
vt 0.467742 0.373308
vt 0.577713 0.473888
vt 0.526393 0.475822
vt 0.526393 0.473888
vt 0.577713 0.268859
vt 0.422287 0.433269
vt 0.577713 0.433269
vt 0.422287 0.268859
vt 0.422287 0.479579
vt 0.460411 0.268859
vt 0.460411 0.471954
vt 0.523460 0.268859
vt 0.523460 0.487427
vt 0.577713 0.475822
vt 0.577713 0.408124
vt 0.577713 0.411992
vt 0.530792 0.402321
vt 0.422287 0.475822
vt 0.422287 0.442940
vt 0.577713 0.442940
vt 0.473607 0.475822
vt 0.473607 0.441006
vt 0.422287 0.334623
vt 0.470674 0.464217
vt 0.167969 0.171429
vt 0.042969 0.171429
vt 0.050781 -2.971429
vt 0.167969 1.000000
vt 0.167969 0.000000
vt 0.042969 0.000000
vt 0.042969 1.000000
vt 0.046875 -2.828571
vt 0.167969 0.342857
vt 0.042969 0.342857
vt 0.066406 -2.971429
vt 0.167969 0.828571
vt 0.167969 0.514286
vt 0.072266 -2.828571
vt 0.042969 0.514286
vt 0.042969 0.828571
vt 0.056641 -2.685714
vt 0.068359 -2.685714
vt 0.042969 0.657143
vt 0.167969 0.657143
vt 0.103516 0.171429
vt 0.103516 1.000000
vt 0.103516 0.000000
vt 0.103516 0.514286
vt 0.103516 0.828571
vt 0.103516 0.342857
vt 0.103516 0.657143
vt 0.224609 0.171429
vt 0.208984 0.171429
vt 0.224609 0.000000
vt 0.224609 1.000000
vt 0.208984 0.000000
vt 0.208984 1.000000
vt 0.224609 0.342857
vt 0.208984 0.342857
vt 0.224609 0.828571
vt 0.224609 0.514286
vt 0.208984 0.514286
vt 0.208984 0.828571
vt 0.208984 0.685714
vt 0.224609 0.685714
vt 0.179688 0.171429
vt 0.052734 0.778571
vt 0.179688 0.000000
vt 0.179688 1.000000
vt 0.068359 0.750000
vt 0.179688 0.342857
vt 0.046875 0.635714
vt 0.179688 0.514286
vt 0.052734 0.521429
vt 0.074219 0.635714
vt 0.179688 0.828571
vt 0.179688 0.685714
vt 0.066406 0.521429
vt 0.236328 0.828571
vt 0.271484 0.828571
vt 0.060547 -3.257143
vt 0.236328 1.000000
vt 0.236328 0.000000
vt 0.070312 -3.371428
vt 0.271484 1.000000
vt 0.271484 0.000000
vt 0.236328 0.685714
vt 0.271484 0.685714
vt 0.048828 -3.257143
vt 0.236328 0.200000
vt 0.236328 0.514286
vt 0.271484 0.514286
vt 0.046875 -3.400000
vt 0.066406 -3.514286
vt 0.271484 0.200000
vt 0.271484 0.342857
vt 0.052734 -3.514286
vt 0.236328 0.342857
vt 0.291016 0.828571
vt 0.353516 0.828571
vt 0.291016 1.000000
vt 0.291016 0.000000
vt 0.353516 0.000000
vt 0.353516 1.000000
vt 0.291016 0.657143
vt 0.353516 0.657143
vt 0.291016 0.171429
vt 0.291016 0.485714
vt 0.353516 0.485714
vt 0.353516 0.171429
vt 0.353516 0.342857
vt 0.291016 0.342857
vt 0.373047 0.828571
vt 0.052734 -3.771429
vt 0.046875 -3.657143
vt 0.373047 0.000000
vt 0.373047 1.000000
vt 0.373047 0.657143
vt 0.064453 -3.771429
vt 0.373047 0.485714
vt 0.068359 -3.628572
vt 0.373047 0.171429
vt 0.052734 -3.514286
vt 0.373047 0.342857
vt 0.062500 -3.514286
s 0
usemtl wall_hr_2
f 5/8/1 6/9/1 10/18/1
f 14/26/2 16/31/2 6/9/2
f 7/10/3 5/7/3 13/25/3
f 15/29/4 6/9/4 5/8/4
f 15/29/5 14/26/5 6/9/5
f 10/18/6 16/31/6 9/16/6
f 5/8/7 11/20/7 8/13/7
f 12/22/8 7/11/8 13/24/8
f 13/25/9 5/7/9 8/14/9
f 7/11/10 15/29/10 5/8/10
f 11/20/11 5/8/11 10/18/11
f 6/9/12 16/31/12 10/18/12
f 8/15/13 10/19/13 1/1/13 3/4/13
f 2/2/14 14/27/14 15/30/14
f 15/30/14 7/12/14 12/23/14
f 4/6/15 12/23/15 13/25/15
f 13/25/15 8/14/15 3/5/15 4/6/15
f 8/15/13 11/21/13 10/19/13
f 10/19/13 9/17/13 1/1/13
f 2/2/14 15/30/14 12/23/14 4/6/14
f 1/1/16 9/17/16 16/32/16
f 16/32/16 14/28/16 2/3/16 1/1/16
usemtl rebar_hr_1
f 25/46/17 27/50/17 26/49/17 22/43/17
f 29/53/18 18/34/18 20/38/18 30/55/18
f 34/59/19 32/57/19 26/48/19 27/51/19
f 29/53/20 33/58/20 22/42/20 18/34/20
f 33/58/21 21/41/21 24/45/21 31/56/21
f 32/57/22 30/54/22 20/39/22 26/48/22
f 31/56/23 34/59/23 27/51/23 25/47/23
f 24/45/24 28/52/24 34/59/24 31/56/24
f 23/44/25 19/36/25 30/54/25 32/57/25
f 22/42/26 33/58/26 31/56/26 25/47/26
f 17/33/27 21/41/27 33/58/27 29/53/27
f 28/52/28 23/44/28 32/57/28 34/59/28
f 17/33/29 29/53/29 30/55/29 19/37/29
f 22/43/30 26/49/30 20/40/30 18/35/30
f 38/64/31 36/61/31 47/74/31 48/76/31
f 35/60/32 36/61/32 38/64/32 37/62/32
f 46/73/33 41/68/33 44/71/33 45/72/33
f 35/60/34 39/66/34 40/67/34 36/61/34
f 40/67/35 39/66/35 42/69/35 43/70/35
f 41/68/36 37/63/36 38/65/36 44/71/36
f 42/69/37 46/73/37 45/72/37 43/70/37
f 52/86/38 51/83/38 48/78/38
f 43/70/39 45/72/39 52/85/39 50/81/39
f 40/67/40 43/70/40 50/81/40 49/79/40
f 36/61/41 40/67/41 49/79/41 47/74/41
f 44/71/42 38/65/42 48/77/42 51/84/42
f 51/84/43 52/85/43 45/72/43 44/71/43
f 49/80/44 50/82/44 47/75/44
f 50/82/45 52/86/45 48/78/45 47/75/45
f 63/105/46 62/102/46 56/92/46 54/89/46
f 53/87/47 54/88/47 56/93/47 55/90/47
f 64/106/48 59/98/48 62/103/48 63/104/48
f 53/87/49 57/95/49 58/96/49 54/88/49
f 58/96/50 57/95/50 60/99/50 61/100/50
f 59/98/51 55/91/51 56/94/51 62/103/51
f 60/99/52 64/106/52 63/104/52 61/100/52
f 61/101/53 63/105/53 54/89/53 58/97/53
f 75/119/54 74/118/54 81/130/54 82/132/54
f 65/107/55 66/108/55 68/112/55 67/109/55
f 76/120/56 71/115/56 74/118/56 75/119/56
f 65/107/57 69/113/57 70/114/57 66/108/57
f 70/114/58 69/113/58 72/116/58 73/117/58
f 71/115/59 67/110/59 68/111/59 74/118/59
f 72/116/60 76/120/60 75/119/60 73/117/60
f 77/122/61 81/131/61 78/123/61
f 73/117/62 75/119/62 82/132/62 80/128/62
f 70/114/63 73/117/63 80/128/63 79/126/63
f 66/108/64 70/114/64 79/126/64 77/121/64
f 74/118/65 68/111/65 78/124/65 81/130/65
f 68/112/66 66/108/66 77/121/66 78/125/66
f 82/133/67 81/131/67 77/122/67 79/127/67
f 80/129/61 82/133/61 79/127/61
