# Blender 3.4.0
# www.blender.org
mtllib pillar_rg_7.mtl
o pillar_rg_7
v -0.499999 0.000000 0.500000
v -0.499999 0.000000 -0.500000
v 0.500001 0.000000 0.500000
v 0.500001 0.000000 -0.500000
v -0.499999 3.000000 0.500000
v -0.499999 3.000000 -0.500000
v 0.500001 3.000000 0.500000
v 0.500001 3.000000 -0.500000
v -0.499999 4.500000 -0.500000
v 0.500001 4.500000 -0.500000
v -0.999999 5.500000 0.500000
v -0.999999 5.500000 -0.500000
v 1.000001 5.500000 0.500000
v 1.000001 5.500000 -0.500000
v -0.999999 6.500000 0.500000
v -0.999999 6.500000 -0.500000
v 1.000001 6.500000 0.500000
v 1.000001 6.500000 -0.500000
v -0.499999 4.500000 0.500000
v 0.500001 4.500000 0.500000
vn -0.0000 -0.0000 -1.0000
vn 1.0000 -0.0000 -0.0000
vn -0.0000 -0.0000 1.0000
vn -1.0000 -0.0000 -0.0000
vn 0.8944 -0.4472 -0.0000
vn -0.8944 -0.4472 -0.0000
vn -0.0000 1.0000 -0.0000
vt 0.249646 0.000000
vt 0.249809 0.000000
vt 0.750191 0.000000
vt 0.000000 0.000000
vt 0.500070 0.000000
vt 0.499455 0.000000
vt 1.000000 0.000000
vt 0.749879 0.000000
vt 0.249646 1.000000
vt 0.249809 1.000000
vt 0.249809 0.000000
vt 0.249646 0.000000
vt 0.750191 1.000000
vt 0.000000 1.000000
vt 0.000000 0.000000
vt 0.750191 0.000000
vt 0.500070 1.000000
vt 0.499455 1.000000
vt 0.499455 0.000000
vt 0.500070 0.000000
vt 1.000000 1.000000
vt 0.749879 1.000000
vt 0.749879 0.000000
vt 1.000000 0.000000
vt 0.625000 0.333333
vt 0.375000 0.333333
vt 0.000000 0.500000
vt 0.750191 0.500000
vt 0.625000 0.333333
vt 0.749879 0.500000
vt 1.000000 0.500000
vt 0.250000 0.666667
vt 0.375000 0.666667
vt 0.250000 0.666667
vt 0.625000 0.666667
vt 0.750000 0.666667
vt 0.375000 0.666667
vt 0.750000 0.666667
vt 0.625000 0.666667
vt 0.250000 1.000000
vt 0.375000 1.000000
vt 0.250000 0.375000
vt 0.250000 1.000000
vt 0.625000 1.000000
vt 0.250000 0.625000
vt 0.750000 1.000000
vt 0.375000 1.000000
vt 0.750000 0.375000
vt 0.750000 1.000000
vt 0.625000 1.000000
vt 0.750000 0.625000
vt 0.375000 0.333333
vt 0.249728 0.500000
vt 0.375000 0.333333
vt 0.625000 0.333333
vt 0.499762 0.500000
s 0
usemtl wall_rg_1
f 2/3/1 6/13/1 8/21/1 4/7/1
f 4/8/2 8/22/2 7/17/2 3/5/2
f 3/6/3 7/18/3 5/9/3 1/1/3
f 1/2/4 5/10/4 6/14/4 2/4/4
f 20/54/5 10/29/5 14/39/5 13/37/5
f 9/25/6 19/52/6 11/33/6 12/35/6
f 19/52/3 20/55/3 13/36/3 11/32/3
f 10/29/1 9/26/1 12/34/1 14/38/1
f 11/32/3 13/36/3 17/46/3 15/40/3
f 14/38/1 12/34/1 16/43/1 18/49/1
f 13/37/2 14/39/2 18/50/2 17/47/2
f 12/35/4 11/33/4 15/41/4 16/44/4
f 5/11/4 19/53/4 9/27/4 6/15/4
f 7/19/3 20/56/3 19/53/3 5/12/3
f 8/23/2 10/30/2 20/56/2 7/20/2
f 6/16/1 9/28/1 10/31/1 8/24/1
usemtl concrete_hr_3
f 16/45/7 15/42/7 17/48/7 18/51/7
