# Blender 3.4.0
# www.blender.org
mtllib pillar_rg_8.mtl
o pillar_rg_8
v -0.200000 0.000000 0.200000
v -0.200000 0.000000 -0.200000
v 0.200000 0.000000 0.200000
v 0.200000 0.000000 -0.200000
v -0.200000 3.000000 0.200000
v -0.200000 3.000000 -0.200000
v 0.200000 3.000000 0.200000
v 0.200000 3.000000 -0.200000
vn -0.0000 -0.0000 -1.0000
vn 1.0000 -0.0000 -0.0000
vn -0.0000 -0.0000 1.0000
vn -1.0000 -0.0000 -0.0000
vn -0.0000 1.0000 -0.0000
vt 0.112110 0.000000
vt 0.397266 0.000000
vt 0.250781 0.000000
vt 0.497266 0.000000
vt 0.215625 0.000000
vt 0.212109 0.000000
vt 0.350781 0.000000
vt 0.315625 0.000000
vt 0.397266 1.000000
vt 0.112110 1.000000
vt 0.497266 1.000000
vt 0.250781 1.000000
vt 0.215625 1.000000
vt 0.212109 1.000000
vt 0.350781 1.000000
vt 0.315625 1.000000
s 0
usemtl wall_rg_1
f 2/3/1 6/12/1 8/15/1 4/7/1
f 4/8/2 8/16/2 7/13/2 3/5/2
f 3/6/3 7/14/3 5/10/3 1/1/3
f 1/2/4 5/9/4 6/11/4 2/4/4
f 5/10/5 7/14/5 8/16/5 6/12/5
