# Blender 3.4.0
# www.blender.org
mtllib pillar_rg_2.mtl
o pillar_rg_2
v -0.300000 0.000000 0.300000
v -0.300000 0.000000 -0.300000
v 0.300000 0.000000 0.300000
v 0.300000 0.000000 -0.300000
v -0.300000 3.000000 0.300000
v -0.300000 3.000000 -0.300000
v 0.300000 3.000000 0.300000
v 0.300000 3.000000 -0.300000
vn -0.0000 -0.0000 -1.0000
vn 1.0000 -0.0000 -0.0000
vn -0.0000 -0.0000 1.0000
vn -1.0000 -0.0000 -0.0000
vn -0.0000 1.0000 -0.0000
vt 0.425098 0.000000
vt 0.725557 0.000000
vt 0.275098 0.000000
vt 0.575369 0.000000
vt 0.575000 0.000000
vt 0.875557 0.000000
vt 0.725369 0.000000
vt 0.425098 1.000000
vt 0.425000 0.425000
vt 0.725557 1.000000
vt 0.275098 1.000000
vt 0.425000 0.575000
vt 0.575369 1.000000
vt 0.575000 1.000000
vt 0.575000 0.425000
vt 0.875557 1.000000
vt 0.725369 1.000000
vt 0.575000 0.575000
s 0
usemtl wall_rg_1
f 2/2/1 6/10/1 8/16/1 4/6/1
f 4/7/2 8/17/2 7/13/2 3/4/2
f 3/5/3 7/14/3 5/8/3 1/1/3
f 1/1/4 5/8/4 6/11/4 2/3/4
usemtl concrete_hr_3
f 5/9/5 7/15/5 8/18/5 6/12/5
