# Blender 3.4.0
# www.blender.org
mtllib pillar_hs_4.mtl
o pillar_hs_4
v -0.499999 0.000000 0.500000
v -0.499999 0.000000 -0.500000
v 0.500001 0.000000 0.500000
v 0.500001 0.000000 -0.500000
v -0.499999 3.000000 0.500000
v -0.499999 3.000000 -0.500000
v 0.500001 3.000000 0.500000
v 0.500001 3.000000 -0.500000
vn -0.0000 -0.0000 -1.0000
vn 1.0000 -0.0000 -0.0000
vn -0.0000 -0.0000 1.0000
vn -1.0000 -0.0000 -0.0000
vn -0.0000 1.0000 -0.0000
vt 0.249646 0.000000
vt 0.249809 0.000000
vt 0.750191 0.000000
vt 0.000000 0.000000
vt 0.500070 0.000000
vt 0.499455 0.000000
vt 1.000000 0.000000
vt 0.749879 0.000000
vt 0.249646 1.000000
vt 0.249809 1.000000
vt 0.375000 0.375000
vt 0.750191 1.000000
vt 0.000000 1.000000
vt 0.375000 0.625000
vt 0.500070 1.000000
vt 0.499455 1.000000
vt 0.625000 0.375000
vt 1.000000 1.000000
vt 0.749879 1.000000
vt 0.625000 0.625000
s 0
usemtl wall_hs_1
f 2/3/1 6/12/1 8/18/1 4/7/1
f 4/8/2 8/19/2 7/15/2 3/5/2
f 3/6/3 7/16/3 5/9/3 1/1/3
f 1/2/4 5/10/4 6/13/4 2/4/4
usemtl concrete_hr_3
f 5/11/5 7/17/5 8/20/5 6/14/5
