# Blender 3.4.0
# www.blender.org
mtllib pillar_rg_10.mtl
o pillar_rg_10
v -0.500000 0.000000 0.500000
v -0.500000 0.000000 -0.500000
v 0.500000 0.000000 0.500000
v 0.500000 0.000000 -0.500000
v -0.500000 6.000000 0.500000
v -0.500000 6.000000 -0.500000
v 0.500000 6.000000 0.500000
v 0.500000 6.000000 -0.500000
v 0.300000 3.000000 -0.300000
v 0.300000 3.000000 0.300000
v -0.300000 3.000000 0.300000
v -0.300000 3.000000 -0.300000
v 0.300000 0.400000 0.300000
v -0.300000 0.400000 -0.300000
v 0.300000 0.400000 -0.300000
v -0.300000 0.400000 0.300000
v 0.300000 5.600000 -0.300000
v -0.300000 5.600000 0.300000
v 0.300000 5.600000 0.300000
v -0.300000 5.600000 -0.300000
v 0.500000 5.800000 -0.500000
v -0.500000 5.800000 0.500000
v 0.500000 5.800000 0.500000
v -0.500000 5.800000 -0.500000
v 0.500000 0.200000 0.500000
v -0.500000 0.200000 -0.500000
v 0.500000 0.200000 -0.500000
v -0.500000 0.200000 0.500000
vn 1.0000 -0.0000 -0.0000
vn -0.0000 -0.0000 1.0000
vn -0.0000 -0.0000 -1.0000
vn -1.0000 -0.0000 -0.0000
vn -0.0000 1.0000 -0.0000
vn 0.7071 -0.7071 -0.0000
vn -0.0000 -0.7071 0.7071
vn -0.0000 -0.7071 -0.7071
vn -0.7071 -0.7071 -0.0000
vn -0.7071 0.7071 -0.0000
vn -0.0000 0.7071 -0.7071
vn -0.0000 0.7071 0.7071
vn 0.7071 0.7071 -0.0000
vt 0.425000 0.000000
vt 0.675557 -0.000000
vt 0.225111 0.000000
vt 0.575369 0.000000
vt 0.775418 0.000000
vt 0.925557 0.000000
vt 0.375000 0.375000
vt 0.425000 2.000000
vt 0.375000 0.625000
vt 0.225111 1.999999
vt 0.675557 2.000000
vt 0.625000 0.375000
vt 0.575369 2.000000
vt 0.625000 0.625000
vt 0.925557 2.000000
vt 0.775418 2.000000
vt 0.875557 1.000000
vt 0.725369 1.000000
vt 0.575185 1.000000
vt 0.425049 1.000000
vt 0.275098 1.000000
vt 0.725557 1.000000
vt 0.575184 0.133333
vt 0.275098 0.133333
vt 0.725557 0.133333
vt 0.875557 0.133333
vt 0.725369 0.133333
vt 0.425049 0.133333
vt 0.725369 1.866667
vt 0.875557 1.866667
vt 0.425049 1.866666
vt 0.575185 1.866667
vt 0.725557 1.866667
vt 0.275098 1.866667
vt 0.925557 1.933333
vt 0.775405 1.933333
vt 0.378174 1.933334
vt 0.471924 1.933334
vt 0.425049 1.933334
vt 0.528310 1.933333
vt 0.622060 1.933333
vt 0.575185 1.933333
vt 0.225107 1.933333
vt 0.675557 1.933333
vt 0.575184 0.066667
vt 0.622059 0.066667
vt 0.528309 0.066667
vt 0.225107 0.066667
vt 0.675557 0.066666
vt 0.925557 0.066667
vt 0.775405 0.066667
vt 0.425049 0.066667
vt 0.471924 0.066667
vt 0.378174 0.066667
s 0
usemtl wall_rg_1
f 27/51/1 25/45/1 3/4/1 4/5/1
f 25/45/2 28/52/2 1/1/2 3/4/2
f 26/49/3 27/50/3 4/6/3 2/2/3
f 28/52/4 26/48/4 2/3/4 1/1/4
f 18/31/4 20/34/4 12/21/4 11/20/4
f 20/33/3 17/30/3 9/17/3 12/22/3
f 19/32/2 18/31/2 11/20/2 10/19/2
f 17/29/1 19/32/1 10/19/1 9/18/1
f 11/20/4 12/21/4 14/24/4 16/28/4
f 12/22/3 9/17/3 15/26/3 14/25/3
f 10/19/2 11/20/2 16/28/2 13/23/2
f 9/18/1 10/19/1 13/23/1 15/27/1
f 21/36/6 23/40/6 19/32/6 17/29/6
f 23/41/7 22/37/7 18/31/7 19/32/7
f 24/44/8 21/35/8 17/30/8 20/33/8
f 22/38/9 24/43/9 20/34/9 18/31/9
f 5/8/4 6/10/4 24/43/4 22/39/4
f 6/11/3 8/15/3 21/35/3 24/44/3
f 7/13/2 5/8/2 22/39/2 23/42/2
f 8/16/1 7/13/1 23/42/1 21/36/1
f 16/28/10 14/24/10 26/48/10 28/53/10
f 14/25/11 15/26/11 27/50/11 26/49/11
f 13/23/12 16/28/12 28/54/12 25/46/12
f 15/27/13 13/23/13 25/47/13 27/51/13
usemtl concrete_hr_3
f 5/7/5 7/12/5 8/14/5 6/9/5
