# Blender 3.4.0
# www.blender.org
mtllib platform_b_handrail_1_1.mtl
o platform_b_handrail_1_1
v 0.060001 1.160000 0.020000
v 0.060001 1.160000 -0.020000
v 0.060001 -0.000000 0.020000
v 0.060001 -0.000000 -0.020000
v 0.000001 1.160000 0.020000
v 0.000001 1.160000 -0.020000
v 0.000001 -0.000000 0.020000
v 0.000001 -0.000000 -0.020000
v 0.060001 1.160000 -1.580000
v 0.060001 1.160000 -1.620000
v 0.060001 -0.000000 -1.580000
v 0.060001 -0.000000 -1.620000
v 0.000001 1.160000 -1.580000
v 0.000001 1.160000 -1.620000
v 0.000001 -0.000000 -1.580000
v 0.000001 -0.000000 -1.620000
v 0.000001 -0.000000 1.580000
v 0.000001 -0.000000 1.620000
v 0.000001 1.160000 1.580000
v 0.000001 1.160000 1.620000
v 0.060001 -0.000000 1.580000
v 0.060001 -0.000000 1.620000
v 0.060001 1.160000 1.580000
v 0.060001 1.160000 1.620000
v -0.010000 1.160000 -2.000000
v -0.010000 1.160000 2.000000
v -0.010000 1.200000 -2.000000
v -0.010000 1.200000 2.000000
v 0.070000 1.160000 -2.000000
v 0.070000 1.160000 2.000000
v 0.070000 1.200000 -2.000000
v 0.070000 1.200000 2.000000
v 0.020000 0.780000 -2.000000
v 0.020000 0.780000 2.000000
v 0.020000 0.820000 -2.000000
v 0.020000 0.820000 2.000000
v 0.040000 0.780000 -2.000000
v 0.040000 0.780000 2.000000
v 0.040000 0.820000 -2.000000
v 0.040000 0.820000 2.000000
v 0.020000 0.380000 -2.000000
v 0.020000 0.380000 2.000000
v 0.020000 0.420000 -2.000000
v 0.020000 0.420000 2.000000
v 0.040000 0.380000 -2.000000
v 0.040000 0.380000 2.000000
v 0.040000 0.420000 -2.000000
v 0.040000 0.420000 2.000000
v -0.010000 1.160000 0.100000
v -0.010000 1.200000 0.100000
v 0.070000 1.200000 0.100000
v 0.070000 1.160000 0.100000
v -0.010000 1.160000 1.500000
v -0.010000 1.200000 1.500000
v 0.070000 1.200000 1.500000
v 0.070000 1.160000 1.500000
v 0.020000 0.780000 -0.000000
v 0.020000 0.820000 0.000000
v 0.040000 0.820000 0.000000
v 0.040000 0.780000 0.000000
v 0.020000 0.780000 1.600000
v 0.020000 0.820000 1.600000
v 0.040000 0.820000 1.600000
v 0.040000 0.780000 1.600000
v 0.020000 0.380000 -0.000000
v 0.020000 0.420000 0.000000
v 0.040000 0.420000 0.000000
v 0.040000 0.380000 0.000000
v 0.020000 0.380000 1.600000
v 0.020000 0.420000 1.600000
v 0.040000 0.420000 1.600000
v 0.040000 0.380000 1.600000
vn 1.0000 -0.0000 -0.0000
vn -0.0000 -0.0000 -1.0000
vn -1.0000 -0.0000 -0.0000
vn -0.0000 -0.0000 1.0000
vn -0.0000 1.0000 -0.0000
vn -0.0000 -1.0000 -0.0000
vt 0.859375 0.487847
vt 0.990625 0.489323
vt 0.859375 0.543403
vt 0.515625 0.473958
vt 1.115625 0.487847
vt 0.734375 0.489323
vt 1.115625 0.543403
vt 0.259375 0.473958
vt 0.259375 0.487847
vt 0.990625 0.572657
vt 0.515625 0.557292
vt 0.259375 0.543403
vt 0.515625 0.487847
vt 0.734375 0.572657
vt 0.259375 0.557292
vt 0.515625 0.543403
vt 1.115625 0.489323
vt 0.259375 0.487847
vt 0.515625 0.473958
vt 0.259375 0.543403
vt 0.859375 0.489323
vt 0.515625 0.487847
vt 0.259375 0.473958
vt 0.515625 0.543403
vt 0.259375 0.487847
vt 1.115625 0.572657
vt 0.515625 0.557292
vt 0.259375 0.543403
vt 0.515625 0.487847
vt 0.859375 0.572657
vt 0.259375 0.557292
vt 0.515625 0.543403
vt 0.515625 0.543403
vt 0.259375 0.557292
vt 0.515625 0.487847
vt 0.734375 0.572657
vt 0.259375 0.543403
vt 0.515625 0.557292
vt 0.259375 0.487847
vt 0.990625 0.572657
vt 1.115625 0.543403
vt 0.259375 0.473958
vt 1.115625 0.487847
vt 0.734375 0.489323
vt 0.859375 0.543403
vt 0.515625 0.473958
vt 0.859375 0.487847
vt 0.990625 0.489323
vt 0.602891 0.475610
vt 1.093480 0.475610
vt 1.093480 0.512195
vt 0.098121 0.512195
vt 0.098121 0.475610
vt 0.602890 0.475610
vt 0.588711 0.475610
vt 1.093480 0.475610
vt 1.093480 0.573171
vt 0.098121 0.573171
vt 0.098121 0.475610
vt 0.588710 0.475610
vt 0.602891 0.597561
vt 1.093480 0.597561
vt 1.093480 0.512195
vt 0.098121 0.512195
vt 0.098121 0.597561
vt 0.602890 0.597561
vt 0.588711 0.597561
vt 1.093480 0.573171
vt 1.093480 0.597561
vt 0.098121 0.597561
vt 0.098121 0.573171
vt 0.588710 0.597561
vt 0.496094 0.353659
vt 1.038344 0.522371
vt 1.038344 0.512195
vt 0.153257 0.512195
vt 0.153257 0.522371
vt 0.496094 0.353659
vt 0.496094 0.439024
vt 1.038344 0.522371
vt 1.038344 0.573171
vt 0.153257 0.573171
vt 0.153257 0.522371
vt 0.496094 0.439024
vt 0.503906 0.353659
vt 1.038344 0.550800
vt 1.038344 0.512195
vt 0.153257 0.512195
vt 0.153257 0.550800
vt 0.503906 0.353659
vt 0.503906 0.439024
vt 1.038344 0.573171
vt 1.038344 0.550800
vt 0.153257 0.550800
vt 0.153257 0.573171
vt 0.503906 0.439024
vt 0.496094 0.353659
vt 1.038344 0.522371
vt 1.038344 0.512195
vt 0.153257 0.512195
vt 0.153257 0.522371
vt 0.496094 0.353659
vt 0.496094 0.439024
vt 1.038344 0.522371
vt 1.038344 0.573171
vt 0.153257 0.573171
vt 0.153257 0.522371
vt 0.496094 0.439024
vt 0.503906 0.353659
vt 1.038344 0.550800
vt 1.038344 0.512195
vt 0.153257 0.512195
vt 0.153257 0.550800
vt 0.503906 0.353659
vt 0.503906 0.439024
vt 1.038344 0.573171
vt 1.038344 0.550800
vt 0.153257 0.550800
vt 0.153257 0.573171
vt 0.503906 0.439024
vt 0.570917 0.475610
vt 0.570917 0.512195
vt 0.496094 0.609756
vt 0.570917 0.475610
vt 0.570917 0.573171
vt 0.503906 0.609756
vt 0.570917 0.573171
vt 0.570917 0.597561
vt 0.503906 0.487805
vt 0.570917 0.597561
vt 0.570917 0.512195
vt 0.496094 0.487805
vt 0.222541 0.512195
vt 0.222541 0.475610
vt 0.496094 0.609756
vt 0.222541 0.573171
vt 0.222541 0.475610
vt 0.503906 0.609756
vt 0.222541 0.597561
vt 0.222541 0.573171
vt 0.503906 0.487805
vt 0.222541 0.512195
vt 0.222541 0.597561
vt 0.496094 0.487805
vt 0.595801 0.522371
vt 0.595801 0.512195
vt 0.595801 0.522371
vt 0.595801 0.573171
vt 0.595801 0.573171
vt 0.595800 0.550800
vt 0.595800 0.550800
vt 0.595800 0.512195
vt 0.241766 0.512195
vt 0.241766 0.522371
vt 0.241766 0.573171
vt 0.241766 0.522371
vt 0.241766 0.550800
vt 0.241766 0.573171
vt 0.241766 0.512195
vt 0.241766 0.550800
vt 0.595801 0.522371
vt 0.595801 0.512195
vt 0.595801 0.522371
vt 0.595801 0.573171
vt 0.595801 0.573171
vt 0.595800 0.550800
vt 0.595800 0.550800
vt 0.595800 0.512195
vt 0.241766 0.512195
vt 0.241766 0.522371
vt 0.241766 0.573171
vt 0.241766 0.522371
vt 0.241766 0.550800
vt 0.241766 0.573171
vt 0.241766 0.512195
vt 0.241766 0.550800
s 1
usemtl steel_beams_hr_1
f 2/3/1 1/1/1 3/5/1 4/7/1
f 6/11/2 2/4/2 4/8/2 8/15/2
f 8/16/3 7/13/3 5/9/3 6/12/3
f 1/2/4 5/10/4 7/14/4 3/6/4
f 14/27/2 10/19/2 12/23/2 16/31/2
f 16/32/3 15/29/3 13/25/3 14/28/3
f 9/17/4 13/26/4 15/30/4 11/21/4
f 10/20/1 9/18/1 11/22/1 12/24/1
f 17/33/3 18/35/3 20/39/3 19/37/3
f 23/45/1 24/47/1 22/43/1 21/41/1
f 19/38/2 23/46/2 21/42/2 17/34/2
f 24/48/4 20/40/4 18/36/4 22/44/4
f 53/133/3 26/52/3 28/58/3 54/136/3
f 54/137/5 28/59/5 32/70/5 55/139/5
f 55/140/1 32/71/1 30/64/1 56/142/1
f 56/143/6 30/65/6 26/53/6 53/134/6
f 27/55/2 31/67/2 29/61/2 25/49/2
f 32/72/4 28/60/4 26/54/4 30/66/4
f 61/153/3 34/76/3 36/82/3 62/155/3
f 62/156/5 36/83/5 40/94/5 63/157/5
f 63/158/1 40/95/1 38/88/1 64/159/1
f 64/160/6 38/89/6 34/77/6 61/154/6
f 69/169/3 42/100/3 44/106/3 70/171/3
f 70/172/5 44/107/5 48/118/5 71/173/5
f 71/174/1 48/119/1 46/112/1 72/175/1
f 72/176/6 46/113/6 42/101/6 69/170/6
f 34/78/4 38/90/4 40/96/4 36/84/4
f 44/108/4 42/102/4 46/114/4 48/120/4
f 35/79/2 39/91/2 37/85/2 33/73/2
f 41/97/2 43/103/2 47/115/2 45/109/2
f 29/62/6 52/130/6 49/121/6 25/50/6
f 31/68/1 51/127/1 52/131/1 29/63/1
f 27/56/5 50/124/5 51/128/5 31/69/5
f 25/51/3 49/122/3 50/125/3 27/57/3
f 37/86/6 60/151/6 57/145/6 33/74/6
f 39/92/1 59/149/1 60/152/1 37/87/1
f 35/80/5 58/147/5 59/150/5 39/93/5
f 33/75/3 57/146/3 58/148/3 35/81/3
f 45/110/6 68/167/6 65/161/6 41/98/6
f 47/116/1 67/165/1 68/168/1 45/111/1
f 43/104/5 66/163/5 67/166/5 47/117/5
f 41/99/3 65/162/3 66/164/3 43/105/3
f 52/132/4 51/129/4 50/126/4 49/123/4
f 56/144/2 53/135/2 54/138/2 55/141/2
