# Blender 3.4.0
# www.blender.org
mtllib platform_large_mx_1.mtl
o platform_large_mx_1
v -4.000003 1.000000 3.999999
v 3.999997 1.000000 3.999999
v -4.000003 1.000000 -4.000000
v 3.999997 1.000000 -4.000000
v -4.000003 0.000000 -4.000000
v 3.999997 0.000000 -4.000000
v -4.000003 0.000000 3.999999
v 3.999997 0.000000 3.999999
vn 1.0000 -0.0000 -0.0000
vn -1.0000 -0.0000 -0.0000
vn -0.0000 -0.0000 1.0000
vn -0.0000 -0.0000 -1.0000
vn -0.0000 1.0000 -0.0000
vt 0.619054 1.964283
vt -0.452381 0.619054
vt -0.452381 1.964285
vt 0.619054 1.964283
vt 1.452381 0.619052
vt 1.452381 1.964285
vt 0.619048 0.059524
vt -0.452381 0.619048
vt -0.452381 0.059523
vt 0.619048 0.059524
vt 1.452381 0.619048
vt 1.452381 0.059523
vt 0.380952 0.059515
vt -0.452381 0.380953
vt 0.380952 0.059516
vt 1.452381 0.380953
vt 0.380959 1.964267
vt -0.452381 0.380961
vt 0.380959 1.964267
vt 1.452381 0.380959
s 1
usemtl concrete_hr_4
f 2/4/1 8/19/1 6/15/1 4/10/1
f 3/7/2 5/13/2 7/17/2 1/1/2
f 2/5/3 1/2/3 7/18/3 8/20/3
f 3/8/4 4/11/4 6/16/4 5/14/4
f 1/3/5 2/6/5 4/12/5 3/9/5
