# Blender 3.4.0
# www.blender.org
mtllib platform_cx_1.mtl
o platform_cx_1
v 2.000000 -0.079999 -2.000000
v -0.000000 -0.079999 -2.000000
v 2.000000 -0.029999 -2.000000
v -0.000000 -0.029999 -2.000000
v 2.000000 -0.079999 2.000000
v 0.000000 -0.079999 2.000000
v 2.000000 -0.029999 2.000000
v 0.000000 -0.029999 2.000000
v 2.000000 -0.080000 2.000000
v 2.000000 0.090000 2.000000
v 2.000000 -0.080000 -2.000000
v 2.000000 0.090000 -2.000000
v 2.030000 0.090000 2.000000
v 2.030000 0.090000 -2.000000
v 2.030000 -0.110000 2.000000
v 2.030000 -0.110000 -2.000000
v 1.830000 -0.080000 2.000000
v 1.830000 -0.080000 -2.000000
v 1.830000 -0.110000 2.000000
v 1.830000 -0.110000 -2.000000
vn -0.0000 -0.0000 -1.0000
vn -0.0000 1.0000 -0.0000
vn -0.0000 -0.0000 1.0000
vn -0.0000 -1.0000 -0.0000
vn -1.0000 -0.0000 -0.0000
vn 1.0000 -0.0000 -0.0000
vt 0.000000 0.000000
vt 0.000000 1.000000
vt 0.012500 0.000000
vt 0.000000 0.000000
vt 0.012500 1.000000
vt 0.000000 1.000000
vt 0.987500 0.000000
vt 1.000000 0.000000
vt 0.987500 1.000000
vt 1.000000 1.000000
vt 1.000000 0.000000
vt 1.000000 1.000000
vt 0.000000 0.049231
vt 0.507812 0.049231
vt 0.000000 0.320000
vt 0.507812 0.320000
vt 0.000000 0.123077
vt 1.000000 0.049231
vt 0.507812 0.049231
vt 1.000000 0.320000
vt 1.000000 0.123077
vt 0.507812 0.320000
vt 0.000000 0.320000
vt 0.515625 0.320000
vt 0.000000 0.073846
vt 1.000000 0.320000
vt 1.000000 0.073846
vt 0.515625 0.320000
vt 0.000000 0.000000
vt 0.515625 0.000000
vt 1.000000 0.000000
vt 0.515625 0.000000
vt 0.460937 0.049231
vt 0.000000 0.123077
vt 0.460937 0.049231
vt 1.000000 0.123077
vt 0.000000 0.320000
vt 0.460937 0.000000
vt 0.000000 0.073846
vt 1.000000 0.320000
vt 0.460937 0.000000
vt 1.000000 0.073846
s 0
usemtl panel_hs_1
f 1/1/1 2/2/1 4/5/1 3/3/1
f 3/4/2 4/6/2 8/12/2 7/11/2
f 7/11/3 8/12/3 6/9/3 5/7/3
f 5/8/4 6/10/4 2/2/4 1/1/4
usemtl steel_beams_hr_1
f 9/13/5 10/15/5 12/20/5 11/18/5
f 13/23/6 15/29/6 16/31/6 14/26/6
f 9/14/3 15/30/3 13/24/3 10/16/3
f 15/29/4 19/37/4 20/40/4 16/31/4
f 14/27/2 12/21/2 10/17/2 13/25/2
f 9/14/3 17/33/3 19/38/3 15/30/3
f 16/32/1 20/41/1 18/35/1 11/19/1
f 17/34/5 18/36/5 20/42/5 19/39/5
f 14/28/1 16/32/1 11/19/1 12/22/1
