# Blender 3.4.0
# www.blender.org
mtllib ramp_platform_wide_mx_1.mtl
o ramp_platform_wide_mx_1
v 0.000000 1.000000 -2.300009
v 0.000000 1.000000 2.299993
v 0.000000 0.000000 2.299994
v -0.000000 0.000000 -2.300010
v -3.700001 0.000000 2.299994
v -3.700001 0.000000 -2.300009
vn -0.2609 0.9654 -0.0000
vn -0.0000 -0.0000 -1.0000
vn -0.0000 -0.0000 1.0000
vn 1.0000 -0.0000 -0.0000
vt 0.962500 -0.075001
vt 0.962500 0.624998
vt 0.624998 -0.075001
vt 0.962500 1.075000
vt 0.962500 0.625002
vt 0.625002 1.075000
vt 0.962500 0.375002
vt 0.375002 1.075001
vt 0.962500 0.374998
vt 0.374998 -0.075000
vt 0.037500 1.075001
vt 0.037500 0.375002
vt 0.037500 -0.075000
vt 0.037500 0.374998
s 1
usemtl concrete_hr_4
f 2/4/1 1/1/1 6/13/1 5/11/1
f 1/2/2 4/9/2 6/14/2
f 3/7/3 2/5/3 5/12/3
f 2/6/4 3/8/4 4/10/4 1/3/4
