# Blender 3.4.0
# www.blender.org
mtllib roof_hr_3_middle_angle.mtl
o roof_hr_3_middle_angle
v -2.000000 0.060000 2.000000
v 2.000000 1.060000 2.000000
v -2.000000 0.060001 -2.000000
v 2.000000 1.060001 -2.000000
v 2.000000 1.060000 1.851852
v 2.000000 1.060000 1.703704
v 2.000000 1.060000 1.555556
v 2.000000 1.060001 1.407407
v 2.000000 1.060001 1.259259
v 2.000000 1.060001 1.111111
v 2.000000 1.060001 0.962963
v 2.000000 1.060001 0.814815
v 2.000000 1.060001 0.666667
v 2.000000 1.060001 0.518518
v 2.000000 1.060001 0.370370
v 2.000000 1.060001 0.222222
v 2.000000 1.060001 0.074074
v 2.000000 1.060001 -0.074074
v 2.000000 1.060001 -0.222222
v 2.000000 1.060001 -0.370370
v 2.000000 1.060001 -0.518519
v 2.000000 1.060001 -0.666667
v 2.000000 1.060001 -0.814815
v 2.000000 1.060001 -0.962963
v 2.000000 1.060001 -1.111111
v 2.000000 1.060001 -1.259259
v 2.000000 1.060001 -1.407407
v 2.000000 1.060001 -1.555555
v 2.000000 1.060001 -1.703704
v 2.000000 1.060001 -1.851852
v -2.000000 0.060001 -1.851852
v -2.000000 0.060001 -1.703704
v -2.000000 0.060001 -1.555555
v -2.000000 0.060001 -1.407407
v -2.000000 0.060001 -1.259259
v -2.000000 0.060001 -1.111111
v -2.000000 0.060001 -0.962963
v -2.000000 0.060001 -0.814815
v -2.000000 0.060001 -0.666666
v -2.000000 0.060001 -0.518518
v -2.000000 0.060001 -0.370370
v -2.000000 0.060001 -0.222222
v -2.000000 0.060001 -0.074074
v -2.000000 0.060001 0.074074
v -2.000000 0.060001 0.222222
v -2.000000 0.060001 0.370371
v -2.000000 0.060000 0.518519
v -2.000000 0.060000 0.666667
v -2.000000 0.060000 0.814815
v -2.000000 0.060000 0.962963
v -2.000000 0.060000 1.111111
v -2.000000 0.060000 1.259259
v -2.000000 0.060000 1.407408
v -2.000000 0.060000 1.555556
v -2.000000 0.060000 1.703704
v -2.000000 0.060000 1.851852
v 2.000000 1.110001 -1.925926
v -2.000000 0.110001 -1.925926
v 2.000000 1.110001 -1.777778
v -2.000000 0.110001 -1.777778
v 2.000000 1.110001 -1.629629
v -2.000000 0.110001 -1.629630
v 2.000000 1.110001 -1.481481
v -2.000000 0.110001 -1.481481
v 2.000000 1.110001 -1.333333
v -2.000000 0.110001 -1.333333
v 2.000000 1.110001 -1.185185
v -2.000000 0.110001 -1.185185
v 2.000000 1.110001 -1.037037
v -2.000000 0.110001 -1.037037
v 2.000000 1.110001 -0.888889
v -2.000000 0.110001 -0.888889
v 2.000000 1.110001 -0.740741
v -2.000000 0.110001 -0.740740
v 2.000000 1.110001 -0.592593
v -2.000000 0.110001 -0.592592
v 2.000000 1.110001 -0.444444
v -2.000000 0.110001 -0.444444
v 2.000000 1.110001 -0.296296
v -2.000000 0.110001 -0.296296
v 2.000000 1.110001 -0.148148
v -2.000000 0.110001 -0.148148
v 2.000000 1.110001 -0.000000
v -2.000000 0.110001 0.000000
v 2.000000 1.110001 0.148148
v -2.000000 0.110001 0.148148
v 2.000000 1.110001 0.296296
v -2.000000 0.110001 0.296296
v 2.000000 1.110001 0.444444
v -2.000000 0.110001 0.444445
v 2.000000 1.110001 0.592593
v -2.000000 0.110000 0.592593
v 2.000000 1.110000 0.740741
v -2.000000 0.110000 0.740741
v 2.000000 1.110000 0.888889
v -2.000000 0.110000 0.888889
v 2.000000 1.110000 1.037037
v -2.000000 0.110000 1.037037
v 2.000000 1.110000 1.185185
v -2.000000 0.110000 1.185185
v 2.000000 1.110000 1.333333
v -2.000000 0.110000 1.333333
v 2.000000 1.110000 1.481481
v -2.000000 0.110000 1.481482
v 2.000000 1.110000 1.777778
v -2.000000 0.110000 1.777778
v -2.000000 0.110000 1.925926
v 2.000000 1.110000 1.925926
v 2.000000 1.110000 1.629630
v -2.000000 0.110000 1.629630
v -2.000000 0.050000 2.000000
v 2.000000 1.050000 2.000000
v 2.000000 1.100001 -1.925926
v 2.000000 1.050001 -2.000000
v -2.000000 0.050001 -2.000000
v -2.000000 0.100000 1.925926
v 2.000000 1.100000 1.925926
v 2.000000 1.050001 1.851852
v 2.000000 1.100000 1.777778
v 2.000000 1.050001 1.703704
v 2.000000 1.100000 1.629630
v 2.000000 1.050001 1.555555
v 2.000000 1.100000 1.481481
v 2.000000 1.050001 1.407407
v 2.000000 1.100001 1.333333
v 2.000000 1.050001 1.259259
v 2.000000 1.100001 1.185185
v 2.000000 1.050001 1.111111
v 2.000000 1.100001 1.037037
v 2.000000 1.050001 0.962963
v 2.000000 1.100001 0.888889
v 2.000000 1.050001 0.814815
v 2.000000 1.100001 0.740741
v 2.000000 1.050001 0.666667
v 2.000000 1.100001 0.592593
v 2.000000 1.050001 0.518518
v 2.000000 1.100001 0.444444
v 2.000000 1.050001 0.370370
v 2.000000 1.100001 0.296296
v 2.000000 1.050001 0.222222
v 2.000000 1.100001 0.148148
v 2.000000 1.050001 0.074074
v 2.000000 1.100001 -0.000000
v 2.000000 1.050001 -0.074074
v 2.000000 1.100001 -0.148148
v 2.000000 1.050001 -0.222222
v 2.000000 1.100001 -0.296296
v 2.000000 1.050001 -0.370370
v 2.000000 1.100001 -0.444445
v 2.000000 1.050001 -0.518519
v 2.000000 1.100001 -0.592593
v 2.000000 1.050001 -0.666667
v 2.000000 1.100001 -0.740741
v 2.000000 1.050001 -0.814815
v 2.000000 1.100001 -0.888889
v 2.000000 1.050001 -0.962963
v 2.000000 1.100001 -1.037037
v 2.000000 1.050001 -1.111111
v 2.000000 1.100001 -1.185185
v 2.000000 1.050001 -1.259259
v 2.000000 1.100001 -1.333333
v 2.000000 1.050001 -1.407408
v 2.000000 1.100001 -1.481481
v 2.000000 1.050001 -1.555556
v 2.000000 1.100001 -1.629629
v 2.000000 1.050001 -1.703704
v 2.000000 1.100001 -1.777778
v 2.000000 1.050001 -1.851852
v -2.000000 0.100001 -1.925926
v -2.000000 0.050001 -1.851852
v -2.000000 0.100001 -1.777778
v -2.000000 0.050001 -1.703704
v -2.000000 0.100001 -1.629630
v -2.000000 0.050001 -1.555555
v -2.000000 0.100001 -1.481481
v -2.000000 0.050001 -1.407407
v -2.000000 0.100001 -1.333333
v -2.000000 0.050001 -1.259259
v -2.000000 0.100001 -1.185185
v -2.000000 0.050001 -1.111111
v -2.000000 0.100001 -1.037037
v -2.000000 0.050001 -0.962963
v -2.000000 0.100001 -0.888889
v -2.000000 0.050001 -0.814815
v -2.000000 0.100001 -0.740740
v -2.000000 0.050001 -0.666666
v -2.000000 0.100001 -0.592592
v -2.000000 0.050001 -0.518518
v -2.000000 0.100001 -0.444444
v -2.000000 0.050001 -0.370370
v -2.000000 0.100001 -0.296296
v -2.000000 0.050001 -0.222222
v -2.000000 0.100001 -0.148148
v -2.000000 0.050001 -0.074074
v -2.000000 0.100001 0.000000
v -2.000000 0.050001 0.074074
v -2.000000 0.100001 0.148148
v -2.000000 0.050001 0.222222
v -2.000000 0.100001 0.296296
v -2.000000 0.050000 0.370371
v -2.000000 0.100001 0.444445
v -2.000000 0.050000 0.518519
v -2.000000 0.100001 0.592593
v -2.000000 0.050000 0.666667
v -2.000000 0.100000 0.740741
v -2.000000 0.050000 0.814815
v -2.000000 0.100000 0.888889
v -2.000000 0.050000 0.962963
v -2.000000 0.100000 1.037037
v -2.000000 0.050000 1.111111
v -2.000000 0.100000 1.185185
v -2.000000 0.050000 1.259259
v -2.000000 0.100000 1.333333
v -2.000000 0.050000 1.407408
v -2.000000 0.100000 1.481482
v -2.000000 0.050000 1.555556
v -2.000000 0.100000 1.629630
v -2.000000 0.050000 1.703704
v -2.000000 0.100000 1.777778
v -2.000000 0.050000 1.851852
v -1.018648 0.293319 -2.000000
v -1.018648 0.293319 2.000000
v -1.006552 0.244804 -2.000000
v -1.006552 0.244804 2.000000
v -1.164193 0.257031 2.000000
v -1.152097 0.208516 2.000000
v -1.164193 0.257031 -2.000000
v -1.152097 0.208516 -2.000000
v 1.062736 0.817818 -2.000000
v 1.062737 0.817818 2.000000
v 1.074832 0.769303 -2.000000
v 1.074833 0.769303 2.000000
v 0.917192 0.781530 2.000000
v 0.929288 0.733015 2.000000
v 0.917192 0.781529 -2.000000
v 0.929288 0.733015 -2.000000
vn -0.2425 0.9701 -0.0000
vn -0.2029 0.8116 -0.5478
vn -0.2029 0.8116 0.5478
vn 0.2425 -0.9701 -0.0000
vn 0.2029 -0.8116 0.5478
vn 0.2029 -0.8116 -0.5478
vn 1.0000 -0.0000 -0.0000
vn -1.0000 -0.0000 -0.0000
vn -0.7661 -0.0000 -0.6427
vn -0.5932 -0.0000 -0.8050
vn -0.7661 -0.0000 0.6427
vn -0.5932 -0.0000 0.8050
vn 0.4738 -0.0000 0.8806
vn 0.8527 -0.0000 0.5223
vn 0.4738 -0.0000 -0.8806
vn 0.8527 -0.0000 -0.5223
vn -0.2419 0.9703 -0.0000
vn 0.9703 0.2419 -0.0000
vn 0.2419 -0.9703 -0.0000
vn -0.0000 -0.0000 -1.0000
vn -0.0000 -0.0000 1.0000
vn -0.9703 -0.2419 -0.0000
vt -0.500000 -0.500000
vt -0.500000 1.500000
vt 1.500000 -0.500000
vt 1.500000 1.500000
vt -0.425926 1.500000
vt -0.351852 1.500000
vt -0.277778 1.500000
vt -0.203704 1.500000
vt -0.129630 1.500000
vt -0.055555 1.500000
vt 0.018519 1.500000
vt 0.092593 1.500000
vt 0.166667 1.500000
vt 0.240741 1.500000
vt 0.314815 1.500000
vt 0.388889 1.500000
vt 0.462963 1.500000
vt 0.537037 1.500000
vt 0.611111 1.500000
vt 0.685185 1.500000
vt 0.759259 1.500000
vt 0.833333 1.500000
vt 0.907407 1.500000
vt 0.981481 1.500000
vt 1.055556 1.500000
vt 1.129630 1.500000
vt 1.203703 1.500000
vt 1.277778 1.500000
vt 1.351852 1.500000
vt 1.425926 1.500000
vt 1.425926 -0.500000
vt 1.351852 -0.500000
vt 1.277778 -0.500000
vt 1.203704 -0.500000
vt 1.129630 -0.500000
vt 1.055555 -0.500000
vt 0.981481 -0.500000
vt 0.907407 -0.500000
vt 0.833333 -0.500000
vt 0.759259 -0.500000
vt 0.685185 -0.500000
vt 0.611111 -0.500000
vt 0.537037 -0.500000
vt 0.462963 -0.500000
vt 0.388889 -0.500000
vt 0.314815 -0.500000
vt 0.240741 -0.500000
vt 0.166667 -0.500000
vt 0.092593 -0.500000
vt 0.018518 -0.500000
vt -0.055556 -0.500000
vt -0.129630 -0.500000
vt -0.203704 -0.500000
vt -0.277778 -0.500000
vt -0.351852 -0.500000
vt -0.425926 -0.500000
vt 1.462963 1.500000
vt 1.462963 -0.500000
vt 1.388889 1.500000
vt 1.388889 -0.500000
vt 1.314815 1.500000
vt 1.314815 -0.500000
vt 1.240741 1.500000
vt 1.240741 -0.500000
vt 1.166666 1.500000
vt 1.166667 -0.500000
vt 1.092593 1.500000
vt 1.092592 -0.500000
vt 1.018518 1.500000
vt 1.018518 -0.500000
vt 0.944444 1.500000
vt 0.944444 -0.500000
vt 0.870370 1.500000
vt 0.870370 -0.500000
vt 0.796296 1.500000
vt 0.796296 -0.500000
vt 0.722222 1.500000
vt 0.722222 -0.500000
vt 0.648148 1.500000
vt 0.648148 -0.500000
vt 0.574074 1.500000
vt 0.574074 -0.500000
vt 0.500000 1.500000
vt 0.500000 -0.500000
vt 0.425926 1.500000
vt 0.425926 -0.500000
vt 0.351852 1.500000
vt 0.351852 -0.500000
vt 0.277778 1.500000
vt 0.277778 -0.500000
vt 0.203704 1.500000
vt 0.203704 -0.500000
vt 0.129630 1.500000
vt 0.129630 -0.500000
vt 0.055556 1.500000
vt 0.055555 -0.500000
vt -0.018518 1.500000
vt -0.018519 -0.500000
vt -0.092593 1.500000
vt -0.092593 -0.500000
vt -0.166667 1.500000
vt -0.166667 -0.500000
vt -0.240741 1.500000
vt -0.240741 -0.500000
vt -0.388889 1.500000
vt -0.388889 -0.500000
vt -0.462963 -0.500000
vt -0.462963 1.500000
vt -0.314815 1.500000
vt -0.314815 -0.500000
vt -0.500000 -0.500000
vt -0.500000 1.500000
vt 1.462963 1.500000
vt 1.500000 1.500000
vt 1.500000 -0.500000
vt -0.462963 -0.500000
vt -0.462963 1.500000
vt -0.425926 1.500000
vt -0.388889 1.500000
vt -0.351852 1.500000
vt -0.314815 1.500000
vt -0.277778 1.500000
vt -0.240741 1.500000
vt -0.203704 1.500000
vt -0.166667 1.500000
vt -0.129630 1.500000
vt -0.092593 1.500000
vt -0.055555 1.500000
vt -0.018518 1.500000
vt 0.018519 1.500000
vt 0.055556 1.500000
vt 0.092593 1.500000
vt 0.129630 1.500000
vt 0.166667 1.500000
vt 0.203704 1.500000
vt 0.240741 1.500000
vt 0.277778 1.500000
vt 0.314815 1.500000
vt 0.351852 1.500000
vt 0.388889 1.500000
vt 0.425926 1.500000
vt 0.462963 1.500000
vt 0.500000 1.500000
vt 0.537037 1.500000
vt 0.574074 1.500000
vt 0.611111 1.500000
vt 0.648148 1.500000
vt 0.685185 1.500000
vt 0.722222 1.500000
vt 0.759259 1.500000
vt 0.796296 1.500000
vt 0.833333 1.500000
vt 0.870370 1.500000
vt 0.907407 1.500000
vt 0.944444 1.500000
vt 0.981481 1.500000
vt 1.018518 1.500000
vt 1.055556 1.500000
vt 1.092593 1.500000
vt 1.129630 1.500000
vt 1.166666 1.500000
vt 1.203703 1.500000
vt 1.240741 1.500000
vt 1.277778 1.500000
vt 1.314815 1.500000
vt 1.351852 1.500000
vt 1.388889 1.500000
vt 1.425926 1.500000
vt 1.462963 -0.500000
vt 1.425926 -0.500000
vt 1.388889 -0.500000
vt 1.351852 -0.500000
vt 1.314815 -0.500000
vt 1.277778 -0.500000
vt 1.240741 -0.500000
vt 1.203704 -0.500000
vt 1.166667 -0.500000
vt 1.129630 -0.500000
vt 1.092592 -0.500000
vt 1.055555 -0.500000
vt 1.018518 -0.500000
vt 0.981481 -0.500000
vt 0.944444 -0.500000
vt 0.907407 -0.500000
vt 0.870370 -0.500000
vt 0.833333 -0.500000
vt 0.796296 -0.500000
vt 0.759259 -0.500000
vt 0.722222 -0.500000
vt 0.685185 -0.500000
vt 0.648148 -0.500000
vt 0.611111 -0.500000
vt 0.574074 -0.500000
vt 0.537037 -0.500000
vt 0.500000 -0.500000
vt 0.462963 -0.500000
vt 0.425926 -0.500000
vt 0.388889 -0.500000
vt 0.351852 -0.500000
vt 0.314815 -0.500000
vt 0.277778 -0.500000
vt 0.240741 -0.500000
vt 0.203704 -0.500000
vt 0.166667 -0.500000
vt 0.129630 -0.500000
vt 0.092593 -0.500000
vt 0.055555 -0.500000
vt 0.018518 -0.500000
vt -0.018519 -0.500000
vt -0.055556 -0.500000
vt -0.092593 -0.500000
vt -0.129630 -0.500000
vt -0.166667 -0.500000
vt -0.203704 -0.500000
vt -0.240741 -0.500000
vt -0.277778 -0.500000
vt -0.314815 -0.500000
vt -0.351852 -0.500000
vt -0.388889 -0.500000
vt -0.425926 -0.500000
vt 0.508177 -0.000000
vt 0.062805 0.000000
vt 0.459948 0.602462
vt 0.508176 1.600000
vt 0.062805 1.600000
vt 0.459948 0.602462
vt 0.082805 0.000000
vt 0.925319 0.000000
vt 0.479948 0.602462
vt 0.082805 1.600000
vt 0.925319 1.600001
vt 0.479948 0.602462
vt 0.448176 1.600000
vt 0.459948 0.542462
vt 0.458622 1.600000
vt 0.865319 1.600000
vt 0.479948 0.542462
vt 0.478388 1.600000
vt 0.448176 -0.000000
vt 0.459948 0.542462
vt 0.462795 0.000000
vt 0.865319 0.000000
vt 0.479948 0.542462
vt 0.482098 -0.000000
vt 0.846755 -0.000000
vt 0.060651 -0.000000
vt 0.457794 0.941041
vt 0.846755 1.599999
vt 0.060651 1.600000
vt 0.457794 0.941042
vt 0.080650 -0.000000
vt 1.263898 -0.000000
vt 0.477794 0.941042
vt 0.080651 1.600000
vt 1.263899 1.600000
vt 0.477794 0.941042
vt 0.786755 1.599999
vt 0.457794 0.881042
vt 0.456706 1.600002
vt 1.203898 1.600000
vt 0.477794 0.881042
vt 0.476390 1.600001
vt 0.786755 -0.000000
vt 0.457793 0.881041
vt 0.460502 0.000000
vt 1.203898 0.000000
vt 0.477793 0.881041
vt 0.479887 0.000000
s 1
usemtl roof_hr_5
f 58/58/1 57/57/1 4/4/2 3/3/2
f 107/107/1 108/108/1 5/5/2 56/56/2
f 106/106/1 105/105/1 6/6/2 55/55/2
f 110/110/1 109/109/1 7/7/2 54/54/2
f 104/104/1 103/103/1 8/8/2 53/53/2
f 102/102/1 101/101/1 9/9/2 52/52/2
f 100/100/1 99/99/1 10/10/2 51/51/2
f 98/98/1 97/97/1 11/11/2 50/50/2
f 96/96/1 95/95/1 12/12/2 49/49/2
f 94/94/1 93/93/1 13/13/2 48/48/2
f 92/92/1 91/91/1 14/14/2 47/47/2
f 90/90/1 89/89/1 15/15/2 46/46/2
f 88/88/1 87/87/1 16/16/2 45/45/2
f 86/86/1 85/85/1 17/17/2 44/44/2
f 84/84/1 83/83/1 18/18/2 43/43/2
f 82/82/1 81/81/1 19/19/2 42/42/2
f 80/80/1 79/79/1 20/20/2 41/41/2
f 78/78/1 77/77/1 21/21/2 40/40/2
f 76/76/1 75/75/1 22/22/2 39/39/2
f 74/74/1 73/73/1 23/23/2 38/38/2
f 72/72/1 71/71/1 24/24/2 37/37/2
f 70/70/1 69/69/1 25/25/2 36/36/2
f 68/68/1 67/67/1 26/26/2 35/35/2
f 66/66/1 65/65/1 27/27/2 34/34/2
f 64/64/1 63/63/1 28/28/2 33/33/2
f 62/62/1 61/61/1 29/29/2 32/32/2
f 60/60/1 59/59/1 30/30/2 31/31/2
f 31/31/3 30/30/3 57/57/1 58/58/1
f 32/32/3 29/29/3 59/59/1 60/60/1
f 33/33/3 28/28/3 61/61/1 62/62/1
f 34/34/3 27/27/3 63/63/1 64/64/1
f 35/35/3 26/26/3 65/65/1 66/66/1
f 36/36/3 25/25/3 67/67/1 68/68/1
f 37/37/3 24/24/3 69/69/1 70/70/1
f 38/38/3 23/23/3 71/71/1 72/72/1
f 39/39/3 22/22/3 73/73/1 74/74/1
f 40/40/3 21/21/3 75/75/1 76/76/1
f 41/41/3 20/20/3 77/77/1 78/78/1
f 42/42/3 19/19/3 79/79/1 80/80/1
f 43/43/3 18/18/3 81/81/1 82/82/1
f 44/44/3 17/17/3 83/83/1 84/84/1
f 45/45/3 16/16/3 85/85/1 86/86/1
f 46/46/3 15/15/3 87/87/1 88/88/1
f 47/47/3 14/14/3 89/89/1 90/90/1
f 48/48/3 13/13/3 91/91/1 92/92/1
f 49/49/3 12/12/3 93/93/1 94/94/1
f 50/50/3 11/11/3 95/95/1 96/96/1
f 51/51/3 10/10/3 97/97/1 98/98/1
f 52/52/3 9/9/3 99/99/1 100/100/1
f 53/53/3 8/8/3 101/101/1 102/102/1
f 54/54/3 7/7/3 103/103/1 104/104/1
f 56/56/3 5/5/3 105/105/1 106/106/1
f 1/1/3 2/2/3 108/108/1 107/107/1
f 55/55/3 6/6/3 109/109/1 110/110/1
f 169/169/4 115/115/5 114/114/5 113/113/4
f 116/116/4 220/220/5 118/118/5 117/117/4
f 219/219/4 218/218/5 120/120/5 119/119/4
f 217/217/4 216/216/5 122/122/5 121/121/4
f 215/215/4 214/214/5 124/124/5 123/123/4
f 213/213/4 212/212/5 126/126/5 125/125/4
f 211/211/4 210/210/5 128/128/5 127/127/4
f 209/209/4 208/208/5 130/130/5 129/129/4
f 207/207/4 206/206/5 132/132/5 131/131/4
f 205/205/4 204/204/5 134/134/5 133/133/4
f 203/203/4 202/202/5 136/136/5 135/135/4
f 201/201/4 200/200/5 138/138/5 137/137/4
f 199/199/4 198/198/5 140/140/5 139/139/4
f 197/197/4 196/196/5 142/142/5 141/141/4
f 195/195/4 194/194/5 144/144/5 143/143/4
f 193/193/4 192/192/5 146/146/5 145/145/4
f 191/191/4 190/190/5 148/148/5 147/147/4
f 189/189/4 188/188/5 150/150/5 149/149/4
f 187/187/4 186/186/5 152/152/5 151/151/4
f 185/185/4 184/184/5 154/154/5 153/153/4
f 183/183/4 182/182/5 156/156/5 155/155/4
f 181/181/4 180/180/5 158/158/5 157/157/4
f 179/179/4 178/178/5 160/160/5 159/159/4
f 177/177/4 176/176/5 162/162/5 161/161/4
f 175/175/4 174/174/5 164/164/5 163/163/4
f 173/173/4 172/172/5 166/166/5 165/165/4
f 171/171/4 170/170/5 168/168/5 167/167/4
f 170/170/6 169/169/4 113/113/4 168/168/6
f 172/172/6 171/171/4 167/167/4 166/166/6
f 174/174/6 173/173/4 165/165/4 164/164/6
f 176/176/6 175/175/4 163/163/4 162/162/6
f 178/178/6 177/177/4 161/161/4 160/160/6
f 180/180/6 179/179/4 159/159/4 158/158/6
f 182/182/6 181/181/4 157/157/4 156/156/6
f 184/184/6 183/183/4 155/155/4 154/154/6
f 186/186/6 185/185/4 153/153/4 152/152/6
f 188/188/6 187/187/4 151/151/4 150/150/6
f 190/190/6 189/189/4 149/149/4 148/148/6
f 192/192/6 191/191/4 147/147/4 146/146/6
f 194/194/6 193/193/4 145/145/4 144/144/6
f 196/196/6 195/195/4 143/143/4 142/142/6
f 198/198/6 197/197/4 141/141/4 140/140/6
f 200/200/6 199/199/4 139/139/4 138/138/6
f 202/202/6 201/201/4 137/137/4 136/136/6
f 204/204/6 203/203/4 135/135/4 134/134/6
f 206/206/6 205/205/4 133/133/4 132/132/6
f 208/208/6 207/207/4 131/131/4 130/130/6
f 210/210/6 209/209/4 129/129/4 128/128/6
f 212/212/6 211/211/4 127/127/4 126/126/6
f 214/214/6 213/213/4 125/125/4 124/124/6
f 216/216/6 215/215/4 123/123/4 122/122/6
f 220/220/6 219/219/4 119/119/4 118/118/6
f 111/111/6 116/116/4 117/117/4 112/112/6
f 218/218/6 217/217/4 121/121/4 120/120/6
f 99/99/7 127/127/7 128/128/7 10/10/7
f 20/20/7 148/148/7 149/149/7 77/77/7
f 97/97/7 129/129/7 130/130/7 11/11/7
f 40/40/8 188/188/8 189/189/8 78/78/8
f 95/95/7 131/131/7 132/132/7 12/12/7
f 93/93/7 133/133/7 134/134/7 13/13/7
f 19/19/7 146/146/7 147/147/7 79/79/7
f 91/91/7 135/135/7 136/136/7 14/14/7
f 41/41/8 190/190/8 191/191/8 80/80/8
f 89/89/7 137/137/7 138/138/7 15/15/7
f 87/87/7 139/139/7 140/140/7 16/16/7
f 18/18/7 144/144/7 145/145/7 81/81/7
f 85/85/7 141/141/7 142/142/7 17/17/7
f 42/42/8 192/192/8 193/193/8 82/82/8
f 83/83/7 143/143/7 144/144/7 18/18/7
f 81/81/7 145/145/7 146/146/7 19/19/7
f 17/17/7 142/142/7 143/143/7 83/83/7
f 79/79/7 147/147/7 148/148/7 20/20/7
f 43/43/8 194/194/8 195/195/8 84/84/8
f 77/77/7 149/149/7 150/150/7 21/21/7
f 75/75/7 151/151/7 152/152/7 22/22/7
f 16/16/7 140/140/7 141/141/7 85/85/7
f 73/73/7 153/153/7 154/154/7 23/23/7
f 44/44/8 196/196/8 197/197/8 86/86/8
f 71/71/7 155/155/7 156/156/7 24/24/7
f 69/69/7 157/157/7 158/158/7 25/25/7
f 15/15/7 138/138/7 139/139/7 87/87/7
f 67/67/7 159/159/7 160/160/7 26/26/7
f 45/45/8 198/198/8 199/199/8 88/88/8
f 65/65/7 161/161/7 162/162/7 27/27/7
f 63/63/7 163/163/7 164/164/7 28/28/7
f 14/14/7 136/136/7 137/137/7 89/89/7
f 61/61/7 165/165/7 166/166/7 29/29/7
f 46/46/8 200/200/8 201/201/8 90/90/8
f 59/59/7 167/167/7 168/168/7 30/30/7
f 58/58/8 169/169/8 170/170/8 31/31/8
f 13/13/7 134/134/7 135/135/7 91/91/7
f 30/30/7 168/168/7 113/113/7 57/57/7
f 60/60/8 171/171/8 172/172/8 32/32/8
f 47/47/8 202/202/8 203/203/8 92/92/8
f 3/3/9 115/115/10 169/169/8 58/58/8
f 62/62/8 173/173/8 174/174/8 33/33/8
f 64/64/8 175/175/8 176/176/8 34/34/8
f 12/12/7 132/132/7 133/133/7 93/93/7
f 29/29/7 166/166/7 167/167/7 59/59/7
f 66/66/8 177/177/8 178/178/8 35/35/8
f 48/48/8 204/204/8 205/205/8 94/94/8
f 31/31/8 170/170/8 171/171/8 60/60/8
f 68/68/8 179/179/8 180/180/8 36/36/8
f 70/70/8 181/181/8 182/182/8 37/37/8
f 11/11/7 130/130/7 131/131/7 95/95/7
f 28/28/7 164/164/7 165/165/7 61/61/7
f 72/72/8 183/183/8 184/184/8 38/38/8
f 49/49/8 206/206/8 207/207/8 96/96/8
f 32/32/8 172/172/8 173/173/8 62/62/8
f 74/74/8 185/185/8 186/186/8 39/39/8
f 76/76/8 187/187/8 188/188/8 40/40/8
f 10/10/7 128/128/7 129/129/7 97/97/7
f 27/27/7 162/162/7 163/163/7 63/63/7
f 78/78/8 189/189/8 190/190/8 41/41/8
f 50/50/8 208/208/8 209/209/8 98/98/8
f 33/33/8 174/174/8 175/175/8 64/64/8
f 80/80/8 191/191/8 192/192/8 42/42/8
f 82/82/8 193/193/8 194/194/8 43/43/8
f 9/9/7 126/126/7 127/127/7 99/99/7
f 26/26/7 160/160/7 161/161/7 65/65/7
f 84/84/8 195/195/8 196/196/8 44/44/8
f 51/51/8 210/210/8 211/211/8 100/100/8
f 34/34/8 176/176/8 177/177/8 66/66/8
f 86/86/8 197/197/8 198/198/8 45/45/8
f 88/88/8 199/199/8 200/200/8 46/46/8
f 8/8/7 124/124/7 125/125/7 101/101/7
f 25/25/7 158/158/7 159/159/7 67/67/7
f 90/90/8 201/201/8 202/202/8 47/47/8
f 52/52/8 212/212/8 213/213/8 102/102/8
f 35/35/8 178/178/8 179/179/8 68/68/8
f 92/92/8 203/203/8 204/204/8 48/48/8
f 94/94/8 205/205/8 206/206/8 49/49/8
f 7/7/7 122/122/7 123/123/7 103/103/7
f 24/24/7 156/156/7 157/157/7 69/69/7
f 96/96/8 207/207/8 208/208/8 50/50/8
f 53/53/8 214/214/8 215/215/8 104/104/8
f 36/36/8 180/180/8 181/181/8 70/70/8
f 98/98/8 209/209/8 210/210/8 51/51/8
f 100/100/8 211/211/8 212/212/8 52/52/8
f 5/5/7 118/118/7 119/119/7 105/105/7
f 1/1/11 111/111/12 112/112/13 2/2/14
f 23/23/7 154/154/7 155/155/7 71/71/7
f 102/102/8 213/213/8 214/214/8 53/53/8
f 55/55/8 218/218/8 219/219/8 106/106/8
f 57/57/7 113/113/7 114/114/15 4/4/16
f 37/37/8 182/182/8 183/183/8 72/72/8
f 104/104/8 215/215/8 216/216/8 54/54/8
f 4/4/16 114/114/15 115/115/10 3/3/9
f 110/110/8 217/217/8 218/218/8 55/55/8
f 56/56/8 220/220/8 116/116/8 107/107/8
f 107/107/8 116/116/8 111/111/12 1/1/11
f 22/22/7 152/152/7 153/153/7 73/73/7
f 106/106/8 219/219/8 220/220/8 56/56/8
f 2/2/14 112/112/13 117/117/7 108/108/7
f 108/108/7 117/117/7 118/118/7 5/5/7
f 38/38/8 184/184/8 185/185/8 74/74/8
f 105/105/7 119/119/7 120/120/7 6/6/7
f 6/6/7 120/120/7 121/121/7 109/109/7
f 109/109/7 121/121/7 122/122/7 7/7/7
f 21/21/7 150/150/7 151/151/7 75/75/7
f 54/54/8 216/216/8 217/217/8 110/110/8
f 103/103/7 123/123/7 124/124/7 8/8/7
f 39/39/8 186/186/8 187/187/8 76/76/8
f 101/101/7 125/125/7 126/126/7 9/9/7
s 0
usemtl planks_hr_3
f 225/233/17 222/224/17 221/221/17 227/239/17
f 221/222/18 222/225/18 224/230/18 223/227/18
f 228/242/19 223/228/19 224/231/19 226/236/19
f 227/240/20 221/223/20 223/229/20 228/243/20
f 226/237/21 224/232/21 222/226/21 225/234/21
f 227/241/22 228/244/22 226/238/22 225/235/22
f 233/257/17 230/248/17 229/245/17 235/263/17
f 229/246/18 230/249/18 232/254/18 231/251/18
f 236/266/19 231/252/19 232/255/19 234/260/19
f 235/264/20 229/247/20 231/253/20 236/267/20
f 234/261/21 232/256/21 230/250/21 233/258/21
f 235/265/22 236/268/22 234/262/22 233/259/22
