# Blender 3.4.0
# www.blender.org
mtllib roof_hr_3_side_2_angle_corner_2.mtl
o roof_hr_3_side_2_angle_corner_2
v 0.000000 0.060000 0.000000
v 0.000000 0.060000 0.148148
v 0.000000 0.060000 0.296296
v 0.000000 0.060000 0.444445
v 0.000000 0.060000 0.592593
v 0.000000 0.060000 0.740741
v 0.000000 0.110000 0.666667
v 0.000000 0.110000 0.518519
v 0.000000 0.110000 0.222222
v 0.000000 0.110000 0.074074
v 0.000000 0.110000 0.370370
v 0.000000 0.050000 0.000000
v 0.000000 0.100000 0.074074
v 0.000000 0.050000 0.148148
v 0.000000 0.100000 0.222222
v 0.000000 0.050000 0.296296
v 0.000000 0.100000 0.370370
v 0.000000 0.050000 0.444445
v 0.000000 0.100000 0.518519
v 0.000000 0.050000 0.592593
v 0.000000 0.100000 0.666667
v 0.000000 0.050000 0.740741
v -0.800000 -0.140000 0.000000
v -0.800000 -0.140000 0.148148
v -0.800000 -0.140000 0.296296
v -0.800000 -0.140000 0.444445
v -0.800000 -0.140000 0.592593
v -0.800000 -0.140000 0.740741
v -0.800000 -0.090000 0.666667
v -0.800000 -0.090000 0.518519
v -0.800000 -0.090000 0.222222
v -0.800000 -0.090000 0.074074
v -0.800000 -0.090000 0.370370
v -0.800000 -0.150000 0.000000
v -0.800000 -0.150000 0.148148
v -0.800000 -0.150000 0.296296
v -0.800000 -0.150000 0.444445
v -0.800000 -0.150000 0.592593
v -0.800000 -0.150000 0.740741
v -0.800000 -0.100000 0.666667
v -0.800000 -0.100000 0.518519
v -0.800000 -0.100000 0.222222
v -0.800000 -0.100000 0.074074
v -0.800000 -0.100000 0.370370
vn -0.2029 0.8116 0.5478
vn -0.2425 0.9701 -0.0000
vn 0.2029 -0.8116 -0.5478
vn 0.2425 -0.9701 -0.0000
vn -0.2029 0.8116 -0.5478
vn -0.0000 -0.0000 -1.0000
vn 0.2029 -0.8116 0.5478
vn -1.0000 -0.0000 -0.0000
vn 1.0000 -0.0000 -0.0000
vn -0.0000 -0.0000 1.0000
vt -0.500000 1.500000
vt -0.425926 1.500000
vt -0.351852 1.500000
vt -0.277778 1.500000
vt -0.203704 1.500000
vt -0.129630 1.500000
vt -0.166667 1.500000
vt -0.240741 1.500000
vt -0.388889 1.500000
vt -0.462963 1.500000
vt -0.314815 1.500000
vt -0.500000 1.500000
vt -0.462963 1.500000
vt -0.425926 1.500000
vt -0.388889 1.500000
vt -0.351852 1.500000
vt -0.314815 1.500000
vt -0.277778 1.500000
vt -0.240741 1.500000
vt -0.203704 1.500000
vt -0.166667 1.500000
vt -0.129630 1.500000
vt -0.500000 1.100000
vt -0.425926 1.100000
vt -0.351852 1.100000
vt -0.277778 1.100000
vt -0.203704 1.100000
vt -0.129630 1.100000
vt -0.166667 1.100000
vt -0.240741 1.100000
vt -0.388889 1.100000
vt -0.462963 1.100000
vt -0.314815 1.100000
vt -0.500000 1.100000
vt -0.425926 1.100000
vt -0.351852 1.100000
vt -0.277778 1.100000
vt -0.203704 1.100000
vt -0.129630 1.100000
vt -0.166667 1.100000
vt -0.240741 1.100000
vt -0.388889 1.100000
vt -0.462963 1.100000
vt -0.314815 1.100000
s 1
usemtl roof_hr_5
f 4/4/1 11/11/2 33/33/2 26/26/1
f 5/5/1 8/8/2 30/30/2 27/27/1
f 22/22/3 39/39/3 40/40/4 21/21/4
f 6/6/1 7/7/2 29/29/2 28/28/1
f 5/5/5 27/27/5 29/29/2 7/7/2
f 12/12/6 34/34/6 23/23/6 1/1/6
f 20/20/3 38/38/3 41/41/4 19/19/4
f 1/1/5 23/23/5 32/32/2 10/10/2
f 2/2/5 24/24/5 31/31/2 9/9/2
f 14/14/3 35/35/3 43/43/4 13/13/4
f 2/2/1 10/10/2 32/32/2 24/24/1
f 16/16/3 36/36/3 42/42/4 15/15/4
f 4/4/5 26/26/5 30/30/2 8/8/2
f 40/40/4 38/38/7 20/20/7 21/21/4
f 44/44/4 36/36/7 16/16/7 17/17/4
f 3/3/5 25/25/5 33/33/2 11/11/2
f 41/41/4 37/37/7 18/18/7 19/19/4
f 18/18/3 37/37/3 44/44/4 17/17/4
f 43/43/4 34/34/7 12/12/7 13/13/4
f 42/42/4 35/35/7 14/14/7 15/15/4
f 41/41/8 38/38/8 27/27/8 30/30/8
f 13/13/9 10/10/9 2/2/9 14/14/9
f 44/44/8 37/37/8 26/26/8 33/33/8
f 42/42/8 36/36/8 25/25/8 31/31/8
f 43/43/8 35/35/8 24/24/8 32/32/8
f 19/19/9 18/18/9 4/4/9 8/8/9
f 17/17/9 16/16/9 3/3/9 11/11/9
f 15/15/9 14/14/9 2/2/9 9/9/9
f 17/17/9 11/11/9 4/4/9 18/18/9
f 24/24/8 35/35/8 42/42/8 31/31/8
f 26/26/8 37/37/8 41/41/8 30/30/8
f 13/13/9 12/12/9 1/1/9 10/10/9
f 21/21/9 7/7/9 6/6/9 22/22/9
f 22/22/10 6/6/10 28/28/10 39/39/10
f 25/25/8 36/36/8 44/44/8 33/33/8
f 27/27/8 38/38/8 40/40/8 29/29/8
f 40/40/8 39/39/8 28/28/8 29/29/8
f 19/19/9 8/8/9 5/5/9 20/20/9
f 15/15/9 9/9/9 3/3/9 16/16/9
f 21/21/9 20/20/9 5/5/9 7/7/9
f 23/23/8 34/34/8 43/43/8 32/32/8
f 3/3/1 9/9/2 31/31/2 25/25/1
