# Blender 3.4.0
# www.blender.org
mtllib roof_hr_3_side_2_angle_edge_1.mtl
o roof_hr_3_side_2_angle_edge_1
v -2.000000 0.060000 -0.000000
v 2.000000 1.060000 -0.000000
v 2.000000 1.060000 -0.148148
v 2.000000 1.060000 -0.296296
v 2.000000 1.060000 -0.444445
v 2.000000 1.060000 -0.592593
v 2.000000 1.060000 -0.740741
v -2.000000 0.060000 -0.740741
v -2.000000 0.060000 -0.592593
v -2.000000 0.060000 -0.444445
v -2.000000 0.060000 -0.296296
v -2.000000 0.060000 -0.148148
v 2.000000 1.110000 -0.666667
v -2.000000 0.110000 -0.666667
v 2.000000 1.110000 -0.518519
v -2.000000 0.110000 -0.518519
v 2.000000 1.110000 -0.222222
v -2.000000 0.110000 -0.222222
v -2.000000 0.110000 -0.074074
v 2.000000 1.110000 -0.074074
v 2.000000 1.110000 -0.370370
v -2.000000 0.110000 -0.370370
v -2.000000 0.050000 -0.000000
v 2.000000 1.050000 -0.000000
v -2.000000 0.100000 -0.074074
v 2.000000 1.100000 -0.074074
v 2.000000 1.050000 -0.148148
v 2.000000 1.100000 -0.222222
v 2.000000 1.050000 -0.296296
v 2.000000 1.100000 -0.370370
v 2.000000 1.050000 -0.444445
v 2.000000 1.100000 -0.518519
v 2.000000 1.050000 -0.592593
v 2.000000 1.100000 -0.666667
v 2.000000 1.050000 -0.740741
v -2.000000 0.050000 -0.740741
v -2.000000 0.100000 -0.666667
v -2.000000 0.050000 -0.592593
v -2.000000 0.100000 -0.518519
v -2.000000 0.050000 -0.444445
v -2.000000 0.100000 -0.370370
v -2.000000 0.050000 -0.296296
v -2.000000 0.100000 -0.222222
v -2.000000 0.050000 -0.148148
vn -0.2425 0.9701 -0.0000
vn -0.2029 0.8116 -0.5478
vn -0.2029 0.8116 0.5478
vn 0.2425 -0.9701 -0.0000
vn 0.2029 -0.8116 0.5478
vn -0.0000 -0.0000 -1.0000
vn 0.2029 -0.8116 -0.5478
vn 1.0000 -0.0000 -0.0000
vn -1.0000 -0.0000 -0.0000
vn -0.7661 -0.0000 0.6427
vn -0.5932 -0.0000 0.8050
vn 0.4738 -0.0000 0.8806
vn 0.8527 -0.0000 0.5223
vt -0.500000 -0.500000
vt -0.500000 1.500000
vt -0.425926 1.500000
vt -0.351852 1.500000
vt -0.277778 1.500000
vt -0.203704 1.500000
vt -0.129630 1.500000
vt -0.129630 -0.500000
vt -0.203704 -0.500000
vt -0.277778 -0.500000
vt -0.351852 -0.500000
vt -0.425926 -0.500000
vt -0.166667 1.500000
vt -0.166667 -0.500000
vt -0.240741 1.500000
vt -0.240741 -0.500000
vt -0.388889 1.500000
vt -0.388889 -0.500000
vt -0.462963 -0.500000
vt -0.462963 1.500000
vt -0.314815 1.500000
vt -0.314815 -0.500000
vt -0.500000 -0.500000
vt -0.500000 1.500000
vt -0.462963 -0.500000
vt -0.462963 1.500000
vt -0.425926 1.500000
vt -0.388889 1.500000
vt -0.351852 1.500000
vt -0.314815 1.500000
vt -0.277778 1.500000
vt -0.240741 1.500000
vt -0.203704 1.500000
vt -0.166667 1.500000
vt -0.129630 1.500000
vt -0.129630 -0.500000
vt -0.166667 -0.500000
vt -0.203704 -0.500000
vt -0.240741 -0.500000
vt -0.277778 -0.500000
vt -0.314815 -0.500000
vt -0.351852 -0.500000
vt -0.388889 -0.500000
vt -0.425926 -0.500000
s 1
usemtl roof_hr_5
f 19/19/1 20/20/1 3/3/2 12/12/2
f 18/18/1 17/17/1 4/4/2 11/11/2
f 22/22/1 21/21/1 5/5/2 10/10/2
f 16/16/1 15/15/1 6/6/2 9/9/2
f 14/14/1 13/13/1 7/7/2 8/8/2
f 9/9/3 6/6/3 13/13/1 14/14/1
f 10/10/3 5/5/3 15/15/1 16/16/1
f 12/12/3 3/3/3 17/17/1 18/18/1
f 1/1/3 2/2/3 20/20/1 19/19/1
f 11/11/3 4/4/3 21/21/1 22/22/1
f 25/25/4 44/44/5 27/27/5 26/26/4
f 43/43/4 42/42/5 29/29/5 28/28/4
f 41/41/4 40/40/5 31/31/5 30/30/4
f 39/39/4 38/38/5 33/33/5 32/32/4
f 37/37/4 36/36/5 35/35/5 34/34/4
f 35/35/6 36/36/6 8/8/6 7/7/6
f 38/38/7 37/37/4 34/34/4 33/33/7
f 40/40/7 39/39/4 32/32/4 31/31/7
f 44/44/7 43/43/4 28/28/4 27/27/7
f 23/23/7 25/25/4 26/26/4 24/24/7
f 42/42/7 41/41/4 30/30/4 29/29/7
f 6/6/8 33/33/8 34/34/8 13/13/8
f 8/8/9 36/36/9 37/37/9 14/14/9
f 5/5/8 31/31/8 32/32/8 15/15/8
f 9/9/9 38/38/9 39/39/9 16/16/9
f 3/3/8 27/27/8 28/28/8 17/17/8
f 1/1/10 23/23/11 24/24/12 2/2/13
f 14/14/9 37/37/9 38/38/9 9/9/9
f 11/11/9 42/42/9 43/43/9 18/18/9
f 16/16/9 39/39/9 40/40/9 10/10/9
f 22/22/9 41/41/9 42/42/9 11/11/9
f 12/12/9 44/44/9 25/25/9 19/19/9
f 19/19/9 25/25/9 23/23/11 1/1/10
f 18/18/9 43/43/9 44/44/9 12/12/9
f 2/2/13 24/24/12 26/26/8 20/20/8
f 20/20/8 26/26/8 27/27/8 3/3/8
f 17/17/8 28/28/8 29/29/8 4/4/8
f 4/4/8 29/29/8 30/30/8 21/21/8
f 21/21/8 30/30/8 31/31/8 5/5/8
f 10/10/9 40/40/9 41/41/9 22/22/9
f 15/15/8 32/32/8 33/33/8 6/6/8
f 13/13/8 34/34/8 35/35/8 7/7/8
