# Blender 3.4.0
# www.blender.org
mtllib roof_hr_3_side_2_angle_edge_2.mtl
o roof_hr_3_side_2_angle_edge_2
v -2.000000 0.060000 0.000000
v 2.000000 1.060000 0.000000
v 2.000000 1.060000 0.148148
v 2.000000 1.060000 0.296296
v 2.000000 1.060000 0.444445
v 2.000000 1.060000 0.592593
v 2.000000 1.060000 0.740741
v -2.000000 0.060000 0.740741
v -2.000000 0.060000 0.592593
v -2.000000 0.060000 0.444445
v -2.000000 0.060000 0.296296
v -2.000000 0.060000 0.148148
v 2.000000 1.110000 0.666667
v -2.000000 0.110000 0.666667
v 2.000000 1.110000 0.518519
v -2.000000 0.110000 0.518519
v 2.000000 1.110000 0.222222
v -2.000000 0.110000 0.222222
v -2.000000 0.110000 0.074074
v 2.000000 1.110000 0.074074
v 2.000000 1.110000 0.370370
v -2.000000 0.110000 0.370370
v -2.000000 0.050000 0.000000
v 2.000000 1.050000 0.000000
v -2.000000 0.100000 0.074074
v 2.000000 1.100000 0.074074
v 2.000000 1.050000 0.148148
v 2.000000 1.100000 0.222222
v 2.000000 1.050000 0.296296
v 2.000000 1.100000 0.370370
v 2.000000 1.050000 0.444445
v 2.000000 1.100000 0.518519
v 2.000000 1.050000 0.592593
v 2.000000 1.100000 0.666667
v 2.000000 1.050000 0.740741
v -2.000000 0.050000 0.740741
v -2.000000 0.100000 0.666667
v -2.000000 0.050000 0.592593
v -2.000000 0.100000 0.518519
v -2.000000 0.050000 0.444445
v -2.000000 0.100000 0.370370
v -2.000000 0.050000 0.296296
v -2.000000 0.100000 0.222222
v -2.000000 0.050000 0.148148
vn -0.2425 0.9701 -0.0000
vn -0.2029 0.8116 0.5478
vn -0.2029 0.8116 -0.5478
vn 0.2425 -0.9701 -0.0000
vn 0.2029 -0.8116 -0.5478
vn -0.0000 -0.0000 1.0000
vn 0.2029 -0.8116 0.5478
vn 1.0000 -0.0000 -0.0000
vn -1.0000 -0.0000 -0.0000
vn -0.7661 -0.0000 -0.6427
vn 0.8527 -0.0000 -0.5223
vn 0.4738 -0.0000 -0.8806
vn -0.5932 -0.0000 -0.8050
vt -0.500000 -0.500000
vt -0.500000 1.500000
vt -0.425926 1.500000
vt -0.351852 1.500000
vt -0.277778 1.500000
vt -0.203704 1.500000
vt -0.129630 1.500000
vt -0.129630 -0.500000
vt -0.203704 -0.500000
vt -0.277778 -0.500000
vt -0.351852 -0.500000
vt -0.425926 -0.500000
vt -0.166667 1.500000
vt -0.166667 -0.500000
vt -0.240741 1.500000
vt -0.240741 -0.500000
vt -0.388889 1.500000
vt -0.388889 -0.500000
vt -0.462963 -0.500000
vt -0.462963 1.500000
vt -0.314815 1.500000
vt -0.314815 -0.500000
vt -0.500000 -0.500000
vt -0.500000 1.500000
vt -0.462963 -0.500000
vt -0.462963 1.500000
vt -0.425926 1.500000
vt -0.388889 1.500000
vt -0.351852 1.500000
vt -0.314815 1.500000
vt -0.277778 1.500000
vt -0.240741 1.500000
vt -0.203704 1.500000
vt -0.166667 1.500000
vt -0.129630 1.500000
vt -0.129630 -0.500000
vt -0.166667 -0.500000
vt -0.203704 -0.500000
vt -0.240741 -0.500000
vt -0.277778 -0.500000
vt -0.314815 -0.500000
vt -0.351852 -0.500000
vt -0.388889 -0.500000
vt -0.425926 -0.500000
s 1
usemtl roof_hr_5
f 19/19/1 12/12/2 3/3/2 20/20/1
f 18/18/1 11/11/2 4/4/2 17/17/1
f 22/22/1 10/10/2 5/5/2 21/21/1
f 16/16/1 9/9/2 6/6/2 15/15/1
f 14/14/1 8/8/2 7/7/2 13/13/1
f 9/9/3 14/14/1 13/13/1 6/6/3
f 10/10/3 16/16/1 15/15/1 5/5/3
f 12/12/3 18/18/1 17/17/1 3/3/3
f 1/1/3 19/19/1 20/20/1 2/2/3
f 11/11/3 22/22/1 21/21/1 4/4/3
f 25/25/4 26/26/4 27/27/5 44/44/5
f 43/43/4 28/28/4 29/29/5 42/42/5
f 41/41/4 30/30/4 31/31/5 40/40/5
f 39/39/4 32/32/4 33/33/5 38/38/5
f 37/37/4 34/34/4 35/35/5 36/36/5
f 35/35/6 7/7/6 8/8/6 36/36/6
f 38/38/7 33/33/7 34/34/4 37/37/4
f 40/40/7 31/31/7 32/32/4 39/39/4
f 44/44/7 27/27/7 28/28/4 43/43/4
f 23/23/7 24/24/7 26/26/4 25/25/4
f 42/42/7 29/29/7 30/30/4 41/41/4
f 6/6/8 13/13/8 34/34/8 33/33/8
f 8/8/9 14/14/9 37/37/9 36/36/9
f 5/5/8 15/15/8 32/32/8 31/31/8
f 9/9/9 16/16/9 39/39/9 38/38/9
f 3/3/8 17/17/8 28/28/8 27/27/8
f 1/1/10 2/2/11 24/24/12 23/23/13
f 14/14/9 9/9/9 38/38/9 37/37/9
f 11/11/9 18/18/9 43/43/9 42/42/9
f 16/16/9 10/10/9 40/40/9 39/39/9
f 22/22/9 11/11/9 42/42/9 41/41/9
f 12/12/9 19/19/9 25/25/9 44/44/9
f 19/19/9 1/1/10 23/23/13 25/25/9
f 18/18/9 12/12/9 44/44/9 43/43/9
f 2/2/11 20/20/8 26/26/8 24/24/12
f 20/20/8 3/3/8 27/27/8 26/26/8
f 17/17/8 4/4/8 29/29/8 28/28/8
f 4/4/8 21/21/8 30/30/8 29/29/8
f 21/21/8 5/5/8 31/31/8 30/30/8
f 10/10/9 22/22/9 41/41/9 40/40/9
f 15/15/8 6/6/8 33/33/8 32/32/8
f 13/13/8 7/7/8 35/35/8 34/34/8
