# Blender 3.4.0
# www.blender.org
mtllib seam_hr_1.mtl
o seam_hr_1
v -0.200000 0.300000 4.000000
v -0.200000 1.200000 4.000000
v -0.200000 0.300000 -4.000000
v -0.200000 1.200000 -4.000000
v -0.400000 1.300000 4.000000
v -0.400000 1.300000 -4.000000
v -0.400000 1.500000 4.000000
v -0.400000 1.500000 -4.000000
v -0.400000 0.200000 4.000000
v -0.400000 0.200000 -4.000000
v -0.400000 0.000000 4.000000
v -0.400000 0.000000 -4.000000
v 0.199996 0.300000 -4.000000
v 0.199996 1.200000 -4.000000
v 0.199997 0.300000 4.000000
v 0.199997 1.200000 4.000000
v 0.399996 1.300000 -4.000000
v 0.399997 1.300000 4.000000
v 0.399996 1.500000 -4.000000
v 0.399997 1.500000 4.000000
v 0.399996 0.200000 -4.000000
v 0.399997 0.200000 4.000000
v 0.399996 0.000000 -4.000000
v 0.399997 0.000000 4.000000
vn -1.0000 -0.0000 -0.0000
vn -0.0000 -1.0000 -0.0000
vn -0.0000 -0.0000 1.0000
vn -0.4472 -0.8944 -0.0000
vn -0.4472 0.8944 -0.0000
vn 1.0000 -0.0000 -0.0000
vn -0.0000 -0.0000 -1.0000
vn 0.4472 -0.8944 -0.0000
vn 0.4472 0.8944 -0.0000
vn -0.0000 1.0000 -0.0000
vt -0.499998 0.416667
vt 0.400001 0.416667
vt 0.400001 -0.833330
vt -0.499998 0.583333
vt 0.400001 0.583333
vt 0.400001 -0.833330
vt 1.499998 0.416667
vt 0.400001 1.833330
vt 0.400001 0.416667
vt 1.499998 0.583333
vt 0.400001 1.833330
vt 0.400001 0.583333
vt 0.325001 0.616666
vt -0.499998 0.616666
vt 0.325001 -0.833330
vt 1.499998 0.616666
vt 0.325001 1.833330
vt 0.325001 0.616666
vt 0.325001 0.716666
vt -0.499998 0.716666
vt 0.325001 -0.833330
vt 1.499998 0.716666
vt 0.325001 0.716666
vt 0.325001 1.833330
vt 0.325001 0.383334
vt -0.499998 0.383334
vt 0.325001 -0.833330
vt 1.499998 0.383334
vt 0.325001 1.833330
vt 0.325001 0.383334
vt 0.325001 -0.833330
vt 0.325001 0.283334
vt -0.499998 0.283334
vt 0.325001 1.833330
vt 1.499998 0.283334
vt 0.325001 0.283334
vt 1.499998 0.416667
vt 0.599999 0.416667
vt 0.599999 1.833330
vt 1.499998 0.583333
vt 0.599999 0.583333
vt 0.599999 1.833330
vt 0.600000 0.416667
vt -0.499998 0.416667
vt 0.600000 -0.833330
vt 0.600000 0.583333
vt -0.499998 0.583333
vt 0.600000 -0.833330
vt 0.674999 0.616666
vt 1.499998 0.616666
vt 0.674999 1.833330
vt 0.674999 0.616666
vt -0.499998 0.616666
vt 0.674999 -0.833330
vt 0.674999 0.716666
vt 1.499998 0.716666
vt 0.674999 1.833330
vt 0.674999 0.716666
vt -0.499998 0.716666
vt 0.674999 -0.833330
vt 0.674999 0.383334
vt 1.499998 0.383334
vt 0.674999 1.833330
vt 0.674999 0.383334
vt -0.499998 0.383334
vt 0.674999 -0.833330
vt 0.674999 1.833330
vt 0.674999 0.283334
vt 1.499998 0.283334
vt 0.674999 -0.833330
vt 0.674999 0.283334
vt -0.499998 0.283334
s 0
usemtl wall_rg_1
f 1/1/1 2/4/1 4/10/1 3/7/1
f 23/67/2 24/70/2 11/31/2 12/34/2
f 1/2/3 9/25/3 11/32/3 24/71/3 22/64/3 15/43/3 16/46/3 18/52/3 20/58/3 7/19/3 5/13/3 2/5/3
f 6/16/1 5/14/1 7/20/1 8/22/1
f 4/11/4 2/6/4 5/15/4 6/17/4
f 9/26/1 10/28/1 12/35/1 11/33/1
f 1/3/5 3/8/5 10/29/5 9/27/5
f 13/37/6 14/40/6 16/47/6 15/44/6
f 4/12/7 6/18/7 8/23/7 19/55/7 17/49/7 14/41/7 13/38/7 21/61/7 23/68/7 12/36/7 10/30/7 3/9/7
f 18/53/6 17/50/6 19/56/6 20/59/6
f 16/48/8 14/42/8 17/51/8 18/54/8
f 21/62/6 22/65/6 24/72/6 23/69/6
f 13/39/9 15/45/9 22/66/9 21/63/9
f 20/60/10 19/57/10 8/24/10 7/21/10
