# Blender 3.4.0
# www.blender.org
mtllib structure_piece_rg_1.mtl
o structure_piece_rg_1
v -3.700000 0.000000 3.700000
v 3.700000 0.000000 3.700000
v -3.700000 0.000000 -3.700000
v 3.700000 0.000000 -3.700000
v 4.000000 0.100000 -4.000000
v 4.000000 0.100000 4.000000
v -4.000000 0.100000 -4.000000
v -4.000000 0.100000 4.000000
v 2.700001 0.000000 3.700001
v 3.700001 0.000000 3.700001
v 3.700001 0.000000 2.700001
v 2.700001 6.100000 3.700001
v 3.700001 6.100000 3.700001
v 3.700001 6.100000 2.700001
v 2.700001 0.000000 3.200001
v 3.200001 0.000000 2.700001
v 3.200001 6.100000 2.700001
v 2.700001 6.100000 3.200001
v -3.699999 0.000000 2.700001
v -3.699999 0.000000 3.700001
v -2.699999 0.000000 3.700001
v -3.699999 6.100000 2.700001
v -3.699999 6.100000 3.700001
v -2.699999 6.100000 3.700001
v -3.199999 0.000000 2.700001
v -2.699999 0.000000 3.200001
v -2.699999 6.100000 3.200001
v -3.199999 6.100000 2.700001
v -2.700000 0.000000 -3.699999
v -3.700000 0.000000 -3.699999
v -3.700000 0.000000 -2.699999
v -2.700000 6.100000 -3.699999
v -3.700000 6.100000 -3.699999
v -3.700000 6.100000 -2.699999
v -2.700000 0.000000 -3.199999
v -3.200000 0.000000 -2.699999
v -3.200000 6.100000 -2.699999
v -2.700000 6.100000 -3.199999
v 3.700001 0.000000 -2.700001
v 3.700001 0.000000 -3.700001
v 2.700001 0.000000 -3.700001
v 3.700001 6.100000 -2.700001
v 3.700001 6.100000 -3.700001
v 2.700001 6.100000 -3.700001
v 3.200001 0.000000 -2.700001
v 2.700001 0.000000 -3.200001
v 2.700001 6.100000 -3.200001
v 3.200001 6.100000 -2.700001
v -1.500000 0.000000 2.598076
v 2.598076 0.000000 1.500000
v 1.500000 0.000000 2.598076
v -2.598076 0.000000 1.500000
v -2.598076 0.000000 -1.500000
v 2.598076 0.000000 -1.500000
v 1.500000 0.000000 -2.598076
v -1.500000 0.000000 -2.598076
v -2.463590 0.050000 1.422354
v -1.422354 0.050000 2.463590
v 2.463590 0.050000 1.422354
v 1.422354 0.050000 2.463590
v -2.463590 0.050000 -1.422354
v -1.422354 0.050000 -2.463590
v 2.463590 0.050000 -1.422354
v 1.422354 0.050000 -2.463590
v -2.598076 0.050000 1.500000
v -1.500000 0.050000 2.598076
v 2.598076 0.050000 1.500000
v 1.500000 0.050000 2.598076
v -2.598076 0.050000 -1.500000
v -1.500000 0.050000 -2.598076
v 2.598076 0.050000 -1.500000
v 1.500000 0.050000 -2.598076
v -2.598076 0.000000 -1.500000
v -1.500000 0.000000 -2.598076
v 2.598076 0.000000 1.500000
v 2.598076 0.000000 -1.500000
v -1.500000 0.000000 2.598076
v -2.598076 0.000000 1.500000
v 1.500000 0.000000 -2.598076
v 1.500000 0.000000 2.598076
v -2.463590 -0.950000 1.422354
v -1.422354 -0.950000 2.463590
v 2.463590 -0.950000 1.422354
v 1.422354 -0.950000 2.463590
v -2.463590 -0.950000 -1.422354
v -1.422354 -0.950000 -2.463590
v 2.463590 -0.950000 -1.422354
v 1.422354 -0.950000 -2.463590
vn -0.0000 1.0000 -0.0000
vn -0.3162 0.9487 -0.0000
vn -0.0000 0.9487 0.3162
vn -0.0000 0.9487 -0.3162
vn 0.3162 0.9487 -0.0000
vn 1.0000 -0.0000 -0.0000
vn -0.0000 -0.0000 1.0000
vn -0.0000 -0.0000 -1.0000
vn -0.7071 -0.0000 -0.7071
vn -1.0000 -0.0000 -0.0000
vn 0.7071 -0.0000 -0.7071
vn 0.7071 -0.0000 0.7071
vn -0.7071 -0.0000 0.7071
vt 1.289733 0.916667
vt -0.288438 0.916667
vt -0.315120 -0.559657
vt 1.315120 -0.559657
vt 1.289733 0.916667
vt -0.288438 0.916667
vt -0.288438 0.916667
vt 1.289733 0.916667
vt -0.315120 1.559657
vt -0.288438 0.916667
vt 1.289733 0.916667
vt 1.315120 1.559657
vt -0.353446 1.000000
vt 1.353446 1.000000
vt 1.353446 1.000000
vt -0.353446 1.000000
vt -0.353446 1.000000
vt 1.353446 1.000000
vt 1.353446 1.000000
vt -0.353446 1.000000
vt 0.249646 0.000000
vt 0.625238 0.000000
vt 0.500070 0.000000
vt 0.499455 0.000000
vt 0.749879 0.000000
vt 1.000000 0.000000
vt 0.249646 2.000000
vt 0.625238 2.000000
vt 0.500070 2.000000
vt 0.499455 2.000000
vt 0.749879 2.000000
vt 1.000000 2.000000
vt 0.750143 0.000000
vt 0.875095 0.000000
vt 0.875096 2.000000
vt 0.750143 2.000000
vt 0.249646 0.000000
vt 0.625238 0.000000
vt 0.500070 0.000000
vt 0.499455 0.000000
vt 0.749879 0.000000
vt 1.000000 0.000000
vt 0.249646 2.000000
vt 0.625238 2.000000
vt 0.500070 2.000000
vt 0.499455 2.000000
vt 0.749879 2.000000
vt 1.000000 2.000000
vt 0.750143 0.000000
vt 0.875095 0.000000
vt 0.875096 2.000000
vt 0.750143 2.000000
vt 0.249646 0.000000
vt 0.625238 0.000000
vt 0.500070 0.000000
vt 0.499455 0.000000
vt 0.749879 0.000000
vt 1.000000 0.000000
vt 0.249646 2.000000
vt 0.625238 2.000000
vt 0.500070 2.000000
vt 0.499455 2.000000
vt 0.749879 2.000000
vt 1.000000 2.000000
vt 0.750143 0.000000
vt 0.875095 0.000000
vt 0.875096 2.000000
vt 0.750143 2.000000
vt 0.249646 0.000000
vt 0.625238 0.000000
vt 0.500070 0.000000
vt 0.499455 0.000000
vt 0.749879 0.000000
vt 1.000000 0.000000
vt 0.249646 2.000000
vt 0.625238 2.000000
vt 0.500070 2.000000
vt 0.499455 2.000000
vt 0.749879 2.000000
vt 1.000000 2.000000
vt 0.750143 0.000000
vt 0.875095 0.000000
vt 0.875096 2.000000
vt 0.750143 2.000000
vt 0.169546 -0.244072
vt 1.072364 0.070410
vt 0.830454 -0.244072
vt -0.072363 0.070410
vt -0.072363 0.929591
vt 1.072364 0.929591
vt 0.830454 1.244072
vt 0.169546 1.244072
vt 0.834922 1.000000
vt 0.285422 1.000000
vt 0.867188 1.000000
vt 0.991922 1.000000
vt 0.442422 1.000000
vt 0.500000 1.000000
vt 0.442422 1.000000
vt 0.991922 1.000000
vt -0.601562 1.000000
vt 0.285422 1.000000
vt 0.834922 1.000000
vt -0.234375 1.000000
vt 0.991922 1.000000
vt 0.442422 1.000000
vt 1.601562 1.000000
vt 0.834922 1.000000
vt 1.105996 1.000000
vt 1.970703 1.000000
vt 0.285422 1.000000
vt 0.834922 1.000000
vt -1.337891 1.000000
vt 2.705078 1.000000
vt 0.448770 1.000000
vt 0.442422 1.000000
vt -1.705078 1.000000
vt 0.846172 0.949488
vt 0.265172 0.949488
vt 0.125000 0.914062
vt 1.012172 0.949488
vt 0.500000 0.914062
vt 0.431172 0.949488
vt 0.431172 0.949488
vt 1.012172 0.949488
vt 0.500000 0.914062
vt 0.265172 0.949488
vt 0.125000 0.914062
vt 1.150391 0.914062
vt 0.846172 0.949488
vt 1.012172 0.949488
vt 0.431172 0.949488
vt 0.500000 0.914062
vt -0.150391 0.914062
vt 0.875000 0.914062
vt 0.846172 0.949488
vt 1.124287 0.949488
vt 0.875000 0.914062
vt 0.265172 0.949488
vt 0.846172 0.949488
vt 1.150391 0.914062
vt 0.500000 0.914062
vt 0.431172 0.949488
vt 0.500000 0.929688
vt -0.150391 0.929688
vt 0.875000 0.929688
vt 0.500000 0.929688
vt 0.875000 0.929688
vt 1.150391 0.929688
vt 0.500000 0.929688
vt 0.125000 0.929688
vt 0.500000 0.929688
vt 0.125000 0.929688
vt 1.150391 0.929688
vt 0.867188 0.682292
vt -0.115897 0.855589
vt 0.500000 0.682292
vt 0.144411 1.115897
vt -0.601562 0.682292
vt 1.115897 0.855589
vt -0.234375 0.682292
vt 0.855588 1.115897
vt 1.601562 0.682292
vt -0.115897 0.144411
vt 1.970703 0.682292
vt 0.144412 -0.115897
vt -1.337891 0.682292
vt 1.115897 0.144411
vt 2.705078 0.682292
vt -1.705078 0.682292
vt 0.855589 -0.115897
s 0
usemtl wall_rg_1
f 1/3/1 2/4/1 4/12/1 54/90/1 50/86/1 51/87/1 49/85/1
f 4/12/1 3/9/1 1/3/1 52/88/1 53/89/1 56/92/1 55/91/1
f 1/3/1 49/85/1 52/88/1
f 4/12/1 55/91/1 54/90/1
f 11/25/6 14/31/6 13/29/6 10/23/6
f 10/24/7 13/30/7 12/27/7 9/21/7
f 16/34/8 17/35/8 14/32/8 11/26/8
f 17/35/9 16/34/9 15/33/9 18/36/9
f 9/22/10 12/28/10 18/36/10 15/33/10
f 21/41/7 24/47/7 23/45/7 20/39/7
f 20/40/10 23/46/10 22/43/10 19/37/10
f 26/50/6 27/51/6 24/48/6 21/42/6
f 27/51/11 26/50/11 25/49/11 28/52/11
f 19/38/8 22/44/8 28/52/8 25/49/8
f 31/57/10 34/63/10 33/61/10 30/55/10
f 30/56/8 33/62/8 32/59/8 29/53/8
f 36/66/7 37/67/7 34/64/7 31/58/7
f 37/67/12 36/66/12 35/65/12 38/68/12
f 29/54/6 32/60/6 38/68/6 35/65/6
f 41/73/8 44/79/8 43/77/8 40/71/8
f 40/72/6 43/78/6 42/75/6 39/69/6
f 46/82/10 47/83/10 44/80/10 41/74/10
f 47/83/13 46/82/13 45/81/13 48/84/13
f 39/70/7 42/76/7 48/84/7 45/81/7
usemtl wall_hr_2
f 2/5/2 6/15/2 5/13/2 4/10/2
f 4/11/3 5/14/3 7/17/3 3/7/3
f 1/1/4 8/19/4 6/16/4 2/6/4
f 1/2/5 3/8/5 7/18/5 8/20/5
f 79/152/8 74/145/8 70/134/8 72/142/8
f 60/102/1 58/96/1 66/121/1 68/127/1
f 86/165/7 88/169/7 64/114/7 62/110/7
f 74/146/9 73/144/9 69/133/9 70/135/9
f 78/151/13 77/150/13 66/122/13 65/120/13
f 76/148/11 79/152/11 72/142/11 71/138/11
f 80/153/12 75/147/12 67/126/12 68/128/12
f 77/150/7 80/154/7 68/129/7 66/122/7
f 87/167/10 83/159/10 59/101/10 63/113/10
f 58/97/1 57/93/1 65/118/1 66/123/1
f 59/99/1 60/103/1 68/130/1 67/124/1
f 57/94/1 61/105/1 69/131/1 65/119/1
f 63/111/1 59/100/1 67/125/1 71/139/1
f 61/106/1 62/108/1 70/136/1 69/132/1
f 62/109/1 64/115/1 72/143/1 70/137/1
f 64/116/1 63/112/1 71/140/1 72/143/1
f 73/144/10 78/151/10 65/120/10 69/133/10
f 59/101/9 83/159/9 84/161/9 60/104/9
f 84/161/8 82/157/8 58/98/8 60/104/8
f 85/163/6 61/107/6 57/95/6 81/155/6
f 88/170/13 87/167/13 63/113/13 64/117/13
f 82/157/11 81/155/11 57/95/11 58/98/11
f 85/163/12 86/165/12 62/110/12 61/107/12
f 75/147/6 76/149/6 71/141/6 67/126/6
usemtl metal_floor_mx_1
f 87/168/1 88/171/1 86/166/1 85/164/1 81/156/1 82/158/1 84/162/1 83/160/1
