# Blender 3.4.0
# www.blender.org
mtllib wall_hs_1_t_1.mtl
o wall_hs_1_t_1
v 2.000000 -0.000000 0.200000
v 2.000000 3.000000 0.200001
v -2.000000 -0.000000 0.200001
v -2.000000 3.000000 0.200001
v -1.000000 3.000000 0.200001
v -1.000000 -0.000000 0.200000
v 1.000000 -0.000000 0.200000
v 1.000000 3.000000 0.200001
v 2.000000 0.500000 0.200000
v -2.000000 0.500000 0.200001
v -1.000000 0.500000 0.200001
v 1.000000 0.500000 0.200000
v 1.000000 3.000000 0.000001
v -1.000000 3.000000 0.000001
v -2.000000 -0.000000 -0.200000
v -2.000000 3.000000 -0.200000
v 2.000000 -0.000000 -0.200001
v 2.000000 3.000000 -0.200001
v 1.000000 3.000000 -0.200001
v 1.000000 -0.000000 -0.200001
v -1.000000 -0.000000 -0.200000
v -1.000000 3.000000 -0.200001
v -2.000000 0.500000 -0.200000
v 2.000000 0.500000 -0.200001
v 1.000000 0.500000 -0.200001
v -1.000000 0.500000 -0.200000
v -1.000000 3.000000 -0.000001
v 1.000000 3.000000 -0.000001
vn -0.0000 -0.0000 1.0000
vn -0.0000 0.0797 0.9968
vn 1.0000 -0.0000 -0.0000
vn -1.0000 -0.0000 -0.0000
vn -0.0000 -0.0000 -1.0000
vn -0.0000 0.0797 -0.9968
vt 1.000000 0.000000
vt 1.000000 1.000000
vt -0.000000 0.000000
vt -0.000000 1.000000
vt 0.249267 1.000000
vt 0.250733 0.000000
vt 0.750733 0.000000
vt 0.750733 1.000000
vt 1.000000 0.166344
vt 0.000000 0.166344
vt 0.249267 0.166344
vt 0.750733 0.166344
vt 0.750733 1.000000
vt 0.690616 1.000000
vt 0.249267 1.000000
vt 0.309384 1.000000
vt 0.000000 0.000000
vt 0.000000 1.000000
vt 1.000000 0.000000
vt 1.000000 1.000000
vt 0.750733 1.000000
vt 0.749267 0.000000
vt 0.249267 0.000000
vt 0.249267 1.000000
vt 0.000000 0.166344
vt 1.000000 0.166344
vt 0.750733 0.166344
vt 0.249267 0.166344
vt 0.249267 1.000000
vt 0.309384 1.000000
vt 0.750733 1.000000
vt 0.690616 1.000000
s 1
usemtl wall_hs_1
f 12/12/1 9/9/1 2/2/1 8/8/1
f 10/10/1 11/11/1 5/5/1 4/4/1
f 6/6/1 7/7/1 12/12/1 11/11/1
f 3/3/1 6/6/1 11/11/1 10/10/1
f 7/7/1 1/1/1 9/9/1 12/12/1
f 13/13/2 14/15/2 11/11/2 12/12/2
f 5/5/3 11/11/3 14/16/3
f 12/12/4 8/8/4 13/14/4
f 26/28/5 23/25/5 16/18/5 22/24/5
f 24/26/5 25/27/5 19/21/5 18/20/5
f 20/22/5 21/23/5 26/28/5 25/27/5
f 17/19/5 20/22/5 25/27/5 24/26/5
f 21/23/5 15/17/5 23/25/5 26/28/5
f 27/29/6 28/31/6 25/27/6 26/28/6
f 19/21/4 25/27/4 28/32/4
f 26/28/3 22/24/3 27/30/3
