# Blender 3.4.0
# www.blender.org
mtllib wall_rg_1_double.mtl
o wall_rg_1_double
v 2.000000 -0.000000 0.200000
v -2.000000 -0.000000 0.200001
v -2.000000 6.000000 0.200001
v 2.000000 -0.000000 -0.200000
v 2.000000 6.000000 -0.199999
v -2.000000 -0.000000 -0.199999
v -2.000000 6.000000 -0.199999
v 2.000000 6.000000 0.200001
vn -0.0000 -0.0000 1.0000
vn -0.0000 -0.0000 -1.0000
vn -0.0000 1.0000 -0.0000
vt 1.000000 0.000000
vt -0.000000 0.000000
vt 0.000000 2.000000
vt 0.500000 0.450000
vt 0.000000 0.000000
vt 0.000000 2.000000
vt 1.500000 0.550000
vt 1.000000 0.000000
vt 1.000000 2.000000
vt 0.500000 0.550000
vt 1.000000 2.000000
vt 1.500000 0.450000
s 1
usemtl wall_rg_1
f 2/2/1 1/1/1 8/11/1 3/3/1
f 6/8/2 7/9/2 5/6/2 4/5/2
usemtl concrete_hr_3
f 8/12/3 5/7/3 7/10/3 3/4/3
