# Blender 3.4.0
# www.blender.org
mtllib wall_rg_1_t_2.mtl
o wall_rg_1_t_2
v -2.000000 3.000000 0.200000
v -2.000001 0.000000 0.200001
v 2.000000 3.000000 0.200001
v 1.999999 -0.000000 0.200001
v 0.999999 -0.000000 0.200001
v -1.000001 0.000000 0.200001
v 0.999999 2.500000 0.200001
v -1.000001 2.500000 0.200000
v -1.000001 0.000000 0.000001
v 0.999999 -0.000000 0.000001
v 2.000001 0.000000 -0.200001
v -1.999999 -0.000000 -0.200001
v -0.999999 -0.000000 -0.200001
v 1.000001 0.000000 -0.200001
v -0.999999 2.500000 -0.200001
v 1.000001 2.500000 -0.200001
v -2.000000 3.000000 -0.200000
v 2.000000 3.000000 -0.200001
vn -0.0000 -0.0000 1.0000
vn -0.0000 -0.0797 0.9968
vn -1.0000 -0.0000 -0.0000
vn 1.0000 -0.0000 -0.0000
vn -0.0000 -0.0000 -1.0000
vn -0.0000 -0.0797 -0.9968
vn -0.0000 1.0000 -0.0000
vt 0.000000 1.000000
vt 0.500000 0.450000
vt 0.000000 0.000000
vt 1.500000 0.450000
vt 1.000000 1.000000
vt 1.000000 0.000000
vt 0.750733 0.000000
vt 0.249267 0.000000
vt 0.750733 0.833656
vt 0.249267 0.833656
vt 0.249267 0.000000
vt 0.309384 0.000000
vt 0.750733 0.000000
vt 0.690616 0.000000
vt 1.000000 0.000000
vt 0.000000 0.000000
vt 0.249267 0.000000
vt 0.750733 0.000000
vt 0.249267 0.833656
vt 0.750733 0.833656
vt 0.000000 1.000000
vt 0.500000 0.550000
vt 1.500000 0.550000
vt 1.000000 1.000000
s 1
usemtl wall_rg_1
f 1/1/1 2/3/1 6/8/1 8/10/1
f 3/5/1 1/1/1 8/10/1 7/9/1
f 9/11/2 10/13/2 7/9/2 8/10/2
f 5/7/3 7/9/3 10/14/3
f 8/10/4 6/8/4 9/12/4
f 17/21/5 18/24/5 16/20/5 15/19/5
f 12/16/5 17/21/5 15/19/5 13/17/5
f 10/13/6 9/11/6 15/19/6 16/20/6
f 13/17/4 15/19/4 9/12/4
f 16/20/3 14/18/3 10/14/3
f 4/6/1 3/5/1 7/9/1 5/7/1
f 18/24/5 11/15/5 14/18/5 16/20/5
usemtl concrete_hr_3
f 3/4/7 18/23/7 17/22/7 1/2/7
