# Blender 3.4.0
# www.blender.org
mtllib wall_rx_1.mtl
o wall_rx_1
v 2.000000 -0.000000 0.200000
v 2.000000 3.000000 0.200001
v -2.000000 -0.000000 0.200001
v -2.000000 3.000000 0.200001
v -2.000000 -0.000000 -0.200000
v -2.000000 3.000000 -0.200000
v 2.000000 -0.000000 -0.200001
v 2.000000 3.000000 -0.200001
vn -0.0000 -0.0000 1.0000
vn -0.0000 -0.0000 -1.0000
vn -0.0000 1.0000 -0.0000
vt 1.000000 0.000000
vt 1.000000 1.000000
vt 1.000000 0.450000
vt -0.000000 0.000000
vt -0.000000 1.000000
vt 0.000000 0.450000
vt 1.000000 0.000000
vt 1.000000 1.000000
vt 0.000000 0.550000
vt -0.000000 0.000000
vt -0.000000 1.000000
vt 1.000000 0.550000
s 1
usemtl wall_rx_1
f 3/4/1 1/1/1 2/2/1 4/5/1
usemtl wall_rx_1
f 7/10/2 5/7/2 6/8/2 8/11/2
usemtl concrete_hr_3
f 2/3/3 8/12/3 6/9/3 4/6/3
