# Blender 3.4.0
# www.blender.org
mtllib wall_hs_15.mtl
o wall_hs_15
v 2.000000 -0.000000 0.200000
v -2.000000 -0.000000 0.200001
v 2.000000 3.000000 0.200001
v -2.000000 3.000000 0.200001
v 2.000000 3.000000 -0.200001
v -1.000000 -0.000000 0.200000
v 1.000000 1.000000 0.200000
v 0.866025 1.500000 0.200000
v -0.965926 1.258819 0.200001
v -0.866025 1.500000 0.200001
v -0.707107 1.707107 0.200001
v -0.500000 1.866025 0.200001
v 0.000000 2.000000 0.200001
v 2.000000 -0.000000 -0.200000
v -2.000000 -0.000000 -0.199999
v -2.000000 3.000000 -0.199999
v -1.000000 1.000000 -0.150000
v -0.965926 1.258819 -0.150000
v -0.866025 1.500000 -0.150000
v -0.707107 1.707107 -0.150000
v -0.500000 1.866025 -0.150000
v -0.258819 1.965926 -0.150000
v 0.000000 2.000000 -0.150000
v 1.000000 1.000000 -0.150000
v 0.258819 1.965926 -0.150000
v 0.500000 1.866025 -0.150000
v 0.707107 1.707107 -0.150000
v 0.866025 1.500000 -0.150000
v 0.965926 1.258819 -0.150000
v 0.707107 1.707107 0.200001
v 0.500000 1.866025 0.200001
v 0.965926 1.258819 0.200000
v 1.000000 -0.000000 0.200000
v -1.000000 1.000000 0.200001
v -0.258819 1.965926 0.200001
v 0.258819 1.965926 0.200001
v -1.000000 0.000000 -0.150000
v 1.000000 0.000000 -0.150000
vn -0.0000 -0.0000 1.0000
vn -0.0000 1.0000 -0.0000
vn -0.0000 -0.0000 -1.0000
vn -0.9979 -0.0654 -0.0000
vn -1.0000 -0.0000 -0.0000
vn 0.9979 -0.0654 -0.0000
vn 1.0000 -0.0000 -0.0000
vn 0.2588 -0.9659 -0.0000
vn -0.0000 -1.0000 -0.0000
vn 0.5000 -0.8660 -0.0000
vn 0.7071 -0.7071 -0.0000
vn 0.8660 -0.5000 -0.0000
vn 0.9659 -0.2588 -0.0000
vn -0.2588 -0.9659 -0.0000
vn -0.5000 -0.8660 -0.0000
vn -0.7071 -0.7071 -0.0000
vn -0.8660 -0.5000 -0.0000
vn -0.9659 -0.2588 -0.0000
vt 1.000000 0.000000
vt 0.000000 0.000000
vt 1.000000 1.000000
vt 1.500000 0.450000
vt 0.000000 1.000000
vt 0.500000 0.450000
vt 1.500000 0.550000
vt 0.000000 1.000000
vt 0.250000 0.000000
vt -0.250000 0.636876
vt 0.750000 0.333333
vt 0.000000 0.636875
vt 0.716506 0.500000
vt 0.125000 0.636874
vt 0.258519 0.419606
vt 0.064705 0.636875
vt 0.283494 0.500000
vt 0.125000 0.636875
vt 0.323223 0.569036
vt -0.176777 0.636874
vt 0.176777 0.636874
vt 0.375000 0.622009
vt -0.125000 0.636874
vt 0.500000 0.666667
vt 0.000000 0.636874
vt 0.000000 0.000000
vt 1.000000 0.000000
vt 0.500000 0.550000
vt 1.000000 1.000000
vt 0.250000 0.675000
vt -0.000000 0.523125
vt 0.258519 0.590884
vt 0.064704 0.523125
vt 0.283494 0.512500
vt 0.125000 0.523124
vt 0.323223 0.445190
vt -0.176777 0.523124
vt 0.176776 0.523124
vt 0.375000 0.393542
vt -0.125000 0.523124
vt 0.435295 0.361074
vt -0.064705 0.523124
vt 0.500000 0.350000
vt 0.000000 0.523124
vt 0.750000 0.675000
vt -0.000000 0.523125
vt 0.564705 0.361074
vt 0.064705 0.523124
vt 0.625000 0.393542
vt 0.125000 0.523124
vt 0.676777 0.445190
vt 0.176777 0.523124
vt 0.716506 0.512500
vt 0.125000 0.523124
vt 0.741482 0.590884
vt 0.064704 0.523125
vt 0.676777 0.569036
vt 0.176777 0.636874
vt 0.625000 0.622009
vt 0.125000 0.636874
vt 0.741481 0.419606
vt 0.064705 0.636875
vt 0.750000 0.000000
vt -0.250000 0.636876
vt 0.250000 0.333333
vt 0.000000 0.636875
vt 0.435295 0.655309
vt -0.064705 0.636874
vt 0.564705 0.655309
vt 0.064705 0.636874
vt -0.250000 0.523126
vt 0.250000 1.000000
vt -0.250000 0.523126
vt 0.750000 1.000000
s 1
usemtl wall_hs_1
f 7/11/1 33/63/1 1/1/1 3/3/1 4/5/1 2/2/1 6/9/1 34/65/1 9/15/1 10/17/1 11/19/1 12/22/1 35/67/1 13/24/1 36/69/1 31/59/1 30/57/1 8/13/1 32/61/1
f 15/27/3 16/29/3 5/8/3 14/26/3
usemtl wall_rx_1
f 24/46/4 38/73/5 33/64/5 7/12/4
f 17/31/6 34/66/6 6/10/7 37/71/7
f 26/49/1 25/47/1 23/43/1 22/41/1 21/39/1 20/36/1 19/34/1 18/32/1 17/30/1 37/72/1 38/74/1 24/45/1 29/55/1 28/53/1 27/51/1
f 35/68/8 22/42/8 23/44/9 13/25/9
f 12/23/10 21/40/10 22/42/8 35/68/8
f 11/20/11 20/37/11 21/40/10 12/23/10
f 10/18/12 19/35/12 20/38/11 11/21/11
f 9/16/13 18/33/13 19/35/12 10/18/12
f 34/66/6 17/31/6 18/33/13 9/16/13
f 13/25/9 23/44/9 25/48/14 36/70/14
f 36/70/14 25/48/14 26/50/15 31/60/15
f 31/60/15 26/50/15 27/52/16 30/58/16
f 27/52/16 28/54/17 8/14/17 30/58/16
f 28/54/17 29/56/18 32/62/18 8/14/17
f 29/56/18 24/46/4 7/12/4 32/62/18
usemtl concrete_hr_3
f 3/4/2 5/7/2 16/28/2 4/6/2
