# Blender 3.4.0
# www.blender.org
mtllib wall_rg_1_angle.mtl
o wall_rg_1_angle
v 2.000000 1.000000 0.200000
v -2.000000 -0.000000 0.200001
v 2.000000 1.000000 -0.200001
v 2.000000 4.000000 -0.200002
v -2.000000 -0.000000 -0.199999
v 2.000000 4.000000 0.200001
v -2.000000 3.000000 0.200001
v -2.000000 3.000000 -0.200000
vn -0.0000 -0.0000 1.0000
vn -0.0000 -0.0000 -1.0000
vn -0.2425 0.9701 -0.0000
vt 1.000000 0.000000
vt -0.000000 0.000000
vt 1.000000 0.000000
vt 1.000000 1.000000
vt 1.500000 0.550000
vt -0.000000 0.000000
vt 1.000000 1.000000
vt 1.500000 0.450000
vt -0.000000 1.000000
vt 0.500000 0.450000
vt -0.000000 1.000000
vt 0.500000 0.550000
s 1
usemtl wall_rg_1
f 2/2/1 1/1/1 6/7/1 7/9/1
f 5/6/2 8/11/2 4/4/2 3/3/2
usemtl concrete_hr_3
f 6/8/3 4/5/3 8/12/3 7/10/3
