# Blender 3.4.0
# www.blender.org
mtllib wall_hr_15_double.mtl
o wall_hr_15_double
v 2.000000 -0.000000 0.200000
v -2.000000 -0.000000 0.200001
v 2.000000 6.000000 0.200001
v -2.000000 6.000000 0.200001
v 2.000000 6.000000 -0.200001
v -1.000000 4.000000 -0.150000
v -0.965926 4.258819 -0.150000
v -0.866025 4.500000 -0.150000
v -0.707107 4.707107 -0.150000
v -0.500000 4.866025 -0.150000
v -0.258819 4.965926 -0.150000
v 0.000000 5.000000 -0.150000
v 1.000000 4.000000 -0.150000
v 0.258819 4.965926 -0.150000
v 0.500000 4.866025 -0.150000
v 0.707107 4.707107 -0.150000
v 0.866025 4.500000 -0.150000
v 0.965926 4.258819 -0.150000
v -1.000000 -0.000000 0.200000
v 0.707107 4.707107 0.200001
v 0.500000 4.866025 0.200001
v 0.965926 4.258819 0.200000
v 1.000000 4.000000 0.200000
v 1.000000 -0.000000 0.200000
v 0.866025 4.500000 0.200000
v -1.000000 4.000000 0.200001
v -0.965926 4.258819 0.200001
v -0.866025 4.500000 0.200001
v -0.707107 4.707107 0.200001
v -0.258819 4.965926 0.200001
v -0.500000 4.866025 0.200001
v 0.258819 4.965926 0.200001
v 0.000000 5.000000 0.200001
v -1.000000 0.000000 -0.150000
v 1.000000 0.000000 -0.150000
v 2.000000 0.000000 -0.200000
v -2.000000 0.000000 -0.199999
v -2.000000 6.000000 -0.199999
vn -0.0000 -0.0000 1.0000
vn -0.0000 1.0000 -0.0000
vn -0.9979 -0.0654 -0.0000
vn -1.0000 -0.0000 -0.0000
vn 0.9979 -0.0654 -0.0000
vn 1.0000 -0.0000 -0.0000
vn 0.2588 -0.9659 -0.0000
vn -0.0000 -1.0000 -0.0000
vn 0.5000 -0.8660 -0.0000
vn 0.7071 -0.7071 -0.0000
vn 0.8660 -0.5000 -0.0000
vn 0.9659 -0.2588 -0.0000
vn -0.2588 -0.9659 -0.0000
vn -0.5000 -0.8660 -0.0000
vn -0.7071 -0.7071 -0.0000
vn -0.8660 -0.5000 -0.0000
vn -0.9659 -0.2588 -0.0000
vn -0.0000 -0.0000 -1.0000
vt 1.000000 -1.000000
vt -0.000000 -1.000000
vt 1.000000 1.000000
vt 1.500000 0.547500
vt 0.000000 1.000000
vt 0.500000 0.547500
vt 1.500000 0.677500
vt 0.000000 2.000000
vt 0.250000 -0.300000
vt -0.000000 0.523125
vt 0.258519 -0.384116
vt 0.064704 0.523125
vt 0.283494 -0.462500
vt 0.125000 0.523124
vt 0.323223 -0.529810
vt -0.176777 0.523124
vt 0.176776 0.523124
vt 0.375000 -0.581458
vt -0.125000 0.523124
vt 0.435295 -0.613926
vt -0.064705 0.523124
vt 0.500000 -0.625000
vt 0.000000 0.523124
vt 0.750000 -0.300000
vt -0.000000 0.523125
vt 0.564705 -0.613926
vt 0.064705 0.523124
vt 0.625000 -0.581458
vt 0.125000 0.523124
vt 0.676777 -0.529810
vt 0.176777 0.523124
vt 0.716506 -0.462500
vt 0.125000 0.523124
vt 0.741482 -0.384116
vt 0.064704 0.523125
vt 0.250000 -1.000000
vt -1.000000 0.636880
vt 0.676777 0.569036
vt 0.176777 0.636874
vt 0.625000 0.622009
vt 0.125000 0.636874
vt 0.741481 0.419606
vt 0.064705 0.636875
vt 0.750000 0.333333
vt 0.000000 0.636875
vt 0.750000 -1.000000
vt -1.000000 0.636880
vt 0.716506 0.500000
vt 0.125000 0.636874
vt 0.250000 0.333333
vt 0.000000 0.636875
vt 0.258519 0.419606
vt 0.064705 0.636875
vt 0.283494 0.500000
vt 0.125000 0.636875
vt 0.323223 0.569036
vt -0.176777 0.636874
vt 0.176777 0.636874
vt 0.435295 0.655309
vt -0.064705 0.636874
vt 0.375000 0.622009
vt -0.125000 0.636874
vt 0.564705 0.655309
vt 0.064705 0.636874
vt 0.500000 0.666667
vt 0.000000 0.636874
vt -1.000000 0.523130
vt 0.250000 1.000000
vt -1.000000 0.523130
vt 0.750000 1.000000
vt 0.000000 0.000000
vt 1.000000 0.000000
vt 0.500000 0.677500
vt 1.000000 2.000000
s 1
usemtl wall_hr_1
f 23/44/1 24/46/1 1/1/1 3/3/1 4/5/1 2/2/1 19/36/1 26/50/1 27/52/1 28/54/1 29/56/1 31/61/1 30/59/1 33/65/1 32/63/1 21/40/1 20/38/1 25/48/1 22/42/1
f 37/72/18 38/74/18 5/8/18 36/71/18
usemtl wall_rx_1
f 3/4/2 5/7/2 38/73/2 4/6/2
f 13/25/3 35/69/4 24/47/4 23/45/3
f 6/10/5 26/51/5 19/37/6 34/67/6
f 15/28/1 14/26/1 12/22/1 11/20/1 10/18/1 9/15/1 8/13/1 7/11/1 6/9/1 34/68/1 35/70/1 13/24/1 18/34/1 17/32/1 16/30/1
f 30/60/7 11/21/7 12/23/8 33/66/8
f 31/62/9 10/19/9 11/21/7 30/60/7
f 29/57/10 9/16/10 10/19/9 31/62/9
f 28/55/11 8/14/11 9/17/10 29/58/10
f 27/53/12 7/12/12 8/14/11 28/55/11
f 26/51/5 6/10/5 7/12/12 27/53/12
f 33/66/8 12/23/8 14/27/13 32/64/13
f 32/64/13 14/27/13 15/29/14 21/41/14
f 21/41/14 15/29/14 16/31/15 20/39/15
f 16/31/15 17/33/16 25/49/16 20/39/15
f 17/33/16 18/35/17 22/43/17 25/49/16
f 18/35/17 13/25/3 23/45/3 22/43/17
