# Blender 3.4.0
# www.blender.org
mtllib wall_top_part_hs_3.mtl
o wall_top_part_hs_3
v -2.000000 0.000000 0.000000
v 2.000000 0.000000 0.000000
v -2.000000 2.000000 -0.000000
v -2.000000 0.000000 -0.400000
v 2.000000 0.000000 -0.400000
v 2.000000 3.000000 0.000001
v -2.000000 2.000000 -0.400000
v 2.000000 3.000000 -0.400001
vn -0.0000 -0.0000 1.0000
vn -0.0000 -0.0000 -1.0000
vn -0.1853 0.7414 0.6450
vn -0.1853 0.7414 -0.6450
vn -0.1587 0.6347 -0.7563
vn -0.1587 0.6347 0.7563
vt 0.000000 0.000000
vt 1.000000 0.000000
vt 0.000000 0.666667
vt 0.500000 0.450000
vt 1.000000 0.000000
vt 0.000000 0.000000
vt 1.000000 1.000000
vt 1.500000 0.450000
vt 1.000000 0.666667
vt 0.500000 0.550000
vt 0.000000 1.000000
vt 1.500000 0.550000
s 0
usemtl wall_hs_1
f 1/1/1 2/2/1 6/7/1 3/3/1
f 4/5/2 7/9/2 8/11/2 5/6/2
s 1
usemtl concrete_hr_3
f 6/8/3 8/12/4 7/10/5 3/4/6
