# Blender 3.4.0
# www.blender.org
mtllib windows_rg_1.mtl
o windows_rg_1
v 2.000000 -0.000000 0.200000
v 2.000000 3.000000 0.200001
v -2.000000 -0.000000 0.200001
v -2.000000 3.000000 0.200001
v -0.200000 0.990000 0.200000
v 0.200000 0.990000 0.200000
v 1.000000 0.990000 0.200000
v -1.000000 0.990000 0.200001
v -1.000000 2.500000 0.200001
v 0.200000 2.500000 0.200001
v -0.200000 2.500000 0.200001
v 1.000000 2.500000 0.200001
v -0.200000 1.000000 0.100000
v 0.200000 1.000000 0.100000
v 1.000000 1.000000 0.100000
v -1.000000 1.000000 0.100001
v -1.000000 2.500000 0.100001
v 0.200000 2.500000 0.100001
v -0.200000 2.500000 0.100001
v 1.000000 2.500000 0.100001
v -1.100000 2.500000 0.210000
v -1.100000 2.700000 0.210000
v -1.100000 2.500000 -0.000000
v -1.100000 2.700000 -0.000000
v 1.100000 2.500000 0.210000
v 1.100000 2.700000 0.210000
v 1.100000 2.500000 -0.000000
v 1.100000 2.700000 -0.000000
v -2.000000 -0.000000 -0.200000
v 2.000000 -0.000000 -0.200001
v 0.200000 0.990000 -0.200001
v -0.200000 0.990000 -0.200000
v -1.000000 0.990000 -0.200000
v 1.000000 0.990000 -0.200001
v 1.000000 2.500000 -0.200001
v -0.200000 2.500000 -0.200001
v 0.200000 2.500000 -0.200001
v -1.000000 2.500000 -0.200000
v 0.200000 1.000000 -0.100001
v -0.200000 1.000000 -0.100000
v -1.000000 1.000000 -0.100000
v 1.000000 1.000000 -0.100001
v 1.000000 2.500000 -0.100001
v -0.200000 2.500000 -0.100001
v 0.200000 2.500000 -0.100001
v -1.000000 2.500000 -0.100000
v 1.100000 2.500000 -0.210000
v 1.100000 2.700000 -0.210000
v 1.100000 2.500000 -0.000000
v 1.100000 2.700000 -0.000000
v -1.100000 2.500000 -0.210000
v -1.100000 2.700000 -0.210000
v -1.100000 2.500000 0.000000
v -1.100000 2.700000 0.000000
v -2.000000 3.000000 -0.200000
v 2.000000 3.000000 -0.200001
v 0.150000 0.960000 -0.100000
v 0.150000 1.000000 -0.100000
v 1.050000 0.960000 -0.100000
v 1.050000 1.000000 -0.100000
v 0.150000 0.960000 -0.270000
v 0.180000 0.960000 -0.300000
v 0.180000 1.000000 -0.300000
v 0.150000 1.000000 -0.270000
v 1.020000 0.960000 -0.300000
v 1.050000 0.960000 -0.270000
v 1.050000 1.000000 -0.270000
v 1.020000 1.000000 -0.300000
v -0.180000 1.000000 -0.300000
v -0.150000 1.000000 -0.270000
v -0.150000 0.960000 -0.270000
v -0.180000 0.960000 -0.300000
v -1.050000 1.000000 -0.270000
v -1.020000 1.000000 -0.300000
v -1.020000 0.960000 -0.300000
v -1.050000 0.960000 -0.270000
v -0.150000 1.000000 -0.100000
v -0.150000 0.960000 -0.100000
v -1.050000 1.000000 -0.100000
v -1.050000 0.960000 -0.100000
v -1.050000 0.984000 0.283000
v -1.050000 1.008000 0.094000
v -1.050000 1.012000 0.094000
v -0.150000 0.984000 0.283000
v -0.150000 1.008000 0.094000
v -0.150000 1.012000 0.094000
v -1.050000 0.980000 0.280000
v -0.150000 0.980000 0.280000
v -1.050000 0.960000 0.295000
v -0.150000 0.960000 0.295000
v -1.050000 0.960000 0.290000
v -0.150000 0.960000 0.290000
v 0.150000 0.984000 0.283000
v 0.150000 1.008000 0.094000
v 0.150000 1.012000 0.094000
v 1.050000 0.984000 0.283000
v 1.050000 1.008000 0.094000
v 1.050000 1.012000 0.094000
v 0.150000 0.980000 0.280000
v 1.050000 0.980000 0.280000
v 0.150000 0.960000 0.295000
v 1.050000 0.960000 0.295000
v 0.150000 0.960000 0.290000
v 1.050000 0.960000 0.290000
vn -0.0000 -0.0000 1.0000
vn 1.0000 -0.0000 -0.0000
vn -1.0000 -0.0000 -0.0000
vn -0.0000 0.9950 0.0995
vn -0.0000 -1.0000 -0.0000
vn -0.0000 1.0000 -0.0000
vn -0.0000 -0.0000 -1.0000
vn -0.0000 0.9950 -0.0995
vn -0.7071 -0.0000 -0.7071
vn 0.7071 -0.0000 -0.7071
vn -0.0000 -0.9889 -0.1489
vn -0.0000 0.4472 0.8944
vn -0.0000 -0.4472 -0.8944
vn -0.0000 0.9892 0.1465
vt 1.000000 0.000000
vt 1.000000 1.000000
vt 1.500000 0.450000
vt 0.000000 0.000000
vt 0.000000 1.000000
vt 0.500000 0.450000
vt 0.450000 0.330000
vt 0.749962 0.565647
vt 0.550000 0.330000
vt 0.550027 0.565647
vt 0.749962 0.565647
vt 0.750000 0.330000
vt 0.550027 0.565647
vt 0.250000 0.330000
vt 0.250061 0.833383
vt 0.550000 0.833333
vt 0.550118 0.833383
vt 0.449996 0.833383
vt 0.749986 0.833383
vt 0.424847 0.333186
vt 0.749962 0.599178
vt 1.000000 0.000000
vt 0.575266 0.333186
vt 0.550027 0.599178
vt 0.000000 0.000000
vt 0.749962 0.599178
vt 0.724838 0.333186
vt 1.000000 0.000000
vt 0.550027 0.599178
vt 0.275209 0.333186
vt 0.000000 0.000000
vt 0.275209 0.833383
vt 0.000000 1.000000
vt 0.575266 0.833383
vt 0.000000 1.000000
vt 0.424847 0.833383
vt 1.000000 1.000000
vt 0.724838 0.833383
vt 1.000000 1.000000
vt 0.100000 0.526250
vt 0.100000 0.775000
vt 0.098750 0.775000
vt 0.150000 0.526250
vt 0.150000 0.775000
vt 0.098750 0.775000
vt 0.100000 0.473750
vt 0.151250 0.775000
vt 0.150000 0.473750
vt 0.151250 0.775000
vt 0.100000 0.526250
vt 0.100000 0.225000
vt 0.098750 0.225000
vt 0.150000 0.526250
vt 0.150000 0.225000
vt 0.098750 0.225000
vt 0.100000 0.473750
vt 0.151250 0.225000
vt 0.150000 0.473750
vt 0.151250 0.225000
vt 1.000000 0.000000
vt 0.000000 0.000000
vt 0.450000 0.330000
vt 0.749962 0.565647
vt 0.550000 0.330000
vt 0.550027 0.565647
vt 0.749962 0.565647
vt 0.750000 0.330000
vt 0.550027 0.565647
vt 0.250000 0.330000
vt 0.250061 0.833383
vt 0.550000 0.833333
vt 0.550118 0.833383
vt 0.449996 0.833383
vt 0.749986 0.833383
vt 0.424847 0.333186
vt 0.749962 0.599178
vt 1.000000 0.000000
vt 0.575266 0.333186
vt 0.550027 0.599178
vt 0.000000 0.000000
vt 0.749962 0.599178
vt 0.724838 0.333186
vt 1.000000 0.000000
vt 0.550027 0.599178
vt 0.275209 0.333186
vt 0.000000 0.000000
vt 0.275209 0.833383
vt 0.000000 1.000000
vt 0.575266 0.833383
vt 0.000000 1.000000
vt 0.424847 0.833383
vt 1.000000 1.000000
vt 0.724838 0.833383
vt 1.000000 1.000000
vt 0.100000 0.526250
vt 0.100000 0.775000
vt 0.098750 0.775000
vt 0.150000 0.526250
vt 0.150000 0.775000
vt 0.098750 0.775000
vt 0.100000 0.473750
vt 0.151250 0.775000
vt 0.150000 0.473750
vt 0.151250 0.775000
vt 0.100000 0.526250
vt 0.100000 0.225000
vt 0.098750 0.225000
vt 0.150000 0.526250
vt 0.150000 0.225000
vt 0.098750 0.225000
vt 0.100000 0.473750
vt 0.151250 0.225000
vt 0.150000 0.473750
vt 0.151250 0.225000
vt 1.000000 1.000000
vt 0.500000 0.550000
vt 0.000000 1.000000
vt 1.500000 0.550000
vt 0.857143 0.645714
vt 0.857261 0.645952
vt 0.857143 0.645714
vt 0.857261 0.674523
vt 0.857143 0.000000
vt 0.857261 0.645952
vt 0.857143 0.000000
vt 0.857261 0.674523
vt 0.971283 0.645714
vt 0.977261 0.645952
vt 0.857261 0.674523
vt 0.994141 0.622857
vt 0.822975 0.674523
vt 0.914286 0.622857
vt 0.994141 0.622857
vt 0.822975 0.645952
vt 0.942857 0.622857
vt 0.971283 0.645714
vt 0.977261 0.674523
vt 0.857261 0.645952
vt 0.994141 0.022857
vt 0.914286 0.022857
vt 1.011547 0.674523
vt 0.971283 0.000000
vt 0.977261 0.674523
vt 0.977261 0.645952
vt 0.971283 0.000000
vt 0.977261 0.645952
vt 0.977261 0.674523
vt 0.994141 0.022857
vt 0.942857 0.022857
vt 1.011547 0.645952
vt 0.931641 0.272857
vt 0.143110 0.770952
vt 0.994141 0.272857
vt 0.108824 0.770952
vt 0.108824 0.799523
vt 0.971283 0.250000
vt 0.108824 0.799523
vt 0.108824 0.770952
vt 0.971283 0.250000
vt 0.903069 0.272857
vt 0.143110 0.799523
vt 0.994141 0.272857
vt 0.108824 0.799523
vt 0.971283 0.895714
vt 0.108749 0.770952
vt 0.931641 0.872857
vt 0.994141 0.872857
vt 0.143035 0.770952
vt 0.903069 0.872857
vt 0.994141 0.872857
vt 0.143035 0.799523
vt 0.108824 0.770952
vt 0.971283 0.895714
vt 0.108749 0.799523
vt -0.011176 0.799523
vt 0.857143 0.250000
vt -0.011176 0.770952
vt 0.857143 0.250000
vt -0.011176 0.799523
vt 0.857143 0.895714
vt -0.011176 0.770952
vt 0.857143 0.895714
vt 0.994846 0.420294
vt 0.937158 0.375000
vt 0.943547 0.875000
vt 1.000000 0.375227
vt 0.999075 0.375000
vt 0.891667 0.375000
vt 0.994846 0.428563
vt 0.937158 0.589286
vt 0.943547 0.660714
vt 1.000000 0.473630
vt 0.999075 0.473857
vt 0.891667 0.589286
vt 0.988332 0.875000
vt 0.995941 0.419827
vt 0.988332 0.660714
vt 0.995941 0.429030
vt 0.999717 0.424428
vt 0.943547 0.375000
vt 0.993656 0.375000
vt 0.943547 0.589286
vt 0.993656 0.589286
vt 0.999717 0.424428
vt 1.000000 0.423272
vt 0.994846 0.375000
vt 0.993656 0.875000
vt 0.994846 0.589286
vt 0.993656 0.660714
vt 1.000000 0.425585
vt 0.994846 0.045294
vt 0.937158 0.000000
vt 0.943547 0.500000
vt 1.000000 0.000227
vt 0.999075 0.000000
vt 0.891667 0.000000
vt 0.994846 0.053563
vt 0.937158 0.214286
vt 0.943547 0.285714
vt 1.000000 0.098630
vt 0.999075 0.098857
vt 0.891667 0.214286
vt 0.988332 0.500000
vt 0.995941 0.044827
vt 0.988332 0.285714
vt 0.995941 0.054030
vt 0.999717 0.049428
vt 0.943547 0.000000
vt 0.993656 0.000000
vt 0.943547 0.214286
vt 0.993656 0.214286
vt 0.999717 0.049428
vt 1.000000 0.048272
vt 0.994846 0.000000
vt 0.993656 0.500000
vt 0.994846 0.214286
vt 0.993656 0.285714
vt 1.000000 0.050585
s 1
usemtl wall_rg_1
f 12/19/1 2/2/1 4/5/1 9/15/1 11/18/1 10/16/1
f 10/16/1 11/18/1 5/7/1 8/14/1 9/15/1 4/5/1 3/4/1 1/1/1 2/2/1 12/19/1 7/12/1 6/9/1
f 10/17/2 6/9/2 14/23/2 18/34/2
f 5/7/3 11/18/3 19/36/3 13/20/3
f 8/13/4 5/8/4 13/21/4 16/29/4
f 6/10/4 7/11/4 15/26/4 14/24/4
f 7/12/3 12/19/3 20/38/3 15/27/3
f 9/15/2 8/14/2 16/30/2 17/32/2
f 38/74/7 55/115/7 56/117/7 35/70/7 37/73/7 36/71/7
f 36/71/7 37/73/7 31/62/7 34/69/7 35/70/7 56/117/7 30/61/7 29/60/7 55/115/7 38/74/7 33/67/7 32/64/7
f 36/72/3 32/64/3 40/78/3 44/89/3
f 31/62/2 37/73/2 45/91/2 39/75/2
f 34/68/8 31/63/8 39/76/8 42/84/8
f 32/65/8 33/66/8 41/81/8 40/79/8
f 33/67/2 38/74/2 46/93/2 41/82/2
f 35/70/3 34/69/3 42/85/3 43/87/3
usemtl window_hr_1
f 15/28/1 20/39/1 18/35/1 14/25/1
f 13/22/1 19/37/1 17/33/1 16/31/1
f 41/83/7 46/94/7 44/90/7 40/80/7
f 39/77/7 45/92/7 43/88/7 42/86/7
s 0
usemtl concrete_hr_1
f 21/40/3 22/43/3 24/48/3 23/46/3
f 27/56/2 28/58/2 26/53/2 25/50/2
f 25/51/1 26/54/1 22/44/1 21/41/1
f 23/47/5 27/57/5 25/52/5 21/42/5
f 28/59/6 24/49/6 22/45/6 26/55/6
f 47/95/2 48/98/2 50/103/2 49/101/2
f 53/111/3 54/113/3 52/108/3 51/105/3
f 51/106/7 52/109/7 48/99/7 47/96/7
f 49/102/5 53/112/5 51/107/5 47/97/5
f 54/114/6 50/104/6 48/100/6 52/110/6
s 1
usemtl concrete_hr_3
f 2/3/6 56/118/6 55/116/6 4/6/6
s 0
usemtl metal_hr_5
f 87/196/3 91/205/3 89/199/3 81/183/3
f 82/185/11 85/191/11 88/197/11 87/195/11
f 81/184/12 89/200/12 90/202/12 84/190/12
f 91/206/5 92/208/5 90/203/5 89/201/5
f 87/195/13 88/197/13 92/209/13 91/207/13
f 86/193/2 84/189/2 88/198/2 85/192/2
f 84/189/2 90/204/2 92/210/2 88/198/2
f 82/186/3 87/196/3 81/183/3 83/187/3
f 86/194/14 83/188/14 81/184/14 84/190/14
f 99/224/3 103/233/3 101/227/3 93/211/3
f 94/213/11 97/219/11 100/225/11 99/223/11
f 93/212/12 101/228/12 102/230/12 96/218/12
f 103/234/5 104/236/5 102/231/5 101/229/5
f 99/223/13 100/225/13 104/237/13 103/235/13
f 98/221/2 96/217/2 100/226/2 97/220/2
f 96/217/2 102/232/2 104/238/2 100/226/2
f 94/214/3 99/224/3 93/211/3 95/215/3
f 98/222/14 95/216/14 93/212/14 96/218/14
usemtl planks_hr_4
f 67/145/6 68/148/6 63/133/6 64/136/6 58/121/6 60/125/6
f 61/127/5 62/130/5 65/139/5 66/142/5 59/123/5 57/119/5
f 57/120/3 58/122/3 64/137/3 61/128/3
f 63/134/9 62/131/9 61/129/9 64/138/9
f 62/132/7 63/135/7 68/149/7 65/140/7
f 67/146/10 66/143/10 65/141/10 68/150/10
f 66/144/2 67/147/2 60/126/2 59/124/2
f 75/169/7 74/166/7 69/151/7 72/160/7
f 70/154/10 71/157/10 72/161/10 69/152/10
f 71/158/2 70/155/2 77/175/2 78/177/2
f 80/181/3 79/179/3 73/163/3 76/172/3
f 76/173/5 75/170/5 72/162/5 71/159/5 78/178/5 80/182/5
f 70/156/6 69/153/6 74/167/6 73/164/6 79/180/6 77/176/6
f 74/168/9 75/171/9 76/174/9 73/165/9
