# Blender 3.4.0
# www.blender.org
mtllib baking_soda_1.mtl
o baking_soda_1
v 0.060750 0.197100 0.036450
v -0.060750 0.000000 -0.036450
v -0.060750 0.197100 0.036450
v -0.060750 0.197100 -0.036450
v -0.060750 -0.000000 0.036450
v 0.060750 -0.000000 0.036450
v 0.060750 0.197100 -0.036450
v 0.060750 0.000000 -0.036450
vn -0.0000 -0.0000 -1.0000
vn -1.0000 -0.0000 -0.0000
vn -0.0000 -1.0000 -0.0000
vn -0.0000 1.0000 -0.0000
vn -0.0000 -0.0000 1.0000
vn 1.0000 -0.0000 -0.0000
vt 0.000000 1.000000
vt 0.454545 0.727273
vt 0.727273 0.727273
vt 0.454545 0.000000
vt 1.000000 1.000000
vt 0.727273 0.727273
vt 0.454545 1.000000
vt 0.000000 0.727273
vt 0.454545 0.727273
vt 0.727273 0.000000
vt 1.000000 0.727273
vt 0.000000 0.000000
vt 0.454545 0.727273
vt 0.454545 0.000000
vt 0.727273 0.000000
vt 0.000000 0.727273
vt 1.000000 0.727273
vt 0.000000 0.000000
vt 0.454545 1.000000
vt 1.000000 0.000000
s 0
usemtl baking_soda_1
f 8/18/1 2/4/1 4/9/1 7/16/1
f 2/4/2 5/10/2 3/6/2 4/9/2
f 5/11/3 2/5/3 8/19/3 6/13/3
f 7/16/4 4/9/4 3/7/4 1/1/4
f 1/2/5 3/8/5 5/12/5 6/14/5
f 8/20/6 7/17/6 1/3/6 6/15/6
