# Blender 3.4.0
# www.blender.org
mtllib bolt_mx_1_1.mtl
o bolt_mx_1_1
v 0.000004 0.065127 -0.066951
v 0.000004 0.054516 -0.074633
v -0.012956 0.061685 -0.067402
v -0.009832 0.049990 -0.075227
v -0.022443 0.052278 -0.068637
v -0.025916 0.039428 -0.070323
v -0.014396 0.040238 -0.076507
v -0.022443 0.026578 -0.072009
v -0.009832 0.030487 -0.077786
v -0.012956 0.017171 -0.073244
v 0.000004 0.013728 -0.073695
v 0.000004 0.025961 -0.078380
v 0.012964 0.017171 -0.073244
v 0.009839 0.030487 -0.077786
v 0.022451 0.026578 -0.072009
v 0.025924 0.039428 -0.070323
v 0.014404 0.040238 -0.076507
v 0.022451 0.052278 -0.068637
v 0.009839 0.049990 -0.075227
v 0.012964 0.061685 -0.067402
v 0.000004 0.071688 -0.056207
v -0.016907 0.067195 -0.056797
v -0.029287 0.054921 -0.058407
v -0.033818 0.038153 -0.060608
v -0.029287 0.021386 -0.062808
v -0.016907 0.009111 -0.064419
v 0.000004 0.004618 -0.065008
v 0.016915 0.009111 -0.064419
v 0.029295 0.021386 -0.062808
v 0.033826 0.038153 -0.060608
v 0.029295 0.054921 -0.058407
v 0.016915 0.067195 -0.056797
v 0.000004 0.073910 -0.045332
v -0.018716 0.068936 -0.045985
v -0.032420 0.055349 -0.047768
v -0.037436 0.036788 -0.050204
v -0.032420 0.018227 -0.052639
v -0.018716 0.004639 -0.054422
v 0.000004 -0.000334 -0.055075
v 0.018724 0.004639 -0.054422
v 0.032428 0.018227 -0.052639
v 0.037444 0.036788 -0.050204
v 0.032428 0.055349 -0.047768
v 0.018724 0.068936 -0.045985
v 0.000004 0.040498 -0.078489
v 0.000004 0.054635 -0.047862
v -0.008996 0.052244 -0.048176
v -0.015585 0.045712 -0.049033
v -0.017996 0.036788 -0.050204
v -0.015585 0.027864 -0.051375
v -0.008996 0.021332 -0.052232
v 0.000004 0.018941 -0.052546
v 0.009004 0.021332 -0.052232
v 0.015593 0.027864 -0.051375
v 0.018004 0.036788 -0.050204
v 0.015593 0.045712 -0.049033
v 0.009004 0.052244 -0.048176
v 0.000004 0.035119 0.100863
v -0.008996 0.001816 0.096493
v 0.018004 0.017271 0.098521
v 0.009004 0.032727 0.100549
v 0.015593 0.026196 0.099692
v 0.015593 0.008348 0.097350
v 0.009004 0.001816 0.096493
v 0.000004 -0.000575 0.096179
v -0.015584 0.008348 0.097350
v -0.017996 0.017271 0.098521
v -0.015584 0.026196 0.099692
v -0.008996 0.032727 0.100549
vn -0.0000 0.7506 -0.6608
vn -0.0000 0.5293 -0.8484
vn -0.3191 0.4325 -0.8433
vn -0.3291 0.6631 -0.6723
vn -0.5700 0.4243 -0.7036
vn -0.4145 0.1184 -0.9023
vn -0.6582 0.0980 -0.7464
vn -0.3191 -0.2003 -0.9263
vn -0.5700 -0.2284 -0.7892
vn -0.3291 -0.4672 -0.8206
vn -0.0000 -0.2926 -0.9563
vn -0.0000 -0.5547 -0.8320
vn 0.3191 -0.2003 -0.9263
vn 0.3291 -0.4672 -0.8206
vn 0.5700 -0.2284 -0.7892
vn 0.4145 0.1184 -0.9023
vn 0.6582 0.0980 -0.7464
vn 0.3191 0.4325 -0.8433
vn 0.5700 0.4243 -0.7036
vn 0.3291 0.6631 -0.6723
vn 0.4407 -0.6953 -0.5677
vn -0.0000 -0.8124 -0.5831
vn 0.7633 0.4984 -0.4111
vn 0.4407 0.8183 -0.3691
vn 0.4727 0.8542 -0.2166
vn 0.8187 0.5111 -0.2617
vn -0.4407 -0.6953 -0.5677
vn -0.7633 -0.3755 -0.5257
vn -0.8814 0.0615 -0.4684
vn -0.0000 0.9353 -0.3537
vn -0.4407 0.8183 -0.3691
vn -0.7633 0.4984 -0.4111
vn 0.8814 0.0615 -0.4684
vn 0.7633 -0.3755 -0.5257
vn -0.4727 0.8542 -0.2166
vn -0.0000 0.9798 -0.2001
vn 0.8187 -0.4263 -0.3847
vn 0.4727 -0.7694 -0.4297
vn -0.4727 -0.7694 -0.4297
vn -0.8187 -0.4263 -0.3847
vn -0.8187 0.5111 -0.2617
vn 0.9454 0.0424 -0.3232
vn -0.0000 -0.8950 -0.4461
vn -0.9454 0.0424 -0.3232
vn -0.0000 -0.1301 0.9915
vn -0.0000 0.1301 -0.9915
vn -0.5000 0.8587 0.1127
vn -0.8660 0.4957 0.0651
vn 0.8660 -0.4958 -0.0651
vn 1.0000 -0.0000 -0.0000
vn -0.5000 -0.8587 -0.1127
vn -0.0000 -0.9915 -0.1301
vn -1.0000 -0.0000 -0.0000
vn 0.8660 0.4958 0.0651
vn 0.5000 -0.8587 -0.1127
vn -0.8660 -0.4958 -0.0651
vn 0.5000 0.8587 0.1127
vn -0.0000 0.9915 0.1301
vt 0.346462 0.426066
vt 0.352404 0.426066
vt 0.347728 0.431938
vt 0.354246 0.430751
vt 0.351403 0.436780
vt 0.356821 0.439681
vt 0.358446 0.433702
vt 0.363092 0.440059
vt 0.363771 0.432919
vt 0.369274 0.437747
vt 0.374565 0.419274
vt 0.374568 0.432844
vt 0.368128 0.423238
vt 0.368130 0.428884
vt 0.369268 0.414372
vt 0.363767 0.419206
vt 0.363083 0.412068
vt 0.356812 0.412445
vt 0.358440 0.418426
vt 0.351384 0.415350
vt 0.354243 0.421380
vt 0.347733 0.420205
vt 0.340568 0.426059
vt 0.342348 0.434394
vt 0.347457 0.441284
vt 0.355074 0.445572
vt 0.363837 0.446229
vt 0.372348 0.443448
vt 0.379901 0.437721
vt 0.379897 0.414396
vt 0.372339 0.408663
vt 0.363823 0.405909
vt 0.355075 0.406552
vt 0.347458 0.410821
vt 0.342366 0.417720
vt 0.334790 0.426055
vt 0.348255 0.534918
vt 0.337052 0.436740
vt 0.339719 0.529989
vt 0.343544 0.445688
vt 0.334790 0.521453
vt 0.353325 0.451402
vt 0.334790 0.511596
vt 0.364480 0.452150
vt 0.339719 0.503060
vt 0.374997 0.448844
vt 0.348255 0.498132
vt 0.383943 0.442545
vt 0.383943 0.409575
vt 0.358111 0.498132
vt 0.375001 0.403270
vt 0.366648 0.503060
vt 0.364492 0.400000
vt 0.371576 0.511596
vt 0.353337 0.400722
vt 0.371576 0.521453
vt 0.343551 0.406420
vt 0.366648 0.529989
vt 0.337067 0.415370
vt 0.358112 0.534917
vt 0.360020 0.426064
vt 0.306357 0.400000
vt 0.311096 0.400000
vt 0.315835 0.400000
vt 0.320574 0.400000
vt 0.325313 0.400000
vt 0.330051 0.400000
vt 0.334790 0.400000
vt 0.277924 0.400000
vt 0.282663 0.400000
vt 0.287402 0.400000
vt 0.292141 0.400000
vt 0.296880 0.400000
vt 0.301619 0.400000
vt 0.306357 0.476289
vt 0.392786 0.399688
vt 0.330051 0.476289
vt 0.397363 0.416771
vt 0.292141 0.476289
vt 0.383631 0.408843
vt 0.301618 0.476289
vt 0.388208 0.400915
vt 0.296880 0.476289
vt 0.384858 0.404265
vt 0.287402 0.476289
vt 0.384857 0.413420
vt 0.282663 0.476289
vt 0.388208 0.416771
vt 0.334790 0.476289
vt 0.277924 0.476289
vt 0.392786 0.417998
vt 0.325313 0.476289
vt 0.400714 0.413420
vt 0.320574 0.476289
vt 0.401940 0.408843
vt 0.315835 0.476289
vt 0.400714 0.404265
vt 0.311096 0.476289
vt 0.397363 0.400915
s 1
usemtl metal_hr_2
f 1/1/1 2/2/2 4/4/3 3/3/4
f 3/3/4 4/4/3 5/5/5
f 5/5/5 4/4/3 7/7/6 6/6/7
f 6/6/7 7/7/6 9/9/8 8/8/9
f 8/8/9 9/9/8 10/10/10
f 10/10/10 9/9/8 12/14/11 11/12/12
f 11/11/12 12/13/11 14/16/13 13/15/14
f 13/15/14 14/16/13 15/17/15
f 15/17/15 14/16/13 17/19/16 16/18/17
f 16/18/17 17/19/16 19/21/18 18/20/19
f 18/20/19 19/21/18 20/22/20
f 20/22/20 19/21/18 2/2/2 1/1/1
f 11/11/12 13/15/14 28/31/21 27/30/22
f 31/34/23 32/35/24 44/59/25 43/57/26
f 10/10/10 11/12/12 27/29/22 26/28/27
f 8/8/9 10/10/10 26/28/27 25/27/28
f 6/6/7 8/8/9 25/27/28 24/26/29
f 20/22/20 1/1/1 21/23/30 32/35/24
f 1/1/1 3/3/4 22/24/31 21/23/30
f 5/5/5 6/6/7 24/26/29 23/25/32
f 18/20/19 20/22/20 32/35/24 31/34/23
f 3/3/4 5/5/5 23/25/32 22/24/31
f 16/18/17 18/20/19 31/34/23 30/33/33
f 15/17/15 16/18/17 30/33/33 29/32/34
f 13/15/14 15/17/15 29/32/34 28/31/21
f 21/23/30 22/24/31 34/38/35 33/36/36
f 28/31/21 29/32/34 41/53/37 40/51/38
f 25/27/28 26/28/27 38/46/39 37/44/40
f 32/35/24 21/23/30 33/36/36 44/59/25
f 22/24/31 23/25/32 35/40/41 34/38/35
f 29/32/34 30/33/33 42/55/42 41/53/37
f 26/28/27 27/29/22 39/48/43 38/46/39
f 23/25/32 24/26/29 36/42/44 35/40/41
f 30/33/33 31/34/23 43/57/26 42/55/42
f 27/30/22 28/31/21 40/51/38 39/49/43
f 24/26/29 25/27/28 37/44/40 36/42/44
f 40/52/45 41/54/45 42/56/45 43/58/45 44/60/45 33/37/45 34/39/45 35/41/45 36/43/45 37/45/45 38/47/45 39/50/45
f 14/16/13 12/13/11 45/61/46
f 9/9/8 7/7/6 45/61/46
f 45/61/46 7/7/6 4/4/3
f 19/21/18 17/19/16 45/61/46
f 2/2/2 45/61/46 4/4/3
f 12/14/11 9/9/8 45/61/46
f 17/19/16 14/16/13 45/61/46
f 2/2/2 19/21/18 45/61/46
f 47/63/47 48/64/48 68/96/48 69/98/47
f 54/71/49 55/72/50 60/79/50 63/85/49
f 51/67/51 52/68/52 65/89/52 59/77/51
f 48/64/48 49/65/53 67/94/53 68/96/48
f 55/72/50 56/73/54 62/83/54 60/79/50
f 52/69/52 53/70/55 64/87/55 65/90/52
f 49/65/53 50/66/56 66/92/56 67/94/53
f 56/73/54 57/74/57 61/81/57 62/83/54
f 46/62/58 47/63/47 69/98/47 58/75/58
f 53/70/55 54/71/49 63/85/49 64/87/55
f 50/66/56 51/67/51 59/77/51 66/92/56
f 57/74/57 46/62/58 58/75/58 61/81/57
f 69/99/45 68/97/45 67/95/45 66/93/45 59/78/45 65/91/45 64/88/45 63/86/45 60/80/45 62/84/45 61/82/45 58/76/45
