# Blender 3.4.0
# www.blender.org
mtllib cement_bag_mp_1.mtl
o cement_bag_mp_1
v -0.260000 0.040000 0.200000
v -0.257670 0.011716 0.188284
v -0.257670 -0.000000 0.157670
v -0.300000 0.040000 0.160000
v -0.288284 0.011716 0.157670
v -0.288284 0.040000 0.188284
v -0.279317 0.011716 0.179317
v -0.257670 0.150000 0.157670
v -0.300000 0.110000 0.160000
v -0.288284 0.138284 0.157670
v -0.260000 0.110000 0.200000
v -0.257670 0.138284 0.188284
v -0.288284 0.110000 0.188284
v -0.279317 0.138284 0.179317
v -0.300000 0.040000 -0.160000
v -0.288284 0.011716 -0.157670
v -0.257670 0.000000 -0.157670
v -0.260000 0.040000 -0.200000
v -0.257670 0.011716 -0.188284
v -0.288284 0.040000 -0.188284
v -0.279317 0.011716 -0.179317
v -0.260000 0.110000 -0.200000
v -0.257670 0.138284 -0.188284
v -0.257670 0.150000 -0.157670
v -0.300000 0.110000 -0.160000
v -0.288284 0.138284 -0.157670
v -0.288284 0.110000 -0.188284
v -0.279317 0.138284 -0.179317
v 0.300000 0.040000 0.160000
v 0.288284 0.011716 0.157670
v 0.257670 -0.000000 0.157670
v 0.260000 0.040000 0.200000
v 0.257670 0.011716 0.188284
v 0.288284 0.040000 0.188284
v 0.279317 0.011716 0.179317
v 0.260000 0.110000 0.200000
v 0.257670 0.138284 0.188284
v 0.257670 0.150000 0.157670
v 0.300000 0.110000 0.160000
v 0.288284 0.138284 0.157670
v 0.288284 0.110000 0.188284
v 0.279317 0.138284 0.179317
v 0.260000 0.040000 -0.200000
v 0.257670 0.011716 -0.188284
v 0.257670 0.000000 -0.157670
v 0.300000 0.040000 -0.160000
v 0.288284 0.011716 -0.157670
v 0.288284 0.040000 -0.188284
v 0.279317 0.011716 -0.179317
v 0.257670 0.150000 -0.157670
v 0.300000 0.110000 -0.160000
v 0.288284 0.138284 -0.157670
v 0.260000 0.110000 -0.200000
v 0.257670 0.138284 -0.188284
v 0.288284 0.110000 -0.188284
v 0.279317 0.138284 -0.179317
vn -0.1545 -0.9758 0.1545
vn -0.1370 -0.6938 0.7071
vn -0.5169 -0.6824 0.5169
vn -0.7071 0.6938 -0.1370
vn -0.5169 0.6824 -0.5169
vn -0.6929 0.1994 -0.6929
vn -0.9622 0.1938 -0.1914
vn -0.1545 0.9758 0.1545
vn -0.5169 0.6824 0.5169
vn -0.1370 0.6938 0.7071
vn -0.7071 -0.6938 0.1370
vn 0.5169 -0.6824 0.5169
vn 0.7071 -0.6938 0.1370
vn 0.9622 -0.1938 0.1914
vn 0.6929 -0.1994 0.6929
vn -0.7071 0.6938 0.1370
vn -0.6929 -0.1994 0.6929
vn -0.9622 -0.1938 0.1914
vn -0.1545 0.9758 -0.1545
vn -0.1370 0.6938 -0.7070
vn -0.1914 0.1938 -0.9622
vn -0.1545 -0.9758 -0.1545
vn -0.5169 -0.6824 -0.5169
vn -0.1370 -0.6938 -0.7071
vn -0.1914 -0.1938 0.9622
vn -0.7071 -0.6938 -0.1370
vn -0.6929 -0.1994 -0.6929
vn -0.1914 -0.1938 -0.9622
vn 0.1545 0.9758 -0.1545
vn 0.7071 0.6938 -0.1370
vn 0.5169 0.6824 -0.5169
vn 0.9622 0.1938 -0.1914
vn 0.6929 0.1994 -0.6929
vn 0.1545 -0.9758 -0.1545
vn 0.5169 -0.6824 -0.5169
vn 0.7071 -0.6938 -0.1370
vn 0.6929 -0.1994 -0.6929
vn 0.9622 -0.1938 -0.1914
vn 0.1370 0.6938 -0.7070
vn 0.1370 -0.6938 -0.7071
vn 0.1914 -0.1938 -0.9622
vn 0.1370 -0.6938 0.7071
vn 0.1914 -0.1938 0.9622
vn 0.1545 0.9758 0.1545
vn 0.1370 0.6938 0.7071
vn 0.5169 0.6824 0.5169
vn 0.1914 0.1938 -0.9622
vn 0.1545 -0.9758 0.1545
vn 0.1914 0.1938 0.9622
vn 0.6929 0.1994 0.6929
vn 0.7071 0.6938 0.1370
vn 0.9622 0.1938 0.1914
vn -0.6929 0.1994 0.6929
vn -0.1914 0.1938 0.9622
vn -0.9622 -0.1938 -0.1914
vn -0.9622 0.1938 0.1914
vt 0.076154 0.842426
vt 0.078542 0.792119
vt 0.677895 0.220881
vt 0.677743 0.282020
vt 0.677169 0.281341
vt 0.677748 0.281333
vt 0.934450 0.943625
vt 1.000000 0.940935
vt 0.727093 0.281042
vt 0.934450 1.000000
vt 0.029855 0.842426
vt 0.711938 0.239462
vt 1.000000 0.991064
vt 0.037194 0.792119
vt 0.076998 0.281341
vt 0.076444 0.282020
vt 0.076438 0.281333
vt 0.819737 0.943625
vt 0.027093 0.281042
vt 0.754186 0.940935
vt 0.076154 0.930463
vt 0.078542 0.980770
vt 0.076290 0.220881
vt 0.819737 1.000000
vt 0.029855 0.930463
vt 0.042248 0.239462
vt 0.037194 0.980770
vt 0.754186 0.991064
vt 0.934450 0.492629
vt 1.000000 0.495319
vt 0.727093 0.732231
vt 0.677188 0.731933
vt 0.677742 0.731229
vt 0.677748 0.731939
vt 0.076154 0.169019
vt 0.078542 0.219326
vt 0.677895 0.792392
vt 0.934450 0.436254
vt 0.029855 0.169019
vt 0.711938 0.773810
vt 0.037194 0.219326
vt 1.000000 0.445190
vt 0.076154 0.080981
vt 0.078542 0.030674
vt 0.076290 0.792392
vt 0.077016 0.731930
vt 0.076438 0.731939
vt 0.076444 0.731252
vt 0.819737 0.492629
vt 0.027093 0.732231
vt 0.754186 0.495319
vt 0.819737 0.436254
vt 0.029855 0.080981
vt 0.754186 0.445190
vt 0.037194 0.030674
vt 0.042248 0.773810
vt 0.934450 0.492629
vt 1.000000 0.495319
vt 0.027093 0.281042
vt 0.076444 0.282044
vt 0.077017 0.281341
vt 0.076438 0.281333
vt 0.678032 0.842426
vt 0.675644 0.792119
vt 0.076290 0.220881
vt 0.934450 0.436254
vt 0.724330 0.842426
vt 1.000000 0.445190
vt 0.716992 0.792119
vt 0.042248 0.239462
vt 0.678032 0.930463
vt 0.675644 0.980770
vt 0.677895 0.220881
vt 0.677742 0.282043
vt 0.677748 0.281333
vt 0.677169 0.281341
vt 0.819737 0.492629
vt 0.754186 0.495319
vt 0.727093 0.281042
vt 0.819737 0.436254
vt 0.724331 0.930463
vt 0.716992 0.980770
vt 0.711938 0.239462
vt 0.754186 0.445190
vt 0.678032 0.169019
vt 0.675644 0.219326
vt 0.076290 0.792392
vt 0.076997 0.731933
vt 0.076443 0.731252
vt 0.076438 0.731939
vt 0.934450 0.943625
vt 1.000000 0.940935
vt 0.027093 0.732231
vt 0.724331 0.169019
vt 0.934450 1.000000
vt 1.000000 0.991064
vt 0.716992 0.219326
vt 0.042248 0.773810
vt 0.677748 0.731939
vt 0.677188 0.731932
vt 0.677741 0.731229
vt 0.819737 0.943625
vt 0.754186 0.940935
vt 0.727093 0.732231
vt 0.678032 0.080981
vt 0.675644 0.030674
vt 0.677895 0.792392
vt 0.724331 0.080981
vt 0.819737 1.000000
vt 0.754186 0.991064
vt 0.711938 0.773810
vt 0.716992 0.030674
s 1
usemtl cement_bag_mp_1
f 3/6/1 2/3/2 7/12/3
f 26/51/4 28/54/5 27/52/6 25/49/7
f 8/17/8 14/26/9 12/23/10
f 3/6/1 7/12/3 5/9/11
f 35/68/12 30/58/13 29/57/14 34/66/15
f 8/17/8 10/19/16 14/26/9
f 5/8/11 7/13/3 6/10/17 4/7/18
f 24/47/19 23/45/20 28/56/5
f 28/55/5 23/44/20 22/43/21 27/53/6
f 17/34/22 21/40/23 19/37/24
f 7/14/3 2/2/2 1/1/25 6/11/17
f 24/47/19 28/56/5 26/50/4
f 17/34/22 16/31/26 21/40/23
f 19/36/24 21/41/23 20/39/27 18/35/28
f 50/99/29 52/104/30 56/111/31
f 56/110/31 52/103/30 51/102/32 55/109/33
f 45/90/34 49/98/35 47/93/36
f 47/92/36 49/96/35 48/95/37 46/91/38
f 50/99/29 56/111/31 54/107/39
f 49/97/35 44/86/40 43/85/41 48/94/37
f 45/90/34 44/87/40 49/98/35
f 33/64/42 35/69/12 34/67/15 32/63/43
f 38/75/44 37/73/45 42/83/46
f 54/106/39 56/112/31 55/108/33 53/105/47
f 31/62/48 35/70/12 33/65/42
f 42/82/46 37/72/45 36/71/49 41/81/50
f 38/75/44 42/83/46 40/79/51
f 40/78/51 42/84/46 41/80/50 39/77/52
f 31/62/48 30/59/13 35/70/12
f 12/22/10 14/27/9 13/25/53 11/21/54
f 53/105/47 22/43/21 23/44/20 54/106/39
f 8/15/8 24/46/19 26/50/4 10/19/16
f 21/42/23 16/30/26 15/29/55 20/38/27
f 27/52/6 20/38/27 15/29/55 25/49/7
f 32/63/43 1/1/25 2/2/2 33/64/42
f 41/80/50 34/66/15 29/57/14 39/77/52
f 39/77/52 51/102/32 52/103/30 40/78/51
f 37/72/45 12/22/10 11/21/54 36/71/49
f 38/74/44 8/16/8 12/23/10 37/73/45
f 4/7/18 15/29/55 16/30/26 5/8/11
f 33/65/42 2/3/2 3/4/1 31/60/48
f 10/20/16 26/51/4 25/49/7 9/18/56
f 14/28/9 10/20/16 9/18/56 13/24/53
f 22/43/21 18/35/28 20/39/27 27/53/6
f 18/35/28 43/85/41 44/86/40 19/36/24
f 55/108/33 48/94/37 43/85/41 53/105/47
f 50/99/29 24/47/19 8/17/8 38/75/44
f 22/43/21 53/105/47 43/85/41 18/35/28
f 51/102/32 46/91/38 48/95/37 55/109/33
f 4/7/18 9/18/56 25/49/7 15/29/55
f 46/91/38 29/57/14 30/58/13 47/92/36
f 6/10/17 13/24/53 9/18/56 4/7/18
f 40/79/51 52/104/30 50/100/29 38/76/44
f 47/93/36 30/59/13 31/61/48 45/88/34
f 5/9/11 16/31/26 17/32/22 3/5/1
f 19/37/24 44/87/40 45/89/34 17/33/22
f 17/34/22 45/90/34 31/62/48 3/6/1
f 46/91/38 51/102/32 39/77/52 29/57/14
f 1/1/25 11/21/54 13/25/53 6/11/17
f 36/71/49 11/21/54 1/1/25 32/63/43
f 36/71/49 32/63/43 34/67/15 41/81/50
f 54/107/39 23/45/20 24/48/19 50/101/29
