# Blender 3.4.0
# www.blender.org
mtllib first_aid_kit_hr_2.mtl
o first_aid_kit_hr_2
v -0.099998 0.000000 0.055001
v 0.100002 0.000000 0.055001
v -0.099998 0.000000 -0.054999
v 0.100002 0.000000 -0.054999
v -0.099998 0.040000 0.055001
v 0.100002 0.040000 0.055001
v -0.099998 0.040000 -0.054999
v 0.100002 0.040000 -0.054999
vn -0.0000 -1.0000 -0.0000
vn -0.0000 1.0000 -0.0000
vn 1.0000 -0.0000 -0.0000
vn -1.0000 -0.0000 -0.0000
vn -0.0000 -0.0000 -1.0000
vn -0.0000 -0.0000 1.0000
vt 0.836066 0.277778
vt 1.000000 0.277778
vt 0.000000 0.000000
vt 0.000000 0.277778
vt 1.000000 0.277778
vt 0.836066 0.000000
vt 0.836066 1.000000
vt 1.000000 1.000000
vt 0.000000 0.000000
vt 0.000000 1.000000
vt 1.000000 1.000000
vt 0.836066 0.000000
vt 0.836066 0.277778
vt 0.000000 0.277778
vt 0.836066 0.277778
vt 0.000000 1.000000
vt 0.836066 1.000000
vt 0.000000 0.277778
vt 0.836066 1.000000
vt 0.836066 0.277778
s 0
usemtl first_aid_kit_hr_3
f 1/1/1 3/7/1 4/10/1 2/4/1
f 5/14/2 6/15/2 8/19/2 7/16/2
f 2/5/3 4/11/3 8/19/3 6/15/3
f 3/8/4 1/2/4 5/13/4 7/17/4
f 4/12/5 3/9/5 7/18/5 8/20/5
f 1/3/6 2/6/6 6/15/6 5/14/6
