# Blender 3.4.0
# www.blender.org
mtllib fishing_hook_mx_1.mtl
o fishing_hook_mx_1
v 0.000000 0.006524 0.058966
v 0.000000 0.019773 -0.100485
v 0.008660 0.011507 0.059380
v 0.008660 0.024756 -0.100071
v 0.008660 0.021473 0.060208
v 0.008660 0.034722 -0.099243
v 0.000000 0.026455 0.060622
v 0.000000 0.039705 -0.098828
v -0.008660 0.021473 0.060208
v -0.008660 0.034722 -0.099243
v -0.008660 0.011507 0.059380
v -0.008660 0.024756 -0.100071
v -0.004825 0.004258 0.086233
v 0.003313 0.008996 0.089599
v 0.003313 0.018961 0.090427
v -0.004825 0.024190 0.087890
v -0.012963 0.019452 0.084524
v -0.012963 0.009486 0.083696
v -0.018716 0.002266 0.110212
v -0.012082 0.006788 0.116174
v -0.012082 0.016753 0.117002
v -0.018716 0.022197 0.111868
v -0.025351 0.017675 0.105907
v -0.025351 0.007710 0.105079
v -0.040000 0.000787 0.128010
v -0.035670 0.005149 0.135898
v -0.035670 0.015114 0.136726
v -0.040000 0.020718 0.129666
v -0.044330 0.016356 0.121778
v -0.044330 0.006391 0.120950
v -0.066108 0.000000 0.137480
v -0.064604 0.004277 0.146393
v -0.064604 0.014242 0.147221
v -0.066108 0.019931 0.139136
v -0.067612 0.015655 0.130223
v -0.067612 0.005689 0.129395
v -0.093892 0.000000 0.137480
v -0.095396 0.004277 0.146393
v -0.095396 0.014242 0.147221
v -0.093892 0.019931 0.139136
v -0.092388 0.015655 0.130223
v -0.092388 0.005689 0.129395
v -0.120000 0.000787 0.128010
v -0.124330 0.005149 0.135898
v -0.124330 0.015114 0.136726
v -0.120000 0.020718 0.129666
v -0.115670 0.016356 0.121778
v -0.115670 0.006391 0.120950
v -0.141284 0.002266 0.110212
v -0.147918 0.006788 0.116174
v -0.147918 0.016753 0.117002
v -0.141284 0.022197 0.111868
v -0.134649 0.017675 0.105907
v -0.134649 0.007710 0.105079
v -0.155175 0.004258 0.086233
v -0.163313 0.008996 0.089599
v -0.163313 0.018961 0.090427
v -0.155175 0.024190 0.087890
v -0.147037 0.019452 0.084524
v -0.147037 0.009486 0.083696
v -0.159215 0.007738 0.056432
v -0.167010 0.012223 0.056804
v -0.167010 0.021192 0.057549
v -0.159215 0.025676 0.057922
v -0.151421 0.022797 0.057683
v -0.151421 0.010618 0.056671
v -0.154108 0.012404 0.029731
v -0.159447 0.015834 0.028066
v -0.159447 0.022373 0.028610
v -0.154108 0.025481 0.030818
v -0.143019 0.016142 0.036806
v -0.145677 0.020531 0.011154
v -0.148867 0.015999 0.018008
v -0.151833 0.018099 0.016576
v -0.151833 0.022035 0.016903
v -0.148867 0.023871 0.018662
v -0.000000 0.049656 -0.158208
v 0.008660 0.054639 -0.157794
v 0.008660 0.064604 -0.156966
v -0.000000 0.069587 -0.156552
v -0.008660 0.064604 -0.156966
v -0.008660 0.054639 -0.157794
v -0.000000 0.047531 -0.167232
v 0.008660 0.051806 -0.169826
v 0.008660 0.060355 -0.175014
v -0.000000 0.064629 -0.177608
v -0.008660 0.060355 -0.175014
v -0.008660 0.051806 -0.169826
v -0.000000 0.040508 -0.173283
v 0.008660 0.042442 -0.177895
v 0.008660 0.046309 -0.187117
v -0.000000 0.048242 -0.191728
v -0.008660 0.046309 -0.187117
v -0.008660 0.042442 -0.177895
v -0.000000 0.031270 -0.174051
v 0.008660 0.030124 -0.178918
v 0.008660 0.027832 -0.188652
v 0.000000 0.026685 -0.193519
v -0.008660 0.027832 -0.188652
v -0.008660 0.030124 -0.178918
v 0.000000 0.023344 -0.169242
v 0.008660 0.019556 -0.172506
v 0.008660 0.011981 -0.179033
v 0.000000 0.008193 -0.182297
v -0.008660 0.011981 -0.179033
v -0.008660 0.019556 -0.172506
v 0.000000 0.019759 -0.160693
v 0.008660 0.014776 -0.161107
v 0.008660 0.004811 -0.161935
v 0.000000 -0.000172 -0.162349
v -0.008660 0.004811 -0.161935
v -0.008660 0.014776 -0.161107
v 0.000000 0.021884 -0.151669
v 0.008660 0.017609 -0.149075
v 0.008660 0.009060 -0.143887
v 0.000000 0.004786 -0.141293
v -0.008660 0.009060 -0.143887
v -0.008660 0.017609 -0.149075
v -0.000000 0.046071 -0.149659
v 0.008660 0.049859 -0.146395
v 0.008660 0.057434 -0.139868
v -0.000000 0.061222 -0.136604
v -0.008660 0.057434 -0.139868
v -0.008660 0.049859 -0.146395
v -0.000000 0.032638 -0.134539
v 0.008660 0.036804 -0.131244
v 0.008660 0.044379 -0.124716
v -0.000000 0.048167 -0.121453
v -0.008660 0.044379 -0.124716
v -0.008660 0.036804 -0.131244
v 0.008660 0.027985 -0.131977
v 0.008660 0.019436 -0.126789
v 0.000000 0.015161 -0.124195
v -0.008660 0.019436 -0.126789
v -0.008660 0.027985 -0.131977
v 0.008660 0.037557 -0.112145
v 0.008660 0.024089 -0.113264
v -0.008660 0.024089 -0.113264
v -0.008660 0.037557 -0.112145
v 0.000000 0.019460 -0.112174
v -0.000000 0.041943 -0.110306
v 0.008660 0.031907 -0.125753
v -0.008660 0.031907 -0.125753
v -0.130638 0.015650 0.069905
v -0.143019 0.020627 0.037179
vn 0.4995 -0.8659 -0.0258
vn 0.4936 -0.8695 -0.0178
vn 0.4938 -0.8693 -0.0198
vn 0.4996 -0.8658 -0.0301
vn 0.9962 -0.0072 0.0869
vn 1.0000 -0.0000 -0.0000
vn 0.4996 0.8588 0.1132
vn 0.4938 0.8607 0.1239
vn 0.4936 0.8605 0.1260
vn 0.4995 0.8583 0.1174
vn -0.4996 0.8658 0.0301
vn -0.4936 0.8605 0.1260
vn -0.4938 0.8607 0.1239
vn -0.4995 0.8659 0.0258
vn -0.9962 0.0072 -0.0869
vn -1.0000 -0.0000 -0.0000
vn -0.4995 -0.8583 -0.1174
vn -0.4938 -0.8693 -0.0198
vn -0.4936 -0.8695 -0.0178
vn -0.4996 -0.8588 -0.1132
vn 0.4698 0.8489 0.2421
vn 0.3830 0.8364 0.3920
vn -0.4698 -0.8489 -0.2421
vn -0.4698 0.8772 -0.0987
vn 0.9397 -0.0283 0.3408
vn -0.9397 0.0283 -0.3408
vn 0.4698 -0.8772 0.0987
vn 0.7660 -0.0532 0.6406
vn 0.5000 -0.0717 0.8631
vn 0.3830 -0.8897 0.2486
vn -0.3830 -0.8364 -0.3920
vn -0.3830 0.8897 -0.2486
vn -0.7660 0.0532 -0.6406
vn 0.2500 -0.8989 0.3598
vn 0.0868 -0.9038 0.4190
vn -0.5000 0.0717 -0.8631
vn 0.2500 0.8272 0.5032
vn -0.2500 -0.8272 -0.5032
vn -0.2500 0.8989 -0.3598
vn -0.1736 0.0816 -0.9814
vn 0.1736 0.0816 -0.9814
vn -0.0868 -0.8223 -0.5624
vn -0.0868 0.9038 -0.4190
vn 0.1736 -0.0816 0.9814
vn 0.0868 0.8223 0.5624
vn 0.0868 -0.8223 -0.5624
vn 0.2500 -0.8272 -0.5032
vn -0.0868 0.8223 0.5624
vn -0.0868 -0.9038 0.4190
vn 0.0868 0.9038 -0.4190
vn -0.1736 -0.0816 0.9814
vn 0.5000 0.0717 -0.8631
vn 0.7660 0.0532 -0.6406
vn 0.2500 0.8989 -0.3598
vn -0.5000 -0.0717 0.8631
vn -0.2500 0.8272 0.5032
vn -0.2500 -0.8989 0.3598
vn 0.3830 -0.8364 -0.3920
vn 0.4379 -0.8684 -0.2328
vn 0.4379 -0.8688 -0.2313
vn -0.3830 0.8364 0.3920
vn -0.3830 -0.8897 0.2486
vn 0.3830 0.8897 -0.2486
vn -0.7660 -0.0532 0.6406
vn 0.9428 0.0276 -0.3322
vn 0.9871 0.0133 -0.1596
vn 0.4379 0.8950 -0.0848
vn 0.4379 0.8949 -0.0863
vn -0.9497 -0.0259 0.3122
vn -0.4751 0.8523 0.2190
vn -0.4743 0.8521 0.2213
vn -0.4743 -0.8769 0.0776
vn -0.4751 -0.8767 0.0753
vn -0.4979 0.8672 0.0099
vn -0.4982 0.8669 0.0129
vn -0.4982 -0.8572 -0.1304
vn -0.4979 -0.8569 -0.1334
vn 0.3996 -0.9091 -0.1178
vn 0.3699 -0.9212 -0.1204
vn 0.3699 0.9285 0.0333
vn 0.3996 0.9160 0.0338
vn -0.9976 0.0057 -0.0683
vn 0.3728 -0.9219 -0.1054
vn 0.3581 -0.9288 -0.0957
vn 0.4116 0.9108 0.0326
vn 0.3728 0.9267 0.0482
vn -0.9170 0.0330 -0.3976
vn 0.9947 0.0085 -0.1026
vn 0.9364 0.0291 -0.3498
vn -0.4421 0.8783 -0.1820
vn -0.4396 0.8785 -0.1870
vn -0.3212 0.8691 -0.3761
vn -0.3279 0.8705 -0.3671
vn -0.2398 0.8451 -0.4778
vn -0.3279 -0.7980 -0.5057
vn -0.3212 -0.7952 -0.5144
vn -0.2398 -0.7547 -0.6107
vn 0.5803 -0.7955 -0.1744
vn 0.6404 -0.7433 -0.1935
vn 0.5803 0.8134 -0.0407
vn 0.6404 0.7650 -0.0682
vn -0.7700 0.0528 -0.6358
vn -0.6733 0.0612 -0.7369
vn -0.4421 -0.8362 -0.3245
vn -0.4396 -0.8356 -0.3294
vn 0.3109 -0.9415 -0.1303
vn 0.3109 0.9501 0.0269
vn 0.5000 0.8631 0.0717
vn 0.5000 0.7404 -0.4493
vn 0.5000 -0.8631 -0.0717
vn 0.5000 -0.7404 0.4493
vn -0.5000 -0.8631 -0.0717
vn -0.5000 -0.7404 0.4493
vn -0.5000 0.8631 0.0717
vn -0.5000 0.7404 -0.4493
vn 0.5000 0.3349 -0.7986
vn 0.5000 -0.3349 0.7986
vn -0.5000 -0.3349 0.7986
vn -0.5000 0.3349 -0.7986
vn -0.5000 0.1985 0.8430
vn -0.5000 -0.1985 -0.8430
vn 0.5000 -0.1985 -0.8430
vn 0.5000 0.1985 0.8430
vn 0.5000 -0.6561 -0.5653
vn 0.5000 0.6561 0.5653
vn -0.5000 0.6561 0.5653
vn -0.5000 -0.6561 -0.5653
vn 0.5000 0.8630 0.0717
vn -0.5000 0.8630 0.0717
vn 0.4949 -0.8070 0.3223
vn 0.4958 -0.8014 0.3347
vn 0.5006 0.8029 -0.3238
vn 0.5020 0.7969 -0.3360
vn -0.5020 0.7969 -0.3360
vn -0.5006 0.8029 -0.3238
vn -0.4958 -0.8014 0.3347
vn -0.4949 -0.8070 0.3223
vn -0.5006 -0.7384 -0.4518
vn -0.5020 -0.7305 -0.4629
vn -0.4949 0.7428 0.4510
vn -0.4958 0.7351 0.4623
vn 0.4958 0.7351 0.4623
vn 0.4949 0.7428 0.4510
vn 0.5020 -0.7305 -0.4629
vn 0.5006 -0.7384 -0.4518
vn -0.5167 0.7265 -0.4531
vn -0.5145 0.7284 -0.4524
vn -0.5145 -0.6438 -0.5664
vn -0.5167 -0.6418 -0.5668
vn -0.4951 0.7120 0.4979
vn -0.4946 0.7157 0.4931
vn 0.4946 0.7157 0.4931
vn 0.4951 0.7120 0.4979
vn 0.5167 -0.6418 -0.5668
vn 0.5145 -0.6438 -0.5664
vn 0.5145 0.7284 -0.4524
vn 0.5222 0.7215 -0.4547
vn 0.5167 0.7265 -0.4531
vn -0.4946 -0.7873 0.3682
vn -0.4951 -0.7844 0.3735
vn 0.4951 -0.7844 0.3735
vn 0.4946 -0.7873 0.3682
vn -0.5222 0.7215 -0.4547
vn -0.4899 -0.8567 0.1614
vn -0.4899 -0.8561 0.1648
vn 0.4899 -0.8561 0.1648
vn 0.4899 -0.8567 0.1614
vn 0.4899 0.8171 0.3038
vn 0.4899 0.8183 0.3006
vn -0.4899 0.8183 0.3006
vn -0.4899 0.8171 0.3038
vn 0.5222 -0.6365 -0.5676
vn -0.5222 -0.6365 -0.5676
vn -0.5236 -0.0706 0.8491
vn 0.9948 0.0084 -0.1016
vt 0.568633 0.332960
vt 0.568633 0.580384
vt 0.354831 0.454702
vt 0.582071 0.332318
vt 0.582071 0.579741
vt 0.602254 0.475262
vt 0.582071 0.331033
vt 0.353546 0.470166
vt 0.582071 0.578456
vt 0.600969 0.490726
vt 0.568633 0.330391
vt 0.568633 0.577814
vt 0.555195 0.331033
vt 0.353546 0.470166
vt 0.555195 0.578456
vt 0.600969 0.490726
vt 0.555195 0.332318
vt 0.354831 0.454702
vt 0.555195 0.579741
vt 0.602254 0.475262
vt 0.561146 0.290649
vt 0.573774 0.285426
vt 0.307938 0.450806
vt 0.573774 0.284141
vt 0.306653 0.466270
vt 0.561146 0.288079
vt 0.548519 0.293302
vt 0.315814 0.467031
vt 0.548519 0.294586
vt 0.317099 0.451567
vt 0.539590 0.253440
vt 0.549885 0.447379
vt 0.266702 0.447379
vt 0.549885 0.244189
vt 0.549885 0.462843
vt 0.265417 0.462843
vt 0.549885 0.242904
vt 0.539590 0.250870
vt 0.282634 0.464274
vt 0.529296 0.464274
vt 0.529296 0.260121
vt 0.283919 0.448810
vt 0.529296 0.448810
vt 0.529296 0.261406
vt 0.506564 0.225823
vt 0.513283 0.213583
vt 0.513283 0.444836
vt 0.513283 0.460300
vt 0.513283 0.212298
vt 0.506564 0.223253
vt 0.499845 0.235494
vt 0.499845 0.462228
vt 0.499845 0.236779
vt 0.499845 0.446764
vt 0.466051 0.211128
vt 0.468385 0.197297
vt 0.468385 0.443483
vt 0.468385 0.196012
vt 0.468385 0.458947
vt 0.466051 0.208558
vt 0.463718 0.461139
vt 0.463718 0.222390
vt 0.463718 0.445675
vt 0.463718 0.223675
vt 0.422939 0.211128
vt 0.420605 0.443483
vt 0.420605 0.197297
vt 0.420605 0.458947
vt 0.420605 0.196012
vt 0.422939 0.208558
vt 0.425272 0.222390
vt 0.425272 0.461139
vt 0.425272 0.223675
vt 0.425272 0.445675
vt 0.382426 0.225823
vt 0.375707 0.213583
vt 0.375707 0.444836
vt 0.375707 0.212298
vt 0.375707 0.460300
vt 0.382426 0.223253
vt 0.389145 0.462228
vt 0.389145 0.235494
vt 0.389145 0.446764
vt 0.389145 0.236779
vt 0.349400 0.253440
vt 0.339105 0.447379
vt 0.266702 0.447379
vt 0.339105 0.244189
vt 0.339105 0.462843
vt 0.265417 0.462843
vt 0.339105 0.242904
vt 0.349400 0.250870
vt 0.359694 0.464274
vt 0.359694 0.260121
vt 0.282634 0.464274
vt 0.359694 0.448810
vt 0.359694 0.261406
vt 0.283919 0.448810
vt 0.327843 0.290649
vt 0.315216 0.285426
vt 0.307938 0.450806
vt 0.315216 0.284141
vt 0.306653 0.466270
vt 0.327843 0.288079
vt 0.315814 0.467031
vt 0.340471 0.293302
vt 0.317099 0.451567
vt 0.340471 0.294587
vt 0.321575 0.336893
vt 0.358828 0.455813
vt 0.309480 0.336315
vt 0.357671 0.469731
vt 0.309480 0.335158
vt 0.321575 0.334580
vt 0.357464 0.472221
vt 0.333669 0.334951
vt 0.333669 0.472221
vt 0.359034 0.453323
vt 0.333669 0.336522
vt 0.333669 0.453323
vt 0.329500 0.378324
vt 0.403421 0.461417
vt 0.321215 0.380908
vt 0.321215 0.380065
vt 0.402578 0.471563
vt 0.329500 0.376638
vt 0.346706 0.367346
vt 0.389858 0.461895
vt 0.342583 0.407152
vt 0.342583 0.468706
vt 0.429665 0.468706
vt 0.337633 0.396516
vt 0.333031 0.464932
vt 0.421250 0.464932
vt 0.333031 0.398738
vt 0.333031 0.471040
vt 0.333031 0.398230
vt 0.420743 0.471040
vt 0.337633 0.395501
vt 0.568633 0.669955
vt 0.691825 0.521631
vt 0.582071 0.669312
vt 0.690540 0.537095
vt 0.582071 0.668028
vt 0.568633 0.667385
vt 0.555195 0.668028
vt 0.690540 0.537095
vt 0.555195 0.669312
vt 0.691825 0.521631
vt 0.568633 0.683957
vt 0.568633 0.510602
vt 0.582071 0.687982
vt 0.582071 0.517235
vt 0.710495 0.517235
vt 0.582071 0.696032
vt 0.582071 0.530501
vt 0.718545 0.530501
vt 0.568633 0.700057
vt 0.568633 0.537134
vt 0.555195 0.696032
vt 0.718545 0.530501
vt 0.555195 0.530501
vt 0.555195 0.687982
vt 0.710495 0.517235
vt 0.555195 0.517235
vt 0.568633 0.499704
vt 0.723015 0.502705
vt 0.582071 0.502705
vt 0.737325 0.508705
vt 0.582071 0.508705
vt 0.568633 0.511706
vt 0.555195 0.508705
vt 0.737325 0.508705
vt 0.555195 0.502705
vt 0.723015 0.502705
vt 0.568633 0.485369
vt 0.582071 0.483590
vt 0.724603 0.483590
vt 0.582071 0.480034
vt 0.739708 0.480034
vt 0.568633 0.478255
vt 0.739708 0.480034
vt 0.555195 0.480034
vt 0.724603 0.483590
vt 0.555195 0.483590
vt 0.568633 0.473070
vt 0.568633 0.687076
vt 0.582071 0.467193
vt 0.714653 0.467193
vt 0.582071 0.692140
vt 0.582071 0.455437
vt 0.724782 0.455437
vt 0.582071 0.702269
vt 0.568633 0.449560
vt 0.568633 0.707334
vt 0.555195 0.455437
vt 0.555195 0.702269
vt 0.724782 0.455437
vt 0.555195 0.467193
vt 0.714653 0.467193
vt 0.555195 0.692140
vt 0.568633 0.673810
vt 0.582071 0.674452
vt 0.696965 0.459776
vt 0.582071 0.675737
vt 0.698250 0.444312
vt 0.568633 0.676380
vt 0.555195 0.675737
vt 0.698250 0.444312
vt 0.555195 0.674452
vt 0.696965 0.459776
vt 0.568633 0.659807
vt 0.678295 0.464172
vt 0.582071 0.655783
vt 0.670245 0.450906
vt 0.582071 0.647733
vt 0.568633 0.643708
vt 0.555195 0.647733
vt 0.670245 0.450906
vt 0.555195 0.655783
vt 0.678295 0.464172
vt 0.568633 0.656689
vt 0.674137 0.514214
vt 0.582071 0.651624
vt 0.664008 0.525969
vt 0.582071 0.641495
vt 0.568633 0.636431
vt 0.555195 0.641495
vt 0.664008 0.525969
vt 0.555195 0.651624
vt 0.674137 0.514214
vt 0.568633 0.633227
vt 0.650626 0.493956
vt 0.582071 0.628114
vt 0.640497 0.505711
vt 0.582071 0.617985
vt 0.568633 0.612920
vt 0.640497 0.505711
vt 0.555195 0.617985
vt 0.650626 0.493956
vt 0.555195 0.628114
vt 0.582071 0.629251
vt 0.651763 0.480272
vt 0.582071 0.621201
vt 0.643714 0.467006
vt 0.568633 0.617176
vt 0.555195 0.621201
vt 0.643714 0.467006
vt 0.555195 0.629251
vt 0.651763 0.480272
vt 0.582071 0.598477
vt 0.620990 0.495126
vt 0.582071 0.600214
vt 0.622727 0.474226
vt 0.555195 0.600214
vt 0.622727 0.474226
vt 0.555195 0.598477
vt 0.620990 0.495126
vt 0.568633 0.598523
vt 0.568633 0.595624
vt 0.582071 0.619593
vt 0.642105 0.486359
vt 0.555195 0.619593
vt 0.642105 0.486359
vt 0.338499 0.461131
vt 0.365919 0.315987
vt 0.365919 0.461131
vt 0.346706 0.366767
vt 0.389280 0.468854
s 1
usemtl metal_hr_6
f 1/1/1 2/2/2 4/5/3 3/4/4
f 3/3/5 4/6/6 6/10/6 5/8/5
f 5/7/7 6/9/8 8/12/9 7/11/10
f 7/11/11 8/12/12 10/15/13 9/13/14
f 9/14/15 10/16/16 12/20/16 11/18/15
f 11/17/17 12/19/18 2/2/19 1/1/20
f 5/7/7 7/11/10 16/26/21 15/24/21
f 15/24/21 16/26/21 22/38/22 21/37/22
f 11/17/17 1/1/20 13/21/23 18/29/23
f 7/11/11 9/13/14 17/27/24 16/26/24
f 3/3/5 5/8/5 15/25/25 14/23/25
f 9/14/15 11/18/15 18/30/26 17/28/26
f 1/1/1 3/4/4 14/22/27 13/21/27
f 20/32/28 21/35/28 27/48/29 26/47/29
f 13/21/27 14/22/27 20/34/30 19/31/30
f 18/29/23 13/21/23 19/31/31 24/44/31
f 16/26/24 17/27/24 23/41/32 22/38/32
f 14/23/25 15/25/25 21/36/28 20/33/28
f 17/28/26 18/30/26 24/42/33 23/39/33
f 25/45/34 26/46/34 32/56/35 31/55/35
f 23/40/33 24/43/33 30/54/36 29/52/36
f 21/37/22 22/38/22 28/50/37 27/49/37
f 19/31/30 20/34/30 26/46/34 25/45/34
f 24/44/31 19/31/31 25/45/38 30/53/38
f 22/38/32 23/41/32 29/51/39 28/50/39
f 35/61/40 36/63/40 42/74/41 41/72/41
f 30/53/38 25/45/38 31/55/42 36/64/42
f 28/50/39 29/51/39 35/62/43 34/60/43
f 26/47/29 27/48/29 33/59/44 32/57/44
f 29/52/36 30/54/36 36/63/40 35/61/40
f 27/49/37 28/50/37 34/60/45 33/58/45
f 42/73/46 37/65/46 43/75/47 48/84/47
f 33/58/45 34/60/45 40/70/48 39/69/48
f 31/55/35 32/56/35 38/67/49 37/65/49
f 36/64/42 31/55/42 37/65/46 42/73/46
f 34/60/43 35/62/43 41/71/50 40/70/50
f 32/57/44 33/59/44 39/68/51 38/66/51
f 47/81/52 48/83/52 54/96/53 53/93/53
f 40/70/50 41/71/50 47/82/54 46/80/54
f 38/66/51 39/68/51 45/79/55 44/77/55
f 41/72/41 42/74/41 48/83/52 47/81/52
f 39/69/48 40/70/48 46/80/56 45/78/56
f 37/65/49 38/67/49 44/76/57 43/75/57
f 54/97/58 49/85/58 55/99/59 60/108/60
f 45/78/56 46/80/56 52/92/61 51/91/61
f 43/75/57 44/76/57 50/88/62 49/85/62
f 48/84/47 43/75/47 49/85/58 54/97/58
f 46/80/54 47/82/54 53/94/63 52/92/63
f 44/77/55 45/79/55 51/89/64 50/86/64
f 59/105/65 60/107/65 66/118/66 65/115/66
f 52/92/63 53/94/63 59/106/67 58/104/68
f 50/87/64 51/90/64 57/103/69 56/101/69
f 53/95/53 54/98/53 60/107/65 59/105/65
f 51/91/61 52/92/61 58/104/70 57/102/71
f 49/85/62 50/88/62 56/100/72 55/99/73
f 57/102/71 58/104/70 64/114/74 63/113/75
f 55/99/73 56/100/72 62/111/76 61/109/77
f 60/108/60 55/99/59 61/109/78 66/119/79
f 58/104/68 59/106/67 65/116/80 64/114/81
f 56/101/69 57/103/69 63/112/82 62/110/82
f 66/119/79 61/109/78 67/121/83 71/127/84
f 64/114/81 65/116/80 145/268/85 70/126/86
f 62/110/82 63/112/82 69/125/87 68/122/87
f 71/128/88 145/269/88 144/265/89
f 63/113/75 64/114/74 70/126/90 69/124/91
f 75/137/92 76/139/93 72/129/94
f 73/132/95 74/135/96 72/129/97
f 71/127/84 73/132/98 72/129/99
f 76/139/100 145/268/85 72/129/101
f 74/133/102 75/136/102 72/130/103
f 69/124/91 70/126/90 76/139/93 75/137/92
f 71/127/84 67/121/83 73/132/98
f 68/122/87 69/125/87 75/138/102 74/134/102
f 70/126/86 145/268/85 76/139/100
f 67/121/104 68/123/105 74/135/96 73/132/95
f 61/109/77 62/111/76 68/123/105 67/121/104
f 71/127/84 144/266/106 66/119/79
f 145/268/85 65/116/80 144/266/107
f 79/143/6 78/141/6 84/154/6 85/157/6
f 82/149/16 81/147/16 87/161/16 88/164/16
f 80/145/108 79/144/108 85/155/109 86/158/109
f 78/142/110 77/140/110 83/150/111 84/152/111
f 77/140/112 82/148/112 88/163/113 83/150/113
f 81/146/114 80/145/114 86/158/115 87/160/115
f 88/164/16 87/161/16 93/173/16 94/175/16
f 86/159/109 85/156/109 91/170/116 92/171/116
f 84/153/111 83/151/111 89/166/117 90/168/117
f 83/151/113 88/165/113 94/174/118 89/166/118
f 87/162/115 86/159/115 92/171/119 93/172/119
f 85/157/6 84/154/6 90/167/6 91/169/6
f 89/166/118 94/174/118 100/185/120 95/176/120
f 93/172/119 92/171/119 98/181/121 99/183/121
f 91/169/6 90/167/6 96/178/6 97/180/6
f 94/175/16 93/173/16 99/182/16 100/184/16
f 92/171/116 91/170/116 97/179/122 98/181/122
f 90/168/117 89/166/117 95/176/123 96/177/123
f 100/184/16 99/182/16 105/198/16 106/200/16
f 98/181/122 97/179/122 103/191/124 104/194/124
f 96/177/123 95/176/123 101/186/125 102/188/125
f 95/176/120 100/185/120 106/199/126 101/186/126
f 99/183/121 98/181/121 104/194/127 105/196/127
f 97/180/6 96/178/6 102/189/6 103/192/6
f 105/197/127 104/195/127 110/207/112 111/208/112
f 103/192/6 102/189/6 108/204/6 109/206/6
f 106/200/16 105/198/16 111/209/16 112/211/16
f 104/195/124 103/193/124 109/205/110 110/207/110
f 102/190/125 101/187/125 107/202/128 108/203/128
f 101/187/126 106/201/126 112/210/129 107/202/129
f 110/207/110 109/205/110 115/216/130 116/217/131
f 108/203/128 107/202/128 113/212/132 114/214/133
f 107/202/129 112/210/129 118/220/134 113/212/135
f 111/208/112 110/207/112 116/217/136 117/218/137
f 109/206/6 108/204/6 114/213/6 115/215/6
f 112/211/16 111/209/16 117/219/16 118/221/16
f 119/222/138 124/230/139 82/148/112 77/140/112
f 123/228/140 122/227/141 80/145/114 81/146/114
f 121/225/6 120/223/6 78/141/6 79/143/6
f 124/231/16 123/229/16 81/147/16 82/149/16
f 122/227/142 121/226/143 79/144/108 80/145/108
f 120/224/144 119/222/145 77/140/110 78/142/110
f 113/212/135 118/220/134 135/249/146 125/232/147
f 124/230/139 119/222/138 125/232/148 130/241/149
f 126/233/6 127/235/6 142/262/6
f 122/227/141 123/228/140 129/239/150 128/237/151
f 120/223/6 121/225/6 127/235/6 126/233/6
f 123/229/16 124/231/16 130/240/16 129/238/16
f 121/226/143 122/227/142 128/237/152 127/236/153
f 119/222/145 120/224/144 126/234/154 125/232/155
f 125/232/156 142/261/157 131/242/158
f 117/218/137 116/217/136 133/246/159 134/247/160
f 115/215/6 114/213/6 131/243/6 132/245/6
f 118/221/16 117/219/16 134/248/16 135/250/16
f 116/217/131 115/216/130 132/244/161 133/246/162
f 114/214/133 113/212/132 125/232/156 131/242/158
f 135/249/146 143/263/163 125/232/147
f 129/238/16 130/240/16 143/264/16
f 136/252/6 142/262/6 127/235/6
f 139/258/16 129/238/16 143/264/16
f 140/259/164 138/255/165 134/247/160 133/246/159
f 137/253/166 140/259/167 133/246/162 132/244/161
f 136/251/168 127/236/153 128/237/152 141/260/169
f 141/260/170 128/237/151 129/239/150 139/257/171
f 8/12/12 141/260/170 139/257/171 10/15/13
f 6/9/8 136/251/168 141/260/169 8/12/9
f 4/5/3 2/2/2 140/259/167 137/253/166
f 2/2/19 12/19/18 138/255/165 140/259/164
f 12/20/16 10/16/16 139/258/16 138/256/16
f 4/6/6 137/254/6 136/252/6 6/10/6
f 125/232/155 126/234/154 142/261/172
f 132/245/6 131/243/6 142/262/6
f 134/248/16 138/256/16 143/264/16
f 143/264/16 135/250/16 134/248/16
f 130/241/149 125/232/148 143/263/173
f 138/256/16 139/258/16 143/264/16
f 137/254/6 132/245/6 142/262/6
f 136/252/6 137/254/6 142/262/6
f 65/117/174 66/120/174 144/267/174
f 145/269/88 71/128/88 72/131/175
