# Blender 3.4.0
# www.blender.org
mtllib glass_bottle_mx_2.mtl
o glass_bottle_mx_2
v 0.016976 0.372218 0.009802
v -0.009801 0.372218 -0.016974
v 0.018974 0.378099 -0.010953
v 0.010955 0.378099 -0.018973
v 0.021909 0.378099 0.000001
v 0.010955 0.378099 0.018975
v 0.018974 0.378099 0.010956
v 0.000000 0.378099 -0.021908
v -0.010955 0.378099 -0.018973
v -0.018974 0.378099 -0.010953
v -0.021909 0.378099 0.000001
v 0.000000 0.378099 0.021911
v -0.018974 0.378099 0.010956
v -0.010955 0.378099 0.018975
v 0.016976 0.393040 -0.009800
v 0.009801 0.393040 -0.016974
v 0.019602 0.393040 0.000001
v 0.009801 0.393040 0.016977
v 0.016976 0.393040 0.009802
v 0.000000 0.393040 -0.019601
v -0.009801 0.393040 -0.016974
v -0.016976 0.393040 -0.009800
v -0.019602 0.393040 0.000001
v 0.000000 0.393040 0.019603
v -0.016976 0.393040 0.009802
v -0.009801 0.393040 0.016977
v -0.010569 0.395250 -0.018304
v 0.000000 0.395250 -0.021136
v -0.021137 0.395250 0.000001
v -0.018305 0.395250 -0.010567
v -0.018305 0.395250 0.010570
v 0.010569 0.395250 -0.018304
v 0.018305 0.395250 -0.010567
v 0.010569 0.395250 0.018307
v 0.000000 0.395250 0.021139
v -0.010569 0.395250 0.018307
v 0.018305 0.395250 0.010570
v 0.021137 0.395250 0.000001
v -0.009801 0.372218 0.016977
v -0.019020 0.281228 0.032944
v -0.016976 0.372218 0.009802
v -0.032943 0.281228 0.019021
v -0.046684 0.009801 0.026953
v 0.009801 0.372218 0.016977
v -0.026953 0.009801 0.046684
v 0.009801 0.372218 -0.016975
v 0.019020 0.281228 -0.032942
v 0.016976 0.372218 -0.009800
v 0.032943 0.281228 -0.019018
v -0.019602 0.372218 0.000001
v -0.053906 0.009801 0.000000
v -0.016976 0.372218 -0.009800
v -0.032943 0.281228 -0.019018
v 0.019602 0.372218 0.000001
v 0.038039 0.281228 0.000001
v -0.000000 0.372218 -0.019601
v -0.000000 0.281228 -0.038038
v -0.019020 0.281228 -0.032942
v 0.000000 0.372218 0.019603
v -0.000000 0.281228 0.038040
v 0.000000 0.009801 0.053906
v 0.043020 0.236834 -0.024837
v -0.026953 0.009801 -0.046683
v -0.046684 0.009801 -0.026953
v 0.019020 0.281228 0.032944
v 0.032943 0.281228 0.019021
v -0.000000 0.009801 -0.053905
v 0.026953 0.009801 0.046684
v -0.024838 0.236834 -0.043019
v 0.046684 0.009801 0.026953
v -0.043020 0.236834 -0.024837
v -0.038039 0.281228 0.000001
v 0.053906 0.009801 0.000000
v 0.046684 0.009801 -0.026953
v -0.043020 0.236834 0.024839
v 0.026953 0.009801 -0.046684
v -0.009601 0.010890 0.016630
v -0.019202 0.010890 0.000000
v -0.009601 0.010890 -0.016630
v 0.009601 0.010890 0.016630
v 0.019202 0.010890 -0.000000
v 0.009601 0.010890 -0.016630
v -0.000000 0.004901 -0.052999
v 0.026499 0.004901 -0.045898
v -0.026500 0.004900 0.045899
v -0.045898 0.004900 0.026500
v 0.045898 0.004900 0.026500
v 0.052999 0.004900 0.000000
v -0.026500 0.004901 -0.045898
v -0.045899 0.004901 -0.026499
v -0.052999 0.004900 0.000000
v 0.045898 0.004901 -0.026499
v -0.000000 0.004900 0.052999
v 0.026499 0.004900 0.045898
v 0.046684 0.198454 -0.026952
v 0.024838 0.236834 -0.043019
v 0.026953 0.198454 -0.046683
v 0.049676 0.236834 0.000001
v 0.053906 0.198454 0.000001
v 0.026953 0.198454 0.046684
v 0.024838 0.236834 0.043021
v 0.046684 0.198454 0.026953
v 0.043020 0.236834 0.024839
v -0.000000 0.198454 -0.053905
v 0.000000 0.236834 -0.049675
v -0.026953 0.198454 -0.046683
v -0.046684 0.198454 -0.026952
v -0.053906 0.198454 0.000001
v -0.049676 0.236834 0.000001
v 0.000000 0.236834 0.049676
v 0.000000 0.198454 0.053906
v -0.046684 0.198454 0.026953
v -0.026953 0.198454 0.046684
v -0.024838 0.236834 0.043021
v 0.024257 0.000000 -0.042015
v -0.000000 0.000000 -0.048515
v 0.048515 0.000000 -0.000000
v -0.042015 0.000000 -0.024257
v -0.024258 -0.000000 0.042015
v -0.024258 0.000000 -0.042015
v -0.000000 -0.000000 0.048515
v 0.024257 -0.000000 0.042015
v 0.042015 0.000000 -0.024257
v -0.048515 -0.000000 0.000000
v 0.042015 -0.000000 0.024257
v -0.042015 -0.000000 0.024257
v 0.022499 0.332487 0.012992
v 0.012990 0.332487 0.022501
v 0.012990 0.332487 -0.022498
v -0.022500 0.332487 -0.012989
v 0.025980 0.332487 0.000002
v -0.000000 0.332487 -0.025979
v -0.012991 0.332487 -0.022498
v -0.012991 0.332487 0.022501
v -0.022500 0.332487 0.012992
v 0.022499 0.332487 -0.012989
v -0.025981 0.332487 0.000001
v -0.000000 0.332487 0.025982
v -0.021562 0.404295 0.000001
v -0.018673 0.404295 -0.010780
v 0.010781 0.404295 0.018675
v 0.000000 0.404295 0.021564
v 0.018674 0.404295 -0.010780
v 0.021562 0.404295 0.000001
v 0.000000 0.404295 -0.021561
v 0.010781 0.404295 -0.018672
v 0.018674 0.404295 0.010783
v -0.018673 0.404295 0.010783
v -0.010781 0.404295 0.018675
v -0.010781 0.404295 -0.018672
v -0.011625 0.395022 -0.020135
v -0.023251 0.395022 0.000001
v -0.020136 0.395022 0.011627
v 0.011626 0.395022 -0.020135
v 0.011626 0.395022 0.020137
v -0.011625 0.395022 0.020137
v 0.020136 0.395022 0.011627
v 0.000000 0.395022 -0.023250
v -0.020136 0.395022 -0.011624
v 0.020136 0.395022 -0.011624
v 0.000000 0.395022 0.023252
v 0.023251 0.395022 0.000001
vn -0.0000 0.0544 -0.9985
vn -0.0000 -0.0900 -0.9959
vn -0.4980 -0.0900 -0.8625
vn -0.4993 0.0544 -0.8647
vn -0.8647 0.0544 -0.4993
vn -0.8625 -0.0900 -0.4980
vn -0.9959 -0.0900 -0.0000
vn -0.9985 0.0544 -0.0000
vn 0.8647 0.0544 0.4993
vn 0.8625 -0.0900 0.4980
vn 0.9959 -0.0900 -0.0000
vn 0.9985 0.0544 -0.0000
vn -0.4993 0.0544 0.8647
vn -0.4980 -0.0900 0.8625
vn -0.0000 -0.0900 0.9959
vn -0.0000 0.0544 0.9985
vn 0.8625 -0.0900 -0.4980
vn 0.8647 0.0544 -0.4993
vn 0.4993 0.0544 0.8647
vn 0.4980 -0.0900 0.8625
vn -0.8647 0.0544 0.4993
vn -0.8625 -0.0900 0.4980
vn 0.4993 0.0544 -0.8647
vn 0.4980 -0.0900 -0.8625
vn -0.9309 -0.3652 -0.0000
vn -0.8062 -0.3652 0.4655
vn -0.8612 -0.1057 0.4972
vn -0.9944 -0.1057 -0.0000
vn -0.8612 -0.1057 -0.4972
vn -0.9709 -0.2397 -0.0000
vn -0.8408 -0.2397 -0.4854
vn 0.8062 -0.3652 -0.4655
vn 0.4655 -0.3652 -0.8062
vn 0.4972 -0.1057 -0.8612
vn 0.8612 -0.1057 -0.4972
vn -0.4655 -0.3652 -0.8062
vn -0.8062 -0.3652 -0.4655
vn -0.4972 -0.1057 -0.8612
vn -0.0000 -0.3652 0.9309
vn 0.4655 -0.3652 0.8062
vn 0.4972 -0.1057 0.8612
vn -0.0000 -0.1057 0.9944
vn -0.4655 -0.3652 0.8062
vn -0.4972 -0.1057 0.8612
vn 0.8062 -0.3652 0.4655
vn 0.8612 -0.1057 0.4972
vn 0.9309 -0.3652 -0.0000
vn 0.9944 -0.1057 -0.0000
vn -0.0000 -0.3652 -0.9309
vn -0.0000 -0.1057 -0.9944
vn -0.8408 -0.2397 0.4854
vn 0.4854 -0.2397 -0.8408
vn 0.8408 -0.2397 -0.4854
vn -0.4854 -0.2397 -0.8408
vn 0.4854 -0.2397 0.8408
vn -0.0000 -0.2397 0.9709
vn -0.4854 -0.2397 0.8408
vn 0.8408 -0.2397 0.4854
vn 0.9709 -0.2397 -0.0000
vn -0.0000 -0.2397 -0.9709
vn -0.0000 -0.5705 -0.8213
vn 0.4107 -0.5705 -0.7113
vn 0.8213 -0.5705 -0.0000
vn 0.7113 -0.5705 0.4107
vn -0.0000 -0.5705 0.8213
vn -0.4106 -0.5705 0.7113
vn 0.7113 -0.5705 -0.4107
vn 0.4106 -0.5705 0.7113
vn -0.7113 -0.5705 0.4107
vn -0.7113 -0.5705 -0.4107
vn -0.4107 -0.5705 -0.7113
vn -0.8213 -0.5705 -0.0000
vn 0.4904 0.1950 0.8494
vn -0.0000 0.1950 0.9808
vn -0.0000 0.2418 0.9703
vn 0.4852 0.2418 0.8403
vn 0.8494 0.1950 -0.4904
vn 0.4904 0.1950 -0.8494
vn 0.4937 0.1585 -0.8551
vn 0.8551 0.1585 -0.4937
vn 0.9808 0.1950 -0.0000
vn 0.9703 0.2418 -0.0000
vn 0.8403 0.2418 -0.4852
vn -0.9808 0.1950 -0.0000
vn -0.8494 0.1950 -0.4904
vn -0.8403 0.2418 -0.4852
vn -0.9703 0.2418 -0.0000
vn -0.8494 0.1950 0.4904
vn -0.8403 0.2418 0.4852
vn 0.8494 0.1950 0.4904
vn 0.8403 0.2418 0.4852
vn -0.0000 0.1950 -0.9808
vn -0.4904 0.1950 -0.8494
vn -0.4937 0.1585 -0.8551
vn -0.0000 0.1585 -0.9874
vn 0.4852 0.2418 -0.8403
vn -0.0000 0.2418 -0.9703
vn -0.4904 0.1950 0.8494
vn -0.4852 0.2418 0.8403
vn -0.8551 0.1585 0.4937
vn -0.9874 0.1585 -0.0000
vn -0.4852 0.2418 -0.8403
vn 0.4937 0.1585 0.8551
vn -0.0000 0.1585 0.9874
vn 0.9874 0.1585 -0.0000
vn 0.8551 0.1585 0.4937
vn -0.8551 0.1585 -0.4937
vn -0.4937 0.1585 0.8551
vn -0.8519 0.1799 -0.4918
vn -0.9837 0.1799 -0.0000
vn -0.0000 0.1799 0.9837
vn 0.4918 0.1799 0.8519
vn 0.9837 0.1799 -0.0000
vn 0.8519 0.1799 -0.4918
vn 0.4918 0.1799 -0.8519
vn -0.0000 0.1799 -0.9837
vn 0.8519 0.1799 0.4918
vn -0.8519 0.1799 0.4918
vn -0.4918 0.1799 0.8519
vn -0.4918 0.1799 -0.8519
vn -0.4518 -0.4285 0.7825
vn -0.7825 -0.4285 0.4518
vn -0.6389 -0.6751 0.3689
vn -0.3689 -0.6751 0.6389
vn -0.0000 -0.4285 -0.9035
vn 0.4518 -0.4285 -0.7825
vn 0.3689 -0.6751 -0.6389
vn -0.0000 -0.6751 -0.7378
vn 0.9035 -0.4285 -0.0000
vn 0.7825 -0.4285 0.4518
vn 0.6389 -0.6751 0.3689
vn 0.7377 -0.6751 -0.0000
vn -0.7825 -0.4285 -0.4518
vn -0.4518 -0.4285 -0.7825
vn -0.3689 -0.6751 -0.6389
vn -0.6389 -0.6751 -0.3689
vn -0.9035 -0.4285 -0.0000
vn -0.7378 -0.6751 -0.0000
vn 0.7825 -0.4285 -0.4518
vn 0.6389 -0.6751 -0.3689
vn -0.0000 -0.4285 0.9035
vn -0.0000 -0.6751 0.7378
vn 0.4518 -0.4285 0.7825
vn 0.3689 -0.6751 0.6389
vn -0.1029 -0.9786 0.1782
vn 0.1029 -0.9786 0.1782
vn -0.0000 -0.9393 0.3430
vn 0.2058 -0.9786 -0.0000
vn 0.1029 -0.9786 -0.1783
vn 0.2971 -0.9393 -0.1715
vn -0.2058 -0.9786 -0.0000
vn -0.2971 -0.9393 0.1715
vn 0.2971 -0.9393 0.1715
vn 0.1741 -0.9374 0.3016
vn -0.1029 -0.9786 -0.1783
vn -0.2971 -0.9393 -0.1715
vn -0.0000 -0.9393 -0.3430
vn -0.1741 -0.9374 0.3016
vn 0.3483 -0.9374 -0.0000
vn -0.3483 -0.9374 -0.0000
vn -0.1741 -0.9374 -0.3016
vn 0.1741 -0.9374 -0.3016
vn -0.0000 -0.9942 -0.1076
vn -0.0538 -0.9942 -0.0931
vn 0.1076 -0.9942 -0.0000
vn 0.0932 -0.9942 -0.0538
vn 0.0538 -0.9942 -0.0932
vn -0.0931 -0.9942 0.0538
vn -0.0538 -0.9942 0.0931
vn -0.0931 -0.9942 -0.0538
vn -0.1076 -0.9942 -0.0000
vn -0.0000 -0.9942 0.1076
vn 0.0538 -0.9942 0.0932
vn 0.0932 -0.9942 0.0538
vn 0.0931 -0.9942 0.0538
vn -0.2549 0.1733 -0.9513
vn -0.3478 0.7185 -0.6024
vn -0.0000 0.7185 -0.6955
vn -0.9513 0.1733 -0.2549
vn -0.6955 0.7185 -0.0000
vn -0.6024 0.7185 -0.3478
vn -0.9513 0.1733 0.2549
vn -0.6024 0.7185 0.3478
vn 0.6964 0.1733 -0.6964
vn 0.3478 0.7185 -0.6024
vn 0.6024 0.7185 -0.3478
vn -0.6964 0.1733 -0.6964
vn 0.2549 0.1733 0.9513
vn 0.3478 0.7185 0.6024
vn -0.0000 0.7185 0.6956
vn -0.6964 0.1733 0.6964
vn -0.3478 0.7185 0.6024
vn 0.6964 0.1733 0.6964
vn 0.6024 0.7185 0.3478
vn 0.9513 0.1733 -0.2549
vn 0.6955 0.7185 -0.0000
vn -0.2549 0.1733 0.9513
vn 0.9513 0.1733 0.2549
vn 0.2549 0.1733 -0.9513
vt 0.281250 0.671875
vt 0.898438 0.671875
vt 0.257812 0.671875
vt 0.734375 0.671875
vt 0.335938 0.656250
vt 0.359375 0.656250
vt 0.312500 0.656250
vt 0.257812 0.656250
vt 0.281250 0.656250
vt 0.382812 0.656250
vt 0.234375 0.656250
vt 0.257812 0.656250
vt 0.281250 0.656250
vt 0.312500 0.656250
vt 0.234375 0.656250
vt 0.382812 0.656250
vt 0.335938 0.656250
vt 0.359375 0.656250
vt 0.335938 0.625000
vt 0.359375 0.625000
vt 0.312500 0.625000
vt 0.257812 0.625000
vt 0.281250 0.625000
vt 0.382812 0.625000
vt 0.234375 0.625000
vt 0.257812 0.625000
vt 0.281250 0.625000
vt 0.312500 0.625000
vt 0.382812 0.625000
vt 0.234375 0.625000
vt 0.335938 0.625000
vt 0.359375 0.625000
vt 0.257812 0.617188
vt 0.250000 0.976562
vt 0.382812 0.617188
vt 0.234375 0.617188
vt 0.226562 0.976562
vt 0.367188 0.976562
vt 0.312500 0.617188
vt 0.296875 0.976562
vt 0.281250 0.617188
vt 0.273438 0.976562
vt 0.335938 0.617188
vt 0.320312 0.976562
vt 0.359375 0.617188
vt 0.343750 0.976562
vt 0.335938 0.617188
vt 0.320312 0.976562
vt 0.257812 0.617188
vt 0.250000 0.976562
vt 0.382812 0.617188
vt 0.234375 0.617188
vt 0.226562 0.976562
vt 0.367188 0.976562
vt 0.359375 0.617188
vt 0.343750 0.976562
vt 0.281250 0.617188
vt 0.273438 0.976562
vt 0.312500 0.617188
vt 0.296875 0.976562
vt 0.359375 0.671875
vt 0.828125 0.671875
vt 0.554688 0.671875
vt 0.554974 0.516243
vt 0.335938 0.671875
vt 0.804688 0.671875
vt 0.492188 0.671875
vt 0.491399 0.516243
vt 0.491284 0.027326
vt 0.745642 0.027326
vt 0.257812 0.671875
vt 0.875000 0.671875
vt 0.554873 0.027326
vt 0.682052 0.027326
vt 0.359375 0.671875
vt 0.976562 0.671875
vt 0.937500 0.671875
vt 0.936425 0.516243
vt 0.335938 0.671875
vt 0.953125 0.671875
vt 0.875000 0.671875
vt 0.872850 0.516243
vt 0.312500 0.671875
vt 0.781250 0.671875
vt 0.427694 0.027326
vt 0.809231 0.027326
vt 0.281250 0.671875
vt 0.757812 0.671875
vt 0.367188 0.671875
vt 0.364249 0.516243
vt 0.312500 0.671875
vt 0.921875 0.671875
vt 0.812500 0.671875
vt 0.809275 0.516243
vt 0.382812 0.671875
vt 0.234375 0.671875
vt 0.710938 0.671875
vt 1.000000 0.671875
vt 1.000000 0.671875
vt 0.234375 0.671875
vt 1.000000 0.516243
vt 0.237099 0.516243
vt 0.296875 0.671875
vt 0.300674 0.516243
vt 0.234375 0.671875
vt 0.382812 0.671875
vt 0.851562 0.671875
vt 0.617188 0.671875
vt 0.618549 0.516243
vt 0.618463 0.027326
vt 0.872850 0.608764
vt 0.300515 0.027326
vt 0.936410 0.027326
vt 0.364105 0.027326
vt 0.872821 0.027326
vt 0.679688 0.671875
vt 0.682124 0.516243
vt 0.742188 0.671875
vt 0.745699 0.516243
vt 1.000000 0.027326
vt 0.236926 0.027326
vt 0.554873 0.027326
vt 0.682052 0.027326
vt 0.300674 0.608764
vt 0.745642 0.027326
vt 0.491284 0.027326
vt 0.364249 0.608764
vt 0.429688 0.671875
vt 0.427824 0.516243
vt 0.809231 0.027326
vt 0.427694 0.027326
vt 0.872821 0.027326
vt 0.364105 0.027326
vt 0.491399 0.608764
vt 0.936411 0.027326
vt 0.300515 0.027326
vt 0.730478 0.859522
vt 0.768845 0.869703
vt 0.778985 0.908081
vt 0.702312 0.887493
vt 0.712679 0.925810
vt 0.750985 0.936217
vt 1.000000 0.015612
vt 0.236926 0.015612
vt 0.300515 0.015612
vt 0.682052 0.015612
vt 0.745642 0.015612
vt 0.491284 0.015612
vt 0.427694 0.015612
vt 0.936410 0.015612
vt 0.872821 0.015612
vt 0.809231 0.015612
vt 0.364105 0.015612
vt 0.618463 0.015612
vt 0.554873 0.015612
vt 0.872821 0.514991
vt 0.872850 0.668730
vt 0.936425 0.608764
vt 0.936411 0.514991
vt 0.936425 0.668730
vt 0.809275 0.608764
vt 0.809231 0.514991
vt 0.809275 0.668730
vt 0.682124 0.668730
vt 0.682052 0.514991
vt 0.682124 0.608764
vt 0.745642 0.514991
vt 0.745699 0.668730
vt 0.745699 0.608764
vt 0.236926 0.514991
vt 1.000000 0.514991
vt 1.000000 0.668730
vt 0.237099 0.668730
vt 1.000000 0.608764
vt 0.237099 0.608764
vt 0.300515 0.514991
vt 0.300674 0.668730
vt 0.364105 0.514991
vt 0.364249 0.668730
vt 0.427694 0.514991
vt 0.427824 0.668730
vt 0.427824 0.608764
vt 0.618549 0.608764
vt 0.618549 0.668730
vt 0.618463 0.514991
vt 0.491284 0.514991
vt 0.491399 0.668730
vt 0.554873 0.514991
vt 0.554974 0.668730
vt 0.554974 0.608764
vt 0.300515 0.000000
vt 0.768039 1.000000
vt 0.236926 0.000000
vt 1.000000 0.000000
vt 0.815499 0.972667
vt 0.427694 0.000000
vt 0.665905 0.972533
vt 0.872821 0.000000
vt 0.842940 0.870473
vt 0.682052 0.000000
vt 0.713401 0.795653
vt 0.936410 0.000000
vt 0.842836 0.925227
vt 0.618463 0.000000
vt 0.665932 0.822940
vt 0.554873 0.000000
vt 0.638548 0.870370
vt 0.364105 0.000000
vt 0.713271 1.000000
vt 0.809231 0.000000
vt 0.815556 0.823043
vt 0.491284 0.000000
vt 0.638489 0.925138
vt 0.745642 0.000000
vt 0.768155 0.795608
vt 0.742188 0.781250
vt 0.898438 0.585938
vt 0.679688 0.781250
vt 0.875000 0.585938
vt 0.976562 0.585938
vt 0.937500 0.781250
vt 0.367188 0.781250
vt 0.757812 0.585938
vt 0.921875 0.585938
vt 0.812500 0.781250
vt 0.710938 0.585938
vt 1.000000 0.781250
vt 1.000000 0.585938
vt 0.234375 0.781250
vt 0.296875 0.781250
vt 0.734375 0.585938
vt 0.554688 0.781250
vt 0.828125 0.585938
vt 0.492188 0.781250
vt 0.804688 0.585938
vt 0.875000 0.781250
vt 0.953125 0.585938
vt 0.429688 0.781250
vt 0.781250 0.585938
vt 0.617188 0.781250
vt 0.851562 0.585938
vt 0.296875 1.000000
vt 0.224321 0.963828
vt 0.273438 1.000000
vt 0.241011 0.973464
vt 0.250000 1.000000
vt 0.241011 0.901540
vt 0.226562 1.000000
vt 0.367188 1.000000
vt 0.224321 0.911176
vt 0.320312 1.000000
vt 0.286608 0.927866
vt 0.296875 1.000000
vt 0.276973 0.911176
vt 0.226562 1.000000
vt 0.367188 1.000000
vt 0.276973 0.963828
vt 0.343750 1.000000
vt 0.286608 0.947138
vt 0.273438 1.000000
vt 0.260283 0.901540
vt 0.320312 1.000000
vt 0.214685 0.947138
vt 0.343750 1.000000
vt 0.214685 0.927866
vt 0.250000 1.000000
vt 0.260283 0.973464
vt 0.250000 0.976562
vt 0.296875 0.976562
vt 0.320312 0.976562
vt 0.343750 0.976562
vt 0.250000 0.976562
vt 0.343750 0.976562
vt 0.273438 0.976562
vt 0.226562 0.976562
vt 0.367188 0.976562
vt 0.273438 0.976562
vt 0.320312 0.976562
vt 0.226562 0.976562
vt 0.367188 0.976562
vt 0.296875 0.976562
s 1
usemtl glass_bottle_mx_2
f 104/170/1 67/121/2 63/112/3 106/176/4
f 107/178/5 64/114/6 51/85/7 108/180/8
f 102/167/9 70/125/10 73/130/11 99/162/12
f 113/188/13 45/73/14 61/110/15 111/185/16
f 74/132/17 95/156/18 99/162/12 73/130/11
f 100/165/19 68/123/20 70/125/10 102/167/9
f 112/186/21 43/69/22 45/73/14 113/188/13
f 67/120/2 104/171/1 97/159/23 76/135/24
f 108/180/8 51/85/7 43/69/22 112/186/21
f 50/83/25 41/65/26 13/17/27 11/14/28
f 10/13/29 11/14/28 23/28/30 22/27/31
f 48/79/32 46/75/33 4/6/34 3/5/35
f 2/3/36 52/87/37 10/13/29 9/12/38
f 59/105/39 44/71/40 6/8/41 12/15/42
f 41/65/26 39/61/43 14/18/44 13/17/27
f 44/71/40 1/1/45 7/9/46 6/8/41
f 54/91/47 48/79/32 3/5/35 5/7/48
f 39/61/43 59/106/39 12/16/42 14/18/44
f 1/1/45 54/91/47 5/7/48 7/9/46
f 46/75/33 56/95/49 8/10/50 4/6/34
f 56/96/49 2/3/36 9/12/38 8/11/50
f 52/87/37 50/83/25 11/14/28 10/13/29
f 11/14/28 13/17/27 25/31/51 23/28/30
f 3/5/35 4/6/34 16/20/52 15/19/53
f 9/12/38 10/13/29 22/27/31 21/26/54
f 12/15/42 6/8/41 18/22/55 24/30/56
f 13/17/27 14/18/44 26/32/57 25/31/51
f 6/8/41 7/9/46 19/23/58 18/22/55
f 5/7/48 3/5/35 15/19/53 17/21/59
f 14/18/44 12/16/42 24/29/56 26/32/57
f 7/9/46 5/7/48 17/21/59 19/23/58
f 4/6/34 8/10/50 20/24/60 16/20/52
f 8/11/50 9/12/38 21/26/54 20/25/60
f 16/20/52 20/24/60 28/35/61 32/45/62
f 19/23/58 17/21/59 38/59/63 37/57/64
f 26/32/57 24/29/56 35/51/65 36/55/66
f 17/21/59 15/19/53 33/47/67 38/59/63
f 18/22/55 19/23/58 37/57/64 34/49/68
f 25/31/51 26/32/57 36/55/66 31/43/69
f 24/30/56 18/22/55 34/49/68 35/52/65
f 21/26/54 22/27/31 30/41/70 27/33/71
f 15/19/53 16/20/52 32/45/62 33/47/67
f 23/28/30 25/31/51 31/43/69 29/39/72
f 22/27/31 23/28/30 29/39/72 30/41/70
f 20/25/60 21/26/54 27/33/71 28/36/61
f 128/218/73 138/240/74 60/108/75 65/116/76
f 136/237/77 129/220/78 46/76/79 48/80/80
f 106/176/4 63/112/3 64/114/6 107/178/5
f 136/236/77 131/225/81 55/93/82 49/81/83
f 137/238/84 130/222/85 53/89/86 72/128/87
f 135/234/88 137/238/84 72/128/87 42/67/89
f 127/216/90 128/218/73 65/116/76 66/118/91
f 132/226/92 133/231/93 2/4/94 56/97/95
f 132/227/92 129/221/78 47/77/96 57/99/97
f 129/220/78 132/228/92 56/98/95 46/76/79
f 134/232/98 135/234/88 42/67/89 40/63/99
f 137/239/84 135/235/88 41/66/100 50/84/101
f 129/221/78 136/236/77 49/81/83 47/77/96
f 130/222/85 133/230/93 58/103/102 53/89/86
f 138/241/74 128/219/73 44/72/103 59/107/104
f 54/92/105 1/2/106 127/217/90 131/224/81
f 131/224/81 136/237/77 48/80/80 54/92/105
f 138/240/74 134/232/98 40/63/99 60/108/75
f 130/223/85 137/239/84 50/84/101 52/88/107
f 76/135/24 97/159/23 95/156/18 74/132/17
f 133/230/93 132/229/92 57/100/97 58/103/102
f 131/225/81 127/216/90 66/118/91 55/93/82
f 134/233/98 138/241/74 59/107/104 39/62/108
f 128/219/73 127/217/90 1/2/106 44/72/103
f 72/129/87 53/90/86 71/127/109 109/182/110
f 65/117/76 60/109/75 110/183/111 101/166/112
f 49/82/83 55/94/82 98/161/113 62/111/114
f 57/101/97 47/78/96 96/158/115 105/174/116
f 47/78/96 49/82/83 62/111/114 96/158/115
f 66/119/91 65/117/76 101/166/112 103/169/117
f 55/94/82 66/119/91 103/169/117 98/161/113
f 42/68/89 72/129/87 109/182/110 75/134/118
f 40/64/99 42/68/89 75/134/118 114/190/119
f 60/109/75 40/64/99 114/190/119 110/183/111
f 58/104/102 57/102/97 105/175/116 69/124/120
f 53/90/86 58/104/102 69/124/120 71/127/109
f 85/146/121 86/147/122 126/214/123 119/200/124
f 83/144/125 84/145/126 115/191/127 116/193/128
f 88/149/129 87/148/130 125/212/131 117/196/132
f 90/151/133 89/150/134 120/202/135 118/198/136
f 91/152/137 90/151/133 118/198/136 124/210/138
f 84/145/126 92/153/139 123/208/140 115/191/127
f 93/154/141 85/146/121 119/200/124 121/204/142
f 87/148/130 94/155/143 122/206/144 125/212/131
f 92/153/139 88/149/129 117/196/132 123/208/140
f 89/150/134 83/143/125 116/194/128 120/202/135
f 86/147/122 91/152/137 124/210/138 126/214/123
f 94/155/143 93/154/141 121/204/142 122/206/144
f 68/122/20 61/110/15 93/154/141 94/155/143
f 43/70/22 51/86/7 91/152/137 86/147/122
f 63/113/3 67/120/2 83/143/125 89/150/134
f 74/133/17 73/131/11 88/149/129 92/153/139
f 70/126/10 68/122/20 94/155/143 87/148/130
f 61/110/15 45/74/14 85/146/121 93/154/141
f 76/136/24 74/133/17 92/153/139 84/145/126
f 51/86/7 64/115/6 90/151/133 91/152/137
f 64/115/6 63/113/3 89/150/134 90/151/133
f 73/131/11 70/126/10 87/148/130 88/149/129
f 67/121/2 76/136/24 84/145/126 83/144/125
f 45/74/14 43/70/22 86/147/122 85/146/121
f 107/179/5 108/181/8 109/182/110 71/127/109
f 111/184/16 100/164/19 101/166/112 110/183/111
f 99/163/12 95/157/18 62/111/114 98/161/113
f 97/160/23 104/172/1 105/174/116 96/158/115
f 95/157/18 97/160/23 96/158/115 62/111/114
f 100/164/19 102/168/9 103/169/117 101/166/112
f 102/168/9 99/163/12 98/161/113 103/169/117
f 108/181/8 112/187/21 75/134/118 109/182/110
f 112/187/21 113/189/13 114/190/119 75/134/118
f 113/189/13 111/184/16 110/183/111 114/190/119
f 104/173/1 106/177/4 69/124/120 105/175/116
f 106/177/4 107/179/5 71/127/109 69/124/120
f 111/185/16 61/110/15 68/123/20 100/165/19
f 82/142/145 79/139/146 116/195/147
f 78/138/148 77/137/149 126/215/150
f 81/141/151 82/142/145 123/209/152
f 79/139/146 118/199/153 120/203/154
f 80/140/155 81/141/151 125/213/156
f 80/140/155 121/205/157 77/137/149
f 79/139/146 120/203/154 116/195/147
f 116/195/147 115/192/158 82/142/145
f 118/199/153 78/138/148 124/211/159
f 78/138/148 118/199/153 79/139/146
f 125/213/156 81/141/151 117/197/160
f 82/142/145 115/192/158 123/209/152
f 121/205/157 80/140/155 122/207/161
f 125/213/156 122/207/161 80/140/155
f 77/137/149 119/201/162 126/215/150
f 126/215/150 124/211/159 78/138/148
f 123/209/152 117/197/160 81/141/151
f 81/141/151 78/138/148 79/139/146 82/142/145
f 77/137/149 121/205/157 119/201/162
f 133/231/93 130/223/85 52/88/107 2/4/94
f 35/53/163 34/50/164 155/272/164 161/279/163
f 29/40/165 31/44/166 153/270/166 152/269/165
f 36/56/167 35/54/163 161/280/163 156/273/167
f 31/44/166 36/56/167 156/273/167 153/270/166
f 33/48/168 32/46/169 154/271/169 160/278/168
f 37/58/170 38/60/171 162/281/171 157/274/170
f 28/37/172 27/34/173 151/268/173 158/275/172
f 34/50/164 37/58/170 157/274/170 155/272/164
f 27/34/173 30/42/174 159/277/175 151/268/173
f 32/46/169 28/38/172 158/276/172 154/271/169
f 30/42/174 29/40/165 152/269/165 159/277/175
f 38/60/171 33/48/168 160/278/168 162/281/171
f 135/235/88 134/233/98 39/62/108 41/66/100
f 158/275/176 151/268/176 150/266/177 145/255/178
f 159/277/179 152/269/179 139/242/180 140/244/181
f 152/269/182 153/270/182 148/262/183 139/242/180
f 160/278/184 154/271/184 146/258/185 143/251/186
f 151/268/187 159/277/187 140/244/181 150/266/177
f 161/279/188 155/272/188 141/246/189 142/248/190
f 153/270/191 156/273/191 149/264/192 148/262/183
f 155/272/193 157/274/193 147/260/194 141/246/189
f 162/281/195 160/278/195 143/251/186 144/253/196
f 156/273/197 161/280/197 142/249/190 149/264/192
f 157/274/198 162/281/198 144/253/196 147/260/194
f 154/271/199 158/276/199 145/256/178 146/258/185
f 142/250/190 141/247/189 147/261/194 144/254/196 143/252/186 146/259/185 145/257/178 150/267/177 140/245/181 139/243/180 148/263/183 149/265/192
f 80/140/155 77/137/149 78/138/148 81/141/151
