# Blender 3.4.0
# www.blender.org
mtllib metal_barrel_hr_4_1.mtl
o metal_barrel_hr_4_1
v -0.174639 0.000000 0.262605
v -0.261840 0.000000 0.175783
v -0.309178 0.000000 0.062201
v -0.309178 1.000000 0.062201
v -0.261840 1.000000 0.175783
v -0.174639 1.000000 0.262605
v -0.309447 0.000000 -0.060851
v -0.262605 0.000000 -0.174639
v -0.175783 0.000000 -0.261840
v -0.062201 0.000000 -0.309178
v -0.309447 1.000000 -0.060851
v -0.062201 1.000000 -0.309178
v -0.175783 1.000000 -0.261840
v -0.262605 1.000000 -0.174639
v -0.060851 0.000000 0.309447
v 0.262605 0.000000 0.174639
v 0.175783 0.000000 0.261840
v 0.062201 0.000000 0.309178
v -0.060851 1.000000 0.309447
v 0.062201 1.000000 0.309178
v 0.175783 1.000000 0.261840
v 0.262605 1.000000 0.174639
v 0.060851 0.000000 -0.309447
v 0.309447 0.000000 0.060851
v 0.174639 0.000000 -0.262605
v 0.261840 0.000000 -0.175783
v 0.309178 0.000000 -0.062201
v 0.309447 1.000000 0.060851
v 0.060851 1.000000 -0.309447
v 0.309178 1.000000 -0.062201
v 0.261840 1.000000 -0.175783
v 0.174639 1.000000 -0.262605
v -0.273984 0.000000 0.183936
v -0.182739 0.000000 0.274784
v -0.182739 1.000000 0.274784
v -0.273984 1.000000 0.183936
v -0.323518 0.000000 0.065086
v -0.323518 1.000000 0.065086
v -0.183936 1.000000 -0.273984
v -0.065086 1.000000 -0.323518
v -0.065086 0.000000 -0.323518
v -0.183936 0.000000 -0.273984
v -0.274784 1.000000 -0.182739
v -0.274784 0.000000 -0.182739
v -0.323799 1.000000 -0.063674
v -0.323799 0.000000 -0.063674
v 0.323518 1.000000 -0.065086
v 0.323799 1.000000 0.063674
v 0.323799 0.000000 0.063674
v 0.323518 0.000000 -0.065086
v 0.273984 1.000000 -0.183936
v 0.273984 0.000000 -0.183936
v 0.182739 1.000000 -0.274784
v 0.182739 0.000000 -0.274784
v 0.063674 1.000000 -0.323799
v 0.063674 0.000000 -0.323799
v 0.065086 1.000000 0.323518
v -0.063674 1.000000 0.323799
v -0.063674 0.000000 0.323799
v 0.065086 0.000000 0.323518
v 0.183936 1.000000 0.273984
v 0.183936 0.000000 0.273984
v 0.274784 1.000000 0.182739
v 0.274784 0.000000 0.182739
v -0.261840 0.010000 0.175783
v -0.174639 0.010000 0.262605
v -0.309178 0.010000 0.062201
v -0.062201 0.010000 -0.309178
v -0.175783 0.010000 -0.261840
v -0.262605 0.010000 -0.174639
v -0.309447 0.010000 -0.060851
v 0.309447 0.010000 0.060851
v 0.309178 0.010000 -0.062201
v 0.261840 0.010000 -0.175783
v 0.174639 0.010000 -0.262605
v 0.060851 0.010000 -0.309447
v -0.060851 0.010000 0.309447
v 0.062201 0.010000 0.309178
v 0.175783 0.010000 0.261840
v 0.262605 0.010000 0.174639
v -0.182739 0.337119 0.274784
v -0.273984 0.337119 0.183936
v -0.323518 0.337119 0.065086
v -0.065086 0.337119 -0.323518
v -0.183936 0.337119 -0.273984
v -0.274784 0.337119 -0.182739
v -0.323799 0.337119 -0.063674
v 0.323799 0.337119 0.063674
v 0.323518 0.337119 -0.065086
v 0.273984 0.337119 -0.183936
v 0.182739 0.337119 -0.274784
v 0.063674 0.337119 -0.323799
v -0.063674 0.337119 0.323799
v 0.065086 0.337119 0.323518
v 0.183936 0.337119 0.273984
v 0.274784 0.337119 0.182739
v -0.182739 0.292627 0.274784
v -0.273984 0.292627 0.183936
v -0.323518 0.292627 0.065086
v 0.323799 0.292627 0.063674
v -0.063674 0.292627 0.323799
v -0.065086 0.292627 -0.323518
v -0.183936 0.292627 -0.273984
v -0.274784 0.292627 -0.182739
v -0.323799 0.292627 -0.063674
v 0.323518 0.292627 -0.065086
v 0.273984 0.292627 -0.183936
v 0.182739 0.292627 -0.274784
v 0.063674 0.292627 -0.323799
v 0.065086 0.292627 0.323518
v 0.183936 0.292627 0.273984
v 0.274784 0.292627 0.182739
v -0.065086 0.663163 -0.323518
v -0.183936 0.663163 -0.273984
v -0.274784 0.663163 -0.182739
v -0.323799 0.663163 -0.063674
v 0.323518 0.663163 -0.065086
v 0.273984 0.663163 -0.183936
v 0.182739 0.663163 -0.274784
v 0.063674 0.663163 -0.323799
v 0.065086 0.663163 0.323518
v 0.183936 0.663163 0.273984
v 0.274784 0.663163 0.182739
v -0.182739 0.663163 0.274784
v -0.273984 0.663163 0.183936
v -0.323518 0.663163 0.065086
v 0.323799 0.663163 0.063674
v -0.063674 0.663163 0.323799
v -0.065086 0.708559 -0.323518
v -0.183936 0.708559 -0.273984
v -0.274784 0.708559 -0.182739
v -0.323799 0.708559 -0.063674
v 0.323518 0.708559 -0.065086
v 0.273984 0.708559 -0.183936
v 0.182739 0.708559 -0.274784
v 0.063674 0.708559 -0.323799
v 0.065086 0.708559 0.323518
v 0.183936 0.708559 0.273984
v 0.274784 0.708559 0.182739
v -0.182739 0.708559 0.274784
v -0.273984 0.708559 0.183936
v -0.323518 0.708559 0.065086
v 0.323799 0.708559 0.063674
v -0.063674 0.708559 0.323799
v -0.067689 0.314873 -0.336459
v -0.191294 0.314873 -0.284944
v -0.285776 0.314873 -0.190049
v -0.336751 0.314873 -0.066220
v 0.336459 0.314873 -0.067689
v 0.284944 0.314873 -0.191294
v 0.190049 0.314873 -0.285776
v 0.066220 0.314873 -0.336751
v 0.067689 0.314873 0.336459
v 0.191294 0.314873 0.284944
v 0.285776 0.314873 0.190049
v -0.190049 0.314873 0.285776
v -0.284944 0.314873 0.191294
v -0.336459 0.314873 0.067689
v 0.336751 0.314873 0.066220
v -0.066220 0.314873 0.336751
v -0.190049 0.685861 0.285776
v -0.284944 0.685861 0.191294
v -0.336459 0.685861 0.067689
v 0.336751 0.685861 0.066220
v -0.066220 0.685861 0.336751
v -0.067689 0.685861 -0.336459
v -0.191294 0.685861 -0.284944
v -0.285776 0.685861 -0.190049
v -0.336751 0.685861 -0.066220
v 0.336459 0.685861 -0.067689
v 0.284944 0.685861 -0.191294
v 0.190049 0.685861 -0.285776
v 0.066220 0.685861 -0.336751
v 0.067689 0.685861 0.336459
v 0.191294 0.685861 0.284944
v 0.285776 0.685861 0.190049
v -0.174639 0.990000 0.262605
v -0.261840 0.990000 0.175783
v -0.309178 0.990000 0.062201
v -0.175783 0.990000 -0.261840
v -0.062201 0.990000 -0.309178
v -0.262605 0.990000 -0.174639
v -0.309447 0.990000 -0.060851
v 0.309178 0.990000 -0.062201
v 0.309447 0.990000 0.060851
v 0.261840 0.990000 -0.175783
v 0.174639 0.990000 -0.262605
v 0.060851 0.990000 -0.309447
v 0.062201 0.990000 0.309178
v -0.060851 0.990000 0.309447
v 0.175783 0.990000 0.261840
v 0.262605 0.990000 0.174639
vn 0.8303 -0.0000 -0.5574
vn 0.5538 -0.0000 -0.8327
vn 0.8327 -0.0000 0.5538
vn 0.5574 -0.0000 0.8303
vn -0.8303 -0.0000 0.5574
vn -0.9804 -0.0000 0.1972
vn 0.9804 -0.0000 -0.1972
vn 0.9812 -0.0000 0.1930
vn -0.1972 -0.0000 -0.9804
vn 0.1930 -0.0000 -0.9812
vn -0.5574 -0.0000 -0.8303
vn -0.0000 -1.0000 -0.0000
vn -0.5538 -0.0000 0.8327
vn -0.1930 -0.0000 0.9812
vn 0.1972 -0.0000 0.9804
vn -0.0000 1.0000 -0.0000
vn 0.9812 -0.0000 0.1929
vn 0.1668 -0.5027 -0.8482
vn 0.4787 -0.5027 -0.7198
vn -0.8327 -0.0000 -0.5538
vn -0.9812 -0.0000 -0.1930
vn -0.9812 -0.0000 -0.1929
vn -0.1929 -0.0000 0.9812
vn -0.7161 -0.5103 -0.4762
vn -0.4793 -0.5103 -0.7140
vn 0.8431 0.5103 -0.1696
vn 0.8438 0.5103 0.1659
vn 0.7161 0.5103 0.4762
vn 0.1659 -0.5103 -0.8438
vn 0.4762 -0.5103 -0.7161
vn 0.4762 0.5103 -0.7161
vn 0.7140 0.5103 -0.4793
vn 0.4793 0.5103 0.7140
vn -0.4793 0.5103 -0.7140
vn -0.1696 0.5103 -0.8431
vn 0.7140 -0.5103 -0.4793
vn -0.7140 -0.5103 0.4793
vn -0.4762 -0.5103 0.7161
vn 0.8431 -0.5103 -0.1696
vn -0.8431 0.5103 0.1696
vn -0.7140 0.5103 0.4793
vn -0.8438 0.5103 -0.1659
vn 0.7161 -0.5103 0.4762
vn 0.4793 -0.5103 0.7140
vn 0.1659 0.5103 -0.8438
vn -0.8431 -0.5103 0.1696
vn 0.1696 0.5103 0.8431
vn -0.1659 0.5103 0.8438
vn -0.8482 0.5027 -0.1668
vn -0.7198 0.5027 -0.4787
vn 0.4818 0.5027 0.7177
vn 0.1705 0.5027 0.8475
vn 0.7198 0.5027 0.4787
vn -0.4818 0.5027 -0.7177
vn -0.8482 -0.5027 -0.1668
vn -0.7198 -0.5027 -0.4787
vn 0.7198 -0.5027 0.4787
vn 0.4818 -0.5027 0.7177
vn -0.1705 0.5027 -0.8475
vn 0.1668 0.5027 -0.8482
vn -0.4787 0.5027 0.7198
vn -0.1668 0.5027 0.8482
vn -0.4818 -0.5027 -0.7177
vn -0.8475 -0.5027 0.1705
vn -0.7177 -0.5027 0.4818
vn -0.1705 -0.5027 -0.8475
vn -0.8475 0.5027 0.1705
vn -0.7177 0.5027 0.4818
vn 0.4787 0.5027 -0.7198
vn 0.7177 0.5027 -0.4818
vn 0.7177 -0.5027 -0.4818
vn 0.8475 -0.5027 -0.1705
vn -0.4787 -0.5027 0.7198
vn -0.1668 -0.5027 0.8482
vn -0.1696 -0.5103 -0.8431
vn 0.8438 -0.5103 0.1659
vn -0.8438 -0.5103 -0.1659
vn -0.4762 0.5103 0.7161
vn -0.7161 0.5103 -0.4762
vn 0.1696 -0.5103 0.8431
vn -0.1659 -0.5103 0.8438
vn 0.8475 0.5027 -0.1705
vn 0.8482 -0.5027 0.1668
vn 0.8482 0.5027 0.1668
vn 0.1705 -0.5027 0.8475
vt 0.573302 0.646192
vt 0.562500 0.423828
vt 0.631482 0.672076
vt 0.625000 0.423828
vt 0.676011 0.719903
vt 0.687500 0.423828
vt 0.262703 0.960348
vt 0.687500 0.633602
vt 0.204523 0.986232
vt 0.625000 0.633602
vt 0.141549 0.986232
vt 0.562500 0.633602
vt 0.700110 0.782393
vt 0.750000 0.423828
vt 0.700110 0.850031
vt 0.812500 0.423828
vt 0.676011 0.912520
vt 0.875000 0.423828
vt 0.631482 0.960348
vt 0.937500 0.423828
vt 0.307232 0.912521
vt 0.750000 0.633602
vt 0.307232 0.719903
vt 0.937500 0.633602
vt 0.331331 0.782393
vt 0.875000 0.633602
vt 0.331330 0.850031
vt 0.812500 0.633602
vt 0.510329 0.646192
vt 0.500000 0.423828
vt 0.383521 0.782393
vt 0.312500 0.423828
vt 0.407620 0.719903
vt 0.375000 0.423828
vt 0.452149 0.672076
vt 0.437500 0.423828
vt 0.083369 0.960348
vt 0.500000 0.633602
vt 0.038840 0.912521
vt 0.437500 0.633602
vt 0.014741 0.850031
vt 0.375000 0.633602
vt 0.014741 0.782393
vt 0.312500 0.633602
vt 0.573302 0.986232
vt 0.000000 0.423828
vt 1.000000 0.423828
vt 0.383521 0.850031
vt 0.250000 0.423828
vt 0.510329 0.986232
vt 0.062500 0.423828
vt 0.125000 0.423828
vt 0.452149 0.960348
vt 0.187500 0.423828
vt 0.407620 0.912520
vt 0.038840 0.719903
vt 0.250000 0.633602
vt 0.262703 0.672076
vt 1.000000 0.633602
vt 0.000000 0.633602
vt 0.187500 0.633602
vt 0.083369 0.672076
vt 0.125000 0.633602
vt 0.141549 0.646192
vt 0.204523 0.646192
vt 0.062500 0.633602
vt 0.635641 0.665390
vt 0.874608 0.000000
vt 0.574763 0.638306
vt 0.811912 0.000000
vt 0.140089 0.994118
vt 0.811912 0.632997
vt 0.205983 0.994118
vt 0.874608 0.632997
vt 0.682235 0.715436
vt 0.937304 0.000000
vt 0.266861 0.967033
vt 0.937304 0.632997
vt 0.338672 0.780824
vt 0.125392 0.632997
vt 0.313456 0.715436
vt 0.188088 0.632997
vt 0.188088 0.000000
vt 0.635641 0.967033
vt 0.682235 0.916987
vt 0.125392 0.000000
vt 0.338672 0.851600
vt 0.062696 0.632997
vt 0.707452 0.851600
vt 0.062696 0.000000
vt 0.313456 0.916987
vt 0.000000 0.632997
vt 1.000000 0.632997
vt 0.707452 0.780824
vt 1.000000 0.000000
vt 0.000000 0.000000
vt 0.437304 0.632997
vt 0.079210 0.665391
vt 0.032616 0.715436
vt 0.500000 0.632997
vt 0.376179 0.851600
vt 0.500000 0.000000
vt 0.437304 0.000000
vt 0.401396 0.916987
vt 0.374608 0.632997
vt 0.140089 0.638306
vt 0.374608 0.000000
vt 0.447990 0.967033
vt 0.313480 0.632997
vt 0.205983 0.638306
vt 0.508868 0.994118
vt 0.313480 0.000000
vt 0.266861 0.665391
vt 0.250784 0.632997
vt 0.574763 0.994118
vt 0.250784 0.000000
vt 0.032616 0.916987
vt 0.688088 0.632997
vt 0.079210 0.967033
vt 0.749216 0.632997
vt 0.508868 0.638306
vt 0.749216 0.000000
vt 0.447990 0.665391
vt 0.688088 0.000000
vt 0.007399 0.851600
vt 0.625392 0.632997
vt 0.401396 0.715436
vt 0.625392 0.000000
vt 0.007399 0.780824
vt 0.562696 0.632997
vt 0.376179 0.780824
vt 0.562696 0.000000
vt 0.625000 0.429282
vt 0.262041 0.672076
vt 0.203861 0.646192
vt 0.562500 0.429282
vt 0.687500 0.429282
vt 0.306570 0.719903
vt 0.262040 0.960348
vt 0.937500 0.429282
vt 0.306570 0.912520
vt 0.875000 0.429282
vt 0.330669 0.850031
vt 0.812500 0.429282
vt 0.330669 0.782393
vt 0.750000 0.429282
vt 0.014079 0.850031
vt 0.250000 0.429282
vt 0.038178 0.912520
vt 0.187500 0.429282
vt 0.125000 0.429281
vt 0.082707 0.960348
vt 0.062500 0.429281
vt 0.140887 0.986232
vt 0.000000 0.429281
vt 0.203861 0.986232
vt 1.000000 0.429282
vt 0.140887 0.646192
vt 0.500000 0.429282
vt 0.082707 0.672076
vt 0.437500 0.429282
vt 0.038178 0.719903
vt 0.375000 0.429282
vt 0.014079 0.782393
vt 0.312500 0.429282
vt 0.811912 0.207959
vt 0.874608 0.207959
vt 0.937304 0.207959
vt 0.188088 0.207959
vt 0.125392 0.207959
vt 0.062696 0.207959
vt 0.998544 0.207959
vt 0.001456 0.207959
vt 0.500000 0.207959
vt 0.437304 0.207959
vt 0.374626 0.207959
vt 0.313461 0.207959
vt 0.250784 0.207959
vt 0.749234 0.207959
vt 0.688070 0.207959
vt 0.625392 0.207959
vt 0.562696 0.207959
vt 0.811912 0.174814
vt 0.874608 0.174814
vt 0.937304 0.174814
vt 0.500000 0.174814
vt 0.749216 0.174814
vt 0.188088 0.174814
vt 0.125392 0.174814
vt 0.062696 0.174814
vt 1.000000 0.174814
vt 0.000000 0.174814
vt 0.437304 0.174814
vt 0.374608 0.174814
vt 0.313480 0.174814
vt 0.250784 0.174814
vt 0.688088 0.174814
vt 0.625392 0.174814
vt 0.562696 0.174814
vt 0.188088 0.402051
vt 0.125392 0.402051
vt 0.062696 0.402051
vt 0.000815 0.402051
vt 0.999185 0.402051
vt 0.437304 0.402051
vt 0.374618 0.402051
vt 0.313470 0.402051
vt 0.250784 0.402051
vt 0.688078 0.402051
vt 0.625392 0.402051
vt 0.562696 0.402051
vt 0.811912 0.402052
vt 0.874608 0.402051
vt 0.937304 0.402051
vt 0.500000 0.402051
vt 0.749227 0.402051
vt 0.188088 0.434834
vt 0.125392 0.434834
vt 0.062696 0.434834
vt 0.000000 0.434834
vt 1.000000 0.434834
vt 0.437304 0.434834
vt 0.374608 0.434834
vt 0.313480 0.434834
vt 0.250784 0.434834
vt 0.688088 0.434834
vt 0.625392 0.434834
vt 0.562696 0.434834
vt 0.811912 0.434834
vt 0.874608 0.434834
vt 0.937304 0.434834
vt 0.500000 0.434834
vt 0.749216 0.434834
vt 0.188088 0.193877
vt 0.125392 0.193877
vt 0.062696 0.193877
vt 1.001464 0.193877
vt -0.001464 0.193877
vt 0.437304 0.193877
vt 0.374590 0.193877
vt 0.313498 0.193877
vt 0.250784 0.193877
vt 0.688106 0.193877
vt 0.625392 0.193877
vt 0.562696 0.193877
vt 0.811912 0.193877
vt 0.874608 0.193877
vt 0.937304 0.193877
vt 0.500000 0.193877
vt 0.749198 0.193877
vt 0.811912 0.416419
vt 0.874608 0.416419
vt 0.937304 0.416419
vt 0.500000 0.416419
vt 0.749206 0.416419
vt 0.188088 0.416419
vt 0.125392 0.416419
vt 0.062696 0.416419
vt -0.000816 0.416419
vt 1.000816 0.416419
vt 0.437304 0.416419
vt 0.374598 0.416419
vt 0.313490 0.416419
vt 0.250784 0.416419
vt 0.688098 0.416419
vt 0.625392 0.416419
vt 0.562696 0.416419
vt 0.562498 0.628467
vt 0.143395 0.984420
vt 0.625000 0.628469
vt 0.205335 0.984420
vt 0.687503 0.628467
vt 0.262560 0.958961
vt 0.874997 0.628465
vt 0.330062 0.783925
vt 0.937498 0.628461
vt 0.306358 0.722461
vt 0.812502 0.628467
vt 0.330062 0.850454
vt 0.750002 0.628463
vt 0.306358 0.911918
vt 0.187500 0.628464
vt 0.086169 0.675419
vt 0.249998 0.628452
vt 0.042371 0.722461
vt 0.125001 0.628469
vt 0.143395 0.649959
vt 0.062498 0.628469
vt 0.205335 0.649959
vt 0.999997 0.628463
vt -0.000003 0.628469
vt 0.262560 0.675419
vt 0.437500 0.628458
vt 0.042371 0.911918
vt 0.499997 0.628466
vt 0.086169 0.958961
vt 0.018668 0.850454
vt 0.375000 0.628462
vt 0.312498 0.628461
vt 0.018668 0.783925
s 1
usemtl metal_barrel_hr_4
f 65/133/1 66/136/2 1/2/2 2/4/1
f 139/228/3 63/130/3 61/126/4 138/227/4
f 74/151/5 26/52/5 27/54/6 73/150/6
f 67/137/7 3/6/7 7/14/8 71/146/8
f 102/188/9 109/196/10 56/116/10 41/83/9
f 42/86/11 103/189/11 102/188/9 41/83/9
f 114/201/11 113/200/9 84/169/9 85/170/11
f 66/135/12 67/138/12 75/154/12 73/149/12
f 186/286/5 31/63/5 32/66/13 187/288/13
f 124/212/13 81/166/13 93/179/14 128/216/14
f 90/176/1 118/206/1 117/205/7 89/175/7
f 123/211/3 122/210/4 95/181/4 96/182/3
f 110/197/15 101/187/14 59/122/14 60/124/15
f 55/114/10 53/109/2 135/224/2 136/225/10
f 53/109/2 51/105/1 134/223/1 135/224/2
f 130/218/11 39/80/11 40/82/9 129/217/9
f 108/195/2 107/194/1 52/107/1 54/112/2
f 75/153/13 25/51/13 26/52/5 74/151/5
f 54/111/12 52/108/12 26/53/12 25/50/12
f 68/139/12 75/154/12 67/138/12 70/143/12
f 60/123/12 18/35/12 17/33/12 62/127/12
f 57/117/16 61/125/16 21/41/16 20/39/16
f 40/81/16 12/23/16 29/58/16 55/113/16
f 39/79/16 13/25/16 12/23/16 40/81/16
f 51/106/16 53/110/16 32/65/16 31/64/16
f 64/131/12 62/127/12 17/33/12 16/31/12
f 43/87/16 14/27/16 13/25/16 39/79/16
f 44/89/12 42/85/12 9/17/12 8/15/12
f 45/91/16 11/21/16 14/27/16 43/87/16
f 59/121/12 15/29/12 18/35/12 60/123/12
f 64/131/12 16/31/12 24/48/12 49/101/12
f 37/75/12 3/5/12 2/3/12 33/67/12
f 36/73/16 5/9/16 4/7/16 38/77/16
f 55/113/16 29/58/16 32/65/16 53/110/16
f 38/77/16 4/7/16 11/21/16 45/91/16
f 34/69/12 1/1/12 15/29/12 59/121/12
f 184/283/16 181/277/16 179/273/16 192/300/16
f 57/117/16 20/39/16 19/37/16 58/119/16
f 48/99/16 28/56/16 22/43/16 63/129/16
f 41/84/12 10/19/12 9/17/12 42/85/12
f 36/73/16 35/71/16 6/11/16 5/9/16
f 34/69/12 33/67/12 2/3/12 1/1/12
f 44/89/12 8/15/12 7/13/12 46/94/12
f 63/129/16 22/43/16 21/41/16 61/125/16
f 49/101/12 24/48/12 27/55/12 50/104/12
f 47/98/16 30/62/16 28/56/16 48/99/16
f 56/115/12 23/45/12 10/19/12 41/84/12
f 46/94/12 7/13/12 3/5/12 37/75/12
f 58/119/16 19/37/16 6/11/16 35/71/16
f 54/111/12 25/50/12 23/45/12 56/115/12
f 76/155/14 23/46/14 25/51/13 75/153/13
f 83/168/6 82/167/5 125/213/5 126/214/6
f 121/209/15 128/216/14 93/179/14 94/180/15
f 38/78/6 142/231/6 141/230/5 36/74/5
f 180/274/4 13/26/4 14/28/3 182/278/3
f 182/278/3 14/28/3 11/22/17 183/280/17
f 65/133/1 2/4/1 3/6/7 67/137/7
f 120/208/18 173/264/18 172/263/19 119/207/19
f 191/298/11 21/42/11 22/44/20 192/299/20
f 61/126/4 57/118/15 137/226/15 138/227/4
f 37/76/6 33/68/5 98/184/5 99/185/6
f 47/97/7 48/100/8 143/232/8 133/222/7
f 35/72/13 140/229/13 144/233/14 58/120/14
f 104/190/20 103/189/11 42/86/11 44/90/20
f 88/174/8 127/215/8 123/211/3 96/182/3
f 67/138/12 71/145/12 70/143/12
f 70/143/12 69/141/12 68/139/12
f 68/139/12 76/156/12 75/154/12
f 75/154/12 74/152/12 73/149/12
f 73/149/12 72/147/12 80/164/12
f 80/164/12 79/162/12 78/160/12
f 78/160/12 77/158/12 66/135/12
f 66/135/12 65/134/12 67/138/12
f 78/160/12 66/135/12 73/149/12 80/164/12
f 33/68/5 34/70/13 97/183/13 98/184/5
f 192/300/16 179/273/16 189/294/16 191/297/16
f 186/286/5 184/282/6 30/61/6 31/63/5
f 72/148/21 24/49/21 16/32/20 80/165/20
f 181/276/15 12/24/15 13/26/4 180/274/4
f 70/144/3 8/16/3 9/18/4 69/142/4
f 66/136/2 77/159/10 15/30/10 1/2/2
f 115/202/20 114/201/11 85/170/11 86/171/20
f 134/223/1 51/105/1 47/97/7 133/222/7
f 190/295/10 19/38/10 20/40/9 189/293/9
f 185/284/22 28/57/22 30/61/6 184/282/6
f 179/272/7 4/8/7 5/10/1 178/270/1
f 141/230/5 140/229/13 35/72/13 36/74/5
f 46/95/21 37/76/6 99/185/6 105/191/21
f 80/165/20 16/32/20 17/34/11 79/163/11
f 185/284/22 192/299/20 22/44/20 28/57/22
f 177/268/2 178/270/1 5/10/1 6/12/2
f 189/293/9 20/40/9 21/42/11 191/298/11
f 45/92/21 43/88/20 131/219/20 132/220/21
f 34/70/13 59/122/14 101/187/14 97/183/13
f 68/140/15 10/20/15 23/47/14 76/157/14
f 188/290/23 29/59/23 12/24/15 181/276/15
f 131/219/20 43/88/20 39/80/11 130/218/11
f 183/280/17 11/22/17 4/8/7 179/272/7
f 69/142/4 9/18/4 10/20/15 68/140/15
f 52/107/1 107/194/1 106/193/7 50/103/7
f 116/203/21 115/202/20 86/171/20 87/173/21
f 116/204/21 87/172/21 83/168/6 126/214/6
f 45/93/21 132/221/21 142/231/6 38/78/6
f 104/190/24 147/236/24 146/235/25 103/189/25
f 149/239/26 89/175/26 88/174/27 159/249/27
f 88/174/27 96/182/28 155/245/28 159/249/27
f 152/242/29 151/241/30 108/195/30 109/196/29
f 113/200/9 120/208/10 92/178/10 84/169/9
f 100/186/8 112/199/3 64/132/3 49/102/8
f 73/150/6 27/54/6 24/49/21 72/148/21
f 78/161/9 18/36/9 15/30/10 77/159/10
f 151/241/31 91/177/31 90/176/32 150/240/32
f 155/245/28 96/182/28 95/181/33 154/244/33
f 85/170/34 84/169/35 145/234/35 146/235/34
f 151/241/30 150/240/36 107/194/36 108/195/30
f 98/184/37 97/183/38 156/246/38 157/247/37
f 150/240/36 149/239/39 106/193/39 107/194/36
f 158/248/40 157/247/41 82/167/41 83/168/40
f 148/237/42 158/248/40 83/168/40 87/172/42
f 112/199/43 155/245/43 154/244/44 111/198/44
f 84/169/35 92/178/45 152/242/45 145/234/35
f 99/185/46 98/184/37 157/247/37 158/248/46
f 153/243/47 94/180/47 93/179/48 160/250/48
f 169/259/49 132/220/49 131/219/50 168/258/50
f 175/266/51 138/227/51 137/226/52 174/265/52
f 139/228/53 138/227/51 175/266/51 176/267/53
f 131/219/50 130/218/54 167/257/54 168/258/50
f 169/259/55 168/258/56 115/202/56 116/203/55
f 176/267/57 175/266/58 122/210/58 123/211/57
f 129/217/59 136/225/60 173/264/60 166/256/59
f 161/251/61 165/255/62 144/233/62 140/229/61
f 168/258/56 167/257/63 114/201/63 115/202/56
f 126/214/64 125/213/65 162/252/65 163/253/64
f 114/201/63 167/257/63 166/256/66 113/200/66
f 163/253/67 162/252/68 141/230/68 142/231/67
f 50/103/7 106/193/7 100/186/8 49/102/8
f 48/100/8 63/130/3 139/228/3 143/232/8
f 117/205/7 127/215/8 88/174/8 89/175/7
f 57/118/15 58/120/14 144/233/14 137/226/15
f 119/207/2 118/206/1 90/176/1 91/177/2
f 71/146/8 7/14/8 8/16/3 70/144/3
f 105/192/21 104/190/20 44/90/20 46/96/21
f 56/116/10 109/196/10 108/195/2 54/112/2
f 112/199/3 111/198/4 62/128/4 64/132/3
f 188/291/23 187/288/13 32/66/13 29/60/23
f 79/163/11 17/34/11 18/36/9 78/161/9
f 62/128/4 111/198/4 110/197/15 60/124/15
f 82/167/5 81/166/13 124/212/13 125/213/5
f 177/268/2 6/12/2 19/38/10 190/295/10
f 40/82/9 55/114/10 136/225/10 129/217/9
f 120/208/10 119/207/2 91/177/2 92/178/10
f 135/224/69 134/223/70 171/262/70 172/263/69
f 137/226/52 144/233/62 165/255/62 174/265/52
f 118/206/71 171/262/71 170/261/72 117/205/72
f 161/251/73 124/212/73 128/216/74 165/255/74
f 145/234/75 152/242/29 109/196/29 102/188/75
f 150/240/32 90/176/32 89/175/26 149/239/26
f 149/239/39 159/249/76 100/186/76 106/193/39
f 100/186/76 159/249/76 155/245/43 112/199/43
f 105/191/77 99/185/46 158/248/46 148/237/77
f 154/244/33 95/181/33 94/180/47 153/243/47
f 156/246/78 160/250/48 93/179/48 81/166/78
f 87/173/42 86/171/79 147/236/79 148/238/42
f 153/243/80 160/250/81 101/187/81 110/197/80
f 146/235/25 145/234/75 102/188/75 103/189/25
f 157/247/41 156/246/78 81/166/78 82/167/41
f 86/171/79 85/170/34 146/235/34 147/236/79
f 152/242/45 92/178/45 91/177/31 151/241/31
f 105/192/77 148/238/77 147/236/24 104/190/24
f 50/104/12 27/55/12 26/53/12 52/108/12
f 154/244/44 153/243/80 110/197/80 111/198/44
f 136/225/60 135/224/69 172/263/69 173/264/60
f 172/263/19 171/262/71 118/206/71 119/207/19
f 171/262/70 134/223/70 133/222/82 170/261/82
f 130/218/54 129/217/59 166/256/59 167/257/54
f 170/261/72 164/254/83 127/215/83 117/205/72
f 116/204/55 126/214/64 163/253/64 169/260/55
f 133/222/82 143/232/84 164/254/84 170/261/82
f 166/256/66 173/264/18 120/208/18 113/200/66
f 143/232/84 139/228/53 176/267/53 164/254/84
f 162/252/68 161/251/61 140/229/61 141/230/68
f 97/183/38 101/187/81 160/250/81 156/246/38
f 125/213/65 124/212/73 161/251/73 162/252/65
f 169/260/49 163/253/67 142/231/67 132/221/49
f 127/215/83 164/254/83 176/267/57 123/211/57
f 175/266/58 174/265/85 121/209/85 122/210/58
f 174/265/85 165/255/74 128/216/74 121/209/85
f 179/273/16 178/271/16 177/269/16
f 181/277/16 182/279/16 183/281/16 179/273/16
f 184/283/16 187/289/16 188/292/16 181/277/16
f 192/300/16 185/285/16 184/283/16
f 184/283/16 186/287/16 187/289/16
f 190/296/16 189/294/16 179/273/16 177/269/16
f 181/277/16 180/275/16 182/279/16
f 51/106/16 31/64/16 30/62/16 47/98/16
f 122/210/4 121/209/15 94/180/15 95/181/4
