# Blender 3.4.0
# www.blender.org
mtllib metal_barrel_hr_3.mtl
o metal_barrel_hr_3
v -0.174639 0.000000 0.262605
v -0.261840 0.000000 0.175783
v -0.309178 0.000000 0.062201
v -0.309178 1.000000 0.062201
v -0.261840 1.000000 0.175783
v -0.174639 1.000000 0.262605
v -0.309447 0.000000 -0.060851
v -0.262605 0.000000 -0.174639
v -0.175783 0.000000 -0.261840
v -0.062201 0.000000 -0.309178
v -0.309447 1.000000 -0.060851
v -0.062201 1.000000 -0.309178
v -0.175783 1.000000 -0.261840
v -0.262605 1.000000 -0.174639
v -0.060851 0.000000 0.309447
v 0.262605 0.000000 0.174639
v 0.175783 0.000000 0.261840
v 0.062201 0.000000 0.309178
v -0.060851 1.000000 0.309447
v 0.062201 1.000000 0.309178
v 0.175783 1.000000 0.261840
v 0.262605 1.000000 0.174639
v 0.060851 0.000000 -0.309447
v 0.309447 0.000000 0.060851
v 0.174639 0.000000 -0.262605
v 0.261840 0.000000 -0.175783
v 0.309178 0.000000 -0.062201
v 0.309447 1.000000 0.060851
v 0.060851 1.000000 -0.309447
v 0.309178 1.000000 -0.062201
v 0.261840 1.000000 -0.175783
v 0.174639 1.000000 -0.262605
v -0.273984 0.000000 0.183936
v -0.182739 0.000000 0.274784
v -0.182739 1.000000 0.274784
v -0.273984 1.000000 0.183936
v -0.323518 0.000000 0.065086
v -0.323518 1.000000 0.065086
v -0.183936 1.000000 -0.273984
v -0.065086 1.000000 -0.323518
v -0.065086 0.000000 -0.323518
v -0.183936 0.000000 -0.273984
v -0.274784 1.000000 -0.182739
v -0.274784 0.000000 -0.182739
v -0.323799 1.000000 -0.063674
v -0.323799 0.000000 -0.063674
v 0.323518 1.000000 -0.065086
v 0.323799 1.000000 0.063674
v 0.323799 0.000000 0.063674
v 0.323518 0.000000 -0.065086
v 0.273984 1.000000 -0.183936
v 0.273984 0.000000 -0.183936
v 0.182739 1.000000 -0.274784
v 0.182739 0.000000 -0.274784
v 0.063674 1.000000 -0.323799
v 0.063674 0.000000 -0.323799
v 0.065086 1.000000 0.323518
v -0.063674 1.000000 0.323799
v -0.063674 0.000000 0.323799
v 0.065086 0.000000 0.323518
v 0.183936 1.000000 0.273984
v 0.183936 0.000000 0.273984
v 0.274784 1.000000 0.182739
v 0.274784 0.000000 0.182739
v -0.166170 0.795000 0.249870
v -0.249142 0.795000 0.167259
v -0.294185 0.795000 0.059184
v -0.167259 0.795000 -0.249142
v -0.059184 0.795000 -0.294185
v -0.249870 0.795000 -0.166170
v -0.294440 0.795000 -0.057900
v 0.294185 0.795000 -0.059184
v 0.294440 0.795000 0.057900
v 0.249142 0.795000 -0.167259
v 0.166170 0.795000 -0.249870
v 0.057900 0.795000 -0.294440
v 0.059184 0.795000 0.294185
v -0.057900 0.795000 0.294440
v 0.167259 0.795000 0.249142
v 0.249870 0.795000 0.166170
v -0.261840 0.010000 0.175783
v -0.174639 0.010000 0.262605
v -0.309178 0.010000 0.062201
v -0.062201 0.010000 -0.309178
v -0.175783 0.010000 -0.261840
v -0.262605 0.010000 -0.174639
v -0.309447 0.010000 -0.060851
v 0.309447 0.010000 0.060851
v 0.309178 0.010000 -0.062201
v 0.261840 0.010000 -0.175783
v 0.174639 0.010000 -0.262605
v 0.060851 0.010000 -0.309447
v -0.060851 0.010000 0.309447
v 0.062201 0.010000 0.309178
v 0.175783 0.010000 0.261840
v 0.262605 0.010000 0.174639
v -0.182739 0.377119 0.274784
v -0.273984 0.377119 0.183936
v -0.323518 0.377119 0.065086
v -0.065086 0.377119 -0.323518
v -0.183936 0.377119 -0.273984
v -0.274784 0.377119 -0.182739
v -0.323799 0.377119 -0.063674
v 0.323799 0.377119 0.063674
v 0.323518 0.377119 -0.065086
v 0.273984 0.377119 -0.183936
v 0.182739 0.377119 -0.274784
v 0.063674 0.377119 -0.323799
v -0.063674 0.377119 0.323799
v 0.065086 0.377119 0.323518
v 0.183936 0.377119 0.273984
v 0.274784 0.377119 0.182739
v -0.182739 0.332627 0.274784
v -0.273984 0.332627 0.183936
v -0.323518 0.332627 0.065086
v 0.323799 0.332627 0.063674
v -0.063674 0.332627 0.323799
v -0.065086 0.332627 -0.323518
v -0.183936 0.332627 -0.273984
v -0.274784 0.332627 -0.182739
v -0.323799 0.332627 -0.063674
v 0.323518 0.332627 -0.065086
v 0.273984 0.332627 -0.183936
v 0.182739 0.332627 -0.274784
v 0.063674 0.332627 -0.323799
v 0.065086 0.332627 0.323518
v 0.183936 0.332627 0.273984
v 0.274784 0.332627 0.182739
v -0.065086 0.643163 -0.323518
v -0.183936 0.643163 -0.273984
v -0.274784 0.643163 -0.182739
v -0.323799 0.643163 -0.063674
v 0.323518 0.643163 -0.065086
v 0.273984 0.643163 -0.183936
v 0.182739 0.643163 -0.274784
v 0.063674 0.643163 -0.323799
v 0.065086 0.643163 0.323518
v 0.183936 0.643163 0.273984
v 0.274784 0.643163 0.182739
v -0.182739 0.643163 0.274784
v -0.273984 0.643163 0.183936
v -0.323518 0.643163 0.065086
v 0.323799 0.643163 0.063674
v -0.063674 0.643163 0.323799
v -0.065086 0.688559 -0.323518
v -0.183936 0.688559 -0.273984
v -0.274784 0.688559 -0.182739
v -0.323799 0.688559 -0.063674
v 0.323518 0.688559 -0.065086
v 0.273984 0.688559 -0.183936
v 0.182739 0.688559 -0.274784
v 0.063674 0.688559 -0.323799
v 0.065086 0.688559 0.323518
v 0.183936 0.688559 0.273984
v 0.274784 0.688559 0.182739
v -0.182739 0.688559 0.274784
v -0.273984 0.688559 0.183936
v -0.323518 0.688559 0.065086
v 0.323799 0.688559 0.063674
v -0.063674 0.688559 0.323799
v -0.067689 0.354873 -0.336459
v -0.191294 0.354873 -0.284944
v -0.285776 0.354873 -0.190049
v -0.336751 0.354873 -0.066220
v 0.336459 0.354873 -0.067689
v 0.284944 0.354873 -0.191294
v 0.190049 0.354873 -0.285776
v 0.066220 0.354873 -0.336751
v 0.067689 0.354873 0.336459
v 0.191294 0.354873 0.284944
v 0.285776 0.354873 0.190049
v -0.190049 0.354873 0.285776
v -0.284944 0.354873 0.191294
v -0.336459 0.354873 0.067689
v 0.336751 0.354873 0.066220
v -0.066220 0.354873 0.336751
v -0.190049 0.665861 0.285776
v -0.284944 0.665861 0.191294
v -0.336459 0.665861 0.067689
v 0.336751 0.665861 0.066220
v -0.066220 0.665861 0.336751
v -0.067689 0.665861 -0.336459
v -0.191294 0.665861 -0.284944
v -0.285776 0.665861 -0.190049
v -0.336751 0.665861 -0.066220
v 0.336459 0.665861 -0.067689
v 0.284944 0.665861 -0.191294
v 0.190049 0.665861 -0.285776
v 0.066220 0.665861 -0.336751
v 0.067689 0.665861 0.336459
v 0.191294 0.665861 0.284944
v 0.285776 0.665861 0.190049
v -0.174639 0.800000 0.262605
v -0.261840 0.800000 0.175783
v -0.309178 0.800000 0.062201
v -0.175783 0.800000 -0.261840
v -0.062201 0.800000 -0.309178
v -0.262605 0.800000 -0.174639
v -0.309447 0.800000 -0.060851
v 0.309178 0.800000 -0.062201
v 0.309447 0.800000 0.060851
v 0.261840 0.800000 -0.175783
v 0.174639 0.800000 -0.262605
v 0.060851 0.800000 -0.309447
v 0.062201 0.800000 0.309178
v -0.060851 0.800000 0.309447
v 0.175783 0.800000 0.261840
v 0.262605 0.800000 0.174639
vn -0.9812 -0.0000 -0.1930
vn -0.8327 -0.0000 -0.5538
vn 0.8327 -0.0000 0.5538
vn 0.5574 -0.0000 0.8303
vn 0.8303 -0.0000 -0.5574
vn 0.9804 -0.0000 -0.1972
vn 0.9812 -0.0000 0.1930
vn -0.9804 -0.0000 0.1972
vn -0.5574 -0.0000 -0.8303
vn -0.1972 -0.0000 -0.9804
vn -0.8303 -0.0000 0.5574
vn 0.1972 -0.0000 0.9804
vn -0.5538 -0.0000 0.8327
vn -0.1930 -0.0000 0.9812
vn 0.1930 -0.0000 -0.9812
vn 0.5538 -0.0000 -0.8327
vn -0.0000 -1.0000 -0.0000
vn -0.0977 0.9843 0.1469
vn 0.0348 0.9843 0.1729
vn -0.1469 0.9843 -0.0977
vn -0.1731 0.9843 -0.0340
vn -0.0000 1.0000 -0.0000
vn 0.1469 0.9843 0.0977
vn 0.0977 0.9843 -0.1469
vn -0.0340 0.9843 0.1731
vn 0.0983 0.9843 0.1464
vn -0.1729 0.9843 0.0348
vn -0.1464 0.9843 0.0983
vn 0.1729 0.9843 -0.0348
vn 0.1464 0.9843 -0.0983
vn 0.1731 0.9843 0.0340
vn -0.0348 0.9843 -0.1729
vn -0.0983 0.9843 -0.1464
vn 0.0340 0.9843 -0.1731
vn 0.1668 -0.5027 -0.8482
vn 0.4787 -0.5027 -0.7198
vn -0.1696 0.5103 -0.8431
vn 0.1659 0.5103 -0.8438
vn -0.8438 -0.5103 -0.1659
vn -0.8431 -0.5103 0.1696
vn 0.8431 -0.5103 -0.1696
vn 0.8438 -0.5103 0.1659
vn 0.1659 -0.5103 -0.8438
vn 0.4762 -0.5103 -0.7161
vn -0.4762 0.5103 0.7161
vn -0.1659 0.5103 0.8438
vn -0.7140 0.5103 0.4793
vn -0.4793 0.5103 -0.7140
vn 0.7140 -0.5103 -0.4793
vn 0.4762 0.5103 -0.7161
vn 0.7140 0.5103 -0.4793
vn 0.8431 0.5103 -0.1696
vn 0.8438 0.5103 0.1659
vn -0.8438 0.5103 -0.1659
vn -0.8431 0.5103 0.1696
vn 0.7161 0.5103 0.4762
vn -0.1696 -0.5103 -0.8431
vn -0.7140 -0.5103 0.4793
vn 0.1696 -0.5103 0.8431
vn -0.1659 -0.5103 0.8438
vn 0.4787 0.5027 -0.7198
vn 0.7177 0.5027 -0.4818
vn 0.7198 -0.5027 0.4787
vn 0.4818 -0.5027 0.7177
vn -0.7177 -0.5027 0.4818
vn -0.4787 -0.5027 0.7198
vn 0.8482 -0.5027 0.1668
vn -0.8482 -0.5027 -0.1668
vn -0.7198 -0.5027 -0.4787
vn 0.7177 -0.5027 -0.4818
vn 0.8475 0.5027 -0.1705
vn 0.8482 0.5027 0.1668
vn -0.4787 0.5027 0.7198
vn -0.1668 0.5027 0.8482
vn -0.8475 -0.5027 0.1705
vn -0.4818 0.5027 -0.7177
vn -0.1705 0.5027 -0.8475
vn -0.4818 -0.5027 -0.7177
vn -0.8475 0.5027 0.1705
vn -0.7177 0.5027 0.4818
vn 0.4818 0.5027 0.7177
vn 0.1705 0.5027 0.8475
vn 0.8475 -0.5027 -0.1705
vn -0.1668 -0.5027 0.8482
vn 0.1696 0.5103 0.8431
vn 0.4793 0.5103 0.7140
vn 0.7161 -0.5103 0.4762
vn 0.4793 -0.5103 0.7140
vn -0.4762 -0.5103 0.7161
vn -0.7161 -0.5103 -0.4762
vn -0.4793 -0.5103 -0.7140
vn -0.7161 0.5103 -0.4762
vn 0.0613 0.9505 0.3046
vn -0.0600 0.9505 0.3049
vn 0.1668 0.5027 -0.8482
vn 0.7198 0.5027 0.4787
vn 0.1705 -0.5027 0.8475
vn -0.7198 0.5027 -0.4787
vn -0.1705 -0.5027 -0.8475
vn -0.8482 0.5027 -0.1668
vn 0.1732 0.9505 0.2580
vn 0.0600 0.9505 -0.3049
vn 0.1721 0.9505 -0.2587
vn -0.1721 0.9505 0.2587
vn -0.2580 0.9505 0.1732
vn -0.3046 0.9505 0.0613
vn 0.2587 0.9505 0.1721
vn -0.2587 0.9505 -0.1721
vn -0.3049 0.9505 -0.0600
vn 0.3049 0.9505 0.0600
vn -0.0613 0.9505 -0.3046
vn -0.1732 0.9505 -0.2580
vn 0.2580 0.9505 -0.1732
vn 0.3046 0.9505 -0.0613
vt 0.573302 0.646192
vt 0.562500 0.423828
vt 0.631482 0.672076
vt 0.625000 0.423828
vt 0.676011 0.719903
vt 0.687500 0.423828
vt 0.262703 0.960348
vt 0.687500 0.633602
vt 0.204523 0.986232
vt 0.625000 0.633602
vt 0.141549 0.986232
vt 0.562500 0.633602
vt 0.700110 0.782393
vt 0.750000 0.423828
vt 0.700110 0.850031
vt 0.812500 0.423828
vt 0.676011 0.912520
vt 0.875000 0.423828
vt 0.631482 0.960348
vt 0.937500 0.423828
vt 0.307232 0.912521
vt 0.750000 0.633602
vt 0.307232 0.719903
vt 0.937500 0.633602
vt 0.331331 0.782393
vt 0.875000 0.633602
vt 0.331330 0.850031
vt 0.812500 0.633602
vt 0.510329 0.646192
vt 0.500000 0.423828
vt 0.383521 0.782393
vt 0.312500 0.423828
vt 0.407620 0.719903
vt 0.375000 0.423828
vt 0.452149 0.672076
vt 0.437500 0.423828
vt 0.083369 0.960348
vt 0.500000 0.633602
vt 0.038840 0.912521
vt 0.437500 0.633602
vt 0.014741 0.850031
vt 0.375000 0.633602
vt 0.014741 0.782393
vt 0.312500 0.633602
vt 0.573302 0.986232
vt 0.000000 0.423828
vt 1.000000 0.423828
vt 0.383521 0.850031
vt 0.250000 0.423828
vt 0.510329 0.986232
vt 0.062500 0.423828
vt 0.125000 0.423828
vt 0.452149 0.960348
vt 0.187500 0.423828
vt 0.407620 0.912520
vt 0.038840 0.719903
vt 0.250000 0.633602
vt 0.000000 0.633602
vt 0.262703 0.672076
vt 1.000000 0.633602
vt 0.083369 0.672076
vt 0.187500 0.633602
vt 0.141549 0.646192
vt 0.125000 0.633602
vt 0.204523 0.646192
vt 0.062500 0.633602
vt 0.635641 0.665390
vt 0.874608 0.000000
vt 0.574763 0.638306
vt 0.811912 0.000000
vt 0.140089 0.994118
vt 0.811912 0.632997
vt 0.205983 0.994118
vt 0.874608 0.632997
vt 0.682235 0.715436
vt 0.937304 0.000000
vt 0.266861 0.967033
vt 0.937304 0.632997
vt 0.338672 0.780824
vt 0.125392 0.632997
vt 0.313456 0.715436
vt 0.188088 0.632997
vt 0.635641 0.967033
vt 0.188088 0.000000
vt 0.682235 0.916987
vt 0.125392 0.000000
vt 0.338672 0.851600
vt 0.062696 0.632997
vt 0.707452 0.851600
vt 0.062696 0.000000
vt 1.000000 0.632997
vt 0.313456 0.916987
vt 0.000000 0.632997
vt 1.000000 0.000000
vt 0.000000 0.000000
vt 0.707452 0.780824
vt 0.437304 0.632997
vt 0.079210 0.665391
vt 0.032616 0.715436
vt 0.500000 0.632997
vt 0.376179 0.851600
vt 0.500000 0.000000
vt 0.437304 0.000000
vt 0.401396 0.916987
vt 0.140089 0.638306
vt 0.374608 0.632997
vt 0.374608 0.000000
vt 0.447990 0.967033
vt 0.205983 0.638306
vt 0.313480 0.632997
vt 0.508868 0.994118
vt 0.313480 0.000000
vt 0.266861 0.665391
vt 0.250784 0.632997
vt 0.574763 0.994118
vt 0.250784 0.000000
vt 0.032616 0.916987
vt 0.688088 0.632997
vt 0.079210 0.967033
vt 0.749216 0.632997
vt 0.508868 0.638306
vt 0.749216 0.000000
vt 0.447990 0.665391
vt 0.688088 0.000000
vt 0.007399 0.851600
vt 0.625392 0.632997
vt 0.401396 0.715436
vt 0.625392 0.000000
vt 0.007399 0.780824
vt 0.562696 0.632997
vt 0.376179 0.780824
vt 0.562696 0.000000
vt 0.142332 0.974006
vt 0.201269 0.974006
vt 0.255719 0.949782
vt 0.319947 0.783235
vt 0.297393 0.724751
vt 0.319947 0.846537
vt 0.297393 0.905020
vt 0.087882 0.679990
vt 0.046208 0.724751
vt 0.142332 0.655765
vt 0.201269 0.655765
vt 0.255719 0.679990
vt 0.046208 0.905020
vt 0.087882 0.949782
vt 0.023654 0.846537
vt 0.023654 0.783235
vt 0.631482 0.672076
vt 0.625000 0.429282
vt 0.573302 0.646192
vt 0.562500 0.429282
vt 0.676011 0.719903
vt 0.687500 0.429282
vt 0.631482 0.960348
vt 0.937500 0.429282
vt 0.676011 0.912520
vt 0.875000 0.429282
vt 0.700110 0.850031
vt 0.812500 0.429282
vt 0.700110 0.782393
vt 0.750000 0.429282
vt 0.383521 0.850031
vt 0.250000 0.429282
vt 0.407620 0.912520
vt 0.187500 0.429282
vt 0.452149 0.960348
vt 0.125000 0.429281
vt 0.062500 0.429281
vt 0.510329 0.986232
vt 0.000000 0.429281
vt 0.573302 0.986232
vt 1.000000 0.429282
vt 0.510329 0.646192
vt 0.500000 0.429282
vt 0.452149 0.672076
vt 0.437500 0.429282
vt 0.407620 0.719903
vt 0.375000 0.429282
vt 0.383521 0.782393
vt 0.312500 0.429282
vt 0.811912 0.226873
vt 0.874608 0.226873
vt 0.937304 0.226873
vt 0.188088 0.226873
vt 0.125392 0.226873
vt 0.062696 0.226873
vt 1.000000 0.226873
vt 0.000000 0.226873
vt 0.500000 0.226873
vt 0.437304 0.226873
vt 0.374608 0.226873
vt 0.313480 0.226873
vt 0.250784 0.226873
vt 0.749216 0.226873
vt 0.688088 0.226873
vt 0.625392 0.226873
vt 0.562696 0.226873
vt 0.811912 0.198710
vt 0.874608 0.198710
vt 0.937304 0.198710
vt 0.500000 0.198710
vt 0.749216 0.198710
vt 0.188088 0.198710
vt 0.125392 0.198710
vt 0.062696 0.198710
vt 1.000000 0.198710
vt 0.000000 0.198710
vt 0.437304 0.198710
vt 0.374608 0.198710
vt 0.313480 0.198710
vt 0.250784 0.198710
vt 0.688088 0.198710
vt 0.625392 0.198710
vt 0.562696 0.198710
vt 0.188088 0.392499
vt 0.125392 0.392499
vt 0.062696 0.392499
vt 0.000000 0.392499
vt 1.000000 0.392499
vt 0.437304 0.392499
vt 0.374608 0.392499
vt 0.313480 0.392499
vt 0.250784 0.392499
vt 0.688088 0.392499
vt 0.625392 0.392499
vt 0.562696 0.392499
vt 0.811912 0.392499
vt 0.874608 0.392499
vt 0.937304 0.392499
vt 0.500000 0.392499
vt 0.749216 0.392499
vt 0.188088 0.421235
vt 0.125392 0.421235
vt 0.062696 0.421235
vt 0.000000 0.421235
vt 1.000000 0.421235
vt 0.437304 0.421235
vt 0.374608 0.421235
vt 0.313480 0.421235
vt 0.250784 0.421235
vt 0.688088 0.421235
vt 0.625392 0.421235
vt 0.562696 0.421235
vt 0.811912 0.421235
vt 0.874608 0.421235
vt 0.937304 0.421235
vt 0.500000 0.421235
vt 0.749216 0.421235
vt 0.188088 0.212791
vt 0.125392 0.212791
vt 0.062696 0.212791
vt 1.000000 0.212791
vt 0.000000 0.212791
vt 0.437304 0.212791
vt 0.374608 0.212791
vt 0.313480 0.212791
vt 0.250784 0.212791
vt 0.688088 0.212791
vt 0.625392 0.212791
vt 0.562696 0.212791
vt 0.811912 0.212791
vt 0.874608 0.212791
vt 0.937304 0.212791
vt 0.500000 0.212791
vt 0.749216 0.212791
vt 0.811912 0.406867
vt 0.874608 0.406867
vt 0.937304 0.406867
vt 0.500000 0.406867
vt 0.749216 0.406867
vt 0.188088 0.406867
vt 0.125392 0.406867
vt 0.062696 0.406867
vt 0.000000 0.406867
vt 1.000000 0.406867
vt 0.437304 0.406867
vt 0.374608 0.406867
vt 0.313480 0.406867
vt 0.250784 0.406867
vt 0.688088 0.406867
vt 0.625392 0.406867
vt 0.562696 0.406867
vt 0.562501 0.524535
vt 0.140831 0.982116
vt 0.625000 0.524534
vt 0.202771 0.982116
vt 0.687501 0.524534
vt 0.259996 0.956657
vt 0.874999 0.524534
vt 0.327498 0.781621
vt 0.937500 0.524534
vt 0.303794 0.720157
vt 0.812501 0.524534
vt 0.327498 0.848150
vt 0.750000 0.524534
vt 0.303794 0.909614
vt 0.187500 0.524534
vt 0.083605 0.673115
vt 0.250000 0.524534
vt 0.039807 0.720157
vt 0.125000 0.524534
vt 0.140830 0.647655
vt 0.062500 0.524534
vt 0.202771 0.647655
vt -0.000000 0.524535
vt 0.999999 0.524535
vt 0.259996 0.673115
vt 0.437500 0.524534
vt 0.039807 0.909614
vt 0.500000 0.524533
vt 0.083605 0.956657
vt 0.375000 0.524533
vt 0.016103 0.848150
vt 0.312500 0.524534
vt 0.016103 0.781622
s 1
usemtl metal_barrel_hr_3
f 132/219/1 131/218/2 102/187/2 103/189/1
f 208/315/2 22/44/2 28/57/1 201/300/1
f 155/244/3 63/130/3 61/126/4 154/243/4
f 81/150/5 2/4/5 3/6/6 83/154/6
f 47/97/6 48/100/7 159/248/7 149/238/6
f 148/237/1 158/247/8 38/78/8 45/91/1
f 146/234/9 39/80/9 40/82/10 145/233/10
f 150/239/5 51/106/5 47/97/6 149/238/6
f 116/202/7 128/215/3 64/132/3 49/102/7
f 99/184/8 98/183/11 141/229/11 142/230/8
f 127/214/4 126/213/12 60/124/12 62/128/4
f 46/94/1 37/76/8 115/201/8 121/207/1
f 203/304/13 32/66/13 29/58/14 204/306/14
f 125/212/15 124/211/16 54/112/16 56/116/15
f 106/192/5 134/222/5 133/221/6 105/191/6
f 121/208/1 120/206/2 44/90/2 46/95/1
f 143/231/7 139/227/3 112/198/3 104/190/7
f 91/169/13 25/51/13 26/52/11 90/168/11
f 54/111/17 52/108/17 26/53/17 25/50/17
f 75/143/18 69/137/19 80/148/20 73/141/21
f 41/83/17 10/19/17 9/17/17 42/85/17
f 57/117/22 61/125/22 21/41/22 20/39/22
f 57/117/22 20/39/22 19/37/22 58/119/22
f 60/123/17 18/35/17 17/33/17 62/127/17
f 51/105/22 53/109/22 32/65/22 31/63/22
f 34/69/17 33/67/17 2/3/17 1/1/17
f 43/87/22 14/27/22 13/25/22 39/79/22
f 34/69/17 1/1/17 15/29/17 59/121/17
f 38/77/22 4/7/22 11/21/22 45/92/22
f 40/81/22 12/23/22 29/59/22 55/113/22
f 44/89/17 8/15/17 7/13/17 46/96/17
f 37/75/17 3/5/17 2/3/17 33/67/17
f 36/73/22 5/9/22 4/7/22 38/77/22
f 55/113/22 29/59/22 32/65/22 53/109/22
f 47/98/22 30/61/22 28/56/22 48/99/22
f 64/131/17 16/31/17 24/48/17 49/101/17
f 59/121/17 15/29/17 18/35/17 60/123/17
f 49/101/17 24/48/17 27/55/17 50/104/17
f 48/99/22 28/56/22 22/43/22 63/129/22
f 39/79/22 13/25/22 12/23/22 40/81/22
f 36/73/22 35/71/22 6/11/22 5/9/22
f 44/89/17 42/85/17 9/17/17 8/15/17
f 54/111/17 25/50/17 23/45/17 56/115/17
f 63/129/22 22/43/22 21/41/22 61/125/22
f 56/115/17 23/45/17 10/19/17 41/83/17
f 45/92/22 11/21/22 14/27/22 43/87/22
f 46/96/17 7/13/17 3/5/17 37/75/17
f 70/138/23 65/133/24 80/148/20 69/137/19
f 58/119/22 19/37/22 6/11/22 35/71/22
f 64/131/17 62/127/17 17/33/17 16/31/17
f 84/155/17 91/170/17 83/153/17 86/159/17
f 75/143/18 76/144/25 69/137/19
f 69/137/19 68/136/26 70/138/23
f 72/140/27 74/142/28 75/143/18 73/141/21
f 67/135/29 66/134/30 65/133/24
f 71/139/31 67/135/29 65/133/24 70/138/23
f 77/145/32 79/147/33 80/148/20
f 51/105/22 31/63/22 30/61/22 47/98/22
f 156/245/13 160/249/14 58/120/14 35/72/13
f 85/158/4 9/18/4 10/20/12 84/156/12
f 55/114/15 53/110/16 151/240/16 152/241/15
f 92/171/14 23/46/14 25/51/13 91/169/13
f 82/152/16 93/175/15 15/30/15 1/2/16
f 193/284/16 194/286/5 5/10/5 6/12/16
f 147/235/2 43/88/2 39/80/9 146/234/9
f 207/313/9 21/42/9 22/44/2 208/315/2
f 141/229/11 98/183/11 97/182/13 140/228/13
f 140/228/13 97/182/13 109/195/14 144/232/14
f 195/288/6 4/8/6 5/10/5 194/286/5
f 205/309/10 20/40/10 21/42/9 207/313/9
f 195/288/6 199/296/7 11/22/7 4/8/6
f 133/221/6 143/231/7 104/190/7 105/191/6
f 82/151/17 83/153/17 91/170/17 89/165/17
f 83/153/17 87/161/17 86/159/17
f 86/159/17 85/157/17 84/155/17
f 84/155/17 92/172/17 91/170/17
f 91/170/17 90/167/17 89/165/17
f 89/165/17 88/163/17 96/180/17
f 96/180/17 95/178/17 94/176/17
f 94/176/17 93/174/17 82/151/17
f 82/151/17 81/149/17 83/153/17
f 94/176/17 82/151/17 89/165/17 96/180/17
f 33/68/11 34/70/13 113/199/13 114/200/11
f 78/146/34 77/145/32 80/148/20 65/133/24
f 81/150/5 82/152/16 1/2/16 2/4/5
f 88/164/1 24/49/1 16/32/2 96/181/2
f 196/290/4 13/26/4 14/28/3 198/294/3
f 86/160/3 8/16/3 9/18/4 85/158/4
f 89/166/8 27/54/8 24/49/1 88/164/1
f 193/284/16 6/12/16 19/38/15 206/311/15
f 95/179/9 17/34/9 18/36/10 94/177/10
f 197/292/12 204/307/14 29/60/14 12/24/12
f 37/76/8 33/68/11 114/200/11 115/201/8
f 157/246/11 156/245/13 35/72/13 36/74/11
f 90/168/11 26/52/11 27/54/8 89/166/8
f 118/204/10 125/212/15 56/116/15 41/84/10
f 96/181/2 16/32/2 17/34/9 95/179/9
f 158/247/8 157/246/11 36/74/11 38/78/8
f 136/224/35 189/280/35 188/279/36 135/223/36
f 200/298/8 30/62/8 31/64/11 202/302/11
f 198/294/3 14/28/3 11/22/7 199/296/7
f 101/186/9 130/217/9 129/216/10 100/185/10
f 126/213/12 117/203/14 59/122/14 60/124/12
f 206/311/15 19/38/15 20/40/10 205/309/10
f 48/100/7 63/130/3 155/244/3 159/248/7
f 139/227/3 138/226/4 111/197/4 112/198/3
f 110/196/12 137/225/12 144/232/14 109/195/14
f 124/211/16 123/210/5 52/107/5 54/112/16
f 203/304/13 202/302/11 31/64/11 32/66/13
f 129/216/10 136/224/15 108/194/15 100/185/10
f 40/82/10 55/114/15 152/241/15 145/233/10
f 100/185/37 108/194/38 168/258/38 161/250/37
f 164/253/39 121/207/39 115/201/40 174/264/40
f 165/255/41 175/265/42 116/202/42 122/209/41
f 168/258/43 167/257/44 124/211/44 125/212/43
f 94/177/10 18/36/10 15/30/15 93/175/15
f 128/215/3 127/214/4 62/128/4 64/132/3
f 45/93/1 43/88/2 147/235/2 148/236/1
f 122/209/6 116/202/7 49/102/7 50/103/6
f 172/262/45 176/266/46 109/195/46 97/182/45
f 98/183/47 173/263/47 172/262/45 97/182/45
f 101/186/48 100/185/37 161/250/37 162/251/48
f 167/257/44 166/256/49 123/210/49 124/211/44
f 107/193/50 106/192/51 166/256/51 167/257/50
f 166/256/49 165/255/41 122/209/41 123/210/49
f 165/255/52 105/191/52 104/190/53 175/265/53
f 164/253/54 174/264/55 99/184/55 103/188/54
f 175/265/53 104/190/53 112/198/56 171/261/56
f 161/250/57 168/258/43 125/212/43 118/204/57
f 115/201/40 114/200/58 173/263/58 174/264/40
f 169/259/59 176/266/60 117/203/60 126/213/59
f 151/240/61 150/239/62 187/278/62 188/279/61
f 192/283/63 191/282/64 138/226/64 139/227/63
f 178/268/65 141/229/65 140/228/66 177/267/66
f 143/231/67 180/270/67 192/283/63 139/227/63
f 185/275/68 184/274/69 131/218/69 132/219/68
f 188/279/36 187/278/70 134/222/70 135/223/36
f 149/238/71 159/248/72 180/270/72 186/277/71
f 156/245/73 177/267/73 181/271/74 160/249/74
f 132/220/68 142/230/75 179/269/75 185/276/68
f 146/234/76 145/233/77 182/272/77 183/273/76
f 184/274/69 183/273/78 130/217/78 131/218/69
f 179/269/79 178/268/80 157/246/80 158/247/79
f 53/110/16 51/106/5 150/239/5 151/240/16
f 102/187/2 131/218/2 130/217/9 101/186/9
f 135/223/16 134/222/5 106/192/5 107/193/16
f 138/226/4 137/225/12 110/196/12 111/197/4
f 103/188/1 99/184/8 142/230/8 132/220/1
f 87/162/7 7/14/7 8/16/3 86/160/3
f 83/154/6 3/6/6 7/14/7 87/162/7
f 196/290/4 197/292/12 12/24/12 13/26/4
f 57/118/12 58/120/14 160/249/14 153/242/12
f 201/300/1 28/57/1 30/62/8 200/298/8
f 52/107/5 123/210/5 122/209/6 50/103/6
f 34/70/13 59/122/14 117/203/14 113/199/13
f 42/86/9 119/205/9 118/204/10 41/84/10
f 154/243/4 61/126/4 57/118/12 153/242/12
f 120/206/2 119/205/9 42/86/9 44/90/2
f 84/156/12 10/20/12 23/47/14 92/173/14
f 154/243/81 153/242/82 190/281/82 191/282/81
f 190/281/82 153/242/82 160/249/74 181/271/74
f 134/222/70 187/278/70 186/277/83 133/221/83
f 140/228/66 144/232/84 181/271/84 177/267/66
f 110/196/85 109/195/46 176/266/46 169/259/85
f 170/260/86 111/197/86 110/196/85 169/259/85
f 171/261/87 170/260/88 127/214/88 128/215/87
f 175/265/42 171/261/87 128/215/87 116/202/42
f 174/264/55 173/263/47 98/183/47 99/184/55
f 170/260/88 169/259/59 126/213/59 127/214/88
f 114/200/58 113/199/89 172/262/89 173/263/58
f 113/199/89 117/203/60 176/266/60 172/262/89
f 163/252/90 162/251/91 119/205/91 120/206/90
f 162/251/91 161/250/57 118/204/57 119/205/91
f 102/187/92 101/186/48 162/251/48 163/252/92
f 171/261/56 112/198/56 111/197/86 170/260/86
f 103/189/54 102/187/92 163/252/92 164/254/54
f 164/254/39 163/252/90 120/206/90 121/208/39
f 197/293/93 69/137/19 76/144/25 204/308/94
f 106/192/51 105/191/52 165/255/52 166/256/51
f 152/241/95 151/240/61 188/279/61 189/280/95
f 155/244/96 154/243/81 191/282/81 192/283/96
f 187/278/62 150/239/62 149/238/71 186/277/71
f 191/282/64 190/281/97 137/225/97 138/226/64
f 184/274/98 147/235/98 146/234/76 183/273/76
f 145/233/77 152/241/95 189/280/95 182/272/77
f 178/268/80 177/267/73 156/245/73 157/246/80
f 182/272/99 189/280/35 136/224/35 129/216/99
f 159/248/72 155/244/96 192/283/96 180/270/72
f 185/275/100 148/236/100 147/235/98 184/274/98
f 108/194/38 107/193/50 167/257/50 168/258/38
f 183/273/78 182/272/99 129/216/99 130/217/78
f 185/276/100 179/269/79 158/247/79 148/237/100
f 186/277/83 180/270/67 143/231/67 133/221/83
f 142/230/75 141/229/65 178/268/65 179/269/75
f 190/281/97 181/271/84 144/232/84 137/225/97
f 196/291/101 68/136/26 69/137/19 197/293/93
f 50/104/17 27/55/17 26/53/17 52/108/17
f 206/312/102 78/146/34 65/133/24 193/285/103
f 203/305/104 75/143/18 74/142/28 202/303/105
f 202/303/105 74/142/28 72/140/27 200/299/106
f 198/295/107 70/138/23 68/136/26 196/291/101
f 208/316/108 201/301/109 73/141/21 80/148/20
f 199/297/110 71/139/31 70/138/23 198/295/107
f 205/310/111 207/314/112 79/147/33 77/145/32
f 193/285/103 65/133/24 66/134/30 194/287/113
f 206/312/102 205/310/111 77/145/32 78/146/34
f 200/299/106 72/140/27 73/141/21 201/301/109
f 195/289/114 67/135/29 71/139/31 199/297/110
f 208/316/108 80/148/20 79/147/33 207/314/112
f 204/308/94 76/144/25 75/143/18 203/305/104
f 194/287/113 66/134/30 67/135/29 195/289/114
f 136/224/15 135/223/16 107/193/16 108/194/15
