# Blender 3.4.0
# www.blender.org
mtllib metal_barrel_hr_1.mtl
o metal_barrel_hr_1
v -0.174639 0.000000 0.262605
v -0.261840 0.000000 0.175783
v -0.309178 0.000000 0.062201
v -0.309178 1.000000 0.062201
v -0.261840 1.000000 0.175783
v -0.174639 1.000000 0.262605
v -0.309447 0.000000 -0.060851
v -0.262605 0.000000 -0.174639
v -0.175783 0.000000 -0.261840
v -0.062201 0.000000 -0.309178
v -0.309447 1.000000 -0.060851
v -0.062201 1.000000 -0.309178
v -0.175783 1.000000 -0.261840
v -0.262605 1.000000 -0.174639
v -0.060851 0.000000 0.309447
v 0.262605 0.000000 0.174639
v 0.175783 0.000000 0.261840
v 0.062201 0.000000 0.309178
v -0.060851 1.000000 0.309447
v 0.062201 1.000000 0.309178
v 0.175783 1.000000 0.261840
v 0.262605 1.000000 0.174639
v 0.060851 0.000000 -0.309447
v 0.309447 0.000000 0.060851
v 0.174639 0.000000 -0.262605
v 0.261840 0.000000 -0.175783
v 0.309178 0.000000 -0.062201
v 0.309447 1.000000 0.060851
v 0.060851 1.000000 -0.309447
v 0.309178 1.000000 -0.062201
v 0.261840 1.000000 -0.175783
v 0.174639 1.000000 -0.262605
v -0.273984 0.000000 0.183936
v -0.182739 0.000000 0.274784
v -0.182739 1.000000 0.274784
v -0.273984 1.000000 0.183936
v -0.323518 0.000000 0.065086
v -0.323518 1.000000 0.065086
v -0.183936 1.000000 -0.273984
v -0.065086 1.000000 -0.323518
v -0.065086 0.000000 -0.323518
v -0.183936 0.000000 -0.273984
v -0.274784 1.000000 -0.182739
v -0.274784 0.000000 -0.182739
v -0.323799 1.000000 -0.063674
v -0.323799 0.000000 -0.063674
v 0.323518 1.000000 -0.065086
v 0.323799 1.000000 0.063674
v 0.323799 0.000000 0.063674
v 0.323518 0.000000 -0.065086
v 0.273984 1.000000 -0.183936
v 0.273984 0.000000 -0.183936
v 0.182739 1.000000 -0.274784
v 0.182739 0.000000 -0.274784
v 0.063674 1.000000 -0.323799
v 0.063674 0.000000 -0.323799
v 0.065086 1.000000 0.323518
v -0.063674 1.000000 0.323799
v -0.063674 0.000000 0.323799
v 0.065086 0.000000 0.323518
v 0.183936 1.000000 0.273984
v 0.183936 0.000000 0.273984
v 0.274784 1.000000 0.182739
v 0.274784 0.000000 0.182739
v -0.174639 0.990000 0.262605
v -0.261840 0.990000 0.175783
v -0.309178 0.990000 0.062201
v -0.175783 0.990000 -0.261840
v -0.062201 0.990000 -0.309178
v -0.262605 0.990000 -0.174639
v -0.309447 0.990000 -0.060851
v 0.309178 0.990000 -0.062201
v 0.309447 0.990000 0.060851
v 0.261840 0.990000 -0.175783
v 0.174639 0.990000 -0.262605
v 0.060851 0.990000 -0.309447
v 0.062201 0.990000 0.309178
v -0.060851 0.990000 0.309447
v 0.175783 0.990000 0.261840
v 0.262605 0.990000 0.174639
v -0.261840 0.010000 0.175783
v -0.174639 0.010000 0.262605
v -0.309178 0.010000 0.062201
v -0.062201 0.010000 -0.309178
v -0.175783 0.010000 -0.261840
v -0.262605 0.010000 -0.174639
v -0.309447 0.010000 -0.060851
v 0.309447 0.010000 0.060851
v 0.309178 0.010000 -0.062201
v 0.261840 0.010000 -0.175783
v 0.174639 0.010000 -0.262605
v 0.060851 0.010000 -0.309447
v -0.060851 0.010000 0.309447
v 0.062201 0.010000 0.309178
v 0.175783 0.010000 0.261840
v 0.262605 0.010000 0.174639
v -0.182739 0.377119 0.274784
v -0.273984 0.377119 0.183936
v -0.323518 0.377119 0.065086
v -0.065086 0.377119 -0.323518
v -0.183936 0.377119 -0.273984
v -0.274784 0.377119 -0.182739
v -0.323799 0.377119 -0.063674
v 0.323799 0.377119 0.063674
v 0.323518 0.377119 -0.065086
v 0.273984 0.377119 -0.183936
v 0.182739 0.377119 -0.274784
v 0.063674 0.377119 -0.323799
v -0.063674 0.377119 0.323799
v 0.065086 0.377119 0.323518
v 0.183936 0.377119 0.273984
v 0.274784 0.377119 0.182739
v -0.182739 0.332627 0.274784
v -0.273984 0.332627 0.183936
v -0.323518 0.332627 0.065086
v 0.323799 0.332627 0.063674
v -0.063674 0.332627 0.323799
v -0.065086 0.332627 -0.323518
v -0.183936 0.332627 -0.273984
v -0.274784 0.332627 -0.182739
v -0.323799 0.332627 -0.063674
v 0.323518 0.332627 -0.065086
v 0.273984 0.332627 -0.183936
v 0.182739 0.332627 -0.274784
v 0.063674 0.332627 -0.323799
v 0.065086 0.332627 0.323518
v 0.183936 0.332627 0.273984
v 0.274784 0.332627 0.182739
v -0.065086 0.643163 -0.323518
v -0.183936 0.643163 -0.273984
v -0.274784 0.643163 -0.182739
v -0.323799 0.643163 -0.063674
v 0.323518 0.643163 -0.065086
v 0.273984 0.643163 -0.183936
v 0.182739 0.643163 -0.274784
v 0.063674 0.643163 -0.323799
v 0.065086 0.643163 0.323518
v 0.183936 0.643163 0.273984
v 0.274784 0.643163 0.182739
v -0.182739 0.643163 0.274784
v -0.273984 0.643163 0.183936
v -0.323518 0.643163 0.065086
v 0.323799 0.643163 0.063674
v -0.063674 0.643163 0.323799
v -0.065086 0.688559 -0.323518
v -0.183936 0.688559 -0.273984
v -0.274784 0.688559 -0.182739
v -0.323799 0.688559 -0.063674
v 0.323518 0.688559 -0.065086
v 0.273984 0.688559 -0.183936
v 0.182739 0.688559 -0.274784
v 0.063674 0.688559 -0.323799
v 0.065086 0.688559 0.323518
v 0.183936 0.688559 0.273984
v 0.274784 0.688559 0.182739
v -0.182739 0.688559 0.274784
v -0.273984 0.688559 0.183936
v -0.323518 0.688559 0.065086
v 0.323799 0.688559 0.063674
v -0.063674 0.688559 0.323799
v -0.067689 0.354873 -0.336459
v -0.191294 0.354873 -0.284944
v -0.285776 0.354873 -0.190049
v -0.336751 0.354873 -0.066220
v 0.336459 0.354873 -0.067689
v 0.284944 0.354873 -0.191294
v 0.190049 0.354873 -0.285776
v 0.066220 0.354873 -0.336751
v 0.067689 0.354873 0.336459
v 0.191294 0.354873 0.284944
v 0.285776 0.354873 0.190049
v -0.190049 0.354873 0.285776
v -0.284944 0.354873 0.191294
v -0.336459 0.354873 0.067689
v 0.336751 0.354873 0.066220
v -0.066220 0.354873 0.336751
v -0.190049 0.665861 0.285776
v -0.284944 0.665861 0.191294
v -0.336459 0.665861 0.067689
v 0.336751 0.665861 0.066220
v -0.066220 0.665861 0.336751
v -0.067689 0.665861 -0.336459
v -0.191294 0.665861 -0.284944
v -0.285776 0.665861 -0.190049
v -0.336751 0.665861 -0.066220
v 0.336459 0.665861 -0.067689
v 0.284944 0.665861 -0.191294
v 0.190049 0.665861 -0.285776
v 0.066220 0.665861 -0.336751
v 0.067689 0.665861 0.336459
v 0.191294 0.665861 0.284944
v 0.285776 0.665861 0.190049
vn -0.5538 -0.0000 0.8327
vn -0.8303 -0.0000 0.5574
vn 0.1930 -0.0000 -0.9812
vn 0.5538 -0.0000 -0.8327
vn 0.9812 -0.0000 0.1929
vn 0.8327 -0.0000 0.5538
vn -0.1972 -0.0000 -0.9804
vn -0.5574 -0.0000 -0.8303
vn -0.9804 -0.0000 0.1972
vn -0.9812 -0.0000 -0.1929
vn 0.9804 -0.0000 -0.1972
vn 0.8303 -0.0000 -0.5574
vn 0.5574 -0.0000 0.8303
vn -0.9812 -0.0000 -0.1930
vn 0.9812 -0.0000 0.1930
vn -0.8327 -0.0000 -0.5538
vn -0.0000 -1.0000 -0.0000
vn -0.0000 1.0000 -0.0000
vn -0.1930 -0.0000 0.9812
vn 0.1972 -0.0000 0.9804
vn -0.1668 0.5027 0.8482
vn -0.4787 0.5027 0.7198
vn -0.1929 -0.0000 0.9812
vn 0.8438 -0.5103 0.1659
vn 0.8431 -0.5103 -0.1696
vn 0.8438 0.5103 0.1659
vn 0.8431 0.5103 -0.1696
vn -0.4793 0.5103 -0.7140
vn -0.7161 0.5103 -0.4762
vn 0.7140 0.5103 -0.4793
vn 0.4762 0.5103 -0.7161
vn 0.4762 -0.5103 -0.7161
vn 0.1659 -0.5103 -0.8438
vn -0.8431 0.5103 0.1696
vn -0.8438 0.5103 -0.1659
vn -0.1696 -0.5103 -0.8431
vn -0.4793 -0.5103 -0.7140
vn -0.1659 0.5103 0.8438
vn -0.4762 0.5103 0.7161
vn -0.7140 0.5103 0.4793
vn -0.1696 0.5103 -0.8431
vn 0.1659 0.5103 -0.8438
vn 0.7161 0.5103 0.4762
vn -0.1659 -0.5103 0.8438
vn 0.1696 -0.5103 0.8431
vn 0.1696 0.5103 0.8431
vn 0.4793 0.5103 0.7140
vn 0.7140 -0.5103 -0.4793
vn 0.1705 0.5027 0.8475
vn 0.4818 0.5027 0.7177
vn 0.7198 0.5027 0.4787
vn -0.7177 0.5027 0.4818
vn -0.8475 0.5027 0.1705
vn -0.7198 0.5027 -0.4787
vn -0.8482 0.5027 -0.1668
vn -0.1705 -0.5027 -0.8475
vn -0.4818 -0.5027 -0.7177
vn 0.8482 0.5027 0.1668
vn 0.8475 0.5027 -0.1705
vn -0.1668 -0.5027 0.8482
vn -0.4787 -0.5027 0.7198
vn -0.8475 -0.5027 0.1705
vn -0.8482 -0.5027 -0.1668
vn -0.7177 -0.5027 0.4818
vn -0.7198 -0.5027 -0.4787
vn 0.4787 0.5027 -0.7198
vn 0.1668 0.5027 -0.8482
vn 0.8475 -0.5027 -0.1705
vn 0.7177 -0.5027 -0.4818
vn 0.1668 -0.5027 -0.8482
vn 0.4787 -0.5027 -0.7198
vn 0.4793 -0.5103 0.7140
vn 0.7161 -0.5103 0.4762
vn -0.8431 -0.5103 0.1696
vn -0.8438 -0.5103 -0.1659
vn -0.4762 -0.5103 0.7161
vn -0.7140 -0.5103 0.4793
vn -0.7161 -0.5103 -0.4762
vn 0.7198 -0.5027 0.4787
vn 0.8482 -0.5027 0.1668
vn -0.1705 0.5027 -0.8475
vn -0.4818 0.5027 -0.7177
vn 0.7177 0.5027 -0.4818
vn 0.4818 -0.5027 0.7177
vn 0.1705 -0.5027 0.8475
vt 0.573302 0.646192
vt 0.562500 0.423828
vt 0.631482 0.672076
vt 0.625000 0.423828
vt 0.676011 0.719903
vt 0.687500 0.423828
vt 0.262703 0.960348
vt 0.687500 0.423828
vt 0.204523 0.986232
vt 0.625000 0.423828
vt 0.141549 0.986232
vt 0.562500 0.423828
vt 0.700110 0.782393
vt 0.750000 0.423828
vt 0.700110 0.850031
vt 0.812500 0.423828
vt 0.676011 0.912520
vt 0.875000 0.423828
vt 0.631482 0.960348
vt 0.937500 0.423828
vt 0.307232 0.912521
vt 0.750000 0.423828
vt 0.307232 0.719903
vt 0.937500 0.423828
vt 0.331331 0.782393
vt 0.875000 0.423828
vt 0.331330 0.850031
vt 0.812500 0.423828
vt 0.510329 0.646192
vt 0.500000 0.423828
vt 0.383521 0.782393
vt 0.312500 0.423828
vt 0.407620 0.719903
vt 0.375000 0.423828
vt 0.452149 0.672076
vt 0.437500 0.423828
vt 0.083369 0.960348
vt 0.500000 0.423828
vt 0.038840 0.912521
vt 0.437500 0.423828
vt 0.014741 0.850031
vt 0.375000 0.423828
vt 0.014741 0.782393
vt 0.312500 0.423828
vt 0.573302 0.986232
vt 0.000000 0.423828
vt 1.000000 0.423828
vt 0.383521 0.850031
vt 0.250000 0.423828
vt 0.510329 0.986232
vt 0.062500 0.423828
vt 0.125000 0.423828
vt 0.452149 0.960348
vt 0.187500 0.423828
vt 0.407620 0.912520
vt 0.038840 0.719903
vt 0.250000 0.423828
vt 0.262703 0.672076
vt 1.000000 0.423828
vt 0.000000 0.423828
vt 0.083369 0.672076
vt 0.187500 0.423828
vt 0.141549 0.646192
vt 0.125000 0.423828
vt 0.204523 0.646192
vt 0.062500 0.423828
vt 0.874608 0.000000
vt 0.635641 0.665390
vt 0.574763 0.638306
vt 0.811912 0.000000
vt 0.140089 0.994118
vt 0.811912 0.632997
vt 0.205983 0.994118
vt 0.874608 0.632997
vt 0.937304 0.000000
vt 0.682235 0.715436
vt 0.266861 0.967033
vt 0.937304 0.632997
vt 0.338672 0.780824
vt 0.125392 0.632997
vt 0.313456 0.715436
vt 0.188088 0.632997
vt 0.635641 0.967033
vt 0.188088 0.000000
vt 0.682235 0.916987
vt 0.125392 0.000000
vt 0.338672 0.851600
vt 0.062696 0.632997
vt 0.707452 0.851600
vt 0.062696 0.000000
vt 0.313456 0.916987
vt 0.000000 0.632997
vt 1.000000 0.632997
vt 1.000000 0.000000
vt 0.707452 0.780824
vt 0.000000 0.000000
vt 0.079210 0.665391
vt 0.437304 0.632997
vt 0.032616 0.715436
vt 0.500000 0.632997
vt 0.500000 0.000000
vt 0.376179 0.851600
vt 0.437304 0.000000
vt 0.401396 0.916987
vt 0.140089 0.638306
vt 0.374608 0.632997
vt 0.374608 0.000000
vt 0.447990 0.967033
vt 0.205983 0.638306
vt 0.313480 0.632997
vt 0.508868 0.994118
vt 0.313480 0.000000
vt 0.266861 0.665391
vt 0.250784 0.632997
vt 0.250784 0.000000
vt 0.574763 0.994118
vt 0.032616 0.916987
vt 0.688088 0.632997
vt 0.079210 0.967033
vt 0.749216 0.632997
vt 0.508868 0.638306
vt 0.749216 0.000000
vt 0.447990 0.665391
vt 0.688088 0.000000
vt 0.007399 0.851600
vt 0.625392 0.632997
vt 0.401396 0.715436
vt 0.625392 0.000000
vt 0.007399 0.780824
vt 0.562696 0.632997
vt 0.562696 0.000000
vt 0.376179 0.780824
vt 0.562500 0.418375
vt 0.141549 0.986232
vt 0.625000 0.418375
vt 0.204523 0.986232
vt 0.687500 0.418375
vt 0.262703 0.960348
vt 0.875000 0.418375
vt 0.331331 0.782393
vt 0.937500 0.418375
vt 0.307232 0.719903
vt 0.812500 0.418375
vt 0.331330 0.850031
vt 0.750000 0.418375
vt 0.307232 0.912521
vt 0.187500 0.418375
vt 0.083369 0.672076
vt 0.250000 0.418375
vt 0.038840 0.719903
vt 0.125000 0.418375
vt 0.141549 0.646192
vt 0.062500 0.418375
vt 0.204523 0.646192
vt 1.000000 0.418375
vt 0.000000 0.418374
vt 0.262703 0.672076
vt 0.437500 0.418375
vt 0.038840 0.912521
vt 0.500000 0.418375
vt 0.083369 0.960348
vt 0.375000 0.418375
vt 0.014741 0.850031
vt 0.312500 0.418375
vt 0.014741 0.782393
vt 0.625000 0.429282
vt 0.631482 0.672076
vt 0.562500 0.429282
vt 0.573302 0.646192
vt 0.687500 0.429282
vt 0.676011 0.719903
vt 0.937500 0.429282
vt 0.631482 0.960348
vt 0.875000 0.429282
vt 0.676011 0.912520
vt 0.812500 0.429282
vt 0.700110 0.850031
vt 0.750000 0.429282
vt 0.700110 0.782393
vt 0.250000 0.429282
vt 0.383521 0.850031
vt 0.187500 0.429282
vt 0.407620 0.912520
vt 0.125000 0.429281
vt 0.452149 0.960348
vt 0.062500 0.429281
vt 0.510329 0.986232
vt 0.000000 0.429281
vt 1.000000 0.429282
vt 0.573302 0.986232
vt 0.510329 0.646192
vt 0.500000 0.429282
vt 0.452149 0.672076
vt 0.437500 0.429282
vt 0.375000 0.429282
vt 0.407620 0.719903
vt 0.312500 0.429282
vt 0.383521 0.782393
vt 0.811912 0.226873
vt 0.874608 0.226873
vt 0.937304 0.226873
vt 0.188088 0.226873
vt 0.125392 0.226873
vt 0.062696 0.226873
vt 1.000000 0.226873
vt 0.000000 0.226873
vt 0.500000 0.226873
vt 0.437304 0.226873
vt 0.374608 0.226873
vt 0.313480 0.226873
vt 0.250784 0.226873
vt 0.749216 0.226873
vt 0.688088 0.226873
vt 0.625392 0.226873
vt 0.562696 0.226873
vt 0.811912 0.198710
vt 0.874608 0.198710
vt 0.937304 0.198710
vt 0.500000 0.198710
vt 0.749216 0.198710
vt 0.188088 0.198710
vt 0.125392 0.198710
vt 0.062696 0.198710
vt 1.000000 0.198710
vt 0.000000 0.198710
vt 0.437304 0.198710
vt 0.374608 0.198710
vt 0.313480 0.198710
vt 0.250784 0.198710
vt 0.688088 0.198710
vt 0.625392 0.198710
vt 0.562696 0.198710
vt 0.188088 0.392499
vt 0.125392 0.392499
vt 0.062696 0.392499
vt 1.000000 0.392499
vt 0.000000 0.392499
vt 0.437304 0.392499
vt 0.374608 0.392499
vt 0.313480 0.392499
vt 0.250784 0.392499
vt 0.688088 0.392499
vt 0.625392 0.392499
vt 0.562696 0.392499
vt 0.811912 0.392499
vt 0.874608 0.392499
vt 0.937304 0.392499
vt 0.500000 0.392499
vt 0.749216 0.392499
vt 0.188088 0.421235
vt 0.125392 0.421235
vt 0.062696 0.421235
vt 0.000000 0.421235
vt 1.000000 0.421235
vt 0.437304 0.421235
vt 0.374608 0.421235
vt 0.313480 0.421235
vt 0.250784 0.421235
vt 0.688088 0.421235
vt 0.625392 0.421235
vt 0.562696 0.421235
vt 0.811912 0.421235
vt 0.874608 0.421235
vt 0.937304 0.421235
vt 0.500000 0.421235
vt 0.749216 0.421235
vt 0.188088 0.212791
vt 0.125392 0.212791
vt 0.062696 0.212791
vt 1.000000 0.212791
vt 0.000000 0.212791
vt 0.437304 0.212791
vt 0.374608 0.212791
vt 0.313480 0.212791
vt 0.250784 0.212791
vt 0.688088 0.212791
vt 0.625392 0.212791
vt 0.562696 0.212791
vt 0.811912 0.212791
vt 0.874608 0.212791
vt 0.937304 0.212791
vt 0.500000 0.212791
vt 0.749216 0.212791
vt 0.811912 0.406867
vt 0.874608 0.406867
vt 0.937304 0.406867
vt 0.500000 0.406867
vt 0.749216 0.406867
vt 0.188088 0.406867
vt 0.125392 0.406867
vt 0.062696 0.406867
vt 1.000000 0.406867
vt 0.000000 0.406867
vt 0.437304 0.406867
vt 0.374608 0.406867
vt 0.313480 0.406867
vt 0.250784 0.406867
vt 0.688088 0.406867
vt 0.625392 0.406867
vt 0.562696 0.406867
s 1
usemtl metal_barrel_hr_1
f 35/72/1 36/74/2 157/263/2 156/262/1
f 32/66/1 75/153/1 74/151/2 31/64/2
f 19/38/3 78/160/3 65/133/4 6/12/4
f 11/22/5 71/145/5 70/143/6 14/28/6
f 56/115/3 41/84/7 118/221/7 125/229/3
f 129/233/7 100/202/7 101/203/8 130/234/8
f 30/62/9 72/147/9 73/149/10 28/57/10
f 122/226/11 50/103/11 52/107/12 123/227/12
f 62/128/13 64/131/6 128/232/6 127/231/13
f 115/218/9 121/224/14 46/94/14 37/75/9
f 114/217/2 115/218/9 37/75/9 33/67/2
f 49/101/15 50/103/11 122/226/11 116/219/15
f 113/216/1 114/217/2 33/67/2 34/70/1
f 54/112/4 56/115/3 125/229/3 124/228/4
f 42/86/8 44/90/16 120/223/16 119/222/8
f 64/131/6 49/101/15 116/219/15 128/232/6
f 102/204/16 103/206/14 132/237/14 131/235/16
f 26/52/2 90/184/2 91/186/1 25/51/1
f 26/53/17 25/50/17 54/111/17 52/108/17
f 21/41/18 61/125/18 63/129/18 22/43/18
f 12/23/18 40/81/18 39/79/18 13/25/18
f 21/41/18 20/39/18 57/117/18 61/125/18
f 19/37/18 58/119/18 57/117/18 20/39/18
f 17/33/17 62/127/17 60/123/17 18/35/17
f 32/65/18 31/63/18 51/105/18 53/109/18
f 2/3/17 1/1/17 34/69/17 33/68/17
f 13/25/18 39/79/18 43/87/18 14/27/18
f 32/65/18 53/109/18 55/113/18 29/58/18
f 14/27/18 43/87/18 45/91/18 11/21/18
f 29/58/18 55/113/18 40/81/18 12/23/18
f 15/29/17 59/121/17 34/69/17 1/1/17
f 9/17/17 42/85/17 41/83/17 10/19/17
f 4/7/18 38/77/18 36/73/18 5/9/18
f 11/21/18 45/91/18 38/77/18 4/7/18
f 17/33/17 16/31/17 64/132/17 62/127/17
f 24/48/17 49/102/17 64/132/17 16/31/17
f 18/35/17 60/123/17 59/121/17 15/29/17
f 3/5/17 37/76/17 46/95/17 7/13/17
f 22/43/18 63/129/18 48/99/18 28/56/18
f 2/3/17 33/68/17 37/76/17 3/5/17
f 94/193/17 82/169/17 89/183/17 96/198/17
f 9/17/17 8/15/17 44/89/17 42/85/17
f 23/45/17 56/116/17 54/111/17 25/50/17
f 6/11/18 5/9/18 36/73/18 35/71/18
f 27/55/17 50/104/17 49/102/17 24/48/17
f 28/56/18 48/99/18 47/97/18 30/61/18
f 10/19/17 41/83/17 56/116/17 23/45/17
f 30/61/18 47/97/18 51/105/18 31/63/18
f 6/11/18 35/71/18 58/119/18 19/37/18
f 7/13/17 46/95/17 44/89/17 8/15/17
f 142/247/9 132/236/14 103/205/14 99/201/9
f 21/42/8 79/162/8 77/158/7 20/40/7
f 118/221/7 41/84/7 42/86/8 119/222/8
f 59/122/19 60/124/20 126/230/20 117/220/19
f 57/118/20 153/259/20 154/260/13 61/126/13
f 14/28/6 70/143/6 68/139/13 13/26/13
f 181/288/21 160/266/21 156/262/22 177/284/22
f 36/74/2 38/78/9 158/264/9 157/263/2
f 9/18/13 85/174/13 86/176/6 8/16/6
f 8/16/6 86/176/6 87/178/15 7/14/15
f 58/120/19 35/72/1 156/262/1 160/266/19
f 130/234/8 101/203/8 102/204/16 131/235/16
f 1/2/4 2/4/12 81/166/12 82/168/4
f 30/62/9 31/64/2 74/151/2 72/147/9
f 109/212/19 144/249/19 140/245/1 97/199/1
f 147/252/16 148/253/14 45/92/14 43/88/16
f 44/90/16 46/96/14 121/225/14 120/223/16
f 3/6/11 83/170/11 81/166/12 2/4/12
f 16/32/16 96/197/16 88/180/14 24/49/14
f 7/14/15 87/178/15 83/170/11 3/6/11
f 22/44/16 80/164/16 79/162/8 21/42/8
f 15/30/3 1/2/4 82/168/4 93/192/3
f 18/36/7 94/194/7 95/195/8 17/34/8
f 40/82/7 145/250/7 146/251/8 39/80/8
f 20/40/7 77/158/7 78/160/3 19/38/3
f 155/261/6 159/265/15 48/100/15 63/130/6
f 61/126/13 154/260/13 155/261/6 63/130/6
f 27/54/9 89/182/9 90/184/2 26/52/2
f 160/266/19 153/259/20 57/118/20 58/120/19
f 17/34/8 95/195/8 96/197/16 16/32/16
f 22/44/16 28/57/10 73/149/10 80/164/16
f 5/10/12 6/12/4 65/133/4 66/135/12
f 52/107/12 54/112/4 124/228/4 123/227/12
f 47/98/11 149/255/11 150/256/12 51/106/12
f 144/249/19 109/212/19 110/213/20 137/242/20
f 107/210/4 108/211/3 136/241/3 135/240/4
f 152/258/3 145/250/7 40/82/7 55/114/3
f 97/199/1 140/245/1 141/246/2 98/200/2
f 141/246/2 142/247/9 99/201/9 98/200/2
f 38/78/9 45/93/14 148/254/14 158/264/9
f 112/215/6 104/207/15 143/248/15 139/244/6
f 25/51/1 91/186/1 92/188/19 23/46/19
f 12/24/20 69/141/20 76/155/23 29/59/23
f 104/207/15 105/208/11 133/238/11 143/248/15
f 116/219/24 122/226/25 165/272/25 175/282/24
f 104/207/26 175/282/26 165/272/27 105/208/27
f 162/268/28 163/269/29 102/204/29 101/203/28
f 166/273/30 167/274/31 107/210/31 106/209/30
f 23/47/19 92/189/19 84/172/20 10/20/20
f 91/187/17 89/183/17 82/169/17 83/171/17
f 133/238/11 105/208/11 106/209/12 134/239/12
f 4/8/11 67/137/11 71/145/5 11/22/5
f 124/228/32 125/229/33 168/275/33 167/274/32
f 99/201/34 103/205/35 164/270/35 174/281/34
f 118/221/36 119/222/37 162/268/37 161/267/36
f 125/229/33 118/221/36 161/267/36 168/275/33
f 109/212/38 97/199/39 172/279/39 176/283/38
f 98/200/40 99/201/34 174/281/34 173/280/40
f 161/267/41 162/268/28 101/203/28 100/202/41
f 168/275/42 161/267/41 100/202/41 108/211/42
f 112/215/43 171/278/43 175/282/26 104/207/26
f 117/220/44 126/230/45 169/276/45 176/283/44
f 110/213/46 169/276/46 170/277/47 111/214/47
f 123/227/48 124/228/32 167/274/32 166/273/48
f 160/266/21 181/288/21 190/298/49 153/259/49
f 190/298/49 191/299/50 154/260/50 153/259/49
f 191/299/50 192/300/51 155/261/51 154/260/50
f 157/263/52 158/264/53 179/286/53 178/285/52
f 147/252/54 184/291/54 185/293/55 148/253/55
f 129/233/56 130/234/57 183/290/57 182/289/56
f 180/287/58 186/294/59 149/255/59 159/265/58
f 181/288/60 177/284/61 140/245/61 144/249/60
f 179/286/62 185/292/63 132/236/63 142/247/62
f 178/285/64 179/286/62 142/247/62 141/246/64
f 130/234/57 131/235/65 184/291/65 183/290/57
f 188/296/66 189/297/67 152/258/67 151/257/66
f 39/80/8 146/251/8 147/252/16 43/88/16
f 10/20/20 84/172/20 85/174/13 9/18/13
f 80/165/18 75/154/18 70/144/18 65/134/18
f 117/220/19 113/216/1 34/70/1 59/122/19
f 106/209/12 107/210/4 135/240/4 134/239/12
f 5/10/12 66/135/12 67/137/11 4/8/11
f 24/49/14 88/180/14 89/182/9 27/54/9
f 151/257/4 152/258/3 55/114/3 53/110/4
f 159/265/15 149/255/11 47/98/11 48/100/15
f 32/66/1 29/60/23 76/156/23 75/153/1
f 60/124/20 62/128/13 127/231/13 126/230/20
f 110/213/20 111/214/13 138/243/13 137/242/20
f 111/214/13 112/215/6 139/244/6 138/243/13
f 150/256/12 151/257/4 53/110/4 51/106/12
f 13/26/13 68/139/13 69/141/20 12/24/20
f 108/211/3 100/202/7 129/233/7 136/241/3
f 186/294/68 133/238/68 134/239/69 187/295/69
f 136/241/70 129/233/56 182/289/56 189/297/70
f 134/239/69 135/240/71 188/296/71 187/295/69
f 188/296/71 135/240/71 136/241/70 189/297/70
f 176/283/38 169/276/46 110/213/46 109/212/38
f 126/230/45 127/231/72 170/277/72 169/276/45
f 127/231/72 128/232/73 171/278/73 170/277/72
f 128/232/73 116/219/24 175/282/24 171/278/73
f 115/218/74 174/281/74 164/270/75 121/224/75
f 122/226/25 123/227/48 166/273/48 165/272/25
f 172/279/76 173/280/77 114/217/77 113/216/76
f 176/283/44 172/279/76 113/216/76 117/220/44
f 119/222/37 120/223/78 163/269/78 162/268/37
f 173/280/77 174/281/74 115/218/74 114/217/77
f 172/279/39 97/199/39 98/200/40 173/280/40
f 111/214/47 170/277/47 171/278/43 112/215/43
f 163/269/29 164/271/35 103/206/35 102/204/29
f 120/223/78 121/225/75 164/271/75 163/269/78
f 26/53/17 52/108/17 50/104/17 27/55/17
f 165/272/27 166/273/30 106/209/30 105/208/27
f 192/300/79 139/244/79 143/248/80 180/287/80
f 182/289/81 183/290/82 146/251/82 145/250/81
f 149/255/59 186/294/59 187/295/83 150/256/83
f 140/245/61 177/284/61 178/285/64 141/246/64
f 146/251/82 183/290/82 184/291/54 147/252/54
f 189/297/67 182/289/81 145/250/81 152/258/67
f 156/262/22 157/263/52 178/285/52 177/284/22
f 187/295/83 188/296/66 151/257/66 150/256/83
f 192/300/51 180/287/58 159/265/58 155/261/51
f 158/264/53 148/254/55 185/292/55 179/286/53
f 167/274/31 168/275/42 108/211/42 107/210/31
f 138/243/84 139/244/79 192/300/79 191/299/84
f 131/235/65 132/237/63 185/293/63 184/291/65
f 143/248/80 133/238/68 186/294/68 180/287/80
f 137/242/85 138/243/84 191/299/84 190/298/85
f 144/249/60 137/242/85 190/298/85 181/288/60
f 80/165/18 73/150/18 72/148/18
f 65/134/18 77/159/18 79/163/18 80/165/18
f 75/154/18 76/157/18 69/142/18
f 71/146/18 67/138/18 65/134/18 70/144/18
f 67/138/18 66/136/18 65/134/18
f 65/134/18 78/161/18 77/159/18
f 75/154/18 69/142/18 68/140/18 70/144/18
f 83/171/17 87/179/17 86/177/17
f 86/177/17 85/175/17 84/173/17
f 84/173/17 92/190/17 91/187/17
f 91/187/17 90/185/17 89/183/17
f 89/183/17 88/181/17 96/198/17
f 96/198/17 95/196/17 94/193/17
f 94/193/17 93/191/17 82/169/17
f 82/169/17 81/167/17 83/171/17
f 80/165/18 72/148/18 74/152/18 75/154/18
f 84/173/17 91/187/17 83/171/17 86/177/17
f 15/30/3 93/192/3 94/194/7 18/36/7
