# Blender 3.4.0
# www.blender.org
mtllib metal_barrel_hr_2.mtl
o metal_barrel_hr_2
v -0.174639 0.000000 0.262605
v -0.261840 0.000000 0.175783
v -0.309178 0.000000 0.062201
v -0.309178 1.000000 0.062201
v -0.261840 1.000000 0.175783
v -0.174639 1.000000 0.262605
v -0.309447 0.000000 -0.060851
v -0.262605 0.000000 -0.174639
v -0.175783 0.000000 -0.261840
v -0.062201 0.000000 -0.309178
v -0.309447 1.000000 -0.060851
v -0.062201 1.000000 -0.309178
v -0.175783 1.000000 -0.261840
v -0.262605 1.000000 -0.174639
v -0.060851 0.000000 0.309447
v 0.262605 0.000000 0.174639
v 0.175783 0.000000 0.261840
v 0.062201 0.000000 0.309178
v -0.060851 1.000000 0.309447
v 0.062201 1.000000 0.309178
v 0.175783 1.000000 0.261840
v 0.262605 1.000000 0.174639
v 0.060851 0.000000 -0.309447
v 0.309447 0.000000 0.060851
v 0.174639 0.000000 -0.262605
v 0.261840 0.000000 -0.175783
v 0.309178 0.000000 -0.062201
v 0.309447 1.000000 0.060851
v 0.060851 1.000000 -0.309447
v 0.309178 1.000000 -0.062201
v 0.261840 1.000000 -0.175783
v 0.174639 1.000000 -0.262605
v -0.273984 0.000000 0.183936
v -0.182739 0.000000 0.274784
v -0.182739 1.000000 0.274784
v -0.273984 1.000000 0.183936
v -0.323518 0.000000 0.065086
v -0.323518 1.000000 0.065086
v -0.183936 1.000000 -0.273984
v -0.065086 1.000000 -0.323518
v -0.065086 0.000000 -0.323518
v -0.183936 0.000000 -0.273984
v -0.274784 1.000000 -0.182739
v -0.274784 0.000000 -0.182739
v -0.323799 1.000000 -0.063674
v -0.323799 0.000000 -0.063674
v 0.323518 1.000000 -0.065086
v 0.323799 1.000000 0.063674
v 0.323799 0.000000 0.063674
v 0.323518 0.000000 -0.065086
v 0.273984 1.000000 -0.183936
v 0.273984 0.000000 -0.183936
v 0.182739 1.000000 -0.274784
v 0.182739 0.000000 -0.274784
v 0.063674 1.000000 -0.323799
v 0.063674 0.000000 -0.323799
v 0.065086 1.000000 0.323518
v -0.063674 1.000000 0.323799
v -0.063674 0.000000 0.323799
v 0.065086 0.000000 0.323518
v 0.183936 1.000000 0.273984
v 0.183936 0.000000 0.273984
v 0.274784 1.000000 0.182739
v 0.274784 0.000000 0.182739
v -0.174639 0.990000 0.262605
v -0.261840 0.990000 0.175783
v -0.309178 0.990000 0.062201
v -0.175783 0.990000 -0.261840
v -0.062201 0.990000 -0.309178
v -0.262605 0.990000 -0.174639
v -0.309447 0.990000 -0.060851
v 0.309178 0.990000 -0.062201
v 0.309447 0.990000 0.060851
v 0.261840 0.990000 -0.175783
v 0.174639 0.990000 -0.262605
v 0.060851 0.990000 -0.309447
v 0.062201 0.990000 0.309178
v -0.060851 0.990000 0.309447
v 0.175783 0.990000 0.261840
v 0.262605 0.990000 0.174639
v -0.261840 0.010000 0.175783
v -0.174639 0.010000 0.262605
v -0.309178 0.010000 0.062201
v -0.062201 0.010000 -0.309178
v -0.175783 0.010000 -0.261840
v -0.262605 0.010000 -0.174639
v -0.309447 0.010000 -0.060851
v 0.309447 0.010000 0.060851
v 0.309178 0.010000 -0.062201
v 0.261840 0.010000 -0.175783
v 0.174639 0.010000 -0.262605
v 0.060851 0.010000 -0.309447
v -0.060851 0.010000 0.309447
v 0.062201 0.010000 0.309178
v 0.175783 0.010000 0.261840
v 0.262605 0.010000 0.174639
v -0.182739 0.377119 0.274784
v -0.273984 0.377119 0.183936
v -0.323518 0.377119 0.065086
v -0.065086 0.377119 -0.323518
v -0.183936 0.377119 -0.273984
v -0.274784 0.377119 -0.182739
v -0.323799 0.377119 -0.063674
v 0.323799 0.377119 0.063674
v 0.323518 0.377119 -0.065086
v 0.273984 0.377119 -0.183936
v 0.182739 0.377119 -0.274784
v 0.063674 0.377119 -0.323799
v -0.063674 0.377119 0.323799
v 0.065086 0.377119 0.323518
v 0.183936 0.377119 0.273984
v 0.274784 0.377119 0.182739
v -0.182739 0.332627 0.274784
v -0.273984 0.332627 0.183936
v -0.323518 0.332627 0.065086
v 0.323799 0.332627 0.063674
v -0.063674 0.332627 0.323799
v -0.065086 0.332627 -0.323518
v -0.183936 0.332627 -0.273984
v -0.274784 0.332627 -0.182739
v -0.323799 0.332627 -0.063674
v 0.323518 0.332627 -0.065086
v 0.273984 0.332627 -0.183936
v 0.182739 0.332627 -0.274784
v 0.063674 0.332627 -0.323799
v 0.065086 0.332627 0.323518
v 0.183936 0.332627 0.273984
v 0.274784 0.332627 0.182739
v -0.065086 0.643163 -0.323518
v -0.183936 0.643163 -0.273984
v -0.274784 0.643163 -0.182739
v -0.323799 0.643163 -0.063674
v 0.323518 0.643163 -0.065086
v 0.273984 0.643163 -0.183936
v 0.182739 0.643163 -0.274784
v 0.063674 0.643163 -0.323799
v 0.065086 0.643163 0.323518
v 0.183936 0.643163 0.273984
v 0.274784 0.643163 0.182739
v -0.182739 0.643163 0.274784
v -0.273984 0.643163 0.183936
v -0.323518 0.643163 0.065086
v 0.323799 0.643163 0.063674
v -0.063674 0.643163 0.323799
v -0.065086 0.688559 -0.323518
v -0.183936 0.688559 -0.273984
v -0.274784 0.688559 -0.182739
v -0.323799 0.688559 -0.063674
v 0.323518 0.688559 -0.065086
v 0.273984 0.688559 -0.183936
v 0.182739 0.688559 -0.274784
v 0.063674 0.688559 -0.323799
v 0.065086 0.688559 0.323518
v 0.183936 0.688559 0.273984
v 0.274784 0.688559 0.182739
v -0.182739 0.688559 0.274784
v -0.273984 0.688559 0.183936
v -0.323518 0.688559 0.065086
v 0.323799 0.688559 0.063674
v -0.063674 0.688559 0.323799
v -0.067689 0.354873 -0.336459
v -0.191294 0.354873 -0.284944
v -0.285776 0.354873 -0.190049
v -0.336751 0.354873 -0.066220
v 0.336459 0.354873 -0.067689
v 0.284944 0.354873 -0.191294
v 0.190049 0.354873 -0.285776
v 0.066220 0.354873 -0.336751
v 0.067689 0.354873 0.336459
v 0.191294 0.354873 0.284944
v 0.285776 0.354873 0.190049
v -0.190049 0.354873 0.285776
v -0.284944 0.354873 0.191294
v -0.336459 0.354873 0.067689
v 0.336751 0.354873 0.066220
v -0.066220 0.354873 0.336751
v -0.190049 0.665861 0.285776
v -0.284944 0.665861 0.191294
v -0.336459 0.665861 0.067689
v 0.336751 0.665861 0.066220
v -0.066220 0.665861 0.336751
v -0.067689 0.665861 -0.336459
v -0.191294 0.665861 -0.284944
v -0.285776 0.665861 -0.190049
v -0.336751 0.665861 -0.066220
v 0.336459 0.665861 -0.067689
v 0.284944 0.665861 -0.191294
v 0.190049 0.665861 -0.285776
v 0.066220 0.665861 -0.336751
v 0.067689 0.665861 0.336459
v 0.191294 0.665861 0.284944
v 0.285776 0.665861 0.190049
vn 0.8303 -0.0000 -0.5574
vn 0.5538 -0.0000 -0.8327
vn -0.1929 -0.0000 0.9812
vn -0.5538 -0.0000 0.8327
vn 0.8327 -0.0000 0.5538
vn 0.5574 -0.0000 0.8303
vn 0.9804 -0.0000 -0.1972
vn 0.1972 -0.0000 0.9804
vn -0.1930 -0.0000 0.9812
vn -0.9812 -0.0000 -0.1930
vn -0.8327 -0.0000 -0.5538
vn -0.9804 -0.0000 0.1972
vn -0.8303 -0.0000 0.5574
vn -0.9812 -0.0000 -0.1929
vn -0.5574 -0.0000 -0.8303
vn -0.1972 -0.0000 -0.9804
vn -0.0000 -1.0000 -0.0000
vn 0.1930 -0.0000 -0.9812
vn 0.9812 -0.0000 0.1930
vn -0.0000 1.0000 -0.0000
vn 0.9812 -0.0000 0.1929
vn 0.1668 -0.5027 -0.8482
vn 0.4787 -0.5027 -0.7198
vn -0.1696 0.5103 -0.8431
vn 0.1659 0.5103 -0.8438
vn -0.8438 -0.5103 -0.1659
vn -0.8431 -0.5103 0.1696
vn 0.8431 -0.5103 -0.1696
vn 0.8438 -0.5103 0.1659
vn 0.1659 -0.5103 -0.8438
vn 0.4762 -0.5103 -0.7161
vn -0.4762 0.5103 0.7161
vn -0.1659 0.5103 0.8438
vn -0.7140 0.5103 0.4793
vn -0.4793 -0.5103 -0.7140
vn -0.1696 -0.5103 -0.8431
vn 0.7140 -0.5103 -0.4793
vn 0.4762 0.5103 -0.7161
vn 0.7140 0.5103 -0.4793
vn 0.8431 0.5103 -0.1696
vn 0.8438 0.5103 0.1659
vn -0.8438 0.5103 -0.1659
vn -0.8431 0.5103 0.1696
vn 0.7161 0.5103 0.4762
vn 0.4793 0.5103 0.7140
vn 0.1696 0.5103 0.8431
vn 0.1696 -0.5103 0.8431
vn -0.1659 -0.5103 0.8438
vn 0.4787 0.5027 -0.7198
vn 0.7177 0.5027 -0.4818
vn 0.7198 -0.5027 0.4787
vn 0.4818 -0.5027 0.7177
vn -0.7177 -0.5027 0.4818
vn -0.4787 -0.5027 0.7198
vn 0.1705 0.5027 0.8475
vn -0.1668 0.5027 0.8482
vn -0.8482 -0.5027 -0.1668
vn -0.7198 -0.5027 -0.4787
vn 0.7177 -0.5027 -0.4818
vn 0.8475 0.5027 -0.1705
vn 0.8482 0.5027 0.1668
vn -0.4787 0.5027 0.7198
vn -0.8475 -0.5027 0.1705
vn -0.4818 0.5027 -0.7177
vn -0.1705 0.5027 -0.8475
vn -0.4818 -0.5027 -0.7177
vn -0.8475 0.5027 0.1705
vn -0.7177 0.5027 0.4818
vn 0.4818 0.5027 0.7177
vn -0.1705 -0.5027 -0.8475
vn 0.8475 -0.5027 -0.1705
vn 0.1668 0.5027 -0.8482
vn 0.4793 -0.5103 0.7140
vn 0.7161 -0.5103 0.4762
vn -0.4793 0.5103 -0.7140
vn -0.7140 -0.5103 0.4793
vn -0.4762 -0.5103 0.7161
vn -0.7161 -0.5103 -0.4762
vn -0.7161 0.5103 -0.4762
vn 0.7198 0.5027 0.4787
vn 0.1705 -0.5027 0.8475
vn -0.7198 0.5027 -0.4787
vn 0.8482 -0.5027 0.1668
vn -0.1668 -0.5027 0.8482
vn -0.8482 0.5027 -0.1668
vt 0.573302 0.646192
vt 0.562500 0.429282
vt 0.625000 0.429282
vt 0.631482 0.672076
vt 0.676011 0.719903
vt 0.687500 0.429282
vt 0.262703 0.960348
vt 0.687500 0.418375
vt 0.204523 0.986232
vt 0.625000 0.418374
vt 0.141549 0.986232
vt 0.562500 0.418375
vt 0.700110 0.782393
vt 0.750000 0.429282
vt 0.700110 0.850031
vt 0.812500 0.429282
vt 0.676011 0.912520
vt 0.875000 0.429282
vt 0.631482 0.960348
vt 0.937500 0.429282
vt 0.307232 0.912521
vt 0.750000 0.418374
vt 0.307232 0.719903
vt 0.937500 0.418374
vt 0.331331 0.782393
vt 0.875000 0.418374
vt 0.331330 0.850031
vt 0.812500 0.418374
vt 0.510329 0.646192
vt 0.500000 0.429282
vt 0.383521 0.782393
vt 0.312500 0.429282
vt 0.407620 0.719903
vt 0.375000 0.429282
vt 0.452149 0.672076
vt 0.437500 0.429282
vt 0.083369 0.960348
vt 0.500000 0.418375
vt 0.038840 0.912521
vt 0.437500 0.418374
vt 0.014741 0.850031
vt 0.375000 0.418375
vt 0.014741 0.782393
vt 0.312500 0.418374
vt 0.573302 0.986232
vt 1.000000 0.429282
vt 0.000000 0.429282
vt 0.383521 0.850031
vt 0.250000 0.429282
vt 0.510329 0.986232
vt 0.062500 0.429282
vt 0.125000 0.429282
vt 0.452149 0.960348
vt 0.187500 0.429282
vt 0.407620 0.912520
vt 0.038840 0.719903
vt 0.250000 0.418374
vt 0.000000 0.418374
vt 0.262703 0.672076
vt 1.000000 0.418374
vt 0.083369 0.672076
vt 0.187500 0.418374
vt 0.141549 0.646192
vt 0.125000 0.418374
vt 0.204523 0.646192
vt 0.062500 0.418374
vt 0.635641 0.665390
vt 0.874608 0.632997
vt 0.574763 0.638306
vt 0.811912 0.632997
vt 0.140089 0.994118
vt 0.811912 0.000000
vt 0.205983 0.994118
vt 0.874608 0.000000
vt 0.937304 0.632997
vt 0.682235 0.715436
vt 0.266861 0.967033
vt 0.937304 0.000000
vt 0.338672 0.780824
vt 0.125392 0.000000
vt 0.313456 0.715436
vt 0.188088 0.000000
vt 0.635641 0.967033
vt 0.188088 0.632997
vt 0.682235 0.916987
vt 0.125392 0.632997
vt 0.338672 0.851600
vt 0.062696 0.000000
vt 0.707452 0.851600
vt 0.062696 0.632997
vt 0.000000 0.000000
vt 0.313456 0.916987
vt 1.000000 0.000000
vt 1.000000 0.632997
vt 0.000000 0.632997
vt 0.707452 0.780824
vt 0.079210 0.665391
vt 0.437304 0.000000
vt 0.032616 0.715436
vt 0.500000 0.000000
vt 0.376179 0.851600
vt 0.500000 0.632997
vt 0.437304 0.632997
vt 0.401396 0.916987
vt 0.140089 0.638306
vt 0.374608 0.000000
vt 0.374608 0.632997
vt 0.447990 0.967033
vt 0.205983 0.638306
vt 0.313480 0.000000
vt 0.508868 0.994118
vt 0.313480 0.632997
vt 0.266861 0.665391
vt 0.250784 0.000000
vt 0.574763 0.994118
vt 0.250784 0.632997
vt 0.032616 0.916987
vt 0.688088 0.000000
vt 0.079210 0.967033
vt 0.749216 0.000000
vt 0.508868 0.638306
vt 0.749216 0.632997
vt 0.447990 0.665391
vt 0.688088 0.632997
vt 0.007399 0.851600
vt 0.625392 0.000000
vt 0.401396 0.715436
vt 0.625392 0.632997
vt 0.007399 0.780824
vt 0.562696 0.000000
vt 0.376179 0.780824
vt 0.562696 0.632997
vt 0.562500 0.412921
vt 0.141549 0.986232
vt 0.204523 0.986232
vt 0.625000 0.412921
vt 0.262703 0.960348
vt 0.687500 0.412921
vt 0.331331 0.782393
vt 0.875000 0.412921
vt 0.307232 0.719903
vt 0.937500 0.412921
vt 0.812500 0.412921
vt 0.331330 0.850031
vt 0.307232 0.912521
vt 0.750000 0.412921
vt 0.083369 0.672076
vt 0.187500 0.412921
vt 0.038840 0.719903
vt 0.250000 0.412921
vt 0.141549 0.646192
vt 0.125000 0.412921
vt 0.204523 0.646192
vt 0.062500 0.412921
vt 0.000000 0.412921
vt 0.262703 0.672076
vt 1.000000 0.412921
vt 0.038840 0.912521
vt 0.437500 0.412921
vt 0.083369 0.960348
vt 0.500000 0.412921
vt 0.014741 0.850031
vt 0.375000 0.412921
vt 0.312500 0.412921
vt 0.014741 0.782393
vt 0.625000 0.434735
vt 0.631482 0.672076
vt 0.573302 0.646192
vt 0.562500 0.434735
vt 0.676011 0.719903
vt 0.687500 0.434735
vt 0.631482 0.960348
vt 0.937500 0.434735
vt 0.676011 0.912520
vt 0.875000 0.434735
vt 0.700110 0.850031
vt 0.812500 0.434735
vt 0.700110 0.782393
vt 0.750000 0.434735
vt 0.383521 0.850031
vt 0.250000 0.434735
vt 0.407620 0.912520
vt 0.187500 0.434735
vt 0.452149 0.960348
vt 0.125000 0.434735
vt 0.510329 0.986232
vt 0.062500 0.434735
vt 1.000000 0.434735
vt 0.573302 0.986232
vt 0.000000 0.434735
vt 0.510329 0.646192
vt 0.500000 0.434735
vt 0.452149 0.672076
vt 0.437500 0.434735
vt 0.407620 0.719903
vt 0.375000 0.434735
vt 0.383521 0.782393
vt 0.312500 0.434735
vt 0.811912 0.394282
vt 0.874608 0.394282
vt 0.937304 0.394282
vt 0.188088 0.394282
vt 0.125392 0.394282
vt 0.062696 0.394282
vt 1.000000 0.394282
vt 0.000000 0.394282
vt 0.500000 0.394282
vt 0.437304 0.394282
vt 0.374608 0.394282
vt 0.313480 0.394282
vt 0.250784 0.394282
vt 0.749216 0.394282
vt 0.688088 0.394282
vt 0.625392 0.394282
vt 0.562696 0.394282
vt 0.811912 0.422445
vt 0.874608 0.422445
vt 0.937304 0.422445
vt 0.500000 0.422445
vt 0.749216 0.422445
vt 0.188088 0.422445
vt 0.125392 0.422445
vt 0.062696 0.422445
vt 1.000000 0.422445
vt 0.000000 0.422445
vt 0.437304 0.422445
vt 0.374608 0.422445
vt 0.313480 0.422445
vt 0.250784 0.422445
vt 0.688088 0.422445
vt 0.625392 0.422445
vt 0.562696 0.422445
vt 0.188088 0.225877
vt 0.125392 0.225877
vt 0.062696 0.225877
vt 0.000000 0.225877
vt 1.000000 0.225877
vt 0.437304 0.225877
vt 0.374608 0.225877
vt 0.313480 0.225877
vt 0.250784 0.225877
vt 0.688088 0.225877
vt 0.625392 0.225877
vt 0.562696 0.225877
vt 0.811912 0.225877
vt 0.874608 0.225877
vt 0.937304 0.225877
vt 0.500000 0.225877
vt 0.749216 0.225877
vt 0.188088 0.197141
vt 0.125392 0.197141
vt 0.062696 0.197141
vt 0.000000 0.197141
vt 1.000000 0.197141
vt 0.437304 0.197141
vt 0.374608 0.197141
vt 0.313480 0.197141
vt 0.250784 0.197141
vt 0.688088 0.197141
vt 0.625392 0.197141
vt 0.562696 0.197141
vt 0.811912 0.197141
vt 0.874608 0.197141
vt 0.937304 0.197141
vt 0.500000 0.197141
vt 0.749216 0.197141
vt 0.188088 0.408363
vt 0.125392 0.408363
vt 0.062696 0.408363
vt 1.000000 0.408363
vt 0.000000 0.408363
vt 0.437304 0.408363
vt 0.374608 0.408363
vt 0.313480 0.408363
vt 0.250784 0.408363
vt 0.688088 0.408363
vt 0.625392 0.408363
vt 0.562696 0.408363
vt 0.811912 0.408363
vt 0.874608 0.408363
vt 0.937304 0.408363
vt 0.500000 0.408363
vt 0.749216 0.408363
vt 0.811912 0.211509
vt 0.874608 0.211509
vt 0.937304 0.211509
vt 0.500000 0.211509
vt 0.749216 0.211509
vt 0.188088 0.211509
vt 0.125392 0.211509
vt 0.062696 0.211509
vt 0.000000 0.211509
vt 1.000000 0.211509
vt 0.437304 0.211509
vt 0.374608 0.211509
vt 0.313480 0.211509
vt 0.250784 0.211509
vt 0.688088 0.211509
vt 0.625392 0.211509
vt 0.562696 0.211509
s 1
usemtl metal_barrel_hr_2
f 81/166/1 82/169/2 1/2/2 2/3/1
f 76/155/3 75/154/4 32/66/4 29/58/3
f 155/261/5 63/130/5 61/126/6 154/260/6
f 81/166/1 2/3/1 3/6/7 83/171/7
f 110/213/8 137/242/8 144/249/9 109/212/9
f 126/230/8 117/220/9 59/122/9 60/124/8
f 45/91/10 43/88/11 147/252/11 148/253/10
f 37/75/12 33/68/13 114/217/13 115/218/12
f 132/236/10 131/235/11 102/204/11 103/206/10
f 73/150/14 28/57/14 30/62/12 72/148/12
f 42/86/15 119/222/15 118/221/16 41/84/16
f 46/94/10 37/75/12 115/218/12 121/224/10
f 82/168/17 83/170/17 91/186/17 89/182/17
f 125/229/18 124/228/2 54/112/2 56/116/18
f 146/251/15 39/80/15 40/82/16 145/250/16
f 116/219/19 128/232/5 64/132/5 49/102/19
f 121/225/10 120/223/11 44/90/11 46/95/10
f 91/187/4 25/51/4 26/52/13 90/185/13
f 55/113/20 29/59/20 32/65/20 53/109/20
f 84/172/17 91/186/17 83/170/17 86/176/17
f 60/123/17 18/35/17 17/33/17 62/127/17
f 57/117/20 61/125/20 21/41/20 20/39/20
f 57/117/20 20/39/20 19/37/20 58/119/20
f 39/79/20 13/25/20 12/23/20 40/81/20
f 51/105/20 53/109/20 32/65/20 31/63/20
f 34/69/17 33/67/17 2/4/17 1/1/17
f 43/87/20 14/27/20 13/25/20 39/79/20
f 54/111/17 25/50/17 23/45/17 56/115/17
f 45/92/20 11/21/20 14/27/20 43/87/20
f 46/96/17 7/13/17 3/5/17 37/76/17
f 64/131/17 16/31/17 24/48/17 49/101/17
f 37/76/17 3/5/17 2/4/17 33/67/17
f 36/73/20 5/9/20 4/7/20 38/77/20
f 64/131/17 62/127/17 17/33/17 16/31/17
f 38/77/20 4/7/20 11/21/20 45/92/20
f 54/111/17 52/108/17 26/53/17 25/50/17
f 59/121/17 15/29/17 18/35/17 60/123/17
f 40/81/20 12/23/20 29/59/20 55/113/20
f 48/99/20 28/56/20 22/43/20 63/129/20
f 41/83/17 10/19/17 9/17/17 42/85/17
f 36/73/20 35/71/20 6/11/20 5/9/20
f 44/89/17 42/85/17 9/17/17 8/15/17
f 44/89/17 8/15/17 7/13/17 46/96/17
f 63/129/20 22/43/20 21/41/20 61/125/20
f 51/105/20 31/63/20 30/61/20 47/97/20
f 47/97/20 30/61/20 28/56/20 48/99/20
f 56/115/17 23/45/17 10/19/17 41/83/17
f 49/101/17 24/48/17 27/55/17 50/104/17
f 58/119/20 19/37/20 6/11/20 35/71/20
f 34/69/17 1/1/17 15/29/17 59/121/17
f 80/165/20 73/149/20 72/147/20
f 65/134/20 77/158/20 79/162/20 80/165/20
f 75/153/20 76/156/20 69/141/20
f 71/145/20 67/137/20 65/134/20 70/144/20
f 67/137/20 66/135/20 65/134/20
f 65/134/20 78/160/20 77/158/20
f 75/153/20 69/141/20 68/139/20 70/144/20
f 103/205/10 99/201/12 142/247/12 132/237/10
f 77/159/16 20/40/16 21/42/15 79/163/15
f 69/142/8 12/24/8 13/26/6 68/140/6
f 140/245/4 97/199/4 109/212/9 144/249/9
f 154/260/6 61/126/6 57/118/8 153/259/8
f 68/140/6 13/26/6 14/28/5 70/143/5
f 70/143/5 14/28/5 11/22/21 71/146/21
f 158/264/12 157/263/13 36/74/13 38/78/12
f 136/241/22 189/297/22 188/296/23 135/240/23
f 79/163/15 21/42/15 22/44/11 80/164/11
f 147/252/11 43/88/11 39/80/15 146/251/15
f 71/146/21 11/22/21 4/8/7 67/138/7
f 135/240/2 134/239/1 106/209/1 107/210/2
f 87/179/19 7/14/19 8/16/5 86/177/5
f 84/173/8 10/20/8 23/46/9 92/188/9
f 139/244/5 138/243/6 111/214/6 112/215/5
f 83/170/17 87/178/17 86/176/17
f 86/176/17 85/174/17 84/172/17
f 84/172/17 92/189/17 91/186/17
f 91/186/17 90/184/17 89/182/17
f 89/182/17 88/180/17 96/197/17
f 96/197/17 95/195/17 94/193/17
f 94/193/17 93/191/17 82/168/17
f 82/168/17 81/167/17 83/170/17
f 94/193/17 82/168/17 89/182/17 96/197/17
f 33/68/13 34/70/4 113/216/4 114/217/13
f 80/165/20 72/147/20 74/151/20 75/153/20
f 74/152/13 72/148/12 30/62/12 31/64/13
f 88/181/10 24/49/10 16/32/11 96/198/11
f 150/256/1 51/106/1 47/98/7 149/255/7
f 86/177/5 8/16/5 9/18/6 85/175/6
f 85/175/6 9/18/6 10/20/8 84/173/8
f 102/204/11 131/235/11 130/234/15 101/203/15
f 90/185/13 26/52/13 27/54/12 89/183/12
f 34/70/4 59/122/9 117/220/9 113/216/4
f 89/183/12 27/54/12 24/49/10 88/181/10
f 157/263/13 156/262/4 35/72/4 36/74/13
f 83/171/7 3/6/7 7/14/19 87/179/19
f 40/82/16 55/114/18 152/258/18 145/250/16
f 96/198/11 16/32/11 17/34/15 95/196/15
f 73/150/14 80/164/11 22/44/11 28/57/14
f 65/133/2 66/136/1 5/10/1 6/12/2
f 124/228/2 123/227/1 52/107/1 54/112/2
f 106/209/1 134/239/1 133/238/7 105/208/7
f 118/221/16 125/229/18 56/116/18 41/84/16
f 138/243/6 137/242/8 110/213/8 111/214/6
f 148/254/10 158/264/12 38/78/12 45/93/10
f 48/100/19 63/130/5 155/261/5 159/265/19
f 120/223/11 119/222/15 42/86/15 44/90/11
f 136/241/18 135/240/2 107/210/2 108/211/18
f 143/248/19 139/244/5 112/215/5 104/207/19
f 127/231/6 126/230/8 60/124/8 62/128/6
f 76/157/3 29/60/3 12/24/8 69/142/8
f 101/203/15 130/234/15 129/233/16 100/202/16
f 100/202/24 108/211/25 168/275/25 161/267/24
f 164/270/26 121/224/26 115/218/27 174/281/27
f 165/272/28 175/282/29 116/219/29 122/226/28
f 168/275/30 167/274/31 124/228/31 125/229/30
f 129/233/16 136/241/18 108/211/18 100/202/16
f 128/232/5 127/231/6 62/128/6 64/132/5
f 52/107/1 123/227/1 122/226/7 50/103/7
f 122/226/7 116/219/19 49/102/19 50/103/7
f 172/279/32 176/283/33 109/212/33 97/199/32
f 98/200/34 173/280/34 172/279/32 97/199/32
f 162/268/35 161/267/36 118/221/36 119/222/35
f 167/274/31 166/273/37 123/227/37 124/228/31
f 107/210/38 106/209/39 166/273/39 167/274/38
f 166/273/37 165/272/28 122/226/28 123/227/37
f 165/272/40 105/208/40 104/207/41 175/282/41
f 164/270/42 174/281/43 99/201/43 103/205/42
f 175/282/41 104/207/41 112/215/44 171/278/44
f 161/267/36 168/275/30 125/229/30 118/221/36
f 170/277/45 111/214/45 110/213/46 169/276/46
f 169/276/47 176/283/48 117/220/48 126/230/47
f 151/257/49 150/256/50 187/295/50 188/296/49
f 192/300/51 191/299/52 138/243/52 139/244/51
f 178/285/53 141/246/53 140/245/54 177/284/54
f 190/298/55 153/259/55 160/266/56 181/288/56
f 185/292/57 184/291/58 131/235/58 132/236/57
f 188/296/23 187/295/59 134/239/59 135/240/23
f 149/255/60 159/265/61 180/287/61 186/294/60
f 156/262/62 177/284/62 181/288/56 160/266/56
f 132/237/57 142/247/63 179/286/63 185/293/57
f 146/251/64 145/250/65 182/289/65 183/290/64
f 184/291/58 183/290/66 130/234/66 131/235/58
f 179/286/67 178/285/68 157/263/68 158/264/67
f 53/110/2 51/106/1 150/256/1 151/257/2
f 141/246/13 98/200/13 97/199/4 140/245/4
f 65/133/2 6/12/2 19/38/18 78/161/18
f 57/118/8 58/120/9 160/266/9 153/259/8
f 70/144/20 65/134/20 80/165/20 75/153/20
f 67/138/7 4/8/7 5/10/1 66/136/1
f 95/196/15 17/34/15 18/36/16 94/194/16
f 55/114/18 53/110/2 151/257/2 152/258/18
f 47/98/7 48/100/19 159/265/19 149/255/7
f 156/262/4 160/266/9 58/120/9 35/72/4
f 92/190/9 23/47/9 25/51/4 91/187/4
f 78/161/18 19/38/18 20/40/16 77/159/16
f 82/169/2 93/192/18 15/30/18 1/2/2
f 74/152/13 31/64/13 32/66/4 75/154/4
f 99/201/12 98/200/13 141/246/13 142/247/12
f 133/238/7 143/248/19 104/207/19 105/208/7
f 154/260/69 153/259/55 190/298/55 191/299/69
f 182/289/70 189/297/22 136/241/22 129/233/70
f 134/239/59 187/295/59 186/294/71 133/238/71
f 152/258/72 151/257/49 188/296/49 189/297/72
f 110/213/46 109/212/33 176/283/33 169/276/46
f 170/277/73 169/276/47 126/230/47 127/231/73
f 171/278/74 170/277/73 127/231/73 128/232/74
f 175/282/29 171/278/74 128/232/74 116/219/29
f 174/281/43 173/280/34 98/200/34 99/201/43
f 101/203/75 100/202/24 161/267/24 162/268/75
f 114/217/76 113/216/77 172/279/77 173/280/76
f 113/216/77 117/220/48 176/283/48 172/279/77
f 163/269/78 162/268/35 119/222/35 120/223/78
f 115/218/27 114/217/76 173/280/76 174/281/27
f 102/204/79 101/203/75 162/268/75 163/269/79
f 171/278/44 112/215/44 111/214/45 170/277/45
f 103/206/42 102/204/79 163/269/79 164/271/42
f 164/271/26 163/269/78 120/223/78 121/225/26
f 50/104/17 27/55/17 26/53/17 52/108/17
f 106/209/39 105/208/40 165/272/40 166/273/39
f 159/265/61 155/261/80 192/300/80 180/287/61
f 155/261/80 154/260/69 191/299/69 192/300/80
f 187/295/50 150/256/50 149/255/60 186/294/60
f 191/299/52 190/298/81 137/242/81 138/243/52
f 184/291/82 147/252/82 146/251/64 183/290/64
f 145/250/65 152/258/72 189/297/72 182/289/65
f 178/285/68 177/284/62 156/262/62 157/263/68
f 143/248/83 180/287/83 192/300/51 139/244/51
f 140/245/54 144/249/84 181/288/84 177/284/54
f 185/292/85 148/253/85 147/252/82 184/291/82
f 108/211/25 107/210/38 167/274/38 168/275/25
f 183/290/66 182/289/70 129/233/70 130/234/66
f 185/293/85 179/286/67 158/264/67 148/254/85
f 186/294/71 180/287/83 143/248/83 133/238/71
f 142/247/63 141/246/53 178/285/53 179/286/63
f 190/298/81 181/288/84 144/249/84 137/242/81
f 94/194/16 18/36/16 15/30/18 93/192/18
