# Blender 3.4.0
# www.blender.org
mtllib old_mattress_mx_1.mtl
o old_mattress_mx_1
v -1.200000 -0.000002 0.650000
v -1.300000 -0.000002 0.550000
v -1.250000 -0.000002 0.636603
v -1.286603 -0.000002 0.600000
v -1.300000 0.199998 0.550001
v -1.200000 0.199998 0.650001
v -1.286603 0.199998 0.600001
v -1.250000 0.199998 0.636603
v -1.300000 0.000002 -0.550000
v -1.200000 0.000002 -0.650000
v -1.286603 0.000002 -0.600000
v -1.250000 0.000002 -0.636603
v -1.200000 0.200002 -0.649999
v -1.300000 0.200002 -0.549999
v -1.250000 0.200002 -0.636602
v -1.286603 0.200002 -0.599999
v 1.300000 -0.000002 0.540000
v 1.200000 -0.000002 0.640000
v 1.286602 -0.000002 0.590000
v 1.250000 -0.000002 0.626603
v 1.200000 0.199998 0.640001
v 1.300000 0.199998 0.540001
v 1.250000 0.199998 0.626603
v 1.286602 0.199998 0.590001
v 1.200000 0.000002 -0.660000
v 1.300000 0.000002 -0.560000
v 1.250000 0.000002 -0.646603
v 1.286602 0.000002 -0.610000
v 1.300000 0.200002 -0.559999
v 1.200000 0.200002 -0.659999
v 1.286602 0.200002 -0.609999
v 1.250000 0.200002 -0.646602
v -1.210000 0.028569 0.660000
v -1.260000 0.171426 0.646603
v -1.260000 0.028569 0.646603
v -1.296603 0.028569 0.610000
v -1.310000 0.171427 0.560001
v -1.310000 0.028569 0.560000
v -1.210000 0.028574 -0.660000
v -1.260000 0.028574 -0.646602
v -1.296603 0.028574 -0.610000
v -1.310000 0.028573 -0.560000
v 1.296602 0.028574 -0.620000
v 1.260000 0.028574 -0.656602
v 1.210000 0.028574 -0.670000
v 1.210000 0.028569 0.650000
v 1.260000 0.171426 0.636603
v 1.296602 0.028569 0.600000
v 1.310000 0.028569 0.550000
v 1.310000 0.171427 0.550001
v 1.301511 0.099998 0.541512
v 1.296240 0.170134 0.599639
v 1.288106 0.099998 0.591504
v 1.259638 0.029862 0.636241
v 1.251503 0.099998 0.628107
v 1.209651 0.170186 -0.669651
v 1.201511 0.100002 -0.661511
v 1.259638 0.170138 -0.656240
v 1.251503 0.100002 -0.648106
v 1.296240 0.170138 -0.619637
v 1.288106 0.100002 -0.611503
v -1.309651 0.170185 -0.559651
v -1.301512 0.100002 -0.551511
v -1.296241 0.170138 -0.609637
v -1.288106 0.100002 -0.601503
v -1.259638 0.170138 -0.646240
v -1.251504 0.100002 -0.638106
v -1.209651 0.170181 0.659652
v -1.201512 0.099998 0.651512
v 1.209651 0.170181 0.649652
v 1.201511 0.099998 0.641512
v 1.309651 0.029819 -0.569651
v 1.309651 0.170185 -0.569651
v 1.301511 0.100002 -0.561511
v -1.209651 0.170186 -0.659651
v -1.201512 0.100002 -0.651511
v -1.301512 0.099998 0.551512
v -1.296241 0.170134 0.609639
v -1.288106 0.099998 0.601504
v -1.251504 0.099998 0.638107
v 0.722540 -0.000002 0.650000
v 0.240848 -0.000002 0.660000
v -0.240847 -0.000002 0.670000
v -0.722539 -0.000002 0.660000
v 0.722540 0.179998 0.650001
v 0.240848 0.179998 0.660001
v -0.240847 0.169998 0.670001
v -0.722539 0.179998 0.660001
v 0.722540 0.028569 0.660000
v 0.240848 0.028569 0.670000
v -0.240847 0.028569 0.680000
v -0.722539 0.028569 0.670000
v 0.722540 0.150181 0.659652
v 0.240848 0.150181 0.669652
v -0.240847 0.140181 0.679652
v -0.722539 0.150181 0.669652
v -0.722539 0.099998 0.661512
v -0.240847 0.079998 0.671512
v 0.240848 0.099998 0.661512
v 0.722540 0.089998 0.651512
v -0.722539 0.000002 -0.640000
v -0.240847 0.000002 -0.630000
v 0.240848 0.000002 -0.640000
v 0.722540 0.000002 -0.650000
v 0.722540 0.180002 -0.649999
v 0.240848 0.180002 -0.639999
v -0.240847 0.170002 -0.629999
v -0.722539 0.180002 -0.639999
v -0.722539 0.028574 -0.650000
v -0.240847 0.028574 -0.640000
v 0.240848 0.028574 -0.650000
v 0.722540 0.028574 -0.660000
v -0.722539 0.150186 -0.649651
v -0.240847 0.140186 -0.639651
v 0.240848 0.150186 -0.649651
v 0.722540 0.150186 -0.659651
v 0.722540 0.090002 -0.651511
v 0.240848 0.100002 -0.641511
v -0.240847 0.080002 -0.631511
v -0.722539 0.100002 -0.641511
v 1.200000 0.199998 0.540385
v 0.722540 0.179998 0.541389
v 0.240848 0.179998 0.542409
v -0.240847 0.169998 0.545094
v -0.722539 0.179998 0.546114
v -1.200000 0.199998 0.549616
v 1.200000 0.200002 -0.559615
v 0.722540 0.180002 -0.556952
v 0.240848 0.180002 -0.554273
v -0.240847 0.170002 -0.553247
v -0.722539 0.180002 -0.550568
v -1.200000 0.200002 -0.550384
v 1.200000 0.000002 -0.559615
v 0.722540 0.000002 -0.557779
v 0.240848 0.000002 -0.555926
v -0.240847 0.000002 -0.554074
v -0.722539 0.000002 -0.552221
v -1.200000 0.000002 -0.550385
v 1.200000 -0.000002 0.540385
v 0.722540 -0.000002 0.542221
v 0.240848 -0.000002 0.544074
v -0.240847 -0.000002 0.545926
v -0.722539 -0.000002 0.547779
v -1.200000 -0.000002 0.549616
v -1.290000 0.000000 0.000000
v 1.290000 0.000000 -0.010000
v -1.290000 0.170000 0.000001
v 1.290000 0.170000 -0.009999
v -1.300000 0.028571 0.000000
v 1.291511 0.080000 -0.010000
v -1.291512 0.080000 0.000000
v -1.299826 0.140806 0.000175
v 1.299825 0.029194 -0.009826
v 1.299825 0.140806 -0.009825
v 1.190000 0.170000 -0.009615
v 0.722540 0.150000 -0.007782
v 0.240848 0.150000 -0.005932
v -0.240847 0.140000 -0.004076
v -0.722539 0.150000 -0.002227
v -1.190000 0.170000 -0.000384
v 1.190000 0.000000 -0.009615
v 0.722540 0.000000 -0.007779
v 0.240848 0.000000 -0.005926
v -0.240847 0.000000 -0.004074
v -0.722539 0.000000 -0.002221
v -1.190000 0.000000 -0.000384
vn -0.0000 1.0000 -0.0000
vn 0.0210 0.9994 0.0271
vn -0.0000 -1.0000 -0.0000
vn -0.0210 0.9994 -0.0271
vn -0.0227 0.9997 -0.0000
vn -0.0208 0.9994 0.0271
vn 0.0208 0.9994 -0.0271
vn 0.0236 0.0839 -0.9962
vn -0.1329 0.1069 -0.9854
vn -0.0849 0.3341 -0.9387
vn 0.0293 0.3054 -0.9518
vn 0.9956 -0.0938 -0.0003
vn 0.9486 -0.3164 -0.0002
vn 0.9353 -0.3426 -0.0883
vn 0.9855 -0.1064 -0.1324
vn 0.0001 0.9996 0.0296
vn 0.0227 0.9997 -0.0000
vn -0.9293 -0.3584 -0.0897
vn -0.9448 -0.3277 -0.0000
vn -0.9951 -0.0990 -0.0000
vn -0.9839 -0.1156 -0.1360
vn 0.7971 -0.4219 -0.4320
vn 0.8536 -0.1352 -0.5031
vn 0.9833 0.1191 0.1374
vn 0.9331 0.3495 0.0854
vn 0.7966 0.4153 0.4393
vn 0.8540 0.1258 0.5049
vn 0.4393 -0.4153 0.7966
vn 0.5049 -0.1258 0.8539
vn 0.1560 -0.1175 0.9807
vn 0.1155 -0.3563 0.9272
vn 0.5058 0.1238 -0.8537
vn 0.4424 0.4018 -0.8018
vn 0.8018 0.4018 -0.4423
vn 0.8537 0.1238 -0.5058
vn 0.9841 -0.1146 0.1359
vn 0.8504 -0.1350 0.5085
vn 0.7915 -0.4229 0.4412
vn 0.9306 -0.3550 0.0895
vn -0.4349 -0.4293 0.7916
vn -0.1113 -0.3610 0.9259
vn -0.1529 -0.1208 0.9808
vn -0.5053 -0.1362 0.8521
vn -0.0104 0.9999 -0.0000
vn -0.0105 0.9996 -0.0273
vn -0.0211 0.9994 -0.0272
vn -0.0211 0.9998 -0.0000
vn -0.8521 -0.1362 -0.5053
vn -0.7916 -0.4293 -0.4349
vn -0.9833 0.1191 0.1374
vn -0.8540 0.1258 0.5049
vn -0.7966 0.4153 0.4393
vn -0.9331 0.3495 0.0854
vn 0.4382 0.4155 0.7971
vn 0.5063 0.1339 0.8519
vn -0.4349 -0.4293 -0.7916
vn -0.5053 -0.1362 -0.8521
vn -0.1353 -0.1200 -0.9835
vn -0.0881 -0.3582 -0.9295
vn -0.4937 0.0010 0.8696
vn -0.8696 0.0010 0.4937
vn -0.8521 -0.1362 0.5053
vn 0.0212 -0.0099 0.9997
vn 0.0198 0.0847 0.9962
vn -0.0000 0.0800 0.9968
vn -0.0000 -0.0008 1.0000
vn -0.4382 0.4155 0.7971
vn -0.5063 0.1339 0.8519
vn -0.1474 0.1085 0.9831
vn -0.1036 0.3415 0.9342
vn -0.4424 0.4018 -0.8018
vn -0.5058 0.1238 -0.8537
vn -0.8537 0.1238 -0.5058
vn -0.8018 0.4018 -0.4423
vn 0.1036 0.3415 0.9341
vn 0.1476 0.1109 0.9828
vn 0.9376 0.3373 -0.0847
vn 0.9848 0.1110 -0.1339
vn 0.4349 -0.4293 -0.7916
vn 0.5053 -0.1362 -0.8521
vn -0.9848 0.1110 -0.1339
vn -0.9376 0.3373 -0.0847
vn 0.1350 -0.1180 -0.9838
vn 0.0881 -0.3582 -0.9295
vn -0.9839 -0.1156 0.1360
vn -0.9293 -0.3584 0.0897
vn -0.7916 -0.4293 0.4349
vn 0.1331 0.1095 -0.9850
vn 0.0849 0.3341 -0.9387
vn 0.0206 -0.1051 0.9943
vn 0.0196 -0.3318 0.9431
vn 0.1119 0.0007 -0.9937
vn -0.0201 -0.0025 -0.9998
vn -0.0232 0.0850 -0.9961
vn 0.0213 -0.1037 -0.9944
vn -0.1120 -0.0035 -0.9937
vn 0.0196 -0.0082 -0.9998
vn -0.9935 0.0016 0.1141
vn -0.9960 0.0898 -0.0004
vn -1.0000 0.0085 -0.0000
vn 0.9936 0.0015 -0.1132
vn 0.9960 0.0898 -0.0004
vn 1.0000 0.0078 -0.0000
vn 0.1340 -0.0001 0.9910
vn 0.0181 0.0858 0.9961
vn 0.0213 -0.0024 0.9998
vn 0.8697 0.0012 -0.4936
vn 0.4938 0.0020 -0.8696
vn 0.8693 0.0005 0.4943
vn 0.9935 0.0014 0.1140
vn -0.8696 0.0020 -0.4938
vn -0.9935 0.0025 -0.1136
vn -0.4938 0.0020 -0.8696
vn -0.1335 -0.0040 0.9910
vn -0.0219 -0.0083 0.9997
vn -0.0177 0.0847 0.9963
vn 0.4938 -0.0000 0.8696
vn -0.0209 0.9994 0.0272
vn -0.0214 0.9998 -0.0000
vn -0.9495 0.3139 -0.0005
vn -0.0001 0.9996 -0.0296
vn -0.0230 0.9997 -0.0000
vn 0.0214 0.9998 -0.0000
vn 0.0315 0.9995 -0.0000
vn 0.0315 0.9991 0.0272
vn -0.0216 0.0847 -0.9962
vn -0.0000 0.0805 -0.9968
vn -0.0000 0.3080 -0.9514
vn -0.0229 0.3079 -0.9511
vn -0.0001 0.9996 -0.0273
vn -0.0105 0.9999 -0.0000
vn -0.0207 0.9998 -0.0000
vn -0.0102 0.9999 -0.0000
vn -0.0103 0.9996 0.0273
vn -0.0212 0.9998 -0.0000
vn -0.0261 0.3055 -0.9518
vn 0.0230 0.9997 -0.0000
vn 0.0312 0.9995 -0.0000
vn 0.0313 0.9991 -0.0272
vn -0.0000 -0.3304 0.9439
vn 0.0196 -0.3303 0.9437
vn 0.0203 -0.1020 0.9946
vn -0.0000 -0.0992 0.9951
vn -0.0196 -0.3288 -0.9442
vn -0.0206 -0.1041 -0.9944
vn -0.0196 -0.3303 -0.9437
vn -0.0210 -0.1020 -0.9946
vn -0.0000 -0.3303 -0.9439
vn -0.0000 -0.0998 -0.9950
vn -0.0199 -0.1047 0.9943
vn -0.0000 -0.0009 -1.0000
vn -0.0000 0.3080 0.9514
vn -0.0101 0.3081 0.9513
vn -0.0203 -0.0099 -0.9997
vn -0.0000 1.0000 0.0001
vn 0.0001 0.9996 0.0295
vn 0.9495 0.3139 -0.0005
vn -0.0196 -0.3318 0.9431
vn 0.0196 -0.3288 -0.9442
vn 0.0166 0.3079 0.9513
vn -0.0000 1.0000 -0.0001
vn 0.0001 0.9996 0.0273
vn -0.0001 0.9996 -0.0295
vn 0.0132 0.3084 0.9512
vn 0.0314 0.9995 -0.0000
vt 0.048894 0.226981
vt 0.835936 0.192719
vt 0.978750 0.903033
vt 0.016250 0.284797
vt 0.852500 0.192719
vt 0.978750 0.963597
vt 0.032572 0.234727
vt 0.978750 0.933619
vt 0.020623 0.255889
vt 0.887500 0.903033
vt 0.016250 0.284796
vt 0.835936 0.038544
vt 0.048894 0.226981
vt 0.887500 0.933619
vt 0.020623 0.255889
vt 0.852500 0.038544
vt 0.887500 0.963597
vt 0.032572 0.234727
vt 0.978750 0.306823
vt 0.016250 0.920771
vt 0.048894 0.978587
vt 0.039063 0.192719
vt 0.978750 0.278373
vt 0.020623 0.949679
vt 0.022500 0.192719
vt 0.978750 0.246253
vt 0.032572 0.970841
vt 0.039063 0.038544
vt 0.048894 0.978587
vt 0.016250 0.920771
vt 0.887500 0.306823
vt 0.032572 0.970841
vt 0.022500 0.038544
vt 0.887500 0.246253
vt 0.020623 0.949679
vt 0.887500 0.278373
vt 0.887500 0.903033
vt 0.865000 0.284796
vt 0.039063 0.192719
vt 0.832356 0.226981
vt 0.887500 0.933619
vt 0.860626 0.255889
vt 0.022500 0.192719
vt 0.887500 0.963597
vt 0.848678 0.234727
vt 0.832356 0.226981
vt 0.039063 0.038544
vt 0.865000 0.284797
vt 0.978750 0.903033
vt 0.978750 0.963597
vt 0.022500 0.038544
vt 0.848678 0.234727
vt 0.978750 0.933619
vt 0.860626 0.255889
vt 0.835936 0.192719
vt 0.832356 0.978587
vt 0.887500 0.306823
vt 0.865000 0.920771
vt 0.848678 0.970841
vt 0.887500 0.246253
vt 0.852500 0.192719
vt 0.860626 0.949679
vt 0.887500 0.278373
vt 0.978750 0.306823
vt 0.865000 0.920771
vt 0.835936 0.038544
vt 0.832356 0.978587
vt 0.978750 0.278373
vt 0.860626 0.949679
vt 0.978750 0.246253
vt 0.852500 0.038544
vt 0.848678 0.970841
vt 0.835936 0.170025
vt 0.835936 0.171527
vt 0.835936 0.170694
vt 0.852500 0.061238
vt 0.852500 0.059775
vt 0.901288 0.963597
vt 0.899641 0.963598
vt 0.852500 0.170025
vt 0.966609 0.963597
vt 0.852500 0.171489
vt 0.964962 0.963597
vt 0.966609 0.933619
vt 0.965356 0.933619
vt 0.966178 0.933619
vt 0.964962 0.933619
vt 0.900894 0.903033
vt 0.900050 0.903033
vt 0.900536 0.903033
vt 0.965356 0.903033
vt 0.965762 0.903033
vt 0.966200 0.903033
vt 0.039063 0.170025
vt 0.039063 0.171527
vt 0.039063 0.170694
vt 0.022500 0.170025
vt 0.964962 0.246253
vt 0.966609 0.246253
vt 0.022500 0.171489
vt 0.965356 0.278373
vt 0.964962 0.278373
vt 0.966609 0.278373
vt 0.966178 0.278373
vt 0.965356 0.306823
vt 0.966200 0.306823
vt 0.965762 0.306823
vt 0.900894 0.278373
vt 0.901288 0.278373
vt 0.900072 0.278373
vt 0.899641 0.278373
vt 0.901288 0.246253
vt 0.852500 0.170025
vt 0.852500 0.171489
vt 0.899641 0.246253
vt 0.835936 0.170025
vt 0.835936 0.171527
vt 0.835936 0.170775
vt 0.039063 0.170025
vt 0.039063 0.171527
vt 0.039063 0.170775
vt 0.964962 0.963597
vt 0.022500 0.061238
vt 0.966609 0.963597
vt 0.022500 0.059775
vt 0.900894 0.933619
vt 0.901288 0.933619
vt 0.900072 0.933619
vt 0.899641 0.933619
vt 0.900894 0.903033
vt 0.900050 0.903033
vt 0.900488 0.903033
vt 0.965356 0.903033
vt 0.966200 0.903033
vt 0.965714 0.903033
vt 0.933125 0.903033
vt 0.965356 0.933619
vt 0.964962 0.933619
vt 0.966609 0.933619
vt 0.966178 0.933619
vt 0.933125 0.933619
vt 0.022500 0.170025
vt 0.901288 0.963597
vt 0.022500 0.171489
vt 0.899641 0.963597
vt 0.933125 0.963597
vt 0.022500 0.115632
vt 0.835936 0.061238
vt 0.835936 0.059737
vt 0.835936 0.060569
vt 0.835936 0.115632
vt 0.964962 0.246253
vt 0.852500 0.061238
vt 0.852500 0.059774
vt 0.966609 0.246253
vt 0.852500 0.115632
vt 0.933125 0.246253
vt 0.964962 0.278373
vt 0.965356 0.278373
vt 0.966178 0.278373
vt 0.966609 0.278373
vt 0.933125 0.278373
vt 0.900894 0.306823
vt 0.900050 0.306823
vt 0.900536 0.306823
vt 0.933125 0.306823
vt 0.901288 0.278373
vt 0.900894 0.278373
vt 0.900072 0.278373
vt 0.899641 0.278373
vt 0.933125 0.278373
vt 0.022500 0.061238
vt 0.901288 0.246253
vt 0.022500 0.059774
vt 0.899641 0.246253
vt 0.933125 0.246253
vt 0.022500 0.115632
vt 0.835936 0.061238
vt 0.835936 0.059737
vt 0.835936 0.060569
vt 0.835936 0.115632
vt 0.039063 0.061238
vt 0.039063 0.059737
vt 0.039063 0.060569
vt 0.039063 0.115632
vt 0.900894 0.306823
vt 0.900050 0.306823
vt 0.900488 0.306823
vt 0.965356 0.306823
vt 0.966200 0.306823
vt 0.965714 0.306823
vt 0.933125 0.306823
vt 0.039063 0.061238
vt 0.039063 0.059737
vt 0.039063 0.060489
vt 0.039063 0.115632
vt 0.933125 0.903033
vt 0.900894 0.933619
vt 0.900072 0.933619
vt 0.901288 0.933619
vt 0.899641 0.933619
vt 0.933125 0.933619
vt 0.852500 0.115632
vt 0.933125 0.963597
vt 0.198722 0.192719
vt 0.676493 0.226981
vt 0.357907 0.192720
vt 0.519248 0.226981
vt 0.517093 0.192719
vt 0.362003 0.226981
vt 0.204758 0.226981
vt 0.676278 0.192719
vt 0.676493 0.226981
vt 0.198722 0.038544
vt 0.519248 0.226981
vt 0.357907 0.038544
vt 0.517093 0.038544
vt 0.362003 0.226981
vt 0.676278 0.038544
vt 0.204758 0.226981
vt 0.198722 0.170734
vt 0.357907 0.170734
vt 0.517093 0.170734
vt 0.676278 0.170734
vt 0.198722 0.060529
vt 0.357907 0.060529
vt 0.517093 0.060529
vt 0.676278 0.060529
vt 0.676278 0.115632
vt 0.517093 0.115632
vt 0.357907 0.115632
vt 0.198722 0.115632
vt 0.204758 0.978587
vt 0.198722 0.192719
vt 0.357907 0.192719
vt 0.362003 0.978587
vt 0.517093 0.192719
vt 0.519248 0.978587
vt 0.676278 0.192719
vt 0.676493 0.978587
vt 0.676278 0.038544
vt 0.676493 0.978587
vt 0.517093 0.038544
vt 0.519248 0.978587
vt 0.357907 0.038544
vt 0.362003 0.978587
vt 0.198722 0.038544
vt 0.204758 0.978587
vt 0.198722 0.170734
vt 0.357907 0.170734
vt 0.517093 0.170734
vt 0.676278 0.170734
vt 0.198722 0.060529
vt 0.357907 0.060529
vt 0.517093 0.060529
vt 0.676278 0.060529
vt 0.676278 0.115632
vt 0.517093 0.115632
vt 0.357907 0.115632
vt 0.198722 0.115632
vt 0.832356 0.284574
vt 0.676493 0.289776
vt 0.519248 0.294967
vt 0.362003 0.299196
vt 0.204758 0.292825
vt 0.048894 0.285019
vt 0.832356 0.920548
vt 0.676493 0.924791
vt 0.519248 0.929024
vt 0.362003 0.934212
vt 0.204758 0.926881
vt 0.048894 0.920993
vt 0.832356 0.920549
vt 0.676493 0.925268
vt 0.519248 0.929979
vt 0.362003 0.934689
vt 0.204758 0.927836
vt 0.048894 0.920993
vt 0.832356 0.284574
vt 0.676493 0.289294
vt 0.519248 0.294005
vt 0.362003 0.298715
vt 0.204758 0.291862
vt 0.048894 0.285019
vt 0.978750 0.604928
vt 0.016250 0.602784
vt 0.887500 0.604928
vt 0.865000 0.602784
vt 0.016250 0.602784
vt 0.887500 0.604928
vt 0.865000 0.602784
vt 0.978750 0.604928
vt 0.965738 0.604928
vt 0.933125 0.604928
vt 0.933125 0.604928
vt 0.900512 0.604928
vt 0.900512 0.604928
vt 0.965738 0.604928
vt 0.832356 0.602561
vt 0.676493 0.607283
vt 0.519248 0.611995
vt 0.362002 0.616704
vt 0.204758 0.609853
vt 0.048894 0.603006
vt 0.832356 0.602561
vt 0.676493 0.607281
vt 0.519248 0.611992
vt 0.362003 0.616702
vt 0.204758 0.609849
vt 0.048894 0.603006
s 1
usemtl old_mattress_mx_1
f 16/35/1 132/272/2 15/32/1
f 28/62/3 133/273/3 27/59/3
f 12/27/3 10/21/3 138/278/3
f 121/261/4 23/52/1 24/54/1
f 32/72/1 30/67/5 127/267/6
f 126/266/7 7/15/1 8/18/1
f 139/279/3 19/42/3 20/45/3
f 144/284/3 1/1/3 3/7/3
f 113/253/8 75/195/9 13/28/10 108/247/11
f 153/297/12 146/287/13 26/57/14 72/188/15
f 14/30/16 132/272/2 16/35/1
f 132/272/2 13/29/17 15/32/1
f 9/19/18 145/285/19 149/293/20 42/107/21
f 143/283/3 84/211/3 1/1/3 144/284/3
f 28/63/22 43/108/23 72/186/15 26/57/14
f 50/133/24 22/49/25 24/53/26 52/137/27
f 20/43/28 54/142/29 46/119/30 18/39/31
f 58/152/32 32/70/33 31/68/34 60/158/35
f 49/130/36 48/126/37 19/41/38 17/37/39
f 3/5/40 1/2/41 33/73/42 35/80/43
f 157/301/44 123/263/45 122/262/46 156/300/47
f 42/105/21 41/101/48 11/23/49 9/19/18
f 37/88/50 78/198/51 7/14/52 5/10/53
f 24/53/26 23/50/54 47/122/55 52/138/27
f 12/25/56 40/97/57 39/94/58 10/22/59
f 26/58/3 133/273/3 28/62/3
f 133/273/3 25/56/3 27/59/3
f 48/127/37 54/143/29 20/44/28 19/41/38
f 35/81/43 80/204/60 79/202/61 36/84/62
f 99/231/63 94/226/64 95/227/65 98/230/66
f 8/16/67 34/76/68 68/178/69 6/12/70
f 15/33/71 13/28/10 75/193/9 66/172/72
f 64/167/73 16/36/74 15/34/71 66/173/72
f 23/51/54 21/47/75 70/182/76 47/123/55
f 31/68/34 29/64/77 73/189/78 60/159/35
f 27/60/79 44/112/80 43/109/23 28/63/22
f 62/163/81 14/31/82 16/36/74 64/168/73
f 45/116/83 44/113/80 27/61/79 25/55/84
f 38/91/85 2/3/86 4/8/87 36/85/62
f 149/293/20 145/285/19 2/3/86 38/92/85
f 56/148/88 30/66/89 32/71/33 58/153/32
f 89/221/90 81/205/91 18/39/31 46/121/30
f 57/151/92 117/257/93 116/256/94 56/150/88
f 109/249/95 39/96/58 76/196/96 120/260/97
f 77/197/98 37/90/50 152/296/99 151/295/100
f 149/293/20 38/92/85 77/197/98 151/295/100
f 74/192/101 73/191/78 154/298/102 150/294/103
f 71/185/104 70/184/76 93/225/105 100/232/106
f 61/162/107 74/192/101 72/187/15 43/110/23
f 59/156/108 44/114/80 45/117/83 57/151/92
f 56/149/88 58/154/32 59/156/108 57/151/92
f 53/141/109 48/128/37 49/131/36 51/136/110
f 153/297/12 72/188/15 74/192/101 150/294/103
f 62/164/81 64/169/73 65/171/111 63/166/112
f 41/102/48 40/98/57 12/26/56 11/23/49
f 67/176/113 40/99/57 41/103/48 65/171/111
f 33/74/42 69/181/114 80/203/60 35/82/43
f 38/93/85 36/86/62 79/202/61 77/197/98
f 69/181/114 97/229/115 96/228/116 68/180/69
f 75/194/9 76/196/96 67/177/113 66/174/72
f 64/170/73 66/175/72 67/176/113 65/171/111
f 36/87/62 4/8/87 3/6/40 35/83/43
f 67/177/113 76/196/96 39/95/58 40/100/57
f 73/190/78 74/192/101 61/162/107 60/160/35
f 79/202/61 78/199/51 37/89/50 77/197/98
f 80/203/60 69/181/114 68/179/69 34/77/68
f 52/139/27 47/124/55 55/146/117 53/141/109
f 128/268/118 156/300/47 155/299/119 127/267/6
f 65/171/111 41/104/48 42/106/21 63/166/112
f 55/147/117 71/185/104 46/120/30 54/144/29
f 53/141/109 55/146/117 54/145/29 48/129/37
f 61/162/107 43/111/23 44/115/80 59/157/108
f 50/134/24 52/140/27 53/141/109 51/136/110
f 76/196/96 75/195/9 113/253/8 120/260/97
f 17/37/39 146/287/13 153/297/12 49/132/36
f 138/278/3 9/20/3 11/24/3
f 11/24/3 12/27/3 138/278/3
f 152/296/99 37/90/50 5/10/53 147/290/120
f 24/54/1 22/48/121 121/261/4
f 121/261/4 21/46/122 23/52/1
f 160/304/123 159/303/124 131/271/125 132/272/2
f 115/255/126 114/254/127 107/245/128 106/243/129
f 124/264/130 87/218/1 86/215/131 123/263/45
f 122/262/46 85/213/132 21/46/122 121/261/4
f 106/244/133 129/269/134 128/268/118 105/242/135
f 116/256/94 105/241/136 30/66/89 56/150/88
f 6/13/137 88/220/138 125/265/139 126/266/7
f 113/253/8 108/247/11 107/245/128 114/254/127
f 83/209/140 82/207/141 90/222/142 91/223/143
f 25/55/84 104/239/144 112/252/145 45/118/83
f 104/239/144 103/237/146 111/251/147 112/252/145
f 161/305/3 139/279/3 140/280/3 162/306/3
f 103/237/146 102/235/148 110/250/149 111/251/147
f 63/166/112 151/295/100 152/296/99 62/165/81
f 92/224/150 97/229/115 69/181/114 33/75/42
f 120/260/97 113/253/8 114/254/127 119/259/151
f 96/228/116 95/227/65 87/217/152 88/219/153
f 89/221/90 46/121/30 71/185/104 100/232/106
f 90/222/142 99/231/63 98/230/66 91/223/143
f 109/249/95 120/260/97 119/259/151 110/250/149
f 118/258/154 115/255/126 116/256/94 117/257/93
f 112/252/145 117/257/93 57/151/92 45/118/83
f 127/267/6 155/299/119 148/291/155 29/65/156
f 92/224/150 91/223/143 98/230/66 97/229/115
f 118/258/154 119/259/151 114/254/127 115/255/126
f 70/183/76 71/185/104 55/147/117 47/125/55
f 7/14/52 78/200/51 34/78/68 8/17/67
f 97/229/115 98/230/66 95/227/65 96/228/116
f 111/251/147 110/250/149 119/259/151 118/258/154
f 154/298/102 73/191/78 29/64/77 148/292/157
f 92/224/150 84/212/158 83/209/140 91/223/143
f 82/207/141 81/205/91 89/221/90 90/222/142
f 101/234/159 109/249/95 110/250/149 102/235/148
f 133/273/3 134/274/3 104/240/3 25/56/3
f 81/206/3 82/208/3 141/281/3 140/280/3
f 18/40/3 81/206/3 140/280/3 139/279/3
f 142/282/3 83/210/3 84/211/3 143/283/3
f 6/12/70 68/180/69 96/228/116 88/219/153
f 115/255/126 106/243/129 105/241/136 116/256/94
f 99/231/63 100/232/106 93/225/105 94/226/64
f 87/217/152 95/227/65 94/226/64 86/216/160
f 147/289/161 160/304/123 132/272/2 14/30/16
f 123/263/45 86/215/131 85/213/132 122/262/46
f 105/242/135 128/268/118 127/267/6 30/67/5
f 107/246/1 130/270/162 129/269/134 106/244/133
f 134/274/3 135/275/3 103/238/3 104/240/3
f 127/267/6 29/65/156 31/69/1
f 31/69/1 32/72/1 127/267/6
f 8/18/1 6/13/137 126/266/7
f 126/266/7 5/11/163 7/15/1
f 88/220/138 87/218/1 124/264/130 125/265/139
f 158/302/1 124/264/130 123/263/45 157/301/44
f 129/269/134 157/301/44 156/300/47 128/268/118
f 86/216/160 94/226/64 93/225/105 85/214/164
f 160/304/123 126/266/7 125/265/139 159/303/124
f 147/289/161 5/11/163 126/266/7 160/304/123
f 121/261/4 22/48/121 148/291/155 155/299/119
f 122/262/46 121/261/4 155/299/119 156/300/47
f 142/282/3 143/283/3 165/309/3 164/308/3
f 141/281/3 142/282/3 164/308/3 163/307/3
f 140/280/3 141/281/3 163/307/3 162/306/3
f 143/283/3 144/284/3 166/310/3 165/309/3
f 111/251/147 118/258/154 117/257/93 112/252/145
f 80/204/60 34/79/68 78/201/51 79/202/61
f 161/305/3 162/306/3 134/274/3 133/273/3
f 102/236/3 136/276/3 137/277/3 101/233/3
f 135/275/3 136/276/3 102/236/3 103/238/3
f 82/208/3 83/210/3 142/282/3 141/281/3
f 101/233/3 137/277/3 138/278/3 10/21/3
f 20/45/3 18/40/3 139/279/3
f 139/279/3 17/38/3 19/42/3
f 3/7/3 4/9/3 144/284/3
f 4/9/3 2/4/3 144/284/3
f 146/288/3 161/305/3 133/273/3 26/58/3
f 138/278/3 166/310/3 145/286/3 9/20/3
f 137/277/3 165/309/3 166/310/3 138/278/3
f 163/307/3 164/308/3 136/276/3 135/275/3
f 159/303/124 125/265/139 124/264/130 158/302/1
f 162/306/3 163/307/3 135/275/3 134/274/3
f 131/271/125 130/270/162 107/246/1 108/248/165
f 144/284/3 2/4/3 145/286/3 166/310/3
f 146/288/3 17/38/3 139/279/3 161/305/3
f 132/272/2 131/271/125 108/248/165 13/29/17
f 131/271/125 159/303/124 158/302/1 130/270/162
f 164/308/3 165/309/3 137/277/3 136/276/3
f 130/270/162 158/302/1 157/301/44 129/269/134
f 90/222/142 89/221/90 100/232/106 99/231/63
f 149/293/20 151/295/100 63/166/112 42/107/21
f 93/225/105 70/184/76 21/47/75 85/214/164
f 153/297/12 150/294/103 51/136/110 49/132/36
f 51/136/110 150/294/103 154/298/102 50/135/24
f 1/2/41 84/212/158 92/224/150 33/75/42
f 10/22/59 39/96/58 109/249/95 101/234/159
f 22/49/25 50/135/24 154/298/102 148/292/157
f 14/31/82 62/165/81 152/296/99 147/290/120
f 58/155/32 60/161/35 61/162/107 59/157/108
