# Blender 3.4.0
# www.blender.org
mtllib package_hr_1.mtl
o package_hr_1
v -0.258047 0.054899 0.087752
v -0.236750 0.000013 0.125244
v -0.263343 0.032329 0.109401
v -0.234194 0.000013 0.148927
v -0.242643 0.054899 0.156431
v -0.252963 0.032329 0.167449
v -0.181228 0.000013 0.168059
v -0.180902 0.054899 0.171579
v -0.198239 0.032329 0.188024
v -0.250778 0.054899 -0.108266
v -0.235586 0.000013 -0.137056
v -0.261120 0.032329 -0.147167
v -0.238536 0.054899 -0.176447
v -0.224953 0.000013 -0.165609
v -0.247623 0.032329 -0.182119
v 0.222342 0.000013 0.160910
v 0.225088 0.054899 0.163539
v 0.241896 0.032329 0.180164
v 0.170518 0.054899 0.174313
v 0.198770 0.000013 0.169166
v 0.205737 0.032330 0.190704
v 0.155747 0.054899 -0.194133
v 0.186041 0.000013 -0.187901
v 0.190232 0.032329 -0.208800
v -0.188823 0.000013 -0.177453
v -0.170639 0.054899 -0.186408
v -0.203133 0.032329 -0.198642
v 0.227799 0.000013 0.137560
v 0.232492 0.054899 0.112201
v 0.250226 0.032329 0.146997
v 0.213331 0.054899 -0.178290
v 0.208335 0.000013 -0.173918
v 0.224975 0.032329 -0.189656
v 0.216174 0.000013 -0.135265
v 0.221573 0.054899 -0.108453
v 0.238272 0.032329 -0.144835
v -0.218237 0.089965 -0.011202
v 0.186700 0.089965 -0.001079
v -0.236168 0.000013 -0.005906
v -0.262232 0.032329 -0.018883
v -0.254413 0.054899 -0.017396
v 0.221987 0.000013 0.001148
v 0.244249 0.032329 0.001081
v 0.227033 0.054899 0.000899
v -0.185025 0.000013 -0.004697
v 0.192405 0.000013 -0.009368
v -0.015128 0.084573 0.139566
v -0.016409 0.084573 -0.151846
v -0.001391 0.000013 -0.182677
v -0.006450 0.032329 -0.203721
v -0.009894 0.054899 -0.190270
v 0.008771 0.000013 0.168613
v 0.003749 0.032329 0.189364
v 0.007600 0.054899 0.172946
v 0.003690 0.000013 -0.007032
v -0.015768 0.101932 -0.006140
v -0.215741 0.083399 -0.098841
v 0.183563 0.083399 -0.087163
v -0.152178 0.080703 0.136668
v 0.122032 0.080703 -0.149683
v -0.220734 0.083399 0.061284
v 0.196078 0.083399 0.097906
v 0.142255 0.080703 0.142464
v -0.139949 0.080703 -0.154010
vn 0.3499 0.9307 0.1069
vn 0.4254 0.8094 0.4048
vn 0.7077 0.7062 0.0225
vn -0.3657 0.9307 -0.0107
vn -0.3518 0.9267 -0.1321
vn -0.7913 0.6072 -0.0714
vn -0.8282 0.5599 -0.0227
vn 0.4785 -0.8757 -0.0647
vn 0.1345 -0.8467 -0.5149
vn 0.4352 -0.8428 -0.3169
vn 0.6941 0.7172 -0.0617
vn 0.4643 0.7971 -0.3861
vn 0.3334 0.9365 -0.1089
vn -0.3597 0.9282 0.0951
vn -0.5131 0.7337 0.4454
vn -0.0789 0.9280 0.3640
vn -0.0122 0.6763 -0.7365
vn -0.0637 0.6686 -0.7408
vn -0.0580 0.9268 -0.3709
vn -0.0014 0.9355 -0.3534
vn -0.4631 0.7286 -0.5046
vn 0.0670 0.7294 -0.6808
vn 0.0688 0.9450 -0.3199
vn 0.0614 0.9208 0.3851
vn -0.9100 0.3944 0.1277
vn -0.6049 0.5852 0.5400
vn -0.8130 0.5791 0.0606
vn -0.0899 0.7157 0.6926
vn -0.1546 0.6041 0.7818
vn -0.4589 -0.8874 0.0449
vn -0.4191 -0.8475 0.3257
vn -0.5838 -0.6437 0.4949
vn -0.7890 -0.6129 0.0435
vn -0.1716 -0.5803 0.7961
vn -0.0705 -0.8640 0.4985
vn -0.9429 0.3326 -0.0198
vn -0.4302 -0.9027 -0.0028
vn -0.7780 -0.6282 -0.0051
vn -0.5839 0.5927 -0.5549
vn -0.8372 0.5205 -0.1677
vn 0.0553 0.7113 0.7007
vn 0.1259 0.6760 0.7261
vn 0.4722 0.7563 0.4528
vn -0.3375 -0.8640 -0.3738
vn -0.4549 -0.8871 -0.0778
vn -0.7519 -0.6418 -0.1507
vn -0.5382 -0.6588 -0.5256
vn 0.5569 -0.6426 0.5262
vn 0.1288 -0.5734 0.8091
vn 0.0697 -0.8655 0.4960
vn 0.3817 -0.8543 0.3527
vn -0.0213 0.5108 -0.8594
vn -0.1567 0.5124 -0.8443
vn -0.0128 -0.8797 -0.4754
vn -0.0764 -0.8699 -0.4872
vn -0.1661 -0.5816 -0.7963
vn -0.0224 -0.5483 -0.8360
vn 0.7332 0.6734 0.0945
vn 0.4861 -0.8730 0.0398
vn 0.8062 -0.5844 0.0921
vn -0.0058 0.5879 0.8089
vn -0.0058 0.6826 0.7308
vn 0.5422 0.7012 -0.4630
vn 0.1991 0.6411 -0.7411
vn -0.0023 -0.8779 0.4789
vn -0.0041 -0.5402 0.8415
vn 0.2010 -0.5602 -0.8036
vn 0.6398 -0.5845 -0.4990
vn 0.7946 0.6061 -0.0355
vn 0.7688 0.6284 -0.1186
vn 0.7177 0.6954 -0.0363
vn 0.4649 -0.8852 -0.0194
vn 0.8142 -0.5665 -0.1274
vn 0.8230 -0.5670 -0.0344
vn -0.0000 -1.0000 -0.0000
vn 0.3450 0.9384 -0.0177
vn -0.0086 0.9243 0.3817
vn -0.0018 1.0000 -0.0011
vt 0.029894 0.301073
vt 0.552588 0.238208
vt 0.024610 0.253310
vt 0.529911 0.274152
vt 0.554220 0.186773
vt 0.042916 0.149495
vt 0.033790 0.125171
vt 0.537481 0.147824
vt 0.599692 0.142080
vt 0.097517 0.116030
vt 0.584442 0.099902
vt 0.082186 0.079754
vt 0.035402 0.733827
vt 0.560078 0.806076
vt 0.538179 0.829543
vt 0.026577 0.819676
vt 0.046548 0.884310
vt 0.570008 0.867244
vt 0.038512 0.896832
vt 0.550750 0.904389
vt 0.949939 0.132668
vt 0.456558 0.133804
vt 0.471423 0.097104
vt 0.966425 0.089773
vt 0.408300 0.110280
vt 0.929287 0.116246
vt 0.439445 0.073838
vt 0.934799 0.069182
vt 0.395244 0.922484
vt 0.927069 0.890162
vt 0.931221 0.935153
vt 0.425734 0.955729
vt 0.601641 0.890661
vt 0.106596 0.906722
vt 0.077858 0.933306
vt 0.589751 0.937421
vt 0.955250 0.182888
vt 0.462587 0.247078
vt 0.974470 0.161073
vt 0.478790 0.170319
vt 0.446161 0.888381
vt 0.946063 0.858510
vt 0.456459 0.913470
vt 0.960885 0.891560
vt 0.951907 0.774334
vt 0.453722 0.734271
vt 0.468217 0.814530
vt 0.971311 0.793694
vt 0.064500 0.519538
vt 0.422610 0.497193
vt 0.556333 0.522142
vt 0.534045 0.551847
vt 0.025593 0.536493
vt 0.032508 0.533212
vt 0.953578 0.478611
vt 0.972891 0.477383
vt 0.473504 0.492425
vt 0.458278 0.492826
vt 0.600666 0.516370
vt 0.928178 0.503204
vt 0.244119 0.188204
vt 0.242978 0.828512
vt 0.764355 0.890411
vt 0.760486 0.936287
vt 0.251796 0.944517
vt 0.248751 0.914826
vt 0.764490 0.129163
vt 0.759620 0.084542
vt 0.260815 0.076796
vt 0.264221 0.113038
vt 0.764422 0.509787
vt 0.243556 0.508367
vt 0.067081 0.711412
vt 0.418804 0.687133
vt 0.123450 0.195728
vt 0.365397 0.823105
vt 0.062292 0.359528
vt 0.428609 0.280344
vt 0.383260 0.180882
vt 0.134076 0.832365
s 1
usemtl package_hr_1
f 62/78/1 17/22/2 29/38/3
f 37/49/4 57/73/5 10/13/6 41/54/7
f 34/45/8 23/30/9 32/42/10
f 35/46/11 31/41/12 58/74/13
f 61/77/14 5/6/15 59/75/16
f 51/66/17 26/34/18 64/80/19 48/62/20
f 64/80/19 26/34/18 13/17/21
f 57/73/5 64/80/19 13/17/21
f 31/41/12 22/29/22 60/76/23
f 62/78/1 63/79/24 17/22/2
f 3/3/25 6/7/26 5/6/15 1/1/27
f 8/10/28 5/6/15 6/7/26 9/12/29
f 2/2/30 4/5/31 6/8/32 3/4/33
f 9/11/34 6/8/32 4/5/31 7/9/35
f 40/53/36 3/3/25 1/1/27 41/54/7
f 39/51/37 2/2/30 3/4/33 40/52/38
f 15/19/39 12/16/40 10/13/6 13/17/21
f 17/22/2 19/25/41 21/27/42 18/23/43
f 14/18/44 11/14/45 12/15/46 15/20/47
f 18/24/48 21/28/49 20/26/50 16/21/51
f 50/65/52 27/35/53 26/34/18 51/66/17
f 49/63/54 25/33/55 27/36/56 50/64/57
f 18/23/43 30/40/58 29/38/3 17/22/2
f 16/21/51 28/37/59 30/39/60 18/24/48
f 53/69/61 21/27/42 19/25/41 54/70/62
f 22/29/22 31/41/12 33/43/63 24/32/64
f 52/67/65 20/26/50 21/28/49 53/68/66
f 24/31/67 33/44/68 32/42/10 23/30/9
f 43/57/69 36/47/70 35/46/11 44/58/71
f 42/55/72 34/45/8 36/48/73 43/56/74
f 27/35/53 15/19/39 13/17/21 26/34/18
f 25/33/55 14/18/44 15/20/47 27/36/56
f 36/47/70 33/43/63 31/41/12 35/46/11
f 20/26/50 28/37/59 16/21/51
f 11/14/45 14/18/44 25/33/55
f 4/5/31 2/2/30 7/9/35
f 46/60/75 23/30/9 34/45/8 42/55/72
f 39/51/37 11/14/45 25/33/55 45/59/75
f 55/71/75 49/63/54 23/30/9 46/60/75
f 34/45/8 32/42/10 33/44/68 36/48/73
f 52/67/65 55/71/75 46/60/75 20/26/50
f 2/2/30 39/51/37 45/59/75 7/9/35
f 20/26/50 46/60/75 42/55/72 28/37/59
f 28/37/59 42/55/72 43/56/74 30/39/60
f 30/40/58 43/57/69 44/58/71 29/38/3
f 11/14/45 39/51/37 40/52/38 12/15/46
f 12/16/40 40/53/36 41/54/7 10/13/6
f 61/77/14 37/49/4 41/54/7 1/1/27
f 63/79/24 19/25/41 17/22/2
f 58/74/13 38/50/76 44/58/71 35/46/11
f 59/75/16 47/61/77 56/72/78 37/49/4 61/77/14
f 7/9/35 45/59/75 55/71/75 52/67/65
f 45/59/75 25/33/55 49/63/54 55/71/75
f 7/9/35 52/67/65 53/68/66 9/11/34
f 9/12/29 53/69/61 54/70/62 8/10/28
f 23/30/9 49/63/54 50/64/57 24/31/67
f 24/32/64 50/65/52 51/66/17 22/29/22
f 10/13/6 57/73/5 13/17/21
f 37/49/4 56/72/78 48/62/20 64/80/19 57/73/5
f 47/61/77 63/79/24 62/78/1 38/50/76 56/72/78
f 56/72/78 38/50/76 58/74/13 60/76/23 48/62/20
f 51/66/17 48/62/20 60/76/23 22/29/22
f 58/74/13 31/41/12 60/76/23
f 38/50/76 62/78/1 29/38/3 44/58/71
f 54/70/62 19/25/41 63/79/24 47/61/77
f 54/70/62 47/61/77 59/75/16 8/10/28
f 5/6/15 8/10/28 59/75/16
f 1/1/27 5/6/15 61/77/14
