# Blender 3.4.0
# www.blender.org
mtllib paint_can_mx_1.mtl
o paint_can_mx_1
v -0.031708 0.003000 0.076550
v -0.058589 0.003000 0.058589
v -0.076550 0.003000 0.031708
v -0.066593 0.245000 0.027585
v -0.050968 0.245000 0.050969
v -0.027584 0.245000 0.066594
v -0.082857 0.003000 0.000000
v -0.076550 0.003000 -0.031708
v -0.058589 0.003000 -0.058589
v -0.031708 0.003000 -0.076550
v -0.072079 0.245000 0.000001
v -0.027584 0.245000 -0.066592
v -0.050968 0.245000 -0.050967
v -0.066593 0.245000 -0.027583
v 0.000000 0.003000 0.082857
v 0.076550 0.003000 0.031708
v 0.058589 0.003000 0.058589
v 0.031708 0.003000 0.076550
v 0.000000 0.245000 0.072080
v 0.027584 0.245000 0.066594
v 0.050968 0.245000 0.050969
v 0.066593 0.245000 0.027585
v 0.000000 0.003000 -0.082857
v 0.082857 0.003000 0.000000
v 0.031708 0.003000 -0.076550
v 0.058589 0.003000 -0.058589
v 0.076550 0.003000 -0.031708
v 0.072079 0.245000 0.000001
v 0.000000 0.245000 -0.072079
v 0.066593 0.245000 -0.027583
v 0.050968 0.245000 -0.050967
v 0.027584 0.245000 -0.066592
v 0.090000 0.250000 0.000001
v 0.083149 0.250000 0.034442
v -0.034442 0.250000 -0.083148
v 0.000000 0.250000 -0.089999
v -0.083149 0.250000 0.034442
v -0.090000 0.250000 0.000001
v 0.000000 0.250000 0.090001
v -0.034442 0.250000 0.083150
v -0.063640 0.250000 0.063640
v -0.063640 0.250000 -0.063639
v -0.083149 0.250000 -0.034441
v 0.083149 0.250000 -0.034441
v 0.063640 0.250000 -0.063639
v 0.034442 0.250000 -0.083148
v 0.034442 0.250000 0.083150
v 0.063640 0.250000 0.063640
v 0.078220 0.250000 0.000001
v 0.072266 0.250000 0.029934
v -0.029933 0.250000 -0.072265
v 0.000000 0.250000 -0.078219
v -0.072266 0.250000 0.029934
v -0.078220 0.250000 0.000001
v 0.000000 0.250000 0.078221
v -0.029933 0.250000 0.072266
v -0.055310 0.250000 0.055311
v -0.055310 0.250000 -0.055309
v -0.072266 0.250000 -0.029932
v 0.072266 0.250000 -0.029932
v 0.055310 0.250000 -0.055309
v 0.029933 0.250000 -0.072265
v 0.029933 0.250000 0.072266
v 0.055310 0.250000 0.055311
v 0.000000 0.000000 -0.090000
v -0.034442 0.000000 -0.083149
v -0.034442 -0.000000 0.083149
v 0.000000 -0.000000 0.090000
v -0.090000 0.000000 0.000000
v -0.083149 -0.000000 0.034442
v 0.083149 -0.000000 0.034442
v 0.090000 0.000000 0.000000
v -0.063640 -0.000000 0.063640
v -0.063640 0.000000 -0.063640
v -0.083149 0.000000 -0.034442
v 0.083149 0.000000 -0.034442
v 0.063640 0.000000 -0.063640
v 0.034442 0.000000 -0.083149
v 0.034442 -0.000000 0.083149
v 0.063640 -0.000000 0.063640
v 0.000000 0.000000 -0.085931
v -0.032884 0.000000 -0.079390
v -0.032884 -0.000000 0.079390
v 0.000000 -0.000000 0.085931
v -0.085931 0.000000 0.000000
v -0.079390 -0.000000 0.032884
v 0.079390 -0.000000 0.032884
v 0.085931 0.000000 0.000000
v -0.060762 -0.000000 0.060762
v -0.060762 0.000000 -0.060762
v -0.079390 0.000000 -0.032884
v 0.079390 0.000000 -0.032884
v 0.060762 0.000000 -0.060762
v 0.032884 0.000000 -0.079390
v 0.032884 -0.000000 0.079390
v 0.060762 -0.000000 0.060762
vn -0.0000 1.0000 -0.0000
vn -0.0000 -0.0000 1.0000
vn -0.3827 -0.0000 0.9239
vn -0.7071 -0.0000 0.7071
vn -0.9239 -0.0000 0.3827
vn -1.0000 -0.0000 -0.0000
vn -0.0000 -0.0000 -1.0000
vn -0.3827 -0.0000 -0.9239
vn -0.7071 -0.0000 -0.7071
vn -0.9239 -0.0000 -0.3827
vn 1.0000 -0.0000 -0.0000
vn 0.9239 -0.0000 -0.3827
vn 0.7071 -0.0000 -0.7071
vn 0.3827 -0.0000 -0.9239
vn 0.3827 -0.0000 0.9239
vn 0.7071 -0.0000 0.7071
vn 0.9239 -0.0000 0.3827
vn -0.0000 -1.0000 -0.0000
vn -0.6314 0.7754 -0.0000
vn -0.5834 0.7754 -0.2416
vn 0.2416 0.7754 0.5834
vn -0.0000 0.7754 0.6314
vn 0.5834 0.7754 -0.2416
vn 0.6314 0.7754 -0.0000
vn -0.0000 0.7754 -0.6314
vn 0.2416 0.7754 -0.5834
vn 0.4465 0.7754 -0.4465
vn 0.4465 0.7754 0.4465
vn 0.5834 0.7754 0.2416
vn -0.5834 0.7754 0.2416
vn -0.4465 0.7754 0.4465
vn -0.2416 0.7754 0.5834
vn -0.2416 0.7754 -0.5834
vn -0.4465 0.7754 -0.4465
vn -0.0000 -0.7156 0.6985
vn 0.2673 -0.7156 0.6453
vn 0.2673 -0.7156 -0.6453
vn -0.0000 -0.7156 -0.6985
vn 0.6985 -0.7156 -0.0000
vn 0.6453 -0.7156 -0.2673
vn -0.6453 -0.7156 -0.2673
vn -0.6985 -0.7156 -0.0000
vn 0.4939 -0.7156 -0.4939
vn 0.4939 -0.7156 0.4939
vn 0.6453 -0.7156 0.2673
vn -0.6453 -0.7156 0.2673
vn -0.4939 -0.7156 0.4939
vn -0.2673 -0.7156 0.6453
vn -0.2673 -0.7156 -0.6453
vn -0.4939 -0.7156 -0.4939
vt 0.879624 0.452719
vt 0.795518 0.482907
vt 0.704482 0.482906
vt 0.710403 0.612123
vt 0.789597 0.612123
vt 0.862764 0.638383
vt 0.620375 0.452719
vt 0.556002 0.396939
vt 0.521164 0.324060
vt 0.521164 0.245176
vt 0.637236 0.638384
vt 0.550931 0.818930
vt 0.550931 0.750307
vt 0.581237 0.686907
vt 0.943997 0.396940
vt 0.943997 0.172297
vt 0.978835 0.245176
vt 0.978835 0.324060
vt 0.918763 0.686907
vt 0.949069 0.750307
vt 0.949069 0.818930
vt 0.918763 0.882329
vt 0.556002 0.172297
vt 0.879624 0.116517
vt 0.620375 0.116518
vt 0.704481 0.086330
vt 0.795518 0.086330
vt 0.862764 0.930853
vt 0.581237 0.882329
vt 0.789597 0.957114
vt 0.710403 0.957114
vt 0.637236 0.930853
vt 0.000000 1.000000
vt 0.500344 0.584294
vt 0.890799 0.967210
vt 0.437801 0.584294
vt 0.960721 0.906622
vt 0.312715 1.000000
vt 0.501438 0.827460
vt 0.250172 1.000000
vt 0.539279 0.906622
vt 0.062543 0.584293
vt 0.700558 0.569236
vt 0.000000 0.584293
vt 0.500344 1.000000
vt 0.609201 0.602026
vt 0.250172 0.584293
vt 0.960721 0.662614
vt 0.187629 0.584293
vt 0.890799 0.602026
vt 0.125086 0.584293
vt 0.799442 0.569236
vt 0.375258 1.000000
vt 0.501438 0.741776
vt 0.437801 1.000000
vt 0.539279 0.662614
vt 0.062543 1.000000
vt 0.799442 1.000000
vt 0.125086 1.000000
vt 0.700558 1.000000
vt 0.187629 1.000000
vt 0.609200 0.967210
vt 0.312715 0.584293
vt 0.998562 0.741776
vt 0.375258 0.584293
vt 0.998562 0.827460
vt 0.872369 0.943310
vt 0.933139 0.890653
vt 0.533973 0.821853
vt 0.566861 0.890653
vt 0.707030 0.597428
vt 0.627630 0.625926
vt 0.933139 0.678584
vt 0.872370 0.625926
vt 0.792971 0.597428
vt 0.533973 0.747384
vt 0.566861 0.678584
vt 0.792970 0.971808
vt 0.707030 0.971808
vt 0.627630 0.943310
vt 0.966027 0.747384
vt 0.966027 0.821853
vt 0.250172 0.584331
vt 0.539279 0.162614
vt 0.312715 0.584331
vt 0.501438 0.241776
vt 0.187629 0.163738
vt 0.890799 0.467210
vt 0.250172 0.163738
vt 0.960721 0.406622
vt 0.000000 0.163738
vt 0.500344 0.584331
vt 0.609201 0.467210
vt 0.062543 0.163738
vt 0.700558 0.500000
vt 0.437801 0.163738
vt 0.960721 0.162614
vt 0.000000 0.584331
vt 0.500344 0.163738
vt 0.890799 0.102026
vt 0.125086 0.163738
vt 0.799442 0.500000
vt 0.375258 0.584331
vt 0.501438 0.327460
vt 0.437801 0.584331
vt 0.539279 0.406622
vt 0.062543 0.584331
vt 0.799442 0.069236
vt 0.125086 0.584331
vt 0.700558 0.069237
vt 0.187629 0.584331
vt 0.609201 0.102027
vt 0.312715 0.163738
vt 0.998562 0.327460
vt 0.375258 0.163738
vt 0.998562 0.241776
vt 0.548806 0.168131
vt 0.512676 0.243713
vt 0.884433 0.458954
vt 0.951193 0.401106
vt 0.615566 0.458954
vt 0.702793 0.490262
vt 0.951193 0.168130
vt 0.884432 0.110282
vt 0.797207 0.490262
vt 0.512676 0.325523
vt 0.548806 0.401106
vt 0.797206 0.078975
vt 0.702793 0.078975
vt 0.615566 0.110282
vt 0.987324 0.325523
vt 0.987323 0.243713
s 1
usemtl paint_can_mx_1
f 28/28/1 30/30/1 31/31/1 32/32/1 29/29/1 12/12/1 13/13/1 14/14/1 11/11/1 4/4/1 5/5/1 6/6/1 19/19/1 20/20/1 21/21/1 22/22/1
f 68/89/2 39/47/2 40/49/3 67/87/3
f 67/87/3 40/49/3 41/51/4 73/101/4
f 73/101/4 41/51/4 37/42/5 70/94/5
f 70/94/5 37/42/5 38/44/6 69/91/6
f 36/40/7 65/83/7 66/85/8 35/38/8
f 35/38/8 66/85/8 74/103/9 42/53/9
f 42/53/9 74/103/9 75/105/10 43/55/10
f 43/55/10 75/105/10 69/92/6 38/45/6
f 33/33/11 72/98/11 76/107/12 44/57/12
f 44/57/12 76/107/12 77/109/13 45/59/13
f 45/59/13 77/109/13 78/111/14 46/61/14
f 46/61/14 78/111/14 65/83/7 36/40/7
f 39/47/2 68/89/2 79/113/15 47/63/15
f 47/63/15 79/113/15 80/115/16 48/65/16
f 48/65/16 80/115/16 71/96/17 34/36/17
f 34/36/17 71/96/17 72/99/11 33/34/11
f 7/7/18 8/8/18 9/9/18 10/10/18 23/23/18 25/25/18 26/26/18 27/27/18 24/24/18 16/16/18 17/17/18 18/18/18 15/15/18 1/1/18 2/2/18 3/3/18
f 49/67/1 50/68/1 34/37/1 33/35/1
f 51/69/1 52/70/1 36/41/1 35/39/1
f 53/71/1 54/72/1 38/46/1 37/43/1
f 55/73/1 56/74/1 40/50/1 39/48/1
f 56/74/1 57/75/1 41/52/1 40/50/1
f 57/75/1 53/71/1 37/43/1 41/52/1
f 58/76/1 51/69/1 35/39/1 42/54/1
f 59/77/1 58/76/1 42/54/1 43/56/1
f 54/72/1 59/77/1 43/56/1 38/46/1
f 60/78/1 49/67/1 33/35/1 44/58/1
f 61/79/1 60/78/1 44/58/1 45/60/1
f 62/80/1 61/79/1 45/60/1 46/62/1
f 52/70/1 62/80/1 46/62/1 36/41/1
f 63/81/1 55/73/1 39/48/1 47/64/1
f 64/82/1 63/81/1 47/64/1 48/66/1
f 50/68/1 64/82/1 48/66/1 34/37/1
f 28/28/19 22/22/20 50/68/20 49/67/19
f 12/12/21 29/29/22 52/70/22 51/69/21
f 4/4/23 11/11/24 54/72/24 53/71/23
f 19/19/25 6/6/26 56/74/26 55/73/25
f 6/6/26 5/5/27 57/75/27 56/74/26
f 5/5/27 4/4/23 53/71/23 57/75/27
f 13/13/28 12/12/21 51/69/21 58/76/28
f 14/14/29 13/13/28 58/76/28 59/77/29
f 11/11/24 14/14/29 59/77/29 54/72/24
f 30/30/30 28/28/19 49/67/19 60/78/30
f 31/31/31 30/30/30 60/78/30 61/79/31
f 32/32/32 31/31/31 61/79/31 62/80/32
f 29/29/22 32/32/32 62/80/32 52/70/22
f 20/20/33 19/19/25 55/73/25 63/81/33
f 21/21/34 20/20/33 63/81/33 64/82/34
f 22/22/20 21/21/34 64/82/34 50/68/20
f 81/117/18 82/118/18 66/86/18 65/84/18
f 83/119/18 84/120/18 68/90/18 67/88/18
f 85/121/18 86/122/18 70/95/18 69/93/18
f 87/123/18 88/124/18 72/100/18 71/97/18
f 89/125/18 83/119/18 67/88/18 73/102/18
f 86/122/18 89/125/18 73/102/18 70/95/18
f 82/118/18 90/126/18 74/104/18 66/86/18
f 90/126/18 91/127/18 75/106/18 74/104/18
f 91/127/18 85/121/18 69/93/18 75/106/18
f 88/124/18 92/128/18 76/108/18 72/100/18
f 92/128/18 93/129/18 77/110/18 76/108/18
f 93/129/18 94/130/18 78/112/18 77/110/18
f 94/130/18 81/117/18 65/84/18 78/112/18
f 84/120/18 95/131/18 79/114/18 68/90/18
f 95/131/18 96/132/18 80/116/18 79/114/18
f 96/132/18 87/123/18 71/97/18 80/116/18
f 23/23/35 10/10/36 82/118/36 81/117/35
f 1/1/37 15/15/38 84/120/38 83/119/37
f 7/7/39 3/3/40 86/122/40 85/121/39
f 16/16/41 24/24/42 88/124/42 87/123/41
f 2/2/43 1/1/37 83/119/37 89/125/43
f 3/3/40 2/2/43 89/125/43 86/122/40
f 10/10/36 9/9/44 90/126/44 82/118/36
f 9/9/44 8/8/45 91/127/45 90/126/44
f 8/8/45 7/7/39 85/121/39 91/127/45
f 24/24/42 27/27/46 92/128/46 88/124/42
f 27/27/46 26/26/47 93/129/47 92/128/46
f 26/26/47 25/25/48 94/130/48 93/129/47
f 25/25/48 23/23/35 81/117/35 94/130/48
f 15/15/38 18/18/49 95/131/49 84/120/38
f 18/18/49 17/17/50 96/132/50 95/131/49
f 17/17/50 16/16/41 87/123/41 96/132/50
