# Blender 3.4.0
# www.blender.org
mtllib pipe_mx_1.mtl
o pipe_mx_1
v -0.004341 0.024619 -0.064062
v 0.008551 0.023491 -0.064062
v -0.016070 0.019150 -0.064062
v 0.023492 -0.008551 -0.064062
v 0.016070 -0.019152 -0.064062
v -0.019151 -0.016071 -0.064062
v -0.024620 -0.004342 -0.064062
v -0.008550 -0.023493 -0.064062
v -0.023492 0.008550 -0.064062
v 0.019151 0.016069 -0.064062
v 0.024620 0.004340 -0.064062
v 0.004341 -0.024621 -0.064062
v -0.004341 0.024619 -0.090937
v -0.016070 0.019150 -0.090937
v 0.023492 -0.008551 -0.090937
v -0.019151 -0.016071 -0.090937
v -0.008550 -0.023493 -0.090937
v 0.019151 0.016069 -0.090937
v 0.004341 -0.024621 -0.090937
v 0.008551 0.023491 -0.090937
v 0.016070 -0.019152 -0.090937
v -0.024620 -0.004342 -0.090937
v -0.023492 0.008550 -0.090937
v 0.024620 0.004340 -0.090937
v 0.010688 0.029364 -0.064062
v 0.020087 -0.023940 -0.064062
v -0.030775 -0.005428 -0.064062
v -0.029365 0.010687 -0.064062
v 0.030775 0.005425 -0.064062
v -0.005426 0.030774 -0.064062
v -0.020087 0.023938 -0.064062
v 0.029366 -0.010689 -0.064062
v -0.023939 -0.020088 -0.064062
v -0.010688 -0.029366 -0.064062
v 0.023939 0.020086 -0.064062
v 0.005427 -0.030776 -0.064062
v -0.005426 0.030774 -0.090937
v -0.020087 0.023938 -0.090937
v 0.029366 -0.010689 -0.090937
v -0.023939 -0.020088 -0.090937
v -0.010688 -0.029366 -0.090937
v 0.023939 0.020086 -0.090937
v 0.005427 -0.030776 -0.090937
v 0.010688 0.029364 -0.090937
v 0.020087 -0.023940 -0.090937
v -0.030775 -0.005428 -0.090937
v -0.029365 0.010687 -0.090937
v 0.030775 0.005425 -0.090937
v 0.023492 -0.008551 0.123756
v 0.021315 -0.011661 0.138576
v 0.024085 -0.001778 0.128550
v 0.018628 -0.006781 0.122958
v 0.017043 -0.009044 0.135405
v 0.019079 -0.001626 0.128635
v -0.016903 0.009243 0.139418
v -0.016039 0.010477 0.130475
v -0.016622 0.009644 0.116753
v -0.014659 0.012448 0.132376
v -0.015099 0.011820 0.143966
v -0.022711 0.010650 0.136024
v -0.021971 0.011705 0.125372
v -0.021142 0.011907 0.113920
v -0.020314 0.013089 0.121349
v -0.022045 0.013894 0.135823
v -0.012742 0.015185 -0.143783
v -0.003442 0.019522 -0.141830
v 0.008551 0.023491 -0.143390
v -0.004341 0.024619 -0.141377
v 0.018628 -0.006781 -0.146152
v 0.012743 -0.015187 -0.141504
v 0.019523 0.003442 -0.141419
v -0.016070 0.019150 -0.143390
v -0.015186 -0.012743 -0.144306
v -0.019522 -0.003443 -0.145285
v -0.018628 0.006779 -0.140150
v 0.016070 -0.019152 -0.141896
v 0.023492 -0.008551 -0.146378
v -0.019151 -0.016071 -0.144533
v -0.008550 -0.023493 -0.147179
v -0.024620 -0.004342 -0.145285
v -0.023492 0.008550 -0.139923
v 0.006780 0.018627 -0.143783
v 0.015186 0.012742 -0.138472
v 0.024620 0.004340 -0.141419
v 0.019151 0.016069 -0.138246
v 0.003442 -0.019523 -0.144589
v 0.004341 -0.024621 -0.145041
v -0.006780 -0.018629 -0.146787
v -0.003442 0.019522 0.148754
v -0.012742 0.015185 0.145481
v 0.012743 -0.015187 0.146834
v 0.016548 -0.009752 0.144056
v -0.019522 -0.003443 0.147725
v -0.015186 -0.012743 0.147210
v 0.019523 0.003442 0.142658
v 0.024620 0.004341 0.142658
v -0.018628 0.006778 0.143805
v 0.006780 0.018627 0.143675
v 0.015186 0.012742 0.148239
v 0.003442 -0.019523 0.146696
v -0.006780 -0.018629 0.146834
v 0.020889 -0.013546 0.143876
v -0.023492 0.008550 0.143940
v 0.004341 -0.024621 0.146427
v 0.016070 -0.019152 0.146601
v -0.008550 -0.023493 0.146601
v 0.019151 0.016069 0.148374
v 0.008551 0.023491 0.143908
v -0.024620 -0.004342 0.147725
v -0.019151 -0.016071 0.147076
v -0.004341 0.024619 0.149022
v -0.016070 0.019152 0.145714
vn 0.1736 -0.9848 -0.0000
vn 0.1904 -0.9817 -0.0000
vn 0.5979 -0.8015 -0.0000
vn 0.6308 -0.7760 -0.0000
vn -0.1736 0.9848 -0.0000
vn 0.3420 0.9397 -0.0000
vn 0.3203 0.9473 -0.0000
vn -0.1964 -0.9805 -0.0097
vn -0.4657 -0.8686 0.1694
vn -0.2428 -0.9699 0.0199
vn -0.8192 0.5736 -0.0000
vn -0.9304 0.3665 -0.0000
vn -0.9394 0.3428 -0.0000
vn -0.6498 0.7601 -0.0000
vn -0.6136 0.7896 -0.0000
vn 0.4085 0.8870 0.2154
vn 0.4811 0.8532 0.2015
vn 0.3398 0.9127 0.2268
vn -0.9962 0.0871 -0.0000
vn -0.9348 -0.3551 -0.0000
vn -0.9932 -0.1164 -0.0000
vn -0.6347 0.7728 -0.0000
vn -0.6428 0.7660 -0.0000
vn 0.7708 0.6371 -0.0000
vn 0.7590 0.6511 -0.0000
vn 0.9774 0.2112 -0.0000
vn 0.9790 0.2040 -0.0000
vn -0.0568 -0.8127 0.5800
vn -0.0537 -0.8161 0.5753
vn 0.0717 -0.9277 0.3664
vn 0.9425 -0.3341 -0.0000
vn 0.9782 -0.2075 -0.0000
vn 0.9385 -0.3454 -0.0000
vn 0.9397 -0.3420 -0.0000
vn 0.6428 -0.7660 -0.0000
vn 0.6480 -0.7616 -0.0000
vn -0.7660 -0.6428 -0.0000
vn -0.9848 -0.1736 -0.0000
vn -0.9785 -0.2064 -0.0000
vn -0.7587 -0.6514 -0.0000
vn -0.3420 -0.9397 -0.0000
vn -0.3386 -0.9409 -0.0000
vn 0.8192 -0.5736 -0.0000
vn -0.9397 0.3420 -0.0000
vn -0.9428 0.3333 -0.0000
vn -0.3394 -0.9406 -0.0000
vn -0.3124 -0.9499 -0.0000
vn -0.7572 -0.6532 -0.0000
vn -0.7598 -0.6501 -0.0000
vn 0.7597 0.6503 -0.0000
vn 0.7660 0.6428 -0.0000
vn 0.9848 0.1736 -0.0000
vn 0.9922 0.1245 -0.0000
vn -0.1302 0.9915 -0.0000
vn 0.1390 -0.9903 -0.0000
vn 0.3460 0.9382 -0.0000
vn 0.3396 0.9406 -0.0000
vn 0.5436 0.8180 0.1879
vn -0.4960 0.8682 -0.0179
vn -0.7971 0.6038 -0.0114
vn -0.5461 0.8303 -0.1115
vn 0.5992 -0.8002 -0.0265
vn -0.3460 -0.9382 -0.0000
vn 0.7600 0.6499 -0.0000
vn 0.3391 0.9407 -0.0000
vn 0.9397 0.3419 -0.0000
vn 0.9848 0.1737 -0.0000
vn -0.9928 0.1196 -0.0046
vn -0.9807 -0.1956 -0.0000
vn -0.7708 -0.6371 -0.0000
vn 0.9263 -0.3768 -0.0000
vn -0.1868 0.9824 -0.0000
vn -0.0000 -0.0000 -1.0000
vn -0.0000 -0.0000 1.0000
vn -0.1787 -0.6402 0.7471
vn 0.9962 -0.0872 -0.0000
vn -0.6794 -0.2541 0.6884
vn -0.4720 -0.2147 0.8551
vn -0.4860 -0.2176 0.8464
vn -0.5179 -0.8302 0.2063
vn 0.3306 0.9435 -0.0205
vn 0.2732 0.9617 0.0228
vn 0.1868 0.9787 0.0856
vn 0.1412 0.9666 0.2138
vn 0.1489 0.9485 0.2795
vn 0.1589 0.9146 0.3717
vn 0.0251 0.1339 0.9907
vn 0.0249 0.1323 0.9909
vn 0.0402 0.3128 0.9490
vn 0.0887 -0.1263 0.9880
vn 0.0898 -0.1261 0.9879
vn -0.0764 -0.1207 0.9897
vn -0.3165 0.1799 0.9314
vn -0.0776 -0.1194 0.9898
vn 0.1508 0.0932 0.9842
vn 0.0090 -0.0510 0.9987
vn 0.1587 0.1014 0.9821
vn 0.1740 -0.4018 0.8990
vn 0.3963 -0.0807 0.9146
vn 0.2891 0.2365 0.9276
vn -0.9933 0.0959 -0.0650
vn -0.8781 0.4783 -0.0148
vn 0.8015 -0.5970 -0.0334
vn 0.6969 -0.6915 -0.1900
vn -0.0286 -0.0426 -0.9987
vn -0.1304 0.0637 -0.9894
vn -0.1303 0.0639 -0.9894
vn -0.0313 -0.0453 -0.9985
vn 0.1482 0.0265 -0.9886
vn 0.1470 0.0277 -0.9888
vn 0.1057 -0.0462 -0.9933
vn 0.1126 -0.0500 -0.9924
vn -0.0217 0.1230 -0.9922
vn -0.0499 -0.0294 -0.9983
vn -0.0518 -0.0315 -0.9982
vn 0.0345 0.1844 -0.9822
vn 0.0348 0.1808 -0.9829
vn -0.0451 0.0578 -0.9973
vn -0.0459 0.0587 -0.9972
vn -0.0379 0.3141 -0.9486
vn -0.0375 0.3146 -0.9485
vn -0.1065 0.1089 -0.9883
vn -0.1060 0.1103 -0.9882
vn 0.0242 0.1216 -0.9923
vn 0.0243 0.1215 -0.9923
vn 0.1951 0.1256 -0.9727
vn 0.1950 0.1242 -0.9729
vt 0.471224 0.554924
vt 0.433565 0.572823
vt 0.489742 0.554924
vt 0.424306 0.588860
vt 0.449603 0.563563
vt 0.452705 0.554924
vt 0.449603 0.632675
vt 0.545298 0.554924
vt 0.563816 0.554924
vt 0.468121 0.632675
vt 0.619372 0.554924
vt 0.493418 0.588860
vt 0.415668 0.554924
vt 0.637890 0.554924
vt 0.484159 0.572823
vt 0.600853 0.554924
vt 0.493418 0.607379
vt 0.468121 0.563563
vt 0.434187 0.554924
vt 0.508261 0.554924
vt 0.424306 0.607379
vt 0.433565 0.623416
vt 0.526779 0.554924
vt 0.582335 0.554924
vt 0.484159 0.623416
vt 0.718372 0.305556
vt 0.519955 0.572823
vt 0.718372 0.287037
vt 0.510696 0.588860
vt 0.718372 0.379630
vt 0.579808 0.588860
vt 0.718372 0.453704
vt 0.535993 0.632675
vt 0.718372 0.435185
vt 0.554511 0.632675
vt 0.718372 0.342593
vt 0.554511 0.563563
vt 0.718372 0.416667
vt 0.570549 0.623416
vt 0.718372 0.324074
vt 0.535993 0.563563
vt 0.718372 0.398148
vt 0.579808 0.607379
vt 0.718372 0.472222
vt 0.718372 0.250000
vt 0.519955 0.623416
vt 0.718372 0.268519
vt 0.510696 0.607379
vt 0.718372 0.361111
vt 0.570549 0.572823
vt 0.415667 0.586545
vt 0.676349 0.564815
vt 0.470436 0.641315
vt 0.676349 0.657408
vt 0.490483 0.566499
vt 0.676349 0.750000
vt 0.676349 0.472222
vt 0.470436 0.554924
vt 0.676349 0.495371
vt 0.427241 0.629740
vt 0.676349 0.611111
vt 0.427241 0.566499
vt 0.676349 0.541667
vt 0.447288 0.554924
vt 0.676349 0.518519
vt 0.447288 0.641315
vt 0.676349 0.634259
vt 0.502057 0.586545
vt 0.676349 0.726852
vt 0.502057 0.609694
vt 0.676349 0.703704
vt 0.415667 0.609694
vt 0.676349 0.587963
vt 0.490483 0.629740
vt 0.676349 0.680556
vt 0.513631 0.566499
vt 0.637890 0.541667
vt 0.502057 0.586545
vt 0.637890 0.518519
vt 0.588447 0.586545
vt 0.637890 0.634259
vt 0.533678 0.641315
vt 0.637890 0.726852
vt 0.556826 0.641315
vt 0.637890 0.703704
vt 0.556826 0.554924
vt 0.637890 0.587963
vt 0.576873 0.629740
vt 0.637890 0.680556
vt 0.533678 0.554924
vt 0.637890 0.564815
vt 0.588447 0.609694
vt 0.637890 0.657408
vt 0.513631 0.629740
vt 0.637890 0.750000
vt 0.637890 0.472222
vt 0.502057 0.609694
vt 0.637890 0.495371
vt 0.576873 0.566499
vt 0.637890 0.611111
vt 0.630382 0.584818
vt 0.545298 0.286156
vt 0.629625 0.562939
vt 0.550731 0.264949
vt 0.630366 0.596723
vt 0.535568 0.279295
vt 0.254143 0.636005
vt 0.622941 0.585716
vt 0.258097 0.653817
vt 0.622457 0.567476
vt 0.246738 0.644129
vt 0.623199 0.596706
vt 0.346551 0.659559
vt 0.620086 0.637439
vt 0.348707 0.646761
vt 0.614211 0.649011
vt 0.347252 0.627126
vt 0.603574 0.665580
vt 0.352150 0.649482
vt 0.614418 0.685734
vt 0.351053 0.666067
vt 0.621014 0.700991
vt 0.610254 0.637238
vt 0.437489 0.268573
vt 0.603015 0.650778
vt 0.439361 0.283813
vt 0.595288 0.665281
vt 0.440050 0.300231
vt 0.600409 0.674823
vt 0.442116 0.289601
vt 0.441125 0.268733
vt 0.606720 0.694738
vt 0.356931 0.254299
vt 0.538089 0.648723
vt 0.371615 0.257093
vt 0.552827 0.651217
vt 0.643312 0.324074
vt 0.570177 0.656764
vt 0.646193 0.305556
vt 0.556009 0.644496
vt 0.254142 0.250909
vt 0.559863 0.704644
vt 0.268826 0.257560
vt 0.545260 0.711472
vt 0.239457 0.257682
vt 0.415667 0.257681
vt 0.569041 0.691330
vt 0.643312 0.287037
vt 0.537539 0.641315
vt 0.312878 0.253549
vt 0.509422 0.691037
vt 0.327562 0.252149
vt 0.509235 0.676288
vt 0.512026 0.665286
vt 0.342247 0.259497
vt 0.523180 0.653236
vt 0.645450 0.398148
vt 0.546969 0.718702
vt 0.639036 0.379630
vt 0.564669 0.710289
vt 0.641677 0.453704
vt 0.502273 0.693006
vt 0.637890 0.435185
vt 0.511575 0.709460
vt 0.640601 0.472222
vt 0.640601 0.250000
vt 0.502057 0.674457
vt 0.505573 0.661649
vt 0.648273 0.268519
vt 0.519220 0.646967
vt 0.386299 0.254299
vt 0.564099 0.661034
vt 0.400983 0.261898
vt 0.570793 0.676153
vt 0.646133 0.361111
vt 0.575957 0.693983
vt 0.650674 0.342592
vt 0.578123 0.675039
vt 0.283510 0.253146
vt 0.529927 0.711545
vt 0.640949 0.416667
vt 0.527911 0.718702
vt 0.298194 0.250000
vt 0.516825 0.704206
vt 0.371616 0.672918
vt 0.687431 0.489597
vt 0.356931 0.668236
vt 0.622343 0.707114
vt 0.698076 0.478452
vt 0.268827 0.670171
vt 0.612265 0.564924
vt 0.259333 0.666196
vt 0.622343 0.555036
vt 0.622343 0.562831
vt 0.327563 0.671446
vt 0.607661 0.613858
vt 0.312879 0.670710
vt 0.598287 0.602531
vt 0.239458 0.664196
vt 0.623221 0.618052
vt 0.415667 0.664195
vt 0.698076 0.533874
vt 0.630597 0.618740
vt 0.526778 0.259107
vt 0.693756 0.539890
vt 0.342247 0.665837
vt 0.622343 0.630169
vt 0.622343 0.619470
vt 0.386300 0.665651
vt 0.683763 0.505565
vt 0.400984 0.672182
vt 0.687072 0.521292
vt 0.283511 0.669974
vt 0.600945 0.574279
vt 0.298195 0.670171
vt 0.595829 0.588044
vt 0.630597 0.554924
vt 0.619969 0.554924
vt 0.553201 0.257263
vt 0.615733 0.626818
vt 0.621379 0.626818
vt 0.434186 0.257274
vt 0.582335 0.253714
vt 0.594900 0.569981
vt 0.609176 0.558183
vt 0.563816 0.253465
vt 0.600853 0.253465
vt 0.588447 0.587341
vt 0.508261 0.250928
vt 0.680456 0.524629
vt 0.489742 0.257319
vt 0.676349 0.505474
vt 0.415667 0.251857
vt 0.637890 0.251857
vt 0.603369 0.619896
vt 0.619372 0.252785
vt 0.591547 0.605611
vt 0.471224 0.250000
vt 0.680896 0.486088
vt 0.615747 0.710505
vt 0.694052 0.472222
vt 0.452706 0.254734
s 1
usemtl metal_hr_6
f 66/135/1 89/185/2 90/187/3 65/133/4
f 68/139/5 13/26/5 20/40/6 67/137/7
f 64/132/8 63/129/9 58/120/10 59/122/8
f 53/109/11 52/107/12 69/141/13 70/143/14 91/190/15 92/192/11
f 53/110/16 50/103/17 49/101/18 52/108/18
f 69/141/13 52/107/12 54/111/19 95/199/20 71/145/21
f 72/148/22 14/28/23 13/26/5 68/139/5
f 94/197/24 73/150/25 74/152/26 93/195/27
f 54/112/28 51/105/29 96/203/30 95/200/30
f 93/195/27 74/152/26 75/155/31 97/206/32
f 77/159/33 15/30/34 21/42/35 76/157/36
f 16/32/37 22/44/38 80/165/39 78/161/40
f 17/34/41 16/32/37 78/161/40 79/163/42
f 90/187/3 59/121/43 58/119/43 57/117/43 56/115/43 55/113/43 97/206/32 75/155/31 65/133/4
f 80/166/39 22/45/38 23/47/44 81/169/45
f 98/209/46 82/171/47 83/173/48 99/211/49
f 85/177/50 18/36/51 24/49/52 84/175/53
f 67/137/7 20/40/6 18/36/51 85/177/50
f 66/135/1 82/171/47 98/209/46 89/185/2
f 91/190/15 70/143/14 86/179/54 100/213/5
f 87/181/55 19/38/1 17/34/41 79/163/42
f 101/215/56 88/183/57 73/150/25 94/197/24
f 99/211/49 83/173/48 71/146/21 95/201/20
f 76/157/36 21/42/35 19/38/1 87/181/55
f 81/169/45 23/47/44 14/28/23 72/148/22
f 84/175/53 24/49/52 15/30/34 77/159/33
f 100/213/5 86/179/54 88/183/57 101/215/56
f 102/217/58 50/103/17 53/110/16 92/193/58
f 112/242/59 63/130/60 64/131/61
f 104/223/1 12/24/1 5/9/35 105/226/62
f 8/16/41 12/24/1 104/223/1 106/227/63
f 107/229/64 10/20/51 2/3/6 108/231/65
f 96/204/66 11/23/67 10/20/51 107/229/64
f 103/222/68 9/19/44 7/13/38 109/233/69
f 110/236/70 6/11/37 8/16/41 106/227/63
f 109/234/69 7/14/38 6/11/37 110/236/70
f 105/226/62 5/9/35 4/8/34 49/102/71
f 111/238/72 1/1/5 3/6/23 112/242/59
f 2/3/6 1/1/5 111/238/72 108/231/65
f 39/80/73 15/31/73 24/50/73 48/99/73
f 38/78/73 14/29/73 23/48/73 47/97/73
f 43/88/73 19/39/73 21/43/73 45/92/73
f 41/84/73 17/35/73 19/39/73 43/88/73
f 42/86/73 18/37/73 20/41/73 44/90/73
f 48/99/73 24/50/73 18/37/73 42/86/73
f 47/97/73 23/48/73 22/46/73 46/94/73
f 40/82/73 16/33/73 17/35/73 41/84/73
f 46/94/73 22/46/73 16/33/73 40/82/73
f 45/92/73 21/43/73 15/31/73 39/80/73
f 37/76/73 13/27/73 14/29/73 38/78/73
f 44/90/73 20/41/73 13/27/73 37/76/73
f 4/7/74 32/66/74 29/60/74 11/22/74
f 3/5/74 31/64/74 28/58/74 9/18/74
f 12/25/74 36/74/74 26/53/74 5/10/74
f 8/17/74 34/70/74 36/74/74 12/25/74
f 10/21/74 35/72/74 25/51/74 2/4/74
f 11/22/74 29/60/74 35/72/74 10/21/74
f 9/18/74 28/58/74 27/55/74 7/15/74
f 6/12/74 33/68/74 34/70/74 8/17/74
f 7/15/74 27/55/74 33/68/74 6/12/74
f 5/10/74 26/53/74 32/66/74 4/7/74
f 1/2/74 30/62/74 31/64/74 3/5/74
f 2/4/74 25/51/74 30/62/74 1/2/74
f 30/63/5 37/77/5 38/79/23 31/65/23
f 26/54/35 45/93/35 39/81/34 32/67/34
f 27/56/38 46/95/38 40/83/37 33/69/37
f 33/69/37 40/83/37 41/85/41 34/71/41
f 28/59/44 47/98/44 46/96/38 27/57/38
f 29/61/52 48/100/52 42/87/51 35/73/51
f 35/73/51 42/87/51 44/91/6 25/52/6
f 34/71/41 41/85/41 43/89/1 36/75/1
f 36/75/1 43/89/1 45/93/35 26/54/35
f 31/65/23 38/79/23 47/98/44 28/59/44
f 32/67/34 39/81/34 48/100/52 29/61/52
f 25/52/6 44/91/6 37/77/5 30/63/5
f 52/108/75 49/101/75 51/105/29 54/112/28
f 96/204/66 51/106/76 49/102/71 4/8/34 11/23/67
f 59/122/77 90/188/78 112/240/79 64/132/77
f 58/120/10 63/129/9 62/127/80 57/118/80
f 57/118/81 62/127/81 61/125/82 56/116/83
f 56/116/83 61/125/82 60/123/84 55/114/85
f 55/114/85 60/123/84 103/220/86 97/207/86
f 103/222/68 60/124/101 61/126/101 62/128/102
f 9/19/44 103/222/68 62/128/102 63/130/60 112/242/59 3/6/23
f 105/226/62 49/102/71 50/104/103
f 102/219/104 105/226/62 50/104/103
usemtl 
f 109/235/87 93/196/88 97/208/89 103/221/89
f 89/186/90 111/239/91 112/241/79 90/189/78
f 107/230/92 108/232/93 98/210/93 99/212/94
f 91/191/95 100/214/96 104/224/96 105/225/97
f 96/205/98 107/230/92 99/212/94 95/202/98
f 98/210/99 108/232/99 111/239/91 89/186/90
f 92/194/100 91/191/95 105/225/97 102/218/100
f 110/237/96 94/198/96 93/196/88 109/235/87
f 106/228/96 101/216/96 94/198/96 110/237/96
f 104/224/96 100/214/96 101/216/96 106/228/96
f 70/144/105 69/142/106 77/160/107 76/158/108
f 85/178/109 83/174/110 82/172/111 67/138/112
f 66/136/113 65/134/114 72/149/115 68/140/113
f 80/167/116 74/153/117 73/151/118 78/162/119
f 71/147/120 84/176/121 77/160/107 69/142/106
f 71/147/120 83/174/110 85/178/109 84/176/121
f 67/138/112 82/172/111 66/136/113 68/140/113
f 75/156/122 81/170/123 72/149/115 65/134/114
f 78/162/119 73/151/118 88/184/124 79/164/125
f 79/164/125 88/184/124 86/180/126 87/182/127
f 75/156/122 74/154/117 80/168/116 81/170/123
f 70/144/105 76/158/108 87/182/127 86/180/126
