# Blender 3.4.0
# www.blender.org
mtllib shelf_mx_5_2.mtl
o shelf_mx_5_2
v -0.497001 0.170001 0.197000
v -0.500001 0.200001 0.200000
v -0.497001 0.170001 -0.197000
v -0.500001 0.200001 -0.200000
v 0.496999 0.170001 0.197000
v 0.499999 0.200001 0.200000
v 0.496999 0.170001 -0.197000
v 0.499999 0.200001 -0.200000
v -0.500001 0.170001 -0.200000
v -0.500001 0.170001 0.200000
v 0.499999 0.170001 -0.200000
v 0.499999 0.170001 0.200000
v -0.497001 0.197001 -0.197000
v -0.497001 0.197001 0.197000
v 0.496999 0.197001 -0.197000
v 0.496999 0.197001 0.197000
v -0.509999 0.000000 -0.160000
v -0.509999 1.810000 -0.160000
v -0.499999 0.000000 -0.160000
v -0.499999 1.810000 -0.160000
v -0.499999 0.000000 -0.200000
v -0.499999 1.810000 -0.200000
v -0.509999 0.000000 -0.210000
v -0.509999 1.810000 -0.210000
v -0.459999 0.000000 -0.200000
v -0.459999 1.810000 -0.200000
v -0.459999 0.000000 -0.210000
v -0.459999 1.810000 -0.210000
v -0.460000 0.000000 0.209999
v -0.460000 1.810000 0.209999
v -0.460000 0.000000 0.199999
v -0.460000 1.810000 0.199999
v -0.500000 0.000000 0.199999
v -0.500000 1.810000 0.199999
v -0.510000 0.000000 0.209999
v -0.510000 1.810000 0.209999
v -0.500000 0.000000 0.159999
v -0.500000 1.810000 0.159999
v -0.510000 0.000000 0.159999
v -0.510000 1.810000 0.159999
v 0.510000 0.000000 0.160000
v 0.510000 1.810000 0.160000
v 0.500000 0.000000 0.160000
v 0.500000 1.810000 0.160000
v 0.500000 0.000000 0.200000
v 0.500000 1.810000 0.200000
v 0.510000 0.000000 0.210000
v 0.510000 1.810000 0.210000
v 0.460000 0.000000 0.200000
v 0.460000 1.810000 0.200000
v 0.460000 0.000000 0.210000
v 0.460000 1.810000 0.210000
v 0.460000 0.000000 -0.209999
v 0.460000 1.810000 -0.209999
v 0.460000 0.000000 -0.199999
v 0.460000 1.810000 -0.199999
v 0.500000 0.000000 -0.199999
v 0.500000 1.810000 -0.199999
v 0.510000 0.000000 -0.209999
v 0.510000 1.810000 -0.209999
v 0.500000 0.000000 -0.159999
v 0.500000 1.810000 -0.159999
v 0.510000 0.000000 -0.159999
v 0.510000 1.810000 -0.159999
v -0.497001 1.770001 0.197000
v -0.500001 1.800001 0.200000
v -0.497001 1.770001 -0.197000
v -0.500001 1.800001 -0.200000
v 0.496999 1.770001 0.197000
v 0.499999 1.800001 0.200000
v 0.496999 1.770001 -0.197000
v 0.499999 1.800001 -0.200000
v -0.500001 1.770001 -0.200000
v -0.500001 1.770001 0.200000
v 0.499999 1.770001 -0.200000
v 0.499999 1.770001 0.200000
v -0.497001 1.797001 -0.197000
v -0.497001 1.797001 0.197000
v 0.496999 1.797001 -0.197000
v 0.496999 1.797001 0.197000
v -0.497001 0.570000 0.197000
v -0.500001 0.600000 0.200000
v -0.497001 0.570000 -0.197000
v -0.500001 0.600000 -0.200000
v 0.496999 0.570000 0.197000
v 0.499999 0.600000 0.200000
v 0.496999 0.570000 -0.197000
v 0.499999 0.600000 -0.200000
v -0.500001 0.570000 -0.200000
v -0.500001 0.570000 0.200000
v 0.499999 0.570000 -0.200000
v 0.499999 0.570000 0.200000
v -0.497001 0.597000 -0.197000
v -0.497001 0.597000 0.197000
v 0.496999 0.597000 -0.197000
v 0.496999 0.597000 0.197000
v -0.497001 0.970001 0.197000
v -0.500001 1.000001 0.200000
v -0.497001 0.970001 -0.197000
v -0.500001 1.000001 -0.200000
v 0.496999 0.970001 0.197000
v 0.499999 1.000001 0.200000
v 0.496999 0.970001 -0.197000
v 0.499999 1.000001 -0.200000
v -0.500001 0.970001 -0.200000
v -0.500001 0.970001 0.200000
v 0.499999 0.970001 -0.200000
v 0.499999 0.970001 0.200000
v -0.497001 0.997001 -0.197000
v -0.497001 0.997001 0.197000
v 0.496999 0.997001 -0.197000
v 0.496999 0.997001 0.197000
v -0.497001 1.369999 0.197000
v -0.500001 1.399999 0.200000
v -0.497001 1.369999 -0.197000
v -0.500001 1.399999 -0.200000
v 0.496999 1.369999 0.197000
v 0.499999 1.399999 0.200000
v 0.496999 1.369999 -0.197000
v 0.499999 1.399999 -0.200000
v -0.500001 1.369999 -0.200000
v -0.500001 1.369999 0.200000
v 0.499999 1.369999 -0.200000
v 0.499999 1.369999 0.200000
v -0.497001 1.396999 -0.197000
v -0.497001 1.396999 0.197000
v 0.496999 1.396999 -0.197000
v 0.496999 1.396999 0.197000
vn -1.0000 -0.0000 -0.0000
vn -0.0000 -0.0000 -1.0000
vn 1.0000 -0.0000 -0.0000
vn -0.0000 -0.0000 1.0000
vn -0.0000 1.0000 -0.0000
vn -0.0000 -1.0000 -0.0000
vn -0.0001 -1.0000 -0.0000
vn 0.0001 -1.0000 -0.0000
vt -0.247217 0.990625
vt 0.294189 0.505469
vt -0.247217 0.505469
vt 0.290674 0.533594
vt -0.250732 0.533594
vt -0.250732 0.987109
vt -0.247217 1.342188
vt 0.645752 0.505469
vt -0.247217 0.505469
vt 0.649268 0.533594
vt -0.250732 0.533594
vt -0.250732 1.345703
vt 0.294189 0.505469
vt 0.647243 0.990625
vt 0.647243 0.505469
vt 0.290674 0.533594
vt 0.650146 0.533594
vt 0.650146 0.987109
vt 0.645752 0.505469
vt 0.647243 1.342188
vt 0.647243 0.505469
vt 0.650146 0.533594
vt 0.649268 0.533594
vt 0.650146 1.345703
vt 0.649268 0.505469
vt -0.250732 0.505469
vt -0.250732 1.345703
vt 0.290674 0.505469
vt -0.250732 0.505469
vt -0.250732 0.987109
vt 0.650146 0.505469
vt 0.649268 0.505469
vt 0.650146 1.345703
vt 0.290674 0.505469
vt 0.650146 0.505469
vt 0.650146 0.987109
vt -0.247217 1.342188
vt 0.645752 0.530078
vt -0.247217 0.530078
vt -0.247217 0.990625
vt 0.294189 0.530078
vt -0.247217 0.530078
vt 0.645752 0.530078
vt 0.647243 1.342188
vt 0.647243 0.530078
vt 0.294189 0.530078
vt 0.647243 0.990625
vt 0.647243 0.530078
vt 0.163971 0.405074
vt -0.257764 -0.324219
vt 0.614111 -0.324219
vt -0.257764 1.307031
vt 0.163971 0.405074
vt 0.614111 1.307031
vt 0.169971 0.405074
vt 0.614111 -0.324219
vt -0.250732 -0.324219
vt 0.614111 1.307031
vt -0.250732 1.307031
vt 0.169971 0.405074
vt 0.169971 0.381074
vt 0.649268 -0.324219
vt -0.250732 -0.324219
vt 0.649268 1.307031
vt 0.169971 0.381074
vt -0.250732 1.307031
vt 0.163971 0.375074
vt -0.257764 -0.324219
vt 0.659814 -0.324219
vt 0.163971 0.375074
vt -0.257764 1.307031
vt 0.659814 1.307031
vt 0.193971 0.381074
vt 0.649268 -0.324219
vt -0.215576 -0.324219
vt 0.193971 0.381074
vt 0.649268 1.307031
vt -0.215576 1.307031
vt 0.193971 0.375074
vt 0.659814 -0.324219
vt -0.215576 -0.324219
vt 0.193971 0.375074
vt 0.659814 1.307031
vt -0.215576 1.307031
vt 0.193971 0.627074
vt 0.280127 -0.324219
vt -0.215576 -0.324219
vt 0.280127 1.307031
vt 0.193971 0.627074
vt -0.215576 1.307031
vt 0.193971 0.621074
vt -0.215576 -0.324219
vt 0.290674 -0.324219
vt -0.215576 1.307031
vt 0.290674 1.307031
vt 0.193971 0.621074
vt 0.169971 0.621074
vt -0.250732 -0.324219
vt 0.290674 -0.324219
vt -0.250732 1.307031
vt 0.169971 0.621074
vt 0.290674 1.307031
vt 0.163971 0.627074
vt 0.280127 -0.324219
vt -0.257764 -0.324219
vt 0.163971 0.627074
vt 0.280127 1.307031
vt -0.257764 1.307031
vt 0.169971 0.597074
vt -0.250732 -0.324219
vt 0.325830 -0.324219
vt 0.169971 0.597074
vt -0.250732 1.307031
vt 0.325830 1.307031
vt 0.163971 0.597074
vt -0.257764 -0.324219
vt 0.325830 -0.324219
vt 0.163971 0.597074
vt -0.257764 1.307031
vt 0.325830 1.307031
vt 0.775970 0.597074
vt 0.775827 -0.324219
vt 0.325830 -0.324219
vt 0.775827 1.307030
vt 0.775970 0.597074
vt 0.325830 1.307031
vt 0.769970 0.597074
vt 0.325830 -0.324219
vt 0.768799 -0.324219
vt 0.325830 1.307031
vt 0.768801 1.307034
vt 0.769970 0.597074
vt 0.769970 0.621074
vt 0.290674 -0.324219
vt 0.663331 -0.324219
vt 0.290674 1.307031
vt 0.769970 0.621074
vt 0.663331 1.307031
vt 0.775970 0.627074
vt 0.691456 -0.324219
vt 0.280127 -0.324219
vt 0.775970 0.627074
vt 0.691456 1.307031
vt 0.280127 1.307031
vt 0.745970 0.621074
vt 0.290674 -0.324219
vt 0.628176 -0.324219
vt 0.745970 0.621074
vt 0.290674 1.307031
vt 0.628176 1.307030
vt 0.745970 0.627074
vt 0.280127 -0.324219
vt 0.649268 -0.324219
vt 0.745970 0.627074
vt 0.280127 1.307031
vt 0.649269 1.307032
vt 0.745971 0.375075
vt 0.659814 -0.324219
vt 0.649268 -0.324219
vt 0.659814 1.307031
vt 0.745971 0.375075
vt 0.649269 1.307032
vt 0.745971 0.381075
vt 0.628173 -0.324219
vt 0.649268 -0.324219
vt 0.628173 1.307031
vt 0.649268 1.307031
vt 0.745971 0.381075
vt 0.769971 0.381075
vt 0.663329 -0.324219
vt 0.649268 -0.324219
vt 0.663329 1.307031
vt 0.769971 0.381075
vt 0.649268 1.307031
vt 0.775971 0.375075
vt 0.659814 -0.324219
vt 0.691456 -0.324219
vt 0.775971 0.375075
vt 0.659814 1.307031
vt 0.691455 1.307031
vt 0.769971 0.405075
vt 0.768801 -0.324219
vt 0.614113 -0.324219
vt 0.769971 0.405075
vt 0.768799 1.307035
vt 0.614111 1.307031
vt 0.775971 0.405075
vt 0.775827 -0.324219
vt 0.614111 -0.324219
vt 0.775971 0.405075
vt 0.775827 1.307031
vt 0.614111 1.307031
vt -0.022217 -0.134375
vt 0.519189 0.818359
vt -0.022217 0.818359
vt 0.515674 0.846484
vt -0.025732 0.846484
vt -0.025732 -0.137891
vt -0.022217 0.217187
vt 0.870752 0.818359
vt -0.022217 0.818359
vt 0.874268 0.846484
vt -0.025732 0.846484
vt -0.025732 0.220703
vt 0.519189 0.818359
vt 0.872243 -0.134375
vt 0.872243 0.818359
vt 0.515674 0.846484
vt 0.875147 0.846484
vt 0.875147 -0.137891
vt 0.870752 0.818359
vt 0.872243 0.217187
vt 0.872243 0.818359
vt 0.875147 0.846484
vt 0.874268 0.846484
vt 0.875147 0.220703
vt 0.874268 0.818359
vt -0.025732 0.818359
vt -0.025732 0.220703
vt 0.515674 0.818359
vt -0.025732 0.818359
vt -0.025732 -0.137891
vt 0.875147 0.818359
vt 0.874268 0.818359
vt 0.875147 0.220703
vt 0.515674 0.818359
vt 0.875147 0.818359
vt 0.875147 -0.137891
vt -0.022217 0.217187
vt 0.870752 0.842969
vt -0.022217 0.842969
vt -0.022217 -0.134375
vt 0.519189 0.842969
vt -0.022217 0.842969
vt 0.870752 0.842969
vt 0.872243 0.217187
vt 0.872243 0.842969
vt 0.519189 0.842969
vt 0.872243 -0.134375
vt 0.872243 0.842969
vt -0.472217 0.315625
vt 0.069189 0.189062
vt -0.472217 0.189062
vt 0.065674 0.217187
vt -0.475732 0.217187
vt -0.475732 0.312109
vt -0.472217 0.667187
vt 0.420752 0.189062
vt -0.472217 0.189062
vt 0.424268 0.217187
vt -0.475732 0.217187
vt -0.475732 0.670703
vt 0.069189 0.189062
vt 0.422243 0.315625
vt 0.422243 0.189062
vt 0.065674 0.217187
vt 0.425146 0.217187
vt 0.425146 0.312109
vt 0.420752 0.189062
vt 0.422243 0.667187
vt 0.422243 0.189062
vt 0.425146 0.217187
vt 0.424268 0.217187
vt 0.425146 0.670703
vt 0.424268 0.189062
vt -0.475732 0.189062
vt -0.475732 0.670703
vt 0.065674 0.189062
vt -0.475732 0.189062
vt -0.475732 0.312109
vt 0.425146 0.189062
vt 0.424268 0.189062
vt 0.425146 0.670703
vt 0.065674 0.189062
vt 0.425146 0.189062
vt 0.425146 0.312109
vt -0.472217 0.667187
vt 0.420752 0.213672
vt -0.472217 0.213672
vt -0.472217 0.315625
vt 0.069189 0.213672
vt -0.472217 0.213672
vt 0.420752 0.213672
vt 0.422243 0.667187
vt 0.422243 0.213672
vt 0.069189 0.213672
vt 0.422243 0.315625
vt 0.422243 0.213672
vt -0.022217 0.765625
vt 0.519189 1.001172
vt -0.022217 1.001172
vt 0.515674 1.025781
vt -0.025732 1.025781
vt -0.025732 0.762109
vt -0.022217 1.117188
vt 0.870752 1.001172
vt -0.022217 1.001172
vt 0.874268 1.025781
vt -0.025732 1.025781
vt -0.025732 1.120703
vt 0.519189 1.001172
vt 0.872243 0.765625
vt 0.872243 1.001172
vt 0.515674 1.025781
vt 0.875147 1.025781
vt 0.875147 0.762109
vt 0.870752 1.001172
vt 0.872243 1.117188
vt 0.872243 1.001172
vt 0.875147 1.025781
vt 0.874268 1.025781
vt 0.875147 1.120703
vt 0.874268 1.001172
vt -0.025732 1.001172
vt -0.025732 1.120703
vt 0.515674 1.001172
vt -0.025732 1.001172
vt -0.025732 0.762109
vt 0.875147 1.001172
vt 0.874268 1.001172
vt 0.875147 1.120703
vt 0.515674 1.001172
vt 0.875147 1.001172
vt 0.875147 0.762109
vt -0.022217 1.117188
vt 0.870752 1.025781
vt -0.022217 1.025781
vt -0.022217 0.765625
vt 0.519189 1.025781
vt -0.022217 1.025781
vt 0.870752 1.025781
vt 0.872243 1.117188
vt 0.872243 1.025781
vt 0.519189 1.025781
vt 0.872243 0.765625
vt 0.872243 1.025781
vt -0.472217 0.090625
vt 0.069189 0.684766
vt -0.472217 0.684766
vt 0.065674 0.712891
vt -0.475732 0.712891
vt -0.475732 0.087109
vt -0.472217 0.442187
vt 0.420752 0.684766
vt -0.472217 0.684766
vt 0.424268 0.712891
vt -0.475732 0.712891
vt -0.475732 0.445703
vt 0.069189 0.684766
vt 0.422243 0.090625
vt 0.422243 0.684766
vt 0.065674 0.712891
vt 0.425146 0.712891
vt 0.425146 0.087109
vt 0.420752 0.684766
vt 0.422243 0.442187
vt 0.422243 0.684766
vt 0.425146 0.712891
vt 0.424268 0.712891
vt 0.425146 0.445703
vt 0.424268 0.684766
vt -0.475732 0.684766
vt -0.475732 0.445703
vt 0.065674 0.684766
vt -0.475732 0.684766
vt -0.475732 0.087109
vt 0.425146 0.684766
vt 0.424268 0.684766
vt 0.425146 0.445703
vt 0.065674 0.684766
vt 0.425146 0.684766
vt 0.425146 0.087109
vt -0.472217 0.442187
vt 0.420752 0.709375
vt -0.472217 0.709375
vt -0.472217 0.090625
vt 0.069189 0.709375
vt -0.472217 0.709375
vt 0.420752 0.709375
vt 0.422243 0.442187
vt 0.422243 0.709375
vt 0.069189 0.709375
vt 0.422243 0.090625
vt 0.422243 0.709375
s 0
usemtl plastic_mx_3
f 10/28/1 2/4/1 4/10/1 9/25/1
f 9/26/2 4/11/2 8/22/2 11/31/2
f 11/32/3 8/23/3 6/16/3 12/34/3
f 12/35/4 6/17/4 2/5/4 10/29/4
f 7/19/1 5/13/1 16/46/1 15/43/1
f 8/24/5 4/12/5 2/6/5 6/18/5
f 3/7/6 1/1/6 10/30/6 9/27/6
f 7/20/6 3/7/6 9/27/6 11/33/6
f 5/14/6 7/20/6 11/33/6 12/36/6
f 1/1/6 5/14/6 12/36/6 10/30/6
f 13/37/6 15/44/6 16/47/6 14/40/6
f 1/2/3 3/8/3 13/38/3 14/41/3
f 5/15/2 1/3/2 14/42/2 16/48/2
f 3/9/4 7/21/4 15/45/4 13/39/4
f 17/49/6 23/67/6 21/61/6 19/55/6
f 23/67/6 27/79/6 25/73/6 21/61/6
f 21/62/3 22/64/3 20/58/3 19/56/3
f 19/57/4 20/59/4 18/52/4 17/50/4
f 18/53/5 20/60/5 22/65/5 24/70/5
f 22/65/5 26/76/5 28/82/5 24/70/5
f 26/77/3 25/74/3 27/80/3 28/83/3
f 22/66/4 21/63/4 25/75/4 26/78/4
f 24/71/2 28/84/2 27/81/2 23/68/2
f 18/54/1 24/72/1 23/69/1 17/51/1
f 29/85/6 35/103/6 33/97/6 31/91/6
f 35/103/6 39/115/6 37/109/6 33/97/6
f 33/98/2 34/100/2 32/94/2 31/92/2
f 31/93/3 32/95/3 30/88/3 29/86/3
f 30/89/5 32/96/5 34/101/5 36/106/5
f 34/101/5 38/112/5 40/118/5 36/106/5
f 38/113/2 37/110/2 39/116/2 40/119/2
f 34/102/3 33/99/3 37/111/3 38/114/3
f 36/107/1 40/120/1 39/117/1 35/104/1
f 30/90/4 36/108/4 35/105/4 29/87/4
f 41/121/6 47/139/6 45/133/6 43/127/6
f 47/139/6 51/151/6 49/145/6 45/133/6
f 45/134/1 46/136/1 44/130/1 43/128/1
f 43/129/2 44/131/2 42/124/2 41/122/2
f 42/125/5 44/132/5 46/137/5 48/142/5
f 46/137/5 50/148/5 52/154/5 48/142/5
f 50/149/1 49/146/1 51/152/1 52/155/1
f 46/138/2 45/135/2 49/147/2 50/150/2
f 48/143/4 52/156/4 51/153/4 47/140/4
f 42/126/3 48/144/3 47/141/3 41/123/3
f 53/157/6 59/175/6 57/169/6 55/163/6
f 59/175/6 63/187/6 61/181/6 57/169/6
f 57/170/4 58/172/4 56/166/4 55/164/4
f 55/165/1 56/167/1 54/160/1 53/158/1
f 54/161/5 56/168/5 58/173/5 60/178/5
f 58/173/5 62/184/5 64/190/5 60/178/5
f 62/185/4 61/182/4 63/188/4 64/191/4
f 58/174/1 57/171/1 61/183/1 62/186/1
f 60/179/3 64/192/3 63/189/3 59/176/3
f 54/162/2 60/180/2 59/177/2 53/159/2
f 74/220/1 66/196/1 68/202/1 73/217/1
f 73/218/2 68/203/2 72/214/2 75/223/2
f 75/224/3 72/215/3 70/208/3 76/226/3
f 76/227/4 70/209/4 66/197/4 74/221/4
f 71/211/1 69/205/1 80/238/1 79/235/1
f 72/216/5 68/204/5 66/198/5 70/210/5
f 67/199/7 65/193/7 74/222/7 73/219/7
f 71/212/6 67/199/6 73/219/6 75/225/6
f 69/206/8 71/212/8 75/225/8 76/228/8
f 65/193/6 69/206/6 76/228/6 74/222/6
f 77/229/6 79/236/6 80/239/6 78/232/6
f 65/194/3 67/200/3 77/230/3 78/233/3
f 69/207/2 65/195/2 78/234/2 80/240/2
f 67/201/4 71/213/4 79/237/4 77/231/4
f 90/268/1 82/244/1 84/250/1 89/265/1
f 89/266/2 84/251/2 88/262/2 91/271/2
f 91/272/3 88/263/3 86/256/3 92/274/3
f 92/275/4 86/257/4 82/245/4 90/269/4
f 87/259/1 85/253/1 96/286/1 95/283/1
f 88/264/5 84/252/5 82/246/5 86/258/5
f 83/247/6 81/241/6 90/270/6 89/267/6
f 87/260/6 83/247/6 89/267/6 91/273/6
f 85/254/6 87/260/6 91/273/6 92/276/6
f 81/241/6 85/254/6 92/276/6 90/270/6
f 93/277/6 95/284/6 96/287/6 94/280/6
f 81/242/3 83/248/3 93/278/3 94/281/3
f 85/255/2 81/243/2 94/282/2 96/288/2
f 83/249/4 87/261/4 95/285/4 93/279/4
f 106/316/1 98/292/1 100/298/1 105/313/1
f 105/314/2 100/299/2 104/310/2 107/319/2
f 107/320/3 104/311/3 102/304/3 108/322/3
f 108/323/4 102/305/4 98/293/4 106/317/4
f 103/307/1 101/301/1 112/334/1 111/331/1
f 104/312/5 100/300/5 98/294/5 102/306/5
f 99/295/6 97/289/6 106/318/6 105/315/6
f 103/308/6 99/295/6 105/315/6 107/321/6
f 101/302/6 103/308/6 107/321/6 108/324/6
f 97/289/6 101/302/6 108/324/6 106/318/6
f 109/325/6 111/332/6 112/335/6 110/328/6
f 97/290/3 99/296/3 109/326/3 110/329/3
f 101/303/2 97/291/2 110/330/2 112/336/2
f 99/297/4 103/309/4 111/333/4 109/327/4
f 122/364/1 114/340/1 116/346/1 121/361/1
f 121/362/2 116/347/2 120/358/2 123/367/2
f 123/368/3 120/359/3 118/352/3 124/370/3
f 124/371/4 118/353/4 114/341/4 122/365/4
f 119/355/1 117/349/1 128/382/1 127/379/1
f 120/360/5 116/348/5 114/342/5 118/354/5
f 115/343/7 113/337/7 122/366/7 121/363/7
f 119/356/6 115/343/6 121/363/6 123/369/6
f 117/350/8 119/356/8 123/369/8 124/372/8
f 113/337/6 117/350/6 124/372/6 122/366/6
f 125/373/6 127/380/6 128/383/6 126/376/6
f 113/338/3 115/344/3 125/374/3 126/377/3
f 117/351/2 113/339/2 126/378/2 128/384/2
f 115/345/4 119/357/4 127/381/4 125/375/4
