# Blender 3.4.0
# www.blender.org
mtllib shelf_mx_6_1.mtl
o shelf_mx_6_1
v -0.497001 0.170001 0.197000
v -0.500001 0.200001 0.200000
v -0.497001 0.170001 -0.197000
v -0.500001 0.200001 -0.200000
v 0.496999 0.170001 0.197000
v 0.499999 0.200001 0.200000
v 0.496999 0.170001 -0.197000
v 0.499999 0.200001 -0.200000
v -0.500001 0.170001 -0.200000
v -0.500001 0.170001 0.200000
v 0.499999 0.170001 -0.200000
v 0.499999 0.170001 0.200000
v -0.497001 0.197001 -0.197000
v -0.497001 0.197001 0.197000
v 0.496999 0.197001 -0.197000
v 0.496999 0.197001 0.197000
v -0.509999 0.000000 -0.160000
v -0.509999 1.810000 -0.160000
v -0.499999 0.000000 -0.160000
v -0.499999 1.810000 -0.160000
v -0.499999 0.000000 -0.200000
v -0.499999 1.810000 -0.200000
v -0.509999 0.000000 -0.210000
v -0.509999 1.810000 -0.210000
v -0.459999 0.000000 -0.200000
v -0.459999 1.810000 -0.200000
v -0.459999 0.000000 -0.210000
v -0.459999 1.810000 -0.210000
v -0.460000 0.000000 0.209999
v -0.460000 1.810000 0.209999
v -0.460000 0.000000 0.199999
v -0.460000 1.810000 0.199999
v -0.500000 0.000000 0.199999
v -0.500000 1.810000 0.199999
v -0.510000 0.000000 0.209999
v -0.510000 1.810000 0.209999
v -0.500000 0.000000 0.159999
v -0.500000 1.810000 0.159999
v -0.510000 0.000000 0.159999
v -0.510000 1.810000 0.159999
v 0.510000 0.000000 0.160000
v 0.510000 1.810000 0.160000
v 0.500000 0.000000 0.160000
v 0.500000 1.810000 0.160000
v 0.500000 0.000000 0.200000
v 0.500000 1.810000 0.200000
v 0.510000 0.000000 0.210000
v 0.510000 1.810000 0.210000
v 0.460000 0.000000 0.200000
v 0.460000 1.810000 0.200000
v 0.460000 0.000000 0.210000
v 0.460000 1.810000 0.210000
v 0.460000 0.000000 -0.209999
v 0.460000 1.810000 -0.209999
v 0.460000 0.000000 -0.199999
v 0.460000 1.810000 -0.199999
v 0.500000 0.000000 -0.199999
v 0.500000 1.810000 -0.199999
v 0.510000 0.000000 -0.209999
v 0.510000 1.810000 -0.209999
v 0.500000 0.000000 -0.159999
v 0.500000 1.810000 -0.159999
v 0.510000 0.000000 -0.159999
v 0.510000 1.810000 -0.159999
v -0.497001 1.770001 0.197000
v -0.500001 1.800001 0.200000
v -0.497001 1.770001 -0.197000
v -0.500001 1.800001 -0.200000
v 0.496999 1.770001 0.197000
v 0.499999 1.800001 0.200000
v 0.496999 1.770001 -0.197000
v 0.499999 1.800001 -0.200000
v -0.500001 1.770001 -0.200000
v -0.500001 1.770001 0.200000
v 0.499999 1.770001 -0.200000
v 0.499999 1.770001 0.200000
v -0.497001 1.797001 -0.197000
v -0.497001 1.797001 0.197000
v 0.496999 1.797001 -0.197000
v 0.496999 1.797001 0.197000
v -0.497001 1.369999 0.197000
v -0.500001 1.399999 0.200000
v -0.497001 1.369999 -0.197000
v -0.500001 1.399999 -0.200000
v 0.496999 1.369999 0.197000
v 0.499999 1.399999 0.200000
v 0.496999 1.369999 -0.197000
v 0.499999 1.399999 -0.200000
v -0.500001 1.369999 -0.200000
v -0.500001 1.369999 0.200000
v 0.499999 1.369999 -0.200000
v 0.499999 1.369999 0.200000
v -0.497001 1.400000 -0.197000
v -0.497001 1.400000 0.197000
v 0.496999 1.400000 -0.197000
v 0.496999 1.400000 0.197000
v -0.497001 1.390000 -0.197000
v -0.497001 1.390000 0.197000
v 0.496999 1.390000 -0.197000
v 0.496999 1.390000 0.197000
v -0.497001 1.388000 -0.197000
v -0.497001 1.388000 0.197000
v 0.496999 1.388000 -0.197000
v 0.496999 1.388000 0.197000
v -0.015001 1.380999 0.197000
v 0.014999 1.385999 0.197000
v -0.015001 1.380999 -0.197000
v 0.014999 1.385999 -0.197000
v 0.014999 1.380999 -0.197000
v 0.014999 1.380999 0.197000
v -0.015001 1.386000 -0.197000
v -0.015001 1.386000 0.197000
v -0.497001 0.970000 0.197000
v -0.500001 1.000000 0.200000
v -0.497001 0.970000 -0.197000
v -0.500001 1.000000 -0.200000
v 0.496999 0.970000 0.197000
v 0.499999 1.000000 0.200000
v 0.496999 0.970000 -0.197000
v 0.499999 1.000000 -0.200000
v -0.500001 0.970000 -0.200000
v -0.500001 0.970000 0.200000
v 0.499999 0.970000 -0.200000
v 0.499999 0.970000 0.200000
v -0.497001 1.000000 -0.197000
v -0.497001 1.000000 0.197000
v 0.496999 1.000000 -0.197000
v 0.496999 1.000000 0.197000
v -0.497001 0.990000 -0.197000
v -0.497001 0.990000 0.197000
v 0.496999 0.990000 -0.197000
v 0.496999 0.990000 0.197000
v -0.497001 0.988000 -0.197000
v -0.497001 0.988000 0.197000
v 0.496999 0.988000 -0.197000
v 0.496999 0.988000 0.197000
v -0.015001 0.981000 0.197000
v 0.014999 0.986000 0.197000
v -0.015001 0.981000 -0.197000
v 0.014999 0.986000 -0.197000
v 0.014999 0.981000 -0.197000
v 0.014999 0.981000 0.197000
v -0.015001 0.986000 -0.197000
v -0.015001 0.986000 0.197000
v -0.497001 0.570000 0.197000
v -0.500001 0.600000 0.200000
v -0.497001 0.570000 -0.197000
v -0.500001 0.600000 -0.200000
v 0.496999 0.570000 0.197000
v 0.499999 0.600000 0.200000
v 0.496999 0.570000 -0.197000
v 0.499999 0.600000 -0.200000
v -0.500001 0.570000 -0.200000
v -0.500001 0.570000 0.200000
v 0.499999 0.570000 -0.200000
v 0.499999 0.570000 0.200000
v -0.497001 0.600001 -0.197000
v -0.497001 0.600001 0.197000
v 0.496999 0.600001 -0.197000
v 0.496999 0.600001 0.197000
v -0.497001 0.590001 -0.197000
v -0.497001 0.590001 0.197000
v 0.496999 0.590001 -0.197000
v 0.496999 0.590001 0.197000
v -0.497001 0.588001 -0.197000
v -0.497001 0.588001 0.197000
v 0.496999 0.588001 -0.197000
v 0.496999 0.588001 0.197000
v -0.015001 0.581000 0.197000
v 0.014999 0.586000 0.197000
v -0.015001 0.581000 -0.197000
v 0.014999 0.586000 -0.197000
v 0.014999 0.581000 -0.197000
v 0.014999 0.581000 0.197000
v -0.015001 0.586000 -0.197000
v -0.015001 0.586000 0.197000
vn -1.0000 -0.0000 -0.0000
vn -0.0000 -0.0000 -1.0000
vn 1.0000 -0.0000 -0.0000
vn -0.0000 -0.0000 1.0000
vn -0.0000 1.0000 -0.0000
vn -0.0000 -1.0000 -0.0000
vn -0.0001 -1.0000 -0.0000
vn 0.0001 -1.0000 -0.0000
vn -0.0000 1.0000 0.0001
vn 0.0001 1.0000 -0.0000
vn -0.0000 1.0000 -0.0001
vn -0.0001 1.0000 -0.0000
vt 0.024414 0.777344
vt 0.325195 0.507812
vt 0.024414 0.507812
vt 0.323242 0.523437
vt 0.022461 0.523437
vt 0.022461 0.775391
vt 0.024414 0.972656
vt 0.520508 0.507812
vt 0.024414 0.507812
vt 0.522461 0.523437
vt 0.022461 0.523437
vt 0.022461 0.974609
vt 0.325195 0.507812
vt 0.521336 0.777344
vt 0.521336 0.507812
vt 0.323242 0.523437
vt 0.522949 0.523437
vt 0.522949 0.775391
vt 0.520508 0.507812
vt 0.521336 0.972656
vt 0.521336 0.507812
vt 0.522949 0.523437
vt 0.522461 0.523437
vt 0.522949 0.974609
vt 0.522461 0.507812
vt 0.022461 0.507812
vt 0.022461 0.974609
vt 0.323242 0.507812
vt 0.022461 0.507812
vt 0.022461 0.775391
vt 0.522949 0.507812
vt 0.522461 0.507812
vt 0.522949 0.974609
vt 0.323242 0.507812
vt 0.522949 0.507812
vt 0.522949 0.775391
vt 0.024414 0.972656
vt 0.520508 0.521484
vt 0.024414 0.521484
vt 0.024414 0.777344
vt 0.325195 0.521484
vt 0.024414 0.521484
vt 0.520508 0.521484
vt 0.521336 0.972656
vt 0.521336 0.521484
vt 0.325195 0.521484
vt 0.521336 0.777344
vt 0.521336 0.521484
vt 0.252852 0.452038
vt 0.018555 0.046875
vt 0.502930 0.046875
vt 0.018555 0.953125
vt 0.252852 0.452038
vt 0.502930 0.953125
vt 0.256185 0.452038
vt 0.502930 0.046875
vt 0.022461 0.046875
vt 0.502930 0.953125
vt 0.022461 0.953125
vt 0.256185 0.452038
vt 0.256185 0.438704
vt 0.522461 0.046875
vt 0.022461 0.046875
vt 0.522461 0.953125
vt 0.256185 0.438704
vt 0.022461 0.953125
vt 0.252852 0.435371
vt 0.018555 0.046875
vt 0.528320 0.046875
vt 0.252852 0.435371
vt 0.018555 0.953125
vt 0.528320 0.953125
vt 0.269518 0.438704
vt 0.522461 0.046875
vt 0.041992 0.046875
vt 0.269518 0.438704
vt 0.522461 0.953125
vt 0.041992 0.953125
vt 0.269518 0.435371
vt 0.528320 0.046875
vt 0.041992 0.046875
vt 0.269518 0.435371
vt 0.528320 0.953125
vt 0.041992 0.953125
vt 0.269518 0.575371
vt 0.317383 0.046875
vt 0.041992 0.046875
vt 0.317383 0.953125
vt 0.269518 0.575371
vt 0.041992 0.953125
vt 0.269518 0.572037
vt 0.041992 0.046875
vt 0.323242 0.046875
vt 0.041992 0.953125
vt 0.323242 0.953125
vt 0.269518 0.572037
vt 0.256185 0.572037
vt 0.022461 0.046875
vt 0.323242 0.046875
vt 0.022461 0.953125
vt 0.256185 0.572037
vt 0.323242 0.953125
vt 0.252851 0.575371
vt 0.317383 0.046875
vt 0.018555 0.046875
vt 0.252851 0.575371
vt 0.317383 0.953125
vt 0.018555 0.953125
vt 0.256185 0.558704
vt 0.022461 0.046875
vt 0.342773 0.046875
vt 0.256185 0.558704
vt 0.022461 0.953125
vt 0.342773 0.953125
vt 0.252851 0.558704
vt 0.018555 0.046875
vt 0.342773 0.046875
vt 0.252851 0.558704
vt 0.018555 0.953125
vt 0.342773 0.953125
vt 0.592851 0.558704
vt 0.592772 0.046875
vt 0.342773 0.046875
vt 0.592772 0.953124
vt 0.592851 0.558704
vt 0.342773 0.953125
vt 0.589518 0.558704
vt 0.342773 0.046875
vt 0.588867 0.046875
vt 0.342773 0.953125
vt 0.588868 0.953126
vt 0.589518 0.558704
vt 0.589518 0.572038
vt 0.323242 0.046875
vt 0.530274 0.046875
vt 0.323242 0.953125
vt 0.589518 0.572038
vt 0.530274 0.953125
vt 0.592851 0.575371
vt 0.545899 0.046875
vt 0.317383 0.046875
vt 0.592851 0.575371
vt 0.545899 0.953125
vt 0.317383 0.953125
vt 0.576185 0.572038
vt 0.323242 0.046875
vt 0.510743 0.046875
vt 0.576185 0.572038
vt 0.323242 0.953125
vt 0.510743 0.953124
vt 0.576185 0.575371
vt 0.317383 0.046875
vt 0.522461 0.046875
vt 0.576185 0.575371
vt 0.317383 0.953125
vt 0.522462 0.953125
vt 0.576185 0.435371
vt 0.528320 0.046875
vt 0.522461 0.046875
vt 0.528320 0.953125
vt 0.576185 0.435371
vt 0.522462 0.953125
vt 0.576185 0.438705
vt 0.510742 0.046875
vt 0.522461 0.046875
vt 0.510742 0.953125
vt 0.522461 0.953125
vt 0.576185 0.438705
vt 0.589518 0.438705
vt 0.530273 0.046875
vt 0.522461 0.046875
vt 0.530273 0.953125
vt 0.589518 0.438705
vt 0.522461 0.953125
vt 0.592852 0.435371
vt 0.528320 0.046875
vt 0.545899 0.046875
vt 0.592852 0.435371
vt 0.528320 0.953125
vt 0.545899 0.953125
vt 0.589518 0.452038
vt 0.588868 0.046875
vt 0.502931 0.046875
vt 0.589518 0.452038
vt 0.588867 0.953127
vt 0.502930 0.953125
vt 0.592852 0.452038
vt 0.592772 0.046875
vt 0.502930 0.046875
vt 0.592852 0.452038
vt 0.592772 0.953125
vt 0.502930 0.953125
vt 0.149414 0.152344
vt 0.450195 0.681641
vt 0.149414 0.681641
vt 0.448242 0.697266
vt 0.147461 0.697266
vt 0.147461 0.150391
vt 0.149414 0.347656
vt 0.645508 0.681641
vt 0.149414 0.681641
vt 0.647461 0.697266
vt 0.147461 0.697266
vt 0.147461 0.349609
vt 0.450195 0.681641
vt 0.646336 0.152344
vt 0.646336 0.681641
vt 0.448242 0.697266
vt 0.647949 0.697266
vt 0.647949 0.150391
vt 0.645508 0.681641
vt 0.646336 0.347656
vt 0.646336 0.681641
vt 0.647949 0.697266
vt 0.647461 0.697266
vt 0.647949 0.349609
vt 0.647461 0.681641
vt 0.147461 0.681641
vt 0.147461 0.349609
vt 0.448242 0.681641
vt 0.147461 0.681641
vt 0.147461 0.150391
vt 0.647949 0.681641
vt 0.647461 0.681641
vt 0.647949 0.349609
vt 0.448242 0.681641
vt 0.647949 0.681641
vt 0.647949 0.150391
vt 0.149414 0.347656
vt 0.645508 0.695312
vt 0.149414 0.695312
vt 0.149414 0.152344
vt 0.450195 0.695312
vt 0.149414 0.695312
vt 0.645508 0.695312
vt 0.646336 0.347656
vt 0.646336 0.695312
vt 0.450195 0.695312
vt 0.646336 0.152344
vt 0.646336 0.695312
vt 0.024352 0.603871
vt 0.415352 0.603871
vt 0.024352 0.497871
vt 0.430351 0.605371
vt 0.022852 0.512871
vt 0.022852 0.605371
vt 0.024352 0.406871
vt 0.415352 0.406871
vt 0.174352 0.560371
vt 0.430351 0.405371
vt 0.172852 0.575371
vt 0.022852 0.405371
vt 0.477852 0.603871
vt 0.521352 0.603871
vt 0.521352 0.497871
vt 0.492851 0.605371
vt 0.522852 0.512871
vt 0.522852 0.605371
vt 0.477852 0.406871
vt 0.521352 0.406871
vt 0.671352 0.560371
vt 0.672852 0.575371
vt 0.492851 0.405371
vt 0.522852 0.405371
vt 0.415352 0.405371
vt 0.172852 0.560371
vt 0.022852 0.405371
vt 0.415352 0.605371
vt 0.022852 0.497871
vt 0.022852 0.605371
vt 0.672852 0.560371
vt 0.477852 0.405371
vt 0.522852 0.405371
vt 0.477852 0.605371
vt 0.522852 0.497871
vt 0.522852 0.605371
vt 0.430352 0.406871
vt 0.174352 0.575371
vt 0.024352 0.406871
vt 0.430352 0.603871
vt 0.024352 0.512871
vt 0.024352 0.603871
vt 0.492852 0.406871
vt 0.671352 0.575371
vt 0.521352 0.406871
vt 0.492852 0.603871
vt 0.521352 0.512871
vt 0.521352 0.603871
vt -2.813333 -0.813334
vt -2.813333 1.813333
vt 3.813333 -0.813334
vt 3.813333 1.813333
vt -2.813333 -0.813334
vt -2.813333 1.813333
vt 3.813333 -0.813334
vt 3.813333 1.813333
vt 0.698750 0.598500
vt 0.492500 0.598500
vt 0.701250 0.598500
vt 0.507500 0.598500
vt 0.698750 0.401500
vt 0.492500 0.401500
vt 0.701250 0.401500
vt 0.507500 0.401500
vt 0.698750 0.401500
vt 0.507500 0.401500
vt 0.698750 0.598500
vt 0.507500 0.598500
vt 0.701250 0.401500
vt 0.492500 0.401500
vt 0.701250 0.598500
vt 0.492500 0.598500
vt 0.024352 0.603871
vt 0.415352 0.603871
vt 0.024352 0.497871
vt 0.430351 0.605371
vt 0.022852 0.512871
vt 0.022852 0.605371
vt 0.024352 0.406871
vt 0.415352 0.406871
vt 0.174352 0.560371
vt 0.430351 0.405371
vt 0.172852 0.575371
vt 0.022852 0.405371
vt 0.477852 0.603871
vt 0.521352 0.603871
vt 0.521351 0.497871
vt 0.492851 0.605371
vt 0.522852 0.512871
vt 0.522852 0.605371
vt 0.477852 0.406871
vt 0.521351 0.406871
vt 0.671351 0.560371
vt 0.672852 0.575371
vt 0.492851 0.405371
vt 0.522852 0.405371
vt 0.415352 0.405371
vt 0.172852 0.560371
vt 0.022852 0.405371
vt 0.415352 0.605371
vt 0.022852 0.497871
vt 0.022852 0.605371
vt 0.672852 0.560371
vt 0.477852 0.405371
vt 0.522852 0.405371
vt 0.477852 0.605371
vt 0.522852 0.497871
vt 0.522852 0.605371
vt 0.430352 0.406871
vt 0.174352 0.575371
vt 0.024352 0.406871
vt 0.430352 0.603871
vt 0.024352 0.512871
vt 0.024352 0.603871
vt 0.492852 0.406871
vt 0.671352 0.575371
vt 0.521352 0.406871
vt 0.492852 0.603871
vt 0.521352 0.512871
vt 0.521352 0.603871
vt -2.813333 -0.813333
vt -2.813333 1.813333
vt 3.813333 -0.813333
vt 3.813333 1.813333
vt -2.813333 -0.813333
vt -2.813333 1.813333
vt 3.813333 -0.813333
vt 3.813333 1.813333
vt 0.498750 0.598500
vt 0.492500 0.598500
vt 0.501250 0.598500
vt 0.507500 0.598500
vt 0.498750 0.401500
vt 0.492500 0.401500
vt 0.501250 0.401500
vt 0.507500 0.401500
vt 0.498750 0.401500
vt 0.507500 0.401500
vt 0.498750 0.598500
vt 0.507500 0.598500
vt 0.501250 0.401500
vt 0.492500 0.401500
vt 0.501250 0.598500
vt 0.492500 0.598500
vt 0.024352 0.603871
vt 0.415352 0.603871
vt 0.024352 0.497871
vt 0.430351 0.605371
vt 0.022852 0.512871
vt 0.022852 0.605371
vt 0.024352 0.406871
vt 0.415352 0.406871
vt 0.174352 0.560371
vt 0.430351 0.405371
vt 0.172852 0.575371
vt 0.022852 0.405371
vt 0.477852 0.603871
vt 0.521352 0.603871
vt 0.521352 0.497871
vt 0.492851 0.605371
vt 0.522852 0.512871
vt 0.522852 0.605371
vt 0.477852 0.406871
vt 0.521352 0.406871
vt 0.671352 0.560371
vt 0.672852 0.575371
vt 0.492851 0.405371
vt 0.522852 0.405371
vt 0.415352 0.405371
vt 0.172852 0.560371
vt 0.022852 0.405371
vt 0.415352 0.605371
vt 0.022852 0.497871
vt 0.022852 0.605371
vt 0.672852 0.560371
vt 0.477852 0.405371
vt 0.522852 0.405371
vt 0.477852 0.605371
vt 0.522852 0.497871
vt 0.522852 0.605371
vt 0.430352 0.406871
vt 0.174352 0.575371
vt 0.024352 0.406871
vt 0.430352 0.603871
vt 0.024352 0.512871
vt 0.024352 0.603871
vt 0.492852 0.406871
vt 0.671352 0.575371
vt 0.521352 0.406871
vt 0.492852 0.603871
vt 0.521352 0.512871
vt 0.521352 0.603871
vt -2.813333 -0.813333
vt -2.813333 1.813334
vt 3.813333 -0.813333
vt 3.813333 1.813334
vt -2.813333 -0.813333
vt -2.813333 1.813334
vt 3.813333 -0.813333
vt 3.813333 1.813334
vt 0.298750 0.598500
vt 0.492500 0.598500
vt 0.301250 0.598500
vt 0.507500 0.598500
vt 0.298750 0.401500
vt 0.492500 0.401500
vt 0.301250 0.401500
vt 0.507500 0.401500
vt 0.298750 0.401500
vt 0.507500 0.401500
vt 0.298750 0.598500
vt 0.507500 0.598500
vt 0.301250 0.401500
vt 0.492500 0.401500
vt 0.301250 0.598500
vt 0.492500 0.598500
s 0
usemtl metal_hr_1
f 10/28/1 2/4/1 4/10/1 9/25/1
f 9/26/2 4/11/2 8/22/2 11/31/2
f 11/32/3 8/23/3 6/16/3 12/34/3
f 12/35/4 6/17/4 2/5/4 10/29/4
f 7/19/1 5/13/1 16/46/1 15/43/1
f 8/24/5 4/12/5 2/6/5 6/18/5
f 3/7/6 1/1/6 10/30/6 9/27/6
f 7/20/6 3/7/6 9/27/6 11/33/6
f 5/14/6 7/20/6 11/33/6 12/36/6
f 1/1/6 5/14/6 12/36/6 10/30/6
f 13/37/6 15/44/6 16/47/6 14/40/6
f 1/2/3 3/8/3 13/38/3 14/41/3
f 5/15/2 1/3/2 14/42/2 16/48/2
f 3/9/4 7/21/4 15/45/4 13/39/4
f 17/49/6 23/67/6 21/61/6 19/55/6
f 23/67/6 27/79/6 25/73/6 21/61/6
f 21/62/3 22/64/3 20/58/3 19/56/3
f 19/57/4 20/59/4 18/52/4 17/50/4
f 18/53/5 20/60/5 22/65/5 24/70/5
f 22/65/5 26/76/5 28/82/5 24/70/5
f 26/77/3 25/74/3 27/80/3 28/83/3
f 22/66/4 21/63/4 25/75/4 26/78/4
f 24/71/2 28/84/2 27/81/2 23/68/2
f 18/54/1 24/72/1 23/69/1 17/51/1
f 29/85/6 35/103/6 33/97/6 31/91/6
f 35/103/6 39/115/6 37/109/6 33/97/6
f 33/98/2 34/100/2 32/94/2 31/92/2
f 31/93/3 32/95/3 30/88/3 29/86/3
f 30/89/5 32/96/5 34/101/5 36/106/5
f 34/101/5 38/112/5 40/118/5 36/106/5
f 38/113/2 37/110/2 39/116/2 40/119/2
f 34/102/3 33/99/3 37/111/3 38/114/3
f 36/107/1 40/120/1 39/117/1 35/104/1
f 30/90/4 36/108/4 35/105/4 29/87/4
f 41/121/6 47/139/6 45/133/6 43/127/6
f 47/139/6 51/151/6 49/145/6 45/133/6
f 45/134/1 46/136/1 44/130/1 43/128/1
f 43/129/2 44/131/2 42/124/2 41/122/2
f 42/125/5 44/132/5 46/137/5 48/142/5
f 46/137/5 50/148/5 52/154/5 48/142/5
f 50/149/1 49/146/1 51/152/1 52/155/1
f 46/138/2 45/135/2 49/147/2 50/150/2
f 48/143/4 52/156/4 51/153/4 47/140/4
f 42/126/3 48/144/3 47/141/3 41/123/3
f 53/157/6 59/175/6 57/169/6 55/163/6
f 59/175/6 63/187/6 61/181/6 57/169/6
f 57/170/4 58/172/4 56/166/4 55/164/4
f 55/165/1 56/167/1 54/160/1 53/158/1
f 54/161/5 56/168/5 58/173/5 60/178/5
f 58/173/5 62/184/5 64/190/5 60/178/5
f 62/185/4 61/182/4 63/188/4 64/191/4
f 58/174/1 57/171/1 61/183/1 62/186/1
f 60/179/3 64/192/3 63/189/3 59/176/3
f 54/162/2 60/180/2 59/177/2 53/159/2
f 74/220/1 66/196/1 68/202/1 73/217/1
f 73/218/2 68/203/2 72/214/2 75/223/2
f 75/224/3 72/215/3 70/208/3 76/226/3
f 76/227/4 70/209/4 66/197/4 74/221/4
f 71/211/1 69/205/1 80/238/1 79/235/1
f 72/216/5 68/204/5 66/198/5 70/210/5
f 67/199/7 65/193/7 74/222/7 73/219/7
f 71/212/6 67/199/6 73/219/6 75/225/6
f 69/206/8 71/212/8 75/225/8 76/228/8
f 65/193/6 69/206/6 76/228/6 74/222/6
f 77/229/6 79/236/6 80/239/6 78/232/6
f 65/194/3 67/200/3 77/230/3 78/233/3
f 69/207/2 65/195/2 78/234/2 80/240/2
f 67/201/4 71/213/4 79/237/4 77/231/4
f 90/268/1 82/244/1 84/250/1 89/265/1
f 89/266/2 84/251/2 88/262/2 91/271/2
f 91/272/3 88/263/3 86/256/3 92/274/3
f 92/275/4 86/257/4 82/245/4 90/269/4
f 87/259/1 85/253/1 96/286/1 95/283/1
f 83/247/7 81/241/7 90/270/7 89/267/7
f 87/260/6 83/247/6 89/267/6 91/273/6
f 85/254/8 87/260/8 91/273/8 92/276/8
f 81/241/6 85/254/6 92/276/6 90/270/6
f 81/242/3 83/248/3 93/277/3 94/280/3
f 85/255/2 81/243/2 94/281/2 96/287/2
f 83/249/4 87/261/4 95/284/4 93/278/4
f 82/246/9 86/258/9 96/288/9 94/282/9
f 86/258/10 88/264/10 95/285/10 96/288/10
f 84/252/11 93/279/11 95/285/11 88/264/11
f 82/246/12 94/282/12 93/279/12 84/252/12
f 109/305/3 108/303/3 106/299/3 110/307/3
f 107/301/1 105/297/1 112/311/1 111/309/1
f 105/298/6 107/302/6 109/306/6 110/308/6
f 106/300/5 108/304/5 111/310/5 112/312/5
f 122/340/1 114/316/1 116/322/1 121/337/1
f 121/338/2 116/323/2 120/334/2 123/343/2
f 123/344/3 120/335/3 118/328/3 124/346/3
f 124/347/4 118/329/4 114/317/4 122/341/4
f 119/331/1 117/325/1 128/358/1 127/355/1
f 115/319/6 113/313/6 122/342/6 121/339/6
f 119/332/6 115/319/6 121/339/6 123/345/6
f 117/326/6 119/332/6 123/345/6 124/348/6
f 113/313/6 117/326/6 124/348/6 122/342/6
f 113/314/3 115/320/3 125/349/3 126/352/3
f 117/327/2 113/315/2 126/353/2 128/359/2
f 115/321/4 119/333/4 127/356/4 125/350/4
f 114/318/9 118/330/9 128/360/9 126/354/9
f 118/330/10 120/336/10 127/357/10 128/360/10
f 116/324/11 125/351/11 127/357/11 120/336/11
f 114/318/12 126/354/12 125/351/12 116/324/12
f 141/377/3 140/375/3 138/371/3 142/379/3
f 139/373/1 137/369/1 144/383/1 143/381/1
f 137/370/6 139/374/6 141/378/6 142/380/6
f 138/372/5 140/376/5 143/382/5 144/384/5
f 154/412/1 146/388/1 148/394/1 153/409/1
f 153/410/2 148/395/2 152/406/2 155/415/2
f 155/416/3 152/407/3 150/400/3 156/418/3
f 156/419/4 150/401/4 146/389/4 154/413/4
f 151/403/1 149/397/1 160/430/1 159/427/1
f 147/391/6 145/385/6 154/414/6 153/411/6
f 151/404/6 147/391/6 153/411/6 155/417/6
f 149/398/6 151/404/6 155/417/6 156/420/6
f 145/385/6 149/398/6 156/420/6 154/414/6
f 145/386/3 147/392/3 157/421/3 158/424/3
f 149/399/2 145/387/2 158/425/2 160/431/2
f 147/393/4 151/405/4 159/428/4 157/422/4
f 146/390/9 150/402/9 160/432/9 158/426/9
f 150/402/10 152/408/10 159/429/10 160/432/10
f 148/396/11 157/423/11 159/429/11 152/408/11
f 146/390/12 158/426/12 157/423/12 148/396/12
f 173/449/3 172/447/3 170/443/3 174/451/3
f 171/445/1 169/441/1 176/455/1 175/453/1
f 169/442/6 171/446/6 173/450/6 174/452/6
f 170/444/5 172/448/5 175/454/5 176/456/5
usemtl grate_hm_1_1
f 97/289/5 98/290/5 100/292/5 99/291/5
f 101/293/6 103/295/6 104/296/6 102/294/6
f 129/361/5 130/362/5 132/364/5 131/363/5
f 133/365/6 135/367/6 136/368/6 134/366/6
f 161/433/5 162/434/5 164/436/5 163/435/5
f 165/437/6 167/439/6 168/440/6 166/438/6
