# Blender 3.4.0
# www.blender.org
mtllib soap_mx_2.mtl
o soap_mx_2
v -0.051513 0.000000 0.035900
v -0.055232 0.019475 0.054595
v -0.054142 0.005476 0.049119
v -0.070208 0.019475 0.039619
v -0.064732 0.005476 0.038530
v -0.065821 0.019475 0.050209
v -0.061630 0.005476 0.046018
v 0.070192 0.019475 0.039619
v 0.064717 0.005476 0.038530
v 0.055216 0.019475 0.054595
v 0.054127 0.005476 0.049119
v 0.051498 0.000000 0.035900
v 0.065806 0.019475 0.050209
v 0.061615 0.005476 0.046018
v -0.051513 0.000000 -0.035910
v -0.070208 0.019475 -0.039629
v -0.064732 0.005476 -0.038540
v -0.055232 0.019475 -0.054605
v -0.054142 0.005476 -0.049129
v -0.065821 0.019475 -0.050218
v -0.061630 0.005476 -0.046028
v 0.055216 0.019475 -0.054605
v 0.054127 0.005476 -0.049129
v 0.070192 0.019475 -0.039629
v 0.064717 0.005476 -0.038540
v 0.051498 0.000000 -0.035910
v 0.065806 0.019475 -0.050218
v 0.061615 0.005476 -0.046028
v -0.064732 0.033524 0.038530
v -0.051513 0.039000 0.035900
v -0.054142 0.033524 0.049119
v -0.061630 0.033524 0.046018
v 0.051498 0.039000 0.035900
v 0.054127 0.033524 0.049119
v 0.064717 0.033524 0.038530
v 0.061615 0.033524 0.046018
v -0.054142 0.033524 -0.049129
v -0.051513 0.039000 -0.035910
v -0.064732 0.033524 -0.038540
v -0.061630 0.033524 -0.046028
v 0.051498 0.039000 -0.035910
v 0.064717 0.033524 -0.038540
v 0.054127 0.033524 -0.049129
v 0.061615 0.033524 -0.046028
v -0.068644 0.020876 -0.000568
v -0.068644 0.020876 -0.002128
v -0.068644 0.019525 -0.002908
v -0.068644 0.018174 -0.002128
v -0.068644 0.018174 -0.000568
v -0.068644 0.019525 0.000212
v -0.086913 0.016603 -0.001380
v -0.087118 0.016603 -0.002927
v -0.087221 0.015252 -0.003700
v -0.087118 0.013901 -0.002927
v -0.086913 0.013901 -0.001380
v -0.086811 0.015252 -0.000607
v -0.100135 0.010139 0.001396
v -0.100578 0.010139 -0.000100
v -0.100799 0.008788 -0.000848
v -0.100578 0.007437 -0.000100
v -0.100135 0.007437 0.001396
v -0.099914 0.008788 0.002144
v -0.110476 0.005249 0.005381
v -0.111099 0.005249 0.003950
v -0.111410 0.003898 0.003235
v -0.111099 0.002547 0.003950
v -0.110476 0.002547 0.005381
v -0.110165 0.003898 0.006096
v -0.120101 0.002908 0.010070
v -0.120757 0.002908 0.008655
v -0.121085 0.001557 0.007948
v -0.120757 0.000206 0.008655
v -0.120101 0.000206 0.010070
v -0.119772 0.001557 0.010778
v -0.131128 0.002908 0.014933
v -0.131674 0.002908 0.013472
v -0.131946 0.001557 0.012741
v -0.131674 0.000206 0.013472
v -0.131128 0.000206 0.014933
v -0.130856 0.001557 0.015664
v -0.145648 0.002908 0.019407
v -0.146000 0.002908 0.017888
v -0.146177 0.001557 0.017128
v -0.146000 0.000206 0.017888
v -0.145648 0.000206 0.019407
v -0.145471 0.001557 0.020167
v -0.155550 0.003788 0.020819
v -0.155814 0.003788 0.019282
v -0.155947 0.002437 0.018513
v -0.155814 0.001086 0.019282
v -0.155550 0.001086 0.020819
v -0.155417 0.002437 0.021588
v -0.163235 0.002908 0.023482
v -0.164165 0.002908 0.022230
v -0.164630 0.001557 0.021603
v -0.164165 0.000206 0.022230
v -0.163235 0.000206 0.023482
v -0.162771 0.001557 0.024108
v -0.168620 0.002908 0.031831
v -0.170134 0.002908 0.031457
v -0.170892 0.001557 0.031271
v -0.170134 0.000206 0.031457
v -0.168620 0.000206 0.031831
v -0.167863 0.001557 0.032018
v -0.167940 0.002908 0.039961
v -0.169358 0.002908 0.040612
v -0.170067 0.001557 0.040938
v -0.169358 0.000206 0.040612
v -0.167940 0.000206 0.039961
v -0.167231 0.001557 0.039636
v -0.163056 0.002908 0.044850
v -0.163821 0.002908 0.046209
v -0.164203 0.001557 0.046889
v -0.163821 0.000206 0.046209
v -0.163056 0.000206 0.044850
v -0.162673 0.001557 0.044170
v -0.154445 0.003968 0.047730
v -0.154490 0.003968 0.049290
v -0.154513 0.002617 0.050069
v -0.154490 0.001266 0.049290
v -0.154445 0.001266 0.047730
v -0.154422 0.002617 0.046951
v -0.140027 0.002908 0.044855
v -0.139433 0.002908 0.046297
v -0.139136 0.001557 0.047019
v -0.139433 0.000206 0.046297
v -0.140027 0.000206 0.044855
v -0.140324 0.001557 0.044134
v -0.126629 0.002908 0.035974
v -0.125671 0.002908 0.037206
v -0.125192 0.001557 0.037821
v -0.125671 0.000206 0.037206
v -0.126630 0.000206 0.035974
v -0.127109 0.001557 0.035359
v -0.113511 0.005035 0.024037
v -0.112470 0.005035 0.025199
v -0.111950 0.003684 0.025780
v -0.112470 0.002333 0.025199
v -0.113511 0.002333 0.024037
v -0.114031 0.003684 0.023456
v -0.099973 0.010139 0.012096
v -0.099051 0.010139 0.013355
v -0.098590 0.008788 0.013984
v -0.099051 0.007437 0.013355
v -0.099973 0.007437 0.012096
v -0.100434 0.008788 0.011467
v -0.085242 0.016603 0.003246
v -0.084711 0.016603 0.004713
v -0.084445 0.015252 0.005446
v -0.084711 0.013901 0.004713
v -0.085242 0.013901 0.003246
v -0.085508 0.015252 0.002513
v -0.068644 0.020876 0.000669
v -0.068644 0.020876 0.002223
v -0.068644 0.019525 0.002999
v -0.068644 0.018174 0.002223
v -0.068644 0.018174 0.000669
v -0.068644 0.019525 -0.000108
vn 0.1581 -0.9747 0.1581
vn -0.1581 -0.9747 0.1581
vn -0.1581 -0.9747 -0.1581
vn 0.1581 -0.9747 -0.1581
vn 0.1428 -0.6812 -0.7180
vn 0.5222 -0.6742 -0.5222
vn 0.1951 -0.0006 -0.9808
vn 0.7071 -0.0006 -0.7071
vn 0.1581 0.9747 -0.1581
vn 0.5226 0.6737 -0.5226
vn 0.1429 0.6808 -0.7184
vn 0.7180 -0.6812 -0.1428
vn 0.9808 -0.0006 -0.1951
vn 0.7184 0.6808 -0.1429
vn 0.1581 0.9747 0.1581
vn 0.1429 0.6808 0.7184
vn 0.5226 0.6737 0.5226
vn 0.1951 -0.0006 0.9808
vn 0.7071 -0.0006 0.7071
vn 0.5222 -0.6742 0.5222
vn 0.1428 -0.6812 0.7180
vn 0.7184 0.6808 0.1429
vn 0.9808 -0.0006 0.1951
vn 0.7180 -0.6812 0.1428
vn -0.1428 -0.6812 0.7180
vn -0.5222 -0.6742 0.5222
vn -0.1951 -0.0006 0.9808
vn -0.7071 -0.0006 0.7071
vn -0.1581 0.9747 0.1581
vn -0.5226 0.6737 0.5226
vn -0.1429 0.6808 0.7184
vn -0.7180 -0.6812 0.1428
vn -0.9808 -0.0006 0.1951
vn -0.7184 0.6808 0.1429
vn -0.1581 0.9747 -0.1581
vn -0.1429 0.6808 -0.7184
vn -0.5226 0.6737 -0.5226
vn -0.1951 -0.0006 -0.9808
vn -0.7071 -0.0006 -0.7071
vn -0.5222 -0.6742 -0.5222
vn -0.1428 -0.6812 -0.7180
vn -0.7184 0.6808 -0.1429
vn -0.9808 -0.0006 -0.1951
vn -0.7180 -0.6812 -0.1428
vn -0.2197 0.8500 0.4788
vn -0.2578 0.8374 0.4820
vn 0.0546 0.0285 0.9981
vn -0.0604 0.0672 0.9959
vn -0.1841 0.8759 -0.4460
vn -0.3081 0.8279 -0.4688
vn 0.0252 0.0762 -0.9968
vn -0.1078 0.0368 -0.9935
vn 0.2141 -0.8268 -0.5202
vn 0.2276 -0.7923 -0.5661
vn 0.1699 -0.8302 0.5309
vn 0.3439 -0.8362 0.4271
vn -0.2315 0.8041 0.5476
vn 0.2876 -0.0035 0.9578
vn -0.4781 0.7886 -0.3867
vn -0.2788 -0.0053 -0.9603
vn 0.1933 -0.7938 -0.5766
vn 0.4904 -0.8041 0.3361
vn -0.0616 0.8284 0.5567
vn 0.4181 -0.0286 0.9080
vn -0.4501 0.8124 -0.3708
vn -0.3799 -0.0315 -0.9245
vn 0.0469 -0.8356 -0.5474
vn 0.4380 -0.8375 0.3267
vn 0.1332 0.8502 0.5094
vn 0.4272 -0.0335 0.9035
vn -0.3007 0.8548 -0.4230
vn -0.4138 -0.0345 -0.9097
vn -0.1175 -0.8724 -0.4744
vn 0.2891 -0.8669 0.4061
vn 0.1795 0.8580 0.4812
vn 0.3495 -0.0000 0.9369
vn -0.1699 0.8741 -0.4551
vn -0.3497 -0.0000 -0.9368
vn -0.1699 -0.8741 -0.4551
vn 0.1795 -0.8580 0.4812
vn 0.1505 0.8505 0.5040
vn 0.2176 -0.0137 0.9759
vn -0.0671 0.8731 -0.4828
vn -0.2193 -0.0145 -0.9755
vn -0.1425 -0.8791 -0.4549
vn 0.0761 -0.8586 0.5070
vn -0.1248 0.8620 -0.4912
vn 0.1014 0.8816 0.4610
vn -0.2368 0.0301 -0.9711
vn -0.1283 -0.8393 -0.5283
vn 0.1221 -0.8738 0.4707
vn 0.2362 0.0302 0.9712
vn 0.2113 0.9113 0.3534
vn 0.6217 -0.0178 0.7831
vn -0.3903 0.8126 -0.4328
vn -0.6168 -0.0166 -0.7869
vn -0.3178 -0.8313 -0.4560
vn 0.2940 -0.9093 0.2945
vn 0.4022 0.9100 0.1003
vn 0.9701 -0.0000 0.2426
vn -0.5541 0.8208 -0.1387
vn -0.9702 -0.0000 -0.2421
vn -0.5541 -0.8208 -0.1387
vn 0.4022 -0.9100 0.1003
vn -0.5198 0.8200 0.2396
vn 0.3683 0.9139 -0.1707
vn -0.9083 -0.0000 0.4182
vn -0.5198 -0.8200 0.2396
vn 0.3683 -0.9139 -0.1707
vn 0.9069 -0.0000 -0.4214
vn -0.3366 0.8208 0.4615
vn 0.1861 0.8960 -0.4032
vn -0.5228 -0.0184 0.8522
vn -0.2510 -0.8413 0.4787
vn 0.2772 -0.8940 -0.3520
vn 0.5308 -0.0171 -0.8473
vn -0.0478 0.8463 0.5306
vn 0.0053 0.9010 -0.4339
vn -0.0593 0.0293 0.9978
vn -0.0226 -0.8165 0.5768
vn 0.0476 -0.9019 -0.4294
vn 0.0648 0.0300 -0.9975
vn -0.1412 0.8921 -0.4292
vn -0.3820 -0.0109 -0.9241
vn 0.2341 0.8338 0.5000
vn 0.3791 -0.0116 0.9253
vn 0.1783 -0.8448 0.5044
vn -0.2019 -0.8923 -0.4037
vn -0.3427 0.8708 -0.3524
vn -0.6127 -0.0192 -0.7901
vn 0.2845 0.8479 0.4473
vn 0.6152 -0.0187 0.7881
vn 0.3512 -0.8594 0.3717
vn -0.2500 -0.8784 -0.4073
vn -0.4700 0.8407 -0.2689
vn -0.6593 -0.0263 -0.7515
vn 0.2050 0.8480 0.4887
vn 0.6744 -0.0230 0.7380
vn 0.4529 -0.8554 0.2513
vn -0.1966 -0.8588 -0.4731
vn -0.5219 0.8083 -0.2725
vn -0.5826 -0.0161 -0.8126
vn 0.0407 0.8387 0.5431
vn 0.5984 -0.0096 0.8012
vn 0.5073 -0.8347 0.2143
vn -0.0830 -0.8269 -0.5561
vn -0.4000 0.8170 -0.4153
vn -0.3500 0.0168 -0.9366
vn -0.1187 0.8541 0.5064
vn 0.3290 0.0181 0.9442
vn 0.4213 -0.8489 0.3191
vn 0.0387 -0.8038 -0.5936
vn -0.2893 0.8409 -0.4574
vn -0.1733 0.0817 -0.9815
vn -0.1604 0.8763 0.4543
vn 0.1326 0.0765 0.9882
vn 0.2924 -0.8414 0.4544
vn 0.1156 -0.7993 -0.5897
vt 0.659839 0.401419
vt 0.081194 0.138889
vt 0.685455 0.280534
vt 0.073479 0.000000
vt 0.087099 0.000000
vt 0.674095 0.277778
vt 0.880597 0.376826
vt 0.758934 0.370170
vt 1.000000 0.367414
vt 0.761194 0.384029
vt 1.000000 0.384029
vt 0.000000 0.138889
vt 0.880597 0.277778
vt 0.726052 0.301048
vt 0.016066 0.000000
vt 0.742118 0.320647
vt 1.000000 0.297377
vt 0.880597 0.376826
vt 0.002260 0.370170
vt 1.000000 0.367414
vt 1.000000 0.384029
vt 0.000000 0.384029
vt 0.680000 0.138889
vt 0.075739 0.280534
vt 0.687715 0.000000
vt 0.674095 0.000000
vt 0.087099 0.277778
vt 0.101355 0.401419
vt 0.761194 0.138889
vt 0.880597 0.277778
vt 0.035142 0.301048
vt 0.745128 0.000000
vt 0.019076 0.320647
vt 1.000000 0.297377
vt 0.659839 0.876358
vt 0.880597 0.900952
vt 0.758934 0.907607
vt 1.000000 0.910364
vt 0.761194 0.893749
vt 1.000000 0.893749
vt 0.081194 0.138889
vt 0.685455 0.997243
vt 0.073479 0.000000
vt 0.087099 0.000000
vt 0.674095 1.000000
vt 0.000000 0.138889
vt 0.880597 1.000000
vt 0.726052 0.976730
vt 0.016066 0.000000
vt 0.742118 0.957131
vt 1.000000 0.980401
vt 0.680000 0.138889
vt 0.075739 0.997243
vt 0.687715 0.000000
vt 0.674095 0.000000
vt 0.087099 1.000000
vt 0.880597 0.900952
vt 0.002260 0.907607
vt 1.000000 0.910364
vt 1.000000 0.893749
vt 0.000000 0.893749
vt 0.101355 0.876358
vt 0.761194 0.138889
vt 0.880597 1.000000
vt 0.035142 0.976730
vt 0.745128 0.000000
vt 0.019076 0.957131
vt 1.000000 0.980401
vt 0.002260 0.370170
vt 0.761194 0.367414
vt 0.000000 0.384029
vt 0.761194 0.384029
vt 0.101355 0.401419
vt 0.075739 0.280534
vt 0.073479 0.277778
vt 0.087099 0.277778
vt 0.035142 0.301048
vt 0.016066 0.277778
vt 0.019076 0.320647
vt 0.761194 0.297377
vt 0.659839 0.401419
vt 0.685455 0.280534
vt 0.687715 0.277778
vt 0.674095 0.277778
vt 0.758934 0.370170
vt 0.761194 0.367414
vt 0.761194 0.384029
vt 0.726052 0.301048
vt 0.745128 0.277778
vt 0.742118 0.320647
vt 0.761194 0.297377
vt 0.075739 0.997243
vt 0.073479 0.277778
vt 0.087099 1.000000
vt 0.087099 0.277778
vt 0.101355 0.876358
vt 0.002260 0.907607
vt 0.761194 0.910364
vt 0.000000 0.893749
vt 0.761194 0.893749
vt 0.035142 0.976730
vt 0.016066 0.277778
vt 0.019076 0.957131
vt 0.761194 0.980401
vt 0.659839 0.876358
vt 0.758934 0.907607
vt 0.761194 0.910364
vt 0.761194 0.893749
vt 0.685455 0.997243
vt 0.687715 0.277778
vt 0.674095 1.000000
vt 0.674095 0.277778
vt 0.726052 0.976730
vt 0.745128 0.277778
vt 0.742118 0.957131
vt 0.761194 0.980401
vt 0.930617 0.001843
vt 0.947942 0.000613
vt 0.965288 -0.000003
vt 0.982634 0.000608
vt 0.999958 0.001833
vt 0.895927 0.001855
vt 0.913273 0.002461
vt 0.930668 0.254389
vt 0.965246 0.221722
vt 0.947973 0.255998
vt 0.947942 0.223334
vt 0.965313 0.256801
vt 0.930601 0.224139
vt 0.982654 0.255993
vt 0.913261 0.223330
vt 0.999958 0.254379
vt 0.895987 0.254401
vt 0.895957 0.221715
vt 0.999927 0.221722
vt 0.913328 0.253587
vt 0.982587 0.220916
vt 0.965250 0.035256
vt 0.930704 0.052506
vt 0.947953 0.033527
vt 0.948002 0.050791
vt 0.930614 0.032662
vt 0.965341 0.049939
vt 0.913276 0.033523
vt 0.982680 0.050809
vt 0.895979 0.035249
vt 0.999927 0.035257
vt 0.999977 0.052540
vt 0.896027 0.052468
vt 0.982589 0.036121
vt 0.913365 0.053354
vt 0.930606 0.205453
vt 0.930624 0.055108
vt 0.947942 0.206389
vt 0.947962 0.054190
vt 0.965291 0.206862
vt 0.965310 0.053733
vt 0.982640 0.206406
vt 0.982659 0.054196
vt 0.999976 0.205487
vt 0.895908 0.205415
vt 0.999996 0.055119
vt 0.895927 0.055095
vt 0.913257 0.204976
vt 0.913276 0.055564
vt 0.930593 0.202869
vt 0.965292 0.211778
vt 0.947942 0.202465
vt 0.947942 0.211366
vt 0.965294 0.202265
vt 0.930591 0.211156
vt 0.982646 0.202471
vt 0.913239 0.211351
vt 0.999996 0.202880
vt 0.895889 0.202856
vt 0.895889 0.211749
vt 0.999996 0.211780
vt 0.913241 0.203068
vt 0.982644 0.211986
vt 0.965305 0.045439
vt 0.930619 0.023485
vt 0.947982 0.046688
vt 0.947942 0.024734
vt 0.930636 0.047309
vt 0.965288 0.025358
vt 0.913291 0.046673
vt 0.982633 0.024730
vt 0.895968 0.045410
vt 0.999996 0.045441
vt 0.999957 0.023476
vt 0.895928 0.023495
vt 0.982650 0.044816
vt 0.913273 0.022862
vt 0.930655 0.233172
vt 0.965316 0.197419
vt 0.947964 0.231643
vt 0.948028 0.195567
vt 0.965305 0.230878
vt 0.930690 0.194649
vt 0.982647 0.231639
vt 0.913355 0.195606
vt 0.999957 0.233163
vt 0.895971 0.233182
vt 0.896069 0.197498
vt 0.999989 0.197414
vt 0.913313 0.233939
vt 0.982653 0.198343
vt 0.965287 0.059375
vt 0.956490 0.186936
vt 0.965035 0.186962
vt 0.956801 0.059376
vt 0.947942 0.058758
vt 0.956428 0.058749
vt 0.947903 0.190387
vt 0.956447 0.190490
vt 0.939077 0.058448
vt 0.939142 0.192117
vt 0.921726 0.058787
vt 0.913240 0.058797
vt 0.921869 0.190061
vt 0.913326 0.189946
vt 0.895895 0.059453
vt 0.991503 0.059370
vt 0.896254 0.186084
vt 0.991085 0.187023
vt 0.973790 0.185277
vt 0.974152 0.059682
vt 0.965327 0.074701
vt 0.964425 0.196476
vt 0.948793 0.068167
vt 0.948186 0.204064
vt 0.931653 0.064800
vt 0.931108 0.207881
vt 0.914462 0.067729
vt 0.914015 0.204166
vt 0.897823 0.073839
vt 0.999631 0.074769
vt 0.897746 0.196676
vt 0.998587 0.196460
vt 0.982475 0.078003
vt 0.981505 0.192674
vt 0.964341 0.059365
vt 0.964373 0.185073
vt 0.947925 0.052386
vt 0.947927 0.191940
vt 0.930799 0.048920
vt 0.930794 0.195353
vt 0.913686 0.052488
vt 0.913672 0.191849
vt 0.897297 0.059566
vt 0.998587 0.059349
vt 0.897250 0.184894
vt 0.998635 0.185088
vt 0.981465 0.062847
vt 0.981505 0.181647
vt 0.964437 0.072471
vt 0.964836 0.174656
vt 0.948122 0.065137
vt 0.948582 0.182193
vt 0.931026 0.061448
vt 0.931509 0.186049
vt 0.913917 0.065046
vt 0.914384 0.182571
vt 0.897576 0.072293
vt 0.998635 0.072486
vt 0.898024 0.175395
vt 0.999006 0.174594
vt 0.981535 0.076146
vt 0.981917 0.170855
vt 0.964960 0.192824
vt 0.964611 0.079287
vt 0.947888 0.073539
vt 0.947912 0.196840
vt 0.930681 0.070752
vt 0.930630 0.198781
vt 0.913517 0.073919
vt 0.913371 0.196541
vt 0.896879 0.080036
vt 0.999006 0.079224
vt 0.896370 0.192230
vt 0.999515 0.192871
vt 0.982239 0.190840
vt 0.981811 0.082128
vt 0.965159 0.067988
vt 0.941460 0.027495
vt 0.931196 0.027703
vt 0.954889 0.067609
vt 0.948560 0.061711
vt 0.958866 0.061418
vt 0.948115 0.022914
vt 0.937845 0.022666
vt 0.941711 0.058226
vt 0.955090 0.020286
vt 0.924517 0.061135
vt 0.914244 0.061414
vt 0.972333 0.022705
vt 0.982596 0.022950
vt 0.897576 0.067403
vt 0.989229 0.067666
vt 0.999508 0.027774
vt 0.906973 0.027417
vt 0.924212 0.029872
vt 0.972054 0.070772
vt 0.930918 0.230298
vt 0.931314 0.019239
vt 0.947940 0.234478
vt 0.948351 0.015150
vt 0.965210 0.236579
vt 0.965628 0.013130
vt 0.982483 0.234514
vt 0.982898 0.015231
vt 0.999512 0.230370
vt 0.896373 0.230219
vt 0.999922 0.019399
vt 0.896774 0.019061
vt 0.913649 0.228190
vt 0.914037 0.021243
vt 0.930643 0.241073
vt 0.930716 0.007195
vt 0.947941 0.242789
vt 0.948018 0.005554
vt 0.965279 0.243671
vt 0.965359 0.004738
vt 0.982620 0.242870
vt 0.982698 0.005568
vt 0.999922 0.241234
vt 0.895962 0.240894
vt 1.000000 0.007223
vt 0.896036 0.007165
vt 0.913306 0.240174
vt 0.913376 0.008009
vt 0.930590 0.251994
vt 0.930590 0.003369
vt 0.947942 0.251841
vt 0.947942 0.003517
vt 0.965295 0.251768
vt 0.965295 0.003586
vt 0.982648 0.251855
vt 0.982648 0.003498
vt 1.000000 0.252021
vt 0.895885 0.251963
vt 1.000000 0.003330
vt 0.895885 0.003410
vt 0.913237 0.252063
vt 0.913237 0.003304
vt 0.930768 0.252506
vt 0.930658 0.009198
vt 0.948048 0.250542
vt 0.947944 0.011089
vt 0.965383 0.249554
vt 0.965281 0.012012
vt 0.982718 0.250523
vt 0.982615 0.011016
vt 1.000000 0.252468
vt 0.896098 0.252548
vt 0.999895 0.009053
vt 0.895989 0.009357
vt 0.913433 0.253498
vt 0.913321 0.008289
vt 0.931305 0.246372
vt 0.930910 0.011697
vt 0.948324 0.242167
vt 0.947945 0.015800
vt 0.965592 0.240042
vt 0.965220 0.017834
vt 0.982865 0.242094
vt 0.982491 0.015743
vt 0.999895 0.246228
vt 0.896759 0.246531
vt 0.999517 0.011584
vt 0.896368 0.011821
vt 0.914038 0.248512
vt 0.913634 0.009674
vt 0.931287 0.243518
vt 0.948294 0.240186
vt 0.965576 0.238503
vt 0.965335 0.238503
vt 0.982557 0.240130
vt 0.999635 0.243406
vt 0.897011 0.243641
vt 0.914066 0.245213
vt 0.914299 0.245212
s 1
usemtl soap_mx_1
f 12/28/1 1/1/2 15/35/3 26/62/4
f 26/62/4 23/53/5 28/65/6
f 28/66/6 23/54/5 22/52/7 27/63/8
f 41/105/9 44/113/10 43/109/11
f 43/110/11 44/114/10 27/63/8 22/52/7
f 26/62/4 28/67/6 25/58/12
f 25/59/12 28/68/6 27/64/8 24/57/13
f 41/105/9 42/106/14 44/115/10
f 44/116/10 42/107/14 24/57/13 27/64/8
f 33/81/15 34/82/16 36/88/17
f 36/89/17 34/83/16 10/23/18 13/29/19
f 12/28/1 14/31/20 11/24/21
f 11/25/21 14/32/20 13/29/19 10/23/18
f 33/81/15 36/90/17 35/85/22
f 35/86/22 36/91/17 13/30/19 8/18/23
f 12/28/1 9/19/24 14/33/20
f 14/34/20 9/20/24 8/18/23 13/30/19
f 1/1/2 3/3/25 7/14/26
f 7/15/26 3/4/25 2/2/27 6/12/28
f 30/73/29 32/77/30 31/74/31
f 31/75/31 32/78/30 6/12/28 2/2/27
f 1/1/2 7/16/26 5/8/32
f 5/9/32 7/17/26 6/13/28 4/7/33
f 30/73/29 29/69/34 32/79/30
f 32/80/30 29/70/34 4/7/33 6/13/28
f 38/96/35 37/92/36 40/101/37
f 40/102/37 37/93/36 18/41/38 20/46/39
f 15/35/3 21/48/40 19/42/41
f 19/43/41 21/49/40 20/46/39 18/41/38
f 38/96/35 40/103/37 39/97/42
f 39/98/42 40/104/37 20/47/39 16/36/43
f 15/35/3 17/37/44 21/50/40
f 21/51/40 17/38/44 16/36/43 20/47/39
f 15/35/3 1/1/2 5/10/32 17/39/44
f 17/40/44 5/11/32 4/7/33 16/36/43
f 30/73/29 38/96/35 39/99/42 29/71/34
f 29/72/34 39/100/42 16/36/43 4/7/33
f 10/23/18 2/2/27 3/5/25 11/26/21
f 11/27/21 3/6/25 1/1/2 12/28/1
f 18/41/38 22/52/7 23/55/5 19/44/41
f 19/45/41 23/56/5 26/62/4 15/35/3
f 24/57/13 8/18/23 9/21/24 25/60/12
f 25/61/12 9/22/24 12/28/1 26/62/4
f 33/81/15 30/73/29 31/76/31 34/84/16
f 34/84/16 31/76/31 2/2/27 10/23/18
f 41/105/9 33/81/15 35/87/22 42/108/14
f 42/108/14 35/87/22 8/18/23 24/57/13
f 38/96/35 41/105/9 43/111/11 37/94/36
f 37/95/36 43/112/11 22/52/7 18/41/38
f 38/96/35 30/73/29 33/81/15 41/105/9
f 45/117/45 51/124/46 56/136/47 50/123/48
f 46/118/49 52/126/50 51/124/46 45/117/45
f 47/119/51 53/128/52 52/126/50 46/118/49
f 48/120/53 54/130/54 53/128/52 47/119/51
f 49/121/55 55/132/56 54/130/54 48/120/53
f 50/123/48 56/136/47 55/133/56 49/122/55
f 51/125/46 57/138/57 62/150/58 56/137/47
f 52/127/50 58/140/59 57/138/57 51/125/46
f 53/129/52 59/142/60 58/140/59 52/127/50
f 54/131/54 60/144/61 59/142/60 53/129/52
f 55/134/56 61/146/62 60/144/61 54/131/54
f 56/137/47 62/150/58 61/147/62 55/135/56
f 57/139/57 63/152/63 68/164/64 62/151/58
f 58/141/59 64/154/65 63/152/63 57/139/57
f 59/143/60 65/156/66 64/154/65 58/141/59
f 60/145/61 66/158/67 65/156/66 59/143/60
f 61/148/62 67/160/68 66/158/67 60/145/61
f 62/151/58 68/164/64 67/161/68 61/149/62
f 63/153/63 69/166/69 74/178/70 68/165/64
f 64/155/65 70/168/71 69/166/69 63/153/63
f 65/157/66 71/170/72 70/168/71 64/155/65
f 66/159/67 72/172/73 71/170/72 65/157/66
f 67/162/68 73/174/74 72/172/73 66/159/67
f 68/165/64 74/178/70 73/175/74 67/163/68
f 69/167/69 75/180/75 80/192/76 74/179/70
f 70/169/71 76/182/77 75/180/75 69/167/69
f 71/171/72 77/184/78 76/182/77 70/169/71
f 72/173/73 78/186/79 77/184/78 71/171/72
f 73/176/74 79/188/80 78/186/79 72/173/73
f 74/179/70 80/192/76 79/189/80 73/177/74
f 75/181/75 81/194/81 86/206/82 80/193/76
f 76/183/77 82/196/83 81/194/81 75/181/75
f 77/185/78 83/198/84 82/196/83 76/183/77
f 78/187/79 84/200/85 83/198/84 77/185/78
f 79/190/80 85/202/86 84/200/85 78/187/79
f 80/193/76 86/206/82 85/203/86 79/191/80
f 82/197/83 88/212/87 87/208/88 81/195/81
f 83/199/84 89/216/89 88/213/87 82/197/83
f 84/201/85 90/218/90 89/216/89 83/199/84
f 85/204/86 91/222/91 90/219/90 84/201/85
f 86/207/82 92/227/92 91/223/91 85/205/86
f 87/209/88 93/228/93 98/240/94 92/226/92
f 88/214/87 94/230/95 93/228/93 87/210/88
f 89/217/89 95/232/96 94/230/95 88/215/87
f 90/220/90 96/234/97 95/232/96 89/217/89
f 91/224/91 97/236/98 96/234/97 90/221/90
f 92/226/92 98/240/94 97/237/98 91/225/91
f 93/229/93 99/242/99 104/254/100 98/241/94
f 94/231/95 100/244/101 99/242/99 93/229/93
f 95/233/96 101/246/102 100/244/101 94/231/95
f 96/235/97 102/248/103 101/246/102 95/233/96
f 97/238/98 103/250/104 102/248/103 96/235/97
f 98/241/94 104/254/100 103/251/104 97/239/98
f 100/245/101 106/258/105 105/256/106 99/243/99
f 101/247/102 107/260/107 106/258/105 100/245/101
f 102/249/103 108/262/108 107/260/107 101/247/102
f 103/252/104 109/264/109 108/262/108 102/249/103
f 104/255/100 110/268/110 109/265/109 103/253/104
f 81/195/81 87/211/88 92/227/92 86/207/82
f 106/259/105 112/272/111 111/271/112 105/257/106
f 107/261/107 113/274/113 112/272/111 106/259/105
f 108/263/108 114/276/114 113/274/113 107/261/107
f 109/266/109 115/278/115 114/276/114 108/263/108
f 110/269/110 116/283/116 115/279/115 109/267/109
f 99/243/99 105/256/106 110/268/110 104/255/100
f 112/273/111 118/288/117 117/284/118 111/270/112
f 113/275/113 119/292/119 118/289/117 112/273/111
f 114/277/114 120/294/120 119/292/119 113/275/113
f 115/280/115 121/298/121 120/295/120 114/277/114
f 116/282/116 122/303/122 121/299/121 115/281/115
f 117/285/118 123/304/123 128/316/124 122/302/122
f 118/290/117 124/306/125 123/304/123 117/286/118
f 119/293/119 125/308/126 124/306/125 118/291/117
f 120/296/120 126/310/127 125/308/126 119/293/119
f 121/300/121 127/312/128 126/310/127 120/297/120
f 122/302/122 128/316/124 127/313/128 121/301/121
f 123/305/123 129/318/129 134/330/130 128/317/124
f 124/307/125 130/320/131 129/318/129 123/305/123
f 125/309/126 131/322/132 130/320/131 124/307/125
f 126/311/127 132/324/133 131/322/132 125/309/126
f 127/314/128 133/326/134 132/324/133 126/311/127
f 128/317/124 134/330/130 133/327/134 127/315/128
f 129/319/129 135/332/135 140/344/136 134/331/130
f 130/321/131 136/334/137 135/332/135 129/319/129
f 131/323/132 137/336/138 136/334/137 130/321/131
f 132/325/133 138/338/139 137/336/138 131/323/132
f 133/328/134 139/340/140 138/338/139 132/325/133
f 134/331/130 140/344/136 139/341/140 133/329/134
f 135/333/135 141/346/141 146/358/142 140/345/136
f 136/335/137 142/348/143 141/346/141 135/333/135
f 137/337/138 143/350/144 142/348/143 136/335/137
f 138/339/139 144/352/145 143/350/144 137/337/138
f 139/342/140 145/354/146 144/352/145 138/339/139
f 140/345/136 146/358/142 145/355/146 139/343/140
f 141/347/141 147/360/147 152/372/148 146/359/142
f 142/349/143 148/362/149 147/360/147 141/347/141
f 143/351/144 149/364/150 148/362/149 142/349/143
f 144/353/145 150/366/151 149/364/150 143/351/144
f 145/356/146 151/368/152 150/366/151 144/353/145
f 146/359/142 152/372/148 151/369/152 145/357/146
f 147/361/147 153/374/153 158/381/154 152/373/148
f 148/363/149 154/375/155 153/374/153 147/361/147
f 149/365/150 155/376/156 154/375/155 148/363/149
f 150/367/151 156/378/157 155/377/156 149/365/150
f 151/370/152 157/379/158 156/378/157 150/367/151
f 152/373/148 158/382/154 157/380/158 151/371/152
f 111/270/112 117/287/118 122/303/122 116/282/116
f 105/257/106 111/271/112 116/283/116 110/269/110
