# Blender 3.4.0
# www.blender.org
mtllib soap_mx_1.mtl
o soap_mx_1
v -0.011736 0.000000 0.031585
v -0.014047 0.017550 0.049135
v -0.013370 0.005140 0.043995
v -0.029532 0.000000 0.026817
v -0.035956 0.005140 0.037943
v -0.040868 0.000000 0.015481
v -0.051995 0.005140 0.021905
v 0.011723 0.000000 0.031585
v 0.013356 0.005140 0.043995
v 0.040855 0.000000 0.015481
v 0.051981 0.005140 0.021905
v 0.029519 0.000000 0.026817
v 0.038603 0.017550 0.042552
v 0.035942 0.005140 0.037943
v -0.045018 0.000000 -0.000004
v -0.057865 0.005140 -0.000004
v -0.011736 0.000000 -0.031594
v -0.013370 0.005140 -0.044004
v -0.040868 0.000000 -0.015490
v -0.056603 0.017550 -0.024574
v -0.051995 0.005140 -0.021914
v -0.029532 0.000000 -0.026826
v -0.035956 0.005140 -0.037952
v 0.011723 0.000000 -0.031594
v 0.013356 0.005140 -0.044004
v 0.045004 0.000000 -0.000004
v 0.063173 0.017550 -0.000004
v 0.057851 0.005140 -0.000004
v 0.029519 0.000000 -0.026826
v 0.035942 0.005140 -0.037952
v 0.040855 0.000000 -0.015490
v 0.056590 0.017550 -0.024574
v 0.051981 0.005140 -0.021914
v -0.011736 0.035100 0.031585
v -0.013370 0.029960 0.043995
v -0.056603 0.017550 0.024566
v -0.040868 0.035100 0.015481
v -0.051995 0.029960 0.021905
v -0.029532 0.035100 0.026817
v -0.038617 0.017550 0.042552
v -0.035956 0.029960 0.037943
v 0.011723 0.035100 0.031585
v 0.014033 0.017550 0.049135
v 0.013356 0.029960 0.043995
v 0.029519 0.035100 0.026817
v 0.035942 0.029960 0.037943
v 0.040855 0.035100 0.015481
v 0.056590 0.017550 0.024566
v 0.051981 0.029960 0.021905
v -0.011736 0.035100 -0.031594
v -0.014047 0.017550 -0.049144
v -0.013370 0.029960 -0.044004
v -0.045018 0.035100 -0.000004
v -0.063187 0.017550 -0.000004
v -0.057865 0.029960 -0.000004
v -0.029532 0.035100 -0.026826
v -0.038617 0.017550 -0.042561
v -0.035956 0.029960 -0.037952
v -0.040868 0.035100 -0.015490
v -0.051995 0.029960 -0.021914
v 0.045004 0.035100 -0.000004
v 0.057851 0.029960 -0.000004
v 0.011723 0.035100 -0.031594
v 0.014033 0.017550 -0.049144
v 0.013356 0.029960 -0.044004
v 0.040855 0.035100 -0.015490
v 0.051981 0.029960 -0.021914
v 0.029519 0.035100 -0.026826
v 0.038603 0.017550 -0.042561
v 0.035942 0.029960 -0.037952
vn -0.0273 -0.9779 0.2072
vn -0.1096 -0.9757 0.1898
vn -0.1898 -0.9757 0.1096
vn -0.2192 -0.9757 -0.0000
vn -0.1898 -0.9757 -0.1096
vn -0.1096 -0.9757 -0.1898
vn -0.0273 -0.9779 -0.2072
vn 0.0273 -0.9779 -0.2072
vn 0.1096 -0.9757 -0.1898
vn 0.1898 -0.9757 -0.1096
vn 0.2192 -0.9757 -0.0000
vn 0.1898 -0.9757 0.1096
vn 0.1096 -0.9757 0.1898
vn 0.0273 -0.9779 0.2072
vn -0.2192 0.9757 -0.0000
vn -0.1898 0.9757 0.1096
vn -0.1096 0.9757 0.1898
vn -0.0273 0.9779 0.2072
vn 0.0273 0.9779 0.2072
vn 0.1096 0.9757 0.1898
vn 0.1898 0.9757 0.1096
vn 0.2192 0.9757 -0.0000
vn 0.1898 0.9757 -0.1096
vn 0.1096 0.9757 -0.1898
vn 0.0273 0.9779 -0.2072
vn -0.0273 0.9779 -0.2072
vn -0.1096 0.9757 -0.1898
vn -0.1898 0.9757 -0.1096
vn -0.7282 0.6854 -0.0000
vn -0.6306 0.6854 0.3641
vn -1.0000 -0.0000 -0.0000
vn -0.8660 -0.0000 0.5000
vn -0.6306 -0.6854 0.3641
vn -0.7282 -0.6854 -0.0000
vn 0.7282 -0.6854 -0.0000
vn 0.6306 -0.6854 0.3641
vn 1.0000 -0.0000 -0.0000
vn 0.8660 -0.0000 0.5000
vn 0.6306 0.6854 0.3641
vn 0.7282 0.6854 -0.0000
vn 0.0940 -0.6937 -0.7141
vn 0.3641 -0.6854 -0.6306
vn 0.1305 -0.0000 -0.9914
vn 0.5000 -0.0000 -0.8660
vn 0.3641 0.6854 -0.6306
vn 0.0940 0.6937 -0.7141
vn 0.6306 -0.6854 -0.3641
vn 0.8660 -0.0000 -0.5000
vn 0.6306 0.6854 -0.3641
vn 0.0940 0.6937 0.7141
vn 0.3641 0.6854 0.6306
vn 0.1305 -0.0000 0.9914
vn 0.5000 -0.0000 0.8660
vn 0.3641 -0.6854 0.6306
vn 0.0940 -0.6937 0.7141
vn -0.0940 -0.6937 0.7141
vn -0.3641 -0.6854 0.6306
vn -0.1305 -0.0000 0.9914
vn -0.5000 -0.0000 0.8660
vn -0.3641 0.6854 0.6306
vn -0.0940 0.6937 0.7141
vn -0.0940 0.6937 -0.7141
vn -0.3641 0.6854 -0.6306
vn -0.1305 -0.0000 -0.9914
vn -0.5000 -0.0000 -0.8660
vn -0.3641 -0.6854 -0.6306
vn -0.0940 -0.6937 -0.7141
vn -0.6306 0.6854 -0.3641
vn -0.8660 -0.0000 -0.5000
vn -0.6306 -0.6854 -0.3641
vt 0.451256 0.406746
vt 0.296020 0.138889
vt 0.469112 0.279065
vt 0.292082 0.000000
vt 0.300097 0.000000
vt 0.461097 0.277778
vt 0.558459 0.441787
vt 0.605170 0.323538
vt 0.156024 0.000000
vt 0.619051 0.333315
vt 0.139996 0.000000
vt 0.626748 0.525092
vt 0.723682 0.468110
vt 1.000000 0.297331
vt 0.715668 0.451176
vt 0.008014 0.000000
vt 0.309938 0.406746
vt 0.292082 0.279065
vt 0.469112 0.000000
vt 0.461098 0.000000
vt 0.300096 0.277778
vt 0.134446 0.525092
vt 0.037512 0.468110
vt 1.000000 0.297331
vt 0.045526 0.451176
vt 0.753180 0.000000
vt 0.202735 0.441787
vt 0.613184 0.138889
vt 0.156024 0.323538
vt 0.605170 0.000000
vt 0.142143 0.333315
vt 0.621198 0.000000
vt 0.651743 0.638889
vt 0.759047 0.629112
vt 1.000000 0.619336
vt 0.759047 0.648665
vt 1.000000 0.648665
vt 0.451256 0.871032
vt 0.469112 0.998713
vt 0.288144 0.000000
vt 0.300097 0.000000
vt 0.461097 1.000000
vt 0.626748 0.752685
vt 0.880597 0.819444
vt 0.715668 0.826601
vt 1.000000 0.829221
vt 0.723682 0.809668
vt 1.000000 0.809668
vt 0.558459 0.835990
vt 0.605170 0.954240
vt 0.016029 0.000000
vt 0.619051 0.944463
vt 1.000000 0.990223
vt 0.309938 0.871032
vt 0.292082 0.998713
vt 0.473050 0.000000
vt 0.461098 0.000000
vt 0.300097 1.000000
vt 0.109451 0.638889
vt 0.880597 0.638889
vt 0.002147 0.629112
vt 1.000000 0.619336
vt 0.002147 0.648666
vt 1.000000 0.648666
vt 0.202735 0.835990
vt 0.156024 0.954240
vt 0.745165 0.000000
vt 0.142143 0.944463
vt 1.000000 0.990223
vt 0.134446 0.752686
vt 0.880597 0.819444
vt 0.045526 0.826602
vt 1.000000 0.829221
vt 0.037512 0.809668
vt 1.000000 0.809668
vt 0.309938 0.406746
vt 0.292082 0.279065
vt 0.292082 0.277778
vt 0.300097 0.277778
vt 0.880597 0.277778
vt 0.000000 0.138889
vt 0.134446 0.525092
vt 0.037512 0.468110
vt 0.761194 0.297331
vt 0.045526 0.451176
vt 0.008014 0.277778
vt 0.202735 0.441787
vt 0.148010 0.138889
vt 0.156024 0.323538
vt 0.156024 0.277778
vt 0.142143 0.333315
vt 0.139996 0.277778
vt 0.451256 0.406746
vt 0.465174 0.138889
vt 0.469112 0.279065
vt 0.469112 0.277778
vt 0.461098 0.277778
vt 0.558459 0.441787
vt 0.605170 0.323538
vt 0.605170 0.277778
vt 0.619051 0.333315
vt 0.621198 0.277778
vt 0.626747 0.525092
vt 0.880597 0.277778
vt 0.761194 0.138889
vt 0.723682 0.468110
vt 0.761194 0.297331
vt 0.715668 0.451176
vt 0.753180 0.277778
vt 0.309938 0.871032
vt 0.296020 0.138889
vt 0.292082 0.998713
vt 0.288144 0.277778
vt 0.300097 1.000000
vt 0.300097 0.277778
vt 0.109451 0.638889
vt 0.880597 0.638889
vt 0.002147 0.629112
vt 0.761194 0.619336
vt 0.002147 0.648665
vt 0.761194 0.648666
vt 0.202735 0.835990
vt 0.000000 0.138889
vt 0.880597 1.000000
vt 0.156024 0.954240
vt 0.016029 0.277778
vt 0.142143 0.944463
vt 0.761194 0.990223
vt 0.134446 0.752685
vt 0.045526 0.826601
vt 0.761194 0.829221
vt 0.037512 0.809668
vt 0.761194 0.809668
vt 0.651743 0.638889
vt 0.759047 0.629112
vt 0.761194 0.619336
vt 0.759047 0.648665
vt 0.761194 0.648665
vt 0.451256 0.871032
vt 0.465174 0.138889
vt 0.469112 0.998713
vt 0.473050 0.277778
vt 0.461098 1.000000
vt 0.461098 0.277778
vt 0.626747 0.752685
vt 0.715668 0.826602
vt 0.761194 0.829221
vt 0.723682 0.809668
vt 0.761194 0.809668
vt 0.558459 0.835990
vt 0.761194 0.138889
vt 0.880597 1.000000
vt 0.605170 0.954240
vt 0.745165 0.277778
vt 0.619051 0.944463
vt 0.761194 0.990223
s 1
usemtl soap_mx_1
f 1/1/1 4/7/2 6/12/3 15/33/4 19/43/5 22/49/6 17/38/7 24/54/8 29/65/9 31/70/10 26/59/11 10/22/12 12/27/13 8/17/14
f 53/116/15 37/82/16 39/87/17 34/76/18 42/93/19 45/98/20 47/103/21 61/134/22 66/145/23 68/150/24 63/139/25 50/110/26 56/122/27 59/129/28
f 37/82/16 53/116/15 55/118/29 38/83/30
f 38/84/30 55/119/29 54/117/31 36/80/32
f 15/33/4 6/12/3 7/13/33 16/34/34
f 16/35/34 7/14/33 36/80/32 54/117/31
f 10/22/12 26/59/11 28/61/35 11/23/36
f 11/24/36 28/62/35 27/60/37 48/104/38
f 61/134/22 47/103/21 49/106/39 62/135/40
f 62/136/40 49/107/39 48/104/38 27/60/37
f 29/65/9 24/54/8 25/55/41 30/66/42
f 30/67/42 25/56/41 64/140/43 69/151/44
f 63/139/25 68/150/24 70/153/45 65/141/46
f 65/142/46 70/154/45 69/151/44 64/140/43
f 31/70/10 29/65/9 30/68/42 33/72/47
f 33/73/47 30/69/42 69/152/44 32/71/48
f 68/150/24 66/145/23 67/146/49 70/155/45
f 70/156/45 67/147/49 32/71/48 69/152/44
f 26/59/11 31/70/10 33/74/47 28/63/35
f 28/64/35 33/75/47 32/71/48 27/60/37
f 66/145/23 61/134/22 62/137/40 67/148/49
f 67/149/49 62/138/40 27/60/37 32/71/48
f 45/98/20 42/93/19 44/95/50 46/99/51
f 46/100/51 44/96/50 43/94/52 13/28/53
f 8/17/14 12/27/13 14/29/54 9/18/55
f 9/19/55 14/30/54 13/28/53 43/94/52
f 47/103/21 45/98/20 46/101/51 49/108/39
f 49/109/39 46/102/51 13/28/53 48/105/38
f 12/27/13 10/22/12 11/25/36 14/31/54
f 14/32/54 11/26/36 48/105/38 13/28/53
f 4/7/2 1/1/1 3/3/56 5/8/57
f 5/9/57 3/4/56 2/2/58 40/88/59
f 34/76/18 39/87/17 41/89/60 35/77/61
f 35/78/61 41/90/60 40/88/59 2/2/58
f 6/12/3 4/7/2 5/10/57 7/15/33
f 7/16/33 5/11/57 40/88/59 36/81/32
f 39/87/17 37/82/16 38/85/30 41/91/60
f 41/92/60 38/86/30 36/81/32 40/88/59
f 56/122/27 50/110/26 52/112/62 58/125/63
f 58/126/63 52/113/62 51/111/64 57/123/65
f 17/38/7 22/49/6 23/50/66 18/39/67
f 18/40/67 23/51/66 57/123/65 51/111/64
f 59/129/28 56/122/27 58/127/63 60/130/68
f 60/131/68 58/128/63 57/124/65 20/44/69
f 22/49/6 19/43/5 21/45/70 23/52/66
f 23/53/66 21/46/70 20/44/69 57/124/65
f 53/116/15 59/129/28 60/132/68 55/120/29
f 55/121/29 60/133/68 20/44/69 54/117/31
f 19/43/5 15/33/4 16/36/34 21/47/70
f 21/48/70 16/37/34 54/117/31 20/44/69
f 43/94/52 2/2/58 3/5/56 9/20/55
f 9/21/55 3/6/56 1/1/1 8/17/14
f 51/111/64 64/140/43 25/57/41 18/41/67
f 18/42/67 25/58/41 24/54/8 17/38/7
f 42/93/19 34/76/18 35/79/61 44/97/50
f 44/97/50 35/79/61 2/2/58 43/94/52
f 50/110/26 63/139/25 65/143/46 52/114/62
f 52/115/62 65/144/46 64/140/43 51/111/64
