# Blender 3.4.0
# www.blender.org
mtllib wooden_plank_3.mtl
o wooden_plank_3
v -0.408197 0.030000 -0.082751
v -0.410357 0.030000 0.077126
v -0.368588 0.030000 0.088649
v -0.285769 0.030000 0.080007
v -0.181345 0.030000 0.090089
v 0.339295 0.030000 0.094196
v 0.354419 0.030000 0.076912
v 0.409870 0.030000 0.079793
v 0.446600 0.030000 0.071871
v 0.448039 0.030000 -0.083685
v -0.408197 0.000000 -0.082751
v -0.410357 0.000000 0.077126
v -0.368588 0.000000 0.088649
v -0.285769 0.000000 0.080007
v -0.181345 0.000000 0.090089
v 0.339295 0.000000 0.094196
v 0.354419 0.000000 0.076912
v 0.409870 0.000000 0.079793
v 0.446600 0.000000 0.071871
v 0.448039 0.000000 -0.083685
vn -0.0000 1.0000 -0.0000
vn -0.0000 -1.0000 -0.0000
vn -0.9999 -0.0000 -0.0135
vn -0.2659 -0.0000 0.9640
vn 0.1038 -0.0000 0.9946
vn -0.0961 -0.0000 0.9954
vn -0.0079 -0.0000 1.0000
vn 0.7526 -0.0000 0.6585
vn -0.0519 -0.0000 0.9987
vn 0.2108 -0.0000 0.9775
vn 1.0000 -0.0000 0.0093
vn -0.0011 -0.0000 -1.0000
vt 0.011436 0.582751
vt 0.470339 0.500000
vt 0.021186 0.500000
vt 0.009701 0.422874
vt 0.347458 0.500000
vt 0.016949 0.500000
vt 0.043254 0.411351
vt 0.050847 0.500000
vt 0.109782 0.419993
vt 0.114407 0.500000
vt 0.193666 0.409911
vt 0.199153 0.500000
vt 0.611896 0.405804
vt 0.605932 0.500000
vt 0.330508 0.500000
vt 0.624045 0.423088
vt 0.347458 0.500000
vt 0.618644 0.500000
vt 0.668589 0.420207
vt 0.661017 0.500000
vt 0.698094 0.428129
vt 0.690678 0.500000
vt 0.351695 0.500000
vt 0.699250 0.583685
vt 0.470339 0.500000
vt 0.694915 0.500000
vt 0.011436 0.582751
vt 0.470339 0.468421
vt 0.021186 0.468421
vt 0.009701 0.422874
vt 0.347458 0.468421
vt 0.016949 0.468421
vt 0.043254 0.411351
vt 0.050847 0.468421
vt 0.109782 0.419993
vt 0.114407 0.468421
vt 0.193666 0.409911
vt 0.199153 0.468421
vt 0.611896 0.405804
vt 0.605932 0.468421
vt 0.330508 0.468421
vt 0.624045 0.423088
vt 0.347458 0.468421
vt 0.618644 0.468421
vt 0.668589 0.420207
vt 0.661017 0.468421
vt 0.698094 0.428129
vt 0.690678 0.468421
vt 0.351695 0.468421
vt 0.699250 0.583685
vt 0.470339 0.468421
vt 0.694915 0.468421
s 0
usemtl planks_hr_1
f 2/4/1 3/7/1 4/9/1 5/11/1 6/13/1 7/16/1 8/19/1 9/21/1 10/24/1 1/1/1
f 12/30/2 11/27/2 20/50/2 19/47/2 18/45/2 17/42/2 16/39/2 15/37/2 14/35/2 13/33/2
f 1/2/3 11/28/3 12/31/3 2/5/3
f 2/6/4 12/32/4 13/34/4 3/8/4
f 3/8/5 13/34/5 14/36/5 4/10/5
f 4/10/6 14/36/6 15/38/6 5/12/6
f 5/12/7 15/38/7 16/40/7 6/14/7
f 6/15/8 16/41/8 17/43/8 7/17/8
f 7/18/9 17/44/9 18/46/9 8/20/9
f 8/20/10 18/46/10 19/48/10 9/22/10
f 9/23/11 19/49/11 20/51/11 10/25/11
f 10/26/12 20/52/12 11/29/12 1/3/12
