# Blender 3.4.0
# www.blender.org
mtllib wooden_crate_hx_6_2.mtl
o wooden_crate_hx_6_2
v -0.700999 0.000000 -0.700000
v 0.700001 0.000000 -0.700000
v -0.700999 0.000000 0.700000
v 0.700001 0.000000 0.700000
v -0.573000 0.128000 -0.700000
v 0.573001 0.128000 -0.700000
v 0.573001 0.128000 0.700000
v 0.700001 0.128000 0.572000
v -0.700999 0.128000 -0.572000
v -0.573000 0.000000 -0.575000
v 0.573001 0.000000 -0.575000
v 0.573001 0.000000 0.564000
v -0.573000 0.000000 0.564000
v -0.573000 0.025000 -0.575000
v 0.573001 0.025000 -0.575000
v -0.573000 0.025000 0.564000
v 0.573001 0.025000 0.564000
v 0.700001 0.128000 -0.700000
v 0.573001 0.864000 -0.700000
v -0.573000 0.128000 0.700000
v 0.700001 0.128000 -0.572000
v 0.700001 0.864000 -0.572000
v 0.700001 0.864000 0.572000
v -0.700999 0.128000 0.572000
v -0.573000 0.128000 0.675000
v 0.573001 0.128000 0.675000
v -0.573000 0.864000 0.675000
v 0.573001 0.864000 0.675000
v -0.573000 0.864000 -0.675000
v -0.573000 0.128000 -0.675000
v 0.573001 0.128000 -0.675000
v 0.573001 0.864000 -0.675000
v -0.676000 0.864000 -0.572000
v -0.676000 0.128000 -0.572000
v -0.676000 0.864000 0.572000
v -0.676000 0.128000 0.572000
v 0.675000 0.128000 -0.572000
v 0.675000 0.864000 -0.572000
v 0.675000 0.128000 0.572000
v 0.675000 0.864000 0.572000
v -0.700999 0.128000 -0.700000
v -0.700999 0.128000 0.700000
v 0.700001 0.128000 0.700000
v -0.700999 1.000000 -0.700000
v 0.700001 1.000000 -0.700000
v -0.700999 1.000000 0.700000
v 0.700001 1.000000 0.700000
v -0.573000 0.864000 -0.700000
v 0.573001 0.864000 0.700000
v -0.573000 0.864000 0.700000
v -0.700999 0.864000 -0.572000
v -0.700999 0.864000 0.572000
v 0.573001 1.000000 -0.575000
v -0.573000 1.000000 -0.575000
v -0.573000 1.000000 0.564000
v 0.573001 1.000000 0.564000
v 0.573001 0.975000 -0.575000
v -0.573000 0.975000 -0.575000
v 0.573001 0.975000 0.564000
v -0.573000 0.975000 0.564000
v -0.700999 0.864000 -0.700000
v 0.700001 0.864000 -0.700000
v -0.700999 0.864000 0.700000
v 0.700001 0.864000 0.700000
v 0.700001 1.000000 -0.575000
v 0.700001 1.000000 0.564000
v -0.700999 1.000000 0.564000
v -0.700999 1.000000 -0.575000
vn -0.0000 -0.0000 -1.0000
vn -0.0000 -0.0000 1.0000
vn 1.0000 -0.0000 -0.0000
vn -1.0000 -0.0000 -0.0000
vn -0.0000 -1.0000 -0.0000
vn -0.0000 1.0000 -0.0000
vt 0.000000 0.000000
vt 0.500000 0.437500
vt 1.000000 0.437500
vt 0.500000 0.000000
vt 0.000000 0.437500
vt 1.000000 0.437500
vt 0.000000 0.436250
vt 0.000000 0.437500
vt 0.500000 0.436250
vt 0.500000 0.437500
vt 0.454390 0.477437
vt -0.000000 0.830925
vt 0.000000 0.393750
vt 0.454390 0.164963
vt 0.045610 0.477438
vt -0.000000 0.830925
vt 0.000000 0.037500
vt 0.045610 0.164963
vt 0.454390 0.477438
vt 0.014286 0.830925
vt 0.014286 0.037500
vt 0.454390 0.164963
vt 0.545643 0.477438
vt 0.014286 0.600326
vt 0.014286 0.393750
vt 0.045643 0.164963
vt 0.545643 0.477437
vt 0.000000 0.037500
vt -0.000000 0.600326
vt 0.045643 0.164962
vt 0.045610 0.038803
vt 0.000000 0.037500
vt 0.000000 0.393750
vt 0.454390 0.038803
vt 0.000000 0.037500
vt 0.000000 0.037500
vt 0.454390 0.393777
vt 0.000000 0.393750
vt 0.045610 0.393777
vt 0.000000 0.393750
vt 0.045610 0.038803
vt 0.014286 0.037500
vt 0.014286 0.393750
vt 0.454390 0.038803
vt 0.014286 0.037500
vt 0.045610 0.393777
vt 0.014286 0.393750
vt 0.014286 0.037500
vt 0.454390 0.393777
vt 0.014286 0.393750
vt 1.000000 0.477500
vt 0.000000 0.477500
vt 0.500000 0.164991
vt 0.000000 0.164991
vt 0.000000 0.037500
vt 0.000000 0.600326
vt 0.045610 0.394984
vt 0.045610 0.957500
vt 0.045610 0.477437
vt 0.014286 0.830924
vt 0.014286 0.393750
vt 0.045610 0.164962
vt 0.954357 0.477437
vt 0.014286 0.600326
vt 0.014286 0.037500
vt 0.454357 0.164963
vt 0.014286 0.037500
vt 0.014286 0.830925
vt 0.454357 0.394984
vt 0.954357 0.957500
vt 0.014286 0.393750
vt 0.014286 0.830925
vt 0.045643 0.394984
vt 0.545643 0.957500
vt 0.954357 0.477438
vt 0.000000 0.393750
vt -0.000000 0.600326
vt 0.454357 0.164963
vt 0.045610 0.164954
vt -0.000000 0.830924
vt 0.000000 0.393750
vt 0.454390 0.164954
vt -0.000000 0.830924
vt 0.000000 0.037500
vt 0.000000 0.393750
vt 0.045610 0.394984
vt 0.000000 0.600326
vt 0.000000 0.037500
vt 0.454390 0.394984
vt 0.000000 0.600326
vt 0.014286 0.393750
vt 0.454390 0.394984
vt 0.014286 0.600326
vt 0.454390 0.164954
vt 0.014286 0.830925
vt 0.014286 0.393750
vt 0.045610 0.164954
vt 0.014286 0.830925
vt 0.014286 0.037500
vt 0.014285 0.037500
vt 0.045610 0.394984
vt 0.014286 0.600325
vt 0.045643 0.394984
vt 0.014286 0.830925
vt 0.014286 0.037500
vt 0.014286 0.037500
vt 0.045643 0.164954
vt 0.014286 0.600326
vt 0.454357 0.394984
vt 0.014286 0.830925
vt 0.014286 0.393750
vt 0.014286 0.393750
vt 0.454357 0.164954
vt 0.014286 0.600326
vt 0.454357 0.164954
vt -0.000000 0.600326
vt 0.000000 0.037500
vt 0.000000 0.037500
vt 0.454357 0.394984
vt 0.000000 0.830925
vt 0.045643 0.164954
vt -0.000000 0.600326
vt 0.000000 0.393750
vt 0.000000 0.393750
vt 0.045643 0.394984
vt 0.000000 0.830925
vt 0.500000 0.477500
vt -0.000000 0.164991
vt 0.500000 0.164991
vt 1.000000 0.477500
vt 0.000000 0.477500
vt 0.500000 0.164991
vt 0.000000 0.164991
vt 0.500000 0.477500
vt 0.500000 0.164991
vt 0.000000 0.164991
vt 0.000000 0.000000
vt 0.500000 1.000000
vt 0.000000 1.000000
vt 1.000000 1.000000
vt 0.500000 0.000000
vt 0.000000 1.000000
vt 1.000000 1.000000
vt 0.000000 0.436250
vt 0.500000 0.436250
vt 0.500000 1.000000
vt 0.000000 0.393750
vt 0.000000 0.600326
vt 0.454390 0.394984
vt 0.454390 0.957500
vt 0.014285 0.037500
vt 0.014286 0.600326
vt 0.454390 0.394984
vt 0.454390 0.957500
vt 0.014286 0.393750
vt 0.014286 0.600326
vt 0.045610 0.394984
vt 0.045610 0.957500
vt 0.000000 0.830925
vt 0.000000 0.037500
vt 0.045643 0.394984
vt 0.545643 0.957500
vt 0.000000 0.830925
vt 0.000000 0.393750
vt 0.454357 0.394984
vt 0.954357 0.957500
vt 0.014286 0.037500
vt 0.454390 0.038803
vt 0.014286 0.037500
vt 0.014286 0.393750
vt 0.045610 0.038803
vt 0.014286 0.393750
vt 0.045610 0.393777
vt 0.014286 0.037500
vt 0.014286 0.393750
vt 0.454390 0.393777
vt 0.454390 0.038803
vt 0.000000 0.037500
vt 0.045610 0.038803
vt 0.000000 0.037500
vt 0.000000 0.393750
vt 0.000000 0.037500
vt 0.454390 0.393777
vt 0.000000 0.393750
vt 0.045610 0.393777
vt 0.000000 0.393750
vt 0.000000 0.395000
vt 0.500000 0.395000
vt 0.500000 0.957500
vt 0.500000 0.395000
vt 0.000000 0.395000
vt 0.000000 0.957500
vt 1.000000 0.957500
vt 0.500000 0.395000
vt 0.000000 0.395000
vt 0.000000 0.957500
vt 1.000000 0.957500
vt 0.500000 0.395000
vt 0.000000 0.395000
vt 0.500000 0.957500
vt 0.955357 1.000000
vt 0.500000 0.038951
vt 0.548572 1.000000
vt 0.500000 0.393871
vt 0.951428 1.000000
vt 0.000000 0.393871
vt 0.000000 0.038951
vt 0.544643 1.000000
s 0
usemtl wooden_crate_hx_2
f 12/36/1 13/40/1 16/47/1 17/48/1
f 1/2/1 41/127/1 5/11/1
f 2/5/1 1/2/1 5/11/1 6/15/1
f 3/8/2 4/10/2 7/19/2 20/59/2
f 4/10/2 43/134/2 7/19/2
f 2/3/3 18/51/3 21/63/3
f 4/10/3 2/3/3 21/63/3 8/23/3
f 1/2/4 3/6/4 24/75/4 9/27/4
f 3/6/4 42/130/4 24/75/4
f 1/1/5 2/4/5 11/34/5 10/31/5
f 2/4/5 4/9/5 12/37/5 11/34/5
f 4/9/5 3/7/5 13/39/5 12/37/5
f 3/7/5 1/1/5 10/31/5 13/39/5
f 14/41/5 15/44/5 17/49/5 16/46/5
f 13/40/3 10/32/3 14/42/3 16/47/3
f 11/35/4 12/38/4 17/50/4 15/45/4
f 10/33/2 11/35/2 15/45/2 14/43/2
f 8/23/3 43/134/3 4/10/3
f 6/15/1 18/52/1 2/5/1
f 9/27/4 41/127/4 1/2/4
f 20/59/2 42/131/2 3/8/2
f 48/147/5 19/55/5 32/100/5 29/91/5
f 49/151/5 50/155/5 27/85/5 28/88/5
f 22/67/5 23/71/5 40/124/5 38/118/5
f 9/28/6 24/76/6 36/112/6 34/106/6
f 25/79/2 26/82/2 28/89/2 27/86/2
f 50/156/3 20/60/3 25/80/3 27/87/3
f 7/20/4 49/152/4 28/90/4 26/83/4
f 20/61/6 7/21/6 26/84/6 25/81/6
f 30/94/1 29/92/1 32/101/1 31/97/1
f 5/12/3 48/148/3 29/93/3 30/95/3
f 19/56/4 6/16/4 31/98/4 32/102/4
f 6/17/6 5/13/6 30/96/6 31/99/6
f 33/103/4 34/107/4 36/113/4 35/109/4
f 51/159/2 9/29/2 34/108/2 33/104/2
f 24/77/1 52/163/1 35/110/1 36/114/1
f 52/164/5 51/160/5 33/105/5 35/111/5
f 37/115/3 38/119/3 40/125/3 39/121/3
f 21/64/2 22/68/2 38/120/2 37/116/2
f 23/72/1 8/24/1 39/122/1 40/126/1
f 8/25/6 21/65/6 37/117/6 39/123/6
f 7/22/2 43/135/2 64/198/2 49/153/2
f 21/66/3 18/53/3 62/190/3 22/69/3
f 24/78/4 42/132/4 63/194/4 52/165/4
f 50/157/2 63/195/2 42/133/2 20/62/2
f 23/73/3 64/199/3 43/136/3 8/26/3
f 19/57/1 62/191/1 18/54/1 6/18/1
f 51/161/4 61/187/4 41/128/4 9/30/4
f 5/14/1 41/129/1 61/188/1 48/149/1
f 55/172/1 56/174/1 59/182/1 60/186/1
f 44/138/1 45/139/1 19/58/1 48/150/1
f 45/139/1 62/192/1 19/58/1
f 47/146/2 46/142/2 50/158/2 49/154/2
f 46/142/2 63/196/2 50/158/2
f 45/140/3 65/201/3 22/70/3
f 47/146/3 64/200/3 23/74/3
f 44/138/4 61/189/4 51/162/4
f 46/143/4 67/205/4 52/166/4
f 45/141/6 44/137/6 54/171/6 53/168/6
f 44/137/6 68/207/6 54/171/6
f 46/144/6 47/145/6 56/176/6 55/173/6
f 47/145/6 66/204/6 56/176/6
f 57/177/6 58/179/6 60/185/6 59/183/6
f 56/175/4 53/167/4 57/178/4 59/184/4
f 54/169/3 55/172/3 60/186/3 58/180/3
f 53/167/2 54/170/2 58/181/2 57/178/2
f 48/150/1 61/189/1 44/138/1
f 52/166/4 63/197/4 46/143/4
f 49/154/2 64/200/2 47/146/2
f 22/70/3 62/193/3 45/140/3
f 22/70/3 65/201/3 66/203/3 23/74/3
f 53/168/6 65/202/6 45/141/6
f 23/74/3 66/203/3 47/146/3
f 56/176/6 66/204/6 65/202/6 53/168/6
f 55/173/6 67/206/6 46/144/6
f 52/166/4 67/205/4 68/208/4 51/162/4
f 54/171/6 68/207/6 67/206/6 55/173/6
f 51/162/4 68/208/4 44/138/4
