# Blender 3.4.0
# www.blender.org
mtllib wooden_board_1.mtl
o wooden_board_1
v -0.250000 0.030000 -0.000000
v -0.250000 0.030000 -1.900000
v -0.250000 0.000000 -1.900000
v -0.250000 -0.000000 -0.000000
v 0.250000 0.030000 0.000000
v 0.250000 0.030000 -1.900000
v 0.250000 0.000000 -0.000000
v 0.250000 0.000000 -1.900000
vn -1.0000 -0.0000 -0.0000
vn -0.0000 -0.0000 -1.0000
vn -0.0000 -0.0000 1.0000
vn 1.0000 -0.0000 -0.0000
vn -0.0000 -1.0000 -0.0000
vn -0.0000 1.0000 -0.0000
vt 0.487365 -0.000000
vt 0.260766 0.507920
vt 0.259928 0.000000
vt 0.487365 1.000000
vt 0.260766 0.507921
vt 0.259928 1.000000
vt 0.512635 1.000000
vt 0.260766 0.492080
vt 0.259928 1.000000
vt 0.512635 -0.000000
vt 0.260766 0.492079
vt 0.259928 0.000000
vt 0.739234 0.507921
vt 0.487365 -0.000000
vt 0.740072 0.000000
vt 0.739234 0.507921
vt 0.487365 1.000000
vt 0.740072 1.000000
vt 0.739234 0.492080
vt 0.512635 -0.000000
vt 0.740072 0.000000
vt 0.739234 0.492080
vt 0.512635 1.000000
vt 0.740072 1.000000
s 0
usemtl wooden_board_hr_1
f 2/4/1 3/7/1 4/10/1 1/1/1
f 6/16/2 8/22/2 3/8/2 2/5/2
f 1/2/3 4/11/3 7/19/3 5/13/3
f 5/14/4 7/20/4 8/23/4 6/17/4
f 4/12/5 3/9/5 8/24/5 7/21/5
f 1/3/6 5/15/6 6/18/6 2/6/6
