# Blender 3.4.0
# www.blender.org
mtllib wooden_plank_4.mtl
o wooden_plank_4
v -0.411474 0.030000 -0.083758
v -0.415479 0.030000 0.056477
v -0.407204 0.030000 0.090252
v 0.447766 0.030000 0.088048
v 0.450167 0.030000 -0.087192
v -0.396942 0.030000 -0.087993
v -0.411474 0.000000 -0.083758
v -0.415479 0.000000 0.056477
v -0.407204 0.000000 0.090252
v 0.447766 0.000000 0.088048
v 0.450167 0.000000 -0.087192
v -0.396942 0.000000 -0.087993
vn -0.0000 1.0000 -0.0000
vn -0.0000 -1.0000 -0.0000
vn 0.0026 -0.0000 1.0000
vn 0.9999 -0.0000 0.0137
vn 0.0009 -0.0000 -1.0000
vn -0.2798 -0.0000 -0.9601
vn -0.9996 -0.0000 -0.0285
vn -0.9713 -0.0000 0.2380
vt 0.008804 0.383758
vt -0.000000 0.363158
vt 0.300847 0.363158
vt 0.005587 0.243523
vt 0.186441 0.363158
vt 0.012234 0.209748
vt 0.004237 0.363158
vt 0.156780 0.363158
vt 0.699031 0.211951
vt 0.699153 0.363158
vt 0.161017 0.363158
vt 0.700959 0.387192
vt 0.300847 0.363158
vt 0.699153 0.363158
vt 0.020477 0.387993
vt 0.012712 0.363158
vt 0.008804 0.383758
vt -0.000000 0.331579
vt 0.300847 0.331579
vt 0.005587 0.243523
vt 0.186441 0.331579
vt 0.012234 0.209748
vt 0.004237 0.331579
vt 0.156780 0.331579
vt 0.699031 0.211951
vt 0.699153 0.331579
vt 0.161017 0.331579
vt 0.700959 0.387192
vt 0.300847 0.331579
vt 0.699153 0.331579
vt 0.020477 0.387993
vt 0.012712 0.331579
s 0
usemtl planks_hr_1
f 2/4/1 3/6/1 4/9/1 5/12/1 6/15/1 1/1/1
f 8/20/2 7/17/2 12/31/2 11/28/2 10/25/2 9/22/2
f 3/7/3 9/23/3 10/26/3 4/10/3
f 4/11/4 10/27/4 11/29/4 5/13/4
f 5/14/5 11/30/5 12/32/5 6/16/5
f 6/16/6 12/32/6 7/18/6 1/2/6
f 1/3/7 7/19/7 8/21/7 2/5/7
f 2/5/8 8/21/8 9/24/8 3/8/8
