# Blender 3.4.0
# www.blender.org
mtllib baseball_bat_mx_1.mtl
o baseball_bat_mx_1
v 0.316667 -0.020778 -0.020778
v 0.316667 0.020778 -0.020778
v 0.316667 -0.020778 0.020777
v 0.316667 0.020778 0.020778
v -0.210731 -0.038301 -0.038302
v -0.210731 0.038301 -0.038302
v -0.210731 -0.038301 0.038301
v -0.210731 0.038301 0.038301
v -0.230683 0.028706 0.028706
v -0.230683 -0.028707 0.028706
v -0.230683 0.028707 -0.028707
v -0.230683 -0.028706 -0.028707
v 0.849587 -0.030555 -0.030556
v 0.849587 0.030556 -0.030556
v 0.849587 -0.030556 0.030555
v 0.849587 0.030555 0.030555
v 0.995054 -0.021952 -0.021953
v 0.995054 0.021952 -0.021953
v 0.995054 -0.021952 0.021951
v 0.995054 0.021952 0.021952
v -0.187052 0.021719 -0.021719
v -0.187052 0.021718 0.021718
v -0.187052 -0.021719 0.021718
v -0.187052 -0.021718 -0.021719
v 0.316667 -0.028569 -0.000000
v 0.316667 0.000000 -0.028570
v 0.316667 0.028569 -0.000000
v 0.316667 -0.000000 0.028569
v -0.210731 -0.000000 0.052664
v -0.210731 -0.052664 -0.000001
v -0.210731 0.052664 -0.000000
v -0.210731 0.000000 -0.052665
v -0.199965 0.032154 -0.032154
v -0.167715 0.020455 0.020455
v -0.167715 -0.020455 0.020455
v -0.199965 -0.032154 -0.032154
v -0.232098 0.034629 -0.000000
v -0.223336 0.037577 -0.037577
v -0.223336 0.037576 0.037576
v -0.223336 -0.037576 -0.037577
v -0.232098 0.000000 -0.034629
v -0.232098 -0.000000 0.034628
v -0.232098 -0.034629 -0.000001
v -0.223336 -0.037577 0.037576
v 0.849587 -0.042014 -0.000001
v 0.849587 0.000000 -0.042015
v 0.849587 0.042014 -0.000001
v 0.849587 -0.000000 0.042013
v 0.607407 0.025667 -0.025667
v 0.607407 -0.025667 -0.025667
v 0.607407 0.025667 0.025666
v 0.607407 -0.025667 0.025666
v 1.001317 -0.030174 -0.000001
v 0.998952 0.000000 -0.030174
v 1.001317 0.030174 -0.000001
v 0.998952 -0.000000 0.030173
v 0.967607 0.031281 0.031281
v 0.967607 0.031281 -0.031282
v 0.967607 -0.031281 -0.031282
v 0.967607 -0.031281 0.031280
v -0.167715 0.020455 -0.020455
v -0.199965 0.032154 0.032153
v -0.199965 -0.032154 0.032153
v -0.167715 -0.020455 -0.020455
v -0.187052 -0.029863 -0.000000
v -0.187052 0.000000 -0.029863
v -0.187052 -0.000000 0.029863
v -0.187052 0.029863 -0.000000
v 0.607407 0.000000 -0.035292
v -0.199964 0.044211 -0.000000
v -0.235068 0.000000 -0.000001
v -0.199964 -0.000000 0.044211
v -0.199964 0.000000 -0.044212
v -0.199964 -0.044211 -0.000001
v -0.223476 -0.051628 -0.000001
v -0.223476 -0.000000 0.051627
v -0.223476 0.000000 -0.051628
v -0.223476 0.051628 -0.000000
v 0.967944 0.043045 -0.000001
v 0.607407 0.035292 -0.000000
v 0.607407 -0.035292 -0.000001
v 0.607407 -0.000000 0.035291
v 1.008505 0.000000 -0.000001
v 0.967944 -0.043045 -0.000001
v 0.967944 -0.000000 0.043044
v 0.967944 0.000000 -0.043046
v -0.167715 -0.028126 -0.000000
v -0.167715 0.000000 -0.028126
v -0.167715 -0.000000 0.028126
v -0.167715 0.028126 -0.000000
v 0.160407 -0.019476 0.019476
v 0.160407 0.019476 0.019476
v 0.160407 -0.019476 -0.019477
v 0.160407 0.019476 -0.019476
v 0.160407 -0.000000 0.026780
v 0.160407 0.000000 -0.026780
v 0.160407 -0.026780 -0.000000
v 0.160407 0.026780 -0.000000
v -0.160253 0.020199 0.020199
v -0.160253 -0.020200 0.020199
v -0.160253 0.020200 -0.020200
v -0.160253 -0.020199 -0.020200
v -0.160253 -0.027774 -0.000000
v -0.160253 0.000000 -0.027774
v -0.160253 -0.000000 0.027774
v -0.160253 0.027774 -0.000000
v 0.150022 0.021127 0.021127
v 0.150022 -0.021127 -0.021127
v 0.150022 -0.000000 0.029049
v 0.150022 0.000000 -0.029050
v 0.150022 -0.029050 -0.000000
v 0.150022 0.029050 -0.000000
v 0.150022 -0.021127 0.021127
v 0.150022 0.021127 -0.021127
v -0.145634 0.020961 0.020961
v -0.145634 -0.020961 0.020960
v -0.145634 0.020961 -0.020961
v -0.145634 -0.020961 -0.020961
v -0.145634 -0.028821 -0.000000
v -0.145634 0.000000 -0.028821
v -0.145634 -0.000000 0.028821
v -0.145634 0.028821 -0.000000
vn -0.0178 -0.7070 -0.7070
vn -0.0173 -0.0000 -0.9999
vn -0.0254 -0.0000 -0.9997
vn -0.0262 -0.7069 -0.7069
vn -0.0178 0.7070 -0.7070
vn -0.0262 0.7069 -0.7069
vn -0.0186 0.7070 -0.7070
vn -0.0181 -0.0000 -0.9998
vn -0.0186 -0.7070 -0.7070
vn 0.1045 -0.0000 -0.9945
vn -0.0358 -0.0000 -0.9994
vn -0.0368 0.7066 -0.7066
vn 0.1069 0.7031 -0.7031
vn 0.1045 -0.0000 0.9945
vn -0.0358 -0.0000 0.9994
vn -0.0368 -0.7066 0.7066
vn 0.1069 -0.7031 0.7031
vn 0.4998 0.6125 0.6125
vn 0.4838 0.8752 -0.0000
vn 0.6734 0.7393 -0.0000
vn 0.6817 0.5173 0.5174
vn 0.4998 0.6125 -0.6125
vn 0.6817 0.5173 -0.5173
vn 0.2697 0.6809 -0.6809
vn 0.2684 0.9633 -0.0000
vn 0.2697 0.6809 0.6809
vn 0.1069 0.7031 0.7031
vn -0.0368 0.7066 0.7066
vn -0.0115 -0.0000 -0.9999
vn -0.0118 0.7071 -0.7071
vn -0.0118 -0.7071 -0.7071
vn 0.1045 -0.9945 -0.0000
vn -0.0358 -0.9994 -0.0000
vn -0.0368 -0.7066 -0.7066
vn 0.1069 -0.7031 -0.7031
vn 0.1045 0.9945 -0.0000
vn -0.0358 0.9994 -0.0000
vn -0.0118 0.7071 0.7071
vn -0.0178 0.7070 0.7070
vn -0.0173 0.9999 -0.0000
vn -0.0115 0.9999 -0.0000
vn -0.9354 -0.2501 0.2500
vn -0.9510 -0.0000 0.3091
vn -1.0000 -0.0000 -0.0000
vn -0.9510 -0.3091 -0.0000
vn -0.9354 0.2500 0.2501
vn -0.9510 0.3091 -0.0000
vn -0.9354 0.2501 -0.2500
vn -0.9510 -0.0000 -0.3091
vn -0.9354 -0.2500 -0.2501
vn 0.4998 -0.6125 0.6125
vn 0.4837 -0.0000 0.8752
vn 0.6734 -0.0000 0.7393
vn 0.6817 -0.5174 0.5173
vn 0.2684 -0.0000 0.9633
vn 0.2697 -0.6809 0.6809
vn 0.4838 -0.0000 -0.8752
vn 0.6734 -0.0000 -0.7393
vn 0.4998 -0.6125 -0.6125
vn 0.6817 -0.5173 -0.5173
vn 0.2697 -0.6809 -0.6809
vn 0.2684 -0.0000 -0.9633
vn 0.4838 -0.8752 -0.0000
vn 0.6734 -0.7393 -0.0000
vn 0.2684 -0.9633 -0.0000
vn -0.0799 -0.9968 -0.0000
vn -0.0822 -0.7047 -0.7047
vn -0.0822 -0.7047 0.7047
vn -0.8754 -0.4834 -0.0000
vn -0.8855 -0.3286 0.3286
vn -0.8855 -0.3286 -0.3286
vn -0.0799 -0.0000 0.9968
vn -0.0822 0.7047 0.7047
vn -0.8754 -0.0000 0.4834
vn -0.8855 0.3286 0.3286
vn -0.0799 -0.0000 -0.9968
vn -0.0822 0.7047 -0.7047
vn -0.8754 -0.0000 -0.4834
vn -0.8855 0.3286 -0.3286
vn -0.0799 0.9968 -0.0000
vn -0.8754 0.4834 -0.0000
vn -0.0181 0.9998 -0.0000
vn 0.1900 0.9818 -0.0000
vn 0.1890 0.6923 -0.6964
vn -0.0186 0.7070 0.7070
vn 0.1890 0.6923 0.6964
vn 0.6355 0.5325 0.5591
vn 0.7418 0.6706 -0.0000
vn 0.6355 0.5325 -0.5591
vn -0.0254 0.9997 -0.0000
vn -0.0262 0.7069 0.7069
vn -0.0178 -0.7070 0.7070
vn -0.0173 -0.9999 -0.0000
vn -0.0254 -0.9997 -0.0000
vn -0.0262 -0.7069 0.7069
vn -0.0181 -0.9998 -0.0000
vn -0.0186 -0.7070 0.7070
vn -0.0173 -0.0000 0.9999
vn -0.0254 -0.0000 0.9997
vn -0.0181 -0.0000 0.9998
vn 0.6355 -0.5325 -0.5591
vn 0.7142 -0.0000 -0.6999
vn 1.0000 -0.0000 -0.0000
vn 0.7418 -0.6706 -0.0000
vn 0.7142 -0.0000 0.6999
vn 0.6355 -0.5325 0.5591
vn 0.1900 -0.9818 -0.0000
vn 0.1890 -0.6923 0.6964
vn 0.1890 -0.6923 -0.6964
vn 0.1958 -0.0000 0.9806
vn 0.1958 -0.0000 -0.9806
vn 0.0484 -0.7063 -0.7063
vn 0.0471 -0.9989 -0.0000
vn 0.0484 -0.7063 0.7063
vn 0.0895 -0.9960 -0.0000
vn 0.0920 -0.7041 0.7041
vn 0.0920 -0.7041 -0.7041
vn 0.0484 0.7063 -0.7063
vn 0.0471 -0.0000 -0.9989
vn 0.0895 -0.0000 -0.9960
vn 0.0920 0.7041 -0.7041
vn 0.0471 -0.0000 0.9989
vn 0.0484 0.7063 0.7063
vn 0.0895 -0.0000 0.9960
vn 0.0920 0.7041 0.7041
vn 0.0471 0.9989 -0.0000
vn 0.0895 0.9960 -0.0000
vn 0.2135 0.9769 -0.0000
vn 0.2193 0.6899 -0.6899
vn 0.2193 0.6899 0.6899
vn -0.0115 -0.9999 -0.0000
vn -0.0118 -0.7071 0.7071
vn 0.2135 -0.0000 -0.9769
vn 0.2193 -0.6899 -0.6899
vn -0.0115 -0.0000 0.9999
vn -0.0734 0.7052 -0.7052
vn -0.0714 0.9974 -0.0000
vn -0.0734 0.7052 0.7052
vn -0.0714 -0.0000 0.9974
vn -0.0734 -0.7052 0.7052
vn -0.0734 -0.7052 -0.7052
vn -0.0714 -0.0000 -0.9974
vn -0.0714 -0.9974 -0.0000
vn 0.2135 -0.9769 -0.0000
vn 0.2193 -0.6899 0.6899
vn 0.2135 -0.0000 0.9769
vt 0.159154 0.377999
vt 0.272058 0.378886
vt 0.498051 0.378001
vt 0.385147 0.378887
vt 0.089391 0.954039
vt 0.244527 0.924148
vt 0.583213 0.954039
vt 0.428077 0.924148
vt 0.795036 0.016341
vt 0.744255 0.056321
vt 0.927861 0.031626
vt 0.877080 0.071606
vt 0.089725 0.783113
vt 0.249916 0.782556
vt 0.567435 0.783114
vt 0.407245 0.782557
vt 0.804444 0.127564
vt 0.127503 0.888957
vt 0.838159 0.094006
vt 0.260056 0.885095
vt 0.918543 0.137950
vt 0.529650 0.888957
vt 0.952258 0.104392
vt 0.397099 0.885095
vt 0.266923 0.947016
vt 0.405681 0.947016
vt 0.522483 0.969727
vt 0.150122 0.969727
vt 0.102873 0.377211
vt 0.554332 0.377214
vt 0.215557 0.378545
vt 0.328602 0.378990
vt 0.441647 0.378547
vt 0.511698 0.936123
vt 0.033335 0.979504
vt 0.639270 0.979504
vt 0.336302 0.920580
vt 0.160907 0.936123
vt 0.253959 0.933789
vt 0.383158 0.006134
vt 0.392301 0.960566
vt 0.492253 0.007129
vt 0.486198 0.979118
vt 0.114504 0.960776
vt 0.866515 0.019995
vt 0.235233 0.914651
vt 0.962023 0.027032
vt 0.437371 0.914651
vt 0.779771 0.006059
vt 0.065247 0.947408
vt 0.892345 0.081889
vt 0.915722 0.053141
vt 0.756394 0.034806
vt 0.805601 0.067952
vt 0.607358 0.947409
vt 0.710092 0.060916
vt 0.651100 0.783409
vt 0.006059 0.783407
vt 0.170258 0.782743
vt 0.328580 0.782426
vt 0.486902 0.782744
vt 0.259255 0.601436
vt 0.120521 0.599999
vt 0.397923 0.601436
vt 0.536656 0.600002
vt 0.856276 0.137950
vt 0.070945 0.899211
vt 0.586206 0.899211
vt 0.803842 0.109196
vt 0.193687 0.888700
vt 0.328578 0.888938
vt 0.900426 0.094006
vt 0.952860 0.122760
vt 0.463467 0.888700
vt 0.400337 0.861551
vt 0.256819 0.861551
vt 0.110458 0.865954
vt 0.546695 0.865955
vt 0.274085 0.006134
vt 0.280304 0.960566
vt 0.418645 0.933789
vt 0.558101 0.960776
vt 0.164991 0.007128
vt 0.186407 0.979118
vt 0.556932 0.986753
vt 0.115673 0.986753
vt 0.203271 0.955915
vt 0.469333 0.955915
vt 0.336302 0.944075
vt 0.189880 0.600893
vt 0.336302 0.930460
vt 0.836058 0.043974
vt 0.493980 0.944446
vt 0.178624 0.944446
vt 0.603942 0.983351
vt 0.068663 0.983351
vt 0.006059 0.973619
vt 0.666547 0.973619
vt 0.787899 0.081889
vt 0.528248 0.928337
vt 0.710092 0.029478
vt 0.144357 0.928337
vt 0.962023 0.058469
vt 0.336302 0.911328
vt 0.884217 0.006059
vt 0.328578 0.862137
vt 0.328589 0.601605
vt 0.051130 0.598687
vt 0.606047 0.598690
vt 0.467297 0.600894
vt 0.878351 0.115978
vt 0.030994 0.872496
vt 0.626158 0.872496
vt 0.472141 0.863911
vt 0.185014 0.863911
vt 0.110480 0.008094
vt 0.546765 0.008094
vt 0.516066 0.993941
vt 0.156539 0.993941
vt 0.219545 0.006531
vt 0.229190 0.967848
vt 0.437698 0.006532
vt 0.443415 0.967848
vt 0.328621 0.006059
vt 0.336302 0.958252
vt 0.487610 0.258292
vt 0.381679 0.258751
vt 0.169610 0.258290
vt 0.275541 0.258750
vt 0.434711 0.258575
vt 0.222509 0.258573
vt 0.116754 0.257879
vt 0.540467 0.257881
vt 0.328610 0.258804
vt 0.382877 0.011862
vt 0.491350 0.012813
vt 0.274366 0.011862
vt 0.165894 0.012812
vt 0.545408 0.013721
vt 0.111837 0.013721
vt 0.220119 0.012238
vt 0.437124 0.012238
vt 0.328621 0.011784
vt 0.381449 0.250767
vt 0.170305 0.250334
vt 0.434250 0.250601
vt 0.222971 0.250600
vt 0.117676 0.249948
vt 0.539545 0.249950
vt 0.328610 0.250816
vt 0.486916 0.250336
vt 0.275772 0.250766
vt 0.382325 0.023037
vt 0.489583 0.023900
vt 0.274917 0.023037
vt 0.167661 0.023900
vt 0.114219 0.024722
vt 0.543025 0.024723
vt 0.221245 0.023373
vt 0.435998 0.023373
vt 0.328621 0.022958
s 1
usemtl baseball_bat_mx_1
f 1/1/1 26/31/2 69/90/3 50/63/4
f 26/31/2 2/2/5 49/62/6 69/90/3
f 69/90/3 49/62/6 14/14/7 46/59/8
f 50/63/4 69/90/3 46/59/8 13/13/9
f 110/147/10 120/159/11 117/155/12 114/152/13
f 109/146/14 121/160/15 116/154/16 113/151/17
f 22/26/18 68/89/19 70/91/20 62/81/21
f 68/89/19 21/25/22 33/39/23 70/91/20
f 70/91/20 33/39/23 6/6/24 31/37/25
f 62/81/21 70/91/20 31/37/25 8/8/26
f 107/144/27 115/153/28 121/160/15 109/146/14
f 96/131/29 94/129/30 2/2/5 26/31/2
f 93/128/31 96/131/29 26/31/2 1/1/1
f 111/148/32 119/157/33 118/156/34 108/145/35
f 112/150/36 122/161/37 115/153/28 107/144/27
f 92/127/38 4/4/39 27/32/40 98/134/41
f 98/134/41 27/32/40 2/2/5 94/129/30
f 10/10/42 42/53/43 71/92/44 43/54/45
f 42/53/43 9/9/46 37/45/47 71/92/44
f 71/92/44 37/45/47 11/11/48 41/52/49
f 43/54/45 71/92/44 41/52/49 12/12/50
f 23/27/51 67/88/52 72/93/53 63/82/54
f 67/88/52 22/26/18 62/81/21 72/93/53
f 72/93/53 62/81/21 8/8/26 29/34/55
f 63/82/54 72/93/53 29/34/55 7/7/56
f 21/25/22 66/87/57 73/94/58 33/39/23
f 66/87/57 24/28/59 36/44/60 73/94/58
f 73/94/58 36/44/60 5/5/61 32/38/62
f 33/39/23 73/94/58 32/38/62 6/6/24
f 24/28/59 65/86/63 74/96/64 36/44/60
f 65/85/63 23/27/51 63/82/54 74/95/64
f 74/95/64 63/82/54 7/7/56 30/36/65
f 36/44/60 74/96/64 30/35/65 5/5/61
f 5/5/61 30/35/65 75/97/66 40/50/67
f 30/36/65 7/7/56 44/55/68 75/98/66
f 75/99/69 44/56/70 10/10/42 43/54/45
f 40/51/71 75/99/69 43/54/45 12/12/50
f 7/7/56 29/34/55 76/100/72 44/55/68
f 29/34/55 8/8/26 39/48/73 76/100/72
f 76/101/74 39/49/75 9/9/46 42/53/43
f 44/56/70 76/101/74 42/53/43 10/10/42
f 6/6/24 32/38/62 77/102/76 38/46/77
f 32/38/62 5/5/61 40/50/67 77/102/76
f 77/103/78 40/51/71 12/12/50 41/52/49
f 38/47/79 77/103/78 41/52/49 11/11/48
f 8/8/26 31/37/25 78/104/80 39/48/73
f 31/37/25 6/6/24 38/46/77 78/104/80
f 78/105/81 38/47/79 11/11/48 37/45/47
f 39/49/75 78/105/81 37/45/47 9/9/46
f 14/14/7 47/60/82 79/106/83 58/76/84
f 47/60/82 16/16/85 57/75/86 79/106/83
f 79/106/83 57/75/86 20/24/87 55/71/88
f 58/76/84 79/106/83 55/71/88 18/20/89
f 2/2/5 27/32/40 80/107/90 49/62/6
f 27/32/40 4/4/39 51/64/91 80/107/90
f 80/107/90 51/64/91 16/16/85 47/60/82
f 49/62/6 80/107/90 47/60/82 14/14/7
f 3/3/92 25/30/93 81/109/94 52/65/95
f 25/29/93 1/1/1 50/63/4 81/108/94
f 81/108/94 50/63/4 13/13/9 45/58/96
f 52/65/95 81/109/94 45/57/96 15/15/97
f 4/4/39 28/33/98 82/110/99 51/64/91
f 28/33/98 3/3/92 52/65/95 82/110/99
f 82/110/99 52/65/95 15/15/97 48/61/100
f 51/64/91 82/110/99 48/61/100 16/16/85
f 17/17/101 54/69/102 83/111/103 53/66/104
f 54/69/102 18/19/89 55/72/88 83/111/103
f 83/111/103 55/72/88 20/23/87 56/73/105
f 53/66/104 83/111/103 56/73/105 19/21/106
f 15/15/97 45/57/96 84/113/107 60/78/108
f 45/58/96 13/13/9 59/77/109 84/112/107
f 84/112/107 59/77/109 17/18/101 53/67/104
f 60/78/108 84/113/107 53/68/104 19/22/106
f 16/16/85 48/61/100 85/114/110 57/75/86
f 48/61/100 15/15/97 60/78/108 85/114/110
f 85/114/110 60/78/108 19/22/106 56/74/105
f 57/75/86 85/114/110 56/74/105 20/24/87
f 13/13/9 46/59/8 86/115/111 59/77/109
f 46/59/8 14/14/7 58/76/84 86/115/111
f 86/115/111 58/76/84 18/20/89 54/70/102
f 59/77/109 86/115/111 54/70/102 17/18/101
f 102/138/112 103/140/113 87/116/113 64/83/112
f 103/139/113 100/136/114 35/42/114 87/117/113
f 87/118/115 35/43/116 23/27/51 65/85/63
f 64/84/117 87/119/115 65/86/63 24/28/59
f 101/137/118 104/141/119 88/120/119 61/79/118
f 104/141/119 102/138/112 64/83/112 88/120/119
f 88/121/120 64/84/117 24/28/59 66/87/57
f 61/80/121 88/121/120 66/87/57 21/25/22
f 100/136/114 105/142/122 89/122/122 35/42/114
f 105/142/122 99/135/123 34/40/123 89/122/122
f 89/123/124 34/41/125 22/26/18 67/88/52
f 35/43/116 89/123/124 67/88/52 23/27/51
f 99/135/123 106/143/126 90/124/126 34/40/123
f 106/143/126 101/137/118 61/79/118 90/124/126
f 90/125/127 61/80/121 21/25/22 68/89/19
f 34/41/125 90/125/127 68/89/19 22/26/18
f 112/150/36 98/134/128 94/129/129 114/152/13
f 107/144/27 92/127/130 98/134/128 112/150/36
f 25/29/93 97/132/131 93/128/31 1/1/1
f 3/3/92 91/126/132 97/133/131 25/30/93
f 108/145/35 110/147/10 96/131/133 93/128/134
f 110/147/10 114/152/13 94/129/129 96/131/133
f 28/33/98 4/4/39 92/127/38 95/130/135
f 3/3/92 28/33/98 95/130/135 91/126/132
f 122/161/37 117/155/12 101/137/136 106/143/137
f 115/153/28 122/161/37 106/143/137 99/135/138
f 121/160/15 115/153/28 99/135/138 105/142/139
f 116/154/16 121/160/15 105/142/139 100/136/140
f 120/159/11 118/156/34 102/138/141 104/141/142
f 117/155/12 120/159/11 104/141/142 101/137/136
f 119/158/33 116/154/16 100/136/140 103/139/143
f 118/156/34 119/157/33 103/140/143 102/138/141
f 108/145/35 118/156/34 120/159/11 110/147/10
f 113/151/17 116/154/16 119/158/33 111/149/32
f 114/152/13 117/155/12 122/161/37 112/150/36
f 97/132/144 111/148/32 108/145/35 93/128/134
f 91/126/145 113/151/17 111/149/32 97/133/144
f 95/130/146 92/127/130 107/144/27 109/146/14
f 91/126/145 95/130/146 109/146/14 113/151/17
