# Blender 3.4.0
# www.blender.org
mtllib flare_mx_1_used.mtl
o flare_mx_1_used
v -0.100000 0.021238 0.007239
v -0.100000 0.024237 0.000000
v -0.100000 0.021238 -0.007239
v -0.100000 0.013999 0.010237
v -0.100000 0.006760 0.007239
v -0.100000 0.013999 -0.010237
v -0.100000 0.003762 -0.000000
v -0.100000 0.006760 -0.007239
v 0.100000 0.021162 0.007162
v 0.100000 0.024129 0.000000
v 0.100000 0.006837 0.007162
v 0.100000 0.003870 -0.000000
v 0.100000 0.006837 -0.007162
v 0.067633 0.013999 -0.015000
v 0.067633 0.024606 0.010607
v 0.067633 0.024606 -0.010607
v 0.067633 -0.001001 -0.000000
v 0.067633 0.013999 0.015000
v 0.067633 0.003393 -0.010607
v 0.067633 0.003393 0.010607
v 0.067633 0.028999 0.000000
v 0.100000 0.013999 0.015000
v 0.100000 0.003393 0.010607
v 0.100000 0.013999 -0.015000
v 0.100000 0.024606 -0.010607
v 0.100000 -0.001001 -0.000000
v 0.100000 0.003393 -0.010607
v 0.100000 0.024606 0.010607
v 0.100000 0.029000 0.000000
v 0.095000 0.010664 0.003336
v 0.100000 0.013999 0.010129
v 0.095000 0.017335 -0.003336
v 0.100000 0.013999 -0.010129
v 0.100000 0.021162 -0.007162
v 0.095000 0.010664 -0.003336
v 0.095000 0.017335 0.003336
v -0.100000 0.024606 0.010607
v -0.100000 0.028999 0.000000
v -0.100000 0.024606 -0.010607
v -0.100000 0.013999 -0.015000
v -0.100000 0.013999 0.015000
v -0.100000 -0.001001 -0.000000
v -0.100000 0.003393 -0.010607
v -0.100000 0.003393 0.010607
v -0.097500 0.021238 0.007239
v -0.097500 0.024237 0.000000
v -0.097500 0.021238 -0.007239
v -0.097500 0.013999 -0.010237
v -0.097500 0.013999 0.010237
v -0.097500 0.003762 -0.000000
v -0.097500 0.006760 -0.007239
v -0.097500 0.006760 0.007239
vn -0.0000 -0.0000 1.0000
vn -0.0000 0.7071 0.7071
vn -0.0000 1.0000 -0.0000
vn -0.0000 -0.7071 -0.7071
vn -0.0000 -0.0000 -1.0000
vn -0.0000 -1.0000 -0.0000
vn -0.0000 0.7071 -0.7071
vn -0.0000 -0.7071 0.7071
vn 1.0000 -0.0000 -0.0000
vn 0.7571 -0.0000 -0.6533
vn 0.7345 0.4798 -0.4798
vn 0.9067 0.2982 -0.2982
vn 0.7571 -0.0000 0.6533
vn 0.7345 -0.4798 0.4799
vn 0.9067 -0.2982 0.2982
vn 0.7571 0.6533 -0.0000
vn 0.7345 0.4798 0.4798
vn 0.9067 0.2982 0.2982
vn 0.9067 -0.2982 -0.2982
vn 0.7571 -0.6533 -0.0000
vn 0.7345 -0.4798 -0.4798
vn -1.0000 -0.0000 -0.0000
vt 0.795718 0.290940
vt 0.768937 0.348838
vt 0.731063 0.348838
vt 0.795718 0.209060
vt 0.768937 0.151162
vt 0.704282 0.290940
vt 0.731063 0.151162
vt 0.704282 0.209060
vt 0.367956 0.206233
vt 0.367955 0.296974
vt 0.439607 0.142070
vt 0.469287 0.206232
vt 0.469286 0.296974
vt 0.834862 0.500000
vt 0.834862 0.480000
vt 0.834862 1.000000
vt 0.834862 0.000000
vt 0.834862 0.620000
vt 0.834862 0.120000
vt 0.834862 0.360000
vt 0.834862 0.880000
vt 0.834862 0.760000
vt 0.834862 0.240000
vt 0.834862 0.500000
vt 0.834862 0.480000
vt 0.834862 1.000000
vt 0.834862 0.000000
vt 0.834862 0.620000
vt 0.834862 0.120000
vt 0.834862 0.880000
vt 0.834862 0.360000
vt 0.834862 0.760000
vt 0.834862 0.240000
vt 1.000000 0.480000
vt 1.000000 0.000000
vt 0.387543 0.089399
vt 1.000000 0.360000
vt 0.449699 0.089399
vt 1.000000 0.480000
vt 1.000000 0.000000
vt 0.449699 0.413807
vt 1.000000 0.360000
vt 0.387543 0.413807
vt 1.000000 0.240000
vt 0.493650 0.184416
vt 1.000000 0.120000
vt 0.493650 0.318790
vt 1.000000 0.120000
vt 0.343593 0.184416
vt 1.000000 0.240000
vt 0.343593 0.318790
vt 0.423507 0.190028
vt 0.428394 0.200592
vt 0.397635 0.142069
vt 0.413733 0.313180
vt 0.408847 0.302613
vt 0.439608 0.361136
vt 0.397634 0.361136
vt 0.447104 0.262167
vt 0.442216 0.272733
vt 0.395025 0.230475
vt 0.390139 0.241040
vt 0.000000 0.620000
vt 0.816986 0.309985
vt 0.000000 0.760000
vt 0.777747 0.394818
vt 0.000000 0.880000
vt 0.722253 0.394818
vt 0.000000 0.500000
vt 0.000000 1.000000
vt 0.683014 0.309986
vt 0.000000 0.500000
vt 0.000000 1.000000
vt 0.816986 0.190014
vt 0.000000 0.760000
vt 0.722253 0.105182
vt 0.000000 0.620000
vt 0.683014 0.190014
vt 0.000000 0.880000
vt 0.777747 0.105182
vt 0.795718 0.290940
vt 0.768937 0.348838
vt 0.731063 0.348838
vt 0.704282 0.290940
vt 0.795718 0.209060
vt 0.731063 0.151162
vt 0.704282 0.209060
vt 0.768937 0.151162
s 1
usemtl flare_mx_1
f 6/6/1 8/8/2 51/87/2 48/84/1
f 21/32/3 38/65/3 37/63/2 15/18/2
f 19/28/4 43/77/4 40/69/5 14/14/5
f 15/18/2 37/63/2 41/72/1 18/24/1
f 17/22/6 42/75/6 43/77/4 19/28/4
f 21/33/3 29/50/3 25/42/7 16/20/7
f 16/20/7 25/42/7 24/39/5 14/15/5
f 20/31/8 23/37/8 22/34/1 18/25/1
f 42/75/6 17/22/6 20/30/8 44/79/8
f 44/79/8 20/30/8 18/26/1 41/73/1
f 39/67/7 16/21/7 14/16/5 40/70/5
f 38/65/3 21/32/3 16/21/7 39/67/7
f 17/23/6 26/44/6 23/37/8 20/31/8
f 26/44/6 17/23/6 19/29/4 27/46/4
f 28/48/2 15/19/2 18/27/1 22/35/1
f 27/46/4 19/29/4 14/17/5 24/40/5
f 29/50/3 21/33/3 15/19/2 28/48/2
f 11/11/9 31/54/9 22/36/9 23/38/9
f 34/58/9 33/57/9 24/41/9 25/43/9
f 13/13/9 12/12/9 26/45/9 27/47/9
f 31/54/9 9/9/9 28/49/9 22/36/9
f 9/9/9 10/10/9 29/51/9 28/49/9
f 12/12/9 11/11/9 23/38/9 26/45/9
f 10/10/9 34/58/9 25/43/9 29/51/9
f 33/57/9 13/13/9 27/47/9 24/41/9
f 31/54/10 11/11/11 30/53/12
f 33/57/13 34/58/14 32/56/15
f 12/12/16 13/13/17 35/60/18
f 31/54/10 30/52/12 36/61/19
f 36/61/19 10/10/20 9/9/21
f 12/12/16 35/59/18 30/53/12
f 32/56/15 34/58/14 10/10/20
f 35/60/18 13/13/17 33/57/13
f 32/55/15 35/60/18 33/57/13
f 9/9/21 31/54/10 36/61/19
f 32/56/15 36/61/19 30/53/12 35/60/18
f 11/11/11 12/12/16 30/53/12
f 36/62/19 32/56/15 10/10/20
f 2/2/22 1/1/22 37/64/22 38/66/22
f 6/6/22 3/3/22 39/68/22 40/71/22
f 1/1/22 4/4/22 41/74/22 37/64/22
f 3/3/22 2/2/22 38/66/22 39/68/22
f 7/7/22 8/8/22 43/78/22 42/76/22
f 4/4/22 5/5/22 44/80/22 41/74/22
f 5/5/22 7/7/22 42/76/22 44/80/22
f 8/8/22 6/6/22 40/71/22 43/78/22
f 45/81/22 46/82/22 51/87/22 50/86/22
f 5/5/7 4/4/5 49/85/5 52/88/7
f 2/2/6 3/3/8 47/83/8 46/82/6
f 3/3/8 6/6/1 48/84/1 47/83/8
f 7/7/3 5/5/7 52/88/7 50/86/3
f 8/8/2 7/7/3 50/86/3 51/87/2
f 4/4/5 1/1/4 45/81/4 49/85/5
f 1/1/4 2/2/6 46/82/6 45/81/4
f 46/82/22 47/83/22 48/84/22 51/87/22
f 49/85/22 45/81/22 50/86/22 52/88/22
