# Blender 3.4.0
# www.blender.org
mtllib hammer_mx_1.mtl
o hammer_mx_1
v -0.110006 -0.049771 -0.282744
v -0.110006 -0.039772 -0.272743
v -0.120006 -0.039771 -0.282743
v -0.110006 0.040228 -0.272735
v -0.110006 0.050229 -0.282734
v -0.120006 0.040229 -0.282735
v -0.110006 -0.049762 -0.362744
v -0.120006 -0.039762 -0.362743
v -0.110006 -0.039761 -0.372743
v -0.110006 0.050238 -0.362734
v -0.110006 0.040239 -0.372735
v -0.120006 0.040238 -0.362735
v 0.109994 -0.049771 -0.282744
v 0.119994 -0.039771 -0.282743
v 0.109994 -0.039772 -0.272743
v 0.109994 0.050229 -0.282734
v 0.109994 0.040228 -0.272735
v 0.119994 0.040229 -0.282735
v 0.109994 -0.049762 -0.362744
v 0.109994 -0.039761 -0.372743
v 0.119994 -0.039762 -0.362743
v 0.109994 0.050238 -0.362734
v 0.119994 0.040238 -0.362735
v 0.109994 0.040239 -0.372735
v -0.030006 -0.007315 0.127260
v -0.017506 -0.019815 0.127259
v -0.026345 -0.016154 0.127259
v -0.017506 0.020185 0.127263
v -0.030006 0.007685 0.127262
v -0.026345 0.016523 0.127263
v -0.017506 -0.019759 -0.392741
v -0.030006 -0.007259 -0.392740
v -0.026345 -0.016098 -0.392741
v -0.030006 0.007741 -0.392738
v -0.017506 0.020241 -0.392737
v -0.026345 0.016580 -0.392737
v 0.017494 -0.019815 0.127259
v 0.029994 -0.007315 0.127260
v 0.026332 -0.016154 0.127259
v 0.029994 0.007685 0.127262
v 0.017494 0.020185 0.127263
v 0.026332 0.016523 0.127263
v 0.029994 -0.007259 -0.392740
v 0.017494 -0.019759 -0.392741
v 0.026332 -0.016098 -0.392741
v 0.017494 0.020241 -0.392737
v 0.029994 0.007741 -0.392738
v 0.026332 0.016580 -0.392737
v -0.030774 -0.001933 -0.372390
v -0.030774 0.002067 -0.372434
v -0.030774 -0.002664 -0.395415
v -0.030774 0.002964 -0.395465
v 0.030774 -0.001933 -0.372390
v 0.030774 0.002067 -0.372434
v 0.030774 -0.002664 -0.395415
v 0.030774 0.002964 -0.395465
vn -0.0000 -0.0001 1.0000
vn -0.9808 0.1951 -0.0000
vn -0.9808 -0.1951 -0.0000
vn -0.7071 -0.0001 0.7071
vn 0.7071 -0.7071 -0.0001
vn -0.0000 1.0000 0.0001
vn -0.7071 0.7071 0.0001
vn -0.1951 0.9808 0.0001
vn 0.1951 0.9808 0.0001
vn -0.0000 0.7072 -0.7070
vn -0.5774 -0.5774 0.5773
vn -0.5774 0.5773 0.5774
vn -0.5774 -0.5773 -0.5774
vn -0.5774 0.5774 -0.5773
vn 0.5774 -0.5774 0.5773
vn 0.5774 0.5773 0.5774
vn 0.5774 -0.5773 -0.5774
vn 0.5774 0.5774 -0.5773
vn -0.7071 0.0001 -0.7071
vn 0.7071 -0.0001 0.7071
vn -0.7071 -0.7071 -0.0001
vn 0.7071 0.0001 -0.7071
vn 1.0000 -0.0000 -0.0000
vn -0.0000 -0.7072 0.7070
vn 0.9808 -0.1951 -0.0000
vn 0.7071 0.7071 0.0001
vn 0.9808 0.1951 -0.0000
vn 0.1951 -0.9808 -0.0001
vn -0.1951 -0.9808 -0.0001
vn -0.0000 0.7070 0.7072
vn -0.0000 -1.0000 -0.0001
vn -1.0000 -0.0000 -0.0000
vn -0.0000 -0.7070 -0.7072
vn -0.0000 0.0001 -1.0000
vn -0.0000 -0.9995 0.0317
vn -0.0000 -0.0087 -1.0000
vn -0.0000 0.9992 0.0389
vt 0.168136 0.032258
vt 0.190000 0.145161
vt 0.190000 0.112903
vt 0.156160 0.032258
vt 0.180112 0.096774
vt 0.190000 0.048387
vt 0.605160 0.083567
vt 0.156160 0.096774
vt 0.180112 0.500000
vt 0.190000 0.467742
vt 0.605160 0.519051
vt 0.190000 0.064516
vt 0.156160 0.564516
vt 0.168136 0.564516
vt 0.190000 0.548387
vt 0.156160 0.500000
vt 0.029940 0.032258
vt 0.190000 0.532258
vt 0.041916 0.032258
vt 0.190000 0.048387
vt 0.041916 0.096774
vt 0.017964 0.096774
vt 0.190000 0.145161
vt 0.605160 0.083567
vt 0.190000 0.500000
vt 0.041916 0.564516
vt 0.190000 0.451613
vt 0.029940 0.564516
vt 0.190000 0.548387
vt 0.017964 0.500000
vt 0.605160 0.519051
vt 0.041916 0.500000
vt 0.156160 0.032258
vt 0.168136 0.032258
vt 0.570000 0.145161
vt 0.570000 0.112903
vt 0.156160 0.096774
vt 0.180112 0.096774
vt 0.570000 0.048387
vt 0.985160 0.083567
vt 0.570000 0.064516
vt 0.168136 0.564516
vt 0.570000 0.548387
vt 0.156160 0.564516
vt 0.180112 0.500000
vt 0.570000 0.467742
vt 0.985160 0.519051
vt 0.156160 0.500000
vt 0.041916 0.032258
vt 0.029940 0.032258
vt 0.570000 0.532258
vt 0.570000 0.048387
vt 0.017964 0.096774
vt 0.570000 0.145161
vt 0.985160 0.083567
vt 0.041916 0.096774
vt 0.570000 0.500000
vt 0.570000 0.451613
vt 0.029940 0.564516
vt 0.041916 0.564516
vt 0.041916 0.500000
vt 0.570000 0.548387
vt 0.017964 0.500000
vt 0.985160 0.519051
vt 0.894617 0.631003
vt 0.017964 0.758065
vt 0.914868 0.693503
vt 0.820000 0.709677
vt 0.908937 0.649309
vt 0.017964 0.693548
vt 0.820000 0.645161
vt 0.850064 0.693503
vt 0.820000 0.709677
vt 0.870315 0.631003
vt 0.017964 0.838710
vt 0.855996 0.649309
vt 0.017964 0.887097
vt 0.820000 0.645161
vt 0.017964 0.709677
vt 0.914868 0.693502
vt 0.820000 0.758065
vt 0.894617 0.631002
vt 0.820000 0.693548
vt 0.017964 0.645161
vt 0.908937 0.649308
vt 0.820000 0.838710
vt 0.870315 0.631002
vt 0.017964 0.709677
vt 0.850064 0.693502
vt 0.820000 0.887097
vt 0.017964 0.645161
vt 0.855996 0.649308
vt 0.820000 0.887097
vt 0.914868 0.868503
vt 0.017964 0.758065
vt 0.894617 0.931003
vt 0.017964 0.693548
vt 0.820000 0.935988
vt 0.908937 0.912697
vt 0.017964 0.838710
vt 0.870315 0.931003
vt 0.820000 0.887097
vt 0.850064 0.868503
vt 0.017964 0.887097
vt 0.820000 0.935988
vt 0.855996 0.912697
vt 0.820000 0.758065
vt 0.894617 0.931002
vt 0.017964 0.887097
vt 0.914868 0.868502
vt 0.820000 0.693548
vt 0.017964 0.935988
vt 0.908937 0.912696
vt 0.017964 0.887097
vt 0.850064 0.868502
vt 0.820000 0.838710
vt 0.870315 0.931002
vt 0.820000 0.887097
vt 0.017964 0.935988
vt 0.855996 0.912696
vt 0.971250 0.848286
vt 0.951406 0.928932
vt 0.976250 0.848286
vt 0.951250 0.928932
vt 0.970232 0.735351
vt 0.986242 0.928932
vt 0.970232 0.928931
vt 0.977268 0.735415
vt 0.977268 0.928932
vt 0.986258 0.928931
vt 0.971250 0.848286
vt 0.951406 0.638609
vt 0.976250 0.848286
vt 0.951250 0.638609
vt 0.970232 0.735351
vt 0.986242 0.638609
vt 0.970233 0.638609
vt 0.977268 0.735415
vt 0.977267 0.638609
vt 0.986258 0.638609
s 1
usemtl hammer_mx_1
f 29/74/1 25/65/1 27/69/1 30/76/1
f 29/75/2 34/86/2 32/81/3 25/66/3
f 4/9/4 6/16/4 3/8/4 2/5/4
f 19/49/5 21/56/5 14/37/5 13/33/5
f 30/76/1 27/69/1 26/67/1 28/72/1
f 10/25/6 5/12/6 16/41/6 22/57/6
f 5/13/7 10/26/7 12/32/7 6/16/7
f 41/103/1 28/72/1 26/67/1 37/94/1
f 35/88/8 28/73/8 41/102/9 46/114/9
f 22/58/10 24/62/10 11/29/10 10/27/10
f 1/1/11 2/5/11 3/8/11
f 4/9/12 5/14/12 6/16/12
f 7/17/13 8/21/13 9/22/13
f 10/28/14 11/30/14 12/32/14
f 13/34/15 14/37/15 15/38/15
f 16/42/16 17/45/16 18/48/16
f 19/50/17 20/53/17 21/56/17
f 22/59/18 23/61/18 24/63/18
f 9/22/19 8/21/19 12/32/19 11/30/19
f 17/45/20 15/38/20 14/37/20 18/48/20
f 27/70/21 25/66/3 32/81/3 33/83/21
f 21/56/22 20/53/22 24/63/22 23/61/22
f 23/61/23 18/48/23 14/37/23 21/56/23
f 13/35/24 15/39/24 2/6/24 1/2/24
f 30/77/7 36/90/7 34/86/2 29/75/2
f 45/111/5 43/107/25 38/95/25 39/97/5
f 42/104/26 40/100/27 47/116/27 48/118/26
f 44/109/28 37/93/28 26/68/29 31/79/29
f 5/15/30 4/10/30 17/46/30 16/43/30
f 19/51/31 13/36/31 1/3/31 7/18/31
f 6/16/32 12/32/32 8/21/32 3/8/32
f 44/109/28 45/112/5 39/98/5 37/93/28
f 16/44/26 18/48/26 23/61/26 22/60/26
f 47/116/27 40/100/27 38/95/25 43/107/25
f 46/114/9 41/102/9 42/105/26 48/119/26
s 0
f 55/135/23 56/138/23 54/133/23 53/131/23
s 1
f 31/79/29 26/68/29 27/71/21 33/84/21
f 35/88/8 36/91/7 30/78/7 28/73/8
f 1/4/21 3/8/21 8/21/21 7/19/21
f 7/20/33 9/23/33 20/54/33 19/52/33
f 45/113/34 44/110/34 46/115/34 48/120/34
f 17/47/1 4/11/1 2/7/1 15/40/1
s 0
f 50/123/32 52/128/32 51/125/32 49/121/32
s 1
f 35/89/34 46/115/34 44/110/34 31/80/34
s 0
f 55/136/35 53/132/35 49/122/35 51/126/35
s 1
f 11/31/34 24/64/34 20/55/34 9/24/34
f 43/108/34 45/113/34 48/120/34 47/117/34
f 33/85/34 32/82/34 34/87/34 36/92/34
f 31/80/34 33/85/34 36/92/34 35/89/34
s 0
f 52/129/36 56/139/36 55/137/36 51/127/36
s 1
f 37/94/1 39/99/1 42/106/1 41/103/1
s 0
f 52/130/37 50/124/37 54/134/37 56/140/37
s 1
f 39/99/1 38/96/1 40/101/1 42/106/1
