# Blender 3.4.0
# www.blender.org
mtllib melee_cross_mx_1.mtl
o melee_cross_mx_1
v 0.570528 -0.014000 0.032999
v 0.570528 0.014000 0.032999
v 0.570528 -0.014000 -0.033001
v 0.570528 0.014000 -0.033001
v 0.632998 -0.014000 0.032999
v 0.632998 0.014000 0.032999
v 0.632998 -0.014000 -0.033001
v 0.632998 0.014000 -0.033001
v 0.759998 -0.014000 0.032999
v 0.759998 0.014000 0.032999
v 0.759998 -0.014000 -0.033001
v 0.759998 0.014000 -0.033001
v -0.150002 -0.014000 0.032999
v -0.150002 0.014000 0.032999
v -0.150002 -0.014000 -0.033001
v -0.150002 0.014000 -0.033001
v 0.570528 -0.013999 -0.182001
v 0.570528 0.014001 -0.182001
v 0.632998 -0.013999 -0.182001
v 0.632998 0.014001 -0.182001
v 0.570528 -0.014001 0.181999
v 0.570528 0.013999 0.181999
v 0.632998 -0.014001 0.181999
v 0.632998 0.013999 0.181999
vn -0.0000 1.0000 -0.0000
vn 1.0000 -0.0000 -0.0000
vn -0.0000 -1.0000 -0.0000
vn -0.0000 -0.0000 -1.0000
vn -0.0000 -0.0000 1.0000
vn -1.0000 -0.0000 -0.0000
vt 0.590278 0.788889
vt 0.666667 0.788889
vt 0.590278 0.755556
vt 0.590278 0.788889
vt 0.333333 0.788889
vt 0.409722 0.788889
vt 0.409722 0.755556
vt 0.409722 0.788889
vt 0.666667 0.858333
vt 0.590278 0.858333
vt 0.590278 0.888889
vt 0.590278 0.858333
vt 0.409722 0.888889
vt 0.333333 0.858333
vt 0.409722 0.858333
vt 0.409722 0.858333
vt 0.208333 0.880556
vt 0.666667 1.000000
vt 0.590278 1.000000
vt 0.284722 0.880556
vt 0.590278 1.000000
vt 0.208333 0.808333
vt 0.333333 1.000000
vt 0.409722 1.000000
vt 0.284722 0.808333
vt 0.409722 1.000000
vt 0.333333 0.536111
vt 0.590278 0.000000
vt 0.666667 0.000000
vt 0.409722 0.536111
vt 0.590278 0.000000
vt 0.333333 0.463889
vt 0.409722 0.000000
vt 0.333333 0.000000
vt 0.409722 0.463889
vt 0.409722 0.000000
vt 0.333333 0.788889
vt 0.000000 0.788889
vt 0.000000 0.755556
vt 0.409722 0.788889
vt 0.000000 0.788889
vt 0.000000 0.888889
vt 0.333333 0.858333
vt 0.000000 0.858333
vt 0.409722 0.858333
vt 0.000000 0.858333
vt 1.000000 0.788889
vt 0.409722 0.561111
vt 1.000000 0.755556
vt 0.409722 0.588889
vt 1.000000 0.788889
vt 1.000000 0.858333
vt 0.590278 0.561111
vt 1.000000 0.888889
vt 0.590278 0.588889
vt 1.000000 0.858333
s 0
usemtl melee_cross_mx_1
f 2/4/1 4/8/1 16/36/1 14/31/1
f 8/16/2 7/13/2 19/42/2 20/46/2
f 8/16/1 6/12/1 10/21/1 12/26/1
f 1/1/3 5/10/3 23/52/3 21/47/3
f 3/6/3 7/15/3 5/10/3 1/1/3
f 8/16/1 4/8/1 2/4/1 6/12/1
f 11/22/2 12/25/2 10/20/2 9/17/2
f 7/14/4 8/16/4 12/26/4 11/23/4
f 6/12/5 5/9/5 9/18/5 10/21/5
f 5/10/3 7/15/3 11/24/3 9/19/3
f 13/27/6 14/30/6 16/35/6 15/32/6
f 3/6/3 1/1/3 13/28/3 15/33/3
f 4/8/4 3/5/4 15/34/4 16/36/4
f 1/2/5 2/4/5 14/31/5 13/29/5
f 17/37/4 18/40/4 20/45/4 19/43/4
f 7/15/3 3/6/3 17/38/3 19/44/3
f 4/8/1 8/16/1 20/46/1 18/41/1
f 3/7/6 4/8/6 18/41/6 17/39/6
f 23/53/5 24/55/5 22/50/5 21/48/5
f 6/12/1 2/4/1 22/51/1 24/56/1
f 5/11/2 6/12/2 24/56/2 23/54/2
f 2/4/6 1/3/6 21/49/6 22/51/6
