# Blender 3.4.0
# www.blender.org
mtllib misc_tool_mx_2.mtl
o misc_tool_mx_2
v 0.064137 0.000000 -0.032197
v 0.009356 0.007500 0.007857
v 0.007219 0.007500 0.013986
v 0.011922 0.007500 0.018406
v 0.027504 0.007500 0.027812
v 0.030783 0.007500 0.024106
v 0.035201 0.007500 0.025531
v 0.048457 0.007500 0.026101
v 0.054444 0.007500 0.029522
v 0.061143 0.007500 0.021683
v 0.061713 0.007500 -0.007537
v 0.067130 0.007500 -0.016090
v 0.071691 0.007500 -0.017658
v 0.074969 0.007500 -0.028918
v 0.074542 0.007500 -0.032197
v 0.064137 0.007500 -0.032197
v 0.061286 0.007500 -0.029489
v 0.057010 0.007500 -0.032624
v 0.051736 0.007500 -0.030914
v 0.044894 0.007500 -0.025640
v 0.030640 0.007500 -0.023217
v 0.026649 0.007500 -0.024215
v 0.021375 0.007500 -0.022789
v 0.012635 -0.000000 0.006146
v 0.009356 -0.000000 0.007857
v 0.007219 -0.000000 0.013986
v 0.011922 -0.000000 0.018405
v 0.027504 -0.000000 0.027812
v 0.030783 -0.000000 0.024106
v 0.035201 -0.000000 0.025531
v 0.048457 -0.000000 0.026101
v 0.054444 -0.000000 0.029522
v 0.061143 -0.000000 0.021683
v 0.061713 0.000000 -0.007537
v 0.067130 0.000000 -0.016090
v 0.071691 0.000000 -0.017658
v 0.074969 0.000000 -0.028918
v 0.074542 0.000000 -0.032197
v 0.061286 0.000000 -0.029489
v 0.057010 0.000000 -0.032624
v 0.051736 0.000000 -0.030914
v 0.044894 0.000000 -0.025640
v 0.030640 0.000000 -0.023217
v 0.026649 0.000000 -0.024215
v 0.021375 0.000000 -0.022789
v 0.015104 0.000000 -0.024215
v 0.009273 0.000000 -0.022786
v 0.012635 0.007500 0.006146
v 0.015104 0.007500 -0.024215
v 0.009273 0.007500 -0.022786
v 0.008929 -0.000000 0.025105
v 0.008929 0.007500 0.025105
v 0.009273 0.006250 -0.022786
v -0.031861 0.006250 -0.028450
v -0.051073 0.006250 -0.031899
v -0.092103 0.006250 -0.038172
v -0.112456 0.006250 -0.036292
v -0.132762 0.006250 -0.029519
v -0.151073 0.006250 -0.017100
v -0.054561 0.006250 -0.000263
v -0.048503 0.006250 -0.003588
v -0.042326 0.006250 -0.004539
v -0.036032 0.006250 -0.002757
v -0.028428 0.006250 -0.016774
v 0.010498 0.006250 -0.012241
v 0.009273 0.003750 -0.022786
v -0.031861 0.003750 -0.028450
v -0.051073 0.003750 -0.031899
v -0.092103 0.003750 -0.038172
v -0.112456 0.003750 -0.036292
v -0.132762 0.003750 -0.029519
v -0.151073 0.003750 -0.017100
v -0.156188 0.003750 -0.010749
v -0.059182 0.003750 0.006573
v -0.048503 0.003750 -0.003588
v -0.042326 0.003750 -0.004539
v -0.036032 0.003750 -0.002757
v -0.028428 0.003750 -0.016774
v 0.010498 0.003750 -0.012241
v 0.007219 0.001250 0.013986
v 0.011922 0.001250 0.018405
v 0.008929 0.001250 0.025105
v -0.027219 0.001250 0.018887
v -0.036096 0.001250 0.003658
v -0.042245 0.001250 0.005669
v -0.049338 0.001250 0.004514
v -0.151989 0.001250 0.015667
v -0.138982 0.001250 0.028845
v -0.120808 0.001250 0.036950
v -0.103140 0.001250 0.039094
v 0.007219 0.003750 0.013986
v 0.008929 0.007500 0.025105
v -0.054561 0.003750 -0.000263
v 0.011922 0.003750 0.018405
v 0.008929 0.003750 0.025105
v -0.027219 0.003750 0.018887
v -0.036096 0.003750 0.003658
v -0.042245 0.003750 0.005669
v -0.049338 0.003750 0.004514
v -0.158399 0.003750 0.007847
v -0.151989 0.003750 0.015667
v -0.138982 0.003750 0.028845
v -0.120808 0.003750 0.036950
v -0.103140 0.003750 0.039094
v 0.054444 0.001250 0.029522
v 0.061143 0.001250 0.021683
v 0.074542 0.001250 -0.032197
v 0.064137 0.001250 -0.032197
v 0.061286 0.001250 -0.029489
v 0.057010 0.001250 -0.032624
v 0.116885 0.001250 0.004437
v 0.101894 0.001250 -0.031832
v 0.114263 0.001250 -0.015915
v 0.108559 0.001250 0.024408
v 0.091357 0.001250 0.035051
v 0.074986 0.001250 0.035726
v 0.057037 0.001250 0.029297
v 0.062619 0.001250 0.023953
v 0.076622 0.001250 0.029610
v 0.090288 0.001250 0.030298
v 0.104877 0.001250 0.020607
v 0.112181 0.001250 0.004238
v 0.110132 0.001250 -0.014436
v 0.099545 0.001250 -0.027502
v 0.066513 0.001250 -0.037274
v 0.085542 0.001250 -0.038106
v 0.085330 0.001250 -0.033182
v 0.054444 0.006250 0.029522
v 0.061143 0.006250 0.021683
v 0.074542 0.006250 -0.032197
v 0.064137 0.006250 -0.032197
v 0.061286 0.006250 -0.029489
v 0.057010 0.006250 -0.032624
v 0.116885 0.006250 0.004437
v 0.101894 0.006250 -0.031832
v 0.114263 0.006250 -0.015915
v 0.108559 0.006250 0.024408
v 0.091357 0.006250 0.035051
v 0.074986 0.006250 0.035726
v 0.057037 0.006250 0.029297
v 0.062619 0.006250 0.023953
v 0.076622 0.006250 0.029610
v 0.090288 0.006250 0.030298
v 0.104877 0.006250 0.020607
v 0.112181 0.006250 0.004238
v 0.110132 0.006250 -0.014436
v 0.099545 0.006250 -0.027502
v 0.066513 0.006250 -0.037274
v 0.085542 0.006250 -0.038106
v 0.085330 0.006250 -0.033182
vn 0.3251 -0.0000 0.9457
vn -0.4961 -0.0000 0.8682
vn 0.8448 -0.0000 0.5350
vn 0.7490 -0.0000 0.6626
vn 0.2217 -0.0000 -0.9751
vn -0.3070 -0.0000 0.9517
vn -0.0429 -0.0000 0.9991
vn -0.0000 1.0000 -0.0000
vn -0.0000 -1.0000 -0.0000
vn -0.0000 -0.0000 -1.0000
vn -0.6887 -0.0000 -0.7250
vn 0.7603 -0.0000 0.6496
vn -0.9933 -0.0000 0.1154
vn 0.5913 -0.0000 -0.8064
vn -0.1676 -0.0000 -0.9859
vn 0.2426 -0.0000 -0.9701
vn -0.2610 -0.0000 -0.9653
vn -0.3084 -0.0000 -0.9512
vn 0.9601 -0.0000 0.2796
vn -0.9130 -0.0000 -0.4079
vn -0.4625 -0.0000 -0.8866
vn -0.6105 -0.0000 -0.7920
vn -0.9442 -0.0000 -0.3293
vn -0.6847 -0.0000 0.7288
vn 0.9998 -0.0000 0.0195
vn -0.1442 -0.0000 0.9895
vn 0.9916 -0.0000 -0.1292
vn -0.2380 -0.0000 -0.9713
vn 0.1521 -0.0000 0.9884
vn 0.1239 -0.0000 0.9923
vn -0.2725 -0.0000 0.9622
vn 0.1364 -0.0000 -0.9907
vn 0.1767 -0.0000 -0.9843
vn 0.1512 -0.0000 -0.9885
vn 0.8790 -0.0000 0.4768
vn -0.7788 -0.0000 -0.6272
vn 0.4812 -0.0000 0.8766
vn 0.8285 -0.0000 0.5600
vn -0.4073 -0.0000 0.9133
vn -0.1157 -0.0000 0.9933
vn 0.8639 -0.0000 -0.5036
vn -0.3108 -0.0000 -0.9505
vn 0.6749 -0.0000 -0.7379
vn -0.7734 -0.0000 0.6340
vn 0.1607 -0.0000 -0.9870
vn -0.7117 -0.0000 0.7025
vn -0.3048 -0.0000 0.9524
vn -0.1409 -0.0000 -0.9900
vn -0.0320 -0.9388 -0.3431
vn -0.0561 0.9466 0.3175
vn -0.0920 -0.0000 -0.9958
vn -0.1205 -0.0000 0.9927
vn -0.3164 -0.0000 -0.9486
vn -0.5613 -0.0000 -0.8276
vn -0.9940 -0.0000 0.1090
vn 0.5261 -0.0000 0.8504
vn 0.0412 -0.0000 0.9992
vn -0.7769 -0.0000 0.6296
vn -0.4395 -0.0000 -0.8983
vn 0.9918 -0.0000 -0.1278
vn 0.7896 -0.0000 -0.6136
vn 0.9230 -0.0000 0.3848
vn 0.3582 -0.0000 -0.9336
vn 0.0910 -0.0000 0.9959
vn 0.0503 -0.0000 -0.9987
vn 0.3746 -0.0000 -0.9272
vn 0.0867 -0.0000 0.9962
vn 0.8383 -0.0000 -0.5452
vn -0.3711 -0.0000 0.9286
vn -0.3372 -0.0000 0.9414
vn -0.9132 -0.0000 -0.4075
vn -0.0437 -0.0000 -0.9990
vn -0.5533 -0.0000 -0.8330
vt 0.945793 0.083333
vt 0.803965 0.928736
vt 0.660418 0.194033
vt 0.776744 0.194033
vt 0.606056 0.518313
vt 0.744816 0.194033
vt 0.649284 0.194033
vt 0.598334 0.455513
vt 0.721794 0.194033
vt 0.673787 0.194033
vt 0.615327 0.410229
vt 0.672792 0.194033
vt 0.754960 0.194033
vt 0.671621 0.313842
vt 0.692098 0.194033
vt 0.772040 0.194033
vt 0.683466 0.351816
vt 0.795057 0.194033
vt 0.699429 0.337212
vt 0.864113 0.194033
vt 0.747320 0.331373
vt 0.895303 0.194033
vt 0.663881 0.194033
vt 0.768950 0.296315
vt 0.704721 0.194033
vt 0.793150 0.376647
vt 0.856941 0.194033
vt 0.795210 0.676059
vt 0.961388 0.194033
vt 0.901497 0.194033
vt 0.814780 0.763700
vt 0.985146 0.194033
vt 0.909665 0.194033
vt 0.831256 0.779765
vt 0.968323 0.194033
vt 0.843101 0.895144
vt 1.000000 0.194033
vt 0.985400 0.194033
vt 0.841557 0.928736
vt 0.945793 0.194033
vt 0.803965 0.928736
vt 0.930944 0.194033
vt 0.793667 0.900988
vt 0.908667 0.194033
vt 0.778218 0.933119
vt 0.881194 0.194033
vt 0.759165 0.915597
vt 0.845553 0.194033
vt 0.734447 0.861553
vt 0.771295 0.194033
vt 0.682949 0.836722
vt 0.750504 0.194033
vt 0.668531 0.846948
vt 0.723030 0.194033
vt 0.649478 0.832339
vt 0.785656 0.083333
vt 0.677503 0.083333
vt 0.617904 0.535844
vt 0.660418 0.083333
vt 0.776744 0.083333
vt 0.606056 0.518313
vt 0.744816 0.083333
vt 0.649284 0.083333
vt 0.598334 0.455513
vt 0.721794 0.083333
vt 0.673787 0.083333
vt 0.615327 0.410229
vt 0.672792 0.083333
vt 0.754960 0.083333
vt 0.671621 0.313842
vt 0.692098 0.083333
vt 0.772040 0.083333
vt 0.683466 0.351816
vt 0.795057 0.083333
vt 0.699429 0.337212
vt 0.864113 0.083333
vt 0.747320 0.331373
vt 0.895303 0.083333
vt 0.663881 0.083333
vt 0.768950 0.296315
vt 0.704721 0.083333
vt 0.793150 0.376647
vt 0.856941 0.083333
vt 0.795210 0.676059
vt 0.961388 0.083333
vt 0.901497 0.083333
vt 0.814780 0.763700
vt 0.985146 0.083333
vt 0.909665 0.083333
vt 0.831256 0.779765
vt 0.968323 0.083333
vt 0.843101 0.895144
vt 1.000000 0.083333
vt 0.985400 0.083333
vt 0.841557 0.928736
vt 0.930944 0.083333
vt 0.793667 0.900988
vt 0.908667 0.083333
vt 0.778218 0.933119
vt 0.881194 0.083333
vt 0.759165 0.915597
vt 0.845553 0.083333
vt 0.734447 0.861553
vt 0.771295 0.083333
vt 0.682949 0.836722
vt 0.750504 0.083333
vt 0.668531 0.846948
vt 0.723030 0.083333
vt 0.649478 0.832339
vt 0.690360 0.083333
vt 0.626821 0.846949
vt 0.936375 0.083333
vt 0.659986 0.083333
vt 0.605756 0.832305
vt 0.785656 0.194033
vt 0.677503 0.194033
vt 0.617904 0.535844
vt 0.690360 0.194033
vt 0.626821 0.846949
vt 0.936375 0.194033
vt 0.659986 0.194033
vt 0.605756 0.832305
vt 0.686896 0.083333
vt 0.658197 0.083333
vt 0.604515 0.341585
vt 0.686896 0.194033
vt 0.658197 0.194033
vt 0.604515 0.341585
vt 0.613762 0.083023
vt 0.605756 0.832305
vt 0.457206 0.083023
vt 0.457150 0.890346
vt 0.384086 0.083023
vt 0.387743 0.925682
vt 0.239512 0.989968
vt 0.227926 0.083023
vt 0.165980 0.970705
vt 0.150718 0.083023
vt 0.092622 0.901304
vt 0.073533 0.083023
vt 0.568087 0.083023
vt 0.026467 0.774049
vt 0.003485 0.083023
vt 0.370809 0.083023
vt 0.504003 0.083023
vt 0.375139 0.601517
vt 0.393868 0.083023
vt 0.397028 0.635593
vt 0.417377 0.083023
vt 0.419344 0.645335
vt 0.441333 0.083023
vt 0.513494 0.083023
vt 0.442083 0.627071
vt 0.566844 0.083023
vt 0.470273 0.083023
vt 0.469553 0.770702
vt 0.618385 0.083023
vt 0.610180 0.724255
vt 0.613762 0.056064
vt 0.605756 0.832305
vt 0.457206 0.056064
vt 0.457150 0.890346
vt 0.384086 0.056064
vt 0.387743 0.925682
vt 0.239512 0.989968
vt 0.227926 0.056064
vt 0.165980 0.970705
vt 0.150718 0.056064
vt 0.092622 0.901304
vt 0.073533 0.056064
vt 0.568087 0.056064
vt 0.026467 0.774049
vt 0.003485 0.056064
vt 0.543915 0.056064
vt 0.007990 0.708971
vt 0.007975 0.708728
vt 0.477985 0.056064
vt 0.358447 0.531471
vt 0.393868 0.056064
vt 0.397028 0.635593
vt 0.417377 0.056064
vt 0.419344 0.645335
vt 0.441333 0.056064
vt 0.513494 0.056064
vt 0.442083 0.627071
vt 0.566844 0.056064
vt 0.470273 0.056064
vt 0.469553 0.770702
vt 0.618385 0.056064
vt 0.610181 0.724255
vt 0.598334 0.455513
vt 0.605943 0.029105
vt 0.615327 0.410229
vt 0.612455 0.029105
vt 0.612455 0.084868
vt 0.604515 0.341585
vt 0.431120 0.029105
vt 0.474875 0.029105
vt 0.473922 0.405299
vt 0.489079 0.029105
vt 0.441087 0.029105
vt 0.441849 0.561339
vt 0.417686 0.029105
vt 0.419637 0.540735
vt 0.390688 0.029105
vt 0.394010 0.552569
vt 0.443372 0.029105
vt 0.000000 0.029105
vt 0.023160 0.438284
vt 0.054667 0.029105
vt 0.070151 0.303254
vt 0.135806 0.220210
vt 0.118673 0.029105
vt 0.199639 0.198238
vt 0.185920 0.029105
vt 0.598334 0.455513
vt 0.605943 0.056064
vt 0.612455 0.084868
vt 0.504003 0.056064
vt 0.370809 0.056064
vt 0.375139 0.601517
vt 0.615327 0.410229
vt 0.612455 0.056064
vt 0.612455 0.084868
vt 0.604515 0.341585
vt 0.431120 0.056064
vt 0.474875 0.056064
vt 0.473922 0.405299
vt 0.489079 0.056064
vt 0.441087 0.056064
vt 0.441849 0.561339
vt 0.417686 0.056064
vt 0.419637 0.540735
vt 0.390688 0.056064
vt 0.394010 0.552569
vt 0.473136 0.056064
vt 0.000000 0.518416
vt 0.443372 0.056064
vt 0.000000 0.056064
vt 0.023160 0.438284
vt 0.054667 0.056064
vt 0.070151 0.303254
vt 0.118673 0.056064
vt 0.135806 0.220210
vt 0.185920 0.056064
vt 0.199639 0.198238
vt 0.785685 0.029105
vt 0.768950 0.296315
vt 0.420478 0.029105
vt 0.793150 0.376647
vt 0.862177 0.029105
vt 0.841557 0.928736
vt 0.803965 0.928736
vt 0.793667 0.900988
vt 0.795449 0.029105
vt 0.778218 0.933119
vt 0.483442 0.029105
vt 0.994530 0.553360
vt 0.941579 0.029105
vt 0.940371 0.924998
vt 0.563537 0.029105
vt 0.985057 0.761902
vt 0.991115 0.029105
vt 0.408685 0.029105
vt 0.964450 0.348718
vt 0.925808 0.029105
vt 0.902306 0.239671
vt 0.862408 0.029105
vt 0.843162 0.232753
vt 0.795551 0.029105
vt 0.778314 0.298626
vt 0.816799 0.029105
vt 0.411839 0.029105
vt 0.798483 0.353389
vt 0.868555 0.029105
vt 0.849070 0.295421
vt 0.898444 0.288365
vt 0.922451 0.029105
vt 0.835911 0.029105
vt 0.951147 0.387669
vt 0.977279 0.029105
vt 0.898501 0.029105
vt 0.977535 0.555404
vt 0.972045 0.029105
vt 0.970136 0.746750
vt 0.931885 0.880633
vt 0.951937 0.029105
vt 0.812551 0.980763
vt 0.831619 0.029105
vt 0.881296 0.989284
vt 0.902328 0.029105
vt 0.880532 0.938835
vt 0.901783 0.029105
vt 0.785685 0.083023
vt 0.768949 0.296315
vt 0.420478 0.083023
vt 0.793150 0.376647
vt 0.862177 0.083023
vt 0.841557 0.928736
vt 0.803965 0.928736
vt 0.793667 0.900988
vt 0.795449 0.083023
vt 0.778218 0.933119
vt 0.483442 0.083023
vt 0.994530 0.553360
vt 0.941579 0.083023
vt 0.940371 0.924998
vt 0.563537 0.083023
vt 0.985057 0.761902
vt 0.991115 0.083023
vt 0.408685 0.083023
vt 0.964450 0.348718
vt 0.925808 0.083023
vt 0.902306 0.239671
vt 0.862408 0.083023
vt 0.843162 0.232753
vt 0.795551 0.083023
vt 0.778314 0.298626
vt 0.816799 0.083023
vt 0.411839 0.083023
vt 0.798483 0.353389
vt 0.868555 0.083023
vt 0.849070 0.295421
vt 0.898444 0.288365
vt 0.922451 0.083023
vt 0.835911 0.083023
vt 0.951147 0.387669
vt 0.977279 0.083023
vt 0.977535 0.555404
vt 0.898501 0.083023
vt 0.972045 0.083023
vt 0.970136 0.746750
vt 0.951937 0.083023
vt 0.931885 0.880633
vt 0.812551 0.980763
vt 0.831619 0.083023
vt 0.881296 0.989284
vt 0.902328 0.083023
vt 0.901783 0.083023
vt 0.880532 0.938836
s 0
usemtl misc_tool_mx_2
f 13/32/1 12/29/1 35/85/1 36/88/1
f 8/20/2 31/76/2 32/78/2 9/22/2
f 12/30/3 11/27/3 34/83/3 35/86/3
f 5/12/4 28/68/4 29/71/4 6/15/4
f 45/108/5 46/110/5 49/118/5 23/54/5
f 29/72/6 30/74/6 7/18/6 6/16/6
f 30/74/7 31/76/7 8/20/7 7/18/7
f 20/49/8 11/28/8 12/31/8 17/43/8
f 35/87/9 34/84/9 42/103/9 39/97/9
f 1/1/10 16/40/10 15/37/10 38/93/10
f 39/96/11 17/42/11 16/40/11 1/1/11
f 33/81/12 10/25/12 9/23/12 32/79/12
f 48/115/13 50/120/13 47/112/13 24/56/13
f 40/98/14 18/44/14 17/42/14 39/96/14
f 42/102/15 43/104/15 21/50/15 20/48/15
f 43/104/16 44/106/16 22/52/16 21/50/16
f 4/11/8 6/17/8 48/117/8 2/5/8
f 44/106/17 45/108/17 23/54/17 22/52/17
f 40/98/18 41/100/18 19/46/18 18/44/18
f 14/35/19 13/33/19 36/89/19 37/91/19
f 52/126/20 4/9/20 27/65/20 51/123/20
f 48/116/21 24/57/21 25/59/21 2/3/21
f 19/46/22 41/100/22 42/102/22 20/48/22
f 25/60/23 26/62/23 3/6/23 2/4/23
f 27/66/24 4/10/24 3/7/24 26/63/24
f 33/81/25 34/83/25 11/27/25 10/25/25
f 51/124/26 28/69/26 5/13/26 52/127/26
f 41/101/9 40/99/9 39/97/9 42/103/9
f 14/35/27 37/91/27 38/94/27 15/38/27
f 6/17/8 11/28/8 21/51/8 48/117/8
f 47/113/28 50/121/28 49/118/28 46/110/28
f 27/67/9 25/61/9 24/58/9 29/73/9
f 49/119/8 50/122/8 48/117/8
f 2/5/8 3/8/8 4/11/8
f 33/82/9 32/80/9 31/77/9 34/84/9
f 43/105/9 24/58/9 45/109/9 44/107/9
f 30/75/9 29/73/9 34/84/9 31/77/9
f 24/58/9 43/105/9 34/84/9 29/73/9
f 20/49/8 21/51/8 11/28/8
f 15/39/8 16/41/8 14/36/8
f 37/92/9 36/90/9 39/97/9 1/2/9
f 12/31/8 13/34/8 17/43/8
f 48/117/8 23/55/8 49/119/8
f 24/58/9 47/114/9 46/111/9
f 7/19/8 8/21/8 11/28/8 6/17/8
f 19/47/8 20/49/8 17/43/8 18/45/8
f 1/2/9 38/95/9 37/92/9
f 36/90/9 35/87/9 39/97/9
f 10/26/8 11/28/8 8/21/8 9/24/8
f 43/105/9 42/103/9 34/84/9
f 5/14/8 6/17/8 4/11/8 52/128/8
f 27/67/9 26/64/9 25/61/9
f 13/34/8 14/36/8 16/41/8 17/43/8
f 23/55/8 48/117/8 21/51/8 22/53/8
f 28/70/9 51/125/9 27/67/9 29/73/9
f 24/58/9 46/111/9 45/109/9
f 57/137/8 58/139/8 60/146/8
f 62/149/29 61/147/29 75/179/29 76/181/29
f 82/194/30 95/223/30 104/245/30 90/215/30
f 63/151/31 62/149/31 76/181/31 77/183/31
f 56/135/8 57/137/8 60/146/8
f 93/221/9 73/175/9 69/165/9 68/164/9
f 75/180/9 68/164/9 67/162/9 76/182/9
f 88/211/9 90/214/9 89/212/9
f 66/159/32 67/161/32 54/131/32 53/129/32
f 55/133/33 54/131/33 67/161/33 68/163/33
f 56/136/34 55/133/34 68/163/34 69/166/34
f 64/154/35 63/152/35 77/184/35 78/186/35
f 73/174/36 59/141/36 72/171/36
f 61/147/37 60/144/37 93/220/37 75/179/37
f 78/188/9 77/185/9 76/182/9 67/162/9
f 60/145/38 74/177/38 93/219/38
f 89/213/39 103/243/39 102/241/39 88/210/39
f 64/155/40 78/187/40 79/189/40 65/157/40
f 84/200/41 97/229/41 96/226/41 83/197/41
f 85/203/42 98/232/42 97/230/42 84/201/42
f 86/205/43 93/220/43 99/234/43
f 100/236/44 87/207/44 101/238/44
f 86/205/45 99/234/45 98/232/45 85/203/45
f 87/208/46 88/210/46 102/241/46 101/239/46
f 73/175/9 72/172/9 71/169/9 70/167/9 69/165/9
f 95/224/47 82/195/47 92/218/47
f 83/198/48 96/227/48 91/217/48
f 80/191/9 81/193/9 82/196/9 83/199/9
f 101/240/8 99/235/8 93/221/8 100/237/8
f 53/130/8 54/132/8 64/156/8 65/158/8
f 55/134/8 56/135/8 60/146/8 61/148/8
f 62/150/8 63/153/8 64/156/8 54/132/8
f 66/160/9 79/190/9 78/188/9 67/162/9
f 93/221/9 74/178/9 73/175/9
f 86/206/9 83/199/9 90/214/9 88/211/9
f 93/221/49 86/206/49 87/209/49 100/237/49
f 54/132/8 55/134/8 61/148/8 62/150/8
f 68/164/9 75/180/9 93/221/9
f 98/233/8 99/235/8 104/246/8 96/228/8
f 88/211/9 87/209/9 86/206/9
f 60/146/50 59/142/50 73/176/50 74/178/50
f 96/228/8 95/225/8 94/222/8 91/216/8
f 82/196/9 90/214/9 83/199/9
f 91/217/48 80/192/48 83/198/48
f 58/139/8 59/142/8 60/146/8
f 85/204/9 84/202/9 83/199/9 86/206/9
f 104/246/8 95/225/8 96/228/8
f 96/228/8 97/231/8 98/233/8
f 57/138/51 56/136/51 69/166/51 70/168/51
f 90/215/52 104/245/52 103/243/52 89/213/52
f 102/242/8 103/244/8 104/246/8 99/235/8 101/240/8
f 57/138/53 70/168/53 71/170/53 58/140/53
f 59/143/54 58/140/54 71/170/54 72/173/54
f 122/282/55 145/330/55 146/331/55 123/284/55
f 144/327/8 137/312/8 134/305/8 145/329/8
f 115/266/56 114/263/56 137/310/56 138/313/56
f 138/313/57 139/315/57 116/268/57 115/266/57
f 123/284/58 146/331/58 147/333/58 124/287/58
f 110/255/59 133/302/59 148/336/59 125/289/59
f 113/261/60 136/308/60 134/304/60 111/257/60
f 127/292/9 126/290/9 112/260/9 124/286/9
f 149/337/8 150/340/8 147/334/8 135/307/8
f 112/259/61 135/306/61 136/308/61 113/261/61
f 119/276/9 116/269/9 117/271/9 118/274/9
f 134/304/62 137/311/62 114/264/62 111/257/62
f 126/291/63 149/338/63 135/306/63 112/259/63
f 136/309/8 146/332/8 145/329/8 134/305/8
f 121/280/9 114/265/9 115/267/9 120/277/9
f 127/293/64 150/339/64 130/298/64 107/251/64
f 142/322/65 143/325/65 120/278/65 119/275/65
f 141/319/66 142/322/66 119/275/66 118/272/66
f 117/270/67 140/317/67 128/294/67 105/247/67
f 106/249/68 129/296/68 141/320/68 118/273/68
f 112/260/9 113/262/9 123/285/9 124/286/9
f 127/292/9 107/252/9 125/288/9 126/290/9
f 147/333/69 150/339/69 127/293/69 124/287/69
f 139/315/70 140/317/70 117/270/70 116/268/70
f 119/276/9 120/277/9 115/267/9 116/269/9
f 142/323/8 139/316/8 138/314/8 143/324/8
f 146/332/8 136/309/8 135/307/8 147/334/8
f 141/321/8 129/297/8 128/295/8 140/318/8
f 130/299/8 150/340/8 149/337/8 148/335/8
f 133/303/8 132/301/8 131/300/8 148/335/8
f 107/252/9 108/253/9 125/288/9
f 106/250/9 118/274/9 117/271/9 105/248/9
f 131/300/8 130/299/8 148/335/8
f 121/279/71 144/326/71 145/330/71 122/282/71
f 113/262/9 111/258/9 122/283/9 123/285/9
f 121/280/9 122/283/9 111/258/9 114/265/9
f 143/324/8 138/314/8 137/312/8 144/327/8
f 141/321/8 140/318/8 139/316/8 142/323/8
f 110/256/9 125/288/9 108/253/9 109/254/9
f 125/289/72 148/336/72 149/338/72 126/291/72
f 120/278/73 143/325/73 144/328/73 121/281/73
