# Blender 3.4.0
# www.blender.org
mtllib misc_tool_mx_5.mtl
o misc_tool_mx_5
v 0.071077 0.010001 -0.178163
v 0.018306 0.011000 0.008097
v 0.037249 0.011000 -0.023497
v 0.050735 0.011000 -0.052836
v 0.061217 0.011000 -0.083371
v 0.067301 0.011000 -0.115635
v -0.071077 0.010001 -0.178163
v -0.037249 0.011000 -0.023497
v -0.050735 0.011000 -0.052836
v -0.061217 0.011000 -0.083371
v -0.067301 0.011000 -0.115635
v 0.018306 0.009000 0.008097
v 0.037249 0.009000 -0.023497
v 0.050735 0.009000 -0.052836
v 0.061217 0.009000 -0.083371
v 0.067301 0.009000 -0.115635
v -0.037249 0.009000 -0.023497
v -0.050735 0.009000 -0.052836
v -0.061217 0.009000 -0.083371
v -0.067301 0.009000 -0.115635
v -0.022419 -0.000001 0.145186
v -0.031429 0.008999 0.144748
v 0.015106 -0.000001 0.168091
v 0.019524 0.008999 0.176433
v -0.000000 -0.000001 0.170851
v 0.000000 0.008999 0.180000
v -0.015106 -0.000001 0.168091
v -0.019524 0.008999 0.176433
v 0.008525 -0.000000 0.017097
v -0.022130 -0.000001 0.160957
v -0.031062 0.008999 0.164712
v 0.008123 -0.000000 0.021915
v 0.017166 0.009000 0.021769
v 0.022419 -0.000001 0.145186
v 0.031429 0.008999 0.144748
v 0.022130 -0.000001 0.160957
v 0.031062 0.008999 0.164712
v 0.000000 0.010999 0.180000
v 0.000000 0.019999 0.170851
v 0.015106 0.019999 0.168091
v 0.019524 0.010999 0.176433
v 0.022130 0.019999 0.160957
v 0.031062 0.010999 0.164712
v 0.022419 0.019999 0.145186
v 0.031429 0.010999 0.144748
v 0.008123 0.020000 0.021915
v 0.017166 0.011000 0.021769
v 0.008525 0.020000 0.017097
v -0.019524 0.010999 0.176433
v -0.015106 0.019999 0.168091
v -0.031062 0.010999 0.164712
v -0.022130 0.019999 0.160957
v -0.031429 0.010999 0.144748
v -0.022419 0.019999 0.145186
v -0.017166 0.011000 0.021769
v -0.008123 0.020000 0.021915
v -0.018306 0.011000 0.008097
v -0.008525 0.020000 0.017097
v -0.008123 -0.000000 0.021915
v -0.017166 0.009000 0.021769
v -0.008525 -0.000000 0.017097
v -0.018306 0.009000 0.008097
vn -0.9924 -0.0000 0.1234
vn -0.7281 -0.0001 -0.6855
vn 0.4680 -0.0000 0.8838
vn 0.9219 -0.0000 0.3875
vn -0.3605 0.9327 -0.0058
vn 0.3605 0.9327 -0.0058
vn 0.4556 0.8894 0.0380
vn -0.4556 0.8894 0.0380
vn 0.3605 -0.9327 -0.0058
vn -0.3605 -0.9327 -0.0058
vn -0.4556 -0.8894 0.0380
vn 0.4556 -0.8894 0.0380
vn 0.9988 -0.0000 -0.0485
vn -0.9219 -0.0000 0.3875
vn -0.4680 -0.0000 0.8838
vn -0.0000 -0.0000 1.0000
vn -0.9965 -0.0000 0.0831
vn -0.9999 -0.0000 -0.0162
vn 0.9999 -0.0000 -0.0162
vn -0.9668 -0.0000 0.2557
vn -0.0000 -1.0000 -0.0000
vn 0.9965 -0.0000 0.0831
vn 0.8844 -0.0000 0.4666
vn 0.8577 -0.0000 0.5142
vn 0.9284 -0.0000 0.3716
vn 0.9668 -0.0000 0.2557
vn -0.8577 -0.0000 0.5142
vn -0.8844 -0.0000 0.4666
vn 0.9924 -0.0000 0.1230
vn -0.9284 -0.0000 0.3716
vn 0.7281 -0.0001 -0.6855
vn -0.9988 -0.0000 -0.0485
vn -0.0000 1.0000 -0.0000
vn -0.7053 -0.7089 -0.0114
vn -0.7047 -0.7071 0.0587
vn -0.0000 -0.9098 0.4150
vn -0.0000 -0.7129 0.7013
vn -0.3229 -0.7237 0.6098
vn -0.2015 -0.9026 0.3805
vn -0.0000 0.9098 0.4150
vn -0.0000 0.7129 0.7013
vn 0.3229 0.7237 0.6098
vn 0.2015 0.9026 0.3805
vn 0.6274 0.7327 0.2637
vn 0.4027 0.8995 0.1693
vn 0.7055 0.7079 -0.0343
vn 0.3954 0.9183 -0.0192
vn 0.7053 0.7089 -0.0114
vn 0.7047 0.7071 0.0587
vn -0.2015 0.9026 0.3805
vn -0.3229 0.7237 0.6098
vn -0.4027 0.8995 0.1693
vn -0.6274 0.7327 0.2637
vn -0.3954 0.9183 -0.0192
vn -0.7055 0.7079 -0.0343
vn -0.7053 0.7089 -0.0114
vn -0.7047 0.7071 0.0587
vn -0.0000 0.7071 -0.7071
vn -0.3954 -0.9183 -0.0192
vn -0.7055 -0.7079 -0.0343
vn -0.4027 -0.8995 0.1693
vn -0.6274 -0.7327 0.2637
vn 0.7053 -0.7089 -0.0114
vn 0.7047 -0.7071 0.0587
vn 0.7055 -0.7079 -0.0343
vn 0.3954 -0.9183 -0.0192
vn 0.6274 -0.7327 0.2637
vn 0.4027 -0.8995 0.1693
vn 0.3229 -0.7237 0.6098
vn 0.2015 -0.9026 0.3805
vn -0.0000 -0.7071 -0.7071
vt 0.004302 0.993124
vt 0.995698 0.993124
vt 0.627665 0.480193
vt 0.759767 0.567197
vt 0.853820 0.647994
vt 0.926922 0.732084
vt 0.969357 0.820933
vt 0.995698 0.993124
vt 0.004302 0.993124
vt 0.240225 0.567197
vt 0.146172 0.647994
vt 0.073070 0.732084
vt 0.030635 0.820933
vt 0.627665 0.480193
vt 0.372335 0.480193
vt 0.759767 0.567197
vt 0.240233 0.567197
vt 0.853820 0.647994
vt 0.146180 0.647994
vt 0.926922 0.732084
vt 0.073078 0.732084
vt 0.969357 0.820933
vt 0.030643 0.820933
vt 0.240225 0.567197
vt 0.759775 0.567197
vt 0.146172 0.647994
vt 0.853828 0.647994
vt 0.073070 0.732084
vt 0.926930 0.732084
vt 0.030635 0.820933
vt 0.969365 0.820933
vt 0.656358 0.102670
vt 0.719186 0.103876
vt 0.280814 0.103876
vt 0.394651 0.039592
vt 0.636153 0.016618
vt 0.363847 0.016618
vt 0.500000 0.031991
vt 0.500000 0.006797
vt 0.605357 0.039592
vt 0.363838 0.016618
vt 0.636162 0.016618
vt 0.440554 0.455410
vt 0.654341 0.059239
vt 0.283372 0.048899
vt 0.716628 0.048899
vt 0.443352 0.442141
vt 0.619717 0.442543
vt 0.380283 0.442543
vt 0.343651 0.102670
vt 0.719177 0.103876
vt 0.280823 0.103876
vt 0.345668 0.059239
vt 0.716628 0.048899
vt 0.283372 0.048899
vt 0.500000 0.006797
vt 0.500000 0.031991
vt 0.605349 0.039592
vt 0.636153 0.016618
vt 0.654332 0.059239
vt 0.716628 0.048899
vt 0.656349 0.102670
vt 0.719177 0.103876
vt 0.556648 0.442141
vt 0.619717 0.442543
vt 0.559446 0.455410
vt 0.363838 0.016618
vt 0.394643 0.039592
vt 0.283372 0.048899
vt 0.345659 0.059239
vt 0.280814 0.103876
vt 0.343642 0.102670
vt 0.380283 0.442543
vt 0.443343 0.442141
vt 0.372336 0.480193
vt 0.440545 0.455410
vt 0.556657 0.442141
vt 0.619717 0.442543
vt 0.380283 0.442543
vt 0.559455 0.455410
vt 0.372336 0.480193
vt 0.627664 0.480193
s 1
usemtl misc_tool_mx_5
f 11/13/1 7/9/2 20/30/1
f 24/36/3 37/54/4 43/61/4 41/59/3
f 56/74/5 46/64/6 48/66/7 58/76/8
f 32/47/9 59/77/10 61/80/11 29/43/12
f 37/54/4 35/51/13 45/63/13 43/61/4
f 31/45/14 28/41/15 49/67/15 51/69/14
f 28/41/15 26/39/16 38/56/16 49/67/15
f 57/75/17 62/81/17 60/79/18 55/73/18
f 35/51/13 33/48/19 47/65/19 45/63/13
f 26/39/16 24/36/3 41/59/3 38/56/16
f 10/12/20 11/13/1 20/30/1 19/28/20
f 16/23/21 20/31/21 7/8/21 1/1/21
f 33/48/19 12/14/22 2/3/22 47/65/19
f 3/4/23 2/3/24 12/14/24 13/16/23
f 4/5/25 3/4/23 13/16/23 14/18/25
f 5/6/26 4/5/25 14/18/25 15/20/26
f 57/75/27 8/10/28 17/24/28 62/81/27
f 6/7/29 5/6/26 15/20/26 16/22/29
f 8/10/28 9/11/30 18/26/30 17/24/28
f 1/2/31 6/7/29 16/22/29
f 9/11/30 10/12/20 19/28/20 18/26/30
f 22/34/32 31/45/14 51/69/14 53/71/32
f 6/7/33 11/13/33 10/12/33 9/11/33 8/10/33 57/75/33 2/3/33 3/4/33 4/5/33 5/6/33
f 59/77/10 60/78/34 62/82/35 61/80/11
f 25/38/36 26/39/37 28/42/38 27/40/39
f 39/57/40 38/56/41 41/59/42 40/58/43
f 40/58/43 41/59/42 43/61/44 42/60/45
f 42/60/45 43/61/44 45/63/46 44/62/47
f 44/62/47 45/63/46 47/65/48 46/64/6
f 46/64/6 47/65/48 2/3/49 48/66/7
f 38/56/41 39/57/40 50/68/50 49/67/51
f 49/67/51 50/68/50 52/70/52 51/69/53
f 51/69/53 52/70/52 54/72/54 53/71/55
f 53/71/55 54/72/54 56/74/5 55/73/56
f 55/73/56 56/74/5 58/76/8 57/75/57
f 57/75/58 58/76/58 48/66/58 2/3/58
f 21/32/59 22/33/60 60/78/34 59/77/10
f 30/44/61 31/46/62 22/33/60 21/32/59
f 27/40/39 28/42/38 31/46/62 30/44/61
f 33/49/63 32/47/9 29/43/12 12/15/64
f 35/52/65 34/50/66 32/47/9 33/49/63
f 37/55/67 36/53/68 34/50/66 35/52/65
f 24/37/69 23/35/70 36/53/68 37/55/67
f 26/39/37 25/38/36 23/35/70 24/37/69
f 61/80/71 62/82/71 12/15/71 29/43/71
f 60/79/18 22/34/32 53/71/32 55/73/18
f 54/72/54 44/62/47 46/64/6 56/74/5
f 34/50/66 21/32/59 59/77/10 32/47/9
f 52/70/52 42/60/45 44/62/47 54/72/54
f 39/57/40 40/58/43 42/60/45 52/70/52 50/68/50
f 30/44/61 21/32/59 34/50/66 36/53/68
f 27/40/39 30/44/61 36/53/68 23/35/70 25/38/36
f 1/2/33 7/9/33 11/13/33 6/7/33
f 12/15/21 62/82/21 17/25/21 18/27/21 19/29/21 20/31/21 16/23/21 15/21/21 14/19/21 13/17/21
