# Blender 3.4.0
# www.blender.org
mtllib paint_brush_mr_1.mtl
o paint_brush_mr_1
v 0.095995 0.000000 0.022500
v 0.095995 0.015000 0.022500
v 0.095995 0.000000 -0.022500
v 0.095995 0.015000 -0.022500
v 0.179995 0.000000 0.000000
v 0.179995 0.015000 0.000000
v 0.032995 0.000000 0.013500
v 0.032995 0.015000 0.013500
v 0.032995 0.000000 -0.013500
v 0.032995 0.015000 -0.013500
v -0.015005 0.000000 0.022500
v -0.015005 0.015000 0.022500
v -0.015005 0.000000 -0.022500
v -0.015005 0.015000 -0.022500
v -0.039005 0.000000 0.041750
v -0.039005 0.015000 0.041750
v -0.039005 0.000000 -0.041750
v -0.039005 0.015000 -0.041750
v -0.109505 0.000000 0.042750
v -0.109505 0.015000 0.042750
v -0.109505 0.000000 -0.042750
v -0.109505 0.015000 -0.042750
v 0.005495 0.000000 -0.014500
v 0.005495 0.015000 -0.014500
v 0.005495 0.015000 0.014500
v 0.005495 0.000000 0.014500
v 0.059995 0.015000 -0.019250
v 0.059995 0.015000 0.019250
v 0.059995 0.000000 0.019250
v 0.059995 0.000000 -0.019250
v 0.158995 0.000000 -0.010780
v 0.158995 0.015000 -0.010780
v 0.158995 0.000000 0.010780
v 0.158995 0.015000 0.010780
v -0.048005 0.000000 0.042750
v -0.048005 0.000000 -0.042750
v -0.048005 0.015000 -0.042750
v -0.048005 0.015000 0.042750
v -0.170397 0.003000 0.037693
v -0.180007 0.005000 0.028385
v -0.180007 0.008591 0.028385
v -0.170397 0.011591 0.037693
v -0.180007 0.005000 -0.028385
v -0.170397 0.003000 -0.037693
v -0.170397 0.011591 -0.037693
v -0.180007 0.008591 -0.028385
v 0.135495 0.000000 -0.018069
v 0.135495 0.015000 0.018069
v 0.135495 0.015000 -0.018069
v 0.135495 0.000000 0.018069
vn -0.0000 -1.0000 -0.0000
vn -0.0000 1.0000 -0.0000
vn -0.6957 -0.0000 -0.7183
vn 0.1115 -0.0000 -0.9938
vn -0.2083 -0.0000 -0.9781
vn 0.0363 -0.0000 0.9993
vn 0.1104 -0.0000 -0.9939
vn 0.2963 -0.0000 -0.9551
vn -0.0899 -0.0000 0.9959
vn 0.4567 -0.0000 -0.8896
vn -0.0000 -0.0000 -1.0000
vn -0.0899 -0.0000 -0.9959
vn -1.0000 -0.0000 -0.0000
vn 0.1115 -0.0000 0.9938
vn -0.0559 0.9984 -0.0000
vn -0.0492 -0.9988 -0.0000
vn -0.2980 0.9546 -0.0000
vn -0.0828 -0.0000 0.9966
vn 0.6257 -0.0000 -0.7801
vn -0.0828 -0.0000 -0.9966
vn 0.0363 -0.0000 -0.9993
vn -0.2083 -0.0000 0.9781
vn 0.6257 -0.0000 0.7801
vn -0.0000 -0.0000 1.0000
vn 0.4567 -0.0000 0.8896
vn 0.3635 -0.0000 0.9316
vn 0.1104 -0.0000 0.9939
vn -0.6957 -0.0000 0.7183
vn -0.2037 -0.9790 -0.0000
vn 0.3635 -0.0000 -0.9316
vn 0.2962 -0.0000 0.9551
vt 0.775163 0.085551
vt 0.768070 0.482146
vt 0.775163 0.186768
vt 0.768066 0.482146
vt 0.775131 0.085551
vt 0.768070 0.783955
vt 0.775131 0.186768
vt 0.768066 0.783955
vt 0.972184 0.633050
vt 0.980539 0.085551
vt 0.972184 0.633050
vt 0.980539 0.186768
vt 0.621171 0.085551
vt 0.620859 0.085551
vt 0.614967 0.542507
vt 0.621171 0.186768
vt 0.614967 0.542507
vt 0.620859 0.186768
vt 0.620859 0.085551
vt 0.621171 0.085551
vt 0.614967 0.723593
vt 0.620859 0.186768
vt 0.614967 0.723593
vt 0.621171 0.186768
vt 0.503819 0.085551
vt 0.498328 0.482146
vt 0.498328 0.482146
vt 0.503819 0.186768
vt 0.503819 0.085551
vt 0.498328 0.783955
vt 0.498328 0.783955
vt 0.503819 0.186768
vt 0.446338 0.085551
vt 0.439998 0.353038
vt 0.445133 0.085551
vt 0.446338 0.186768
vt 0.439998 0.353038
vt 0.445133 0.186768
vt 0.445133 0.085551
vt 0.446338 0.085551
vt 0.439998 0.913062
vt 0.445133 0.186768
vt 0.446338 0.186768
vt 0.439998 0.913062
vt 0.272752 0.085551
vt 0.268663 0.346332
vt 0.272752 0.186768
vt 0.268663 0.346332
vt 0.272752 0.085551
vt 0.268663 0.919769
vt 0.272752 0.186768
vt 0.268663 0.919769
vt 0.553938 0.085551
vt 0.553701 0.085551
vt 0.548142 0.730300
vt 0.548142 0.730300
vt 0.553938 0.186768
vt 0.553701 0.186768
vt 0.553938 0.186768
vt 0.548142 0.535800
vt 0.553701 0.186768
vt 0.553938 0.085551
vt 0.553701 0.085551
vt 0.548142 0.535800
vt 0.686647 0.186768
vt 0.687019 0.186768
vt 0.680566 0.762158
vt 0.687019 0.186768
vt 0.686647 0.186768
vt 0.680566 0.503943
vt 0.687019 0.085551
vt 0.686647 0.085551
vt 0.680566 0.503943
vt 0.686647 0.085551
vt 0.687019 0.085551
vt 0.680566 0.762158
vt 0.921155 0.705350
vt 0.930261 0.085551
vt 0.930626 0.085551
vt 0.930261 0.186768
vt 0.930626 0.186768
vt 0.921155 0.705350
vt 0.921155 0.560750
vt 0.930626 0.085551
vt 0.930261 0.085551
vt 0.921155 0.560750
vt 0.930626 0.186768
vt 0.930261 0.186768
vt 0.418128 0.346332
vt 0.423129 0.085551
vt 0.423129 0.085551
vt 0.418128 0.919769
vt 0.423129 0.186768
vt 0.418128 0.919769
vt 0.423129 0.186768
vt 0.418128 0.346332
vt 0.125636 0.105794
vt 0.115344 0.105794
vt 0.120711 0.380246
vt 0.027836 0.449040
vt 0.091850 0.119290
vt 0.097360 0.442677
vt 0.036564 0.449040
vt 0.096901 0.442677
vt 0.091850 0.143522
vt 0.122785 0.380246
vt 0.125636 0.163765
vt 0.115344 0.163765
vt 0.091850 0.119290
vt 0.027836 0.829873
vt 0.097360 0.823424
vt 0.115344 0.105794
vt 0.125636 0.105794
vt 0.120711 0.885854
vt 0.115344 0.163765
vt 0.122785 0.885854
vt 0.125636 0.163765
vt 0.091850 0.143522
vt 0.036564 0.829873
vt 0.096901 0.823424
vt 0.871830 0.085551
vt 0.872709 0.085551
vt 0.864050 0.754237
vt 0.871830 0.186768
vt 0.864050 0.511863
vt 0.872709 0.186768
vt 0.871830 0.186768
vt 0.872709 0.186768
vt 0.864050 0.754237
vt 0.871830 0.085551
vt 0.864050 0.511863
vt 0.872709 0.085551
s 0
usemtl paint_brush_mr_1
f 31/77/1 5/9/1 33/83/1
f 6/11/2 32/82/2 34/86/2
f 50/131/1 47/123/1 31/77/1 33/83/1
f 43/109/3 46/118/3 45/115/3 44/112/3
f 47/121/4 3/5/4 4/7/4 49/127/4
f 9/21/1 30/76/1 29/73/1 7/15/1
f 10/22/5 27/65/5 30/74/5 9/19/5
f 8/17/2 28/70/2 27/67/2 10/23/2
f 26/62/6 7/13/6 8/16/6 25/59/6
f 37/93/7 18/42/7 17/39/7 36/91/7
f 31/78/8 47/122/8 49/128/8 32/80/8
f 17/41/1 13/30/1 11/26/1 15/34/1
f 14/31/2 12/27/2 25/60/2 24/56/2
f 29/71/9 1/1/9 2/3/9 28/68/9
f 18/44/2 16/37/2 12/27/2 14/31/2
f 5/10/10 31/79/10 32/81/10 6/12/10
f 22/51/11 37/93/11 36/91/11 21/49/11
f 27/66/12 4/7/12 3/5/12 30/75/12
f 43/110/13 40/100/13 41/103/13 46/119/13
f 1/1/14 50/130/14 48/124/14 2/3/14
f 42/106/15 20/48/15 22/52/15 45/116/15
f 44/114/16 21/50/16 19/46/16 39/99/16
f 41/104/17 42/106/17 45/116/17 46/120/17
f 39/97/18 19/45/18 20/47/18 42/107/18
f 18/43/19 14/32/19 13/29/19 17/40/19
f 25/60/2 8/17/2 10/23/2 24/56/2
f 44/113/20 45/117/20 22/51/20 21/49/20
f 24/57/21 10/24/21 9/20/21 23/53/21
f 7/14/22 29/72/22 28/69/22 8/18/22
f 15/33/23 11/25/23 12/28/23 16/36/23
f 19/45/24 35/90/24 38/95/24 20/47/24
f 28/70/2 2/4/2 4/8/2 27/67/2
f 38/96/2 16/37/2 18/44/2 37/94/2
f 48/125/2 34/86/2 32/82/2 49/129/2
f 21/50/1 36/92/1 35/89/1 19/46/1
f 33/84/25 5/10/25 6/12/25 34/87/25
f 36/92/1 17/41/1 15/34/1 35/89/1
f 11/25/26 26/63/26 25/61/26 12/28/26
f 35/90/27 15/35/27 16/38/27 38/95/27
f 50/131/1 1/2/1 3/6/1 47/123/1
f 23/55/1 9/21/1 7/15/1 26/64/1
f 40/101/28 39/98/28 42/108/28 41/105/28
f 30/76/1 3/6/1 1/2/1 29/73/1
f 43/111/29 44/114/29 39/99/29 40/102/29
f 14/32/30 24/58/30 23/54/30 13/29/30
f 48/125/2 49/129/2 4/8/2 2/4/2
f 13/30/1 23/55/1 26/64/1 11/26/1
f 20/48/2 38/96/2 37/94/2 22/52/2
f 50/132/31 33/85/31 34/88/31 48/126/31
