# Blender 3.4.0
# www.blender.org
mtllib pick_axe_mx_1.mtl
o pick_axe_mx_1
v -0.015756 -0.017783 -0.595467
v -0.027006 -0.006533 -0.595466
v -0.023711 -0.014488 -0.595466
v -0.027006 0.006967 -0.595464
v -0.015756 0.018217 -0.595463
v -0.023711 0.014922 -0.595463
v 0.026994 -0.006533 -0.595466
v 0.015744 -0.017783 -0.595467
v 0.023699 -0.014488 -0.595466
v 0.015744 0.018217 -0.595463
v 0.026994 0.006967 -0.595464
v 0.023699 0.014922 -0.595463
v -0.027697 -0.001740 -0.577150
v -0.027697 0.001860 -0.577190
v -0.027697 -0.002397 -0.597874
v -0.027697 0.002668 -0.597918
v 0.027697 -0.001740 -0.577150
v 0.027697 0.001860 -0.577190
v 0.027697 -0.002397 -0.597874
v 0.027697 0.002668 -0.597918
v -0.022060 -0.024942 -0.502741
v -0.032054 -0.020329 -0.502741
v -0.022060 0.025458 -0.502737
v -0.032063 0.020842 -0.502738
v -0.024510 -0.027663 -0.582741
v -0.024510 0.028337 -0.582737
v 0.022040 -0.024942 -0.502741
v 0.032034 -0.020329 -0.502741
v 0.032042 0.020842 -0.502738
v 0.022040 0.025458 -0.502737
v 0.024490 -0.027663 -0.582741
v 0.024490 0.028337 -0.582737
v -0.036884 -0.022577 -0.582741
v 0.036864 -0.022577 -0.582741
v 0.219428 -0.008537 -0.537263
v 0.219428 0.009172 -0.533574
v 0.219428 0.009212 -0.537260
v 0.219428 -0.008577 -0.533578
v -0.219448 -0.008577 -0.533578
v -0.219448 -0.008537 -0.537263
v -0.219448 0.009212 -0.537260
v -0.219448 0.009172 -0.533574
v 0.119429 0.013172 -0.553404
v 0.119429 0.013212 -0.571563
v 0.119429 -0.012537 -0.571566
v 0.119429 -0.012577 -0.553407
v 0.079425 0.016672 -0.554554
v 0.079425 -0.016077 -0.554556
v 0.079425 0.016712 -0.578532
v 0.079425 -0.016037 -0.578535
v -0.119446 -0.012537 -0.571566
v -0.119446 0.013172 -0.553404
v -0.119446 0.013212 -0.571563
v -0.119446 -0.012577 -0.553407
v -0.079449 -0.016037 -0.578534
v -0.079449 0.016672 -0.554554
v -0.079449 0.016712 -0.578532
v -0.079449 -0.016077 -0.554556
v -0.059449 0.018922 -0.550403
v -0.059449 0.018962 -0.581325
v -0.059449 -0.018287 -0.581327
v -0.059449 -0.018327 -0.550405
v 0.059427 0.018922 -0.550403
v 0.059427 -0.018327 -0.550405
v 0.059427 0.018962 -0.581325
v 0.059427 -0.018287 -0.581327
v -0.039010 -0.018327 -0.530100
v -0.047117 -0.018327 -0.543354
v -0.039010 0.018922 -0.530098
v -0.036903 0.023126 -0.582737
v -0.047117 0.018922 -0.543352
v 0.038990 -0.018327 -0.530100
v 0.047097 -0.018327 -0.543354
v 0.038990 0.018922 -0.530098
v 0.036884 0.023126 -0.582737
v 0.047097 0.018922 -0.543352
v 0.159428 0.011712 -0.560728
v 0.159428 0.011672 -0.548979
v 0.159428 -0.011037 -0.560731
v 0.159428 -0.011077 -0.548983
v 0.179428 0.010922 -0.545735
v 0.179428 -0.010287 -0.553960
v 0.179428 0.010962 -0.553957
v 0.179428 -0.010327 -0.545738
v -0.159447 0.011712 -0.560728
v -0.159447 -0.011037 -0.560731
v -0.159447 -0.011077 -0.548983
v -0.159447 0.011672 -0.548979
v -0.179447 0.010962 -0.553957
v -0.179447 -0.010287 -0.553960
v -0.179447 -0.010327 -0.545738
v -0.179447 0.010922 -0.545735
v -0.015417 -0.017828 0.098283
v -0.023201 0.014877 0.098287
v -0.026425 0.006922 0.098286
v 0.023190 -0.014533 0.098284
v 0.026414 -0.006578 0.098284
v 0.015406 0.018172 0.098287
v -0.023201 -0.014533 0.098284
v -0.026425 -0.006578 0.098284
v -0.015417 0.018172 0.098287
v 0.015406 -0.017828 0.098283
v 0.023190 0.014877 0.098287
v 0.026414 0.006922 0.098286
v -0.022080 -0.014510 -0.448591
v -0.025148 -0.006555 -0.448591
v -0.014672 0.018195 -0.448588
v 0.014661 -0.017805 -0.448592
v 0.022068 0.014900 -0.448588
v 0.025137 0.006945 -0.448589
v -0.014672 -0.017805 -0.448592
v -0.022080 0.014900 -0.448588
v -0.025148 0.006945 -0.448589
v 0.022068 -0.014510 -0.448591
v 0.025137 -0.006555 -0.448591
v 0.014661 0.018195 -0.448588
v -0.023711 -0.014499 -0.522029
v -0.027006 -0.006544 -0.522028
v -0.015756 0.018206 -0.522025
v 0.015744 -0.017794 -0.522029
v 0.023699 0.014911 -0.522026
v 0.026994 0.006956 -0.522027
v -0.015756 -0.017794 -0.522029
v -0.023711 0.014911 -0.522026
v -0.027006 0.006956 -0.522027
v 0.023699 -0.014499 -0.522029
v 0.026994 -0.006544 -0.522028
v 0.015744 0.018206 -0.522025
v -0.028431 -0.009822 0.239559
v -0.031480 -0.006584 0.235008
v -0.018251 -0.017834 0.237339
v -0.019030 -0.013168 0.241216
v -0.027605 -0.014539 0.235690
v -0.019031 0.013501 0.241219
v -0.018252 0.018166 0.237343
v -0.031480 0.006916 0.235010
v -0.027606 0.014871 0.235693
v -0.028432 0.010154 0.239561
v 0.018195 -0.013168 0.247780
v 0.018789 -0.017834 0.243870
v 0.032017 -0.006584 0.246205
v 0.028143 -0.014539 0.245520
v 0.027596 -0.009822 0.249438
v 0.027596 0.010154 0.249440
v 0.032017 0.006916 0.246206
v 0.018788 0.018166 0.243874
v 0.018195 0.013501 0.247783
v 0.028143 0.014871 0.245523
vn -0.9765 0.2128 -0.0349
vn -0.9799 0.1985 -0.0186
vn -0.9799 -0.1985 -0.0186
vn -0.9765 -0.2128 -0.0349
vn -0.9820 0.1884 0.0110
vn -0.9820 -0.1884 0.0109
vn 0.1919 -0.9814 -0.0028
vn 0.2054 -0.9787 -0.0059
vn -0.1647 -0.9863 -0.0044
vn -0.1916 -0.9815 -0.0026
vn -0.5928 0.2841 0.7536
vn -0.5927 -0.2843 0.7535
vn -0.2295 -0.3743 0.8985
vn -0.2295 0.3741 0.8985
vn -0.6686 0.7433 -0.0213
vn -0.7013 0.7128 -0.0117
vn 0.9800 0.1979 -0.0191
vn 0.9789 0.2012 -0.0361
vn 0.9789 -0.2012 -0.0361
vn 0.9800 -0.1979 -0.0191
vn -0.1916 0.9815 -0.0025
vn -0.1648 0.9863 -0.0043
vn 0.7167 0.6970 -0.0243
vn 0.7019 0.7121 -0.0123
vn 1.0000 -0.0000 -0.0000
vn -0.0917 0.3741 0.9229
vn -0.0917 -0.3743 0.9228
vn 0.2054 0.9787 -0.0058
vn 0.1919 0.9814 -0.0027
vn -0.0000 0.0001 -1.0000
vn -1.0000 -0.0000 -0.0000
vn -0.0000 -0.9995 0.0317
vn -0.0000 -0.0087 -1.0000
vn 0.7019 -0.7121 -0.0123
vn 0.7167 -0.6969 -0.0244
vn -0.0000 0.9992 0.0389
vn -0.0000 -0.0001 1.0000
vn -0.0392 0.9992 0.0055
vn -0.0383 0.9993 0.0050
vn -0.0413 0.9991 0.0066
vn 0.2059 -0.9777 0.0412
vn 0.2001 -0.9789 0.0410
vn -0.2001 -0.9789 0.0410
vn -0.2059 -0.9777 0.0412
vn -0.2080 0.9772 0.0429
vn -0.2022 0.9784 0.0427
vn 0.2022 0.9784 0.0427
vn 0.2080 0.9772 0.0429
vn -0.2757 -0.9601 0.0469
vn -0.4051 -0.9131 0.0473
vn 0.0259 0.0001 -0.9997
vn -0.0259 0.0001 -0.9997
vn 0.0383 0.9993 0.0050
vn 0.0392 0.9992 0.0055
vn 0.0413 0.9991 0.0066
vn 0.3524 0.0002 -0.9359
vn 0.3852 0.0002 -0.9228
vn 0.0428 -0.9991 -0.0055
vn 0.0414 -0.9991 -0.0050
vn 0.0461 -0.9989 -0.0066
vn -0.1345 -0.0001 0.9909
vn -0.0678 -0.0001 0.9977
vn 0.2244 -0.0002 0.9745
vn 0.2909 -0.0002 0.9568
vn -0.0414 -0.9991 -0.0050
vn -0.0428 -0.9991 -0.0055
vn -0.0461 -0.9989 -0.0066
vn -0.2905 0.0001 -0.9569
vn -0.2151 0.0001 -0.9766
vn 0.1002 -0.9950 -0.0016
vn 0.1008 -0.9949 -0.0016
vn 0.0662 -0.9978 -0.0022
vn 0.0616 -0.9981 -0.0023
vn 0.0951 -0.0001 0.9955
vn 0.1007 0.9949 0.0016
vn 0.1001 0.9950 0.0016
vn 0.0609 0.9981 0.0023
vn 0.0656 0.9978 0.0022
vn 0.1539 0.0001 -0.9881
vn 0.2150 0.0001 -0.9766
vn 0.0970 0.0001 -0.9953
vn 0.1189 0.9926 0.0229
vn 0.1199 0.9925 0.0257
vn 0.3596 -0.0001 0.9331
vn 0.1218 -0.9923 0.0240
vn 0.1206 -0.9925 0.0210
vn -0.0951 -0.0001 0.9955
vn 0.0678 -0.0001 0.9977
vn -0.1008 -0.9949 -0.0016
vn -0.1002 -0.9950 -0.0016
vn -0.0616 -0.9981 -0.0023
vn -0.0662 -0.9978 -0.0022
vn -0.1540 0.0001 -0.9881
vn -0.1001 0.9950 0.0016
vn -0.1007 0.9949 0.0016
vn -0.0656 0.9978 0.0022
vn -0.0609 0.9981 0.0023
vn -0.1199 0.9925 0.0257
vn -0.1189 0.9926 0.0229
vn -0.0970 0.0001 -0.9953
vn -0.1206 -0.9925 0.0210
vn -0.1218 -0.9923 0.0240
vn -0.3595 -0.0001 0.9331
vn -0.1227 0.9905 0.0625
vn -0.2760 0.9600 0.0479
vn 0.9227 -0.0001 0.3855
vn 0.9692 -0.0001 0.2463
vn 0.9228 -0.0001 0.3853
vn -0.1246 -0.9902 0.0626
vn 0.4075 0.9119 0.0484
vn 0.3996 0.9149 0.0571
vn 0.2760 0.9600 0.0479
vn 0.2757 -0.9601 0.0469
vn 0.4069 -0.9117 0.0572
vn 0.4051 -0.9131 0.0473
vn 0.1246 -0.9902 0.0626
vn -0.4069 -0.9117 0.0572
vn 0.6966 -0.0000 0.7175
vn -0.6966 -0.0000 0.7175
vn -0.9228 -0.0001 0.3853
vn -0.9227 -0.0001 0.3854
vn -0.9692 -0.0001 0.2462
vn 0.1227 0.9905 0.0625
vn -0.4075 0.9119 0.0484
vn -0.3996 0.9149 0.0571
vn -0.2244 -0.0002 0.9745
vn 0.0382 -0.9993 -0.0032
vn 0.0382 -0.9993 -0.0033
vn 0.2905 0.0001 -0.9569
vn 0.0367 0.9993 0.0033
vn 0.0368 0.9993 0.0032
vn -0.2909 -0.0002 0.9568
vn -0.3524 0.0002 -0.9359
vn -0.0382 -0.9993 -0.0033
vn -0.0382 -0.9993 -0.0032
vn 0.1345 -0.0001 0.9909
vn -0.0368 0.9993 0.0032
vn -0.0367 0.9993 0.0033
vn -0.3852 0.0002 -0.9228
vn -0.7157 -0.6983 0.0071
vn -0.7013 -0.7128 -0.0118
vn -0.7157 0.6983 0.0072
vn 0.9820 0.1884 0.0110
vn 0.7157 0.6983 0.0072
vn -0.2012 0.9795 0.0018
vn 0.2993 -0.2843 0.9108
vn 0.2993 0.2841 0.9109
vn -0.6686 -0.7433 -0.0214
vn -0.2012 -0.9795 0.0016
vn 0.2012 0.9795 0.0018
vn 0.9820 -0.1884 0.0109
vn 0.2012 -0.9795 0.0016
vn 0.7157 -0.6983 0.0071
vn -0.1991 0.9800 0.0020
vn 0.1991 0.9800 0.0020
vn 0.7128 -0.7014 0.0079
vn 0.9814 -0.1918 0.0120
vn 0.1991 -0.9800 0.0017
vn -0.1991 -0.9800 0.0017
vn 0.9814 0.1918 0.0121
vn 0.7128 0.7014 0.0081
vn -0.7128 -0.7014 0.0079
vn -0.7128 0.7014 0.0081
vn -0.9814 0.1918 0.0121
vn -0.9814 -0.1918 0.0120
vn -0.9808 0.1951 -0.0000
vn -0.9808 -0.1951 -0.0000
vn -0.7071 -0.7071 -0.0001
vn -0.7071 0.7071 0.0001
vn 0.9808 0.1951 -0.0000
vn 0.7071 0.7071 0.0001
vn -0.1951 0.9808 0.0001
vn -0.1951 -0.9808 -0.0001
vn 0.1951 0.9808 0.0001
vn 0.9808 -0.1951 -0.0000
vn 0.1951 -0.9808 -0.0001
vn 0.7071 -0.7071 -0.0001
vn -0.5314 -0.5919 0.6060
vn -0.2302 -0.6438 0.7297
vn -0.8599 -0.1085 0.4989
vn -0.2302 0.6437 0.7298
vn -0.5314 0.5918 0.6061
vn -0.8599 0.1083 0.4989
vn -0.0333 -0.6438 0.7644
vn 0.2921 -0.5919 0.7512
vn 0.6374 -0.1085 0.7629
vn 0.2921 0.5918 0.7513
vn -0.0333 0.6437 0.7645
vn 0.6374 0.1083 0.7629
vt 0.209697 0.090390
vt 1.229812 0.925035
vt 0.223069 0.077019
vt 1.229849 0.904736
vt 0.213614 0.080935
vt 1.229834 0.914883
vt 0.239114 0.077019
vt 1.229849 0.888810
vt 0.252485 0.090390
vt 1.229820 0.868536
vt 0.248569 0.080935
vt 1.229838 0.878665
vt 0.223069 0.141201
vt 1.229334 0.795116
vt 0.209697 0.127829
vt 1.229108 0.774804
vt 1.229675 0.962186
vt 0.213614 0.137284
vt 1.229224 0.784963
vt 0.252485 0.127829
vt 1.229658 0.831337
vt 0.239114 0.141201
vt 1.229489 0.811048
vt 0.248569 0.137284
vt 1.229577 0.821200
vt 0.497694 0.640569
vt 0.465379 0.640569
vt 0.502194 0.640519
vt 0.465379 0.640519
vt 0.496872 0.614665
vt 0.465379 0.614665
vt 0.465379 0.621872
vt 0.503203 0.614610
vt 0.465379 0.628203
vt 0.465379 0.614610
vt 0.497694 0.640569
vt 0.534621 0.640569
vt 0.502194 0.640519
vt 0.534621 0.640519
vt 0.496872 0.614665
vt 0.534621 0.614665
vt 0.534621 0.621872
vt 0.503203 0.614610
vt 0.534621 0.628203
vt 0.534621 0.614610
vt 0.499060 0.381034
vt 0.251762 0.339334
vt 0.492941 0.367779
vt 0.541426 0.367765
vt 0.251513 0.324737
vt 0.432211 0.381034
vt 0.251252 0.339335
vt 0.438333 0.367765
vt 0.486819 0.367765
vt 0.251513 0.324724
vt 0.357934 0.336085
vt 0.357934 0.342504
vt 0.432211 0.342504
vt 0.145074 0.336085
vt 0.499060 0.439527
vt 0.251762 0.397828
vt 0.492941 0.452783
vt 0.432211 0.367765
vt 0.251513 0.412425
vt 0.438333 0.452793
vt 0.486819 0.367765
vt 0.251513 0.412436
vt 0.432211 0.439527
vt 0.251252 0.397828
vt 0.357934 0.407496
vt 0.357934 0.401077
vt 0.432211 0.407496
vt 0.145074 0.401077
vt 0.364680 0.326091
vt 0.357665 0.318341
vt 0.364680 0.423909
vt 0.357665 0.418820
vt 0.499060 0.414899
vt 0.383307 0.674999
vt 0.298041 0.662150
vt 0.210027 0.662161
vt 0.503948 0.391409
vt 0.471350 0.075000
vt 0.205139 0.662148
vt 0.499060 0.391358
vt 0.406848 0.675000
vt 0.503948 0.414951
vt 0.293153 0.662161
vt 0.447809 0.075000
vt 0.503948 0.367765
vt 0.525825 0.075000
vt 0.293153 0.075000
vt 0.499060 0.367817
vt 0.298041 0.075011
vt 0.383307 0.075001
vt 0.499060 0.391358
vt 0.205139 0.075013
vt 0.406848 0.075000
vt 0.503948 0.391307
vt 0.210027 0.075000
vt 0.502284 0.075001
vt 0.476647 0.210705
vt 0.184031 0.529359
vt 0.412149 0.534536
vt 0.159945 0.529301
vt 0.343168 0.529280
vt 0.377997 0.534535
vt 0.442495 0.210704
vt 0.319082 0.529345
vt 0.182624 0.476093
vt 0.481287 0.263787
vt 0.437850 0.263785
vt 0.320453 0.476079
vt 0.416791 0.480677
vt 0.150819 0.476018
vt 0.373354 0.480677
vt 0.352257 0.475991
vt 0.377997 0.215468
vt 0.343168 0.207885
vt 0.496988 0.210709
vt 0.184031 0.207806
vt 0.412149 0.215468
vt 0.159945 0.207864
vt 0.319082 0.207820
vt 0.531141 0.210707
vt 0.373354 0.269318
vt 0.352256 0.261165
vt 0.182624 0.261063
vt 0.492349 0.263782
vt 0.150819 0.261138
vt 0.416791 0.269318
vt 0.320453 0.261077
vt 0.535786 0.263780
vt 0.188188 0.287747
vt 0.489366 0.290876
vt 0.419775 0.296104
vt 0.147173 0.287841
vt 0.370370 0.296104
vt 0.355883 0.287871
vt 0.314869 0.287757
vt 0.538771 0.290873
vt 0.484271 0.290877
vt 0.188188 0.449413
vt 0.314868 0.449403
vt 0.434865 0.290875
vt 0.419775 0.453895
vt 0.147173 0.449318
vt 0.370369 0.453895
vt 0.355883 0.449289
vt 0.538771 0.330322
vt 0.287659 0.314614
vt 0.305324 0.304002
vt 0.538772 0.309714
vt 0.489366 0.330323
vt 0.215366 0.314633
vt 0.425299 0.326066
vt 0.145363 0.318254
vt 0.489366 0.309716
vt 0.197713 0.304002
vt 0.287659 0.422548
vt 0.434865 0.330322
vt 0.305324 0.433160
vt 0.434865 0.309715
vt 0.484271 0.330323
vt 0.215366 0.422529
vt 0.425299 0.423935
vt 0.145363 0.418907
vt 0.484271 0.309716
vt 0.197713 0.433159
vt 0.410161 0.589502
vt 0.174193 0.582426
vt 0.474660 0.157327
vt 0.189777 0.582464
vt 0.328945 0.582412
vt 0.379988 0.589502
vt 0.444487 0.157326
vt 0.313362 0.582453
vt 0.473667 0.130453
vt 0.194019 0.609019
vt 0.320038 0.608982
vt 0.380983 0.617508
vt 0.409167 0.617508
vt 0.183113 0.608992
vt 0.445483 0.130452
vt 0.309132 0.609011
vt 0.410161 0.160500
vt 0.174194 0.154738
vt 0.379988 0.160500
vt 0.328945 0.154752
vt 0.313362 0.154710
vt 0.529148 0.157328
vt 0.498975 0.157329
vt 0.189777 0.154700
vt 0.409167 0.132493
vt 0.183113 0.128170
vt 0.380983 0.132493
vt 0.320038 0.128180
vt 0.309132 0.128152
vt 0.528151 0.130453
vt 0.499968 0.130454
vt 0.194019 0.128143
vt 0.404723 0.928332
vt 0.403696 0.881703
vt 0.403803 0.891945
vt 0.404300 0.787984
vt 0.404051 0.798192
vt 0.403707 0.834607
vt 0.404360 0.918286
vt 0.404095 0.908064
vt 0.403694 0.871620
vt 0.404646 0.777956
vt 0.406087 0.964948
vt 0.403693 0.824527
vt 0.403783 0.814292
vt 1.056787 0.914529
vt 1.056816 0.904381
vt 1.056709 0.868445
vt 1.056405 0.958995
vt 1.056011 0.777666
vt 1.056544 0.823649
vt 1.056471 0.813501
vt 1.056713 0.924172
vt 1.056782 0.878110
vt 1.056811 0.888270
vt 1.056183 0.787288
vt 1.056313 0.797418
vt 1.056566 0.833305
vt 1.143577 0.914713
vt 1.143645 0.904618
vt 1.143618 0.868661
vt 1.142601 0.775809
vt 1.143061 0.961866
vt 1.143340 0.821928
vt 1.143246 0.811837
vt 1.143457 0.924821
vt 1.143684 0.878755
vt 1.143698 0.888841
vt 1.142839 0.785932
vt 1.143021 0.796039
vt 1.143380 0.832024
vt 0.272911 0.493744
vt 0.241789 0.912805
vt 0.275476 0.500299
vt 0.241795 0.913065
vt 0.240254 0.935658
vt 0.261364 0.483877
vt 0.268605 0.483390
vt 0.241470 0.923864
vt 0.266070 0.495428
vt 0.241462 0.923537
vt 0.299240 0.483599
vt 0.238454 0.874136
vt 0.306819 0.484145
vt 0.241326 0.896900
vt 0.241317 0.896641
vt 0.291774 0.501325
vt 0.240378 0.886201
vt 0.240366 0.885875
vt 0.301901 0.496337
vt 0.294731 0.494453
vt 0.268795 0.439299
vt 0.235296 0.979685
vt 0.232722 0.770087
vt 0.261450 0.438790
vt 0.228630 0.792418
vt 0.228653 0.792213
vt 0.275686 0.422334
vt 0.229998 0.781622
vt 0.229975 0.781821
vt 0.266248 0.427184
vt 0.273111 0.428888
vt 0.294884 0.428174
vt 0.228115 0.808327
vt 0.228093 0.808531
vt 0.291948 0.421325
vt 0.230706 0.830896
vt 0.306819 0.438420
vt 0.299359 0.438938
vt 0.228742 0.818998
vt 0.228731 0.819196
vt 0.302007 0.426318
s 1
usemtl wood_mx_3
f 136/254/1 95/204/2 100/209/3 130/242/4
f 113/224/5 106/216/6 100/209/3 95/204/2
f 102/212/7 140/262/8 131/245/9 93/202/10
f 138/260/11 129/241/12 132/247/13 134/251/14
f 137/257/15 94/203/16 95/204/2 136/255/1
f 104/214/17 145/273/18 141/265/19 97/206/20
f 101/210/21 94/203/16 137/258/15 135/252/22
f 148/279/23 145/274/18 104/214/17 103/213/24
f 147/278/26 134/251/14 132/247/13 139/261/27
f 101/210/21 135/252/22 146/276/28 98/207/29
f 9/18/30 8/15/30 10/20/30 12/24/30
f 5/9/30 10/20/30 8/15/30 1/1/30
f 7/13/30 9/18/30 12/24/30 11/22/30
f 3/5/30 2/3/30 4/7/30 6/11/30
f 1/1/30 3/5/30 6/11/30 5/9/30
f 102/211/7 96/205/34 142/268/35 140/263/8
f 96/205/34 97/206/20 141/266/19 142/269/35
f 106/216/6 105/215/140 99/208/141 100/209/3
f 112/223/142 113/224/5 95/204/2 94/203/16
f 110/221/143 109/220/144 103/213/24 104/214/17
f 107/217/145 112/223/142 94/203/16 101/210/21
f 98/207/29 146/276/28 148/280/23 103/213/24
f 139/261/27 143/271/146 144/272/147 147/278/26
f 93/202/10 131/245/9 133/248/148 99/208/141
f 111/222/149 93/202/10 99/208/141 105/215/140
f 116/227/150 98/207/29 103/213/24 109/220/144
f 110/221/143 104/214/17 97/206/20 115/226/151
f 108/219/152 114/225/153 96/205/34 102/211/7
f 108/218/152 102/212/7 93/202/10 111/222/149
f 114/225/153 115/226/151 97/206/20 96/205/34
f 107/217/145 101/210/21 98/207/29 116/227/150
f 119/230/154 107/217/145 116/227/150 128/240/155
f 126/238/156 127/239/157 115/226/151 114/225/153
f 120/232/158 108/218/152 111/222/149 123/235/159
f 120/231/158 126/238/156 114/225/153 108/219/152
f 122/234/160 110/221/143 115/226/151 127/239/157
f 128/240/155 116/227/150 109/220/144 121/233/161
f 123/235/159 111/222/149 105/215/140 117/228/162
f 119/230/154 124/236/163 112/223/142 107/217/145
f 122/234/160 121/233/161 109/220/144 110/221/143
f 124/236/163 125/237/164 113/224/5 112/223/142
f 118/229/165 117/228/162 105/215/140 106/216/6
f 125/237/164 118/229/165 106/216/6 113/224/5
f 4/8/166 2/4/167 118/229/165 125/237/164
f 2/4/167 3/6/168 117/228/162 118/229/165
f 6/12/169 4/8/166 125/237/164 124/236/163
f 11/23/170 12/25/171 121/233/161 122/234/160
f 5/10/172 6/12/169 124/236/163 119/230/154
f 1/2/173 123/235/159 117/228/162 3/6/168
f 10/21/174 128/240/155 121/233/161 12/25/171
f 11/23/170 122/234/160 127/239/157 7/14/175
f 8/16/176 9/19/177 126/238/156 120/231/158
f 8/17/176 120/232/158 123/235/159 1/2/173
f 9/19/177 7/14/175 127/239/157 126/238/156
f 5/10/172 119/230/154 128/240/155 10/21/174
f 132/247/13 129/241/12 133/249/178 131/246/179
f 129/241/12 130/243/180 133/249/178
f 138/260/11 134/251/14 135/253/181 137/259/182
f 138/260/11 137/259/182 136/256/183
f 143/271/146 139/261/27 140/264/184 142/270/185
f 143/271/146 142/270/185 141/267/186
f 147/278/26 144/272/147 148/281/187 146/277/188
f 144/272/147 145/275/189 148/281/187
f 139/261/27 132/247/13 131/246/179 140/264/184
f 129/241/12 138/260/11 136/256/183 130/243/180
f 141/267/186 145/275/189 144/272/147 143/271/146
f 146/277/188 135/253/181 134/251/14 147/278/26
f 133/250/148 130/244/4 100/209/3 99/208/141
s 0
usemtl metal_hr_6_2
f 19/40/25 20/43/25 18/38/25 17/36/25
f 14/28/31 16/33/31 15/30/31 13/26/31
f 19/41/32 17/37/32 13/27/32 15/31/32
f 16/34/33 20/44/33 19/42/33 15/32/33
f 16/35/36 14/29/36 18/39/36 20/45/36
s 1
f 42/99/31 41/96/31 40/93/31 39/90/31
f 24/53/37 22/48/37 21/46/37 23/51/37
f 30/68/37 23/51/37 21/46/37 27/60/37
f 92/201/38 89/195/39 41/97/40 42/100/40
f 31/71/41 27/61/42 21/47/43 25/56/44
f 26/59/45 23/52/46 30/69/47 32/73/48
f 33/75/49 25/56/44 21/47/43 22/50/50
f 34/76/51 31/70/30 32/72/30 75/166/51
f 26/58/30 32/72/30 31/70/30 25/57/30
f 25/57/30 33/74/52 70/156/52 26/58/30
f 27/60/37 28/62/37 29/65/37 30/68/37
f 83/183/53 81/179/54 36/81/55 37/84/55
f 35/78/25 37/85/25 36/82/25 38/87/25
f 83/182/56 37/86/57 35/79/57 82/181/56
f 84/185/58 82/180/59 35/80/60 38/88/60
f 78/172/61 43/102/62 46/108/62 80/176/61
f 91/199/63 92/200/63 42/101/64 39/91/64
f 90/197/65 91/198/66 39/92/67 40/94/67
f 86/188/68 85/186/68 53/122/69 51/118/69
f 48/113/70 50/117/71 45/106/72 46/109/73
f 47/111/74 48/112/74 46/108/62 43/102/62
f 49/115/75 47/110/76 43/103/77 44/105/78
f 50/116/79 49/114/79 44/104/80 45/107/80
f 66/148/81 65/146/81 49/114/79 50/116/79
f 65/147/82 63/143/83 47/110/76 49/115/75
f 63/142/84 64/145/84 48/112/74 47/111/74
f 64/144/85 66/149/86 50/117/71 48/113/70
f 58/133/87 56/129/87 52/120/88 54/125/88
f 55/127/89 58/132/90 54/124/91 51/119/92
f 57/131/93 55/126/93 51/118/69 53/122/69
f 56/128/94 57/130/95 53/123/96 52/121/97
f 59/134/98 60/137/99 57/130/95 56/128/94
f 60/136/100 61/138/100 55/126/93 57/131/93
f 61/139/101 62/140/102 58/132/90 55/127/89
f 62/141/103 59/135/103 56/129/87 58/133/87
f 33/74/52 61/138/100 60/136/100 70/156/52
f 59/134/98 71/159/104 70/157/105 60/137/99
f 74/164/106 29/66/107 28/63/107 72/161/108
f 66/148/81 34/76/51 75/166/51 65/146/81
f 68/152/109 62/140/102 61/139/101 33/75/49
f 29/67/110 74/165/111 75/167/112
f 34/77/113 72/160/114 28/64/115
f 64/144/85 73/162/116 34/77/113 66/149/86
f 30/69/47 29/67/110 75/167/112 32/73/48
f 67/151/117 68/152/109 33/75/49
f 73/162/116 72/160/114 34/77/113
f 74/164/106 72/161/108 73/163/118 76/168/118
f 76/168/118 73/163/118 64/145/84 63/142/84
f 59/135/103 62/141/103 68/153/119 71/158/119
f 71/158/119 68/153/119 67/150/120 69/154/121
f 24/54/122 69/154/121 67/150/120 22/49/122
f 74/165/111 76/169/123 75/167/112
f 24/55/124 23/52/46 26/59/45 70/157/105
f 71/159/104 69/155/125 70/157/105
f 81/178/126 78/172/61 80/176/61 84/184/126
f 46/109/73 45/106/72 79/174/127 80/177/128
f 44/104/80 77/170/129 79/175/129 45/107/80
f 44/105/78 43/103/77 78/173/130 77/171/131
f 36/83/132 81/178/126 84/184/126 38/89/132
f 80/177/128 79/174/127 82/180/59 84/185/58
f 77/170/129 83/182/56 82/181/56 79/175/129
f 77/171/131 78/173/130 81/179/54 83/183/53
f 90/196/133 89/194/133 85/186/68 86/188/68
f 51/119/92 54/124/91 87/190/134 86/189/135
f 54/125/88 52/120/88 88/192/136 87/191/136
f 52/121/97 53/123/96 85/187/137 88/193/138
f 40/95/139 41/98/139 89/194/133 90/196/133
f 86/189/135 87/190/134 91/198/66 90/197/65
f 87/191/136 88/192/136 92/200/63 91/199/63
f 88/193/138 85/187/137 89/195/39 92/201/38
f 70/157/105 69/155/125 24/55/124
f 33/75/49 22/50/50 67/151/117
f 76/169/123 63/143/83 65/147/82 75/167/112
f 31/71/41 34/77/113 28/64/115 27/61/42
