# Blender 3.4.0
# www.blender.org
mtllib rolling_pin_mx_1.mtl
o rolling_pin_mx_1
v -0.043301 0.025000 0.220000
v 0.000000 0.000000 0.220000
v 0.000000 0.100000 0.220000
v -0.025000 0.006699 0.220000
v -0.043301 0.075000 0.220000
v -0.049999 0.050000 0.220000
v 0.043301 0.075000 0.220000
v 0.043301 0.025000 0.220000
v 0.050000 0.050000 0.220000
v 0.025000 0.093301 0.220000
v 0.025000 0.006699 0.220000
v -0.025000 0.093301 0.220000
v -0.019604 0.038681 -0.345978
v -0.020406 0.038219 -0.310001
v -0.019604 0.038681 -0.274023
v 0.019603 0.038681 -0.274023
v 0.020405 0.038219 -0.310001
v 0.019603 0.038681 -0.345978
v -0.000000 0.027363 -0.274023
v -0.000000 0.026437 -0.310001
v -0.000000 0.027363 -0.345978
v 0.019603 0.061318 -0.345978
v 0.020405 0.061781 -0.310001
v 0.019603 0.061318 -0.274023
v -0.019604 0.061318 -0.274023
v -0.020406 0.061781 -0.310001
v -0.019604 0.061318 -0.345978
v -0.000000 0.072636 -0.274023
v -0.000000 0.073562 -0.310001
v -0.000000 0.072636 -0.345978
v -0.017734 0.039761 -0.374018
v -0.012838 0.042588 -0.378001
v -0.017734 0.060238 -0.374018
v -0.012838 0.057412 -0.378001
v 0.012837 0.057412 -0.378001
v 0.017733 0.060238 -0.374018
v 0.017733 0.039761 -0.374018
v 0.012837 0.042588 -0.378001
v -0.000000 0.035176 -0.378001
v -0.000000 0.029523 -0.374018
v -0.000000 0.064823 -0.378001
v -0.000000 0.070477 -0.374018
v -0.023846 0.035972 -0.235917
v -0.018148 0.039522 -0.249973
v 0.023845 0.064027 -0.235917
v 0.018147 0.060477 -0.249973
v -0.000226 0.077664 -0.235917
v -0.000000 0.070954 -0.249973
v 0.018147 0.039522 -0.249973
v 0.024071 0.036363 -0.235917
v -0.000000 0.029045 -0.249973
v 0.000225 0.022335 -0.235917
v -0.018148 0.060477 -0.249973
v -0.024071 0.063637 -0.235917
v -0.043301 0.025000 -0.220000
v -0.025000 0.006699 -0.220000
v 0.000000 0.000000 -0.220000
v -0.043301 0.075000 -0.220000
v -0.049999 0.050000 -0.220000
v 0.024999 0.006699 -0.220000
v 0.043301 0.075000 -0.220000
v 0.043301 0.025000 -0.220000
v 0.050000 0.050000 -0.220000
v -0.024999 0.093301 -0.220000
v 0.025000 0.093301 -0.220000
v 0.000000 0.100000 -0.220000
v -0.043301 0.025000 0.220000
v 0.000000 0.000000 0.220000
v 0.000000 0.100000 0.220000
v -0.019604 0.038681 0.345978
v -0.020406 0.038219 0.310001
v -0.019604 0.038681 0.274023
v 0.019603 0.038681 0.274023
v 0.020405 0.038219 0.310001
v 0.019603 0.038681 0.345978
v -0.000000 0.027363 0.274023
v -0.000000 0.026437 0.310001
v -0.000000 0.027363 0.345978
v 0.019603 0.061318 0.345978
v 0.020405 0.061781 0.310001
v 0.019603 0.061318 0.274023
v -0.019604 0.061318 0.274023
v -0.020406 0.061781 0.310001
v -0.019604 0.061318 0.345978
v -0.000000 0.072636 0.274023
v -0.000000 0.073562 0.310001
v -0.000000 0.072636 0.345978
v -0.017734 0.039761 0.374018
v -0.012838 0.042588 0.378001
v -0.017734 0.060238 0.374018
v -0.012838 0.057412 0.378001
v 0.012837 0.057412 0.378001
v 0.017733 0.060238 0.374018
v 0.017733 0.039761 0.374018
v 0.012837 0.042588 0.378001
v -0.000000 0.035176 0.378001
v -0.000000 0.029523 0.374018
v -0.000000 0.064823 0.378001
v -0.000000 0.070477 0.374018
v -0.023846 0.035972 0.235917
v -0.018148 0.039522 0.249973
v 0.023845 0.064027 0.235917
v 0.018147 0.060477 0.249973
v -0.000226 0.077664 0.235917
v -0.000000 0.070954 0.249973
v 0.018147 0.039522 0.249973
v 0.024071 0.036363 0.235917
v -0.000000 0.029045 0.249973
v 0.000225 0.022335 0.235917
v -0.018148 0.060477 0.249973
v -0.024071 0.063637 0.235917
v -0.025000 0.006699 0.220000
v -0.043301 0.075000 0.220000
v -0.049999 0.050000 0.220000
v 0.043301 0.075000 0.220000
v 0.043301 0.025000 0.220000
v 0.050000 0.050000 0.220000
v 0.025000 0.093301 0.220000
v 0.025000 0.006699 0.220000
v -0.025000 0.093301 0.220000
vn 0.2804 0.4870 -0.8271
vn 0.5029 0.2896 -0.8144
vn 0.5962 0.3509 -0.7221
vn -0.5000 0.8660 -0.0000
vn -0.0000 1.0000 -0.0000
vn -0.0007 -0.5803 -0.8144
vn -0.2804 -0.4870 -0.8271
vn 0.0058 -0.6918 -0.7221
vn -0.5962 -0.3509 -0.7221
vn -0.5029 -0.2896 -0.8144
vn -0.8660 0.5000 -0.0000
vn -1.0000 -0.0000 -0.0000
vn 0.5023 -0.2907 -0.8144
vn 0.2816 -0.4864 -0.8271
vn 0.6020 -0.3409 -0.7221
vn -0.5620 -0.0007 -0.8271
vn -0.5023 0.2907 -0.8144
vn -0.6020 0.3409 -0.7221
vn 0.5620 0.0007 -0.8271
vn -0.2816 0.4864 -0.8271
vn 0.0007 0.5803 -0.8144
vn -0.0058 0.6918 -0.7221
vn 1.0000 -0.0000 -0.0000
vn 0.8660 0.5000 -0.0000
vn 0.5000 -0.8660 -0.0000
vn -0.0000 -1.0000 -0.0000
vn 0.8651 0.4994 0.0474
vn 0.8478 0.4897 -0.2036
vn 0.8480 -0.4893 -0.2036
vn 0.8651 -0.4994 0.0474
vn 0.8660 -0.5000 -0.0000
vn 0.0002 -0.9791 -0.2036
vn -0.0000 -0.9989 0.0474
vn -0.5000 -0.8660 -0.0000
vn -0.8651 0.4994 0.0474
vn -0.8480 0.4893 -0.2036
vn -0.0002 0.9791 -0.2036
vn -0.0000 0.9989 0.0474
vn -0.7762 0.4481 -0.4435
vn -0.8649 0.4994 -0.0509
vn -0.0000 0.9987 -0.0509
vn -0.0000 0.8963 -0.4435
vn -0.0000 -0.9987 -0.0509
vn -0.8660 -0.5000 -0.0000
vn -0.8649 -0.4994 -0.0509
vn -0.8651 -0.4994 0.0474
vn -0.8478 -0.4897 -0.2036
vn 0.8649 -0.4994 -0.0509
vn 0.7762 0.4481 -0.4435
vn 0.8649 0.4994 -0.0509
vn 0.7762 -0.4481 -0.4435
vn -0.0000 -0.8963 -0.4435
vn -0.7762 -0.4481 -0.4435
vn -0.0000 0.3872 -0.9220
vn 0.3353 0.1936 -0.9220
vn 0.3353 -0.1936 -0.9220
vn -0.0000 -0.3872 -0.9220
vn -0.3353 -0.1936 -0.9220
vn -0.3353 0.1936 -0.9220
vn 0.5000 0.8660 -0.0000
vn -0.2804 -0.4870 0.8271
vn -0.0007 -0.5803 0.8144
vn 0.0058 -0.6918 0.7221
vn -0.5962 -0.3509 0.7221
vn -0.5029 -0.2896 0.8144
vn 0.2816 -0.4864 0.8271
vn 0.5023 -0.2907 0.8144
vn 0.6020 -0.3409 0.7221
vn -0.5023 0.2907 0.8144
vn -0.5620 -0.0007 0.8271
vn -0.6020 0.3409 0.7221
vn 0.5620 0.0007 0.8271
vn 0.5029 0.2896 0.8144
vn 0.5962 0.3509 0.7221
vn -0.0058 0.6918 0.7221
vn 0.0007 0.5803 0.8144
vn -0.2816 0.4864 0.8271
vn 0.2804 0.4870 0.8271
vn 0.8651 0.4994 -0.0474
vn 0.8651 -0.4994 -0.0474
vn 0.8480 -0.4893 0.2036
vn 0.8478 0.4897 0.2036
vn -0.0000 -0.9989 -0.0474
vn 0.0002 -0.9791 0.2036
vn -0.8651 0.4994 -0.0474
vn -0.0000 0.9989 -0.0474
vn -0.0002 0.9791 0.2036
vn -0.8480 0.4893 0.2036
vn -0.7762 0.4481 0.4435
vn -0.0000 0.8963 0.4435
vn -0.0000 0.9987 0.0509
vn -0.8649 0.4994 0.0509
vn -0.0000 -0.9987 0.0509
vn -0.8649 -0.4994 0.0509
vn -0.8651 -0.4994 -0.0474
vn -0.8478 -0.4897 0.2036
vn 0.8649 -0.4994 0.0509
vn 0.7762 0.4481 0.4435
vn 0.8649 0.4994 0.0509
vn 0.7762 -0.4481 0.4435
vn -0.0000 -0.8963 0.4435
vn -0.7762 -0.4481 0.4435
vn -0.0000 0.3872 0.9220
vn 0.3353 0.1936 0.9220
vn 0.3353 -0.1936 0.9220
vn -0.3353 0.1936 0.9220
vn -0.3353 -0.1936 0.9220
vn -0.0000 -0.3872 0.9220
vt 0.515997 0.207243
vt 0.663898 0.204854
vt 0.486417 0.207243
vt 0.575157 0.207243
vt 0.501207 0.207243
vt 0.545577 0.207243
vt 0.530787 0.207243
vt 0.604737 0.207243
vt 0.634318 0.207243
vt 0.619528 0.207243
vt 0.589947 0.207243
vt 0.649108 0.207243
vt 0.560367 0.207243
vt 0.747372 0.448765
vt 0.746166 0.428685
vt 0.745657 0.407601
vt 0.798994 0.408980
vt 0.797515 0.429098
vt 0.796020 0.448852
vt 0.811283 0.409961
vt 0.732340 0.408225
vt 0.732956 0.429196
vt 0.810204 0.429717
vt 0.734959 0.449674
vt 0.808300 0.449723
vt 0.783878 0.448307
vt 0.784814 0.428609
vt 0.786006 0.408001
vt 0.759112 0.407339
vt 0.759164 0.428378
vt 0.759618 0.448251
vt 0.772702 0.407446
vt 0.772046 0.428351
vt 0.771769 0.448089
vt 0.492635 0.482157
vt 0.748918 0.464446
vt 0.494823 0.486320
vt 0.505436 0.482272
vt 0.760307 0.463924
vt 0.502975 0.486275
vt 0.503422 0.500234
vt 0.783136 0.463924
vt 0.505627 0.504393
vt 0.794455 0.464444
vt 0.492778 0.504391
vt 0.495257 0.500384
vt 0.490979 0.493432
vt 0.737624 0.465432
vt 0.805724 0.465432
vt 0.486274 0.493303
vt 0.507335 0.493154
vt 0.771732 0.463785
vt 0.512038 0.493288
vt 0.658875 0.534141
vt 0.742655 0.382121
vt 0.744263 0.392018
vt 0.666911 0.562333
vt 0.789893 0.383381
vt 0.787813 0.392597
vt 0.676911 0.551944
vt 0.774752 0.381741
vt 0.773462 0.391360
vt 0.801319 0.394130
vt 0.652938 0.558549
vt 0.804262 0.385752
vt 0.813302 0.396760
vt 0.731246 0.393967
vt 0.817835 0.389785
vt 0.726398 0.385531
vt 0.648875 0.544530
vt 0.758826 0.390939
vt 0.672847 0.537925
vt 0.758881 0.381130
vt 0.654515 0.517582
vt 0.515997 0.463915
vt 0.640246 0.525748
vt 0.501207 0.463915
vt 0.663898 0.463915
vt 0.486417 0.463915
vt 0.632263 0.540106
vt 0.545577 0.463915
vt 0.685110 0.525776
vt 0.670939 0.517442
vt 0.530787 0.463915
vt 0.649108 0.463914
vt 0.632263 0.556565
vt 0.671270 0.578892
vt 0.604737 0.463915
vt 0.640676 0.570698
vt 0.634318 0.463915
vt 0.619528 0.463915
vt 0.654847 0.579033
vt 0.560368 0.463914
vt 0.693523 0.539909
vt 0.685540 0.570726
vt 0.589947 0.463914
vt 0.693523 0.556368
vt 0.575157 0.463915
vt 0.593255 0.578893
vt 0.571003 0.556368
vt 0.632263 0.540107
vt 0.796860 0.364463
vt 0.798067 0.344383
vt 0.798575 0.323299
vt 0.745238 0.324678
vt 0.746717 0.344796
vt 0.748212 0.364550
vt 0.732949 0.325659
vt 0.811892 0.323923
vt 0.811277 0.344894
vt 0.734028 0.345415
vt 0.809273 0.365372
vt 0.735932 0.365421
vt 0.760354 0.364005
vt 0.759419 0.344307
vt 0.758226 0.323699
vt 0.785120 0.323037
vt 0.785068 0.344076
vt 0.784614 0.363949
vt 0.771530 0.323144
vt 0.772186 0.344049
vt 0.772463 0.363787
vt 0.524939 0.515684
vt 0.795314 0.380144
vt 0.522751 0.511520
vt 0.512138 0.515569
vt 0.783925 0.379622
vt 0.514598 0.511565
vt 0.514151 0.497607
vt 0.761096 0.379622
vt 0.511946 0.493448
vt 0.749777 0.380142
vt 0.524796 0.493449
vt 0.522317 0.497457
vt 0.526595 0.504409
vt 0.806608 0.381130
vt 0.738508 0.381130
vt 0.531299 0.504538
vt 0.510238 0.504686
vt 0.772500 0.379483
vt 0.505535 0.504552
vt 0.597615 0.562333
vt 0.801577 0.297819
vt 0.799969 0.307716
vt 0.754339 0.299079
vt 0.605651 0.534142
vt 0.756419 0.308295
vt 0.615651 0.544531
vt 0.769480 0.297439
vt 0.770770 0.307058
vt 0.742913 0.309828
vt 0.591678 0.537926
vt 0.739970 0.301450
vt 0.730931 0.312457
vt 0.812987 0.309665
vt 0.726398 0.305482
vt 0.817835 0.301229
vt 0.587615 0.551945
vt 0.785407 0.306637
vt 0.611588 0.558550
vt 0.785351 0.296827
vt 0.578986 0.570727
vt 0.623850 0.570699
vt 0.609679 0.579033
vt 0.610011 0.517582
vt 0.579416 0.525776
vt 0.593587 0.517442
vt 0.624280 0.525749
vt 0.571003 0.539908
vt 0.632263 0.556567
s 1
usemtl wood_mx_2
f 65/95/1 61/87/2 45/57/3
f 12/13/4 3/4/5 66/98/5 64/93/4
f 57/80/6 56/76/7 52/70/8
f 52/70/8 56/76/7 43/54/9
f 56/76/7 55/74/10 43/54/9
f 58/81/11 59/84/12 6/7/12 5/6/11
f 62/89/13 60/86/14 50/64/15
f 59/83/16 58/82/17 54/72/18
f 50/64/15 60/86/14 52/70/8
f 61/87/2 63/92/19 45/57/3
f 64/94/20 66/97/21 47/60/22
f 66/97/21 65/95/1 47/60/22
f 47/60/22 65/95/1 45/57/3
f 63/91/23 61/88/24 7/8/24 9/10/23
f 11/12/25 2/2/26 57/78/26 60/85/25
f 54/72/18 64/94/20 47/60/22
f 24/28/27 46/59/28 49/63/29 16/17/30
f 43/54/9 59/83/16 54/72/18
f 60/85/25 62/90/31 8/9/31 11/12/25
f 63/92/19 62/89/13 50/64/15
f 64/93/4 58/81/11 5/6/11 12/13/4
f 16/17/30 49/63/29 51/66/32 19/20/33
f 2/3/26 4/5/34 56/77/34 57/79/26
f 25/29/35 53/71/36 48/62/37 28/32/38
f 33/39/39 27/31/40 30/34/41 42/52/42
f 29/33/5 28/32/38 24/28/27 23/27/24
f 21/24/43 20/22/26 14/15/44 13/14/45
f 62/90/31 63/91/23 9/10/23 8/9/31
f 20/22/26 19/21/33 15/16/46 14/15/44
f 15/16/46 44/56/47 53/71/36 25/29/35
f 18/19/48 17/18/31 20/23/26 21/25/43
f 36/42/49 42/52/42 30/34/41 22/26/50
f 17/18/31 16/17/30 19/20/33 20/23/26
f 59/83/16 43/54/9 55/74/10
f 27/31/40 26/30/11 29/33/5 30/34/41
f 37/44/51 36/42/49 22/26/50 18/19/48
f 26/30/11 25/29/35 28/32/38 29/33/5
f 13/14/45 14/15/44 26/30/11 27/31/40
f 40/48/52 21/24/43 13/14/45 31/36/53
f 14/15/44 15/16/46 25/29/35 26/30/11
f 58/82/17 64/94/20 54/72/18
f 22/26/50 23/27/24 17/18/31 18/19/48
f 23/27/24 24/28/27 16/17/30 17/18/31
f 19/21/33 51/67/32 44/56/47 15/16/46
f 41/51/54 42/53/42 36/43/49 35/41/55
f 37/44/51 18/19/48 21/25/43 40/49/52
f 38/46/56 39/47/57 32/37/58 34/40/59 41/51/54 35/41/55
f 34/40/59 33/38/39 42/53/42 41/51/54
f 38/46/56 37/45/51 40/50/52 39/47/57
f 35/41/55 36/43/49 37/45/51 38/46/56
f 39/47/57 40/50/52 31/35/53 32/37/58
f 32/37/58 31/35/53 33/38/39 34/40/59
f 31/36/53 13/14/45 27/31/40 33/39/39
f 28/32/38 48/62/37 46/59/28 24/28/27
f 50/64/15 45/57/3 63/92/19
f 59/84/12 55/75/44 1/1/44 6/7/12
f 10/11/60 7/8/24 61/88/24 65/96/60
f 3/4/5 10/11/60 65/96/60 66/98/5
f 49/63/29 46/59/28 45/58/3 50/65/15
f 30/34/41 29/33/5 23/27/24 22/26/50
f 46/59/28 48/62/37 47/61/22 45/58/3
f 49/63/29 50/65/15 52/68/8 51/66/32
f 53/71/36 44/56/47 43/55/9 54/73/18
f 44/56/47 51/67/32 52/69/8 43/55/9
f 48/62/37 53/71/36 54/73/18 47/61/22
f 4/5/34 1/1/44 55/75/44 56/77/34
f 60/86/14 57/80/6 52/70/8
f 112/162/61 68/100/62 109/158/63
f 109/158/63 100/142/64 112/162/61
f 100/142/64 67/99/65 112/162/61
f 119/169/66 116/166/67 107/152/68
f 113/163/69 114/164/70 111/160/71
f 107/152/68 109/158/63 119/169/66
f 117/167/72 115/165/73 102/146/74
f 104/148/75 69/101/76 120/170/77
f 118/168/78 69/101/76 104/148/75
f 104/148/75 102/146/74 118/168/78
f 111/160/71 104/148/75 120/170/77
f 81/116/79 73/105/80 106/151/81 103/147/82
f 100/142/64 111/160/71 114/164/70
f 116/166/67 117/167/72 107/152/68
f 73/105/80 76/108/83 108/154/84 106/151/81
f 82/117/85 85/120/86 105/150/87 110/159/88
f 90/127/89 99/140/90 87/122/91 84/119/92
f 86/121/5 80/115/24 81/116/79 85/120/86
f 78/112/93 70/102/94 71/103/44 77/110/26
f 77/110/26 71/103/44 72/104/95 76/109/83
f 72/104/95 82/117/85 110/159/88 101/144/96
f 75/107/97 78/113/93 77/111/26 74/106/31
f 93/130/98 79/114/99 87/122/91 99/140/90
f 74/106/31 77/111/26 76/108/83 73/105/80
f 100/142/64 114/164/70 67/99/65
f 84/119/92 87/122/91 86/121/5 83/118/11
f 94/132/100 75/107/97 79/114/99 93/130/98
f 83/118/11 86/121/5 85/120/86 82/117/85
f 70/102/94 84/119/92 83/118/11 71/103/44
f 97/136/101 88/124/102 70/102/94 78/112/93
f 71/103/44 83/118/11 82/117/85 72/104/95
f 120/170/77 113/163/69 111/160/71
f 79/114/99 75/107/97 74/106/31 80/115/24
f 80/115/24 74/106/31 73/105/80 81/116/79
f 76/109/83 72/104/95 101/144/96 108/155/84
f 98/139/103 92/129/104 93/131/98 99/141/90
f 94/132/100 97/137/101 78/113/93 75/107/97
f 95/134/105 92/129/104 98/139/103 91/128/106 89/125/107 96/135/108
f 91/128/106 98/139/103 99/141/90 90/126/89
f 95/134/105 96/135/108 97/138/101 94/133/100
f 92/129/104 95/134/105 94/133/100 93/131/98
f 96/135/108 89/125/107 88/123/102 97/138/101
f 89/125/107 91/128/106 90/126/89 88/123/102
f 88/124/102 90/127/89 84/119/92 70/102/94
f 85/120/86 81/116/79 103/147/82 105/150/87
f 107/152/68 117/167/72 102/146/74
f 106/151/81 107/153/68 102/145/74 103/147/82
f 87/122/91 79/114/99 80/115/24 86/121/5
f 103/147/82 102/145/74 104/149/75 105/150/87
f 106/151/81 108/154/84 109/156/63 107/153/68
f 110/159/88 111/161/71 100/143/64 101/144/96
f 101/144/96 100/143/64 109/157/63 108/155/84
f 105/150/87 104/149/75 111/161/71 110/159/88
f 109/158/63 68/100/62 119/169/66
f 115/165/73 118/168/78 102/146/74
