# Blender 3.4.0
# www.blender.org
mtllib shovel_mx_1.mtl
o shovel_mx_1
v -0.195000 0.083998 0.570000
v 0.000000 0.043996 1.090000
v -0.060647 0.047996 1.046459
v -0.195000 0.083997 0.810000
v -0.112062 0.053996 0.998889
v -0.155649 0.063997 0.937247
v -0.184773 0.073997 0.870918
v 0.195000 0.083997 0.810000
v 0.060647 0.047996 1.046459
v 0.184773 0.073997 0.870918
v 0.155649 0.063997 0.937247
v 0.112062 0.053996 0.998889
v 0.000000 0.043997 0.810000
v 0.000000 0.035996 1.090000
v -0.060647 0.039996 1.046459
v -0.195000 0.075997 0.810000
v -0.112062 0.045996 0.998889
v -0.155649 0.055997 0.937247
v -0.184773 0.065997 0.870918
v 0.195000 0.075997 0.810000
v 0.060647 0.039996 1.046459
v 0.184773 0.065997 0.870918
v 0.155649 0.055997 0.937247
v 0.112062 0.045996 0.998889
v -0.017763 0.040254 0.551792
v -0.195000 0.075998 0.562000
v 0.195000 0.075998 0.562000
v 0.195000 0.083998 0.562000
v -0.018145 0.040254 0.543792
v 0.018145 0.040254 0.543792
v -0.000000 0.031062 0.543793
v -0.055676 0.069998 0.554656
v -0.169000 0.099998 0.567137
v 0.055676 0.069998 0.554656
v 0.169000 0.099998 0.567137
v 0.195000 0.083998 0.570000
v -0.055676 0.069998 0.546656
v -0.169000 0.099998 0.559137
v -0.195000 0.083998 0.562000
v 0.055676 0.069998 0.546656
v 0.169000 0.099998 0.559137
v -0.010270 0.047796 0.551792
v -0.055541 0.043998 0.555434
v -0.090406 0.053998 0.559075
v -0.125270 0.063998 0.562717
v -0.160135 0.073998 0.566359
v -0.055561 0.035998 0.547435
v -0.090421 0.045998 0.551076
v -0.125280 0.055998 0.554717
v -0.160140 0.065998 0.558359
v 0.055561 0.035998 0.547435
v 0.090421 0.045998 0.551076
v 0.125280 0.055998 0.554717
v 0.160140 0.065998 0.558359
v 0.055541 0.043998 0.555434
v 0.090406 0.053998 0.559075
v 0.125270 0.063998 0.562717
v 0.160135 0.073998 0.566359
v 0.000000 0.064441 0.370987
v -0.017221 0.059826 0.370987
v -0.029828 0.047220 0.370987
v 0.029828 0.047220 0.370987
v 0.017221 0.059826 0.370987
v -0.034442 0.029999 0.370987
v 0.000000 -0.004443 0.370987
v -0.029828 0.012778 0.370987
v -0.017221 0.000171 0.370987
v 0.034442 0.029999 0.370987
v 0.017221 0.000171 0.370987
v 0.029828 0.012778 0.370987
v -0.010184 0.035878 0.672000
v -0.005880 0.040182 0.672000
v -0.000000 0.041758 0.672000
v 0.005880 0.040182 0.672000
v 0.010184 0.035878 0.672000
v -0.000000 0.018238 0.672000
v -0.005880 0.019813 0.672000
v -0.010184 0.024118 0.672000
v -0.011760 0.029998 0.672000
v 0.011760 0.029998 0.672000
v 0.010184 0.024118 0.672000
v 0.005880 0.019813 0.672000
v -0.019647 0.030003 -0.870000
v -0.030000 0.030003 -0.860000
v -0.009824 0.047018 -0.870000
v -0.015000 0.055984 -0.860000
v -0.017015 0.039827 -0.870000
v -0.025981 0.045003 -0.860000
v 0.019647 0.030003 -0.870000
v 0.030000 0.030003 -0.860000
v 0.000000 0.060003 -0.860000
v 0.000000 0.049650 -0.870000
v 0.017015 0.039827 -0.870000
v 0.025981 0.045003 -0.860000
v 0.009824 0.047018 -0.870000
v 0.015000 0.055984 -0.860000
v -0.017015 0.020179 -0.870000
v -0.025981 0.015003 -0.860000
v -0.009824 0.012988 -0.870000
v -0.015000 0.004022 -0.860000
v -0.000000 0.010356 -0.870000
v -0.000000 0.000003 -0.860000
v 0.009824 0.012988 -0.870000
v 0.015000 0.004022 -0.860000
v 0.017015 0.020179 -0.870000
v 0.025981 0.015003 -0.860000
v -0.027256 0.029999 0.370976
v -0.023604 0.043627 0.370976
v -0.023604 0.016371 0.370976
v -0.013628 0.053603 0.370976
v 0.000000 0.057254 0.370976
v 0.027256 0.029999 0.370976
v 0.023604 0.043627 0.370976
v 0.023604 0.016371 0.370976
v 0.013628 0.053603 0.370976
v -0.013628 0.006395 0.370976
v -0.000000 0.002743 0.370976
v 0.013628 0.006395 0.370976
v -0.017075 0.059574 0.378285
v -0.029575 0.047074 0.378285
v -0.029575 0.012924 0.378285
v -0.017075 0.000424 0.378285
v -0.000000 -0.004151 0.378285
v 0.034150 0.029999 0.378285
v -0.000000 0.064149 0.378285
v 0.017075 0.059574 0.378285
v 0.029575 0.047074 0.378285
v -0.034150 0.029999 0.378285
v 0.029575 0.012924 0.378285
v 0.017075 0.000424 0.378285
v -0.000000 0.059638 0.386076
v 0.014820 0.055667 0.386076
v 0.025669 0.044818 0.386076
v -0.029640 0.029999 0.386076
v 0.025669 0.015179 0.386076
v 0.014820 0.004330 0.386076
v -0.014820 0.055667 0.386076
v -0.025669 0.044818 0.386076
v -0.025669 0.015179 0.386076
v -0.014820 0.004330 0.386076
v -0.000000 0.000359 0.386076
v 0.029640 0.029999 0.386076
v -0.000000 0.050509 0.551792
v 0.010255 0.047761 0.551792
v 0.017763 0.040254 0.551792
v -0.020511 0.029998 0.551792
v 0.017763 0.019743 0.551792
v 0.010255 0.012235 0.551792
v -0.017763 0.019743 0.551792
v -0.010255 0.012235 0.551792
v -0.000000 0.009487 0.551792
v 0.020511 0.029998 0.551792
vn -0.0000 1.0000 -0.0078
vn 0.0557 0.9984 -0.0078
vn 0.1146 0.9934 -0.0037
vn 0.0909 0.9958 -0.0053
vn -0.2067 0.9784 0.0074
vn -0.1146 0.9934 -0.0037
vn -0.0909 0.9958 -0.0053
vn -0.1945 0.9809 0.0042
vn 0.2067 0.9784 0.0074
vn 0.2550 0.9668 0.0184
vn 0.2438 0.9697 0.0164
vn 0.1945 0.9809 0.0042
vn 0.3268 0.9449 0.0203
vn 0.3867 0.9220 0.0175
vn 0.2892 0.9570 0.0220
vn -0.9969 -0.0000 0.0786
vn -0.9962 -0.0000 0.0871
vn -0.9548 -0.0000 0.2973
vn -0.9615 -0.0000 0.2748
vn 0.5005 0.8625 0.0742
vn -0.0000 0.9993 0.0376
vn 0.8636 0.4968 0.0862
vn 0.6345 -0.0000 0.7729
vn 0.6302 -0.0000 0.7764
vn 0.7470 -0.0000 0.6648
vn 0.7566 -0.0000 0.6539
vn 0.8662 -0.0000 0.4997
vn 0.8747 -0.0000 0.4847
vn -0.6345 -0.0000 0.7729
vn -0.6302 -0.0000 0.7764
vn -0.5832 -0.0000 0.8123
vn 0.9548 -0.0000 0.2973
vn 0.9615 -0.0000 0.2748
vn 1.0000 -0.0000 -0.0000
vn 0.9969 -0.0000 0.0786
vn 0.9962 -0.0000 0.0871
vn -0.7566 -0.0000 0.6539
vn -0.7470 -0.0000 0.6648
vn 0.5832 -0.0000 0.8123
vn -0.8747 -0.0000 0.4847
vn -0.8662 -0.0000 0.4997
vn 0.2068 -0.9784 -0.0073
vn 0.2553 -0.9667 -0.0180
vn 0.2440 -0.9696 -0.0161
vn 0.1945 -0.9809 -0.0042
vn -1.0000 -0.0000 -0.0000
vn 0.0562 -0.9984 0.0081
vn -0.0000 -1.0000 0.0082
vn -0.1080 -0.9941 0.0056
vn -0.1277 -0.9918 0.0039
vn 0.0992 0.0069 -0.9950
vn 0.0933 -0.0524 -0.9943
vn 0.1067 -0.0098 -0.9942
vn 0.0999 0.0110 -0.9949
vn 0.0900 -0.0599 -0.9941
vn 0.1119 0.0158 0.9936
vn 0.1079 0.0282 0.9938
vn 0.1083 0.0095 0.9941
vn 0.1100 0.0115 0.9939
vn 0.1122 -0.0283 -0.9933
vn -0.1067 -0.0098 -0.9942
vn -0.1122 -0.0283 -0.9933
vn -0.0933 -0.0524 -0.9943
vn -0.1124 0.0303 0.9932
vn -0.1119 0.0158 0.9936
vn -0.1079 0.0282 0.9938
vn -0.1048 0.0303 0.9940
vn -0.2559 0.9667 -0.0000
vn -0.4563 0.8898 -0.0079
vn -0.4368 0.8995 -0.0071
vn 0.4368 0.8995 -0.0071
vn 0.6184 0.7857 -0.0147
vn 0.4563 0.8898 -0.0079
vn -0.5241 0.8517 -0.0000
vn 0.5241 0.8517 -0.0000
vn -0.6184 0.7857 -0.0148
vn 0.2559 0.9667 -0.0000
vn -0.5004 0.8626 0.0740
vn 0.0013 0.9975 0.0703
vn -0.8642 0.4957 0.0861
vn -0.3268 0.9449 0.0203
vn -0.2550 0.9668 0.0184
vn -0.2438 0.9697 0.0164
vn -0.2892 0.9570 0.0220
vn -0.2896 -0.9569 -0.0216
vn -0.3873 -0.9218 -0.0170
vn -0.3274 -0.9447 -0.0198
vn -0.0557 0.9984 -0.0078
vn -0.3867 0.9220 0.0175
vn 0.3274 -0.9447 -0.0198
vn 0.2896 -0.9569 -0.0216
vn 0.1080 -0.9941 0.0056
vn 0.1277 -0.9918 0.0039
vn 0.3873 -0.9218 -0.0170
vn -0.1945 -0.9809 -0.0042
vn -0.2440 -0.9696 -0.0161
vn -0.2553 -0.9667 -0.0180
vn -0.2068 -0.9784 -0.0073
vn 0.1039 -0.0000 -0.9946
vn -0.0999 0.0110 -0.9949
vn -0.0992 0.0069 -0.9950
vn -0.0900 -0.0599 -0.9941
vn -0.1083 0.0095 0.9941
vn -0.1100 0.0115 0.9939
vn -0.1057 0.0063 0.9944
vn 0.1124 0.0303 0.9932
vn 0.1048 0.0303 0.9940
vn -0.0989 0.0303 0.9946
vn 0.0989 0.0303 0.9946
vn -0.1039 -0.0000 -0.9946
vn 0.1057 0.0063 0.9944
vn -0.8660 0.5000 0.0022
vn -0.5000 0.8660 0.0022
vn -0.8660 -0.5000 0.0022
vn -1.0000 -0.0000 0.0022
vn -0.0000 1.0000 0.0022
vn 0.0015 -0.0000 -1.0000
vn 0.0013 0.0008 -1.0000
vn 0.0013 -0.0008 -1.0000
vn -0.5000 -0.8660 0.0022
vn 0.0008 0.0013 -1.0000
vn -0.9956 -0.0000 0.0940
vn -0.9974 -0.0000 0.0726
vn -0.9636 0.2582 0.0701
vn -0.0000 0.9992 0.0400
vn 0.4996 0.8653 0.0400
vn 0.8653 0.4996 0.0400
vn 0.9992 -0.0000 0.0400
vn -0.0000 -0.0015 -1.0000
vn 0.0008 -0.0013 -1.0000
vn -0.0000 -1.0000 0.0022
vn 0.4257 -0.0000 -0.9049
vn 0.3687 -0.2129 -0.9049
vn 0.2129 -0.3687 -0.9049
vn -0.0000 -0.4257 -0.9049
vn -0.2129 -0.3687 -0.9049
vn -0.3687 -0.2129 -0.9049
vn -0.4257 -0.0000 -0.9049
vn -0.3687 0.2129 -0.9048
vn -0.2129 0.3687 -0.9048
vn -0.0000 0.4257 -0.9048
vn 0.2129 0.3687 -0.9048
vn 0.3687 0.2129 -0.9048
vn -0.0000 0.0015 -1.0000
vn -0.8622 -0.4978 0.0940
vn -0.8637 -0.4987 0.0726
vn -0.4978 -0.8622 0.0940
vn -0.4987 -0.8637 0.0726
vn -0.0000 -0.9956 0.0940
vn -0.0000 -0.9974 0.0726
vn 0.8653 -0.4996 0.0400
vn 0.4996 -0.8653 0.0400
vn -0.0000 -0.9992 0.0400
vn -0.0000 -0.0000 1.0000
vn -0.6947 -0.0000 -0.7193
vn -0.6017 0.3474 -0.7193
vn -0.3474 0.6017 -0.7193
vn 0.6017 0.3474 -0.7193
vn 0.6947 -0.0000 -0.7193
vn 0.3474 0.6017 -0.7193
vn -0.0000 0.6947 -0.7193
vn -0.3474 -0.6017 -0.7193
vn -0.6017 -0.3474 -0.7193
vn 0.3474 -0.6017 -0.7193
vn -0.0000 -0.6947 -0.7193
vn 0.6017 -0.3474 -0.7193
vn -0.0015 -0.0000 -1.0000
vn -0.0013 0.0008 -1.0000
vn 0.5000 0.8660 0.0022
vn 0.5000 -0.8660 0.0022
vn 0.8660 -0.5000 0.0022
vn -0.0008 -0.0013 -1.0000
vn 0.8660 0.5000 0.0022
vn -0.0013 -0.0008 -1.0000
vn 1.0000 -0.0000 0.0022
vn -0.0008 0.0013 -1.0000
vn 0.8658 -0.4999 0.0206
vn 0.9998 -0.0000 0.0206
vn 0.9956 -0.0000 0.0940
vn 0.8622 -0.4978 0.0940
vn 0.8658 0.4999 0.0206
vn -0.0000 -0.9998 0.0206
vn 0.4999 -0.8658 0.0206
vn 0.4978 -0.8622 0.0940
vn -0.4999 -0.8658 0.0206
vn -0.8658 -0.4999 0.0206
vn 0.4999 0.8658 0.0206
vn -0.0000 0.9998 0.0206
vn -0.9998 -0.0000 0.0206
vn -0.8658 0.4999 0.0206
vn -0.4999 0.8658 0.0206
vn -0.4996 -0.8653 0.0400
vn -0.8653 -0.4996 0.0400
vn -0.9992 -0.0000 0.0400
vn -0.8653 0.4996 0.0400
vn -0.4996 0.8653 0.0400
vn 0.4327 -0.7495 0.5010
vn -0.0000 -0.8654 0.5010
vn 0.7495 -0.4327 0.5010
vn 0.8654 -0.0000 0.5010
vn 0.7495 0.4327 0.5010
vn 0.4327 0.7495 0.5010
vn -0.0000 0.8654 0.5010
vn -0.4327 -0.7495 0.5010
vn -0.7495 -0.4327 0.5010
vn -0.8654 -0.0000 0.5010
vn -0.7495 0.4327 0.5010
vn -0.4327 0.7495 0.5010
vn 0.9635 0.2582 0.0701
vn 0.9974 -0.0000 0.0726
vn 0.8637 -0.4987 0.0726
vn 0.4987 -0.8637 0.0726
vt 0.954851 0.246026
vt 0.055898 0.259112
vt 0.050780 0.249163
vt 0.523821 0.246026
vt 0.509571 0.008024
vt 0.368474 0.029049
vt 0.394809 0.247792
vt 0.055898 0.143225
vt 0.444304 0.246026
vt 0.248857 0.052018
vt 0.285435 0.246026
vt 0.042484 0.246026
vt 0.147448 0.081782
vt 0.173613 0.246026
vt 0.079694 0.113810
vt 0.314714 0.246026
vt 0.444304 0.246026
vt 0.963240 0.143225
vt 0.652834 0.247792
vt 0.650665 0.029049
vt 0.314714 0.246026
vt 0.939445 0.113810
vt 0.173613 0.246026
vt 0.871691 0.081782
vt 0.762208 0.246026
vt 0.042484 0.246026
vt 0.770282 0.052018
vt 0.509571 0.143225
vt 0.523821 0.242494
vt 0.509571 0.008024
vt 0.394809 0.244260
vt 0.367910 0.029052
vt 0.444304 0.242494
vt 0.055898 0.143225
vt 0.285435 0.242494
vt 0.042484 0.242494
vt 0.248857 0.052018
vt 0.173613 0.242494
vt 0.147448 0.081782
vt 0.314714 0.242494
vt 0.079694 0.113810
vt 0.444304 0.242494
vt 0.963240 0.143225
vt 0.652834 0.244260
vt 0.651229 0.029052
vt 0.314714 0.242494
vt 0.939445 0.113810
vt 0.173613 0.242494
vt 0.871691 0.081782
vt 0.762208 0.242494
vt 0.042484 0.242494
vt 0.770282 0.052018
vt 0.460809 0.267879
vt 0.457685 0.267819
vt 0.465556 0.227911
vt 0.853586 0.269849
vt 0.472763 0.269852
vt 0.971870 0.242494
vt 0.055898 0.262975
vt 0.050780 0.245277
vt 0.971870 0.242494
vt 0.963240 0.262975
vt 0.963574 0.245277
vt 0.971870 0.246026
vt 0.963240 0.262975
vt 0.963574 0.249163
vt 0.453507 0.271577
vt 0.464644 0.227915
vt 0.549713 0.227913
vt 0.565882 0.271669
vt 0.507670 0.223464
vt 0.506682 0.223462
vt 0.509569 0.271751
vt 0.380038 0.266522
vt 0.376868 0.242363
vt 0.116389 0.260495
vt 0.111633 0.256936
vt 0.639101 0.266522
vt 0.637487 0.242363
vt 0.902750 0.260495
vt 0.902721 0.256936
vt 0.954851 0.246026
vt 0.963240 0.259112
vt 0.963574 0.249163
vt 0.376868 0.242363
vt 0.380038 0.270385
vt 0.111633 0.256936
vt 0.116389 0.264358
vt 0.971870 0.246026
vt 0.055898 0.262975
vt 0.050780 0.249163
vt 0.637487 0.242363
vt 0.639101 0.270385
vt 0.902721 0.256936
vt 0.902750 0.264358
vt 0.485068 0.267864
vt 0.488057 0.269852
vt 0.374023 0.266127
vt 0.377184 0.229733
vt 0.294492 0.264373
vt 0.295583 0.234591
vt 0.214960 0.262620
vt 0.213982 0.239448
vt 0.135429 0.260866
vt 0.132381 0.244306
vt 0.371584 0.270008
vt 0.377137 0.225847
vt 0.292662 0.268250
vt 0.295548 0.230704
vt 0.213741 0.266491
vt 0.213959 0.235562
vt 0.134820 0.264733
vt 0.132369 0.240420
vt 0.637217 0.225847
vt 0.647555 0.270008
vt 0.718806 0.230704
vt 0.726476 0.268250
vt 0.805398 0.266491
vt 0.800395 0.235562
vt 0.884319 0.264733
vt 0.881985 0.240420
vt 0.645116 0.266127
vt 0.637170 0.229733
vt 0.718771 0.234591
vt 0.724647 0.264373
vt 0.804178 0.262620
vt 0.800372 0.239448
vt 0.883709 0.260866
vt 0.881973 0.244306
vt 0.718750 0.253090
vt 0.511962 0.357591
vt 0.673750 0.250583
vt 0.473684 0.357591
vt 0.640808 0.243733
vt 0.842030 0.357585
vt 0.449761 0.357591
vt 0.796692 0.243733
vt 0.569378 0.357591
vt 0.842030 0.357585
vt 0.545455 0.357591
vt 0.763750 0.250583
vt 0.628750 0.234375
vt 0.875598 0.357585
vt 0.718750 0.215660
vt 0.511962 0.357591
vt 0.640808 0.225017
vt 0.449761 0.357591
vt 0.909167 0.357585
vt 0.673750 0.218167
vt 0.473684 0.357591
vt 0.808750 0.234375
vt 0.875598 0.357585
vt 0.763750 0.218167
vt 0.545455 0.357591
vt 0.796692 0.225017
vt 0.909167 0.357585
vt 0.569378 0.357591
vt 0.861244 0.211519
vt 0.479589 0.503299
vt 0.491224 0.505714
vt 0.507122 0.506598
vt 0.523017 0.505714
vt 0.534651 0.503299
vt 0.861244 0.211519
vt 0.507122 0.493402
vt 0.511962 0.211519
vt 0.497608 0.211519
vt 0.491224 0.494286
vt 0.889952 0.211519
vt 0.488038 0.211519
vt 0.479589 0.496701
vt 0.875598 0.211519
vt 0.475331 0.500000
vt 0.538910 0.500000
vt 0.875598 0.211519
vt 0.534651 0.496701
vt 0.889952 0.211519
vt 0.531100 0.211519
vt 0.523017 0.494286
vt 0.521531 0.211519
vt 0.454009 0.500000
vt 0.426027 0.500000
vt 0.511962 0.956306
vt 0.480564 0.509546
vt 0.473684 0.956306
vt 0.466572 0.514576
vt 0.461125 0.505511
vt 0.449761 0.956306
vt 0.436888 0.508415
vt 0.473684 0.956306
vt 0.560232 0.500000
vt 0.588214 0.500000
vt 0.511962 0.956306
vt 0.507122 0.516831
vt 0.511962 0.956306
vt 0.507122 0.511023
vt 0.553116 0.505511
vt 0.577353 0.508415
vt 0.569378 0.956306
vt 0.473684 0.956306
vt 0.533677 0.509546
vt 0.547669 0.514576
vt 0.545455 0.956306
vt 0.461125 0.494489
vt 0.545455 0.956306
vt 0.449761 0.956306
vt 0.436888 0.491585
vt 0.480564 0.490454
vt 0.473684 0.956306
vt 0.466572 0.485424
vt 0.507122 0.488977
vt 0.507122 0.483169
vt 0.511962 0.956306
vt 0.533677 0.490454
vt 0.547669 0.485424
vt 0.545455 0.956306
vt 0.553116 0.494489
vt 0.577353 0.491585
vt 0.569378 0.956306
vt 0.545455 0.956306
vt 0.511899 0.358241
vt 0.648620 0.234375
vt 0.450393 0.358241
vt 0.474695 0.358241
vt 0.658015 0.241667
vt 0.544570 0.358241
vt 0.450393 0.358241
vt 0.658015 0.227083
vt 0.473874 0.358241
vt 0.683685 0.247005
vt 0.511898 0.358241
vt 0.718750 0.248958
vt 0.788880 0.234375
vt 0.511899 0.358241
vt 0.779485 0.241667
vt 0.568746 0.358241
vt 0.474695 0.358241
vt 0.779485 0.227083
vt 0.568746 0.358241
vt 0.544570 0.358241
vt 0.753815 0.247005
vt 0.545328 0.358241
vt 0.473874 0.358241
vt 0.683685 0.221745
vt 0.718750 0.219792
vt 0.511898 0.358241
vt 0.753815 0.221745
vt 0.545328 0.358241
vt 0.474264 0.354050
vt 0.842495 0.354044
vt 0.450689 0.354050
vt 0.450689 0.354050
vt 0.908701 0.354044
vt 0.474264 0.354050
vt 0.511962 0.354050
vt 0.875598 0.354044
vt 0.511962 0.354050
vt 0.544875 0.354050
vt 0.842495 0.354044
vt 0.568450 0.354050
vt 0.875598 0.354044
vt 0.568450 0.354050
vt 0.908701 0.354044
vt 0.544874 0.354050
vt 0.511978 0.351098
vt 0.544427 0.351098
vt 0.842642 0.351092
vt 0.567849 0.351098
vt 0.875598 0.351092
vt 0.908554 0.351092
vt 0.567849 0.351098
vt 0.544427 0.351098
vt 0.474696 0.351098
vt 0.842642 0.351092
vt 0.451290 0.351098
vt 0.451290 0.351098
vt 0.908554 0.351092
vt 0.474696 0.351098
vt 0.511978 0.351098
vt 0.875598 0.351092
vt 0.509571 0.267867
vt 0.511960 0.269852
vt 0.534071 0.267864
vt 0.531083 0.269852
vt 0.558530 0.267879
vt 0.562783 0.267812
vt 0.548801 0.227911
vt 0.546376 0.269852
vt 0.853586 0.269849
vt 0.875598 0.269849
vt 0.897610 0.269849
vt 0.546376 0.269852
vt 0.531083 0.269852
vt 0.472763 0.269852
vt 0.897610 0.269849
vt 0.488057 0.269852
vt 0.511960 0.269852
vt 0.875598 0.269849
s 1
usemtl shovel_mx_1
f 13/28/1 25/54/2 43/98/3 3/6/4 2/5/1
f 56/125/5 55/122/6 9/20/7 12/27/8
f 44/100/9 45/102/10 6/13/11 5/10/12
f 43/98/3 44/100/9 5/10/12 3/6/4
f 46/104/13 1/2/14 4/8/14 7/15/15
f 4/9/16 16/33/17 19/40/18 7/16/19
f 144/283/20 13/28/21 145/286/22
f 9/19/23 21/44/24 24/50/25 12/25/26
f 12/26/26 24/51/25 23/48/27 11/23/28
f 45/102/10 46/104/13 7/15/15 6/13/11
f 3/7/29 15/31/30 14/29/31 2/4/31
f 11/23/28 23/48/27 22/46/32 10/21/33
f 36/82/34 8/17/35 20/42/36 27/61/34 28/64/34
f 10/21/33 22/46/32 20/42/36 8/17/35
f 5/11/37 17/35/38 15/31/30 3/7/29
f 2/4/39 14/29/39 21/44/24 9/19/23
f 6/14/40 18/38/41 17/36/38 5/12/37
f 7/16/19 19/40/18 18/38/41 6/14/40
f 52/117/42 53/118/43 23/49/44 24/52/45
f 16/33/17 4/9/16 1/1/46 39/89/46 26/58/46
f 31/73/47 14/30/48 15/32/49 47/106/50
f 52/116/51 30/69/52 28/66/53 53/119/54
f 51/114/55 31/71/55 30/69/52 52/116/51
f 45/103/56 32/75/57 33/77/58 46/105/59
f 28/66/53 30/69/52 40/92/60 41/94/60
f 39/91/61 38/87/62 37/85/62 29/68/63
f 56/124/64 57/127/65 34/79/66 55/123/67
f 35/80/68 41/95/68 40/93/69 34/78/70
f 32/74/71 25/53/72 29/67/72 37/86/73
f 1/2/74 33/76/74 38/88/74 39/90/74
f 35/80/75 36/83/75 28/65/75 41/95/75
f 145/285/76 34/78/70 40/93/69 30/70/76
f 32/74/71 37/86/73 38/88/77 33/76/77
f 42/96/78 13/28/21 143/281/79
f 25/54/80 13/28/21 42/96/78
f 143/281/79 13/28/21 144/283/20
f 58/128/81 57/126/82 11/24/83 10/22/84
f 57/126/82 56/125/5 12/27/8 11/24/83
f 19/41/85 16/34/86 26/59/86 50/112/87
f 55/122/6 145/286/88 13/28/1 2/5/1 9/20/7
f 8/18/89 36/83/89 58/128/81 10/22/84
f 53/118/43 54/120/90 22/47/91 23/49/44
f 24/52/45 21/45/92 51/115/93 52/117/42
f 20/43/94 22/47/91 54/120/90 27/62/94
f 17/37/95 18/39/96 49/110/97 48/108/98
f 18/39/96 19/41/85 50/112/87 49/110/97
f 47/106/50 15/32/49 17/37/95 48/108/98
f 54/121/99 53/119/54 28/66/53 27/63/99
f 49/111/100 39/91/61 29/68/63 48/109/101
f 47/107/102 48/109/101 29/68/63 31/72/102
f 35/81/103 58/129/104 36/84/105
f 44/101/106 43/99/107 32/75/57 45/103/56
f 55/123/67 34/79/66 145/287/108
f 32/75/57 43/99/107 25/55/109
f 50/113/110 26/60/110 39/91/61 49/111/100
f 46/105/59 33/77/58 1/3/111
f 58/129/104 35/81/103 34/79/66 57/127/65
f 108/223/112 110/229/113 86/185/113 88/188/112
f 109/226/114 107/221/115 84/183/115 98/205/114
f 110/229/113 111/231/116 91/195/116 86/185/113
f 112/233/117 113/235/118 62/137/118 68/151/117
f 114/238/119 112/233/117 68/151/117 70/155/119
f 116/243/120 109/227/114 98/206/114 100/209/120
f 113/235/118 115/241/121 63/141/121 62/137/118
f 25/56/80 146/290/122 79/172/123 71/158/124
f 125/257/125 126/258/126 63/140/126 59/131/125
f 126/258/126 127/260/127 62/138/127 63/140/126
f 127/259/127 124/256/128 68/152/128 62/139/127
f 117/245/129 118/247/130 69/153/130 65/144/129
f 117/246/131 116/243/120 100/209/120 102/213/131
f 89/191/132 105/217/133 103/214/134 101/211/135 99/208/136 97/204/137 83/181/138 87/187/139 85/184/140 92/196/141 95/201/142 93/197/143
f 118/247/130 114/238/119 70/155/119 69/153/130
f 115/241/121 111/232/144 59/130/144 63/141/121
f 146/290/122 149/295/145 78/169/146 79/172/123
f 149/294/145 150/296/147 77/167/148 78/170/146
f 150/296/147 151/297/149 76/166/150 77/167/148
f 124/256/128 129/263/151 70/156/151 68/152/128
f 129/262/151 130/264/152 69/154/152 70/157/151
f 130/264/152 123/255/153 65/145/153 69/154/152
f 71/159/154 79/173/154 78/171/154 77/168/154 76/165/154 82/179/154 81/176/154 80/174/154 75/163/154 74/162/154 73/161/154 72/160/154
f 83/181/138 84/182/155 88/189/156 87/187/139
f 87/187/139 88/189/156 86/186/157 85/184/140
f 93/197/143 94/198/158 90/192/159 89/191/132
f 95/201/142 96/202/160 94/198/158 93/197/143
f 92/196/141 91/194/161 96/202/160 95/201/142
f 99/208/136 100/210/162 98/207/163 97/204/137
f 103/214/134 104/215/164 102/212/165 101/211/135
f 105/217/133 106/218/166 104/215/164 103/214/134
f 85/184/140 86/186/157 91/194/161 92/196/141
f 101/211/135 102/212/165 100/210/162 99/208/136
f 97/204/137 98/207/163 84/182/155 83/181/138
f 89/191/132 90/192/159 106/218/166 105/217/133
f 107/221/115 108/224/112 88/190/112 84/183/115
f 64/142/167 61/134/168 108/225/168 107/222/167
f 96/203/169 91/195/116 111/231/116 115/242/169
f 104/216/170 106/219/171 114/239/171 118/248/170
f 65/144/129 67/149/172 116/244/172 117/245/129
f 102/213/131 104/216/170 118/248/170 117/246/131
f 94/199/173 96/203/169 115/242/169 113/236/173
f 67/149/172 66/146/174 109/228/174 116/244/172
f 106/220/171 90/193/175 112/234/175 114/240/171
f 90/193/175 94/200/173 113/237/173 112/234/175
f 60/132/176 59/130/144 111/232/144 110/230/176
f 66/146/174 64/142/167 107/222/167 109/228/174
f 61/134/168 60/132/176 110/230/176 108/225/168
f 135/270/177 142/280/178 152/298/179 147/291/180
f 152/298/179 142/280/178 133/267/181 145/289/22
f 151/297/149 141/279/182 136/272/183 148/293/184
f 140/278/185 141/279/182 151/297/149 150/296/147
f 139/276/186 140/278/185 150/296/147 149/294/145
f 133/268/181 132/266/187 144/284/20 145/288/22
f 132/266/187 131/265/188 143/282/79 144/284/20
f 134/269/189 139/277/186 149/295/145 146/290/122
f 138/274/190 134/269/189 146/290/122 25/56/80
f 137/273/191 138/275/190 25/57/80 42/97/78
f 67/150/192 65/145/153 123/255/153 122/254/192
f 66/147/193 67/150/192 122/254/192 121/252/193
f 64/143/194 66/148/193 121/253/193 128/261/194
f 61/135/195 64/143/194 128/261/194 120/250/195
f 60/133/196 61/136/195 120/251/195 119/249/196
f 59/131/125 60/133/196 119/249/196 125/257/125
f 136/272/197 141/279/198 123/255/198 130/264/197
f 135/271/199 136/272/197 130/264/197 129/262/199
f 142/280/200 135/270/199 129/263/199 124/256/200
f 133/267/201 142/280/200 124/256/200 127/259/201
f 132/266/202 133/268/201 127/260/201 126/258/202
f 131/265/203 132/266/202 126/258/202 125/257/203
f 136/272/183 135/271/177 147/292/180 148/293/184
f 122/254/204 123/255/198 141/279/198 140/278/204
f 121/252/205 122/254/204 140/278/204 139/276/205
f 128/261/206 121/253/205 139/277/205 134/269/206
f 120/250/207 128/261/206 134/269/206 138/274/207
f 119/249/208 120/251/207 138/275/207 137/273/208
f 125/257/203 119/249/208 137/273/208 131/265/203
f 75/164/209 80/175/210 152/298/179 145/289/22
f 80/175/210 81/177/211 147/291/180 152/298/179
f 81/178/211 82/180/212 148/293/184 147/292/180
f 82/180/212 76/166/150 151/297/149 148/293/184
f 31/73/47 51/115/93 21/45/92 14/30/48
f 131/265/188 137/273/191 42/97/78 143/282/79
