# Blender 3.4.0
# www.blender.org
mtllib sickle_mx_1.mtl
o sickle_mx_1
v 0.079372 0.012500 -0.007200
v 0.079358 0.008839 -0.016038
v -0.079881 0.012500 -0.007223
v -0.079829 0.008839 -0.016062
v -0.079964 0.012500 0.007019
v -0.080015 0.008839 0.015858
v 0.079394 0.012500 0.007019
v 0.079408 0.008839 0.015858
v 0.079372 -0.012500 -0.007200
v 0.079352 0.000000 -0.019700
v 0.079358 -0.008839 -0.016038
v -0.079808 0.000000 -0.019723
v -0.079881 -0.012500 -0.007223
v -0.079829 -0.008839 -0.016062
v -0.079964 -0.012500 0.007019
v -0.080036 -0.000000 0.019519
v -0.080015 -0.008839 0.015858
v 0.079413 -0.000000 0.019519
v 0.079394 -0.012500 0.007019
v 0.079408 -0.008839 0.015858
v 0.393005 -0.001500 -0.110102
v 0.344272 -0.001500 -0.050988
v 0.295647 -0.001500 -0.010905
v 0.248336 -0.001500 0.015049
v 0.196755 -0.001500 0.029834
v 0.159958 -0.001500 0.034763
v 0.137287 -0.001500 0.033449
v 0.119546 -0.001500 0.027534
v 0.112959 -0.001500 0.019508
v 0.110979 -0.001500 0.010795
v 0.110847 -0.001500 -0.000561
v 0.104938 -0.001500 -0.006450
v 0.079383 -0.001500 -0.014892
v 0.079413 -0.001500 0.015741
v 0.083815 -0.001500 0.013211
v 0.087995 -0.001500 0.015851
v 0.087793 -0.001500 0.054689
v 0.093371 -0.001500 0.056330
v 0.095430 -0.001500 0.062668
v 0.090519 -0.001500 0.080731
v 0.090043 -0.001500 0.091663
v 0.122367 -0.001500 0.092614
v 0.160868 -0.001500 0.090554
v 0.200127 -0.001500 0.085789
v 0.235301 -0.001500 0.073811
v 0.275609 -0.001500 0.054797
v 0.317829 -0.001500 0.024199
v 0.341785 -0.001500 -0.000213
v 0.363016 -0.001500 -0.026264
v 0.378623 -0.001500 -0.054464
v 0.388607 -0.001500 -0.074849
v 0.394944 -0.001500 -0.093598
v 0.395208 -0.001500 -0.102049
v 0.393005 0.001500 -0.110102
v 0.344272 0.001500 -0.050988
v 0.295647 0.001500 -0.010905
v 0.248336 0.001500 0.015049
v 0.196755 0.001500 0.029834
v 0.159958 0.001500 0.034763
v 0.137287 0.001500 0.033449
v 0.119546 0.001500 0.027534
v 0.112959 0.001500 0.019508
v 0.110979 0.001500 0.010795
v 0.110847 0.001500 -0.000561
v 0.104938 0.001500 -0.006450
v 0.079383 0.001500 -0.014892
v 0.079413 0.001500 0.015741
v 0.083815 0.001500 0.013211
v 0.087995 0.001500 0.015852
v 0.087793 0.001500 0.054689
v 0.093371 0.001500 0.056330
v 0.095430 0.001500 0.062668
v 0.090519 0.001500 0.080731
v 0.090043 0.001500 0.091664
v 0.122367 0.001500 0.092614
v 0.160868 0.001500 0.090554
v 0.200127 0.001500 0.085789
v 0.235301 0.001500 0.073811
v 0.275609 0.001500 0.054797
v 0.317829 0.001500 0.024200
v 0.341785 0.001500 -0.000213
v 0.363016 0.001500 -0.026264
v 0.378623 0.001500 -0.054464
v 0.388607 0.001500 -0.074849
v 0.394944 0.001500 -0.093598
v 0.395208 0.001500 -0.102049
vn -0.0000 -0.9807 0.1953
vn -0.0000 -0.9806 0.1958
vn -0.0000 -0.9809 -0.1944
vn -0.0000 -0.9808 -0.1949
vn -0.0000 1.0000 -0.0000
vn -1.0000 -0.0000 -0.0058
vn 0.0001 -0.7078 -0.7064
vn 0.0001 -0.7073 -0.7069
vn -0.0000 0.9809 -0.1944
vn -0.0000 0.9806 0.1958
vn -0.0000 0.9807 0.1953
vn -0.0000 0.9808 -0.1949
vn 0.0001 -0.0000 -1.0000
vn 0.0001 0.7078 -0.7064
vn 0.0001 0.7073 -0.7069
vn -0.0000 -0.7069 0.7073
vn -0.0000 -0.7064 0.7078
vn -0.0000 0.7069 0.7073
vn -0.0000 0.7064 0.7078
vn -0.0000 -0.0000 1.0000
vn -0.0000 -1.0000 -0.0000
vn 0.7453 -0.0000 0.6668
vn 0.6526 -0.0000 0.7577
vn 0.9931 -0.0000 -0.1173
vn 0.8981 -0.0000 -0.4398
vn 0.9841 -0.0000 0.1776
vn 0.9931 -0.0000 -0.1176
vn 0.3137 -0.0000 -0.9495
vn 0.5239 -0.0000 -0.8518
vn 0.8284 -0.0000 0.5602
vn -0.2047 -0.0000 -0.9788
vn -0.0376 -0.0000 -0.9993
vn -0.5610 -0.0000 -0.8278
vn -0.7071 -0.0000 -0.7071
vn 0.8868 -0.0000 0.4622
vn 0.5089 -0.0000 0.8608
vn -0.3806 -0.0000 -0.9247
vn 0.9246 -0.0000 0.3808
vn 0.9213 -0.0000 -0.3889
vn 0.2226 -0.0000 0.9749
vn 0.0870 -0.0000 0.9962
vn 0.0120 -0.0000 0.9999
vn 0.5668 -0.0000 -0.8238
vn -0.0294 -0.0000 0.9996
vn -1.0000 -0.0000 -0.0052
vn -0.7716 -0.0000 -0.6361
vn 0.9646 -0.0000 -0.2639
vn 0.1887 -0.0000 -0.9820
vn -0.9511 -0.0000 0.3090
vn -0.9991 -0.0000 -0.0435
vn -0.9881 -0.0000 -0.1539
vn 0.3751 -0.0000 0.9270
vn -0.2822 -0.0000 0.9594
vn -0.9650 -0.0000 -0.2624
vn -0.5341 -0.0000 0.8454
vn 1.0000 -0.0000 -0.0016
vn 0.4985 -0.0000 0.8669
vt 0.435814 0.360212
vt 0.709195 0.360057
vt 0.390753 0.360212
vt 0.240455 0.360215
vt 0.752547 0.351561
vt 0.435808 0.010765
vt 0.709314 0.242877
vt 0.390753 0.010764
vt 0.240455 0.010755
vt 0.752667 0.251373
vt 0.493026 0.010764
vt 0.639458 0.242877
vt 0.538480 0.010763
vt 0.339091 0.010755
vt 0.596105 0.251373
vt 0.493026 0.360212
vt 0.639457 0.360057
vt 0.538480 0.360213
vt 0.339091 0.360215
vt 0.596104 0.351561
vt 0.425250 0.360204
vt 0.709195 0.302044
vt 0.193182 0.360215
vt 0.770504 0.331050
vt 0.389656 0.360204
vt 0.145909 0.360215
vt 0.752547 0.310539
vt 0.193182 0.010755
vt 0.770625 0.271884
vt 0.425242 0.010757
vt 0.709314 0.300891
vt 0.389656 0.010756
vt 0.145909 0.010755
vt 0.752667 0.292395
vt 0.493026 0.010756
vt 0.639458 0.300891
vt 0.295455 0.010754
vt 0.578147 0.271884
vt 0.538480 0.010755
vt 0.251818 0.010755
vt 0.596105 0.292395
vt 0.295455 0.360215
vt 0.578147 0.331050
vt 0.493026 0.360204
vt 0.639457 0.302044
vt 0.538480 0.360205
vt 0.251818 0.360215
vt 0.596104 0.310539
vt 0.000000 0.986012
vt 0.250264 0.888544
vt 0.419961 0.791294
vt 0.529843 0.696672
vt 0.592436 0.593512
vt 0.613302 0.519917
vt 0.607739 0.474575
vt 0.582698 0.439093
vt 0.548720 0.425919
vt 0.511830 0.421959
vt 0.463755 0.421694
vt 0.438824 0.409876
vt 0.403084 0.358767
vt 0.532772 0.358828
vt 0.522059 0.367630
vt 0.533239 0.377323
vt 0.697664 0.376921
vt 0.704610 0.386744
vt 0.731444 0.390862
vt 0.807912 0.383579
vt 0.854198 0.382627
vt 0.858221 0.444735
vt 0.849502 0.521736
vt 0.829327 0.600254
vt 0.778616 0.670603
vt 0.698118 0.751219
vt 0.568581 0.835659
vt 0.465227 0.883572
vt 0.354937 0.926033
vt 0.235548 0.957247
vt 0.149248 0.977215
vt 0.069871 0.989889
vt 0.034095 0.990418
vt 0.000000 0.986012
vt 0.250264 0.888544
vt 0.419961 0.791294
vt 0.529843 0.696672
vt 0.592436 0.593512
vt 0.613302 0.519917
vt 0.607739 0.474575
vt 0.582698 0.439093
vt 0.548720 0.425919
vt 0.511830 0.421959
vt 0.463755 0.421694
vt 0.438824 0.409876
vt 0.403084 0.358767
vt 0.532772 0.358828
vt 0.522059 0.367630
vt 0.533239 0.377323
vt 0.697664 0.376921
vt 0.704610 0.386744
vt 0.731444 0.390862
vt 0.807912 0.383579
vt 0.854198 0.382627
vt 0.858221 0.444735
vt 0.849502 0.521736
vt 0.829327 0.600254
vt 0.778616 0.670603
vt 0.698118 0.751219
vt 0.568581 0.835659
vt 0.465227 0.883572
vt 0.354937 0.926033
vt 0.235548 0.957247
vt 0.149248 0.977215
vt 0.069871 0.989889
vt 0.034095 0.990417
s 1
usemtl sickle_mx_1
f 19/44/1 15/35/2 13/30/3 9/21/4
f 56/84/5 57/85/5 79/107/5 80/108/5
f 14/34/6 13/31/6 3/7/6 4/10/6
f 9/21/4 13/30/3 14/32/7 11/25/8
f 3/6/9 5/11/10 7/16/11 1/1/12
f 11/26/8 14/33/7 12/28/13 10/23/13
f 4/8/14 3/6/9 1/1/12 2/3/15
f 15/35/2 19/44/1 20/46/16 17/39/17
f 12/28/13 4/9/14 2/4/15 10/23/13
f 8/18/18 7/16/11 5/11/10 6/13/19
f 18/42/20 8/19/18 6/14/19 16/37/20
f 71/99/5 62/90/5 69/97/5 70/98/5
f 43/71/21 42/70/21 27/55/21 26/54/21
f 48/76/22 81/109/22 80/108/23 47/75/23
f 30/58/24 63/91/24 62/90/25 29/57/25
f 52/80/26 53/81/27 86/114/27 85/113/26
f 33/61/28 66/94/28 65/93/29 32/60/29
f 48/76/22 49/77/30 82/110/30 81/109/22
f 25/53/31 26/54/32 59/87/32 58/86/31
f 23/51/33 56/84/33 55/83/34 22/50/34
f 49/77/30 50/78/35 83/111/35 82/110/30
f 47/75/23 80/108/23 79/107/36 46/74/36
f 23/51/33 24/52/37 57/85/37 56/84/33
f 51/79/38 84/112/38 83/111/35 50/78/35
f 32/60/29 65/93/29 64/92/39 31/59/39
f 44/72/40 77/105/40 76/104/41 43/71/41
f 42/70/42 43/71/41 76/104/41 75/103/42
f 28/56/43 29/57/25 62/90/25 61/89/43
f 42/70/42 75/103/42 74/102/44 41/69/44
f 37/65/45 70/98/45 69/97/45 36/64/45
f 21/49/46 22/50/34 55/83/34 54/82/46
f 17/40/17 20/47/16 18/42/20 16/37/20
f 3/7/6 13/31/6 15/36/6 5/12/6
f 31/59/39 64/92/39 63/91/24 30/58/24
f 21/49/47 54/82/47 86/114/27 53/81/27
f 27/55/48 60/88/48 59/87/32 26/54/32
f 28/56/43 61/89/43 60/88/48 27/55/48
f 38/66/49 39/67/49 72/100/49 71/99/49
f 52/80/26 85/113/26 84/112/38 51/79/38
f 41/69/50 74/102/50 73/101/51 40/68/51
f 24/52/37 25/53/31 58/86/31 57/85/37
f 46/74/36 79/107/36 78/106/52 45/73/52
f 38/66/53 71/99/53 70/98/53 37/65/53
f 45/73/52 78/106/52 77/105/40 44/72/40
f 40/68/51 73/101/51 72/100/54 39/67/54
f 36/64/55 69/97/55 68/96/55 35/63/55
f 19/45/56 7/17/56 8/20/56 20/48/56
f 17/41/6 16/38/6 6/15/6
f 12/29/6 14/34/6 4/10/6
f 11/27/56 10/24/56 2/5/56
f 69/97/5 63/91/5 65/93/5 68/96/5
f 18/43/56 20/48/56 8/20/56
f 1/2/56 9/22/56 11/27/56 2/5/56
f 7/17/56 19/45/56 9/22/56 1/2/56
f 21/49/21 53/81/21 52/80/21
f 82/110/5 83/111/5 84/112/5 55/83/5
f 5/12/6 15/36/6 17/41/6 6/15/6
f 48/76/21 47/75/21 23/51/21
f 77/105/5 58/86/5 59/87/5 76/104/5
f 56/84/5 81/109/5 82/110/5 55/83/5
f 45/73/21 44/72/21 25/53/21
f 75/103/5 76/104/5 59/87/5 60/88/5
f 50/78/21 49/77/21 22/50/21 51/79/21
f 60/88/5 61/89/5 72/100/5 75/103/5
f 57/85/5 58/86/5 78/106/5 79/107/5
f 62/90/5 71/99/5 72/100/5 61/89/5
f 68/96/5 65/93/5 66/94/5 67/95/5
f 38/66/21 29/57/21 28/56/21 39/67/21
f 32/60/21 31/59/21 30/58/21
f 30/58/21 29/57/21 36/64/21
f 86/114/5 54/82/5 85/113/5
f 21/49/21 52/80/21 51/79/21 22/50/21
f 85/113/5 54/82/5 55/83/5 84/112/5
f 48/76/21 23/51/21 22/50/21 49/77/21
f 46/74/21 24/52/21 23/51/21 47/75/21
f 80/108/5 81/109/5 56/84/5
f 77/105/5 78/106/5 58/86/5
f 45/73/21 25/53/21 24/52/21 46/74/21
f 25/53/21 44/72/21 43/71/21 26/54/21
f 39/67/21 42/70/21 41/69/21 40/68/21
f 33/61/21 32/60/21 35/63/21 34/62/21
f 39/67/21 28/56/21 27/55/21 42/70/21
f 36/64/21 29/57/21 38/66/21 37/65/21
f 72/100/5 73/101/5 74/102/5 75/103/5
f 69/97/5 62/90/5 63/91/5
f 32/60/21 30/58/21 36/64/21 35/63/21
f 64/92/5 65/93/5 63/91/5
f 35/63/57 68/96/57 67/95/57 34/62/57
