# Blender 3.4.0
# www.blender.org
mtllib barricade_a_3.mtl
o barricade_a_3
v -1.470000 0.000000 -0.200001
v -1.470000 1.600000 -0.050001
v 1.470000 0.000000 -0.200001
v 1.470000 1.600000 -0.050001
v -1.470000 0.000000 0.199999
v -1.470000 1.600000 0.049999
v 1.470000 0.000000 0.199999
v 1.470000 1.600000 0.049999
v -1.470000 0.766000 -0.050001
v 1.470000 0.766000 -0.050001
v 1.470000 0.766000 0.049999
v -1.470000 0.766000 0.049999
v 1.470000 0.283000 -0.050001
v 1.470000 0.283000 0.049999
v -1.470000 0.283000 0.049999
v -1.470000 0.283000 -0.050001
v 1.470000 0.071500 -0.200001
v 1.470000 0.071500 0.199999
v -1.470000 0.071500 0.199999
v -1.470000 0.071500 -0.200001
vn -0.0000 -0.0000 -1.0000
vn 1.0000 -0.0000 -0.0000
vn -0.0000 -0.0000 1.0000
vn -1.0000 -0.0000 -0.0000
vn -0.0000 -1.0000 -0.0000
vn -0.0000 1.0000 -0.0000
vn -0.0000 0.5785 -0.8157
vn -0.0000 0.5785 0.8157
vt 0.874069 0.190008
vt 0.891548 0.000000
vt 0.886611 0.000000
vt 0.886611 1.000000
vt 0.932990 1.000000
vt 0.000000 1.000000
vt 0.000000 0.190008
vt 0.891548 0.000000
vt 0.000000 0.000000
vt 0.000000 1.000000
vt 0.932990 1.000000
vt 0.886608 1.000000
vt 0.874069 0.470125
vt 1.000000 0.000000
vt 0.000000 0.000000
vt 0.000000 1.000000
vt 0.953950 1.000000
vt 0.000000 0.930121
vt 0.000000 0.470125
vt 0.886611 0.000000
vt 1.000000 0.000000
vt 0.953950 1.000000
vt 0.886611 1.000000
vt 0.886608 0.930120
vt 0.932990 0.478750
vt 0.886611 0.478750
vt 0.932990 0.478750
vt 0.000000 0.478750
vt 0.886611 0.478750
vt 0.953950 0.478750
vt 0.953950 0.478750
vt 0.000000 0.478750
vt 0.000000 0.176875
vt 0.923261 0.176875
vt 0.886611 0.176875
vt 0.965674 0.176875
vt 0.886611 0.188951
vt 0.000000 0.176875
vt 0.000000 0.188951
vt 0.965674 0.176875
vt 0.886611 0.176875
vt 0.923261 0.176875
vt 0.891548 0.089594
vt 0.000000 0.044688
vt 0.886611 0.044688
vt 1.000000 0.089594
vt 1.000000 0.089594
vt 0.000000 0.044688
vt 0.891548 0.089594
vt 0.886611 0.044688
s 0
usemtl barricade_hr_2
f 9/26/1 2/4/1 4/10/1 10/28/1
f 10/27/2 4/11/2 8/22/2 11/30/2
f 11/29/3 8/23/3 6/16/3 12/32/3
f 12/31/4 6/17/4 2/5/4 9/25/4
f 3/7/5 7/19/5 5/13/5 1/1/5
f 8/24/6 4/12/6 2/6/6 6/18/6
f 15/40/4 12/31/4 9/25/4 16/42/4
f 14/35/3 11/29/3 12/32/3 15/38/3
f 13/34/2 10/27/2 11/30/2 14/36/2
f 16/41/1 9/26/1 10/28/1 13/33/1
f 20/50/7 16/41/7 13/33/7 17/44/7
f 17/43/2 13/34/2 14/36/2 18/46/2
f 18/45/8 14/37/8 15/39/8 19/48/8
f 19/47/4 15/40/4 16/42/4 20/49/4
f 5/14/4 19/47/4 20/49/4 1/2/4
f 7/20/3 18/45/3 19/48/3 5/15/3
f 3/8/2 17/43/2 18/46/2 7/21/2
f 1/3/1 20/50/1 17/44/1 3/9/1
