# Blender 3.4.0
# www.blender.org
mtllib barricade_b_1.mtl
o barricade_b_1
v -1.470000 0.000000 -0.200001
v -1.470000 0.766000 -0.050001
v 1.470000 0.000000 -0.200001
v -1.470000 0.000000 0.199999
v 1.470000 0.000000 0.199999
v 1.470000 0.766000 -0.050001
v 1.470000 0.283000 -0.050001
v 1.470000 0.283000 0.049999
v -1.470000 0.283000 0.049999
v -1.470000 0.283000 -0.050001
v 1.470000 0.071500 -0.200001
v 1.470000 0.071500 0.199999
v -1.470000 0.071500 0.199999
v -1.470000 0.071500 -0.200001
v 1.470000 0.766000 0.049999
v -1.470000 0.766000 0.049999
v -1.344479 0.766000 0.011526
v -1.344478 0.817841 0.011526
v -1.332959 0.766000 0.000006
v -1.332958 0.817841 0.000006
v -1.355999 0.766000 0.000006
v -1.344479 0.766000 -0.011514
v -1.344478 0.817841 -0.011514
v -1.355999 0.817841 0.000006
v -1.327199 0.835121 0.011526
v -1.327199 0.823601 0.000006
v -1.327199 0.835121 -0.011514
v -1.327199 0.846641 0.000006
v -1.255518 0.766000 -0.011514
v -1.255518 0.817841 -0.011514
v -1.267038 0.766000 0.000006
v -1.267038 0.817841 0.000006
v -1.243998 0.766000 0.000006
v -1.255518 0.766000 0.011526
v -1.255518 0.817841 0.011526
v -1.243998 0.817841 0.000006
v -1.272798 0.835121 -0.011514
v -1.272798 0.823601 0.000006
v -1.272798 0.835121 0.011526
v -1.272798 0.846641 0.000006
v -1.346869 0.837511 0.000006
v -1.339001 0.829643 0.011526
v -1.339001 0.829643 -0.011514
v -1.331133 0.821775 0.000006
v -1.253128 0.837511 0.000006
v -1.260996 0.829643 -0.011514
v -1.260996 0.829643 0.011526
v -1.268864 0.821775 0.000006
v 1.255520 0.766000 0.011526
v 1.255520 0.817841 0.011526
v 1.267040 0.766000 0.000006
v 1.267040 0.817841 0.000006
v 1.244000 0.766000 0.000006
v 1.255520 0.766000 -0.011514
v 1.255520 0.817841 -0.011514
v 1.244000 0.817841 0.000006
v 1.272800 0.835121 0.011526
v 1.272800 0.823601 0.000006
v 1.272800 0.835121 -0.011514
v 1.272800 0.846641 0.000006
v 1.344480 0.766000 -0.011514
v 1.344480 0.817841 -0.011514
v 1.332960 0.766000 0.000006
v 1.332960 0.817841 0.000006
v 1.356000 0.766000 0.000006
v 1.344480 0.766000 0.011526
v 1.344480 0.817841 0.011526
v 1.356000 0.817841 0.000006
v 1.327200 0.835121 -0.011514
v 1.327200 0.823601 0.000006
v 1.327200 0.835121 0.011526
v 1.327200 0.846641 0.000006
v 1.253129 0.837511 0.000006
v 1.260998 0.829643 0.011526
v 1.260998 0.829643 -0.011514
v 1.268866 0.821775 0.000006
v 1.346871 0.837511 0.000006
v 1.339003 0.829643 -0.011514
v 1.339003 0.829643 0.011526
v 1.331134 0.821775 0.000006
vn -0.0000 -1.0000 -0.0000
vn -0.0000 1.0000 -0.0000
vn -1.0000 -0.0000 -0.0000
vn -0.0000 -0.0000 1.0000
vn 1.0000 -0.0000 -0.0000
vn -0.0000 -0.0000 -1.0000
vn -0.0000 0.5785 -0.8157
vn -0.0000 0.5785 0.8157
vn -0.6719 0.3118 0.6719
vn -0.7071 -0.0000 0.7071
vn -0.6718 0.3118 -0.6719
vn 0.7071 -0.0000 -0.7071
vn 0.6719 -0.3118 -0.6719
vn -0.3118 0.6719 0.6719
vn 0.3118 -0.6719 0.6719
vn -0.3118 0.6719 -0.6719
vn 0.3118 -0.6719 -0.6719
vn -0.6719 -0.3118 -0.6719
vn -0.7071 -0.0000 -0.7071
vn -0.0000 -0.7071 0.7071
vn -0.0000 0.7071 -0.7071
vn 0.6719 0.3118 -0.6719
vn 0.6719 0.3118 0.6719
vn -0.6719 -0.3118 0.6719
vn 0.3118 0.6719 -0.6719
vn -0.3118 -0.6719 -0.6719
vn 0.3118 0.6719 0.6719
vn -0.3118 -0.6719 0.6719
vn -0.0000 0.7071 0.7071
vn -0.0000 -0.7071 -0.7071
vn 0.7071 -0.0000 0.7071
vn 0.6719 -0.3118 0.6719
vn 0.6719 -0.3118 -0.6718
vt 0.874739 0.188596
vt 0.891441 0.000000
vt 0.000000 0.000000
vt 0.933194 0.478070
vt 0.000000 0.478070
vt 0.000000 0.188596
vt 0.891441 0.000000
vt 0.887265 0.000000
vt 0.874739 0.469298
vt 1.000000 0.000000
vt 0.000000 0.000000
vt 0.000000 0.469298
vt 0.887265 0.000000
vt 1.000000 0.000000
vt 0.933194 0.478070
vt 0.887265 0.478070
vt 0.887265 0.175439
vt 0.922756 0.175439
vt 0.887265 0.175439
vt 0.966597 0.175439
vt 0.887265 0.188596
vt 0.000000 0.175439
vt 0.000000 0.188596
vt 0.966597 0.175439
vt 0.000000 0.175439
vt 0.922756 0.175439
vt 0.891441 0.087719
vt 0.887265 0.043860
vt 0.887265 0.043860
vt 1.000000 0.087719
vt 1.000000 0.087719
vt 0.000000 0.043860
vt 0.891441 0.087719
vt 0.000000 0.043860
vt 0.887265 0.407895
vt 0.887265 0.478070
vt 0.954071 0.478070
vt 0.000000 0.407895
vt 0.954071 0.478070
vt 0.000000 0.478070
vt 0.965098 0.070354
vt 0.956279 0.102242
vt 0.983340 0.040233
vt 0.965098 0.102242
vt 0.956279 0.070354
vt 0.973917 0.106663
vt 0.951870 0.102242
vt 0.951870 0.070354
vt 0.976043 0.097301
vt 0.960689 0.070354
vt 0.947460 0.102242
vt 0.956279 0.070354
vt 0.973917 0.040534
vt 0.947460 0.070354
vt 0.974464 0.088199
vt 0.956279 0.102242
vt 0.978533 0.036891
vt 0.960689 0.102242
vt 0.983340 0.058347
vt 0.980569 0.106884
vt 0.947460 0.036891
vt 0.956279 0.070354
vt 0.978750 0.097597
vt 0.951870 0.036891
vt 0.973917 0.058648
vt 0.980569 0.088534
vt 0.965098 0.070354
vt 0.956279 0.036891
vt 0.978724 0.061990
vt 0.960689 0.070354
vt 0.973917 0.068779
vt 0.965098 0.100668
vt 0.971419 0.102011
vt 0.983250 0.065045
vt 0.973917 0.036891
vt 0.965098 0.068779
vt 0.969508 0.068779
vt 0.969635 0.111347
vt 0.969508 0.036891
vt 0.969508 0.100668
vt 0.965098 0.068779
vt 0.973917 0.100668
vt 0.973917 0.065890
vt 0.965098 0.036891
vt 0.971419 0.120608
vt 0.973917 0.068779
vt 0.978299 0.061990
vt 0.969508 0.068779
vt 0.965098 0.036891
vt 0.983250 0.083176
vt 0.965098 0.101950
vt 0.956279 0.070354
vt 0.966882 0.111211
vt 0.951870 0.070354
vt 0.947460 0.070354
vt 0.973917 0.084021
vt 0.965098 0.120547
vt 0.956279 0.036891
vt 0.978868 0.087076
vt 0.960689 0.036891
vt 0.978629 0.049440
vt 0.982808 0.049395
vt 0.977430 0.108280
vt 0.974450 0.049486
vt 0.977493 0.087131
vt 0.977372 0.097508
vt 0.978584 0.074533
vt 0.982791 0.074377
vt 0.968254 0.100682
vt 0.974376 0.074688
vt 0.968263 0.121877
vt 0.968259 0.111279
vt 0.965098 0.070354
vt 0.956279 0.102242
vt 0.983340 0.040233
vt 0.965098 0.102242
vt 0.956279 0.070354
vt 0.973917 0.106663
vt 0.951870 0.102242
vt 0.951870 0.070354
vt 0.976043 0.097301
vt 0.960689 0.070354
vt 0.947460 0.102242
vt 0.956279 0.070354
vt 0.973917 0.040534
vt 0.947460 0.070354
vt 0.974464 0.088199
vt 0.956279 0.102242
vt 0.978533 0.036891
vt 0.960689 0.102242
vt 0.983340 0.058347
vt 0.980569 0.106884
vt 0.947460 0.036891
vt 0.956279 0.070354
vt 0.978750 0.097597
vt 0.951870 0.036891
vt 0.973917 0.058648
vt 0.980569 0.088534
vt 0.965098 0.070354
vt 0.956279 0.036891
vt 0.978724 0.061990
vt 0.960689 0.070354
vt 0.973917 0.068779
vt 0.965098 0.100668
vt 0.971419 0.102011
vt 0.983250 0.065045
vt 0.973917 0.036891
vt 0.965098 0.068779
vt 0.969508 0.068779
vt 0.969635 0.111347
vt 0.969508 0.036891
vt 0.969508 0.100668
vt 0.965098 0.068779
vt 0.973917 0.100668
vt 0.973917 0.065890
vt 0.965098 0.036891
vt 0.971419 0.120608
vt 0.973917 0.068779
vt 0.978299 0.061990
vt 0.969508 0.068779
vt 0.965098 0.036891
vt 0.983250 0.083176
vt 0.965098 0.101950
vt 0.956279 0.070354
vt 0.966882 0.111211
vt 0.951870 0.070354
vt 0.947460 0.070354
vt 0.973917 0.084021
vt 0.965098 0.120547
vt 0.956279 0.036891
vt 0.978868 0.087076
vt 0.960689 0.036891
vt 0.978629 0.049440
vt 0.982808 0.049395
vt 0.977430 0.108280
vt 0.974450 0.049486
vt 0.977493 0.087131
vt 0.977372 0.097508
vt 0.978584 0.074533
vt 0.982791 0.074377
vt 0.968254 0.100682
vt 0.974376 0.074688
vt 0.968263 0.121877
vt 0.968259 0.111279
s 0
usemtl barricade_hm_2
f 3/6/1 5/12/1 4/9/1 1/1/1
f 15/35/2 6/16/2 2/5/2 16/38/2
f 9/24/3 16/39/3 2/4/3 10/26/3
f 8/19/4 15/36/4 16/40/4 9/22/4
f 7/18/5 6/15/5 15/37/5 8/20/5
f 10/25/6 2/5/6 6/16/6 7/17/6
f 14/34/7 10/25/7 7/17/7 11/28/7
f 11/27/5 7/18/5 8/20/5 12/30/5
f 12/29/8 8/21/8 9/23/8 13/32/8
f 13/31/3 9/24/3 10/26/3 14/33/3
f 4/10/3 13/31/3 14/33/3 1/2/3
f 5/13/4 12/29/4 13/32/4 4/11/4
f 3/7/5 11/27/5 12/30/5 5/14/5
f 1/3/6 14/34/6 11/28/6 3/8/6
f 18/43/9 42/102/9 41/101/9 24/57/9
f 17/41/10 18/44/10 24/58/10 21/50/10
f 24/57/11 41/101/11 43/104/11 23/53/11
f 22/51/12 23/54/12 20/48/12 19/47/12
f 23/55/13 43/105/13 44/106/13 20/49/13
f 42/102/14 25/59/14 28/69/14 41/101/14
f 26/63/15 25/60/15 42/103/15 44/106/15
f 28/69/16 27/65/16 43/104/16 41/101/16
f 43/105/17 27/66/17 26/63/17 44/106/17
f 32/78/18 48/112/18 46/109/18 30/73/18
f 21/50/19 24/58/19 23/56/19 22/52/19
f 38/94/20 39/95/20 25/61/20 26/64/20
f 40/100/21 37/89/21 27/67/21 28/70/21
f 30/74/22 46/108/22 45/107/22 36/87/22
f 36/87/23 45/107/23 47/110/23 35/83/23
f 31/77/10 34/81/10 35/84/10 32/79/10
f 35/85/24 47/111/24 48/112/24 32/78/24
f 46/108/25 37/90/25 40/99/25 45/107/25
f 38/93/26 37/91/26 46/109/26 48/112/26
f 40/99/27 39/96/27 47/110/27 45/107/27
f 47/111/28 39/97/28 38/93/28 48/112/28
f 28/70/29 25/62/29 39/98/29 40/100/29
f 37/92/30 38/94/30 26/64/30 27/68/30
f 18/45/31 17/42/31 19/47/31 20/48/31
f 30/75/19 29/71/19 31/77/19 32/79/19
f 34/82/31 33/80/31 36/88/31 35/86/31
f 33/80/12 29/72/12 30/76/12 36/88/12
f 20/49/32 44/106/32 42/103/32 18/46/32
f 50/115/9 74/174/9 73/173/9 56/129/9
f 49/113/10 50/116/10 56/130/10 53/122/10
f 56/129/11 73/173/11 75/176/11 55/125/11
f 54/123/12 55/126/12 52/120/12 51/119/12
f 55/127/33 75/177/33 76/178/33 52/121/33
f 74/174/14 57/131/14 60/141/14 73/173/14
f 58/135/15 57/132/15 74/175/15 76/178/15
f 60/141/16 59/137/16 75/176/16 73/173/16
f 75/177/17 59/138/17 58/135/17 76/178/17
f 64/150/18 80/184/18 78/181/18 62/145/18
f 53/122/19 56/130/19 55/128/19 54/124/19
f 70/166/20 71/167/20 57/133/20 58/136/20
f 72/172/21 69/161/21 59/139/21 60/142/21
f 62/146/22 78/180/22 77/179/22 68/159/22
f 68/159/23 77/179/23 79/182/23 67/155/23
f 63/149/10 66/153/10 67/156/10 64/151/10
f 67/157/24 79/183/24 80/184/24 64/150/24
f 78/180/25 69/162/25 72/171/25 77/179/25
f 70/165/26 69/163/26 78/181/26 80/184/26
f 72/171/27 71/168/27 79/182/27 77/179/27
f 79/183/28 71/169/28 70/165/28 80/184/28
f 60/142/29 57/134/29 71/170/29 72/172/29
f 69/164/30 70/166/30 58/136/30 59/140/30
f 50/117/31 49/114/31 51/119/31 52/120/31
f 62/147/19 61/143/19 63/149/19 64/151/19
f 66/154/31 65/152/31 68/160/31 67/158/31
f 65/152/12 61/144/12 62/148/12 68/160/12
f 52/121/32 76/178/32 74/175/32 50/118/32
