# Blender 3.4.0
# www.blender.org
mtllib concrete_fence_hr_1.mtl
o concrete_fence_hr_1
v -1.800000 2.500000 0.050000
v -1.800000 -0.000000 0.050000
v 1.624267 2.324268 -0.100000
v 1.633930 0.166070 -0.100000
v -1.624267 2.324267 -0.100000
v -1.633930 0.166070 -0.100000
v 1.800000 2.500000 -0.050000
v 1.800000 0.000000 -0.050000
v -1.800000 -0.000000 -0.050000
v -1.800000 2.500000 -0.050000
v 1.624267 0.756705 -0.100000
v -1.624267 0.756704 -0.100000
v 1.633930 0.567358 -0.100000
v -1.633930 0.567358 -0.100000
v -1.680000 0.700972 -0.050000
v -1.680000 2.380000 -0.050000
v 1.680000 2.380000 -0.050000
v 1.680000 0.700972 -0.050000
v 1.680000 0.613428 -0.050000
v 1.680000 0.120000 -0.050000
v -1.680000 0.120000 -0.050000
v -1.680000 0.613428 -0.050000
v 1.800000 2.500000 0.050000
v 1.800000 0.000000 0.050000
v 1.633930 0.166070 0.100000
v 1.624267 2.324268 0.100000
v -1.633930 0.166070 0.100000
v -1.624267 2.324267 0.100000
v -1.624267 0.756704 0.100000
v 1.624267 0.756705 0.100000
v -1.633930 0.567358 0.100000
v 1.633930 0.567358 0.100000
v 1.680000 0.700972 0.050000
v 1.680000 2.380000 0.050000
v -1.680000 2.380000 0.050000
v -1.680000 0.700972 0.050000
v -1.680000 0.613428 0.050000
v -1.680000 0.120000 0.050000
v 1.680000 0.120000 0.050000
v 1.680000 0.613428 0.050000
vn -0.0000 -0.0000 -1.0000
vn -0.0000 1.0000 -0.0000
vn -1.0000 -0.0000 -0.0000
vn 1.0000 -0.0000 -0.0000
vn -0.6678 -0.0000 -0.7444
vn -0.0000 0.6678 -0.7444
vn 0.6678 -0.0000 -0.7444
vn -0.0000 -0.6678 -0.7444
vn 0.7354 -0.0000 -0.6776
vn -0.0000 -0.7354 -0.6776
vn -0.7354 -0.0000 -0.6776
vn -0.0000 0.7354 -0.6776
vn -0.0000 -0.0000 1.0000
vn -0.0000 -0.6678 0.7444
vn -0.0000 0.6678 0.7444
vn -0.7354 -0.0000 0.6776
vn -0.6678 -0.0000 0.7444
vn 0.6678 -0.0000 0.7444
vn -0.0000 -0.7354 0.6776
vn 0.7354 -0.0000 0.6776
vn -0.0000 0.7354 0.6776
vt 0.907467 0.973333
vt 0.907467 1.000000
vt 0.000000 1.000000
vt 0.907467 0.000000
vt 0.000000 0.000000
vt 0.044298 0.929707
vt 0.041862 0.066428
vt 0.863169 0.929707
vt 0.865605 0.066428
vt 0.879689 1.000000
vt 0.000000 1.000000
vt 0.879689 0.000000
vt 0.000000 0.000000
vt 0.879689 0.000000
vt 0.907467 0.000000
vt 0.879689 1.000000
vt 0.907467 1.000000
vt 0.044298 0.302682
vt 0.863169 0.302682
vt 0.041862 0.226943
vt 0.865605 0.226943
vt 0.877218 0.280389
vt 0.877218 0.952000
vt 0.030249 0.952000
vt 0.030249 0.280389
vt 0.030249 0.245371
vt 0.030249 0.048000
vt 0.877218 0.048000
vt 0.877218 0.245371
vt 0.000000 0.973333
vt 0.907467 1.000000
vt 0.907467 0.000000
vt 0.865605 0.066428
vt 0.863169 0.929707
vt 0.041862 0.066428
vt 0.044298 0.929707
vt 0.044298 0.302682
vt 0.863169 0.302682
vt 0.041862 0.226943
vt 0.865605 0.226943
vt 0.877218 0.280389
vt 0.877218 0.952000
vt 0.030249 0.952000
vt 0.030249 0.280389
vt 0.030249 0.245371
vt 0.030249 0.048000
vt 0.877218 0.048000
vt 0.877218 0.245371
s 1
usemtl concrete_fence_hr_1
f 13/20/1 4/7/1 6/9/1 14/21/1
f 23/30/2 7/11/2 10/17/2 1/1/2
f 21/28/1 20/27/1 8/13/1 9/15/1
f 10/16/3 9/14/3 2/4/3 1/2/3
f 17/24/1 16/23/1 10/17/1 7/11/1
f 3/6/1 11/18/1 12/19/1 5/8/1
f 8/12/4 7/10/4 23/31/4 24/32/4
f 18/25/1 17/24/1 7/11/1
f 22/29/1 21/28/1 9/15/1
f 18/25/1 19/26/1 22/29/1 15/22/1
f 5/8/5 12/19/5 15/22/5 16/23/5
f 3/6/6 5/8/6 16/23/6 17/24/6
f 11/18/7 3/6/7 17/24/7 18/25/7
f 12/19/8 11/18/8 18/25/8 15/22/8
f 4/7/9 13/20/9 19/26/9 20/27/9
f 6/9/10 4/7/10 20/27/10 21/28/10
f 14/21/11 6/9/11 21/28/11 22/29/11
f 13/20/12 14/21/12 22/29/12 19/26/12
f 39/47/13 38/46/13 2/5/13 24/32/13
f 35/43/13 34/42/13 23/31/13 1/3/13
f 31/39/13 27/35/13 25/33/13 32/40/13
f 28/36/13 29/37/13 30/38/13 26/34/13
f 40/48/13 39/47/13 24/32/13
f 30/38/14 29/37/14 36/44/14 33/41/14
f 36/44/13 37/45/13 40/48/13 33/41/13
f 28/36/15 26/34/15 34/42/15 35/43/15
f 27/35/16 31/39/16 37/45/16 38/46/16
f 29/37/17 28/36/17 35/43/17 36/44/17
f 26/34/18 30/38/18 33/41/18 34/42/18
f 36/44/13 35/43/13 1/3/13
f 25/33/19 27/35/19 38/46/19 39/47/19
f 32/40/20 25/33/20 39/47/20 40/48/20
f 31/39/21 32/40/21 40/48/21 37/45/21
f 34/42/13 33/41/13 23/31/13
f 33/41/13 40/48/13 24/32/13 23/31/13
f 38/46/13 37/45/13 2/5/13
f 37/45/13 36/44/13 1/3/13 2/5/13
f 16/23/1 15/22/1 10/17/1
f 15/22/1 22/29/1 9/15/1 10/17/1
f 20/27/1 19/26/1 8/13/1
f 19/26/1 18/25/1 7/11/1 8/13/1
