# Blender 3.4.0
# www.blender.org
mtllib fence_b_pillar.mtl
o fence_b_pillar
v 0.200000 0.000000 -0.100000
v 0.200000 2.500000 -0.100000
v 0.200000 0.000000 0.100000
v 0.200000 2.500000 0.100000
v -0.000000 2.500000 -0.100000
v -0.000000 2.500000 0.100000
v -0.000000 0.000000 -0.100000
v -0.000000 0.000000 0.100000
vn -0.0000 -0.0000 -1.0000
vn 1.0000 -0.0000 -0.0000
vn -0.0000 -0.0000 1.0000
vn -0.0000 -1.0000 -0.0000
vn -0.0000 1.0000 -0.0000
vn -1.0000 -0.0000 -0.0000
vt 0.445714 0.000000
vt 0.062857 0.000000
vt 0.460000 0.540000
vt 0.445714 1.000000
vt 0.062857 1.000000
vt 0.460000 0.540000
vt 0.142857 0.000000
vt 0.862857 0.000000
vt 0.540000 0.540000
vt 0.142857 1.000000
vt 0.862857 1.000000
vt 0.540000 0.540000
vt 0.365714 1.000000
vt 0.460000 0.460000
vt 0.460000 1.000000
vt 0.782857 1.000000
vt 0.540000 0.460000
vt 0.540000 1.000000
vt 0.365714 0.000000
vt 0.460000 0.460000
vt 0.462857 0.000000
vt 0.782857 0.000000
vt 0.540000 0.460000
vt 0.540000 0.000000
s 0
usemtl planks_hr_3
f 5/13/1 2/4/1 1/1/1 7/19/1
f 1/2/2 2/5/2 4/10/2 3/7/2
f 8/22/3 3/8/3 4/11/3 6/16/3
f 7/20/4 1/3/4 3/9/4 8/23/4
f 6/17/5 4/12/5 2/6/5 5/14/5
f 7/21/6 8/24/6 6/18/6 5/15/6
