# Blender 3.4.0
# www.blender.org
mtllib fence_a_1.mtl
o fence_a_1
v -2.000000 2.000000 0.000000
v -2.000000 2.000000 -0.050000
v 2.000000 2.000000 0.000000
v 2.000000 2.000000 -0.050000
v -1.806049 2.000000 0.000000
v -1.806049 2.000000 -0.050000
v -1.607686 2.000000 0.000000
v -1.607686 2.000000 -0.050000
v -1.409709 2.000000 0.000000
v -1.409709 2.000000 -0.050000
v -1.219252 2.000000 -0.050000
v -1.219252 2.000000 0.000000
v -1.036724 2.000000 0.000000
v -1.036723 2.000000 -0.050000
v -0.853397 2.000000 0.000000
v -0.853398 2.000000 -0.050000
v -0.669681 2.000000 0.000000
v -0.669681 2.000000 -0.050000
v -0.472497 2.000000 0.000000
v -0.472496 2.000000 -0.050000
v -0.274134 2.000000 0.000000
v -0.274134 2.000000 -0.050000
v -0.076167 2.000000 0.000000
v -0.076167 2.000000 -0.050000
v 0.114284 2.000000 0.000000
v 0.114283 2.000000 -0.050000
v 0.297206 2.000000 0.000000
v 0.297206 2.000000 -0.050000
v 0.480128 2.000000 -0.050000
v 0.480128 2.000000 0.000000
v 0.663055 2.000000 0.000000
v 0.663055 2.000000 -0.050000
v 0.861425 2.000000 0.000000
v 0.861424 2.000000 -0.050000
v 1.058600 2.000000 0.000000
v 1.058601 2.000000 -0.050000
v 1.256968 2.000000 0.000000
v 1.256969 2.000000 -0.050000
v 1.447414 2.000000 0.000000
v 1.447414 2.000000 -0.050000
v 1.629943 2.000000 0.000000
v 1.629944 2.000000 -0.050000
v 1.812868 2.000000 0.000000
v 1.812868 2.000000 -0.050000
v -2.000000 -0.000000 -0.000000
v -2.000000 -0.000000 -0.050000
v 2.000000 -0.000000 -0.050000
v 2.000000 -0.000000 -0.000000
v -1.607686 2.013228 0.000000
v -1.806049 2.013228 0.000000
v -1.806049 2.013228 -0.050000
v -1.607686 2.013228 -0.050000
v -1.219252 2.019778 0.000000
v -1.409709 2.019778 0.000000
v -1.409709 2.019778 -0.050000
v -1.219252 2.019778 -0.050000
v -0.853397 2.009677 0.000000
v -1.036724 2.009677 0.000000
v -1.036723 2.009677 -0.050000
v -0.853398 2.009677 -0.050000
v -0.472497 2.019189 0.000000
v -0.669681 2.019189 0.000000
v -0.669681 2.019189 -0.050000
v -0.472496 2.019189 -0.050000
v -0.076167 2.008228 0.000000
v -0.274134 2.008228 0.000000
v -0.274134 2.008228 -0.050000
v -0.076167 2.008228 -0.050000
v 0.297206 2.020315 0.000000
v 0.114284 2.020315 0.000000
v 0.114283 2.020315 -0.050000
v 0.297206 2.020315 -0.050000
v 0.663055 2.028176 0.000000
v 0.480128 2.028176 0.000000
v 0.480128 2.028176 -0.050000
v 0.663055 2.028176 -0.050000
v 1.058600 2.019089 0.000000
v 0.861425 2.019089 0.000000
v 0.861424 2.019089 -0.050000
v 1.058601 2.019089 -0.050000
v 1.447414 2.011489 0.000000
v 1.256968 2.011489 0.000000
v 1.256969 2.011489 -0.050000
v 1.447414 2.011489 -0.050000
v 1.812868 2.017170 0.000000
v 1.629943 2.017170 0.000000
v 1.629944 2.017170 -0.050000
v 1.812868 2.017170 -0.050000
v -1.950000 0.614035 -0.000000
v 1.950000 0.614035 -0.000000
v -1.950000 0.614035 0.050000
v 1.950000 0.614035 0.050000
v 1.950000 0.407411 -0.000000
v -1.950000 0.407411 0.050000
v -1.950000 0.407411 -0.000000
v 1.950000 0.407411 0.050000
v -1.950000 1.614035 -0.000000
v 1.950000 1.614035 -0.000000
v -1.950000 1.614035 0.050000
v 1.950000 1.614035 0.050000
v 1.950000 1.407411 -0.000000
v -1.950000 1.407411 0.050000
v -1.950000 1.407411 -0.000000
v 1.950000 1.407411 0.050000
v 1.050000 -0.000000 0.050000
v 1.050000 1.881808 0.050000
v 0.940000 -0.000000 0.050000
v 0.940000 1.881808 0.050000
v 1.050000 -0.000000 0.153312
v 0.940000 1.881808 0.153312
v 1.050000 1.881808 0.153312
v 0.940000 -0.000000 0.153312
v -0.950000 -0.000000 0.050000
v -0.950000 1.881808 0.050000
v -1.060000 -0.000000 0.050000
v -1.060000 1.881808 0.050000
v -0.950000 -0.000000 0.153312
v -1.060000 1.881808 0.153312
v -0.950000 1.881808 0.153312
v -1.060000 -0.000000 0.153312
vn -0.0000 -0.0000 -1.0000
vn -0.0000 -0.0000 1.0000
vn -0.0000 1.0000 -0.0000
vn -1.0000 -0.0000 -0.0000
vn 1.0000 -0.0000 -0.0000
vn -0.0000 -1.0000 -0.0000
vt -1.000000 0.481250
vt 0.488108 1.250000
vt -1.000000 1.250000
vt -1.000000 0.518750
vt 0.525608 1.250000
vt -1.000000 1.250000
vt 2.000000 1.250000
vt 0.488108 1.250000
vt 2.000000 0.481250
vt 2.000000 1.250000
vt 0.525608 1.250000
vt 2.000000 0.518750
vt -0.854537 1.250000
vt -0.854537 0.481250
vt -0.854537 1.250000
vt -0.854537 0.518750
vt -0.705765 1.250000
vt -0.705765 0.481250
vt -0.705765 1.250000
vt -0.705765 0.518750
vt -0.557282 0.481250
vt -0.557282 1.250000
vt -0.557282 0.518750
vt -0.557282 1.250000
vt -0.414439 1.250000
vt -0.414439 0.518750
vt -0.414439 1.250000
vt -0.414439 0.481250
vt -0.277543 1.250000
vt -0.277543 0.481250
vt -0.277543 0.518750
vt -0.277543 1.250000
vt -0.140048 1.250000
vt -0.140048 0.481250
vt -0.140048 0.518750
vt -0.140048 1.250000
vt -0.002261 1.250000
vt -0.002261 0.481250
vt -0.002261 0.518750
vt -0.002261 1.250000
vt 0.145627 1.250000
vt 0.145627 0.481250
vt 0.145628 0.518750
vt 0.145628 1.250000
vt 0.294399 0.481250
vt 0.294399 1.250000
vt 0.294400 0.518750
vt 0.294400 1.250000
vt 0.442874 0.481250
vt 0.442874 1.250000
vt 0.442875 0.518750
vt 0.442875 1.250000
vt 0.585713 1.250000
vt 0.585713 0.481250
vt 0.585713 0.518750
vt 0.585713 1.250000
vt 0.722904 1.250000
vt 0.722904 0.481250
vt 0.722904 1.250000
vt 0.722904 0.518750
vt 0.860096 0.518750
vt 0.860096 1.250000
vt 0.860096 1.250000
vt 0.860096 0.481250
vt 0.997292 1.250000
vt 0.997292 0.481250
vt 0.997292 1.250000
vt 0.997292 0.518750
vt 1.146069 0.481250
vt 1.146069 1.250000
vt 1.146068 0.518750
vt 1.146068 1.250000
vt 1.293950 1.250000
vt 1.293950 0.481250
vt 1.293951 1.250000
vt 1.293951 0.518750
vt 1.442726 1.250000
vt 1.442726 0.481250
vt 1.442727 1.250000
vt 1.442727 0.518750
vt 1.585561 1.250000
vt 1.585561 0.481250
vt 1.585561 1.250000
vt 1.585561 0.518750
vt 1.722457 1.250000
vt 1.722457 0.481250
vt 1.722458 1.250000
vt 1.722458 0.518750
vt 1.859651 1.250000
vt 1.859651 0.481250
vt 1.859651 1.250000
vt 1.859651 0.518750
vt 0.488108 -0.250000
vt -1.000000 -0.250000
vt 0.525608 -0.250000
vt -1.000000 -0.250000
vt 2.000000 -0.250000
vt 0.525608 -0.250000
vt 2.000000 -0.250000
vt 0.488108 -0.250000
vt -0.705765 1.250000
vt -0.705765 0.481250
vt -0.854537 1.250000
vt -0.854537 0.481250
vt -0.854537 1.250000
vt -0.854537 0.518750
vt -0.705765 1.250000
vt -0.705765 0.518750
vt -0.414439 1.250000
vt -0.414439 0.481250
vt -0.557282 0.481250
vt -0.557282 1.250000
vt -0.557282 0.518750
vt -0.557282 1.250000
vt -0.414439 1.250000
vt -0.414439 0.518750
vt -0.140048 1.250000
vt -0.140048 0.481250
vt -0.277543 1.250000
vt -0.277543 0.481250
vt -0.277543 0.518750
vt -0.277543 1.250000
vt -0.140048 0.518750
vt -0.140048 1.250000
vt 0.145627 0.481250
vt 0.145627 1.250000
vt -0.002261 1.250000
vt -0.002261 0.481250
vt -0.002261 0.518750
vt -0.002261 1.250000
vt 0.145628 0.518750
vt 0.145628 1.250000
vt 0.442874 0.481250
vt 0.442874 1.250000
vt 0.294399 0.481250
vt 0.294399 1.250000
vt 0.294400 0.518750
vt 0.294400 1.250000
vt 0.442875 0.518750
vt 0.442875 1.250000
vt 0.722904 1.250000
vt 0.722904 0.481250
vt 0.585713 1.250000
vt 0.585713 0.481250
vt 0.585713 0.518750
vt 0.585713 1.250000
vt 0.722904 1.250000
vt 0.722904 0.518750
vt 0.997292 1.250000
vt 0.997292 0.481250
vt 0.860096 1.250000
vt 0.860096 0.481250
vt 0.860096 0.518750
vt 0.860096 1.250000
vt 0.997292 1.250000
vt 0.997292 0.518750
vt 1.293950 0.481250
vt 1.293950 1.250000
vt 1.146069 0.481250
vt 1.146069 1.250000
vt 1.146068 0.518750
vt 1.146068 1.250000
vt 1.293951 0.518750
vt 1.293951 1.250000
vt 1.585561 1.250000
vt 1.585561 0.481250
vt 1.442726 1.250000
vt 1.442726 0.481250
vt 1.442727 1.250000
vt 1.442727 0.518750
vt 1.585561 1.250000
vt 1.585561 0.518750
vt 1.859651 1.250000
vt 1.859651 0.481250
vt 1.722457 1.250000
vt 1.722457 0.481250
vt 1.722458 0.518750
vt 1.722458 1.250000
vt 1.859651 1.250000
vt 1.859651 0.518750
vt -0.516985 -0.250000
vt -0.710526 0.518750
vt -0.710526 -0.250000
vt -0.710526 0.518750
vt -0.516985 2.625000
vt -0.710526 2.625000
vt -0.710526 -0.250000
vt -0.555520 -0.250000
vt -0.710526 0.481250
vt -0.710526 0.481250
vt -0.710526 2.625000
vt -0.555520 2.625000
vt -0.516985 2.625000
vt -0.555559 0.518750
vt -0.555559 2.625000
vt -0.555559 -0.250000
vt -0.555559 0.481250
vt -0.516985 -0.250000
vt -0.555559 0.518750
vt -0.555559 -0.250000
vt -0.555559 0.481250
vt -0.555559 2.625000
vt -0.516985 -0.250000
vt -0.710526 0.518750
vt -0.710526 -0.250000
vt -0.710526 0.518750
vt -0.516985 2.625000
vt -0.710526 2.625000
vt -0.710526 -0.250000
vt -0.555520 -0.250000
vt -0.710526 0.481250
vt -0.710526 0.481250
vt -0.710526 2.625000
vt -0.555520 2.625000
vt -0.516985 2.625000
vt -0.555559 0.518750
vt -0.555559 2.625000
vt -0.555559 -0.250000
vt -0.555559 0.481250
vt -0.516985 -0.250000
vt -0.555559 0.518750
vt -0.555559 -0.250000
vt -0.555559 0.481250
vt -0.555559 2.625000
vt -0.517143 -0.251429
vt -0.711429 -0.251429
vt -0.711429 0.520000
vt -0.711429 0.561429
vt -0.517143 1.137143
vt -0.711429 1.137143
vt -0.554286 -0.251429
vt -0.711429 -0.251429
vt -0.711429 0.480000
vt -0.711429 0.480000
vt -0.554286 1.137143
vt -0.711429 1.137143
vt -0.571786 -0.251429
vt -0.634286 -0.251429
vt -0.634286 0.520000
vt -0.634286 0.480000
vt -0.634286 1.137143
vt -0.648929 1.137143
vt -0.634286 0.561429
vt -0.571786 1.137143
vt -0.634286 1.137143
vt -0.634286 -0.251429
vt -0.648929 -0.251429
vt -0.634286 0.480000
vt -0.517143 -0.251429
vt -0.711429 -0.251429
vt -0.711429 0.520000
vt -0.711429 0.561429
vt -0.517143 1.137143
vt -0.711429 1.137143
vt -0.554286 -0.251429
vt -0.711429 -0.251429
vt -0.711429 0.480000
vt -0.711429 0.480000
vt -0.554286 1.137143
vt -0.711429 1.137143
vt -0.571786 -0.251429
vt -0.634286 -0.251429
vt -0.634286 0.520000
vt -0.634286 0.480000
vt -0.634286 1.137143
vt -0.648929 1.137143
vt -0.634286 0.561429
vt -0.571786 1.137143
vt -0.634286 1.137143
vt -0.634286 -0.251429
vt -0.648929 -0.251429
vt -0.634286 0.480000
s 0
usemtl planks_hr_3
f 24/52/1 26/56/1 47/97/1
f 48/99/2 25/53/2 23/50/2
f 1/1/3 5/14/3 6/16/3 2/4/3
f 5/13/2 7/17/2 49/101/2 50/103/2
f 41/85/2 43/89/2 85/173/2 86/175/2
f 15/34/3 17/38/3 18/39/3 16/35/3
f 42/88/4 41/86/4 86/176/4 87/177/4
f 23/49/3 25/54/3 26/55/3 24/51/3
f 39/82/5 40/84/5 84/172/5 81/166/5
f 54/111/3 53/110/3 56/116/3 55/113/3
f 37/77/2 39/81/2 81/165/2 82/167/2
f 87/177/3 86/176/3 85/174/3 88/180/3
f 38/80/4 37/78/4 82/168/4 83/170/4
f 70/144/3 69/142/3 72/148/3 71/145/3
f 50/104/3 49/102/3 52/108/3 51/106/3
f 67/137/3 66/135/3 65/133/3 68/139/3
f 34/71/4 33/69/4 78/159/4 79/161/4
f 7/18/3 9/21/3 10/23/3 8/20/3
f 30/63/2 31/65/2 73/149/2 74/151/2
f 25/53/2 27/57/2 69/141/2 70/143/2
f 63/129/3 62/128/3 61/125/3 64/131/3
f 1/2/4 2/5/4 46/95/4 45/93/4
f 47/97/1 46/96/1 24/52/1
f 46/96/1 2/6/1 6/15/1
f 6/15/1 8/19/1 46/96/1
f 8/19/1 10/24/1 46/96/1
f 46/96/1 10/24/1 11/25/1
f 44/91/1 4/10/1 47/97/1
f 38/79/1 40/83/1 47/97/1
f 40/83/1 42/87/1 47/97/1
f 42/87/1 44/91/1 47/97/1
f 11/25/1 14/32/1 46/96/1
f 14/32/1 16/36/1 46/96/1
f 46/96/1 16/36/1 18/40/1
f 32/67/1 34/72/1 47/97/1
f 34/72/1 36/75/1 47/97/1
f 36/75/1 38/79/1 47/97/1
f 18/40/1 20/44/1 46/96/1
f 20/44/1 22/48/1 46/96/1
f 46/96/1 22/48/1 24/52/1
f 26/56/1 28/59/1 47/97/1
f 28/59/1 29/62/1 47/97/1
f 29/62/1 32/67/1 47/97/1
f 1/3/2 45/94/2 5/13/2
f 45/94/2 48/99/2 23/50/2
f 5/13/2 45/94/2 7/17/2
f 48/99/2 3/7/2 43/89/2
f 41/85/2 39/81/2 48/99/2
f 39/81/2 37/77/2 48/99/2
f 48/99/2 43/89/2 41/85/2
f 7/17/2 45/94/2 9/22/2
f 12/27/2 9/22/2 45/94/2
f 12/27/2 45/94/2 13/29/2
f 35/73/2 33/70/2 48/99/2
f 33/70/2 31/65/2 48/99/2
f 48/99/2 37/77/2 35/73/2
f 13/29/2 45/94/2 15/33/2
f 17/37/2 15/33/2 45/94/2
f 17/37/2 45/94/2 19/41/2
f 30/63/2 27/57/2 48/99/2
f 27/57/2 25/53/2 48/99/2
f 48/99/2 31/65/2 30/63/2
f 19/41/2 45/94/2 21/46/2
f 23/50/2 21/46/2 45/94/2
f 4/11/5 3/8/5 48/100/5 47/98/5
f 26/55/4 25/54/4 70/144/4 71/145/4
f 74/152/3 73/150/3 76/156/3 75/153/3
f 8/19/1 6/15/1 51/105/1 52/107/1
f 6/16/4 5/14/4 50/104/4 51/106/4
f 28/59/1 26/56/1 71/146/1 72/147/1
f 59/121/3 58/120/3 57/118/3 60/123/3
f 10/23/4 9/21/4 54/111/4 55/113/4
f 9/22/2 12/27/2 53/109/2 54/112/2
f 19/42/5 20/43/5 64/131/5 61/125/5
f 11/26/3 12/28/3 13/30/3 14/31/3
f 13/29/2 15/33/2 57/117/2 58/119/2
f 15/34/5 16/35/5 60/123/5 57/118/5
f 22/47/4 21/45/4 66/135/4 67/137/4
f 79/161/3 78/159/3 77/157/3 80/163/3
f 17/37/2 19/41/2 61/126/2 62/127/2
f 23/49/5 24/51/5 68/139/5 65/133/5
f 14/31/4 13/30/4 58/120/4 59/121/4
f 31/66/3 33/69/3 34/71/3 32/68/3
f 35/74/5 36/76/5 80/163/5 77/157/5
f 33/70/2 35/73/2 77/158/2 78/160/2
f 18/39/4 17/38/4 62/128/4 63/129/4
f 20/43/3 19/42/3 21/45/3 22/47/3
f 11/25/1 10/24/1 55/114/1 56/115/1
f 7/18/5 8/20/5 52/108/5 49/102/5
f 44/91/1 42/87/1 87/178/1 88/179/1
f 28/60/3 27/58/3 30/64/3 29/61/3
f 27/58/5 28/60/5 72/148/5 69/142/5
f 75/153/4 29/61/4 30/64/4 74/152/4
f 40/83/1 38/79/1 83/169/1 84/171/1
f 83/170/3 82/168/3 81/166/3 84/172/3
f 36/75/1 34/72/1 79/162/1 80/164/1
f 32/67/1 29/62/1 75/154/1 76/155/1
f 43/90/5 44/92/5 88/180/5 85/174/5
f 36/76/3 35/74/3 37/78/3 38/80/3
f 24/52/1 22/48/1 67/138/1 68/140/1
f 21/46/2 23/50/2 65/134/2 66/136/2
f 20/44/1 18/40/1 63/130/1 64/132/1
f 40/84/3 39/82/3 41/86/3 42/88/3
f 16/36/1 14/32/1 59/122/1 60/124/1
f 12/28/5 11/26/5 56/116/5 53/110/5
f 31/66/5 32/68/5 76/156/5 73/150/5
f 3/9/3 4/12/3 44/92/3 43/90/3
f 94/196/6 95/198/6 93/193/6 96/202/6
f 93/194/5 90/184/5 92/190/5 96/201/5
f 94/196/2 96/202/2 92/191/2 91/187/2
f 92/192/3 90/185/3 89/181/3 91/188/3
f 89/182/4 95/199/4 94/197/4 91/189/4
f 89/183/1 90/186/1 93/195/1 95/200/1
f 102/218/6 103/220/6 101/215/6 104/224/6
f 101/216/5 98/206/5 100/212/5 104/223/5
f 102/218/2 104/224/2 100/213/2 99/209/2
f 100/214/3 98/207/3 97/203/3 99/210/3
f 97/204/4 103/221/4 102/219/4 99/211/4
f 97/205/1 98/208/1 101/217/1 103/222/1
f 111/243/3 106/228/3 108/234/3 110/240/3
f 108/235/1 106/229/1 105/225/1 107/231/1
f 112/246/4 110/241/4 108/236/4 107/232/4
f 110/242/2 112/247/2 109/237/2 111/244/2
f 105/226/5 106/230/5 111/245/5 109/238/5
f 105/227/6 109/239/6 112/248/6 107/233/6
f 119/267/3 114/252/3 116/258/3 118/264/3
f 116/259/1 114/253/1 113/249/1 115/255/1
f 120/270/4 118/265/4 116/260/4 115/256/4
f 118/266/2 120/271/2 117/261/2 119/268/2
f 113/250/5 114/254/5 119/269/5 117/262/5
f 113/251/6 117/263/6 120/272/6 115/257/6
