# Blender 3.4.0
# www.blender.org
mtllib fence_e_pillar_1_corner.mtl
o fence_e_pillar_1_corner
v 0.129999 2.200000 -0.001000
v 0.129999 0.230000 -0.001000
v 0.160001 1.770000 -0.009999
v 0.160001 1.830000 -0.009999
v 0.220001 1.770000 -0.009999
v 0.220001 1.830000 -0.009999
v 0.160001 1.770000 0.010001
v 0.160001 1.830000 0.010001
v 0.220001 1.770000 0.010001
v 0.220001 1.830000 0.010001
v 0.160001 0.570000 -0.009999
v 0.160001 0.630000 -0.009999
v 0.220001 0.570000 -0.009999
v 0.220001 0.630000 -0.009999
v 0.160001 0.570000 0.010001
v 0.160001 0.630000 0.010001
v 0.220001 0.570000 0.010001
v 0.220001 0.630000 0.010001
v 0.129999 2.200000 -0.000000
v 0.129999 0.230000 -0.000000
v -0.000001 2.200000 0.130000
v -0.000001 0.230000 0.130000
v 0.000840 2.200000 0.130000
v 0.000840 0.230000 0.130000
v 0.049999 2.200000 -0.001000
v -0.000001 2.200000 0.049000
v -0.000001 2.200000 -0.001000
v -0.000001 0.230000 0.049000
v 0.049999 0.230000 -0.001000
v -0.000001 0.230000 -0.001000
v 0.000840 2.200000 0.049000
v 0.049999 2.200000 -0.000000
v 0.000840 2.200000 -0.000000
v 0.049999 0.230000 0.000000
v 0.000840 0.230000 0.049000
v 0.000840 0.230000 0.000000
v -0.009999 1.770000 0.219999
v -0.009999 1.830000 0.219999
v -0.009999 1.770000 0.159999
v -0.009999 1.830000 0.159999
v 0.010001 1.770000 0.219999
v 0.010001 1.830000 0.219999
v 0.010001 1.770000 0.159999
v 0.010001 1.830000 0.159999
v -0.009999 0.570000 0.219999
v -0.009999 0.630000 0.219999
v -0.009999 0.570000 0.159999
v -0.009999 0.630000 0.159999
v 0.010001 0.570000 0.219999
v 0.010001 0.630000 0.219999
v 0.010001 0.570000 0.159999
v 0.010001 0.630000 0.159999
v 0.130002 0.240000 0.020005
v 0.130002 0.240000 -0.019995
v 0.170002 0.200000 0.020005
v 0.170002 0.200000 -0.019995
v 0.130002 2.170000 0.020005
v 0.130002 2.170000 -0.019995
v 0.170002 2.210000 0.020005
v 0.170002 2.210000 -0.019995
v 0.020002 2.170000 0.130005
v -0.019998 2.170000 0.130005
v 0.020002 2.210000 0.170005
v -0.019998 2.210000 0.170005
v 0.020002 0.240000 0.130005
v -0.019998 0.240000 0.130005
v 0.020002 0.200000 0.170005
v -0.019998 0.200000 0.170005
v -0.019998 2.170000 -0.019995
v -0.019998 2.210000 -0.019995
v 0.020002 2.170000 0.020005
v 0.020002 2.210000 0.020005
v 0.020002 0.240000 0.020005
v -0.019998 0.240000 -0.019995
v 0.020002 0.200000 0.020005
v -0.019998 0.200000 -0.019995
vn -1.0000 -0.0000 -0.0000
vn -0.0000 -0.0000 -1.0000
vn -0.0000 -0.0000 1.0000
vn -0.0000 -1.0000 -0.0000
vn -0.0000 1.0000 -0.0000
vn 1.0000 -0.0000 -0.0000
vt 0.662500 2.962499
vt 0.662500 -1.962500
vt 0.040000 0.651875
vt 0.497500 0.040000
vt 0.040000 0.666875
vt 0.497500 0.040000
vt 0.055000 0.651875
vt 0.497500 0.055000
vt 0.055000 0.666875
vt 0.497500 0.055000
vt 0.040000 0.651875
vt 0.502500 0.040000
vt 0.040000 0.666875
vt 0.502500 0.040000
vt 0.055000 0.651875
vt 0.502500 0.055000
vt 0.055000 0.666875
vt 0.502500 0.055000
vt 0.040000 0.351878
vt 0.497501 0.040000
vt 0.040000 0.366878
vt 0.497501 0.040000
vt 0.055000 0.351879
vt 0.497501 0.055000
vt 0.055000 0.366879
vt 0.497501 0.055000
vt 0.040001 0.351883
vt 0.502501 0.040000
vt 0.040001 0.366882
vt 0.502501 0.040000
vt 0.055001 0.351883
vt 0.502501 0.055000
vt 0.055001 0.366882
vt 0.502501 0.055000
vt 0.662500 2.962499
vt 0.662500 -1.962500
vt 2.962500 0.663741
vt -1.962499 0.663759
vt 2.962500 0.663722
vt -1.962499 0.663741
vt 0.462500 2.962499
vt 2.962500 0.461241
vt 0.355546 2.962498
vt 2.962499 0.350880
vt -1.962500 0.461259
vt 0.462500 -1.962500
vt 0.355548 -1.962500
vt -1.962500 0.350894
vt 2.962500 0.460837
vt 0.462500 2.962499
vt 0.357615 2.962499
vt 2.962499 0.352889
vt 0.462500 -1.962500
vt -1.962500 0.460855
vt 0.357616 -1.962500
vt -1.962500 0.352907
vt -0.055000 0.651874
vt 0.497500 -0.055000
vt -0.055000 0.666874
vt 0.497500 -0.055000
vt -0.040000 0.651875
vt 0.497500 -0.040000
vt -0.040000 0.666874
vt 0.497500 -0.040000
vt -0.055000 0.651875
vt 0.502500 -0.055000
vt -0.055000 0.666874
vt 0.502500 -0.055000
vt -0.040000 0.651875
vt 0.502500 -0.040000
vt -0.040000 0.666874
vt 0.502500 -0.040000
vt -0.055000 0.351880
vt 0.497501 -0.055000
vt -0.055000 0.366879
vt 0.497501 -0.055000
vt -0.040000 0.351880
vt 0.497501 -0.040000
vt -0.040000 0.366879
vt 0.497501 -0.040000
vt -0.054999 0.351880
vt 0.502501 -0.055000
vt -0.054999 0.366879
vt 0.502501 -0.055000
vt -0.039999 0.351880
vt 0.502501 -0.040000
vt -0.039999 0.366879
vt 0.502501 -0.040000
vt 0.195556 0.495556
vt 0.195556 0.285556
vt 0.285556 0.504444
vt 0.285556 0.804445
vt 0.195556 0.285556
vt 0.195556 0.504444
vt 0.285556 0.495556
vt 0.285556 0.804446
vt 0.204444 0.495556
vt 0.204444 0.276667
vt 0.276667 0.504444
vt 0.276668 0.795559
vt 0.204444 0.504444
vt 0.204444 0.276667
vt 0.276667 0.495556
vt 0.276666 0.795559
vt 0.195556 0.495556
vt 0.714444 0.504444
vt 0.714444 0.804450
vt 0.195556 0.714444
vt 0.195556 0.504444
vt 0.714444 0.495556
vt 0.195556 0.714444
vt 0.714443 0.804450
vt 0.723333 0.504444
vt 0.723337 0.795557
vt 0.204444 0.495556
vt 0.204444 0.723333
vt 0.723333 0.495556
vt 0.204444 0.723333
vt 0.723336 0.795558
vt 0.204444 0.504444
vt 0.714444 0.504444
vt 0.714444 0.862222
vt 0.137778 0.714444
vt 0.137778 0.495556
vt 0.714444 0.495556
vt 0.714444 0.862222
vt 0.137778 0.714444
vt 0.137778 0.504444
vt 0.723333 0.504444
vt 0.723333 0.871111
vt 0.128889 0.723333
vt 0.128889 0.495556
vt 0.723333 0.871111
vt 0.723333 0.495556
vt 0.128889 0.504444
vt 0.128889 0.723333
vt 0.285556 0.504444
vt 0.285556 0.862222
vt 0.137778 0.285556
vt 0.137778 0.495556
vt 0.285556 0.495556
vt 0.285555 0.862222
vt 0.137778 0.504444
vt 0.137778 0.285556
vt 0.276667 0.504444
vt 0.276667 0.871111
vt 0.128889 0.276667
vt 0.128889 0.495556
vt 0.276667 0.871111
vt 0.276667 0.495556
vt 0.128889 0.276667
vt 0.128889 0.504444
vt 0.162222 0.504444
vt 0.162222 0.714444
vt 0.171111 0.714444
vt 0.171111 0.504444
vt 0.162222 0.723333
vt 0.162222 0.504444
vt 0.171111 0.504444
vt 0.171111 0.723333
vt 0.171111 0.495556
vt 0.171111 0.714444
vt 0.162222 0.714444
vt 0.162222 0.495556
vt 0.171111 0.495556
vt 0.171111 0.723333
vt 0.162222 0.723333
vt 0.162222 0.495556
vt 0.171111 0.495556
vt 0.171111 0.285556
vt 0.162222 0.285556
vt 0.162222 0.495556
vt 0.162222 0.285556
vt 0.162222 0.504444
vt 0.171111 0.504444
vt 0.171111 0.285556
vt 0.171111 0.495556
vt 0.171111 0.276667
vt 0.162222 0.276667
vt 0.162222 0.495556
vt 0.162222 0.504444
vt 0.162222 0.276667
vt 0.171111 0.276667
vt 0.171111 0.504444
s 0
usemtl metal_hr_2
f 3/3/2 4/5/2 6/9/2 5/7/2
f 9/15/3 10/17/3 8/13/3 7/11/3
f 5/8/4 9/16/4 7/12/4 3/4/4
f 10/18/5 6/10/5 4/6/5 8/14/5
f 11/19/2 12/21/2 14/25/2 13/23/2
f 17/31/3 18/33/3 16/29/3 15/27/3
f 13/24/4 17/32/4 15/28/4 11/20/4
f 18/34/5 14/26/5 12/22/5 16/30/5
f 37/57/1 38/59/1 40/63/1 39/61/1
f 43/69/6 44/71/6 42/67/6 41/65/6
f 39/62/4 43/70/4 41/66/4 37/58/4
f 44/72/5 40/64/5 38/60/5 42/68/5
f 45/73/1 46/75/1 48/79/1 47/77/1
f 51/85/6 52/87/6 50/83/6 49/81/6
f 47/78/4 51/86/4 49/82/4 45/74/4
f 52/88/5 48/80/5 46/76/5 50/84/5
f 69/153/4 58/109/4 57/105/4 71/161/4
f 76/181/4 56/101/4 55/97/4 75/177/4
f 74/173/2 54/93/2 56/102/2 76/182/2
f 74/174/5 73/169/5 53/89/5 54/94/5
f 75/178/3 55/98/3 53/90/3 73/170/3
f 56/103/6 60/117/6 59/113/6 55/99/6
f 54/95/1 53/91/1 57/106/1 58/110/1
f 70/157/2 60/118/2 58/111/2 69/154/2
f 55/100/3 59/114/3 57/107/3 53/92/3
f 54/96/2 58/112/2 60/119/2 56/104/2
f 60/120/5 70/158/5 72/165/5 59/115/5
f 59/116/3 72/166/3 71/162/3 57/108/3
f 62/125/2 61/121/2 65/137/2 66/141/2
f 62/126/1 66/142/1 68/149/1 64/133/1
f 64/134/3 68/150/3 67/145/3 63/129/3
f 63/130/6 67/146/6 65/138/6 61/122/6
f 72/167/6 63/131/6 61/123/6 71/163/6
f 70/159/5 64/135/5 63/132/5 72/168/5
f 64/136/1 70/160/1 69/155/1 62/127/1
f 62/128/4 69/156/4 71/164/4 61/124/4
f 67/147/6 75/179/6 73/171/6 65/139/6
f 66/143/5 65/140/5 73/172/5 74/175/5
f 66/144/1 74/176/1 76/183/1 68/151/1
f 68/152/4 76/184/4 75/180/4 67/148/4
usemtl grate_hm_1
f 26/42/1 28/45/1 22/38/1 21/37/1
f 35/54/6 31/49/6 23/39/6 24/40/6
f 32/50/3 34/53/3 20/36/3 19/35/3
f 25/41/2 29/46/2 30/47/2 27/43/2
f 27/44/1 30/48/1 28/45/1 26/42/1
f 34/53/3 32/50/3 33/51/3 36/55/3
f 36/56/6 33/52/6 31/49/6 35/54/6
f 25/41/2 1/1/2 2/2/2 29/46/2
