# Blender 3.4.0
# www.blender.org
mtllib metal_fence_hr_1.mtl
o metal_fence_hr_1
v -1.690000 2.390000 0.050000
v -1.690000 0.110000 0.050000
v 1.690000 2.390000 0.050000
v 1.690000 0.110000 0.050000
v 1.690000 2.390000 -0.050000
v 1.690000 0.110000 -0.050000
v -1.690000 2.390000 -0.050000
v -1.690000 0.110000 -0.050000
v 1.800000 2.500000 -0.050000
v 1.800000 0.000000 -0.050000
v -1.800000 -0.000000 -0.050000
v -1.800000 2.500000 -0.050000
v -1.690000 1.124816 0.050000
v 1.690000 1.124816 0.050000
v 1.690000 1.135832 -0.050000
v -1.690000 1.135832 -0.050000
v 1.690000 1.327591 0.050000
v -1.690000 1.320763 -0.050000
v -1.690000 1.327591 0.050000
v 1.690000 1.320763 -0.050000
v 1.690000 1.135832 -0.020000
v 1.690000 0.110000 -0.020000
v -1.690000 0.110000 -0.020000
v -1.690000 1.320763 -0.020000
v -1.690000 2.390000 -0.020000
v 1.690000 2.390000 -0.020000
v -1.690000 1.135832 -0.020000
v 1.690000 1.320763 -0.020000
v -1.800000 -0.000000 0.050000
v 1.800000 0.000000 0.050000
v 1.800000 2.500000 0.050000
v -1.800000 2.500000 0.050000
v -1.690000 1.124816 0.020000
v 1.690000 1.124816 0.020000
v -1.690000 1.327591 0.020000
v 1.690000 1.327591 0.020000
v -1.690000 0.110000 0.020000
v 1.690000 0.110000 0.020000
v 1.690000 2.390000 0.020000
v -1.690000 2.390000 0.020000
vn -1.0000 -0.0000 -0.0000
vn -0.0000 -1.0000 -0.0000
vn -0.0000 -0.0000 -1.0000
vn -0.0000 1.0000 -0.0000
vn 1.0000 -0.0000 -0.0000
vn -0.0000 -0.0000 1.0000
vt 0.879739 0.956000
vt 0.879739 0.044000
vt 0.027728 0.956000
vt 0.027728 0.044000
vt 0.027728 0.956000
vt 0.027728 0.044000
vt 0.879738 0.956000
vt 0.879739 0.044000
vt 0.879689 1.000000
vt 0.000000 1.000000
vt 0.879689 0.000000
vt 0.000000 0.000000
vt 0.879689 0.000000
vt 0.907467 0.000000
vt 0.879689 1.000000
vt 0.907467 1.000000
vt 0.879739 0.449926
vt 0.027728 0.449926
vt 0.027728 0.454333
vt 0.879739 0.454333
vt 0.027728 0.531036
vt 0.879739 0.528305
vt 0.879739 0.531036
vt 0.027728 0.528305
vt 0.027728 0.454333
vt 0.027728 0.044000
vt 0.879739 0.044000
vt 0.879739 0.528305
vt 0.879738 0.956000
vt 0.027728 0.956000
vt 0.879739 0.454333
vt 0.027728 0.528305
vt 0.907467 0.000000
vt 0.907467 0.000000
vt 0.000000 -0.000000
vt 0.000000 0.973333
vt 0.907466 1.000000
vt 0.000000 1.000000
vt 0.907467 0.973333
vt 0.907467 1.000000
vt 0.879739 0.449926
vt 0.027728 0.449926
vt 0.879739 0.531036
vt 0.027728 0.531036
vt 0.879739 0.044000
vt 0.027728 0.044000
vt 0.027728 0.956000
vt 0.879739 0.956000
s 1
usemtl metal_fence_hr_1
f 17/21/1 3/3/1 39/47/1 36/44/1
f 31/36/4 9/10/4 12/16/4 32/39/4
f 10/11/5 9/9/5 31/37/5 30/34/5
f 12/15/1 11/13/1 29/33/1 32/40/1
f 19/23/6 13/17/6 14/18/6 17/21/6
f 14/18/2 13/17/2 33/41/2 34/42/2
f 4/4/6 2/2/6 29/33/6 30/35/6
f 19/23/6 1/1/6 32/40/6
f 1/1/6 3/3/6 31/38/6 32/40/6
f 14/18/6 4/4/6 30/35/6
f 33/41/6 37/45/6 38/46/6 34/42/6
f 40/48/6 35/43/6 36/44/6 39/47/6
f 19/23/4 17/21/4 36/44/4 35/43/4
f 13/17/5 2/2/5 37/45/5 33/41/5
f 1/1/5 19/23/5 35/43/5 40/48/5
f 4/4/1 14/18/1 34/42/1 38/46/1
f 3/3/2 1/1/2 40/48/2 39/47/2
f 2/2/4 4/4/4 38/46/4 37/45/4
f 3/3/6 17/21/6 31/38/6
f 17/21/6 14/18/6 30/35/6 31/38/6
f 2/2/6 13/17/6 29/33/6
f 13/17/6 19/23/6 32/40/6 29/33/6
usemtl 
f 16/20/2 15/19/2 21/25/2 27/31/2
f 7/7/3 18/22/3 12/16/3
f 8/8/3 6/6/3 10/12/3 11/14/3
f 5/5/3 7/7/3 12/16/3 9/10/3
f 20/24/3 15/19/3 16/20/3 18/22/3
f 15/19/1 6/6/1 22/26/1 21/25/1
f 16/20/3 8/8/3 11/14/3
f 20/24/3 5/5/3 9/10/3
f 21/25/3 22/26/3 23/27/3 27/31/3
f 26/30/3 28/32/3 24/28/3 25/29/3
f 20/24/4 18/22/4 24/28/4 28/32/4
f 5/5/1 20/24/1 28/32/1 26/30/1
f 7/7/2 5/5/2 26/30/2 25/29/2
f 6/6/4 8/8/4 23/27/4 22/26/4
f 8/8/5 16/20/5 27/31/5 23/27/5
f 18/22/5 7/7/5 25/29/5 24/28/5
f 6/6/3 15/19/3 10/12/3
f 15/19/3 20/24/3 9/10/3 10/12/3
f 18/22/3 16/20/3 11/14/3 12/16/3
