# Blender 3.4.0
# www.blender.org
mtllib metal_fence_hr_1_pillar_1_tall.mtl
o metal_fence_hr_1_pillar_1_tall
v -0.200000 -0.000000 -0.200000
v 0.200000 -0.000000 -0.200000
v -0.200000 0.000000 0.200000
v 0.200000 0.000000 0.200000
v 0.200000 5.000000 0.100000
v -0.200000 5.000000 -0.100000
v -0.200000 5.000000 0.100000
v 0.200000 5.000000 -0.100000
v 0.200000 5.000000 -0.100000
v -0.200000 5.000000 0.100000
v -0.200000 5.000000 -0.100000
v 0.200000 5.000000 0.100000
v -0.070000 -0.000000 0.200000
v 0.070000 -0.000000 0.200000
v -0.070000 -0.000000 0.300000
v 0.070000 -0.000000 0.300000
v 0.070000 4.079999 0.120099
v -0.070000 4.000000 0.220099
v -0.070000 4.079999 0.120099
v 0.070000 4.000000 0.220099
v 0.070000 -0.000000 -0.200000
v -0.070000 -0.000000 -0.200000
v 0.070000 -0.000000 -0.300000
v -0.070000 -0.000000 -0.300000
v -0.070000 4.079999 -0.120099
v 0.070000 4.000000 -0.220099
v 0.070000 4.079999 -0.120099
v -0.070000 4.000000 -0.220099
vn 1.0000 -0.0000 -0.0000
vn -0.0000 0.0200 0.9998
vn -1.0000 -0.0000 -0.0000
vn -0.0000 1.0000 -0.0000
vn -0.0000 0.0200 -0.9998
vn -0.0000 0.7809 0.6247
vn -0.0000 0.7809 -0.6247
vt 0.909256 0.000000
vt 0.907303 0.000000
vt 0.909256 0.000000
vt 1.000000 0.000000
vt 0.907303 0.000000
vt 0.998047 -0.000000
vt 0.998047 -0.000000
vt 1.000000 0.000000
vt 0.975849 2.000000
vt 1.000000 1.998402
vt 0.931454 0.420000
vt 0.907303 1.998403
vt 0.975849 2.000000
vt 0.931454 0.580000
vt 0.931454 2.000000
vt 1.000000 1.998403
vt 0.975849 0.420000
vt 0.931454 2.000000
vt 0.907302 1.998403
vt 0.975849 0.580000
vt 0.000000 0.474609
vt 0.000000 0.474609
vt 0.000000 0.468359
vt 0.000000 0.515234
vt 0.000000 0.515234
vt 0.000000 0.521484
vt 0.907547 0.475000
vt 0.883019 0.521875
vt 0.888679 0.468750
vt 0.888855 0.515234
vt 0.905660 0.468750
vt 0.907547 0.475000
vt 0.883019 0.468750
vt 0.888855 0.515234
vt 0.888679 0.521875
vt 0.905660 0.521875
vt 0.000000 0.474609
vt 0.000000 0.474609
vt 0.000000 0.468359
vt 0.000000 0.515234
vt 0.000000 0.515234
vt 0.000000 0.521484
vt 0.907547 0.475000
vt 0.883019 0.521875
vt 0.888679 0.468750
vt 0.888855 0.515234
vt 0.905660 0.468750
vt 0.907547 0.475000
vt 0.883019 0.468750
vt 0.888855 0.515234
vt 0.888679 0.521875
vt 0.905660 0.521875
s 0
usemtl metal_fence_hr_1
f 2/3/1 9/15/1 5/9/1 4/7/1
f 4/8/2 5/10/2 7/12/2 3/5/2
f 3/6/3 7/13/3 11/18/3 1/1/3
f 12/20/4 8/14/4 6/11/4 10/17/4
f 1/2/5 11/19/5 9/16/5 2/4/5
f 14/22/1 17/27/1 20/34/1 16/25/1
f 16/26/2 20/35/2 18/29/2 15/23/2
f 15/24/3 18/30/3 19/32/3 13/21/3
f 20/36/6 17/28/6 19/33/6 18/31/6
f 22/38/3 25/43/3 28/50/3 24/41/3
f 24/42/5 28/51/5 26/45/5 23/39/5
f 23/40/1 26/46/1 27/48/1 21/37/1
f 28/52/7 25/44/7 27/49/7 26/47/7
