# Blender 3.4.0
# www.blender.org
mtllib brick_mx_4_3.mtl
o brick_mx_4_3
v -0.050000 0.000000 -0.069999
v -0.050000 0.000000 0.070000
v -0.050000 0.090000 -0.069999
v -0.050000 0.090000 0.070000
v 0.015001 0.000000 0.025000
v 0.030001 0.000000 0.070000
v 0.050001 0.000000 -0.069999
v 0.060001 0.000000 -0.020000
v 0.050001 0.090000 -0.069999
v 0.015001 0.090000 0.025000
v 0.030001 0.090000 0.070000
v 0.060001 0.090000 -0.020000
vn -0.0000 -1.0000 -0.0000
vn -0.0000 1.0000 -0.0000
vn -1.0000 -0.0000 -0.0000
vn -0.0000 -0.0000 1.0000
vn -0.0000 -0.0000 -1.0000
vn 0.9487 -0.0000 -0.3162
vn 0.9806 -0.0000 -0.1961
vn 0.7071 -0.0000 0.7071
vt 0.500000 0.500000
vt 0.500000 0.000000
vt 0.500000 0.142157
vt 0.500000 0.284314
vt 0.769663 0.000000
vt 0.500000 0.142157
vt 0.500000 0.500000
vt 0.500000 0.142157
vt 0.500000 0.284314
vt 0.769663 0.142157
vt 0.500000 0.284314
vt 0.616254 0.353641
vt 0.685393 0.137255
vt 0.643821 0.284314
vt 0.643821 0.142157
vt 0.769663 0.137255
vt 0.677411 0.500000
vt 0.677411 0.142157
vt 0.500000 0.137255
vt 0.695847 0.422969
vt 0.573034 0.137255
vt 0.677411 0.500000
vt 0.677411 0.284314
vt 0.500000 0.000000
vt 0.616254 0.353641
vt 0.685393 0.000000
vt 0.643821 0.284314
vt 0.769663 0.000000
vt 0.695847 0.422969
vt 0.573034 0.000000
s 0
usemtl bricks_mx_1
f 6/14/1 2/4/1 1/1/1 7/17/1 8/20/1 5/12/1
f 12/29/2 9/22/2 3/7/2 4/11/2 11/27/2 10/25/2
f 1/2/3 2/5/3 4/10/3 3/8/3
f 11/27/4 4/11/4 2/6/4 6/15/4
f 7/18/5 1/3/5 3/9/5 9/23/5
f 5/13/6 10/26/6 11/28/6 6/16/6
f 12/30/7 8/21/7 7/19/7 9/24/7
f 10/26/8 5/13/8 8/21/8 12/30/8
