# Blender 3.4.0
# www.blender.org
mtllib bricks_stacked_mx_2_0.mtl
o bricks_stacked_mx_2_0
v -0.156226 -0.000000 0.090344
v -0.101462 -0.000000 0.219187
v 0.101462 -0.000000 -0.019186
v 0.156226 -0.000000 0.109657
v -0.156226 0.090000 0.090344
v -0.101462 0.090000 0.219187
v 0.101462 0.090000 -0.019186
v 0.156226 0.090000 0.109657
v -0.347415 -0.000000 -0.132592
v -0.365813 -0.000000 0.006193
v -0.069844 -0.000000 -0.095795
v -0.088242 -0.000000 0.042990
v -0.347415 0.090000 -0.132592
v -0.365813 0.090000 0.006193
v -0.069844 0.090000 -0.095795
v -0.088242 0.090000 0.042990
v -0.131996 0.090000 -0.154961
v -0.184377 0.090000 -0.025131
v 0.127667 0.090000 -0.050198
v 0.075285 0.090000 0.079633
v -0.131996 0.180000 -0.154961
v -0.184377 0.180000 -0.025131
v 0.127667 0.180000 -0.050198
v 0.075285 0.180000 0.079633
v 0.006769 0.000000 -0.254651
v -0.089279 0.000000 -0.152795
v 0.006769 0.090000 -0.254651
v -0.089279 0.090000 -0.152795
v 0.145002 0.000000 -0.124299
v 0.089703 0.000000 -0.080232
v 0.019853 0.000000 -0.049886
v 0.019853 0.090000 -0.049886
v 0.089703 0.090000 -0.080232
v 0.145002 0.090000 -0.124299
v -0.006052 0.090000 0.119081
v -0.101581 0.090000 0.016739
v -0.006052 0.180000 0.119081
v -0.101581 0.180000 0.016739
v -0.118392 0.090000 0.093988
v -0.160063 0.090000 0.071328
v -0.079155 0.090000 0.187317
v -0.120582 0.090000 0.157590
v -0.079155 0.180000 0.187317
v -0.118392 0.180000 0.093988
v -0.160063 0.180000 0.071328
v -0.120582 0.180000 0.157590
v -0.190156 -0.000000 0.055696
v -0.328763 -0.000000 0.075390
v -0.190156 0.090000 0.055696
v -0.328763 0.090000 0.075390
v -0.171868 -0.000000 0.184403
v -0.239765 -0.000000 0.204151
v -0.317509 -0.000000 0.154595
v -0.317509 0.090000 0.154595
v -0.239765 0.090000 0.204151
v -0.171868 0.090000 0.184403
v -0.156017 0.180000 -0.063278
v -0.129031 0.180000 0.074096
v -0.156017 0.270000 -0.063278
v -0.129031 0.270000 0.074096
v 0.030420 0.180000 -0.099902
v 0.034101 0.180000 -0.029288
v 0.018157 0.180000 0.045182
v 0.018157 0.270000 0.045182
v 0.034101 0.270000 -0.029288
v 0.030420 0.270000 -0.099902
v 0.233682 -0.000000 0.079580
v 0.130443 -0.000000 0.174139
v 0.233682 0.090000 0.079580
v 0.130443 0.090000 0.174139
v 0.207530 -0.000000 0.191678
v 0.184478 -0.000000 0.233133
v 0.301225 -0.000000 0.153323
v 0.271109 -0.000000 0.194468
v 0.301225 0.090000 0.153323
v 0.207530 0.090000 0.191678
v 0.184478 0.090000 0.233133
v 0.271109 0.090000 0.194468
v -0.276653 0.090000 0.116265
v -0.159244 0.090000 0.040010
v -0.276653 0.180000 0.116265
v -0.159244 0.180000 0.040010
v -0.232388 0.090000 0.010008
v -0.202820 0.090000 -0.027082
v -0.331122 0.090000 0.032401
v -0.294637 0.090000 -0.003220
v -0.331122 0.180000 0.032401
v -0.232388 0.180000 0.010008
v -0.202820 0.180000 -0.027082
v -0.294637 0.180000 -0.003220
vn -0.0000 -1.0000 -0.0000
vn -0.0000 1.0000 -0.0000
vn -0.9203 -0.0000 0.3912
vn 0.3912 -0.0000 0.9203
vn -0.3912 -0.0000 -0.9203
vn 0.9203 -0.0000 -0.3912
vn -0.9913 -0.0000 -0.1314
vn -0.1314 -0.0000 0.9913
vn 0.1314 -0.0000 -0.9913
vn 0.9913 -0.0000 0.1314
vn -0.9274 -0.0000 -0.3742
vn -0.3742 -0.0000 0.9274
vn 0.3742 -0.0000 -0.9274
vn 0.9274 -0.0000 0.3742
vn -0.7275 -0.0000 -0.6861
vn -0.6861 -0.0000 0.7275
vn 0.6861 -0.0000 -0.7275
vn 0.3985 -0.0000 0.9172
vn 0.6232 -0.0000 0.7821
vn 0.7310 -0.0000 -0.6824
vn -0.6824 -0.0000 -0.7310
vn 0.6824 -0.0000 0.7310
vn -0.4777 -0.0000 0.8785
vn -0.5830 -0.0000 0.8125
vn -0.9994 -0.0000 -0.0344
vn -0.1407 -0.0000 -0.9901
vn -0.9901 -0.0000 0.1407
vn 0.9901 -0.0000 -0.1407
vn -0.5375 -0.0000 0.8433
vn 0.2793 -0.0000 0.9602
vn -0.9812 -0.0000 0.1928
vn 0.1928 -0.0000 0.9812
vn -0.1928 -0.0000 -0.9812
vn 0.9778 -0.0000 0.2094
vn 0.9986 -0.0000 -0.0521
vn -0.6754 -0.0000 -0.7374
vn -0.7374 -0.0000 0.6754
vn 0.7374 -0.0000 -0.6754
vn 0.8740 -0.0000 0.4860
vn 0.8069 -0.0000 0.5906
vn -0.0438 -0.0000 0.9990
vn 0.5447 -0.0000 0.8386
vn 0.8386 -0.0000 -0.5447
vn -0.8386 -0.0000 0.5447
vn -0.7819 -0.0000 -0.6234
vn -0.6986 -0.0000 -0.7155
vn 0.2079 -0.0000 -0.9782
vt 0.500000 1.000000
vt 0.500000 0.500000
vt 0.500000 0.641278
vt 0.500000 0.782555
vt 0.768908 0.500000
vt 0.500000 0.641278
vt 1.000000 1.000000
vt 1.000000 0.641278
vt 0.500000 0.500000
vt 1.000000 0.782555
vt 1.000000 0.641278
vt 0.768908 0.500000
vt 0.500000 1.000000
vt 0.500000 0.641278
vt 0.500000 0.782555
vt 0.768908 0.641278
vt 0.500000 0.782555
vt 1.000000 1.000000
vt 1.000000 0.782555
vt 0.500000 0.641278
vt 1.000000 0.782555
vt 0.768908 0.641278
vt 0.500000 1.000000
vt 0.500000 0.500000
vt 0.500000 0.641278
vt 0.500000 0.782555
vt 0.768908 0.500000
vt 0.500000 0.641278
vt 1.000000 1.000000
vt 1.000000 0.641278
vt 0.500000 0.500000
vt 1.000000 0.782555
vt 1.000000 0.641278
vt 0.768908 0.500000
vt 0.500000 1.000000
vt 0.500000 0.641278
vt 0.500000 0.782555
vt 0.768908 0.641278
vt 0.500000 0.782555
vt 1.000000 1.000000
vt 1.000000 0.782555
vt 0.500000 0.641278
vt 1.000000 0.782555
vt 0.768908 0.641278
vt 0.500000 1.000000
vt 0.500000 0.500000
vt 0.500000 0.641278
vt 0.500000 0.782555
vt 0.768908 0.500000
vt 0.500000 0.641278
vt 1.000000 1.000000
vt 1.000000 0.641278
vt 0.500000 0.500000
vt 1.000000 0.782555
vt 1.000000 0.641278
vt 0.768908 0.500000
vt 0.500000 1.000000
vt 0.500000 0.641278
vt 0.500000 0.782555
vt 0.768908 0.641278
vt 0.500000 0.782555
vt 1.000000 1.000000
vt 1.000000 0.782555
vt 0.500000 0.641278
vt 1.000000 0.782555
vt 0.768908 0.641278
vt 0.500000 1.000000
vt 0.500000 0.500000
vt 0.500000 0.642157
vt 0.500000 0.784314
vt 0.769663 0.500000
vt 0.500000 0.642157
vt 0.500000 1.000000
vt 0.500000 0.642157
vt 0.500000 0.784314
vt 0.769663 0.642157
vt 0.500000 0.784314
vt 0.837079 1.000000
vt 0.837079 0.642157
vt 0.500000 0.500000
vt 0.820225 0.892157
vt 0.634831 0.500000
vt 0.769663 0.784314
vt 0.769663 0.642157
vt 0.769663 0.500000
vt 0.769663 0.784314
vt 0.769663 0.642157
vt 0.820225 0.892157
vt 0.634831 0.642157
vt 0.837079 1.000000
vt 0.837079 0.784314
vt 0.500000 0.642157
vt 0.500000 1.000000
vt 0.500000 0.500000
vt 0.500000 0.642157
vt 0.500000 0.784314
vt 0.769663 0.500000
vt 0.500000 0.642157
vt 0.500000 1.000000
vt 0.500000 0.642157
vt 0.500000 0.784314
vt 0.769663 0.642157
vt 0.500000 0.784314
vt 0.616254 0.853641
vt 0.685393 0.637255
vt 0.643821 0.784314
vt 0.643821 0.642157
vt 0.769663 0.637255
vt 0.677411 1.000000
vt 0.677411 0.642157
vt 0.500000 0.637255
vt 0.695847 0.922969
vt 0.573034 0.637255
vt 0.677411 1.000000
vt 0.677411 0.784314
vt 0.500000 0.500000
vt 0.616254 0.853641
vt 0.685393 0.500000
vt 0.643821 0.784314
vt 0.769663 0.500000
vt 0.695847 0.922969
vt 0.573034 0.500000
vt 0.500000 1.000000
vt 0.500000 0.500000
vt 0.500000 0.642157
vt 0.500000 0.784314
vt 0.769663 0.500000
vt 0.500000 0.642157
vt 0.500000 1.000000
vt 0.500000 0.642157
vt 0.500000 0.784314
vt 0.769663 0.642157
vt 0.500000 0.784314
vt 0.730813 1.000000
vt 0.730633 0.642157
vt 0.500000 0.642157
vt 0.749608 0.892157
vt 0.634831 0.642157
vt 0.643547 0.784314
vt 0.643821 0.642157
vt 0.803371 0.642157
vt 0.643659 0.784314
vt 0.803371 0.784314
vt 0.749608 0.892157
vt 0.634831 0.784314
vt 0.730813 1.000000
vt 0.730633 0.784314
vt 0.500000 0.784314
vt 0.500000 1.000000
vt 0.500000 0.500000
vt 0.500000 0.642157
vt 0.500000 0.784314
vt 0.769663 0.500000
vt 0.500000 0.642157
vt 0.500000 1.000000
vt 0.500000 0.642157
vt 0.500000 0.784314
vt 0.769663 0.642157
vt 0.500000 0.784314
vt 0.837079 1.000000
vt 0.837079 0.642157
vt 0.500000 0.500000
vt 0.820225 0.892157
vt 0.634831 0.500000
vt 0.769663 0.784314
vt 0.769663 0.642157
vt 0.769663 0.500000
vt 0.769663 0.784314
vt 0.769663 0.642157
vt 0.820225 0.892157
vt 0.634831 0.642157
vt 0.837079 1.000000
vt 0.837079 0.784314
vt 0.500000 0.642157
vt 0.500000 1.000000
vt 0.500000 0.500000
vt 0.500000 0.642157
vt 0.500000 0.784314
vt 0.769663 0.500000
vt 0.500000 0.642157
vt 0.500000 1.000000
vt 0.500000 0.642157
vt 0.500000 0.784314
vt 0.769663 0.642157
vt 0.500000 0.784314
vt 0.616254 0.853641
vt 0.685393 0.637255
vt 0.643821 0.784314
vt 0.643821 0.642157
vt 0.769663 0.637255
vt 0.677411 1.000000
vt 0.677411 0.642157
vt 0.500000 0.637255
vt 0.695847 0.922969
vt 0.573034 0.637255
vt 0.677411 1.000000
vt 0.677411 0.784314
vt 0.500000 0.500000
vt 0.616254 0.853641
vt 0.685393 0.500000
vt 0.643821 0.784314
vt 0.769663 0.500000
vt 0.695847 0.922969
vt 0.573034 0.500000
vt 0.500000 1.000000
vt 0.500000 0.500000
vt 0.500000 0.642157
vt 0.500000 0.784314
vt 0.769663 0.500000
vt 0.500000 0.642157
vt 0.500000 1.000000
vt 0.500000 0.642157
vt 0.500000 0.784314
vt 0.769663 0.642157
vt 0.500000 0.784314
vt 0.616254 0.853641
vt 0.685393 0.637255
vt 0.643821 0.784314
vt 0.643821 0.642157
vt 0.769663 0.637255
vt 0.677411 1.000000
vt 0.677411 0.642157
vt 0.500000 0.637255
vt 0.695847 0.922969
vt 0.573034 0.637255
vt 0.677411 1.000000
vt 0.677411 0.784314
vt 0.500000 0.500000
vt 0.616254 0.853641
vt 0.685393 0.500000
vt 0.643821 0.784314
vt 0.769663 0.500000
vt 0.695847 0.922969
vt 0.573034 0.500000
s 0
usemtl bricks_mx_1
f 1/1/1 3/7/1 4/10/1 2/4/1
f 5/13/2 6/17/2 8/21/2 7/18/2
f 1/2/3 2/5/3 6/16/3 5/14/3
f 2/6/4 4/11/4 8/21/4 6/17/4
f 3/8/5 1/3/5 5/15/5 7/19/5
f 4/12/6 3/9/6 7/20/6 8/22/6
f 9/23/1 11/29/1 12/32/1 10/26/1
f 13/35/2 14/39/2 16/43/2 15/40/2
f 9/24/7 10/27/7 14/38/7 13/36/7
f 10/28/8 12/33/8 16/43/8 14/39/8
f 11/30/9 9/25/9 13/37/9 15/41/9
f 12/34/10 11/31/10 15/42/10 16/44/10
f 17/45/1 19/51/1 20/54/1 18/48/1
f 21/57/2 22/61/2 24/65/2 23/62/2
f 17/46/11 18/49/11 22/60/11 21/58/11
f 18/50/12 20/55/12 24/65/12 22/61/12
f 19/52/13 17/47/13 21/59/13 23/63/13
f 20/56/14 19/53/14 23/64/14 24/66/14
f 26/70/1 25/67/1 29/78/1 30/81/1 31/83/1
f 34/90/2 27/73/2 28/77/2 32/86/2 33/88/2
f 25/68/15 26/71/15 28/76/15 27/74/15
f 32/86/16 28/77/16 26/72/16 31/84/16
f 29/79/17 25/69/17 27/75/17 34/91/17
f 31/85/18 30/82/18 33/89/18 32/87/18
f 33/89/19 30/82/19 29/80/19 34/92/19
f 40/106/1 36/96/1 35/93/1 41/109/1 42/112/1 39/104/1
f 46/121/2 43/114/2 37/99/2 38/103/2 45/119/2 44/117/2
f 35/94/20 36/97/20 38/102/20 37/100/20
f 45/119/21 38/103/21 36/98/21 40/107/21
f 41/110/22 35/95/22 37/101/22 43/115/22
f 39/105/23 44/118/23 45/120/23 40/108/23
f 46/122/24 42/113/24 41/111/24 43/116/24
f 44/118/25 39/105/25 42/113/25 46/122/25
f 48/126/1 47/123/1 51/134/1 52/137/1 53/139/1
f 56/146/2 49/129/2 50/133/2 54/142/2 55/144/2
f 47/124/26 48/127/26 50/132/26 49/130/26
f 54/142/27 50/133/27 48/128/27 53/140/27
f 51/135/28 47/125/28 49/131/28 56/147/28
f 53/141/29 52/138/29 55/145/29 54/143/29
f 55/145/30 52/138/30 51/136/30 56/148/30
f 58/152/1 57/149/1 61/160/1 62/163/1 63/165/1
f 66/172/2 59/155/2 60/159/2 64/168/2 65/170/2
f 57/150/31 58/153/31 60/158/31 59/156/31
f 64/168/32 60/159/32 58/154/32 63/166/32
f 61/161/33 57/151/33 59/157/33 66/173/33
f 63/167/34 62/164/34 65/171/34 64/169/34
f 65/171/35 62/164/35 61/162/35 66/174/35
f 72/188/1 68/178/1 67/175/1 73/191/1 74/194/1 71/186/1
f 78/203/2 75/196/2 69/181/2 70/185/2 77/201/2 76/199/2
f 67/176/36 68/179/36 70/184/36 69/182/36
f 77/201/37 70/185/37 68/180/37 72/189/37
f 73/192/38 67/177/38 69/183/38 75/197/38
f 71/187/39 76/200/39 77/202/39 72/190/39
f 78/204/40 74/195/40 73/193/40 75/198/40
f 76/200/41 71/187/41 74/195/41 78/204/41
f 84/218/1 80/208/1 79/205/1 85/221/1 86/224/1 83/216/1
f 90/233/2 87/226/2 81/211/2 82/215/2 89/231/2 88/229/2
f 79/206/42 80/209/42 82/214/42 81/212/42
f 89/231/43 82/215/43 80/210/43 84/219/43
f 85/222/44 79/207/44 81/213/44 87/227/44
f 83/217/45 88/230/45 89/232/45 84/220/45
f 90/234/46 86/225/46 85/223/46 87/228/46
f 88/230/47 83/217/47 86/225/47 90/234/47
