# Blender 3.4.0
# www.blender.org
mtllib debris_bricks_mx_1_0.mtl
o debris_bricks_mx_1_0
v -0.866605 0.011595 0.590493
v -0.935894 0.003783 0.499730
v -0.899059 0.059936 0.521865
v 0.793653 0.019990 -0.777420
v 0.873751 0.027467 -0.732383
v -0.499637 0.041854 0.122612
v 0.835662 0.052725 0.014708
v 0.239298 0.017572 0.299582
v 0.138321 0.010359 0.300834
v -0.041856 0.037022 0.135490
v 0.060238 0.039652 0.031714
v 0.386917 0.027104 0.534011
v -0.645173 0.034082 0.040088
v -0.733727 0.042925 0.740711
v -0.146514 0.013762 0.600147
v -0.204710 0.043430 0.806163
v -0.373898 0.007036 0.578969
v -0.484044 0.036610 0.588618
v -0.432746 0.070115 0.553321
v -0.577283 0.052942 -0.749784
v -0.491514 0.019699 -0.426059
v -0.428272 0.057306 -0.374231
v -0.248462 0.013823 -0.469869
v -0.212381 0.000161 -0.399786
v -0.042920 0.020803 -0.501474
v -0.097666 0.012342 -0.362077
v -0.043591 0.004422 -0.309039
v 0.354508 0.031809 -0.469671
v 0.242658 0.034176 -0.403460
v 0.639746 0.036604 -0.098705
v 0.329820 0.021630 -0.409870
v 0.615442 0.023593 -0.412808
v 0.939397 0.008430 -0.750497
v 0.589809 0.040120 -0.550736
v -0.548756 0.038379 0.064516
v -0.443472 0.035095 0.165036
v 0.824963 0.019754 0.086809
v 0.100919 0.018924 0.328721
v 0.195538 0.024559 0.324805
v 0.016618 0.043985 0.087198
v 0.693812 0.024931 0.701647
v 0.440268 0.019797 0.394009
v 0.439405 0.011585 0.586965
v -0.720740 0.032989 0.013848
v -0.169599 0.050907 0.533159
v -0.258961 0.021125 0.860563
v -0.123511 0.026670 -0.531693
v -0.064881 0.004469 -0.417808
v 0.087128 0.008346 -0.451156
v 0.467220 0.048323 -0.406952
v 0.683054 0.008109 -0.426551
v -0.773203 -0.000000 0.815184
v -0.677401 -0.000000 0.745826
v -0.762795 -0.000000 0.700561
v -0.874211 -0.000000 0.585922
v -0.793699 0.000000 0.429822
v -0.901780 -0.000000 0.480933
v -0.846222 -0.000000 0.572686
v -0.933354 -0.000000 0.505100
v -0.937252 -0.000000 0.497708
v -0.449889 -0.000000 0.603504
v -0.530493 -0.000000 0.605155
v -0.469911 -0.000000 0.466151
v -0.384670 -0.000000 0.586381
v -0.377627 -0.000000 0.570221
v -0.153774 -0.000000 0.839153
v -0.220202 -0.000000 0.772907
v -0.219712 -0.000000 0.869868
v -0.266497 -0.000000 0.844387
v -0.705423 -0.000000 -0.028885
v -0.728180 -0.000000 0.036648
v -0.581135 -0.000000 0.011673
v -0.652860 -0.000000 0.063644
v -0.203524 0.000000 0.516623
v -0.061251 -0.000000 0.467592
v -0.155685 0.000000 0.595677
v -0.127929 0.000000 0.604384
v -0.522331 0.000000 0.005736
v -0.518806 -0.000000 0.141322
v -0.566333 0.000000 0.081673
v -0.419307 0.000000 0.111284
v -0.459545 -0.000000 0.180724
v -0.462153 -0.000000 -0.291307
v -0.503161 -0.000000 -0.397554
v -0.090544 0.000000 0.111918
v -0.022480 -0.000000 0.153615
v 0.084448 0.000000 0.285611
v 0.102367 0.000000 0.336475
v 0.197417 -0.000000 0.334868
v 0.139114 0.000000 0.305079
v 0.380098 -0.000000 0.532827
v 0.481270 -0.000000 0.611049
v 0.436490 0.000000 0.586459
v -0.378429 -0.000000 -0.393469
v -0.474380 0.000000 -0.432672
v -0.021796 0.000000 0.038421
v 0.039640 0.000000 0.108732
v 0.224003 -0.000000 0.259552
v 0.240643 0.000000 0.306783
v 0.513902 0.000000 0.423102
v -0.664036 -0.000000 -0.747573
v -0.579589 -0.000000 -0.706952
v 0.008093 0.000000 0.006469
v 0.080992 0.000000 0.051127
v 0.435287 0.000000 0.393144
v 0.653358 -0.000000 0.703680
v -0.546600 -0.000000 -0.813568
v -0.543440 -0.000000 -0.689562
v -0.212380 0.000000 -0.399818
v -0.208616 -0.000000 -0.398876
v -0.248392 0.000000 -0.472600
v -0.123376 -0.000000 -0.536961
v -0.096736 0.000000 -0.396007
v -0.064858 0.000000 -0.418691
v -0.044226 -0.000000 -0.503249
v 0.072431 -0.000000 -0.457434
v -0.098440 0.000000 -0.363131
v -0.043868 -0.000000 -0.309416
v -0.003638 0.000000 -0.286612
v 0.033124 0.000000 -0.313645
v 0.086604 0.000000 -0.451868
v 0.337879 0.000000 -0.496625
v 0.790379 0.000000 -0.768278
v 0.844753 0.000000 -0.734872
v 0.782757 -0.000000 -0.825031
v 0.934802 -0.000000 -0.770575
v 0.938016 0.000000 -0.746642
v 0.259616 -0.000000 -0.373590
v 0.370292 -0.000000 -0.441870
v 0.218776 0.000000 -0.429005
v 0.480424 -0.000000 -0.528748
v 0.598164 0.000000 -0.582373
v 0.616150 -0.000000 -0.492902
v 0.869251 0.000000 -0.719821
v 0.332860 0.000000 -0.355148
v 0.334209 -0.000000 -0.418664
v 0.474010 0.000000 -0.284696
v 0.477025 -0.000000 -0.426597
v 0.619076 0.000000 -0.368352
v 0.575558 0.000000 -0.422069
v 0.681709 0.000000 -0.430745
v 0.684303 0.000000 -0.411271
v 0.613245 0.000000 -0.058126
v 0.597932 0.000000 -0.159031
v 0.680771 0.000000 -0.104930
v 0.914449 0.000000 0.002288
v 0.709733 0.000000 0.712720
v 0.705509 0.000000 0.628696
v 0.840451 -0.000000 0.100839
v 0.809968 0.000000 0.075550
v 0.795640 -0.000000 -0.015342
vn -0.3606 0.5371 -0.7625
vn 0.6251 0.7459 0.2298
vn -0.7737 0.2843 0.5662
vn 0.1473 0.8995 -0.4114
vn -0.9673 0.2178 0.1299
vn 0.3412 0.3442 0.8747
vn 0.3857 0.8423 -0.3765
vn -0.8527 0.1696 -0.4941
vn -0.4693 0.5305 0.7059
vn -0.8240 0.5515 0.1299
vn -0.0706 0.9230 -0.3782
vn -0.9413 0.0639 0.3316
vn 0.5084 0.3595 0.7825
vn -0.4321 0.3134 0.8456
vn -0.4254 0.8128 -0.3979
vn -0.5170 0.1426 0.8440
vn 0.6622 0.5793 0.4753
vn -0.9023 0.2426 -0.3565
vn -0.2729 0.5879 0.7615
vn -0.7938 0.3730 0.4804
vn -0.6826 0.5820 -0.4421
vn -0.6539 0.7009 -0.2850
vn 0.6878 0.3937 -0.6099
vn 0.2148 0.5331 0.8183
vn -0.7027 -0.4179 -0.5759
vn -0.0050 0.9810 0.1938
vn -0.8925 -0.0918 0.4416
vn -0.9289 0.0890 -0.3594
vn -0.4927 -0.0433 0.8691
vn -0.3500 0.7053 -0.6165
vn -0.0720 0.4676 -0.8810
vn 0.2838 0.8564 0.4313
vn -0.4797 0.0825 0.8735
vn 0.6781 0.2788 -0.6800
vn 0.6539 -0.7009 0.2850
vn 0.3650 0.0564 -0.9293
vn 0.5395 0.3930 0.7446
vn -0.3888 0.6083 -0.6919
vn 0.9673 -0.2178 -0.1299
vn 0.4173 0.4538 -0.7873
vn 0.9814 0.1907 0.0208
vn -0.1500 0.3197 0.9356
vn 0.8505 0.5242 -0.0428
vn -0.1614 0.7749 0.6111
vn 0.2438 0.9689 0.0423
vn 0.3606 -0.5371 0.7625
vn -0.4510 0.1708 -0.8760
vn -0.4275 -0.4485 0.7849
vn 0.5170 -0.1426 -0.8440
vn -0.6362 0.7314 0.2455
vn 0.9226 0.3384 -0.1854
vn -0.2975 -0.1098 0.9484
vn -0.0516 0.3671 -0.9287
vn 0.1824 0.8088 -0.5590
vn 0.0188 0.3916 0.9199
vn 0.6109 0.3397 0.7151
vn 0.4363 0.6027 -0.6681
vn -0.7993 0.1182 0.5891
vn -0.6823 0.1403 0.7174
vn 0.8527 -0.1696 0.4941
vn -0.9814 -0.1907 -0.0208
vn -0.1847 0.9104 0.3701
vn 0.3557 -0.0487 -0.9333
vn -0.5041 0.7893 -0.3506
vn -0.6378 0.0460 0.7688
vn 0.5505 0.7253 0.4134
vn -0.4728 0.4294 0.7695
vn 0.5353 0.8033 0.2609
vn 0.3186 0.5389 -0.7798
vn -0.9446 -0.0137 -0.3280
vn -0.7014 -0.0168 0.7126
vn 0.2725 0.7639 0.5850
vn 0.8925 0.0918 -0.4416
vn 0.0624 0.9944 0.0849
vn 0.5098 0.4463 0.7355
vn 0.5727 -0.1561 0.8048
vn 0.3705 0.7086 0.6005
vn 0.8534 0.5208 -0.0217
vn 0.9413 -0.0639 -0.3316
vn 0.9867 -0.0957 -0.1314
vn 0.4790 0.5753 0.6630
vn -0.3505 0.5338 -0.7695
vn 0.4433 0.6546 0.6123
vn -0.3471 0.5990 0.7216
vn -0.6597 0.5371 0.5256
vn 0.8604 -0.0182 -0.5093
vn -0.5315 0.7295 0.4306
vn 0.7027 0.4179 0.5759
vn -0.7414 0.6615 0.1125
vn -0.8825 0.0681 0.4653
vn -0.2886 0.4643 -0.8373
vn 0.1337 0.4121 -0.9012
vn 0.9289 -0.0890 0.3594
vn -0.7933 0.6046 -0.0720
vt 0.337079 0.142157
vt 0.000000 0.000000
vt 0.337079 0.500000
vt 0.320225 0.392157
vt 0.134831 0.142157
vt 0.337079 0.500000
vt 0.337079 0.284314
vt 0.000000 0.142157
vt 0.143659 0.284314
vt 0.303371 0.284314
vt 0.249608 0.392157
vt 0.134831 0.284314
vt 0.320225 0.392157
vt 0.134831 0.142157
vt 0.000000 0.284314
vt 0.269663 0.142157
vt 0.177411 0.500000
vt 0.000000 0.000000
vt 0.177411 0.284314
vt 0.116254 0.353641
vt 0.185393 0.000000
vt 0.269663 0.284314
vt 0.269663 0.142157
vt 0.000000 0.142157
vt 0.337079 0.500000
vt 0.337079 0.284314
vt 0.269663 0.284314
vt 0.269663 0.142157
vt 0.303371 0.284314
vt 0.143659 0.284314
vt 0.000000 0.142157
vt 0.000000 0.284314
vt 0.000000 0.500000
vt 0.303371 0.284314
vt 0.143659 0.284314
vt 0.269663 0.142157
vt 0.000000 0.284314
vt 0.337079 0.142157
vt 0.000000 0.000000
vt 0.337079 0.500000
vt 0.320225 0.392157
vt 0.134831 0.142157
vt 0.337079 0.500000
vt 0.337079 0.284314
vt 0.000000 0.142157
vt 0.000000 0.142157
vt 0.000000 0.284314
vt 0.000000 0.500000
vt 0.000000 0.284314
vt 0.000000 0.142157
vt 0.269663 0.000000
vt 0.269663 0.142157
vt 0.000000 0.284314
vt 0.000000 0.284314
vt 0.269663 0.142157
vt 0.143659 0.284314
vt 0.269663 0.142157
vt 0.000000 0.284314
vt 0.269663 0.142157
vt 0.269663 0.284314
vt 0.134831 0.142157
vt 0.320225 0.392157
vt 0.000000 0.500000
vt 0.000000 0.284314
vt 0.000000 0.142157
vt 0.230813 0.500000
vt 0.000000 0.284314
vt 0.230633 0.284314
vt 0.269663 0.142157
vt 0.000000 0.284314
vt 0.269663 0.142157
vt 0.000000 0.284314
vt 0.249608 0.392157
vt 0.134831 0.284314
vt 0.230813 0.500000
vt 0.000000 0.284314
vt 0.230633 0.284314
vt 0.000000 0.500000
vt 0.000000 0.284314
vt 0.000000 0.142157
vt 0.269663 0.284314
vt 0.269663 0.142157
vt 0.337079 0.500000
vt 0.000000 0.142157
vt 0.337079 0.284314
vt 0.303371 0.284314
vt 0.143659 0.284314
vt 0.143821 0.284314
vt 0.269663 0.000000
vt 0.195847 0.422969
vt 0.073034 0.000000
vt 0.320225 0.392157
vt 0.134831 0.142157
vt 0.000000 0.500000
vt 0.000000 0.284314
vt 0.000000 0.142157
vt 0.000000 0.284314
vt 0.269663 0.142157
vt 0.320225 0.392157
vt 0.134831 0.142157
vt 0.000000 0.284314
vt 0.269663 0.142157
vt 0.000000 0.284314
vt 0.269663 0.142157
vt 0.269663 0.000000
vt 0.143821 0.284314
vt 0.000000 0.500000
vt 0.000000 0.142157
vt 0.000000 0.284314
vt 0.230813 0.500000
vt 0.230633 0.284314
vt 0.000000 0.284314
vt 0.000000 0.142157
vt 0.000000 0.500000
vt 0.000000 0.284314
vt 0.000000 0.284314
vt 0.000000 0.142157
vt 0.000000 0.500000
vt 0.230813 0.500000
vt 0.000000 0.284314
vt 0.230633 0.284314
vt 0.167811 0.284314
vt 0.167811 0.500000
vt 0.000000 0.030007
vt 0.000000 0.172164
vt 0.126301 0.142157
vt 0.000000 0.398980
vt 0.027842 0.000000
vt 0.333598 0.477731
vt 0.067060 0.500000
vt 0.067060 0.284314
vt 0.255489 0.414009
vt 0.284841 0.142157
vt 0.284841 0.500000
vt 0.134831 0.131033
vt 0.317238 0.385786
vt 0.142797 0.142157
vt 0.134831 0.059652
vt 0.279453 0.305196
vt 0.243555 0.142157
vt 0.127945 0.500000
vt 0.127945 0.284314
vt 0.028314 0.000000
vt 0.333539 0.477354
vt 0.316093 0.142157
vt 0.316093 0.500000
vt 0.125921 0.142157
vt 0.000000 0.399284
vt 0.000000 0.194516
vt 0.269663 0.052359
vt 0.188767 0.000000
vt 0.117358 0.350866
vt 0.143821 0.240634
vt 0.269663 0.042174
vt 0.000000 0.370766
vt 0.161575 0.142157
vt 0.000000 0.219892
vt 0.269663 0.077735
vt 0.160946 0.284314
vt 0.233192 0.375447
vt 0.143734 0.217757
vt 0.303371 0.217757
vt 0.000000 0.184219
vt 0.269663 0.042062
vt 0.000000 0.494596
vt 0.006756 0.142157
vt 0.143689 0.257255
vt 0.303371 0.257255
vt 0.260392 0.284314
vt 0.170676 0.311814
vt 0.134815 0.284314
vt 0.134831 0.063669
vt 0.269663 0.212342
vt 0.269663 0.070185
vt 0.215390 0.500000
vt 0.215390 0.284314
vt 0.000000 0.076343
vt 0.337079 0.218500
vt 0.191173 0.284314
vt 0.065717 0.284314
vt 0.065717 0.142157
vt 0.151821 0.284314
vt 0.269663 0.212369
vt 0.269663 0.070212
vt 0.054153 0.284314
vt 0.143821 0.251930
vt 0.269663 0.031267
vt 0.073034 0.040577
vt 0.185393 0.017116
vt 0.269663 0.240128
vt 0.269663 0.097971
vt 0.040122 0.142157
vt 0.332063 0.467909
vt 0.134831 0.123271
vt 0.118752 0.142157
vt 0.000000 0.405018
vt 0.000000 0.325806
vt 0.217786 0.000000
vt 0.194100 0.434644
vt 0.134831 0.056682
vt 0.095242 0.500000
vt 0.095242 0.284314
vt 0.000000 0.029033
vt 0.177411 0.254243
vt 0.000000 0.410045
vt 0.112467 0.142157
vt 0.195806 0.142157
vt 0.000000 0.343387
vt 0.108426 0.453054
vt 0.212527 0.500000
vt 0.212527 0.284314
vt 0.000000 0.065103
vt 0.337079 0.207260
vt 0.000000 0.252040
vt 0.269663 0.109884
vt 0.000000 0.426723
vt 0.091615 0.142157
vt 0.000000 0.002544
vt 0.000000 0.144701
vt 0.154405 0.284314
vt 0.154526 0.500000
vt 0.143659 0.284055
vt 0.148114 0.288849
vt 0.000000 0.262057
vt 0.269663 0.119900
vt 0.000000 0.099216
vt 0.000000 0.241373
vt 0.241142 0.440735
vt 0.074097 0.284314
vt 0.230633 0.277119
vt 0.000000 0.277119
vt 0.000000 0.251271
vt 0.269663 0.109114
vt 0.029214 0.126756
vt 0.269663 0.264710
vt 0.269663 0.122554
vt 0.134831 0.135134
vt 0.047061 0.142157
vt 0.331196 0.462359
vt 0.262514 0.500000
vt 0.262514 0.284314
vt 0.000000 0.128900
vt 0.000000 0.271057
vt 0.000000 0.430845
vt 0.086461 0.142157
vt 0.143699 0.249211
vt 0.303371 0.249211
vt 0.187181 0.240159
vt 0.048891 0.284314
vt 0.191300 0.500000
vt 0.191150 0.284314
vt 0.000000 0.269511
vt 0.230633 0.269511
vt 0.000000 0.207780
vt 0.230633 0.207780
vt 0.000000 0.213081
vt 0.000000 0.070924
vt 0.243810 0.425425
vt 0.093238 0.284314
vt 0.000000 0.317333
vt 0.228381 0.142157
vt 0.000000 0.202538
vt 0.000000 0.060381
vt 0.133331 0.500000
vt 0.133331 0.284314
vt 0.134831 0.236081
vt 0.105924 0.284314
vt 0.269663 0.104631
vt 0.000000 0.246788
vt 0.233532 0.284314
vt 0.233532 0.500000
vt 0.000000 0.200477
vt 0.000000 0.058320
vt 0.134831 0.204611
vt 0.195302 0.336880
vt 0.221219 0.284314
vt 0.214428 0.500000
vt 0.214261 0.284314
vt 0.000000 0.256919
vt 0.230633 0.256919
vt 0.109186 0.284314
vt 0.269663 0.012602
vt 0.000000 0.154759
vt 0.163084 0.142157
vt 0.000000 0.369559
vt 0.000000 0.431615
vt 0.085498 0.142157
vt 0.056035 0.500000
vt 0.056035 0.284314
vt 0.000000 0.161149
vt 0.000000 0.018992
vt 0.250801 0.284314
vt 0.176706 0.317952
vt 0.143708 0.241294
vt 0.303371 0.241294
vt 0.000000 0.169488
vt 0.269663 0.027331
s 0
usemtl bricks_mx_1
f 3/6/1 56/130/1 57/132/1 60/136/1 2/4/1
f 1/1/2 58/133/2 56/131/2 3/7/2
f 2/5/3 59/135/3 55/128/3 1/2/3 3/8/3
f 33/75/4 126/250/4 125/249/4 4/9/4 5/11/4
f 4/9/5 125/249/5 123/246/5
f 5/12/6 134/266/6 127/252/6 33/76/6
f 36/83/7 81/175/7 78/171/7 35/81/7 6/13/7
f 35/81/8 78/171/8 80/173/8
f 6/14/9 79/172/9 82/177/9 36/84/9
f 37/87/10 7/15/10 151/296/10 150/294/10
f 39/90/11 8/17/11 98/201/11 87/185/11 38/88/11 9/20/11
f 38/88/12 87/185/12 88/186/12
f 39/91/13 89/188/13 99/203/13 8/18/13
f 9/21/14 90/189/14 89/188/14 39/91/14
f 11/25/15 103/210/15 96/199/15 85/182/15 10/22/15 40/92/15
f 10/22/16 85/182/16 86/183/16
f 40/93/17 97/200/17 104/212/17 11/24/17
f 12/27/18 42/97/18 105/214/18 91/190/18
f 13/30/19 44/101/19 71/157/19 73/161/19
f 15/35/20 45/103/20 74/163/20 76/167/20
f 46/106/21 16/37/21 67/149/21 69/153/21
f 19/43/22 63/141/22 62/139/22 18/41/22
f 17/38/23 65/145/23 63/142/23 19/44/23
f 18/42/24 61/138/24 64/143/24 17/39/24 19/45/24
f 21/49/25 95/197/25 84/180/25
f 48/110/26 47/107/26 23/54/26 24/56/26 110/223/26 113/228/26
f 24/56/27 23/54/27 111/224/27 109/222/27
f 26/60/28 25/58/28 115/232/28 117/235/28
f 27/61/29 118/237/29 119/238/29
f 29/66/30 28/63/30 122/244/30 130/258/30
f 51/119/31 141/277/31 140/275/31 32/73/31
f 32/74/32 139/274/32 142/279/32 51/120/32
f 11/25/15 103/210/15 85/182/15 10/22/15 40/92/15
f 43/100/33 93/194/33 92/192/33
f 66/147/34 67/150/34 16/36/34
f 64/144/35 65/146/35 17/40/35
f 121/242/36 115/233/36 25/57/36 49/113/36
f 73/162/37 72/159/37 13/29/37
f 107/218/38 101/207/38 20/46/38
f 127/253/39 126/251/39 33/77/39
f 53/124/40 54/126/40 14/31/40
f 137/270/41 138/272/41 50/116/41
f 106/216/42 147/288/42 41/94/42
f 147/289/43 148/290/43 41/95/43
f 131/260/44 133/264/44 34/78/44
f 92/193/45 100/205/45 42/97/45 12/27/45 43/99/45
f 55/129/46 58/134/46 1/3/46
f 112/226/47 111/225/47 23/55/47 47/108/47
f 69/154/48 68/151/48 46/105/48
f 104/213/49 103/211/49 11/26/49
f 121/242/36 116/234/36 115/233/36 25/57/36 49/113/36
f 84/181/50 83/179/50 22/53/50 21/50/50
f 133/265/51 132/262/51 34/79/51
f 76/168/52 77/169/52 15/34/52
f 138/273/53 136/268/53 31/71/53 50/117/53
f 72/160/54 70/155/54 44/101/54 13/30/54
f 62/140/55 61/138/55 18/42/55
f 88/187/56 90/189/56 9/21/56 38/89/56
f 145/284/57 144/282/57 30/69/57
f 130/259/58 128/254/58 29/67/58
f 91/191/59 93/194/59 43/100/59 12/28/59
f 82/178/60 81/176/60 36/85/60
f 136/269/61 135/267/61 31/72/61
f 135/267/62 137/271/62 50/118/62 31/72/62
f 100/206/63 105/215/63 42/98/63
f 148/291/64 106/217/64 41/96/64
f 150/295/65 149/292/65 37/86/65
f 149/293/66 146/286/66 7/15/66 37/87/66
f 123/247/67 134/266/67 5/12/67 4/10/67
f 77/170/68 75/165/68 45/103/68 15/35/68
f 94/195/69 95/198/69 21/51/69 22/52/69
f 70/156/70 71/158/70 44/102/70
f 117/236/71 118/237/71 27/61/71 26/59/71
f 68/152/72 66/148/72 16/37/72 46/106/72
f 114/230/73 112/227/73 47/109/73 48/111/73
f 119/239/74 120/240/74 49/114/74 25/58/74 26/60/74 27/62/74
f 143/281/75 145/285/75 30/70/75
f 113/229/76 114/231/76 48/112/76
f 128/255/77 129/256/77 28/64/77 29/68/77
f 108/220/78 107/219/78 20/47/78
f 99/204/79 98/202/79 8/19/79
f 142/280/80 141/278/80 51/121/80
f 86/184/81 97/200/81 40/93/81 10/23/81
f 132/263/82 131/261/82 34/80/82
f 52/122/83 53/125/83 14/32/83
f 101/208/84 108/221/84 20/48/84
f 80/174/85 79/172/85 6/14/85 35/82/85
f 129/257/86 122/245/86 28/65/86
f 140/276/87 139/274/87 32/74/87
f 83/179/88 94/196/88 22/53/88
f 144/283/89 143/281/89 30/70/89
f 101/208/84 102/209/84 108/221/84 20/48/84
f 60/137/90 59/135/90 2/5/90
f 75/166/91 74/164/91 45/104/91
f 146/287/92 151/297/92 7/16/92
f 120/241/93 121/243/93 49/115/93
f 54/127/94 52/123/94 14/33/94
f 123/247/67 124/248/67 134/266/67 5/12/67 4/10/67
