# Blender 3.4.0
# www.blender.org
mtllib gravel_pile_hr_1.mtl
o gravel_pile_hr_1
v 0.109572 0.143569 0.553931
v 0.359276 0.221399 -0.326418
v 0.596007 0.091670 -0.476183
v -0.436899 0.000000 0.700332
v -0.343802 0.139879 0.122096
v -0.200118 0.225939 0.110486
v -0.034788 0.256677 0.067674
v 0.069325 0.226677 0.249505
v 0.674318 0.000000 -0.541881
v 0.252192 0.000000 0.691282
v -0.020214 0.000000 -0.717810
v 0.284111 0.145231 -0.650691
v 0.527940 0.094000 -0.631747
v -0.484513 0.000000 0.457869
v -0.478916 0.000000 0.025787
v -0.269679 0.127092 -0.137740
v -0.299542 0.000000 -0.412956
v -0.176951 0.000000 -0.583326
v -0.053142 0.138812 -0.464225
v 0.175029 0.218958 -0.426843
v 0.493514 0.125118 -0.168200
v 0.198834 0.141204 0.291890
v 0.333130 0.000000 0.378499
v 0.200246 0.000000 0.831127
v 0.133016 0.000000 0.962368
v -0.071269 0.000000 1.113147
v -0.189513 0.000000 1.079798
v -0.290436 0.000000 0.983468
v -0.268227 0.164022 0.561540
v -0.035577 0.219184 0.498643
v -0.170651 0.224087 0.435380
v 0.190049 0.000000 -0.791277
v 0.412910 0.000000 -0.782363
v -0.494019 0.000000 0.245877
v -0.427755 0.000000 -0.167474
v 0.613241 0.000000 -0.107285
v 0.427481 0.000000 0.205778
v 0.041186 0.000000 1.069856
v -0.369081 0.000000 0.859272
v 0.680633 0.000000 -0.324724
v 0.581792 0.000000 -0.698297
vn -0.4203 0.8832 0.2079
vn -0.6365 0.7672 0.0791
vn -0.5960 0.7787 0.1960
vn -0.5954 0.8006 -0.0673
vn -0.5057 0.8269 -0.2460
vn -0.3676 0.9268 -0.0762
vn -0.3723 0.8570 -0.3564
vn -0.3087 0.7955 -0.5215
vn -0.4625 0.7777 -0.4257
vn -0.0940 0.9640 -0.2486
vn 0.0071 0.8637 -0.5040
vn -0.0475 0.9985 -0.0274
vn 0.2837 0.9583 -0.0352
vn 0.4138 0.8058 -0.4237
vn 0.5916 0.8022 -0.0802
vn 0.6226 0.7313 0.2785
vn 0.5441 0.8111 0.2148
vn 0.5839 0.7371 0.3402
vn 0.5451 0.8029 0.2412
vn 0.3026 0.9417 0.1473
vn 0.6264 0.7421 0.2387
vn 0.4733 0.8501 0.2310
vn 0.5979 0.7751 0.2043
vn 0.1341 0.9628 0.2347
vn 0.3813 0.8783 0.2883
vn 0.2037 0.9229 0.3268
vn -0.1589 0.9305 0.3301
vn 0.0104 0.9416 0.3365
vn -0.4985 0.8195 0.2826
vn -0.3531 0.8781 0.3228
vn 0.5269 0.8128 0.2486
vn -0.2377 0.9614 0.1385
vn 0.6936 0.6912 -0.2027
vn 0.6635 0.7400 0.1099
vn -0.1243 0.7305 -0.6715
vn 0.1728 0.7144 -0.6781
vn 0.5001 0.6726 -0.5454
vn -0.6793 0.7339 0.0050
vn -0.6697 0.7322 -0.1240
vn -0.5925 0.7694 -0.2388
vn -0.5264 0.7856 -0.3250
vt -26.898560 2.642570
vt -26.773708 3.082744
vt -26.655342 3.157626
vt -27.172026 2.569271
vt -27.125248 2.858487
vt -27.053406 2.864291
vt -26.970741 2.885698
vt -26.918684 2.794782
vt -26.616173 3.190487
vt -26.827034 2.573837
vt -26.963867 3.278907
vt -26.963751 3.278951
vt -26.811291 3.244880
vt -26.689377 3.235408
vt -27.196081 2.690581
vt -27.192768 2.906631
vt -27.088184 2.988405
vt -27.103121 3.126016
vt -27.041576 3.211018
vt -26.979916 3.151647
vt -26.865831 3.132956
vt -26.706589 3.003635
vt -26.853930 2.773590
vt -26.786724 2.730271
vt -26.853136 2.503928
vt -26.886671 2.438267
vt -26.989054 2.362649
vt -26.988850 2.362644
vt -27.048347 2.378961
vt -27.048460 2.378974
vt -27.048777 2.378991
vt -27.098602 2.427753
vt -27.087460 2.638764
vt -26.971134 2.670213
vt -27.038671 2.701844
vt -26.858305 3.315617
vt -26.858469 3.315591
vt -26.746824 3.310903
vt -27.200363 2.796596
vt -27.167007 3.003195
vt -26.646952 2.973249
vt -26.739586 2.816635
vt -26.932747 2.384576
vt -27.137922 2.489886
vt -26.612947 3.081881
vt -26.662294 3.268772
s 1
usemtl gravel_hr_1
f 29/33/1 14/15/2 4/4/3
f 29/33/1 5/5/4 14/15/2
f 16/17/5 6/6/6 19/20/7
f 19/20/7 11/11/8 18/19/9
f 19/20/7 20/21/10 12/13/11
f 6/6/6 7/7/12 20/21/10
f 12/13/11 2/2/13 13/14/14
f 2/2/13 3/3/15 13/14/14
f 36/41/16 21/22/17 37/42/18
f 22/23/19 37/42/18 21/22/17
f 8/8/20 22/23/19 21/22/17
f 22/23/19 23/24/21 37/42/18
f 2/2/13 21/22/17 3/3/15
f 22/23/19 1/1/22 10/10/23
f 1/1/22 30/34/24 25/26/25
f 25/26/25 30/34/24 38/43/26
f 30/34/24 27/29/27 26/27/28
f 39/44/29 28/32/30 29/33/1
f 10/10/23 1/1/22 24/25/31
f 30/34/24 31/35/32 27/29/27
f 31/35/32 29/33/1 27/30/27
f 39/44/29 29/33/1 4/4/3
f 7/7/12 8/8/20 2/2/13
f 7/7/12 30/34/24 8/8/20
f 6/6/6 31/35/32 7/7/12
f 31/35/32 30/34/24 7/7/12
f 30/34/24 1/1/22 8/8/20
f 5/5/4 29/33/1 6/6/6
f 8/8/20 1/1/22 22/23/19
f 9/9/33 3/3/15 40/45/34
f 32/36/35 12/13/11 33/38/36
f 33/38/36 13/14/14 41/46/37
f 11/12/8 12/13/11 32/37/35
f 13/14/14 3/3/15 9/9/33
f 14/15/2 5/5/4 34/39/38
f 34/39/38 5/5/4 15/16/39
f 5/5/4 35/40/40 15/16/39
f 35/40/40 16/17/5 17/18/41
f 18/19/9 17/18/41 19/20/7
f 17/18/41 16/17/5 19/20/7
f 11/12/8 19/20/7 12/13/11
f 19/20/7 6/6/6 20/21/10
f 12/13/11 20/21/10 2/2/13
f 20/21/10 7/7/12 2/2/13
f 5/5/4 16/17/5 35/40/40
f 5/5/4 6/6/6 16/17/5
f 36/41/16 40/45/34 21/22/17
f 23/24/21 22/23/19 10/10/23
f 3/3/15 21/22/17 40/45/34
f 2/2/13 8/8/20 21/22/17
f 24/25/31 1/1/22 25/26/25
f 38/43/26 30/34/24 26/28/28
f 27/31/27 29/33/1 28/32/30
f 6/6/6 29/33/1 31/35/32
f 33/38/36 12/13/11 13/14/14
f 9/9/33 41/46/37 13/14/14
