# Blender 3.4.0
# www.blender.org
mtllib mask_mx_3_1.mtl
o mask_mx_3_1
v -0.041610 0.036250 0.120278
v -0.055509 0.036250 -0.111924
v 0.041610 0.036250 0.120278
v 0.055509 0.036250 -0.111924
v -0.083242 0.040833 0.011254
v 0.083242 0.040833 0.011254
v -0.080354 0.040048 -0.070618
v -0.000000 0.039264 -0.132811
v 0.067560 0.040048 0.085997
v 0.000000 0.039263 0.136299
v -0.067560 0.040048 0.085997
v 0.080354 0.040048 -0.070618
v -0.000000 0.054673 0.011254
v -0.000000 0.033146 0.009965
v -0.051222 -0.000678 0.140199
v -0.072027 -0.000677 -0.137877
v 0.072027 -0.000677 -0.137877
v 0.051222 -0.000678 0.140199
v 0.114835 -0.000677 0.011226
v -0.114835 -0.000677 0.011226
v 0.000000 0.032287 0.078580
v -0.000000 0.053612 0.086792
v 0.000000 0.053612 -0.071630
v -0.000000 0.032288 -0.065290
v -0.092362 -0.000677 0.087398
v 0.110567 -0.000677 -0.072495
v 0.000000 -0.000678 0.158539
v 0.092362 -0.000677 0.087398
v 0.000000 -0.000677 -0.161248
v -0.110567 -0.000677 -0.072495
v -0.031011 0.028161 0.094732
v -0.043900 0.009991 0.122965
v -0.041121 0.027067 -0.088055
v -0.059300 0.011397 -0.116152
v 0.031011 0.028161 0.094732
v 0.043900 0.009991 0.122965
v 0.041121 0.027067 -0.088055
v 0.059300 0.011397 -0.116152
v -0.089797 0.014980 0.010503
v -0.057267 0.029009 0.010090
v 0.089797 0.014980 0.010503
v 0.057267 0.029009 0.010090
v -0.042750 0.028637 0.078794
v -0.073637 0.013320 0.082058
v -0.000000 0.028324 -0.103423
v 0.000000 0.012874 -0.137137
v 0.054666 0.028365 -0.065196
v 0.086979 0.014220 -0.067711
v 0.000000 0.028767 0.106236
v 0.000000 0.011966 0.138682
v -0.054666 0.028365 -0.065196
v -0.086979 0.014220 -0.067711
v 0.042750 0.028637 0.078794
v 0.073637 0.013320 0.082058
v -0.073946 -0.000678 0.117077
v -0.106707 -0.000677 0.050656
v 0.116082 -0.000677 -0.031689
v 0.026379 -0.000678 0.153714
v -0.026379 -0.000678 0.153714
v 0.106707 -0.000677 0.050656
v 0.073946 -0.000678 0.117077
v -0.116082 -0.000677 -0.031689
v 0.094036 -0.000677 -0.108477
v -0.037094 -0.000677 -0.154185
v 0.037094 -0.000677 -0.154185
v -0.094036 -0.000677 -0.108477
vn -0.0084 0.9876 0.1568
vn -0.3912 0.7515 0.5312
vn -0.0097 0.7747 0.6322
vn 0.4046 0.7516 0.5210
vn 0.5311 0.7968 0.2880
vn -0.3615 0.8207 -0.4425
vn -0.0407 0.9926 -0.1141
vn 0.0037 0.8298 -0.5580
vn -0.0109 -0.9981 -0.0605
vn 0.2131 -0.9331 -0.2896
vn 0.2744 -0.9481 -0.1605
vn -0.1984 -0.9494 0.2435
vn -0.0000 -0.9985 0.0552
vn 0.0007 -0.9566 0.2915
vn -0.2239 -0.9308 -0.2889
vn -0.0000 -0.9391 -0.3437
vn 0.1972 -0.9495 0.2442
vn 0.2545 -0.9608 0.1100
vn -0.5024 0.8496 -0.1602
vn 0.2563 -0.9663 -0.0245
vn -0.0000 -1.0000 -0.0030
vn 0.5296 -0.8076 -0.2595
vn 0.4553 -0.8590 -0.2342
vn 0.4050 -0.8478 -0.3424
vn 0.4797 0.6380 -0.6024
vn 0.2605 0.6237 -0.7370
vn 0.3772 0.8051 -0.4577
vn -0.5282 0.8002 0.2841
vn -0.0001 1.0000 0.0079
vn -0.5294 0.8474 0.0415
vn 0.2729 -0.9027 0.3327
vn 0.4369 -0.8884 0.1407
vn 0.3967 -0.8811 0.2576
vn -0.7788 0.6262 -0.0361
vn -0.2729 -0.9027 0.3327
vn -0.2687 -0.9001 0.3428
vn -0.3967 -0.8811 0.2576
vn -0.4630 -0.8850 -0.0495
vn -0.5280 -0.8471 -0.0596
vn -0.5075 -0.8502 -0.1400
vn -0.2744 -0.9481 -0.1605
vn -0.2563 -0.9663 -0.0245
vn -0.2542 -0.9608 0.1105
vn -0.4369 -0.8884 0.1407
vn 0.7839 0.4905 0.3808
vn 0.7908 0.5766 0.2052
vn 0.7930 0.6027 0.0889
vn 0.7757 0.6297 -0.0417
vn 0.5307 0.8465 0.0437
vn 0.6792 0.4951 0.5418
vn 0.5133 0.8471 -0.1378
vn 0.5129 0.5072 0.6926
vn 0.2956 0.5171 0.8033
vn 0.2687 -0.9001 0.3428
vn 0.1484 -0.9001 0.4096
vn -0.7852 0.6164 0.0584
vn -0.4797 0.6380 -0.6024
vn -0.2605 0.6237 -0.7370
vn -0.7795 0.6008 -0.1771
vn -0.6765 0.6048 -0.4202
vn 0.2967 -0.8633 -0.4083
vn 0.2964 -0.8675 -0.3995
vn 0.1750 -0.8735 -0.4544
vn 0.7742 0.6038 -0.1897
vn 0.6768 0.6030 -0.4224
vn 0.5280 -0.8471 -0.0596
vn 0.4994 -0.8660 0.0265
vn 0.4630 -0.8850 -0.0495
vn -0.4553 -0.8590 -0.2342
vn -0.2964 -0.8675 -0.3995
vn -0.1484 -0.9001 0.4096
vn -0.0000 -0.9025 0.4307
vn -0.4050 -0.8478 -0.3424
vn -0.0000 -0.8792 -0.4764
vn -0.4995 -0.8659 0.0268
vn -0.7839 0.4905 0.3808
vn -0.7910 0.5761 0.2059
vn 0.5075 -0.8502 -0.1400
vn -0.5129 0.5072 0.6926
vn -0.2956 0.5171 0.8033
vn -0.2967 -0.8633 -0.4083
vn -0.1750 -0.8735 -0.4544
vn -0.6792 0.4951 0.5418
vn -0.0000 0.4865 0.8737
vn -0.0000 0.5800 -0.8146
vn -0.0000 -0.8718 0.4899
vn -0.0000 -0.8435 -0.5371
vn 0.5074 -0.8496 0.1440
vn -0.5074 -0.8496 0.1440
vn -0.5296 -0.8076 -0.2595
vt 0.318195 0.128478
vt 0.258036 0.837593
vt 0.681805 0.128478
vt 0.741964 0.837593
vt 0.153753 0.461087
vt 0.846247 0.461087
vt 0.165911 0.710558
vt 0.500000 0.900545
vt 0.779844 0.236242
vt 0.500000 0.080584
vt 0.220156 0.236242
vt 0.834089 0.710558
vt 0.500000 0.461609
vt 0.500000 0.465420
vt 0.277440 0.068701
vt 0.187041 0.915978
vt 0.812959 0.915978
vt 0.722560 0.068701
vt 0.998958 0.461675
vt 0.001042 0.461675
vt 0.500000 0.253463
vt 0.500000 0.231888
vt 0.500000 0.713864
vt 0.500000 0.697562
vt 0.098687 0.229582
vt 0.980412 0.716768
vt 0.500000 0.012821
vt 0.901313 0.229582
vt 0.500000 0.987192
vt 0.019588 0.716768
vt 0.355082 0.199902
vt 0.293930 0.112582
vt 0.311243 0.770542
vt 0.225186 0.857257
vt 0.644918 0.199902
vt 0.706070 0.112582
vt 0.688757 0.770542
vt 0.774814 0.857257
vt 0.096210 0.459966
vt 0.244518 0.462293
vt 0.903790 0.459966
vt 0.755482 0.462293
vt 0.307123 0.248728
vt 0.169977 0.238496
vt 0.500000 0.820889
vt 0.500000 0.926173
vt 0.742817 0.700725
vt 0.888591 0.708971
vt 0.500000 0.161257
vt 0.500000 0.060915
vt 0.257183 0.700725
vt 0.111410 0.708971
vt 0.692877 0.248728
vt 0.830024 0.238496
vt 0.188397 0.144695
vt 0.045589 0.343262
vt 0.995498 0.592135
vt 0.609356 0.036974
vt 0.390644 0.036974
vt 0.954412 0.343262
vt 0.811603 0.144695
vt 0.004504 0.592135
vt 0.898953 0.822037
vt 0.343418 0.956886
vt 0.656582 0.956886
vt 0.101047 0.822037
s 1
usemtl mask_mx_3
f 22/22/1 1/1/2 10/10/3
f 22/22/1 3/3/4 9/9/5
f 2/2/6 23/23/7 8/8/8
f 21/21/9 31/31/10 43/43/11
f 37/37/12 24/24/13 45/45/14
f 21/21/9 35/35/15 49/49/16
f 33/33/17 24/24/13 51/51/18
f 2/2/6 7/7/19 23/23/7
f 43/43/11 40/40/20 14/14/21 21/21/9
f 14/14/21 40/40/20 51/51/18 24/24/13
f 25/25/22 44/44/23 55/55/24
f 17/17/25 65/65/26 4/4/27
f 11/11/28 22/22/1 13/13/29 5/5/30
f 22/22/1 11/11/28 1/1/2
f 22/22/1 10/10/3 3/3/4
f 4/4/27 8/8/8 23/23/7
f 34/34/31 52/52/32 66/66/33
f 5/5/30 7/7/19 62/62/34
f 38/38/35 17/17/36 63/63/37
f 41/41/38 19/19/39 60/60/40
f 53/53/41 21/21/9 14/14/21 42/42/42
f 41/41/38 42/42/42 47/47/43 48/48/44
f 28/28/45 60/60/46 9/9/5
f 19/19/47 57/57/48 6/6/49
f 28/28/45 9/9/5 61/61/50
f 9/9/5 6/6/49 13/13/29 22/22/1
f 12/12/51 4/4/27 23/23/7
f 21/21/9 49/49/16 31/31/10
f 18/18/52 3/3/4 58/58/53
f 37/37/12 47/47/43 24/24/13
f 16/16/54 64/64/55 34/34/31
f 5/5/30 62/62/34 20/20/56
f 21/21/9 53/53/41 35/35/15
f 52/52/32 34/34/31 33/33/17 51/51/18
f 16/16/57 2/2/6 64/64/58
f 30/30/59 7/7/19 66/66/60
f 15/15/61 32/32/62 59/59/63
f 26/26/64 63/63/65 12/12/51
f 33/33/17 45/45/14 24/24/13
f 20/20/66 62/62/67 39/39/68
f 54/54/69 53/53/41 42/42/42 41/41/38
f 54/54/69 36/36/70 35/35/15 53/53/41
f 17/17/36 38/38/35 65/65/71
f 38/38/35 37/37/12 45/45/14 46/46/72
f 39/39/68 52/52/32 51/51/18 40/40/20
f 36/36/70 54/54/69 61/61/73
f 32/32/62 31/31/10 49/49/16 50/50/74
f 48/48/44 47/47/43 37/37/12 38/38/35
f 19/19/39 41/41/38 57/57/75
f 44/44/23 43/43/11 31/31/10 32/32/62
f 23/23/7 13/13/29 6/6/49 12/12/51
f 7/7/19 5/5/30 13/13/29 23/23/7
f 44/44/23 39/39/68 40/40/20 43/43/11
f 25/25/76 11/11/28 56/56/77
f 39/39/68 44/44/23 56/56/78
f 15/15/79 59/59/80 1/1/2
f 18/18/81 58/58/82 36/36/70
f 36/36/70 50/50/74 49/49/16 35/35/15
f 25/25/76 55/55/83 11/11/28
f 34/34/31 46/46/72 45/45/14 33/33/17
f 14/14/21 24/24/13 47/47/43 42/42/42
f 57/57/48 26/26/64 12/12/51
f 61/61/50 9/9/5 3/3/4
f 3/3/4 18/18/52 61/61/50
f 58/58/53 10/10/3 27/27/84
f 10/10/3 58/58/53 3/3/4
f 9/9/5 60/60/46 6/6/49
f 6/6/49 60/60/46 19/19/47
f 6/6/49 57/57/48 12/12/51
f 7/7/19 30/30/59 62/62/34
f 64/64/58 8/8/8 29/29/85
f 8/8/8 64/64/58 2/2/6
f 66/66/60 7/7/19 2/2/6
f 2/2/6 16/16/57 66/66/60
f 4/4/27 65/65/26 8/8/8
f 8/8/8 65/65/26 29/29/85
f 12/12/51 63/63/65 4/4/27
f 4/4/27 63/63/65 17/17/25
f 34/34/31 64/64/55 46/46/72
f 46/46/72 64/64/55 29/29/86
f 59/59/63 50/50/74 27/27/87
f 50/50/74 59/59/63 32/32/62
f 66/66/33 52/52/32 30/30/88
f 66/66/33 16/16/54 34/34/31
f 65/65/71 46/46/72 29/29/86
f 46/46/72 65/65/71 38/38/35
f 36/36/70 58/58/82 50/50/74
f 50/50/74 58/58/82 27/27/87
f 63/63/37 26/26/89 48/48/44
f 48/48/44 38/38/35 63/63/37
f 55/55/24 44/44/23 32/32/62
f 32/32/62 15/15/61 55/55/24
f 39/39/68 62/62/67 52/52/32
f 52/52/32 62/62/67 30/30/88
f 56/56/78 44/44/23 25/25/22
f 56/56/78 20/20/66 39/39/68
f 61/61/73 54/54/69 28/28/90
f 61/61/73 18/18/81 36/36/70
f 57/57/75 48/48/44 26/26/89
f 48/48/44 57/57/75 41/41/38
f 60/60/40 28/28/90 54/54/69
f 54/54/69 41/41/38 60/60/40
f 11/11/28 55/55/83 1/1/2
f 1/1/2 55/55/83 15/15/79
f 1/1/2 59/59/80 10/10/3
f 10/10/3 59/59/80 27/27/84
f 56/56/77 11/11/28 5/5/30
f 5/5/30 20/20/56 56/56/77
