# Blender 3.4.0
# www.blender.org
mtllib mask_mx_4.mtl
o mask_mx_4
v -0.041610 0.036250 0.120278
v -0.055509 0.036250 -0.111924
v 0.041610 0.036250 0.120278
v 0.055509 0.036250 -0.111924
v -0.083242 0.040833 0.011254
v 0.083242 0.040833 0.011254
v -0.080354 0.040048 -0.070618
v -0.000000 0.039264 -0.132811
v 0.067560 0.040048 0.085997
v 0.000000 0.039263 0.136299
v -0.067560 0.040048 0.085997
v 0.080354 0.040048 -0.070618
v -0.000000 0.054673 0.011254
v -0.072027 -0.000677 -0.137877
v 0.114835 -0.000677 0.011226
v -0.114835 -0.000677 0.011226
v -0.000000 0.053612 0.086792
v 0.000000 0.053612 -0.071630
v 0.048946 0.045624 -0.049651
v 0.066772 0.042711 -0.044426
v 0.081666 0.040405 -0.033421
v 0.077530 0.041440 -0.010925
v 0.062470 0.044148 0.002291
v 0.049561 0.046352 0.005980
v 0.030197 0.049485 0.000448
v 0.019133 0.051125 -0.013383
v 0.018518 0.050997 -0.031518
v 0.031426 0.048643 -0.045041
v -0.047870 0.045850 -0.050573
v -0.029430 0.049019 -0.047192
v -0.015905 0.051454 -0.033668
v -0.015598 0.051745 -0.014920
v -0.026663 0.050094 -0.000167
v -0.046949 0.046816 0.007210
v -0.066004 0.043588 0.002600
v -0.077991 0.041338 -0.013383
v -0.081580 0.040382 -0.035871
v -0.068462 0.042441 -0.045963
v -0.031259 0.041447 -0.043629
v -0.063807 0.036594 -0.000814
v 0.077509 0.033809 -0.031753
v 0.074053 0.034676 -0.012952
v 0.033411 0.041047 -0.041598
v -0.041610 0.031250 0.120278
v -0.055509 0.031250 -0.111924
v 0.041610 0.031250 0.120278
v 0.055509 0.031250 -0.111924
v -0.083242 0.035833 0.011254
v 0.083242 0.035833 0.011254
v -0.080354 0.035048 -0.070618
v -0.000000 0.034264 -0.132811
v 0.067560 0.035048 0.085997
v 0.000000 0.034263 0.136299
v -0.067560 0.035048 0.085997
v 0.080354 0.035048 -0.070618
v -0.000000 0.049673 0.011254
v -0.051222 -0.000678 0.140199
v 0.072027 -0.000677 -0.137877
v 0.051222 -0.000678 0.140199
v -0.000000 0.048612 0.086791
v 0.000000 0.048612 -0.071630
v -0.092362 -0.000677 0.087398
v 0.110567 -0.000677 -0.072495
v 0.000000 -0.000678 0.158539
v 0.092362 -0.000677 0.087398
v 0.000000 -0.000677 -0.161248
v -0.110567 -0.000677 -0.072495
v 0.048946 0.040624 -0.049651
v 0.066772 0.037711 -0.044426
v 0.081666 0.035405 -0.033421
v 0.077530 0.036440 -0.010925
v 0.062470 0.039148 0.002291
v 0.049561 0.041352 0.005980
v 0.030197 0.044485 0.000448
v 0.019133 0.046125 -0.013383
v 0.018518 0.045997 -0.031518
v 0.031426 0.043643 -0.045041
v -0.047870 0.040850 -0.050573
v -0.029430 0.044019 -0.047192
v -0.015905 0.046454 -0.033668
v -0.015598 0.046745 -0.014920
v -0.026663 0.045094 -0.000167
v -0.046949 0.041816 0.007210
v -0.066004 0.038588 0.002600
v -0.077991 0.036338 -0.013383
v -0.081580 0.035382 -0.035871
v -0.068462 0.037441 -0.045963
v -0.047804 0.033601 -0.046662
v -0.019663 0.038532 -0.032033
v -0.019402 0.038774 -0.016178
v -0.028991 0.037343 -0.003392
v -0.047157 0.034409 0.003214
v -0.074407 0.029601 -0.014949
v -0.077481 0.028777 -0.034215
v -0.066843 0.030448 -0.042400
v 0.048901 0.033375 -0.045674
v 0.065088 0.030729 -0.040929
v 0.060625 0.032090 -0.001169
v 0.049552 0.033979 0.001996
v 0.032374 0.036757 -0.002912
v 0.022870 0.038165 -0.014793
v 0.022355 0.038063 -0.030015
v 0.094036 -0.000677 -0.108477
v 0.037094 -0.000677 -0.154185
v -0.037094 -0.000677 -0.154185
v -0.094036 -0.000677 -0.108477
v -0.073946 -0.000678 0.117077
v 0.026379 -0.000678 0.153714
v -0.026379 -0.000678 0.153714
v 0.073946 -0.000678 0.117077
v -0.106707 -0.000677 0.050656
v 0.116082 -0.000677 -0.031689
v 0.106707 -0.000677 0.050656
v -0.116082 -0.000677 -0.031689
vn -0.0000 0.9887 0.1496
vn -0.3989 0.7501 0.5274
vn -0.0000 0.7747 0.6323
vn 0.3989 0.7501 0.5274
vn 0.5317 0.7979 0.2840
vn -0.4987 -0.8483 0.1777
vn -0.1722 -0.9079 -0.3823
vn -0.0003 -0.9935 0.1136
vn -0.3710 0.8131 -0.4485
vn 0.0003 0.9935 -0.1136
vn -0.0000 0.8223 -0.5691
vn -0.1642 0.9863 -0.0127
vn -0.1640 0.9864 -0.0126
vn 0.0003 1.0000 0.0089
vn 0.5277 0.8306 -0.1780
vn 0.1647 0.9862 -0.0149
vn 0.6480 0.7605 -0.0423
vn 0.1640 0.9863 -0.0152
vn 0.5306 0.8462 0.0496
vn 0.1666 0.9859 -0.0126
vn -0.5308 0.8460 0.0499
vn -0.1644 0.9863 -0.0135
vn -0.1663 0.9860 -0.0153
vn -0.1666 0.9859 -0.0153
vn -0.5280 0.8303 -0.1783
vn -0.6534 0.7558 -0.0428
vn -0.0000 -0.9887 -0.1496
vn 0.3828 -0.7731 -0.5057
vn 0.5088 -0.8160 -0.2744
vn -0.3828 -0.7731 -0.5057
vn -0.5088 -0.8160 -0.2744
vn -0.3499 -0.8357 0.4233
vn -0.0000 -0.8422 0.5392
vn 0.3499 -0.8357 0.4233
vn -0.0003 -1.0000 -0.0089
vn 0.4482 -0.8859 -0.1197
vn 0.0601 -0.9197 -0.3879
vn -0.7721 0.6030 -0.2009
vn -0.7763 0.6284 -0.0497
vn -0.5009 -0.8642 -0.0471
vn 0.0623 -0.9171 0.3937
vn 0.0899 -0.9824 0.1638
vn -0.4497 -0.8868 -0.1068
vn 0.5013 -0.8640 -0.0474
vn -0.2454 -0.9467 0.2087
vn -0.0332 -0.9504 0.3093
vn 0.4990 -0.8481 0.1781
vn -0.0455 -0.9029 -0.4274
vn 0.1421 -0.9786 -0.1487
vn 0.1691 -0.8995 -0.4028
vn 0.8334 0.3572 -0.4218
vn 0.8576 0.3503 -0.3767
vn 0.8690 0.3560 0.3436
vn 0.8573 0.3559 0.3719
vn -0.5317 0.7979 0.2840
vn 0.3710 0.8131 -0.4485
vn 0.4411 0.3866 -0.8099
vn 0.4770 0.3874 -0.7889
vn -0.1658 0.9860 -0.0144
vn 0.1663 0.9860 -0.0131
vn 0.7839 0.4905 0.3808
vn 0.7908 0.5766 0.2052
vn 0.7926 0.6032 0.0895
vn 0.7753 0.6296 -0.0507
vn 0.6792 0.4951 0.5418
vn -0.7504 -0.6555 -0.0846
vn -0.7367 -0.6752 0.0369
vn 0.7719 0.6035 -0.2000
vn 0.3453 0.3098 0.8859
vn 0.3805 0.3102 0.8712
vn -0.0169 0.3331 0.9427
vn -0.0828 0.3423 0.9359
vn 0.5129 0.5072 0.6926
vn 0.2956 0.5171 0.8033
vn 0.7540 -0.6275 -0.1945
vn 0.6382 -0.6579 0.3999
vn -0.7569 0.4499 -0.4740
vn -0.8008 0.4969 0.3343
vn -0.7964 0.4952 0.3472
vn -0.7619 0.4523 -0.4637
vn -0.4797 0.6380 -0.6024
vn -0.2605 0.6237 -0.7370
vn 0.4913 -0.5627 -0.6648
vn 0.6522 -0.5484 -0.5234
vn 0.7507 -0.6552 -0.0846
vn 0.7372 -0.6747 0.0369
vn 0.6765 0.6048 -0.4202
vn 0.1641 0.9863 -0.0150
vn 0.1658 0.9861 -0.0133
vn 0.2857 -0.5715 -0.7693
vn 0.2480 -0.6767 0.6932
vn -0.7839 0.4905 0.3808
vn -0.6792 0.4951 0.5418
vn -0.3819 0.3441 0.8577
vn 0.0940 0.3472 0.9331
vn 0.0074 0.3382 0.9410
vn -0.3953 0.3473 0.8504
vn -0.5129 0.5072 0.6926
vn -0.2956 0.5171 0.8033
vn -0.8758 0.3357 0.3469
vn -0.8763 0.3356 0.3457
vn -0.9102 0.2951 -0.2904
vn -0.9143 0.2951 -0.2775
vn -0.4976 0.3631 0.7878
vn -0.4692 0.3640 0.8046
vn 0.4634 -0.8114 0.3561
vn 0.4596 -0.8482 -0.2635
vn -0.2926 -0.9530 -0.0785
vn -0.4799 -0.5994 -0.6406
vn -0.7990 -0.5380 -0.2685
vn -0.3290 -0.9013 -0.2819
vn -0.4046 0.3434 -0.8476
vn -0.4257 0.3475 -0.8355
vn 0.9032 0.2945 -0.3122
vn 0.8981 0.2946 -0.3265
vn 0.8883 0.3366 0.3124
vn 0.8866 0.3371 0.3166
vn 0.5769 0.2993 -0.7600
vn 0.5419 0.3000 -0.7851
vn 0.3883 -0.8605 0.3298
vn 0.5613 -0.4560 0.6906
vn 0.8534 -0.4491 0.2646
vn 0.5013 -0.8562 0.1249
vn 0.5098 0.3604 0.7811
vn 0.5339 0.3596 0.7653
vn 0.1692 -0.9011 0.3992
vn 0.1046 -0.5642 0.8190
vn -0.0540 -0.4747 0.8785
vn 0.3439 -0.5794 0.7389
vn -0.1564 -0.8821 0.4443
vn -0.0000 -0.7953 -0.6062
vn 0.3115 -0.9071 -0.2829
vn -0.7574 -0.5402 -0.3669
vn -0.7540 -0.6275 -0.1945
vn -0.6522 -0.5484 -0.5234
vn -0.4913 -0.5627 -0.6648
vn 0.4493 -0.6919 0.5651
vn -0.7908 0.5766 0.2052
vn -0.2857 -0.5715 -0.7693
vn -0.3218 -0.4879 -0.8114
vn -0.7691 -0.5563 -0.3148
vn -0.6765 0.6048 -0.4202
vn -0.4493 -0.6919 0.5651
vn -0.2480 -0.6767 0.6932
vn -0.1137 0.3397 -0.9336
vn -0.0814 0.3442 -0.9354
vn -0.7448 -0.6350 0.2052
vn -0.6382 -0.6579 0.3999
vn -0.3702 -0.8648 0.3392
vn -0.5004 -0.8543 0.1408
vn 0.7894 -0.5371 -0.2974
vn -0.0576 -0.5519 -0.8319
vn 0.3219 -0.5832 -0.7458
vn -0.6126 0.2971 -0.7324
vn -0.5821 0.2977 -0.7567
vn 0.0748 0.3056 -0.9492
vn 0.0229 0.3065 -0.9516
vn 0.4466 -0.6049 -0.6593
vn 0.0677 -0.5449 -0.8358
vn -0.7277 -0.5874 0.3543
vn -0.3409 -0.6551 0.6743
vn -0.8428 -0.4485 0.2974
vn -0.5248 -0.4594 0.7166
vn 0.4797 0.6380 -0.6024
vn 0.2605 0.6237 -0.7370
vn -0.7926 0.6032 0.0895
vn -0.0000 0.4865 0.8737
vn -0.0000 0.5800 -0.8146
vn 0.7447 -0.6351 0.2052
vn -0.0000 -0.5370 -0.8436
vn 0.7574 -0.5402 -0.3669
vn -0.0000 -0.6312 0.7756
vt 0.318195 0.128478
vt 0.258036 0.837593
vt 0.681805 0.128478
vt 0.741964 0.837593
vt 0.153753 0.461087
vt 0.846247 0.461087
vt 0.165911 0.710558
vt 0.500000 0.900545
vt 0.779844 0.236242
vt 0.500000 0.080584
vt 0.220156 0.236242
vt 0.834089 0.710558
vt 0.500000 0.461609
vt 0.187041 0.915978
vt 0.190760 0.908776
vt 0.998958 0.461675
vt 0.987277 0.461292
vt 0.001042 0.461675
vt 0.012723 0.461292
vt 0.500000 0.231888
vt 0.500000 0.713864
vt 0.703549 0.646792
vt 0.777674 0.630809
vt 0.839612 0.597217
vt 0.822455 0.528692
vt 0.759839 0.488516
vt 0.706148 0.477359
vt 0.625609 0.494324
vt 0.579594 0.536495
vt 0.577027 0.591701
vt 0.630699 0.632817
vt 0.300968 0.649602
vt 0.377653 0.639374
vt 0.433872 0.598258
vt 0.435139 0.541191
vt 0.389111 0.496216
vt 0.304724 0.473631
vt 0.225476 0.487555
vt 0.175642 0.536180
vt 0.160751 0.604680
vt 0.215326 0.635484
vt 0.355057 0.618202
vt 0.241121 0.508036
vt 0.807867 0.589009
vt 0.795848 0.538946
vt 0.653594 0.612981
vt 0.318195 0.128478
vt 0.258036 0.837593
vt 0.681805 0.128478
vt 0.741964 0.837593
vt 0.153753 0.461087
vt 0.846247 0.461087
vt 0.165911 0.710558
vt 0.500000 0.900545
vt 0.779844 0.236242
vt 0.500000 0.080584
vt 0.220156 0.236242
vt 0.834089 0.710558
vt 0.500000 0.461609
vt 0.280869 0.074966
vt 0.277440 0.068701
vt 0.812959 0.915978
vt 0.809241 0.908776
vt 0.722560 0.068701
vt 0.719131 0.074966
vt 0.500000 0.231888
vt 0.500000 0.713864
vt 0.098687 0.229582
vt 0.108881 0.231401
vt 0.980412 0.716768
vt 0.968880 0.716390
vt 0.500000 0.012821
vt 0.500000 0.018559
vt 0.901313 0.229582
vt 0.891120 0.231401
vt 0.500000 0.987192
vt 0.500000 0.980765
vt 0.019588 0.716768
vt 0.031120 0.716390
vt 0.703549 0.646792
vt 0.777674 0.630809
vt 0.839612 0.597217
vt 0.822455 0.528692
vt 0.759839 0.488516
vt 0.706148 0.477359
vt 0.625609 0.494324
vt 0.579594 0.536495
vt 0.577027 0.591701
vt 0.630699 0.632817
vt 0.300968 0.649602
vt 0.377653 0.639374
vt 0.433872 0.598258
vt 0.435139 0.541191
vt 0.389111 0.496216
vt 0.304724 0.473631
vt 0.225476 0.487555
vt 0.175642 0.536180
vt 0.160751 0.604680
vt 0.215326 0.635484
vt 0.296819 0.626136
vt 0.395676 0.588104
vt 0.396509 0.548407
vt 0.362960 0.515258
vt 0.299309 0.498057
vt 0.203501 0.544174
vt 0.193059 0.595275
vt 0.230146 0.615202
vt 0.707778 0.623509
vt 0.764717 0.611408
vt 0.749021 0.509180
vt 0.710076 0.501244
vt 0.649876 0.514104
vt 0.616707 0.544851
vt 0.614842 0.582884
vt 0.898954 0.822037
vt 0.892057 0.818290
vt 0.656582 0.956886
vt 0.655051 0.950495
vt 0.343418 0.956885
vt 0.344949 0.950495
vt 0.101047 0.822037
vt 0.107943 0.818290
vt 0.188397 0.144695
vt 0.194700 0.148680
vt 0.609356 0.036974
vt 0.607920 0.042654
vt 0.390644 0.036974
vt 0.392080 0.042654
vt 0.811603 0.144695
vt 0.805300 0.148680
vt 0.045589 0.343262
vt 0.056079 0.343880
vt 0.995498 0.592135
vt 0.984370 0.591769
vt 0.954412 0.343262
vt 0.943922 0.343880
vt 0.004504 0.592135
vt 0.015632 0.591769
s 1
usemtl mask_mx_4
f 17/20/1 1/1/2 10/10/3
f 17/20/1 3/3/4 9/9/5
f 55/58/6 68/80/7 61/67/8
f 2/2/9 18/21/10 8/8/11
f 31/34/12 32/35/13 13/13/14
f 12/12/15 20/23/16 21/24/17
f 22/25/18 23/26/18 6/6/19
f 27/30/20 18/21/10 13/13/14
f 5/5/21 35/38/22 36/39/23
f 38/41/24 7/7/25 37/40/26
f 60/66/27 44/47/28 54/57/29
f 46/49/30 60/66/27 52/55/31
f 47/50/32 61/67/8 51/54/33
f 61/67/8 45/48/34 51/54/33
f 61/67/8 56/59/35 80/92/36
f 55/58/6 69/81/37 68/80/7
f 67/78/38 114/137/39 7/7/25
f 49/52/40 72/84/41 71/83/42
f 56/59/35 61/67/8 76/88/43
f 48/51/44 85/97/45 84/96/46
f 50/53/47 87/99/48 86/98/49
f 2/2/9 7/7/25 18/21/10
f 47/50/32 55/58/6 61/67/8
f 78/90/50 50/53/47 61/67/8
f 54/57/29 48/51/44 56/59/35 60/66/27
f 36/39/51 93/105/52 94/106/53 37/40/54
f 17/20/1 11/11/55 1/1/2
f 17/20/1 10/10/3 3/3/4
f 4/4/56 8/8/11 18/21/10
f 36/39/51 35/38/57 40/43/58 93/105/52
f 18/21/10 29/32/24 30/33/59
f 34/37/13 5/5/21 13/13/14
f 33/36/13 34/37/13 13/13/14
f 18/21/10 30/33/59 31/34/12
f 32/35/13 33/36/13 13/13/14
f 18/21/10 31/34/12 13/13/14
f 12/12/15 19/22/60 20/23/16
f 65/74/61 113/135/62 9/9/5
f 15/16/63 112/133/64 6/6/19
f 65/74/61 9/9/5 110/129/65
f 15/17/66 49/52/40 112/134/67
f 112/133/64 63/70/68 12/12/15
f 38/41/69 95/107/70 88/100/71 29/32/72
f 59/64/73 3/3/4 108/125/74
f 48/51/44 54/57/29 111/132/75
f 50/53/47 106/122/76 45/48/34
f 22/25/77 21/24/78 41/44/79 42/45/80
f 14/14/81 2/2/9 105/119/82
f 44/47/28 57/60/83 107/124/84
f 16/19/85 114/138/86 48/51/44
f 63/70/68 103/115/87 12/12/15
f 6/6/19 21/24/17 22/25/18
f 23/26/18 24/27/18 6/6/19
f 13/13/14 6/6/19 24/27/18
f 13/13/14 24/27/18 25/28/88
f 28/31/20 19/22/60 18/21/10
f 13/13/14 25/28/88 26/29/89
f 27/30/20 28/31/20 18/21/10
f 13/13/14 26/29/89 27/30/20
f 5/5/21 34/37/13 35/38/22
f 36/39/23 37/40/26 5/5/21
f 38/41/24 29/32/24 7/7/25
f 57/60/83 44/47/28 109/128/90
f 12/12/15 4/4/56 18/21/10
f 51/54/33 45/48/34 105/120/91
f 62/68/92 107/123/93 11/11/55
f 20/23/94 19/22/95 96/108/96 97/109/97
f 57/61/98 109/127/99 1/1/2
f 31/34/100 89/101/101 90/102/102 32/35/103
f 37/40/54 94/106/53 95/107/70 38/41/69
f 31/34/100 30/33/104 39/42/105 89/101/101
f 71/83/42 42/45/106 41/44/107 70/82/108
f 43/46/109 102/114/110 76/88/43 77/89/111
f 23/26/112 22/25/77 42/45/80 98/110/113
f 26/29/114 101/113/115 102/114/116 27/30/117
f 25/28/118 100/112/119 101/113/115 26/29/114
f 82/94/120 91/103/121 90/102/122 81/93/123
f 27/30/117 102/114/116 43/46/124 28/31/125
f 19/22/95 28/31/125 43/46/124 96/108/96
f 83/95/126 92/104/127 91/103/121 82/94/120
f 9/9/5 6/6/19 13/13/14 17/20/1
f 99/111/128 98/110/129 72/84/41 73/85/130
f 11/11/55 17/20/1 13/13/14 5/5/21
f 56/59/35 49/52/40 52/55/31 60/66/27
f 60/66/27 53/56/131 44/47/28
f 46/49/30 53/56/131 60/66/27
f 50/53/47 45/48/34 61/67/8
f 7/7/25 29/32/24 18/21/10
f 56/59/35 48/51/44 83/95/126
f 56/59/35 83/95/126 82/94/120
f 79/91/132 78/90/50 61/67/8
f 56/59/35 82/94/120 81/93/123
f 80/92/36 79/91/132 61/67/8
f 56/59/35 81/93/123 80/92/36
f 55/58/6 70/82/108 69/81/37
f 65/75/133 52/55/31 113/136/134
f 20/23/94 97/109/97 41/44/79 21/24/78
f 46/49/30 110/130/135 59/65/136
f 21/24/17 112/133/64 12/12/15
f 45/48/34 106/122/76 14/15/137
f 62/68/92 11/11/55 111/131/138
f 53/56/131 46/49/30 108/126/139
f 95/107/140 94/106/141 86/98/49 87/99/48
f 67/78/38 7/7/25 106/121/142
f 58/63/143 47/50/32 104/118/144
f 34/37/145 92/104/146 40/43/58 35/38/57
f 63/71/147 55/58/6 103/116/148
f 71/83/42 70/82/108 49/52/40
f 49/52/40 73/85/130 72/84/41
f 73/85/130 49/52/40 56/59/35
f 61/67/8 68/80/7 77/89/111
f 74/86/149 73/85/130 56/59/35
f 75/87/150 74/86/149 56/59/35
f 61/67/8 77/89/111 76/88/43
f 76/88/43 75/87/150 56/59/35
f 48/51/44 86/98/49 85/97/45
f 84/96/46 83/95/126 48/51/44
f 50/53/47 78/90/50 87/99/48
f 81/93/123 90/102/122 89/101/151 80/92/36
f 19/22/60 12/12/15 18/21/10
f 29/32/72 88/100/71 39/42/105 30/33/104
f 68/80/7 96/108/152 43/46/109 77/89/111
f 69/81/37 97/109/153 96/108/152 68/80/7
f 34/37/145 33/36/154 91/103/155 92/104/146
f 24/27/156 99/111/157 100/112/119 25/28/118
f 23/26/112 98/110/113 99/111/157 24/27/156
f 80/92/36 89/101/151 39/42/158 79/91/132
f 39/42/158 88/100/159 78/90/50 79/91/132
f 85/97/45 93/105/160 40/43/161 84/96/46
f 40/43/161 92/104/127 83/95/126 84/96/46
f 102/114/110 101/113/162 75/87/150 76/88/43
f 101/113/162 100/112/163 74/86/149 75/87/150
f 88/100/159 95/107/140 87/99/48 78/90/50
f 72/84/41 98/110/129 42/45/106 71/83/42
f 41/44/107 97/109/153 69/81/37 70/82/108
f 58/62/164 104/117/165 4/4/56
f 94/106/141 93/105/160 85/97/45 86/98/49
f 100/112/163 99/111/128 73/85/130 74/86/149
f 33/36/154 32/35/103 90/102/102 91/103/155
f 114/137/39 37/40/26 7/7/25
f 11/11/55 107/123/93 1/1/2
f 1/1/2 107/123/93 57/61/98
f 114/137/39 16/18/166 5/5/21
f 5/5/21 37/40/26 114/137/39
f 111/131/138 11/11/55 5/5/21
f 5/5/21 16/18/166 111/131/138
f 1/1/2 109/127/99 10/10/3
f 10/10/3 109/127/99 64/72/167
f 106/121/142 7/7/25 2/2/9
f 2/2/9 14/14/81 106/121/142
f 105/119/82 8/8/11 66/76/168
f 8/8/11 105/119/82 2/2/9
f 4/4/56 104/117/165 8/8/11
f 8/8/11 104/117/165 66/76/168
f 12/12/15 103/115/87 4/4/56
f 4/4/56 103/115/87 58/62/164
f 6/6/19 112/133/64 21/24/17
f 106/122/76 50/53/47 67/79/169
f 110/129/65 9/9/5 3/3/4
f 3/3/4 59/64/73 110/129/65
f 9/9/5 113/135/62 6/6/19
f 6/6/19 113/135/62 15/16/63
f 108/125/74 10/10/3 64/72/167
f 10/10/3 108/125/74 3/3/4
f 109/128/90 53/56/131 64/73/170
f 53/56/131 109/128/90 44/47/28
f 107/124/84 62/69/171 54/57/29
f 54/57/29 44/47/28 107/124/84
f 48/51/44 114/138/86 86/98/49
f 86/98/49 114/138/86 50/53/47
f 50/53/47 114/138/86 67/79/169
f 113/136/134 49/52/40 15/17/66
f 49/52/40 113/136/134 52/55/31
f 110/130/135 52/55/31 65/75/133
f 52/55/31 110/130/135 46/49/30
f 104/118/144 51/54/33 66/77/172
f 108/126/139 46/49/30 59/65/136
f 108/126/139 64/73/170 53/56/131
f 112/134/67 55/58/6 63/71/147
f 55/58/6 112/134/67 70/82/108
f 70/82/108 112/134/67 49/52/40
f 105/120/91 45/48/34 14/15/137
f 105/120/91 66/77/172 51/54/33
f 111/132/75 16/19/85 48/51/44
f 111/132/75 54/57/29 62/69/171
f 103/116/148 47/50/32 58/63/143
f 47/50/32 103/116/148 55/58/6
f 104/118/144 47/50/32 51/54/33
