# Blender 3.4.0
# www.blender.org
mtllib electrical_equipment_2.mtl
o electrical_equipment_2
v -0.750000 0.000000 0.800000
v -0.715000 2.665000 0.800000
v -0.750000 0.000000 0.000000
v -0.750000 2.700000 0.000000
v 0.750000 0.000000 0.800000
v 0.715000 2.665000 0.800000
v 0.750000 0.000000 0.000000
v 0.750000 2.700000 0.000000
v -0.750000 2.700000 0.800000
v -0.715000 0.035000 0.800000
v 0.750000 2.700000 0.800000
v 0.715000 0.035000 0.800000
v -0.715000 0.035000 0.820000
v 0.715000 0.035000 0.820000
v -0.715000 2.665000 0.820000
v 0.715000 2.665000 0.820000
vn -1.0000 -0.0000 -0.0000
vn 1.0000 -0.0000 -0.0000
vn -0.0000 1.0000 -0.0000
vn -0.0000 -0.0000 1.0000
vn -0.0000 -1.0000 -0.0000
vt 0.648855 0.000000
vt 0.000000 0.000000
vt 0.015563 0.987037
vt 1.000000 0.000000
vt 1.000000 1.000000
vt 0.648855 0.203735
vt 0.648855 0.000000
vt 0.666985 0.000000
vt 0.651422 0.987037
vt 1.000000 0.000000
vt 1.000000 1.000000
vt 0.648855 0.796265
vt 0.648855 1.000000
vt 1.000000 0.203735
vt 0.000000 1.000000
vt 0.015563 0.012963
vt 0.648855 1.000000
vt 1.000000 0.796265
vt 0.666985 1.000000
vt 0.651422 0.012963
vt 0.015563 0.012963
vt 0.651422 0.012963
vt 0.015563 0.987037
vt 0.651422 0.987037
s 0
usemtl transformer_box_hr_1
f 1/1/1 9/13/1 4/5/1 3/4/1
f 7/10/2 8/11/2 11/17/2 5/7/2
f 2/3/1 10/16/1 13/21/1 15/23/1
f 8/12/3 4/6/3 9/14/3 11/18/3
f 10/16/4 2/3/4 9/15/4 1/2/4
f 6/9/4 12/20/4 5/8/4 11/19/4
f 12/20/4 10/16/4 1/2/4 5/8/4
f 2/3/4 6/9/4 11/19/4 9/15/4
f 14/22/4 16/24/4 15/23/4 13/21/4
f 10/16/5 12/20/5 14/22/5 13/21/5
f 6/9/3 2/3/3 15/23/3 16/24/3
f 12/20/2 6/9/2 16/24/2 14/22/2
