# Blender 3.4.0
# www.blender.org
mtllib electrical_equipment_1.mtl
o electrical_equipment_1
v -0.600000 0.368000 0.000000
v -0.600000 2.912000 0.000000
v 0.600000 2.912000 0.000000
v -0.600000 2.912000 0.400000
v -0.572000 0.396000 0.640000
v 0.600000 2.912000 0.400000
v 0.572000 0.396000 0.640000
v -0.572000 0.396000 0.656000
v 0.572000 0.396000 0.656000
v -0.600000 2.542973 0.640000
v -0.600000 2.542973 0.000000
v 0.600000 2.542973 0.000000
v 0.600000 2.542973 0.640000
v -0.572000 2.524556 0.640000
v 0.572000 2.524556 0.640000
v -0.572000 2.524556 0.656000
v 0.572000 2.524556 0.656000
v 0.600000 -0.000000 0.000000
v -0.600000 0.000000 0.000000
v 0.600000 -0.000000 0.400000
v -0.600000 0.000000 0.400000
v 0.600000 0.369027 0.640000
v 0.600000 0.369027 0.000000
v -0.600000 0.369027 0.640000
vn -1.0000 -0.0000 -0.0000
vn 1.0000 -0.0000 -0.0000
vn -0.0000 1.0000 -0.0000
vn -0.0000 -0.0000 1.0000
vn -0.0000 0.5452 0.8383
vn -0.0000 -1.0000 -0.0000
vn -0.0000 -0.5452 0.8383
vt 1.000000 0.000000
vt 1.000000 0.828877
vt 1.000000 1.000000
vt 0.711355 0.109985
vt 1.000000 1.000000
vt 0.711355 0.702515
vt 0.773855 1.000000
vt 1.000000 0.109985
vt 0.000000 1.000000
vt 0.015563 0.012963
vt 0.773855 1.000000
vt 1.000000 0.702515
vt 0.666985 1.000000
vt 0.651422 0.012963
vt 0.015563 0.012963
vt 0.651422 0.012963
vt 0.667630 0.828753
vt 0.000000 0.828877
vt 0.648855 0.828877
vt 1.000000 0.828877
vt 1.000000 0.828877
vt 0.667630 0.828753
vt 0.666985 0.828877
vt 0.648855 0.828877
vt 0.015563 0.820350
vt 0.651422 0.820351
vt 0.015563 0.820350
vt 0.651422 0.820351
vt 1.000000 1.000000
vt 0.711355 0.109985
vt 1.000000 1.000000
vt 0.711355 0.702515
vt 0.773855 1.000000
vt 1.000000 0.109985
vt 0.000000 1.000000
vt 0.773855 1.000000
vt 1.000000 0.702515
vt 0.666985 1.000000
vt 0.666985 0.000000
vt 0.648855 0.000000
vt 0.667630 0.828753
vt 0.000000 0.828877
vt 1.000000 0.000000
vt 1.000000 0.828877
vt 0.000000 0.000000
vt 0.648855 0.000000
vt 0.667630 0.828753
vt 0.666985 0.828877
s 0
usemtl transformer_box_hr_2
f 10/17/1 4/7/1 2/3/1 11/20/1
f 12/21/2 3/5/2 6/11/2 13/22/2
f 14/25/1 5/10/1 8/15/1 16/27/1
f 3/6/3 2/4/3 4/8/3 6/12/3
f 15/26/4 7/14/4 22/39/4 13/23/4
f 7/14/4 5/10/4 24/45/4 22/39/4
f 10/18/5 13/23/5 6/13/5 4/9/5
f 5/10/6 7/14/6 9/16/6 8/15/6
f 14/25/3 16/27/3 17/28/3 15/26/3
f 7/14/2 15/26/2 17/28/2 9/16/2
f 9/16/4 17/28/4 16/27/4 8/15/4
f 14/25/4 15/26/4 13/23/4 10/18/4
f 5/10/4 14/25/4 10/18/4 24/45/4
f 23/43/2 12/21/2 13/24/2 22/40/2
f 24/46/1 10/19/1 11/20/1 1/1/1
f 22/41/2 20/33/2 18/29/2 23/44/2
f 1/2/1 19/31/1 21/36/1 24/47/1
f 19/32/6 18/30/6 20/34/6 21/37/6
f 22/42/7 24/48/7 21/38/7 20/35/7
