# Blender 3.4.0
# www.blender.org
mtllib pipes_hr_1_vertical_end_2.mtl
o pipes_hr_1_vertical_end_2
v -0.000000 0.000000 0.010000
v -0.034641 0.000000 0.030000
v -0.020000 0.000000 0.015359
v -0.000000 1.450000 0.010000
v -0.020000 1.450000 0.015359
v -0.034641 1.450000 0.030000
v 0.020000 0.000000 0.015359
v 0.034641 0.000000 0.030000
v 0.034641 1.450000 0.030000
v 0.020000 1.450000 0.015359
v -0.000000 0.000000 0.090000
v -0.040000 0.000000 0.050000
v -0.020000 0.000000 0.084641
v -0.034641 0.000000 0.070000
v -0.040000 1.450000 0.050000
v -0.000000 1.450000 0.090000
v -0.034641 1.450000 0.070000
v -0.020000 1.450000 0.084641
v 0.040000 0.000000 0.050000
v 0.034641 0.000000 0.070000
v 0.020000 0.000000 0.084641
v 0.040000 1.450000 0.050000
v 0.020000 1.450000 0.084641
v 0.034641 1.450000 0.070000
v -0.200000 0.450000 0.000000
v -0.200000 0.500000 0.000000
v 0.200000 0.450000 -0.000000
v 0.200000 0.500000 -0.000000
v -0.150000 0.450000 0.100000
v -0.150000 0.500000 0.100000
v 0.150000 0.450000 0.100000
v 0.150000 0.500000 0.100000
v -0.200000 1.450000 0.000000
v -0.200000 1.500000 0.000000
v 0.200000 1.450000 -0.000000
v 0.200000 1.500000 -0.000000
v -0.150000 1.450000 0.100000
v -0.150000 1.500000 0.100000
v 0.150000 1.450000 0.100000
v 0.150000 1.500000 0.100000
v -0.000000 0.000000 0.010000
v -0.034641 0.000000 0.030000
v -0.020000 0.000000 0.015359
v -0.000000 1.450000 0.010000
v -0.020000 1.450000 0.015359
v -0.034641 1.450000 0.030000
v 0.020000 0.000000 0.015359
v 0.034641 0.000000 0.030000
v 0.034641 1.450000 0.030000
v 0.020000 1.450000 0.015359
v -0.000000 0.000000 0.090000
v -0.040000 0.000000 0.050000
v -0.020000 0.000000 0.084641
v -0.034641 0.000000 0.070000
v -0.040000 1.450000 0.050000
v -0.000000 1.450000 0.090000
v -0.034641 1.450000 0.070000
v -0.020000 1.450000 0.084641
v 0.040000 0.000000 0.050000
v 0.034641 0.000000 0.070000
v 0.020000 0.000000 0.084641
v 0.040000 1.450000 0.050000
v 0.020000 1.450000 0.084641
v 0.034641 1.450000 0.070000
v 0.100000 0.000000 0.010000
v 0.065359 0.000000 0.030000
v 0.080000 0.000000 0.015359
v 0.100000 1.450000 0.010000
v 0.080000 1.450000 0.015359
v 0.065359 1.450000 0.030000
v 0.120000 0.000000 0.015359
v 0.134641 0.000000 0.030000
v 0.134641 1.450000 0.030000
v 0.120000 1.450000 0.015359
v 0.100000 0.000000 0.090000
v 0.060000 0.000000 0.050000
v 0.080000 0.000000 0.084641
v 0.065359 0.000000 0.070000
v 0.060000 1.450000 0.050000
v 0.100000 1.450000 0.090000
v 0.065359 1.450000 0.070000
v 0.080000 1.450000 0.084641
v 0.140000 0.000000 0.050000
v 0.134641 0.000000 0.070000
v 0.120000 0.000000 0.084641
v 0.140000 1.450000 0.050000
v 0.120000 1.450000 0.084641
v 0.134641 1.450000 0.070000
v -0.100000 0.000000 0.010000
v -0.134641 0.000000 0.030000
v -0.120000 0.000000 0.015359
v -0.100000 1.450000 0.010000
v -0.120000 1.450000 0.015359
v -0.134641 1.450000 0.030000
v -0.080000 0.000000 0.015359
v -0.065359 0.000000 0.030000
v -0.065359 1.450000 0.030000
v -0.080000 1.450000 0.015359
v -0.100000 0.000000 0.090000
v -0.140000 0.000000 0.050000
v -0.120000 0.000000 0.084641
v -0.134641 0.000000 0.070000
v -0.140000 1.450000 0.050000
v -0.100000 1.450000 0.090000
v -0.134641 1.450000 0.070000
v -0.120000 1.450000 0.084641
v -0.060000 0.000000 0.050000
v -0.065359 0.000000 0.070000
v -0.080000 0.000000 0.084641
v -0.060000 1.450000 0.050000
v -0.080000 1.450000 0.084641
v -0.065359 1.450000 0.070000
vn -1.0000 -0.0000 -0.0000
vn -0.8660 -0.0000 -0.5000
vn -0.5000 -0.0000 -0.8660
vn -0.0000 -0.0000 -1.0000
vn 1.0000 -0.0000 -0.0000
vn 0.8660 -0.0000 -0.5000
vn 0.5000 -0.0000 -0.8660
vn -0.0000 -0.0000 1.0000
vn 0.5000 -0.0000 0.8660
vn 0.8660 -0.0000 0.5000
vn -0.8660 -0.0000 0.5000
vn -0.5000 -0.0000 0.8660
vn 0.8944 -0.0000 0.4472
vn -0.8944 -0.0000 0.4472
vn -0.0000 -1.0000 -0.0000
vn -0.0000 1.0000 -0.0000
vt 0.179688 0.946894
vt 0.179688 0.615606
vt 0.179688 0.891680
vt 0.179688 0.919287
vt 0.489323 0.946894
vt 0.489323 0.615606
vt 0.489323 0.919287
vt 0.489323 0.891680
vt 0.179688 0.643214
vt 0.179688 0.670821
vt 0.489323 0.670821
vt 0.489323 0.643213
vt 0.179688 0.781250
vt 0.179688 0.864073
vt 0.179688 0.808858
vt 0.179688 0.836465
vt 0.489323 0.864072
vt 0.489323 0.781250
vt 0.489323 0.836465
vt 0.489323 0.808858
vt 0.179688 0.698428
vt 0.179688 0.726036
vt 0.179688 0.753643
vt 0.489323 0.698428
vt 0.489323 0.753643
vt 0.489323 0.726035
vt 0.475977 0.062500
vt 0.419922 0.275000
vt 0.475976 0.187500
vt 0.419922 0.275000
vt 0.475977 0.062500
vt 0.580078 0.275000
vt 0.475976 0.187500
vt 0.580078 0.275000
vt 0.439941 0.062500
vt 0.516016 0.062500
vt 0.439941 0.025000
vt 0.439941 0.187500
vt 0.516016 0.187500
vt 0.439941 0.025000
vt 0.516016 0.062500
vt 0.560058 0.062500
vt 0.560059 0.025000
vt 0.516016 0.187500
vt 0.560058 0.187500
vt 0.560059 0.025000
vt 0.475967 0.062510
vt 0.419922 0.275000
vt 0.475967 0.187511
vt 0.419922 0.275000
vt 0.475967 0.062510
vt 0.580078 0.275000
vt 0.475967 0.187511
vt 0.580078 0.275000
vt 0.439941 0.062510
vt 0.516007 0.062510
vt 0.439941 0.025000
vt 0.439941 0.187514
vt 0.516006 0.187511
vt 0.439941 0.025000
vt 0.516007 0.062510
vt 0.560058 0.062509
vt 0.560059 0.025000
vt 0.516006 0.187511
vt 0.560059 0.187514
vt 0.560059 0.025000
vt 0.179688 0.946894
vt 0.179688 0.615606
vt 0.179688 0.891680
vt 0.179688 0.919287
vt 0.489323 0.946894
vt 0.489323 0.615606
vt 0.489323 0.919287
vt 0.489323 0.891680
vt 0.179688 0.643214
vt 0.179688 0.670821
vt 0.489323 0.670821
vt 0.489323 0.643213
vt 0.179688 0.781250
vt 0.179688 0.864073
vt 0.179688 0.808858
vt 0.179688 0.836465
vt 0.489323 0.864072
vt 0.489323 0.781250
vt 0.489323 0.836465
vt 0.489323 0.808858
vt 0.179688 0.698428
vt 0.179688 0.726036
vt 0.179688 0.753643
vt 0.489323 0.698428
vt 0.489323 0.753643
vt 0.489323 0.726035
vt 0.554688 0.946894
vt 0.554688 0.615606
vt 0.554688 0.891680
vt 0.554688 0.919287
vt 0.864323 0.946894
vt 0.864323 0.615606
vt 0.864323 0.919287
vt 0.864323 0.891680
vt 0.554688 0.643214
vt 0.554688 0.670821
vt 0.864323 0.670821
vt 0.864323 0.643213
vt 0.554688 0.781250
vt 0.554688 0.864073
vt 0.554688 0.808858
vt 0.554688 0.836465
vt 0.864323 0.864072
vt 0.864323 0.781250
vt 0.864323 0.836465
vt 0.864323 0.808858
vt 0.554688 0.698428
vt 0.554688 0.726036
vt 0.554688 0.753643
vt 0.864323 0.698428
vt 0.864323 0.753643
vt 0.864323 0.726035
vt -0.070312 0.946894
vt -0.070312 0.615606
vt -0.070312 0.891680
vt -0.070312 0.919287
vt 0.239323 0.946894
vt 0.239323 0.615606
vt 0.239323 0.919287
vt 0.239323 0.891680
vt -0.070312 0.643214
vt -0.070312 0.670821
vt 0.239323 0.670821
vt 0.239323 0.643213
vt -0.070312 0.781250
vt -0.070312 0.864073
vt -0.070312 0.808858
vt -0.070312 0.836465
vt 0.239323 0.864072
vt 0.239323 0.781250
vt 0.239323 0.836465
vt 0.239323 0.808858
vt -0.070312 0.698428
vt -0.070312 0.726036
vt -0.070312 0.753643
vt 0.239323 0.698428
vt 0.239323 0.753643
vt 0.239323 0.726035
s 1
usemtl steel_beams_hr_1
f 12/14/1 15/17/1 6/8/2 2/3/2
f 2/3/2 6/8/2 5/7/3 3/4/3
f 3/4/3 5/7/3 4/5/4 1/1/4
f 22/24/5 19/21/5 8/10/6 9/11/6
f 9/11/6 8/10/6 7/9/7 10/12/7
f 10/12/7 7/9/7 1/2/4 4/6/4
f 16/18/8 11/13/8 21/23/9 23/25/9
f 23/25/9 21/23/9 20/22/10 24/26/10
f 24/26/10 20/22/10 19/21/5 22/24/5
f 15/17/1 12/14/1 14/16/11 17/19/11
f 17/19/11 14/16/11 13/15/12 18/20/12
f 18/20/12 13/15/12 11/13/8 16/18/8
s 0
f 27/31/13 28/33/13 32/44/13 31/41/13
f 31/42/8 32/45/8 30/38/8 29/35/8
f 29/36/14 30/39/14 26/29/14 25/27/14
f 27/32/15 31/43/15 29/37/15 25/28/15
f 32/46/16 28/34/16 26/30/16 30/40/16
f 35/51/13 36/53/13 40/64/13 39/61/13
f 39/62/8 40/65/8 38/58/8 37/55/8
f 37/56/14 38/59/14 34/49/14 33/47/14
f 35/52/15 39/63/15 37/57/15 33/48/15
f 40/66/16 36/54/16 34/50/16 38/60/16
s 1
f 52/80/1 55/83/1 46/74/2 42/69/2
f 42/69/2 46/74/2 45/73/3 43/70/3
f 43/70/3 45/73/3 44/71/4 41/67/4
f 62/90/5 59/87/5 48/76/6 49/77/6
f 49/77/6 48/76/6 47/75/7 50/78/7
f 50/78/7 47/75/7 41/68/4 44/72/4
f 56/84/8 51/79/8 61/89/9 63/91/9
f 63/91/9 61/89/9 60/88/10 64/92/10
f 64/92/10 60/88/10 59/87/5 62/90/5
f 55/83/1 52/80/1 54/82/11 57/85/11
f 57/85/11 54/82/11 53/81/12 58/86/12
f 58/86/12 53/81/12 51/79/8 56/84/8
f 76/106/1 79/109/1 70/100/2 66/95/2
f 66/95/2 70/100/2 69/99/3 67/96/3
f 67/96/3 69/99/3 68/97/4 65/93/4
f 86/116/5 83/113/5 72/102/6 73/103/6
f 73/103/6 72/102/6 71/101/7 74/104/7
f 74/104/7 71/101/7 65/94/4 68/98/4
f 80/110/8 75/105/8 85/115/9 87/117/9
f 87/117/9 85/115/9 84/114/10 88/118/10
f 88/118/10 84/114/10 83/113/5 86/116/5
f 79/109/1 76/106/1 78/108/11 81/111/11
f 81/111/11 78/108/11 77/107/12 82/112/12
f 82/112/12 77/107/12 75/105/8 80/110/8
f 100/132/1 103/135/1 94/126/2 90/121/2
f 90/121/2 94/126/2 93/125/3 91/122/3
f 91/122/3 93/125/3 92/123/4 89/119/4
f 110/142/5 107/139/5 96/128/6 97/129/6
f 97/129/6 96/128/6 95/127/7 98/130/7
f 98/130/7 95/127/7 89/120/4 92/124/4
f 104/136/8 99/131/8 109/141/9 111/143/9
f 111/143/9 109/141/9 108/140/10 112/144/10
f 112/144/10 108/140/10 107/139/5 110/142/5
f 103/135/1 100/132/1 102/134/11 105/137/11
f 105/137/11 102/134/11 101/133/12 106/138/12
f 106/138/12 101/133/12 99/131/8 104/136/8
