# Blender 3.4.0
# www.blender.org
mtllib rainwater_pipe_hl_1_middle.mtl
o rainwater_pipe_hl_1_middle
v 0.519999 -0.160001 0.010000
v 0.479999 -0.160001 0.010000
v 0.519999 -0.150001 0.000000
v 0.479999 -0.150001 0.000000
v 0.509999 -0.190001 0.010000
v 0.519999 -0.180001 0.010000
v 0.479999 -0.180001 0.010000
v 0.489999 -0.190001 0.010000
v 0.519999 -0.180001 0.000000
v 0.509999 -0.190001 0.000000
v 0.489999 -0.190001 0.000000
v 0.479999 -0.180001 0.000000
v 0.503999 -0.185000 0.020000
v 0.509999 -0.179000 0.020000
v 0.489999 -0.179000 0.020000
v 0.495999 -0.185000 0.020000
v 0.509999 -0.179000 0.010000
v 0.503999 -0.185000 0.010000
v 0.495999 -0.185000 0.010000
v 0.489999 -0.179000 0.010000
v 0.509999 -0.171000 0.020000
v 0.503999 -0.165000 0.020000
v 0.495999 -0.165000 0.020000
v 0.489999 -0.171000 0.020000
v 0.503999 -0.165000 0.010000
v 0.509999 -0.171000 0.010000
v 0.489999 -0.171000 0.010000
v 0.495999 -0.165000 0.010000
v 0.519999 -0.150001 0.109850
v 0.519999 -0.136583 0.159925
v 0.519999 -0.099926 0.196582
v 0.479999 -0.150001 0.109850
v 0.479999 -0.136583 0.159925
v 0.479999 -0.099926 0.196582
v 0.519999 -0.160001 0.119850
v 0.519999 -0.109926 0.206582
v 0.519999 -0.146583 0.169925
v 0.479999 -0.160001 0.119850
v 0.479999 -0.109926 0.206582
v 0.479999 -0.146583 0.169925
v 3.479999 -0.146583 0.169925
v 3.479999 -0.109926 0.206582
v 3.479999 -0.160001 0.119850
v 3.519999 -0.146583 0.169925
v 3.519999 -0.109926 0.206582
v 3.519999 -0.160001 0.119850
v 3.479999 -0.099926 0.196582
v 3.479999 -0.136583 0.159925
v 3.479999 -0.150001 0.109850
v 3.519999 -0.099926 0.196582
v 3.519999 -0.136583 0.159925
v 3.519999 -0.150001 0.109850
v 3.495999 -0.165000 0.010000
v 3.489999 -0.171000 0.010000
v 3.509999 -0.171000 0.010000
v 3.503999 -0.165000 0.010000
v 3.489999 -0.171000 0.020000
v 3.495999 -0.165000 0.020000
v 3.503999 -0.165000 0.020000
v 3.509999 -0.171000 0.020000
v 3.489999 -0.179000 0.010000
v 3.495999 -0.185000 0.010000
v 3.503999 -0.185000 0.010000
v 3.509999 -0.179000 0.010000
v 3.495999 -0.185000 0.020000
v 3.489999 -0.179000 0.020000
v 3.509999 -0.179000 0.020000
v 3.503999 -0.185000 0.020000
v 3.479999 -0.180001 0.000000
v 3.489999 -0.190001 0.000000
v 3.509999 -0.190001 0.000000
v 3.519999 -0.180001 0.000000
v 3.489999 -0.190001 0.010000
v 3.479999 -0.180001 0.010000
v 1.479999 -0.146583 0.169925
v 1.479999 -0.109926 0.206582
v 1.479999 -0.160001 0.119850
v 1.519999 -0.146583 0.169925
v 1.519999 -0.109926 0.206582
v 1.519999 -0.160001 0.119850
v 1.479999 -0.099926 0.196582
v 1.479999 -0.136583 0.159925
v 1.479999 -0.150001 0.109850
v 1.519999 -0.099926 0.196582
v 1.519999 -0.136583 0.159925
v 1.519999 -0.150001 0.109850
v 1.495999 -0.165000 0.010000
v 1.489999 -0.171000 0.010000
v 1.509999 -0.171000 0.010000
v 1.503999 -0.165000 0.010000
v 1.489999 -0.171000 0.020000
v 1.495999 -0.165000 0.020000
v 1.503999 -0.165000 0.020000
v 1.509999 -0.171000 0.020000
v 1.489999 -0.179000 0.010000
v 1.495999 -0.185000 0.010000
v 1.503999 -0.185000 0.010000
v 1.509999 -0.179000 0.010000
v 1.495999 -0.185000 0.020000
v 1.489999 -0.179000 0.020000
v 1.509999 -0.179000 0.020000
v 1.503999 -0.185000 0.020000
v 1.479999 -0.180001 0.000000
v 1.489999 -0.190001 0.000000
v 1.509999 -0.190001 0.000000
v 1.519999 -0.180001 0.000000
v 1.489999 -0.190001 0.010000
v 1.479999 -0.180001 0.010000
v 1.519999 -0.180001 0.010000
v 1.509999 -0.190001 0.010000
v 1.479999 -0.150001 0.000000
v 1.519999 -0.150001 0.000000
v 1.479999 -0.160001 0.010000
v 1.519999 -0.160001 0.010000
v 3.519999 -0.180001 0.010000
v 3.509999 -0.190001 0.010000
v 3.479999 -0.150001 0.000000
v 3.519999 -0.150001 0.000000
v 3.479999 -0.160001 0.010000
v 3.519999 -0.160001 0.010000
v 2.519999 -0.160001 0.010000
v 2.479999 -0.160001 0.010000
v 2.519999 -0.150001 0.000000
v 2.479999 -0.150001 0.000000
v 2.509999 -0.190001 0.010000
v 2.519999 -0.180001 0.010000
v 2.479999 -0.180001 0.010000
v 2.489999 -0.190001 0.010000
v 2.519999 -0.180001 0.000000
v 2.509999 -0.190001 0.000000
v 2.489999 -0.190001 0.000000
v 2.479999 -0.180001 0.000000
v 2.503999 -0.185000 0.020000
v 2.509999 -0.179000 0.020000
v 2.489999 -0.179000 0.020000
v 2.495999 -0.185000 0.020000
v 2.509999 -0.179000 0.010000
v 2.503999 -0.185000 0.010000
v 2.495999 -0.185000 0.010000
v 2.489999 -0.179000 0.010000
v 2.509999 -0.171000 0.020000
v 2.503999 -0.165000 0.020000
v 2.495999 -0.165000 0.020000
v 2.489999 -0.171000 0.020000
v 2.503999 -0.165000 0.010000
v 2.509999 -0.171000 0.010000
v 2.489999 -0.171000 0.010000
v 2.495999 -0.165000 0.010000
v 2.519999 -0.150001 0.109850
v 2.519999 -0.136583 0.159925
v 2.519999 -0.099926 0.196582
v 2.479999 -0.150001 0.109850
v 2.479999 -0.136583 0.159925
v 2.479999 -0.099926 0.196582
v 2.519999 -0.160001 0.119850
v 2.519999 -0.109926 0.206582
v 2.519999 -0.146583 0.169925
v 2.479999 -0.160001 0.119850
v 2.479999 -0.109926 0.206582
v 2.479999 -0.146583 0.169925
v 0.000000 -0.050001 0.210000
v 0.000000 -0.050001 0.010000
v 4.000000 -0.050001 0.210000
v 4.000000 -0.050001 0.010000
v 0.000000 -0.150001 0.110000
v 0.000000 -0.136603 0.160000
v 0.000000 -0.100001 0.196603
v 0.000000 -0.100001 0.023397
v 0.000000 -0.136603 0.060000
v 4.000000 -0.100001 0.196603
v 4.000000 -0.136603 0.160000
v 4.000000 -0.150001 0.110000
v 4.000000 -0.136603 0.060000
v 4.000000 -0.100001 0.023397
v 0.000000 -0.050001 0.200000
v 0.000000 -0.050001 0.020000
v 4.000000 -0.050001 0.200000
v 4.000000 -0.050001 0.020000
v 0.000000 -0.140001 0.110000
v 0.000000 -0.127943 0.155000
v 0.000000 -0.095001 0.187942
v 0.000000 -0.095001 0.032058
v 0.000000 -0.127943 0.065000
v 4.000000 -0.095001 0.187942
v 4.000000 -0.127943 0.155000
v 4.000000 -0.140001 0.110000
v 4.000000 -0.127943 0.065000
v 4.000000 -0.095001 0.032058
vn -0.0000 -1.0000 -0.0000
vn -1.0000 -0.0000 -0.0000
vn -0.0000 -0.0000 1.0000
vn 1.0000 -0.0000 -0.0000
vn 0.7071 -0.7071 -0.0000
vn -0.0000 1.0000 -0.0000
vn -0.0000 0.9914 -0.1305
vn -0.0000 -0.9914 0.1305
vn -0.0000 -0.7071 0.7071
vn -0.0000 0.8660 -0.5000
vn -0.7071 -0.7071 -0.0000
vn 0.7071 0.7071 -0.0000
vn -0.7071 0.7071 -0.0000
vn -0.0000 -0.8660 0.5000
vn -0.0000 0.7071 -0.7071
vn -0.0000 0.7071 0.7071
vn -0.0000 -0.8660 -0.5000
vn -0.0000 -0.5000 -0.8660
vn -0.0000 -0.2588 -0.9659
vn -0.0000 -0.5000 0.8660
vn -0.0000 -0.2588 0.9659
vn -0.0000 0.8660 0.5000
vn -0.0000 0.5000 0.8660
vn -0.0000 0.2588 0.9659
vn -0.0000 0.5000 -0.8660
vn -0.0000 0.2588 -0.9659
vn -0.8944 0.4472 -0.0000
vt 0.514903 0.495000
vt 0.485253 0.514903
vt 0.485253 0.495000
vt 0.514903 0.505000
vt 0.485253 0.514903
vt 0.485253 0.505000
vt 0.517403 0.495000
vt 0.487753 0.517403
vt 0.517403 0.505000
vt 0.487753 0.517403
vt 0.514903 0.497500
vt 0.477753 0.497500
vt 0.477753 0.514903
vt 0.480253 0.514903
vt 0.480253 0.495000
vt 0.480253 0.505000
vt 0.480253 0.514903
vt 0.514903 0.502500
vt 0.477753 0.502500
vt 0.477753 0.514903
vt 0.480253 0.517403
vt 0.517403 0.497500
vt 0.477753 0.517403
vt 0.517403 0.502500
vt 0.477753 0.517403
vt 0.480253 0.517403
vt 0.479003 0.499000
vt 0.512403 0.499000
vt 0.480503 0.497500
vt 0.512403 0.497500
vt 0.480503 0.512403
vt 0.480503 0.512403
vt 0.480503 0.502500
vt 0.512403 0.502500
vt 0.479003 0.501000
vt 0.512403 0.501000
vt 0.514903 0.497500
vt 0.480503 0.514903
vt 0.514903 0.499000
vt 0.514903 0.501000
vt 0.480503 0.514903
vt 0.514903 0.502500
vt 0.512403 0.497500
vt 0.482503 0.497500
vt 0.482503 0.512403
vt 0.484003 0.499000
vt 0.512403 0.499000
vt 0.484003 0.501000
vt 0.512403 0.501000
vt 0.482503 0.512403
vt 0.482503 0.502500
vt 0.512403 0.502500
vt 0.514903 0.499000
vt 0.514903 0.497500
vt 0.482503 0.514903
vt 0.482503 0.514903
vt 0.514903 0.502500
vt 0.514903 0.501000
vt 0.489941 0.495000
vt 0.487753 0.489941
vt 0.477422 0.495000
vt 0.491108 0.477422
vt 0.468258 0.495000
vt 0.500272 0.468258
vt 0.505000 0.501250
vt 0.489941 0.505000
vt 0.487753 0.489941
vt 0.477422 0.505000
vt 0.491108 0.477422
vt 0.468258 0.505000
vt 0.500272 0.468258
vt 0.495000 0.501250
vt 0.487441 0.495000
vt 0.485253 0.487441
vt 0.465758 0.495000
vt 0.497772 0.465758
vt 0.505000 0.498750
vt 0.474922 0.495000
vt 0.488608 0.474922
vt 0.485253 0.487441
vt 0.487441 0.505000
vt 0.465758 0.505000
vt 0.497772 0.465758
vt 0.495000 0.498750
vt 0.488608 0.474922
vt 0.474922 0.505000
vt 0.474922 0.505000
vt 0.488608 0.474922
vt 0.495000 0.498750
vt 0.465758 0.505000
vt 0.497772 0.465758
vt 0.487441 0.505000
vt 0.485253 0.487441
vt 0.474922 0.495000
vt 0.488608 0.474922
vt 0.505000 0.498750
vt 0.497772 0.465758
vt 0.465758 0.495000
vt 0.487441 0.495000
vt 0.485253 0.487441
vt 0.495000 0.501250
vt 0.468258 0.505000
vt 0.500272 0.468258
vt 0.477422 0.505000
vt 0.491108 0.477422
vt 0.489941 0.505000
vt 0.487753 0.489941
vt 0.505000 0.501250
vt 0.468258 0.495000
vt 0.500272 0.468258
vt 0.477422 0.495000
vt 0.491108 0.477422
vt 0.489941 0.495000
vt 0.487753 0.489941
vt 0.514903 0.501000
vt 0.514903 0.502500
vt 0.482503 0.514903
vt 0.514903 0.497500
vt 0.482503 0.514903
vt 0.514903 0.499000
vt 0.512403 0.502500
vt 0.482503 0.512403
vt 0.482503 0.502500
vt 0.512403 0.501000
vt 0.484003 0.501000
vt 0.512403 0.499000
vt 0.484003 0.499000
vt 0.512403 0.497500
vt 0.482503 0.512403
vt 0.482503 0.497500
vt 0.514903 0.502500
vt 0.480503 0.514903
vt 0.514903 0.501000
vt 0.514903 0.499000
vt 0.514903 0.497500
vt 0.480503 0.514903
vt 0.512403 0.501000
vt 0.479003 0.501000
vt 0.512403 0.502500
vt 0.480503 0.512403
vt 0.480503 0.502500
vt 0.512403 0.497500
vt 0.480503 0.512403
vt 0.480503 0.497500
vt 0.512403 0.499000
vt 0.479003 0.499000
vt 0.480253 0.517403
vt 0.517403 0.502500
vt 0.477753 0.517403
vt 0.517403 0.497500
vt 0.477753 0.517403
vt 0.480253 0.517403
vt 0.514903 0.502500
vt 0.477753 0.514903
vt 0.477753 0.502500
vt 0.480253 0.514903
vt 0.480253 0.505000
vt 0.474922 0.505000
vt 0.488608 0.474922
vt 0.495000 0.498750
vt 0.465758 0.505000
vt 0.497772 0.465758
vt 0.487441 0.505000
vt 0.485253 0.487441
vt 0.474922 0.495000
vt 0.488608 0.474922
vt 0.505000 0.498750
vt 0.465758 0.495000
vt 0.497772 0.465758
vt 0.485253 0.487441
vt 0.487441 0.495000
vt 0.495000 0.501250
vt 0.500272 0.468258
vt 0.468258 0.505000
vt 0.491108 0.477422
vt 0.477422 0.505000
vt 0.489941 0.505000
vt 0.487753 0.489941
vt 0.505000 0.501250
vt 0.468258 0.495000
vt 0.500272 0.468258
vt 0.491108 0.477422
vt 0.477422 0.495000
vt 0.489941 0.495000
vt 0.487753 0.489941
vt 0.514903 0.501000
vt 0.514903 0.502500
vt 0.482503 0.514903
vt 0.482503 0.514903
vt 0.514903 0.497500
vt 0.514903 0.499000
vt 0.512403 0.502500
vt 0.482503 0.512403
vt 0.482503 0.502500
vt 0.512403 0.501000
vt 0.484003 0.501000
vt 0.512403 0.499000
vt 0.484003 0.499000
vt 0.482503 0.512403
vt 0.512403 0.497500
vt 0.482503 0.497500
vt 0.514903 0.502500
vt 0.480503 0.514903
vt 0.514903 0.501000
vt 0.514903 0.499000
vt 0.480503 0.514903
vt 0.514903 0.497500
vt 0.479003 0.501000
vt 0.512403 0.501000
vt 0.512403 0.502500
vt 0.480503 0.512403
vt 0.480503 0.502500
vt 0.480503 0.512403
vt 0.512403 0.497500
vt 0.480503 0.497500
vt 0.479003 0.499000
vt 0.512403 0.499000
vt 0.480253 0.517403
vt 0.477753 0.517403
vt 0.517403 0.502500
vt 0.477753 0.517403
vt 0.517403 0.497500
vt 0.480253 0.517403
vt 0.477753 0.514903
vt 0.477753 0.502500
vt 0.514903 0.502500
vt 0.480253 0.505000
vt 0.480253 0.514903
vt 0.480253 0.495000
vt 0.480253 0.514903
vt 0.477753 0.514903
vt 0.477753 0.497500
vt 0.514903 0.497500
vt 0.517403 0.505000
vt 0.487753 0.517403
vt 0.517403 0.495000
vt 0.487753 0.517403
vt 0.485253 0.505000
vt 0.514903 0.505000
vt 0.485253 0.514903
vt 0.485253 0.495000
vt 0.485253 0.514903
vt 0.514903 0.495000
vt 0.480253 0.514903
vt 0.480253 0.495000
vt 0.514903 0.497500
vt 0.477753 0.514903
vt 0.477753 0.497500
vt 0.517403 0.505000
vt 0.487753 0.517403
vt 0.517403 0.495000
vt 0.487753 0.517403
vt 0.514903 0.505000
vt 0.485253 0.514903
vt 0.485253 0.505000
vt 0.514903 0.495000
vt 0.485253 0.495000
vt 0.485253 0.514903
vt 0.485253 0.514903
vt 0.485253 0.495000
vt 0.514903 0.495000
vt 0.485253 0.505000
vt 0.514903 0.505000
vt 0.485253 0.514903
vt 0.517403 0.495000
vt 0.487753 0.517403
vt 0.517403 0.505000
vt 0.487753 0.517403
vt 0.477753 0.514903
vt 0.477753 0.497500
vt 0.514903 0.497500
vt 0.480253 0.514903
vt 0.480253 0.495000
vt 0.480253 0.505000
vt 0.480253 0.514903
vt 0.477753 0.502500
vt 0.514903 0.502500
vt 0.477753 0.514903
vt 0.480253 0.517403
vt 0.477753 0.517403
vt 0.517403 0.497500
vt 0.517403 0.502500
vt 0.477753 0.517403
vt 0.480253 0.517403
vt 0.479003 0.499000
vt 0.512403 0.499000
vt 0.480503 0.512403
vt 0.480503 0.497500
vt 0.512403 0.497500
vt 0.480503 0.502500
vt 0.480503 0.512403
vt 0.512403 0.502500
vt 0.479003 0.501000
vt 0.512403 0.501000
vt 0.480503 0.514903
vt 0.514903 0.497500
vt 0.514903 0.499000
vt 0.514903 0.501000
vt 0.480503 0.514903
vt 0.514903 0.502500
vt 0.482503 0.512403
vt 0.482503 0.497500
vt 0.512403 0.497500
vt 0.484003 0.499000
vt 0.512403 0.499000
vt 0.484003 0.501000
vt 0.512403 0.501000
vt 0.482503 0.502500
vt 0.512403 0.502500
vt 0.482503 0.512403
vt 0.514903 0.499000
vt 0.482503 0.514903
vt 0.514903 0.497500
vt 0.514903 0.502500
vt 0.482503 0.514903
vt 0.514903 0.501000
vt 0.489941 0.495000
vt 0.487753 0.489941
vt 0.477422 0.495000
vt 0.491108 0.477422
vt 0.468258 0.495000
vt 0.500272 0.468258
vt 0.505000 0.501250
vt 0.487753 0.489941
vt 0.489941 0.505000
vt 0.477422 0.505000
vt 0.491108 0.477422
vt 0.468258 0.505000
vt 0.500272 0.468258
vt 0.495000 0.501250
vt 0.487441 0.495000
vt 0.485253 0.487441
vt 0.465758 0.495000
vt 0.497772 0.465758
vt 0.505000 0.498750
vt 0.474922 0.495000
vt 0.488608 0.474922
vt 0.485253 0.487441
vt 0.487441 0.505000
vt 0.465758 0.505000
vt 0.497772 0.465758
vt 0.495000 0.498750
vt 0.474922 0.505000
vt 0.488608 0.474922
vt -0.000000 0.511396
vt -0.000000 0.475000
vt -0.000000 0.511396
vt -0.000000 0.525000
vt 1.000000 0.511396
vt 1.000000 0.475000
vt 1.000000 0.511396
vt 1.000000 0.525000
vt -0.000000 0.500000
vt -0.000000 0.487500
vt -0.000000 0.478349
vt -0.000000 0.498896
vt -0.000000 0.521651
vt -0.000000 0.498896
vt -0.000000 0.512500
vt 1.000000 0.478349
vt 1.000000 0.498896
vt 1.000000 0.487500
vt 1.000000 0.500000
vt 1.000000 0.512500
vt 1.000000 0.521651
vt 1.000000 0.498896
vt -0.000000 0.511396
vt -0.000000 0.477500
vt -0.000000 0.511396
vt -0.000000 0.522500
vt 1.000000 0.511396
vt 1.000000 0.477500
vt 1.000000 0.511396
vt 1.000000 0.522500
vt -0.000000 0.500000
vt -0.000000 0.488750
vt -0.000000 0.480514
vt -0.000000 0.500146
vt -0.000000 0.519486
vt -0.000000 0.500146
vt -0.000000 0.511250
vt 1.000000 0.480514
vt 1.000000 0.500146
vt 1.000000 0.488750
vt 1.000000 0.500000
vt 1.000000 0.511250
vt 1.000000 0.519486
vt 1.000000 0.500146
s 1
usemtl metal_hr_5
f 13/28/1 16/36/1 19/40/1 18/39/1
f 2/5/2 38/80/2 32/67/2 4/10/2
f 8/18/1 11/24/1 10/22/1 5/11/1
f 5/12/3 6/15/3 7/16/3 8/19/3
f 1/2/4 6/14/4 9/21/4 3/8/4
f 10/23/5 9/21/5 6/14/5 5/13/5
f 3/7/6 4/9/6 32/66/7 29/59/7
f 35/73/8 38/81/8 2/4/9 1/1/9
f 35/74/4 1/2/4 3/8/4 29/60/4
f 4/10/2 12/26/2 7/17/2 2/5/2
f 6/15/3 1/3/9 2/6/9 7/16/3
f 27/56/2 20/41/2 15/32/2 24/50/2
f 33/68/10 30/61/10 29/59/7 32/66/7
f 8/20/11 7/17/11 12/26/11 11/25/11
f 21/43/12 26/54/12 25/53/12 22/47/12
f 21/44/3 22/46/3 23/48/3 24/51/3 15/33/3 16/35/3 13/27/3 14/29/3
f 25/53/6 28/58/6 23/49/6 22/47/6
f 15/34/11 20/42/11 19/40/11 16/36/11
f 27/57/13 24/52/13 23/49/13 28/58/13
f 17/37/5 14/30/5 13/28/5 18/39/5
f 36/75/9 39/82/9 40/86/14 37/78/14
f 34/70/15 31/63/15 30/61/10 33/68/10
f 39/83/2 34/71/2 33/69/2 40/85/2
f 31/64/4 36/76/4 37/79/4 30/62/4
f 36/77/16 31/65/16 34/72/16 39/84/16
f 40/85/2 33/69/2 32/67/2 38/80/2
f 37/78/14 40/86/14 38/81/8 35/73/8
f 17/38/4 26/55/4 21/45/4 14/31/4
f 30/62/4 37/79/4 35/74/4 29/60/4
f 73/153/1 70/148/1 71/150/1 116/246/1
f 46/99/8 43/92/8 119/253/9 120/256/9
f 79/167/16 84/179/16 81/172/16 76/160/16
f 66/139/11 61/131/11 62/133/11 65/137/11
f 64/135/5 67/142/5 68/145/5 63/134/5
f 68/145/1 65/137/1 62/133/1 63/134/1
f 48/104/10 51/111/10 52/113/7 49/106/7
f 54/116/13 57/121/13 58/124/13 53/115/13
f 119/254/2 43/93/2 49/107/2 117/250/2
f 45/96/16 50/108/16 47/101/16 42/89/16
f 60/128/12 55/118/12 56/120/12 59/126/12
f 71/151/5 72/152/5 115/244/5 116/247/5
f 120/258/4 115/244/4 72/152/4 118/252/4
f 47/102/15 50/109/15 51/111/10 48/104/10
f 44/94/14 41/87/14 43/92/8 46/99/8
f 118/251/6 117/249/6 49/106/7 52/113/7
f 117/250/2 69/147/2 74/156/2 119/254/2
f 50/110/4 45/97/4 44/95/4 51/112/4
f 45/98/9 42/90/9 41/87/14 44/94/14
f 56/120/6 53/115/6 58/124/6 59/126/6
f 64/136/4 55/119/4 60/129/4 67/143/4
f 54/117/2 61/132/2 66/140/2 57/122/2
f 75/159/2 82/175/2 83/178/2 77/164/2
f 60/130/3 59/127/3 58/125/3 57/123/3 66/141/3 65/138/3 68/146/3 67/144/3
f 78/165/14 75/158/14 77/163/8 80/171/8
f 98/206/4 89/189/4 94/199/4 101/213/4
f 85/182/4 78/166/4 80/170/4 86/185/4
f 79/168/9 76/161/9 75/158/14 78/165/14
f 76/162/2 81/173/2 82/175/2 75/159/2
f 81/174/15 84/180/15 85/183/10 82/176/10
f 84/181/4 79/169/4 78/166/4 85/182/4
f 88/187/13 91/192/13 92/195/13 87/186/13
f 82/176/10 85/183/10 86/184/7 83/177/7
f 100/210/11 95/202/11 96/204/11 99/209/11
f 107/224/11 108/228/11 103/218/11 104/219/11
f 90/191/6 87/186/6 92/195/6 93/197/6
f 98/207/5 101/214/5 102/217/5 97/205/5
f 94/200/12 89/190/12 90/191/12 93/197/12
f 88/188/2 95/203/2 100/211/2 91/193/2
f 94/201/3 93/198/3 92/196/3 91/194/3 100/212/3 99/208/3 102/216/3 101/215/3
f 109/229/3 114/241/9 113/238/9 108/227/3
f 102/217/1 99/209/1 96/204/1 97/205/1
f 115/245/3 120/257/9 119/255/9 74/157/3
f 112/236/6 111/234/6 83/177/7 86/184/7
f 80/170/4 114/242/4 112/237/4 86/185/4
f 42/91/2 47/103/2 48/105/2 41/88/2
f 105/221/5 106/223/5 109/230/5 110/231/5
f 110/232/3 109/229/3 108/227/3 107/225/3
f 114/242/4 109/230/4 106/223/4 112/237/4
f 107/226/1 104/220/1 105/222/1 110/233/1
f 80/171/8 77/163/8 113/239/9 114/243/9
f 46/100/4 120/258/4 118/252/4 52/114/4
f 113/240/2 77/164/2 83/178/2 111/235/2
f 111/235/2 103/218/2 108/228/2 113/240/2
f 73/154/11 74/156/11 69/147/11 70/149/11
f 122/264/2 158/338/2 152/324/2 124/268/2
f 130/280/5 129/279/5 126/272/5 125/269/5
f 125/270/3 126/273/3 127/274/3 128/276/3
f 133/286/1 136/294/1 139/298/1 138/297/1
f 137/295/4 146/312/4 141/301/4 134/287/4
f 160/344/2 153/327/2 152/324/2 158/338/2
f 156/333/9 159/340/9 160/343/14 157/336/14
f 128/277/1 131/282/1 130/281/1 125/271/1
f 153/326/10 150/319/10 149/317/7 152/325/7
f 154/328/15 151/321/15 150/319/10 153/326/10
f 141/302/3 142/304/3 143/306/3 144/308/3 135/290/3 136/293/3 133/285/3 134/288/3
f 137/296/5 134/289/5 133/286/5 138/297/5
f 157/336/14 160/343/14 158/339/8 155/331/8
f 121/259/4 126/272/4 129/279/4 123/266/4
f 123/265/6 124/267/6 152/325/7 149/317/7
f 141/303/12 146/313/12 145/311/12 142/305/12
f 159/341/2 154/329/2 153/327/2 160/344/2
f 155/332/4 121/259/4 123/266/4 149/318/4
f 151/322/4 156/334/4 157/337/4 150/320/4
f 126/273/3 121/260/9 122/262/9 127/274/3
f 155/331/8 158/339/8 122/263/9 121/261/9
f 124/268/2 132/284/2 127/275/2 122/264/2
f 147/314/13 144/309/13 143/307/13 148/316/13
f 156/335/16 151/323/16 154/330/16 159/342/16
f 147/315/2 140/299/2 135/291/2 144/310/2
f 145/311/6 148/316/6 143/307/6 142/305/6
f 135/292/11 140/300/11 139/298/11 136/294/11
f 51/112/4 44/95/4 46/100/4 52/114/4
f 116/248/3 115/245/3 74/157/3 73/155/3
f 41/88/2 48/105/2 49/107/2 43/93/2
f 128/278/11 127/275/11 132/284/11 131/283/11
f 150/320/4 157/337/4 155/332/4 149/318/4
f 172/363/1 165/353/1 169/359/17 173/364/17
f 173/364/17 169/359/17 168/357/18 174/365/18
f 174/366/18 168/358/18 162/347/19 164/351/19
f 165/353/1 172/363/1 171/362/14 166/354/14
f 166/354/14 171/362/14 170/360/20 167/355/20
f 167/356/20 170/361/20 163/349/21 161/345/21
f 186/385/6 187/386/22 183/381/22 179/375/6
f 187/386/22 188/387/23 182/379/23 183/381/22
f 188/388/23 178/373/24 176/369/24 182/380/23
f 179/375/6 180/376/10 185/384/10 186/385/6
f 180/376/10 181/377/25 184/382/25 185/384/10
f 181/378/25 175/367/26 177/371/26 184/383/25
f 161/346/6 163/350/6 177/372/6 175/368/27
f 164/352/6 162/348/6 176/370/27 178/374/6
