# Blender 3.4.0
# www.blender.org
mtllib shipping_container_mx_1.mtl
o shipping_container_mx_1
v 1.245000 0.000000 5.400000
v 1.245000 2.500000 5.400000
v -1.255001 0.000000 5.400000
v -1.255001 2.500000 5.400000
v 1.245000 -0.000000 -5.400000
v 1.245000 2.500000 -5.400000
v -1.255000 -0.000000 -5.400000
v -1.255000 2.500000 -5.400000
vn -0.0000 -0.0000 1.0000
vn -1.0000 -0.0000 -0.0000
vn -0.0000 -0.0000 -1.0000
vn 1.0000 -0.0000 -0.0000
vn -0.0000 -1.0000 -0.0000
vn -0.0000 1.0000 -0.0000
vt 0.774857 0.250000
vt 0.000000 0.500000
vt 0.000000 1.000000
vt 0.774857 0.500000
vt 0.000000 0.750000
vt 0.548571 0.250000
vt 1.000000 0.500000
vt 0.000000 0.750000
vt 0.548571 0.500000
vt 1.000000 0.750000
vt 0.000000 1.000000
vt 0.774857 0.250000
vt 1.000000 0.500000
vt 1.000000 1.000000
vt 0.774857 0.500000
vt 1.000000 0.750000
vt 0.000000 0.500000
vt 1.000000 0.250000
vt 1.000000 0.750000
vt 0.000000 0.750000
vt 1.000000 0.500000
vt 1.000000 1.000000
s 0
usemtl shipping_containers_mx_1
f 1/1/1 2/4/1 4/9/1 3/6/1
f 3/7/2 4/10/2 8/20/2 7/17/2
f 7/18/3 8/21/3 6/15/3 5/12/3
f 5/13/4 6/16/4 2/5/4 1/2/4
f 3/8/5 7/19/5 5/14/5 1/3/5
f 8/22/6 4/11/6 2/5/6 6/16/6
