# Blender 3.4.0
# www.blender.org
mtllib wires_holder_hr_small_1.mtl
o wires_holder_hr_small_1
v -0.059997 -0.070000 0.020000
v -0.059997 0.070000 0.020000
v -0.059997 -0.070000 -0.000000
v -0.059997 0.070000 -0.000000
v -0.009997 -0.100000 0.020000
v -0.009997 0.100000 0.020000
v 0.010003 0.100000 -0.000000
v 0.010003 -0.100000 -0.000000
v 0.010003 0.100000 0.020000
v 0.010003 -0.100000 0.020000
v -0.009997 -0.070000 0.080000
v -0.009997 0.070000 0.080000
v 0.010003 -0.070000 0.080000
v 0.010003 0.070000 0.080000
v 0.060003 0.070000 0.020000
v 0.060003 -0.070000 0.020000
v 0.060003 0.070000 -0.000000
v 0.060003 -0.070000 -0.000000
v -0.009998 -0.100000 -0.000000
v -0.009998 0.100000 -0.000000
vn -1.0000 -0.0000 -0.0000
vn -0.0000 -0.0000 1.0000
vn -0.0000 1.0000 -0.0000
vn -0.5145 -0.8575 -0.0000
vn -0.0000 0.8944 0.4472
vn -0.0000 -0.8944 0.4472
vn 1.0000 -0.0000 -0.0000
vn 0.5145 0.8575 -0.0000
vn 0.5145 -0.8575 -0.0000
vn -0.0000 -1.0000 -0.0000
vn -0.5145 0.8575 -0.0000
vt 0.471973 0.222538
vt 0.471973 0.237468
vt 0.536794 0.203091
vt 0.528027 0.222537
vt 0.528027 0.237468
vt 0.536794 0.203093
vt 0.471973 0.172538
vt 0.536794 0.253091
vt 0.528027 0.172537
vt 0.536794 0.253094
vt 0.459961 0.112468
vt 0.516775 0.203091
vt 0.515126 0.253093
vt 0.459961 0.081913
vt 0.499111 0.253093
vt 0.540039 0.112468
vt 0.499110 0.253093
vt 0.515126 0.253093
vt 0.540039 0.081912
vt 0.516775 0.203094
vt 0.491102 0.203093
vt 0.473438 0.253096
vt 0.473438 0.253092
vt 0.491103 0.203093
vt 0.499110 0.203093
vt 0.515126 0.203093
vt 0.473438 0.203096
vt 0.540039 0.203093
vt 0.540039 0.081912
vt 0.515126 0.203093
vt 0.459961 0.203093
vt 0.459961 0.081913
vt 0.473438 0.203093
vt 0.499111 0.203093
vt 0.471973 0.253093
vt 0.539150 0.253093
vt 0.471973 0.231913
vt 0.528027 0.253093
vt 0.539149 0.253093
vt 0.528027 0.231912
vt 0.471973 0.203093
vt 0.539150 0.203093
vt 0.471973 0.231913
vt 0.528028 0.203093
vt 0.539149 0.203093
vt 0.528027 0.231912
vt 0.528027 0.222537
vt 0.453419 0.203096
vt 0.528027 0.078093
vt 0.471973 0.222538
vt 0.471973 0.078093
vt 0.453419 0.203093
vt 0.528027 0.172537
vt 0.453419 0.253096
vt 0.471973 0.172538
vt 0.453419 0.253092
vt 0.516775 0.253091
vt 0.491103 0.253095
vt 0.491102 0.253095
vt 0.516775 0.253094
s 0
usemtl steel_beams_hr_1
f 1/1/1 2/4/1 4/9/1 3/7/1
f 12/38/2 11/35/2 13/41/2 14/44/2
f 5/11/2 6/16/2 2/5/2 1/2/2
f 6/17/3 9/25/3 7/21/3 20/59/3
f 1/3/4 3/8/4 19/57/4 5/12/4
f 12/39/5 14/45/5 9/26/5 6/18/5
f 5/13/6 10/30/6 13/42/6 11/36/6
f 6/19/1 5/14/1 11/37/1 12/40/1
f 16/50/7 18/55/7 17/53/7 15/47/7
f 7/22/8 9/27/8 15/48/8 17/54/8
f 16/51/2 15/49/2 9/28/2 10/31/2
f 14/46/7 13/43/7 10/32/7 9/29/7
f 10/33/9 8/23/9 18/56/9 16/52/9
f 8/24/10 10/34/10 5/15/10 19/58/10
f 4/10/11 2/6/11 6/20/11 20/60/11
