# Blender 3.4.0
# www.blender.org
mtllib door_hr_8.mtl
o door_hr_8
v -1.000000 -0.000000 0.050000
v -1.000000 2.100000 0.050000
v -1.000000 -0.000000 0.000000
v -1.000000 2.100000 0.000000
v 0.000000 -0.000000 0.050000
v 0.000000 2.100000 0.050000
v 0.000000 -0.000000 0.000000
v 0.000000 2.100000 0.000000
v -0.671491 1.710000 0.000000
v -0.671491 1.909377 0.000000
v -0.335513 1.909377 0.000000
v -0.335513 1.710000 0.000000
v -0.671491 1.909376 0.050000
v -0.671491 1.710000 0.050000
v -0.335513 1.710000 0.050000
v -0.335513 1.909376 0.050000
v -0.656491 1.894376 0.060000
v -0.656491 1.725000 0.060000
v -0.350513 1.725000 0.060000
v -0.350513 1.894376 0.060000
v -0.671491 1.909376 0.060000
v -0.671491 1.710000 0.060000
v -0.335513 1.710000 0.060000
v -0.335513 1.909376 0.060000
v -0.671491 1.909376 -0.010000
v -0.671491 1.710000 -0.010000
v -0.335513 1.710000 -0.010000
v -0.335513 1.909376 -0.010000
v -0.656491 1.894376 -0.010000
v -0.656491 1.725000 -0.010000
v -0.350513 1.725000 -0.010000
v -0.350513 1.894376 -0.010000
v -0.494491 1.894376 0.040000
v -0.494491 1.725000 0.040000
v -0.505491 1.894376 0.040000
v -0.505491 1.725000 0.040000
v -0.505491 1.894377 0.010000
v -0.505491 1.725000 0.010000
v -0.494491 1.894377 0.010000
v -0.494491 1.725000 0.010000
v -0.350491 1.814376 0.030000
v -0.350491 1.805000 0.030000
v -0.656491 1.814376 0.030000
v -0.656491 1.805000 0.030000
v -0.656491 1.814376 0.020000
v -0.656491 1.805000 0.020000
v -0.350491 1.814376 0.020000
v -0.350491 1.805000 0.020000
v -0.350491 1.857376 0.030000
v -0.350491 1.848000 0.030000
v -0.656491 1.857376 0.030000
v -0.656491 1.848000 0.030000
v -0.656491 1.857376 0.020000
v -0.656491 1.848000 0.020000
v -0.350491 1.857376 0.020000
v -0.350491 1.848000 0.020000
v -0.350491 1.771376 0.030000
v -0.350491 1.762000 0.030000
v -0.656491 1.771376 0.030000
v -0.656491 1.762000 0.030000
v -0.656491 1.771376 0.020000
v -0.656491 1.762000 0.020000
v -0.350491 1.771376 0.020000
v -0.350491 1.762000 0.020000
vn -1.0000 -0.0000 -0.0000
vn -0.0000 -0.0000 -1.0000
vn 1.0000 -0.0000 -0.0000
vn -0.0000 -0.0000 1.0000
vn -0.0000 -1.0000 -0.0000
vn -0.0000 1.0000 -0.0000
vt 0.943662 0.000000
vt 0.000000 0.000000
vt 0.992958 0.023636
vt 0.943662 1.000000
vt 0.000000 1.000000
vt 0.992958 0.498182
vt 0.992958 0.000000
vt 0.000000 0.000000
vt 0.943662 0.023636
vt 0.992958 1.000000
vt 0.000000 1.000000
vt 0.943662 0.498182
vt 0.943662 0.000000
vt 0.922535 0.000000
vt 0.992958 0.500000
vt 0.943662 1.000000
vt 0.922535 1.000000
vt 0.992958 0.974545
vt 0.922535 0.000000
vt 0.992958 0.000000
vt 0.943662 0.500000
vt 0.922535 1.000000
vt 0.992958 1.000000
vt 0.943662 0.974545
vt 0.303061 0.814286
vt 0.303061 0.909227
vt 0.613013 0.909227
vt 0.613013 0.814286
vt 0.303061 0.909227
vt 0.303061 0.814286
vt 0.613013 0.814286
vt 0.613013 0.909227
vt 0.423234 0.542344
vt 0.423234 0.517500
vt 0.542344 0.517500
vt 0.423234 0.457656
vt 0.457656 0.517500
vt 0.423234 0.517500
vt 0.576223 0.457656
vt 0.457656 0.517500
vt 0.576223 0.517500
vt 0.576223 0.542344
vt 0.576223 0.517500
vt 0.542344 0.517500
vt 0.415734 0.549844
vt 0.415734 0.517500
vt 0.549844 0.517500
vt 0.415734 0.450156
vt 0.415734 0.517500
vt 0.450156 0.517500
vt 0.583723 0.450156
vt 0.583723 0.517500
vt 0.450156 0.517500
vt 0.583723 0.549844
vt 0.583723 0.517500
vt 0.549844 0.517500
vt 0.415734 0.549844
vt 0.415734 0.482500
vt 0.549844 0.482500
vt 0.415734 0.450156
vt 0.415734 0.482500
vt 0.450156 0.482500
vt 0.583723 0.450156
vt 0.583723 0.482500
vt 0.450156 0.482500
vt 0.583723 0.549844
vt 0.583723 0.482500
vt 0.549844 0.482500
vt 0.423234 0.542344
vt 0.423234 0.482500
vt 0.542344 0.482500
vt 0.423234 0.457656
vt 0.457656 0.482500
vt 0.423234 0.482500
vt 0.576223 0.457656
vt 0.457656 0.482500
vt 0.576223 0.482500
vt 0.576223 0.542344
vt 0.576223 0.482500
vt 0.542344 0.482500
vt 0.504234 0.542344
vt 0.542344 0.507500
vt 0.504234 0.457656
vt 0.457656 0.507500
vt 0.498734 0.542344
vt 0.542344 0.507500
vt 0.498734 0.457656
vt 0.457656 0.507500
vt 0.498734 0.542344
vt 0.542344 0.492500
vt 0.498734 0.457656
vt 0.457656 0.492500
vt 0.504234 0.542344
vt 0.542344 0.492500
vt 0.504234 0.457656
vt 0.457656 0.492500
vt 0.576234 0.516138
vt 0.576234 0.511450
vt 0.423234 0.516138
vt 0.423234 0.511450
vt 0.423234 0.516138
vt 0.423234 0.511450
vt 0.576234 0.516138
vt 0.576234 0.511450
vt 0.576234 0.523844
vt 0.576234 0.519156
vt 0.423234 0.523844
vt 0.423234 0.519156
vt 0.423234 0.523844
vt 0.423234 0.519156
vt 0.576234 0.523844
vt 0.576234 0.519156
vt 0.576234 0.480844
vt 0.576234 0.476156
vt 0.423234 0.480844
vt 0.423234 0.476156
vt 0.423234 0.480844
vt 0.423234 0.476156
vt 0.576234 0.480844
vt 0.576234 0.476156
s 0
usemtl door_hr_8
f 1/1/1 2/4/1 4/10/1 3/7/1
f 11/27/2 8/22/2 7/19/2 3/8/2 4/11/2 10/26/2 9/25/2 12/28/2
f 4/11/2 8/22/2 11/27/2 10/26/2
f 7/20/3 8/23/3 6/16/3 5/13/3
f 13/29/4 2/5/4 1/2/4 5/14/4 6/17/4 16/32/4 15/31/4 14/30/4
f 16/32/4 6/17/4 2/5/4 13/29/4
f 3/9/5 7/21/5 5/15/5 1/3/5
f 8/24/6 4/12/6 2/6/6 6/18/6
usemtl plastic_mx_2
f 17/33/4 21/45/4 22/48/4 18/36/4
f 18/36/4 22/48/4 23/51/4 19/39/4
f 20/42/4 24/54/4 21/45/4 17/33/4
f 19/39/4 23/51/4 24/54/4 20/42/4
f 29/69/2 30/72/2 26/60/2 25/57/2
f 30/72/2 31/75/2 27/63/2 26/60/2
f 32/78/2 29/69/2 25/57/2 28/66/2
f 31/75/2 32/78/2 28/66/2 27/63/2
f 23/52/5 22/49/5 26/61/5 27/64/5
f 20/43/5 17/34/5 29/70/5 32/79/5
f 17/35/3 18/37/3 30/73/3 29/71/3
f 21/46/6 24/55/6 28/67/6 25/58/6
f 22/50/1 21/47/1 25/59/1 26/62/1
f 19/40/1 20/44/1 32/80/1 31/76/1
f 18/38/6 19/41/6 31/77/6 30/74/6
f 24/56/3 23/53/3 27/65/3 28/68/3
f 33/81/4 35/85/4 36/87/4 34/83/4
f 39/93/2 40/95/2 38/91/2 37/89/2
f 33/82/3 34/84/3 40/96/3 39/94/3
f 36/88/1 35/86/1 37/90/1 38/92/1
f 41/97/4 43/99/4 44/100/4 42/98/4
f 47/103/2 48/104/2 46/102/2 45/101/2
f 49/105/4 51/107/4 52/108/4 50/106/4
f 55/111/2 56/112/2 54/110/2 53/109/2
f 57/113/4 59/115/4 60/116/4 58/114/4
f 63/119/2 64/120/2 62/118/2 61/117/2
