# Blender 3.4.0
# www.blender.org
mtllib gate_1.mtl
o gate_1
v -3.000000 1.600000 0.000000
v 2.000000 1.600000 -0.000000
v -3.000000 0.133000 0.050000
v -3.000000 1.600000 0.050000
v 2.000000 1.600000 0.050000
v -3.000000 0.133000 0.000000
v 2.000000 0.133000 -0.000000
v 2.000000 0.133000 0.050000
v 0.540000 0.133000 -0.000000
v 0.540000 0.133000 0.050000
v 1.913000 0.133000 0.050000
v 1.913000 0.133000 -0.000000
v -2.908500 0.133000 0.000000
v -2.908500 0.133000 0.050000
v 0.447075 0.133000 0.050000
v 0.447075 0.133000 -0.000000
v -2.908500 -0.000000 0.000000
v -3.000000 -0.000000 0.000000
v 2.000000 -0.000000 0.050000
v 2.000000 -0.000000 -0.000000
v 1.913000 -0.000000 0.050000
v -3.000000 -0.000000 0.050000
v 0.447075 -0.000000 0.050000
v 0.540000 -0.000000 0.050000
v 0.540000 -0.000000 -0.000000
v 1.913000 -0.000000 -0.000000
v -2.908500 -0.000000 0.050000
v 0.447075 -0.000000 -0.000000
v 0.540000 1.600000 0.000000
v 0.540000 1.600000 0.050000
v 1.889000 1.600000 -0.000000
v 1.889000 1.600000 0.050000
v 1.889001 0.133000 -0.000000
v 1.889001 0.133000 0.050000
vn -1.0000 -0.0000 -0.0000
vn -0.0000 1.0000 -0.0000
vn -0.0000 -0.0000 -1.0000
vn 1.0000 -0.0000 -0.0000
vn -0.0000 -0.0000 1.0000
vn -0.0000 -1.0000 -0.0000
vt 0.065885 1.000000
vt 0.000000 0.973186
vt 0.000000 1.000000
vt 0.718518 1.000000
vt 1.000000 0.973186
vt 1.000000 1.000000
vt 0.074219 0.083125
vt 1.000000 1.000000
vt 0.019578 0.080442
vt 0.005929 0.083596
vt 0.000000 0.083125
vt 0.074219 1.000000
vt 0.000000 1.000000
vt 0.727161 1.000000
vt 1.000000 1.000000
vt 0.065885 0.083125
vt 0.000000 0.083125
vt 1.000000 0.973186
vt 0.009766 0.080442
vt 0.005929 0.083596
vt 0.718518 0.082677
vt 0.994141 0.083125
vt 0.009766 0.080442
vt 1.000000 0.083125
vt 0.000000 0.973186
vt 0.727161 0.082677
vt 1.000000 0.083125
vt 0.994141 0.083125
vt 0.019578 0.080442
vt 0.000000 1.000000
vt 0.708000 0.083125
vt 0.292000 0.973186
vt 0.707500 0.083125
vt 0.009766 0.080442
vt 0.718518 0.082677
vt 0.292000 1.000000
vt 0.707500 0.083125
vt 0.019578 0.080442
vt 0.708000 0.083125
vt 0.727161 0.082677
vt 0.019578 0.080442
vt 0.978250 0.083125
vt 0.978250 0.083125
vt 0.009766 0.080442
vt 0.009766 0.080442
vt 0.022727 0.083596
vt 0.022727 0.083596
vt 0.019578 0.080442
vt 0.019578 0.080442
vt 0.688175 0.083125
vt 0.009766 0.080442
vt 0.688175 0.083125
vt 0.009766 0.000000
vt 0.022727 -0.000000
vt 0.009766 0.000000
vt 0.005929 0.000000
vt 0.994141 0.000000
vt 0.019578 0.000000
vt 0.994141 0.000000
vt 0.009766 0.000000
vt 0.019578 0.000000
vt 0.978250 0.000000
vt 0.019578 0.000000
vt 0.005929 0.000000
vt 0.019578 0.000000
vt 0.688175 0.000000
vt 0.707500 -0.000000
vt 0.019578 0.000000
vt 0.707500 -0.000000
vt 0.009766 0.000000
vt 0.978250 -0.000000
vt 0.009766 0.000000
vt 0.022727 -0.000000
vt 0.019578 0.000000
vt 0.009766 0.000000
vt 0.688175 0.000000
vt 0.708000 0.973186
vt 0.708000 1.000000
vt 0.718518 1.000000
vt 0.708000 1.000000
vt 0.727161 1.000000
vt 0.977800 0.973186
vt 0.977800 1.000000
vt 0.718518 1.000000
vt 0.977800 1.000000
vt 0.727161 1.000000
vt 0.977800 0.083125
vt 0.022200 0.973186
vt 0.718518 0.082677
vt 0.977800 0.083125
vt 0.022200 1.000000
vt 0.727161 0.082677
s 0
usemtl gate_hr_1
f 6/16/1 3/7/1 4/12/1 1/1/1
f 29/77/2 1/2/2 4/13/2 30/80/2
f 9/31/3 6/17/3 1/3/3 29/78/3
f 8/26/4 7/21/4 2/4/4 5/14/4
f 34/90/5 8/27/5 5/15/5 32/85/5
f 10/36/6 3/8/6 6/18/6 9/32/6
f 26/71/3 12/43/3 7/22/3 20/59/3
f 21/61/1 11/41/1 12/44/1 26/72/1
f 22/63/1 3/9/1 6/19/1 18/55/1
f 23/65/1 15/49/1 16/51/1 28/75/1
f 19/57/5 8/28/5 11/42/5 21/62/5
f 24/67/5 10/37/5 15/50/5 23/66/5
f 27/73/5 14/47/5 3/10/5 22/64/5
f 28/76/3 16/52/3 9/33/3 25/69/3
f 20/60/4 7/23/4 8/29/4 19/58/4
f 17/53/4 13/45/4 14/48/4 27/74/4
f 18/56/3 6/20/3 13/46/3 17/54/3
f 25/70/4 9/34/4 10/38/4 24/68/4
f 3/11/5 10/39/5 30/80/5 4/13/5
f 2/5/2 31/82/2 32/85/2 5/15/2
f 7/24/3 33/87/3 31/83/3 2/6/3
f 8/30/6 34/91/6 33/88/6 7/25/6
f 34/92/1 32/86/1 31/84/1 33/89/1
f 10/40/4 9/35/4 29/79/4 30/81/4
o gate_1_moving_part
v 0.540000 1.599998 0.000000
v 1.889000 0.132998 0.050000
v 0.540000 0.132999 -0.000000
v 0.540000 0.132999 0.050000
v 0.540000 1.599999 0.050000
v 1.889000 1.599999 -0.000000
v 1.889000 1.599999 0.050000
v 1.889001 0.132999 -0.000000
v 1.905000 0.339999 0.050005
v 1.900607 0.339999 0.039398
v 1.900607 0.339999 0.060611
v 1.875000 0.339999 0.050005
v 1.890000 0.339999 0.065005
v 1.879393 0.339999 0.060611
v 1.890000 0.339999 0.035005
v 1.879393 0.339999 0.039398
v 1.900607 0.239999 0.060611
v 1.905000 0.239999 0.050005
v 1.900607 0.239999 0.039398
v 1.890000 0.239999 0.065005
v 1.879393 0.239999 0.060611
v 1.875000 0.239999 0.050005
v 1.890000 0.239999 0.035005
v 1.879393 0.239999 0.039398
v 1.905000 1.500000 0.050005
v 1.900607 1.500000 0.039398
v 1.900607 1.500000 0.060611
v 1.875000 1.500000 0.050005
v 1.890000 1.500000 0.065005
v 1.879393 1.500000 0.060611
v 1.890000 1.500000 0.035005
v 1.879393 1.500000 0.039398
v 1.900607 1.400000 0.060611
v 1.905000 1.400000 0.050005
v 1.900607 1.400000 0.039398
v 1.890000 1.400000 0.065005
v 1.879393 1.400000 0.060611
v 1.875000 1.400000 0.050005
v 1.890000 1.400000 0.035005
v 1.879393 1.400000 0.039398
vn -0.0000 -1.0000 -0.0000
vn -0.0000 -0.0000 -1.0000
vn -0.0000 1.0000 -0.0000
vn -0.0000 -0.0000 1.0000
vn 1.0000 -0.0000 -0.0000
vn -1.0000 -0.0000 -0.0000
vn -0.0000 -0.6303 -0.7764
vn 0.5490 -0.6303 -0.5490
vn 0.7764 -0.6303 -0.0000
vn 0.5490 -0.6303 0.5490
vn -0.0000 -0.6303 0.7764
vn -0.5490 -0.6303 0.5490
vn -0.7764 -0.6303 -0.0000
vn -0.5490 -0.6303 -0.5490
vn -0.7764 0.6303 -0.0000
vn -0.5490 0.6303 0.5490
vn -0.0000 0.6303 0.7764
vn 0.7764 0.6303 -0.0000
vn 0.5490 0.6303 0.5490
vn -0.0000 0.6303 -0.7764
vn 0.5490 0.6303 -0.5490
vn -0.5490 0.6303 -0.5490
vt 0.708000 1.000000
vt 0.708000 0.973186
vt 0.718518 1.000000
vt 0.022200 1.000000
vt 0.977800 0.083125
vt 0.727161 0.082677
vt 0.292000 0.973186
vt 0.708000 0.083125
vt 0.718518 0.082677
vt 0.292000 1.000000
vt 0.708000 0.083125
vt 0.727161 0.082677
vt 0.708000 1.000000
vt 0.727161 1.000000
vt 0.977800 1.000000
vt 0.977800 0.973186
vt 0.718518 1.000000
vt 0.977800 1.000000
vt 0.727161 1.000000
vt 0.022200 0.973186
vt 0.977800 0.083125
vt 0.718518 0.082677
vt 0.988889 0.141732
vt 0.983951 0.141732
vt 0.984189 0.111467
vt 0.986420 0.141732
vt 0.984189 0.105641
vt 0.986420 0.141732
vt 0.985481 0.115586
vt 0.983951 0.141732
vt 0.988889 0.141732
vt 0.988600 0.105641
vt 0.988889 0.141732
vt 0.983951 0.141732
vt 0.987308 0.115586
vt 0.986420 0.141732
vt 0.988600 0.111467
vt 0.988889 0.141732
vt 0.983951 0.141732
vt 0.985481 0.101521
vt 0.986420 0.141732
vt 0.987308 0.101521
vt 0.985481 0.101424
vt 0.986420 0.090551
vt 0.984189 0.105544
vt 0.988889 0.090551
vt 0.983951 0.090551
vt 0.984189 0.111370
vt 0.986420 0.090551
vt 0.987308 0.101424
vt 0.988889 0.090551
vt 0.983951 0.090551
vt 0.988600 0.105544
vt 0.986420 0.090551
vt 0.988600 0.111370
vt 0.983951 0.090551
vt 0.988889 0.090551
vt 0.985481 0.115489
vt 0.988889 0.090551
vt 0.983951 0.090551
vt 0.987308 0.115489
vt 0.986420 0.090551
vt 0.988889 0.141732
vt 0.983951 0.141732
vt 0.984189 0.111467
vt 0.986420 0.141732
vt 0.984189 0.105641
vt 0.986420 0.141732
vt 0.985481 0.115586
vt 0.983951 0.141732
vt 0.988889 0.141732
vt 0.988600 0.105641
vt 0.988889 0.141732
vt 0.983951 0.141732
vt 0.987308 0.115586
vt 0.986420 0.141732
vt 0.988600 0.111467
vt 0.988889 0.141732
vt 0.983951 0.141732
vt 0.985481 0.101521
vt 0.986420 0.141732
vt 0.987308 0.101521
vt 0.985481 0.101424
vt 0.986420 0.090551
vt 0.984189 0.105544
vt 0.988889 0.090551
vt 0.983951 0.090551
vt 0.984189 0.111370
vt 0.986420 0.090551
vt 0.987308 0.101424
vt 0.988889 0.090551
vt 0.983951 0.090551
vt 0.988600 0.105544
vt 0.986420 0.090551
vt 0.988600 0.111370
vt 0.983951 0.090551
vt 0.988889 0.090551
vt 0.985481 0.115489
vt 0.988889 0.090551
vt 0.983951 0.090551
vt 0.987308 0.115489
vt 0.986420 0.090551
s 0
usemtl gate_hr_1
f 36/96/7 38/102/7 37/99/7 42/112/7
f 42/113/8 37/100/8 35/93/8 40/107/8
f 40/108/9 35/94/9 39/105/9 41/110/9
f 38/103/10 36/97/10 41/110/10 39/105/10
f 36/98/11 42/114/11 40/109/11 41/111/11
f 38/104/12 39/106/12 35/95/12 37/101/12
s 1
f 57/150/13 53/140/14 52/137/15 51/135/16 54/142/17 55/145/18 56/147/19 58/153/20
f 46/122/21 56/148/19 55/146/18 48/128/22
f 48/128/22 55/146/18 54/143/17 47/125/23
f 52/138/15 43/115/24 45/120/25 51/136/16
f 51/136/16 45/120/25 47/126/23 54/144/17
f 57/151/13 49/130/26 44/118/27 53/141/14
f 53/141/14 44/118/27 43/116/24 52/139/15
f 49/131/26 57/152/13 58/154/20 50/133/28
f 50/133/28 58/154/20 56/149/19 46/123/21
f 47/127/23 45/121/25 43/117/24 44/119/27 49/132/26 50/134/28 46/124/21 48/129/22
f 73/190/13 69/180/14 68/177/15 67/175/16 70/182/17 71/185/18 72/187/19 74/193/20
f 62/162/21 72/188/19 71/186/18 64/168/22
f 64/168/22 71/186/18 70/183/17 63/165/23
f 68/178/15 59/155/24 61/160/25 67/176/16
f 67/176/16 61/160/25 63/166/23 70/184/17
f 73/191/13 65/170/26 60/158/27 69/181/14
f 69/181/14 60/158/27 59/156/24 68/179/15
f 65/171/26 73/192/13 74/194/20 66/173/28
f 66/173/28 74/194/20 72/189/19 62/163/21
f 63/167/23 61/161/25 59/157/24 60/159/27 65/172/26 66/174/28 62/164/21 64/169/22
